<svg xmlns="http://www.w3.org/2000/svg" viewBox="0 0 1600 650"><defs><style>.d299bdba-391e-4b7d-bfe7-79193bd4e5b7{fill:#21a1bc;}.\35 f957003-ae06-40dc-86c6-659c1ed79ec7{fill:#ffa64f;}.\32 576f60c-09dd-4897-a0a0-be0c4af56100,.\36 473ab1d-0b66-4915-9bc2-7defea799f33{fill:#ffe5ed;}.\37 269060a-b43b-4d19-87bd-59a3455d2c82{fill:#ffbd7b;stroke-linecap:round;stroke-linejoin:round;stroke-width:0.84px;}.\37 269060a-b43b-4d19-87bd-59a3455d2c82,.ca0b4bbc-5177-499b-8ab6-602f9e097ec3{stroke:#f8f8f8;}.\32 d088957-9f0c-47ed-8a39-88a8a4dc8740,.\37 76f7120-2b41-4561-a73f-63c031b9e127{fill:#4c9754;}.\34 2591e0f-8f81-459b-8f03-5c2ce2554193{isolation:isolate;}.a38058a6-50d4-4621-b481-80b97b800741{fill:#fff;}.\33 092bf64-468a-4d6d-be22-76d8bc91a65b{fill:#ba9c73;}.\31 4c14fa5-c2ca-4a6b-a618-e11847c61ca8,.\31 6001e00-c12d-4079-8d9c-9c9b71f17e63,.\33 092bf64-468a-4d6d-be22-76d8bc91a65b,.\33 73fdcbb-f944-4aab-8154-68b17e4d616b,.\34 2fb67c0-f3b3-4dc2-8cf5-3a687d69242a,.\35 0ba35ea-06de-4a54-9535-13d82b8dc915,.\35 602982c-ed9c-4338-b0e1-e8ce6fbcd575,.\35 9bd86ad-d254-4558-928c-ecaef0407f37,.\36 473ab1d-0b66-4915-9bc2-7defea799f33,.\36 8d3a44d-abb9-4ee8-96f2-c3e2b7db3671,.\37 5a42ac4-1c00-4517-ab36-5ff0307307f9,.\37 76f7120-2b41-4561-a73f-63c031b9e127,.\37 d47468a-95ea-4441-8b57-97d3c80bed5f,.\38 4498a45-4b43-4200-a970-4b00442c54e2,.\38 f0efb08-ec4a-4b2d-8d5d-92eaa562266d,.\39 1e2de2b-dbc8-46e8-89df-88c24bbce886,.\39 e91c983-93c3-45e2-82ba-f3ddf75aa9f3,.\39 f6afd9a-d5ad-4140-8f5d-eb13d86a2cb1,.b1f3d3ba-ed84-4b1e-aaac-d6f9f699ca79,.bcd82445-511e-48c1-9272-907ddab4c8cb,.bfa8d22b-af9d-4ff1-a4fd-76588ff2257d,.c086b75a-20b7-4612-9def-897a6f09166b,.c6e37e64-3179-45a4-b8db-a8b229341b46,.c72236ec-54d0-4dd2-96e0-3c1ed4575b2a,.c7b13151-c044-4ea5-9007-db2d4b04cc64,.c825906b-4a7a-4293-b8a8-ca1a9f55e110,.e2adc619-8e60-48d8-a0e3-f90400afa015,.ea837584-d705-45c9-a73d-e69ddaa0983c,.ec7d7526-0625-4600-9096-d9b36514fd54,.f69a4f2f-4717-4343-95ed-3e6437b8d75e,.f9f76211-ac15-41a7-8b70-8aac8be1dbe3,.fcb27656-7d14-4951-a988-4175281e996b{stroke:#000;}.\31 4c14fa5-c2ca-4a6b-a618-e11847c61ca8,.\31 6001e00-c12d-4079-8d9c-9c9b71f17e63,.\33 092bf64-468a-4d6d-be22-76d8bc91a65b,.\33 73fdcbb-f944-4aab-8154-68b17e4d616b,.\34 2fb67c0-f3b3-4dc2-8cf5-3a687d69242a,.\34 f86435f-a510-4633-bc78-dbe8357fdadd,.\35 0ba35ea-06de-4a54-9535-13d82b8dc915,.\35 602982c-ed9c-4338-b0e1-e8ce6fbcd575,.\36 473ab1d-0b66-4915-9bc2-7defea799f33,.\37 76f7120-2b41-4561-a73f-63c031b9e127,.\37 b87f6d9-1ebc-4076-a614-cc6cb38eeb1a,.\37 d47468a-95ea-4441-8b57-97d3c80bed5f,.\38 4498a45-4b43-4200-a970-4b00442c54e2,.\38 f0efb08-ec4a-4b2d-8d5d-92eaa562266d,.\39 1e2de2b-dbc8-46e8-89df-88c24bbce886,.\39 e91c983-93c3-45e2-82ba-f3ddf75aa9f3,.\39 f6afd9a-d5ad-4140-8f5d-eb13d86a2cb1,.bcd82445-511e-48c1-9272-907ddab4c8cb,.bfa8d22b-af9d-4ff1-a4fd-76588ff2257d,.c086b75a-20b7-4612-9def-897a6f09166b,.c72236ec-54d0-4dd2-96e0-3c1ed4575b2a,.c7b13151-c044-4ea5-9007-db2d4b04cc64,.ca0b4bbc-5177-499b-8ab6-602f9e097ec3,.d12e4c78-77ab-4543-bb88-d2a6bcf458b4,.e2adc619-8e60-48d8-a0e3-f90400afa015,.ea837584-d705-45c9-a73d-e69ddaa0983c,.ec7d7526-0625-4600-9096-d9b36514fd54,.f69a4f2f-4717-4343-95ed-3e6437b8d75e,.f9f76211-ac15-41a7-8b70-8aac8be1dbe3,.fcb27656-7d14-4951-a988-4175281e996b{stroke-width:0.85px;}.e2adc619-8e60-48d8-a0e3-f90400afa015{fill:#4c9790;}.\34 f86435f-a510-4633-bc78-dbe8357fdadd{fill:#e8ebeb;stroke:#fff6f6;}.\31 4ccb8b3-99f8-46fa-b1fc-7b3eddb27663,.\35 9bd86ad-d254-4558-928c-ecaef0407f37,.\37 5a42ac4-1c00-4517-ab36-5ff0307307f9,.\37 b87f6d9-1ebc-4076-a614-cc6cb38eeb1a,.\38 4498a45-4b43-4200-a970-4b00442c54e2,.b1f3d3ba-ed84-4b1e-aaac-d6f9f699ca79,.ca0b4bbc-5177-499b-8ab6-602f9e097ec3,.d12e4c78-77ab-4543-bb88-d2a6bcf458b4{fill:none;}.d12e4c78-77ab-4543-bb88-d2a6bcf458b4{stroke:#fffbfb;}.\37 b87f6d9-1ebc-4076-a614-cc6cb38eeb1a{stroke:#fffdfd;}.\38 f0efb08-ec4a-4b2d-8d5d-92eaa562266d{fill:#394f59;}.bfa8d22b-af9d-4ff1-a4fd-76588ff2257d{fill:#1a101d;}.\39 f6afd9a-d5ad-4140-8f5d-eb13d86a2cb1{fill:#050e12;}.bcd82445-511e-48c1-9272-907ddab4c8cb{fill:#ec6f6f;}.ea837584-d705-45c9-a73d-e69ddaa0983c{fill:#ffe59d;}.f69a4f2f-4717-4343-95ed-3e6437b8d75e{fill:#ff9a9d;}.\39 e91c983-93c3-45e2-82ba-f3ddf75aa9f3{fill:#796552;}.\37 d47468a-95ea-4441-8b57-97d3c80bed5f{fill:#6e9c73;}.\36 8d3a44d-abb9-4ee8-96f2-c3e2b7db3671{fill:#191a04;stroke-width:0.76px;}.\33 73fdcbb-f944-4aab-8154-68b17e4d616b{fill:#0a161c;}.\31 6001e00-c12d-4079-8d9c-9c9b71f17e63{fill:#403317;}.c72236ec-54d0-4dd2-96e0-3c1ed4575b2a{fill:#1a160d;}.c086b75a-20b7-4612-9def-897a6f09166b{fill:#48629d;}.\39 1e2de2b-dbc8-46e8-89df-88c24bbce886{fill:#ff849d;}.c7b13151-c044-4ea5-9007-db2d4b04cc64{fill:#29b2bf;}.ec7d7526-0625-4600-9096-d9b36514fd54{fill:#9bfbfc;}.\31 4c14fa5-c2ca-4a6b-a618-e11847c61ca8{fill:#fdffff;}.fcb27656-7d14-4951-a988-4175281e996b{fill:#29bfbf;}.f9f76211-ac15-41a7-8b70-8aac8be1dbe3{fill:#f9fcfc;}.\34 2fb67c0-f3b3-4dc2-8cf5-3a687d69242a{fill:#733431;}.\35 602982c-ed9c-4338-b0e1-e8ce6fbcd575{fill:#48619d;}.\35 0ba35ea-06de-4a54-9535-13d82b8dc915{fill:#48759d;}.c825906b-4a7a-4293-b8a8-ca1a9f55e110{fill:#4b3832;stroke-width:1.01px;}.\31 4ccb8b3-99f8-46fa-b1fc-7b3eddb27663{stroke:#2ea0e0;stroke-width:4.05px;}.c6e37e64-3179-45a4-b8db-a8b229341b46{fill:#080000;stroke-width:1.42px;}.\37 5a42ac4-1c00-4517-ab36-5ff0307307f9{stroke-width:1.16px;}.b1f3d3ba-ed84-4b1e-aaac-d6f9f699ca79{stroke-width:1.16px;}.\35 9bd86ad-d254-4558-928c-ecaef0407f37{stroke-width:0.76px;}</style></defs><title>slide-2@700</title><g id="91940734-414d-4e22-bac5-9ee6b4c6114c" data-name="Layer 2"><g id="2473d5e7-b80b-4d73-aa7a-d0a6533bb195" data-name="Layer 1"><rect id="e9feb3cc-a4ac-44f6-b6c7-e68575b80d16" data-name="rect5580" class="d299bdba-391e-4b7d-bfe7-79193bd4e5b7" width="1600" height="650"/><rect id="43921dcf-11fa-43a7-948c-055889af2d8c" data-name="rect5617" class="5f957003-ae06-40dc-86c6-659c1ed79ec7" x="988.55" y="494.34" width="525.45" height="58.77"/><path class="2576f60c-09dd-4897-a0a0-be0c4af56100" d="M1033.08,532.06V516.43h5.12a5.94,5.94,0,0,1,3.83,1.05,3.79,3.79,0,0,1,1.28,3.11,3.17,3.17,0,0,1-.62,1.94,4,4,0,0,1-1.7,1.3,3.63,3.63,0,0,1,2,1.35,3.86,3.86,0,0,1,.74,2.37,4.18,4.18,0,0,1-1.36,3.3,5.65,5.65,0,0,1-3.86,1.2Zm2.06-9h3.12a3.27,3.27,0,0,0,2.17-.68,2.27,2.27,0,0,0,.81-1.84,2.24,2.24,0,0,0-.75-1.88,3.7,3.7,0,0,0-2.29-.59h-3.05Zm0,1.65v5.62h3.41a3.28,3.28,0,0,0,2.27-.75,2.62,2.62,0,0,0,.83-2.05q0-2.82-3.07-2.82Z"/><path class="2576f60c-09dd-4897-a0a0-be0c4af56100" d="M1055.63,524.83h-6.78v5.54h7.88v1.68h-9.94V516.43h9.83v1.68h-7.77v5h6.78Z"/><path class="2576f60c-09dd-4897-a0a0-be0c4af56100" d="M1063.9,525.09a9.69,9.69,0,0,1-3.86-1.87,3.57,3.57,0,0,1-1.21-2.74,3.78,3.78,0,0,1,1.48-3.05,5.88,5.88,0,0,1,3.84-1.21,6.43,6.43,0,0,1,2.87.62,4.72,4.72,0,0,1,2,1.72,4.39,4.39,0,0,1,.69,2.39h-2.07a2.86,2.86,0,0,0-.9-2.23,3.67,3.67,0,0,0-2.55-.81,3.76,3.76,0,0,0-2.38.67,2.24,2.24,0,0,0-.85,1.86,2,2,0,0,0,.81,1.62,8,8,0,0,0,2.76,1.21,12.84,12.84,0,0,1,3.05,1.21,4.64,4.64,0,0,1,1.63,1.54,3.92,3.92,0,0,1,.53,2.07,3.65,3.65,0,0,1-1.48,3,6.32,6.32,0,0,1-4,1.14,7.36,7.36,0,0,1-3-.62,5.06,5.06,0,0,1-2.16-1.69,4.12,4.12,0,0,1-.76-2.44h2.07a2.69,2.69,0,0,0,1,2.24,4.42,4.42,0,0,0,2.8.82,4.05,4.05,0,0,0,2.5-.67,2.16,2.16,0,0,0,.87-1.81,2.12,2.12,0,0,0-.81-1.78A9.32,9.32,0,0,0,1063.9,525.09Z"/><path class="2576f60c-09dd-4897-a0a0-be0c4af56100" d="M1083.16,518.12h-5v13.94h-2.05V518.12h-5v-1.68h12.1Z"/><path class="2576f60c-09dd-4897-a0a0-be0c4af56100" d="M1102.53,532.06h-2.07v-7.22h-7.89v7.22h-2.06V516.43h2.06v6.72h7.89v-6.72h2.07Z"/><path class="2576f60c-09dd-4897-a0a0-be0c4af56100" d="M1115,528h-6.55l-1.47,4.09h-2.13l6-15.62h1.8l6,15.63h-2.12Zm-5.93-1.68h5.32l-2.67-7.31Z"/><path class="2576f60c-09dd-4897-a0a0-be0c4af56100" d="M1132.77,532.06h-2.07l-7.88-12v12h-2.07V516.43h2.07l7.9,12.09V516.43h2.05Z"/><path class="2576f60c-09dd-4897-a0a0-be0c4af56100" d="M1136.43,532.06V516.43h4.42a7.12,7.12,0,0,1,3.61.9,6.11,6.11,0,0,1,2.42,2.56,8.34,8.34,0,0,1,.86,3.82v1a8.37,8.37,0,0,1-.85,3.88,6,6,0,0,1-2.44,2.55,7.58,7.58,0,0,1-3.69.91Zm2.06-13.94v12.26h2.17a4.73,4.73,0,0,0,3.71-1.48,6.12,6.12,0,0,0,1.33-4.22v-.91a6.22,6.22,0,0,0-1.25-4.14,4.46,4.46,0,0,0-3.55-1.5Z"/><path class="2576f60c-09dd-4897-a0a0-be0c4af56100" d="M1154.24,527.13l.3,2.06.44-1.86,3.1-10.9h1.74l3,10.9.43,1.89.33-2.1,2.43-10.69h2.07l-3.79,15.63h-1.88l-3.22-11.39-.25-1.19-.25,1.19-3.34,11.39h-1.88l-3.78-15.62h2.06Z"/><path class="2576f60c-09dd-4897-a0a0-be0c4af56100" d="M1176.13,525.73h-3.67v6.32h-2.07V516.43h5.18a6.13,6.13,0,0,1,4.07,1.2,4.32,4.32,0,0,1,1.42,3.5,4.2,4.2,0,0,1-.79,2.54,4.71,4.71,0,0,1-2.2,1.62l3.67,6.63v.13h-2.21Zm-3.67-1.68h3.17a3.58,3.58,0,0,0,2.44-.79,2.69,2.69,0,0,0,.91-2.13,2.83,2.83,0,0,0-.87-2.23,3.66,3.66,0,0,0-2.5-.79h-3.16Z"/><path class="2576f60c-09dd-4897-a0a0-be0c4af56100" d="M1186.16,532.06h-2.06V516.43h2.06Z"/><path class="2576f60c-09dd-4897-a0a0-be0c4af56100" d="M1200.43,518.12h-5v13.94h-2.05V518.12h-5v-1.68h12.1Z"/><path class="2576f60c-09dd-4897-a0a0-be0c4af56100" d="M1213.73,518.12h-5v13.94h-2.05V518.12h-5v-1.68h12.1Z"/><path class="2576f60c-09dd-4897-a0a0-be0c4af56100" d="M1224.9,524.83h-6.78v5.54H1226v1.68h-9.94V516.43h9.83v1.68h-7.77v5h6.78Z"/><path class="2576f60c-09dd-4897-a0a0-be0c4af56100" d="M1240.59,532.06h-2.07l-7.88-12v12h-2.07V516.43h2.07l7.9,12.09V516.43h2.05Z"/><path class="2576f60c-09dd-4897-a0a0-be0c4af56100" d="M1261.72,532.06h-2.07l-7.88-12v12h-2.07V516.43h2.07l7.9,12.09V516.43h2.05Z"/><path class="2576f60c-09dd-4897-a0a0-be0c4af56100" d="M1277.42,524.75a9.65,9.65,0,0,1-.77,4,5.86,5.86,0,0,1-2.19,2.61,6,6,0,0,1-3.31.9,5.84,5.84,0,0,1-5.5-3.49,9.26,9.26,0,0,1-.81-3.89v-1.13a9.54,9.54,0,0,1,.78-4,5.8,5.8,0,0,1,5.5-3.56,6.07,6.07,0,0,1,3.32.91,5.84,5.84,0,0,1,2.21,2.63,9.69,9.69,0,0,1,.77,4Zm-2.05-1a7,7,0,0,0-1.12-4.27,3.69,3.69,0,0,0-3.13-1.49,3.65,3.65,0,0,0-3.08,1.49,6.86,6.86,0,0,0-1.16,4.13v1.15A7,7,0,0,0,1268,529a4,4,0,0,0,6.22.09,7,7,0,0,0,1.13-4.17Z"/><path class="2576f60c-09dd-4897-a0a0-be0c4af56100" d="M1291,518.12h-5v13.94H1284V518.12h-5v-1.68H1291Z"/><path class="2576f60c-09dd-4897-a0a0-be0c4af56100" d="M1302.21,524.83h-6.78v5.54h7.88v1.68h-9.94V516.43h9.83v1.68h-7.77v5h6.78Z"/><path class="2576f60c-09dd-4897-a0a0-be0c4af56100" d="M1310.48,525.09a9.69,9.69,0,0,1-3.86-1.87,3.57,3.57,0,0,1-1.21-2.74,3.78,3.78,0,0,1,1.48-3.05,5.88,5.88,0,0,1,3.84-1.21,6.43,6.43,0,0,1,2.87.62,4.72,4.72,0,0,1,2,1.72,4.39,4.39,0,0,1,.69,2.39h-2.07a2.86,2.86,0,0,0-.9-2.23,3.67,3.67,0,0,0-2.55-.81,3.76,3.76,0,0,0-2.38.67,2.24,2.24,0,0,0-.85,1.86,2,2,0,0,0,.81,1.62,8,8,0,0,0,2.76,1.21,12.84,12.84,0,0,1,3.05,1.21,4.64,4.64,0,0,1,1.63,1.54,3.92,3.92,0,0,1,.53,2.07,3.65,3.65,0,0,1-1.48,3,6.32,6.32,0,0,1-4,1.14,7.36,7.36,0,0,1-3-.62,5.06,5.06,0,0,1-2.16-1.69,4.12,4.12,0,0,1-.76-2.44H1307a2.69,2.69,0,0,0,1,2.24,4.42,4.42,0,0,0,2.8.82,4.05,4.05,0,0,0,2.5-.67,2.16,2.16,0,0,0,.87-1.81,2.12,2.12,0,0,0-.81-1.78A9.32,9.32,0,0,0,1310.48,525.09Z"/><path class="2576f60c-09dd-4897-a0a0-be0c4af56100" d="M1335.89,527.1a5.75,5.75,0,0,1-1.83,3.83,6,6,0,0,1-4.1,1.35,5.52,5.52,0,0,1-4.44-2,8,8,0,0,1-1.67-5.31v-1.5a8.89,8.89,0,0,1,.78-3.83,5.81,5.81,0,0,1,2.21-2.54,6.15,6.15,0,0,1,3.31-.89,5.66,5.66,0,0,1,4,1.39,5.82,5.82,0,0,1,1.75,3.85h-2.07a4.49,4.49,0,0,0-1.17-2.71,3.53,3.53,0,0,0-2.51-.84,3.69,3.69,0,0,0-3.1,1.46,6.7,6.7,0,0,0-1.12,4.16V525a6.89,6.89,0,0,0,1.06,4,3.44,3.44,0,0,0,3,1.5,4,4,0,0,0,2.64-.78,4.32,4.32,0,0,0,1.22-2.71Z"/><path class="2576f60c-09dd-4897-a0a0-be0c4af56100" d="M1350.73,532.06h-2.07v-7.22h-7.89v7.22h-2.06V516.43h2.06v6.72h7.89v-6.72h2.07Z"/><path class="2576f60c-09dd-4897-a0a0-be0c4af56100" d="M1363.23,528h-6.55l-1.47,4.09h-2.13l6-15.62h1.8l6,15.63h-2.12Zm-5.93-1.68h5.32l-2.67-7.31Z"/><path class="2576f60c-09dd-4897-a0a0-be0c4af56100" d="M1371,525.94v6.12h-2.06V516.43h5.77a5.8,5.8,0,0,1,4,1.31,4.43,4.43,0,0,1,1.46,3.47,4.38,4.38,0,0,1-1.42,3.5,6.06,6.06,0,0,1-4.08,1.23Zm0-1.68h3.71a3.71,3.71,0,0,0,2.54-.78,2.85,2.85,0,0,0,.88-2.25,2.94,2.94,0,0,0-.88-2.24,3.47,3.47,0,0,0-2.42-.87H1371Z"/><path class="2576f60c-09dd-4897-a0a0-be0c4af56100" d="M1393.64,518.12h-5v13.94h-2.05V518.12h-5v-1.68h12.1Z"/><path class="2576f60c-09dd-4897-a0a0-be0c4af56100" d="M1404.8,524.83H1398v5.54h7.88v1.68H1396V516.43h9.83v1.68H1398v5h6.78Z"/><path class="2576f60c-09dd-4897-a0a0-be0c4af56100" d="M1414.21,525.73h-3.67v6.32h-2.07V516.43h5.18a6.13,6.13,0,0,1,4.07,1.2,4.32,4.32,0,0,1,1.42,3.5,4.2,4.2,0,0,1-.79,2.54,4.71,4.71,0,0,1-2.2,1.62l3.67,6.63v.13h-2.21Zm-3.67-1.68h3.17a3.58,3.58,0,0,0,2.44-.79,2.69,2.69,0,0,0,.91-2.13,2.83,2.83,0,0,0-.87-2.23,3.66,3.66,0,0,0-2.5-.79h-3.16Z"/><path class="2576f60c-09dd-4897-a0a0-be0c4af56100" d="M1425.39,527.13l.3,2.06.44-1.86,3.1-10.9H1431l3,10.9.43,1.89.33-2.1,2.43-10.69h2.07l-3.79,15.63h-1.88l-3.22-11.39-.25-1.19-.25,1.19-3.34,11.39h-1.88l-3.78-15.62h2.06Z"/><path class="2576f60c-09dd-4897-a0a0-be0c4af56100" d="M1443.76,532.06h-2.06V516.43h2.06Z"/><path class="2576f60c-09dd-4897-a0a0-be0c4af56100" d="M1452.14,525.09a9.69,9.69,0,0,1-3.86-1.87,3.57,3.57,0,0,1-1.21-2.74,3.78,3.78,0,0,1,1.48-3.05,5.88,5.88,0,0,1,3.84-1.21,6.43,6.43,0,0,1,2.87.62,4.72,4.72,0,0,1,2,1.72,4.39,4.39,0,0,1,.69,2.39h-2.07a2.86,2.86,0,0,0-.9-2.23,3.67,3.67,0,0,0-2.55-.81,3.76,3.76,0,0,0-2.38.67,2.24,2.24,0,0,0-.85,1.86,2,2,0,0,0,.81,1.62,8,8,0,0,0,2.76,1.21,12.84,12.84,0,0,1,3.05,1.21,4.64,4.64,0,0,1,1.63,1.54,3.92,3.92,0,0,1,.53,2.07,3.65,3.65,0,0,1-1.48,3,6.32,6.32,0,0,1-4,1.14,7.36,7.36,0,0,1-3-.62,5.06,5.06,0,0,1-2.16-1.69,4.12,4.12,0,0,1-.76-2.44h2.07a2.69,2.69,0,0,0,1,2.24,4.42,4.42,0,0,0,2.8.82,4.05,4.05,0,0,0,2.5-.67,2.16,2.16,0,0,0,.87-1.81,2.12,2.12,0,0,0-.81-1.78A9.32,9.32,0,0,0,1452.14,525.09Z"/><path class="2576f60c-09dd-4897-a0a0-be0c4af56100" d="M1469.43,524.83h-6.78v5.54h7.88v1.68h-9.94V516.43h9.83v1.68h-7.77v5h6.78Z"/><rect id="0fcaf896-69d9-4eea-a7aa-bcbf0e98d70e" data-name="rect5617-6" class="7269060a-b43b-4d19-87bd-59a3455d2c82" x="988.55" y="562.43" width="525.45" height="58.77"/><path class="2d088957-9f0c-47ed-8a39-88a8a4dc8740" d="M1062.55,598.24h-2.07V591h-7.89v7.22h-2.06V582.61h2.06v6.72h7.89v-6.72h2.07Z"/><path class="2d088957-9f0c-47ed-8a39-88a8a4dc8740" d="M1068.43,598.24h-2.06V582.61h2.06Z"/><path class="2d088957-9f0c-47ed-8a39-88a8a4dc8740" d="M1083.75,596.19a4.77,4.77,0,0,1-2.22,1.7,9,9,0,0,1-3.32.56,6.43,6.43,0,0,1-3.4-.9,6,6,0,0,1-2.29-2.55,8.78,8.78,0,0,1-.83-3.83v-1.36a8.21,8.21,0,0,1,1.65-5.47,5.75,5.75,0,0,1,4.64-1.94,6,6,0,0,1,3.94,1.25,5.45,5.45,0,0,1,1.83,3.55h-2.06a3.41,3.41,0,0,0-3.7-3.11,3.65,3.65,0,0,0-3.14,1.46,7.1,7.1,0,0,0-1.08,4.22V591a6.65,6.65,0,0,0,1.2,4.18,3.9,3.9,0,0,0,3.26,1.55,7.18,7.18,0,0,0,2-.26,3.14,3.14,0,0,0,1.44-.87v-3.5h-3.62v-1.68h5.67Z"/><path class="2d088957-9f0c-47ed-8a39-88a8a4dc8740" d="M1099.22,598.24h-2.07V591h-7.89v7.22h-2.06V582.61h2.06v6.72h7.89v-6.72h2.07Z"/><path class="2d088957-9f0c-47ed-8a39-88a8a4dc8740" d="M1111.72,591h-6.78v5.54h7.88v1.68h-9.94V582.61h9.83v1.68h-7.77v5h6.78Z"/><path class="2d088957-9f0c-47ed-8a39-88a8a4dc8740" d="M1121.13,591.92h-3.67v6.32h-2.07V582.61h5.18a6.13,6.13,0,0,1,4.07,1.2,4.32,4.32,0,0,1,1.42,3.5,4.2,4.2,0,0,1-.79,2.54,4.71,4.71,0,0,1-2.2,1.62l3.67,6.63v.13h-2.21Zm-3.67-1.68h3.17a3.58,3.58,0,0,0,2.44-.79,2.69,2.69,0,0,0,.91-2.13,2.83,2.83,0,0,0-.87-2.23,3.66,3.66,0,0,0-2.5-.79h-3.16Z"/><path class="2d088957-9f0c-47ed-8a39-88a8a4dc8740" d="M1146.43,590.93a9.65,9.65,0,0,1-.77,4,5.86,5.86,0,0,1-2.19,2.61,6,6,0,0,1-3.31.9,5.84,5.84,0,0,1-5.5-3.49,9.26,9.26,0,0,1-.81-3.89v-1.13a9.54,9.54,0,0,1,.78-4,5.8,5.8,0,0,1,5.5-3.56,6.07,6.07,0,0,1,3.32.91,5.84,5.84,0,0,1,2.21,2.63,9.69,9.69,0,0,1,.77,4Zm-2.05-1a7,7,0,0,0-1.12-4.27,3.69,3.69,0,0,0-3.13-1.49,3.65,3.65,0,0,0-3.08,1.49,6.86,6.86,0,0,0-1.16,4.13v1.15a7,7,0,0,0,1.13,4.23,4,4,0,0,0,6.22.09,7,7,0,0,0,1.13-4.17Z"/><path class="2d088957-9f0c-47ed-8a39-88a8a4dc8740" d="M1155.26,591.92h-3.67v6.32h-2.07V582.61h5.18a6.13,6.13,0,0,1,4.07,1.2,4.32,4.32,0,0,1,1.42,3.5,4.2,4.2,0,0,1-.79,2.54,4.71,4.71,0,0,1-2.2,1.62l3.67,6.63v.13h-2.21Zm-3.67-1.68h3.17a3.58,3.58,0,0,0,2.44-.79,2.69,2.69,0,0,0,.91-2.13,2.83,2.83,0,0,0-.87-2.23,3.66,3.66,0,0,0-2.5-.79h-3.16Z"/><path class="2d088957-9f0c-47ed-8a39-88a8a4dc8740" d="M1163.07,598.24V582.61h4.42a7.12,7.12,0,0,1,3.61.9,6.11,6.11,0,0,1,2.42,2.56,8.34,8.34,0,0,1,.86,3.82v1a8.37,8.37,0,0,1-.85,3.88,6,6,0,0,1-2.44,2.55,7.58,7.58,0,0,1-3.69.91Zm2.06-13.94v12.26h2.17a4.73,4.73,0,0,0,3.71-1.48,6.12,6.12,0,0,0,1.33-4.22v-.91a6.22,6.22,0,0,0-1.25-4.14,4.46,4.46,0,0,0-3.55-1.5Z"/><path class="2d088957-9f0c-47ed-8a39-88a8a4dc8740" d="M1186.35,591h-6.78v5.54h7.88v1.68h-9.94V582.61h9.83v1.68h-7.77v5h6.78Z"/><path class="2d088957-9f0c-47ed-8a39-88a8a4dc8740" d="M1195.75,591.92h-3.67v6.32H1190V582.61h5.18a6.13,6.13,0,0,1,4.07,1.2,4.32,4.32,0,0,1,1.42,3.5,4.2,4.2,0,0,1-.79,2.54,4.71,4.71,0,0,1-2.2,1.62l3.67,6.63v.13h-2.21Zm-3.67-1.68h3.17a3.58,3.58,0,0,0,2.44-.79,2.69,2.69,0,0,0,.91-2.13,2.83,2.83,0,0,0-.87-2.23,3.66,3.66,0,0,0-2.5-.79h-3.16Z"/><path class="2d088957-9f0c-47ed-8a39-88a8a4dc8740" d="M1211.68,582.61l5.12,12.75,5.12-12.75h2.68v15.63h-2.06v-6.08l.19-6.57-5.14,12.65H1216l-5.13-12.62.2,6.54v6.08H1209V582.61Z"/><path class="2d088957-9f0c-47ed-8a39-88a8a4dc8740" d="M1239.74,593.28a5.75,5.75,0,0,1-1.83,3.83,6,6,0,0,1-4.1,1.35,5.52,5.52,0,0,1-4.44-2,8,8,0,0,1-1.67-5.31v-1.5a8.89,8.89,0,0,1,.78-3.83,5.81,5.81,0,0,1,2.21-2.54,6.15,6.15,0,0,1,3.31-.89,5.66,5.66,0,0,1,4,1.39,5.82,5.82,0,0,1,1.75,3.85h-2.07a4.49,4.49,0,0,0-1.17-2.71,3.53,3.53,0,0,0-2.51-.84,3.69,3.69,0,0,0-3.1,1.46,6.7,6.7,0,0,0-1.12,4.16v1.51a6.89,6.89,0,0,0,1.06,4,3.44,3.44,0,0,0,3,1.5,4,4,0,0,0,2.64-.78,4.32,4.32,0,0,0,1.22-2.71Z"/><path class="2d088957-9f0c-47ed-8a39-88a8a4dc8740" d="M1254.5,590.93a9.63,9.63,0,0,1-.72,3.9,6,6,0,0,1-2,2.56l2.79,2.19-1.41,1.3-3.3-2.62a6.72,6.72,0,0,1-1.63.19,5.84,5.84,0,0,1-5.5-3.49,9.27,9.27,0,0,1-.81-3.89v-1.13a9.54,9.54,0,0,1,.79-4,5.8,5.8,0,0,1,5.5-3.56,6.07,6.07,0,0,1,3.33.91,5.89,5.89,0,0,1,2.21,2.62,9.61,9.61,0,0,1,.77,4Zm-2.06-1a7.08,7.08,0,0,0-1.1-4.25,4,4,0,0,0-6.21,0,6.86,6.86,0,0,0-1.16,4.13v1.15a7.07,7.07,0,0,0,1.12,4.23,4,4,0,0,0,6.22.09,7,7,0,0,0,1.13-4.17Z"/><path class="2d088957-9f0c-47ed-8a39-88a8a4dc8740" d="M1258.59,582.94l-.23,3.95H1257v-5.14h1.6Z"/><path class="2d088957-9f0c-47ed-8a39-88a8a4dc8740" d="M1267.12,595.16a1.46,1.46,0,0,0-.61-1.25,5.86,5.86,0,0,0-2.12-.77,10,10,0,0,1-2.4-.77,3.42,3.42,0,0,1-1.31-1.07,2.56,2.56,0,0,1-.42-1.48,3,3,0,0,1,1.21-2.42,4.72,4.72,0,0,1,3.09-1,4.86,4.86,0,0,1,3.21,1A3.24,3.24,0,0,1,1269,590h-2a1.79,1.79,0,0,0-.69-1.41,2.6,2.6,0,0,0-1.75-.59,2.72,2.72,0,0,0-1.7.47,1.49,1.49,0,0,0-.61,1.23,1.2,1.2,0,0,0,.57,1.08,7,7,0,0,0,2.06.7,10.75,10.75,0,0,1,2.41.79,3.53,3.53,0,0,1,1.37,1.11,2.73,2.73,0,0,1,.45,1.58,3,3,0,0,1-1.25,2.5,5.23,5.23,0,0,1-3.24.94,5.87,5.87,0,0,1-2.47-.49,4,4,0,0,1-1.68-1.38,3.32,3.32,0,0,1-.61-1.92h2a2.06,2.06,0,0,0,.8,1.58,3.11,3.11,0,0,0,2,.58,3.21,3.21,0,0,0,1.81-.46A1.4,1.4,0,0,0,1267.12,595.16Z"/><path class="2d088957-9f0c-47ed-8a39-88a8a4dc8740" d="M1286.1,594.15h-6.55l-1.47,4.09h-2.13l6-15.62h1.8l6,15.63h-2.12Zm-5.93-1.68h5.32l-2.67-7.31Z"/><path class="2d088957-9f0c-47ed-8a39-88a8a4dc8740" d="M1303.84,598.24h-2.07l-7.88-12v12h-2.07V582.61h2.07l7.9,12.09V582.61h2.05Z"/><path class="2d088957-9f0c-47ed-8a39-88a8a4dc8740" d="M1307.51,598.24V582.61h4.42a7.12,7.12,0,0,1,3.61.9,6.11,6.11,0,0,1,2.42,2.56,8.34,8.34,0,0,1,.86,3.82v1a8.37,8.37,0,0,1-.85,3.88,6,6,0,0,1-2.44,2.55,7.58,7.58,0,0,1-3.69.91Zm2.06-13.94v12.26h2.17a4.73,4.73,0,0,0,3.71-1.48,6.12,6.12,0,0,0,1.33-4.22v-.91a6.22,6.22,0,0,0-1.25-4.14,4.46,4.46,0,0,0-3.55-1.5Z"/><path class="2d088957-9f0c-47ed-8a39-88a8a4dc8740" d="M1336.23,591h-6.78v5.54h7.88v1.68h-9.94V582.61h9.83v1.68h-7.77v5h6.78Z"/><path class="2d088957-9f0c-47ed-8a39-88a8a4dc8740" d="M1345.08,595.5l4.47-12.89h2.26l-5.8,15.63h-1.83l-5.79-15.62h2.25Z"/><path class="2d088957-9f0c-47ed-8a39-88a8a4dc8740" d="M1361.73,594.15h-6.55l-1.47,4.09h-2.13l6-15.62h1.8l6,15.63h-2.12Zm-5.93-1.68h5.32l-2.67-7.31Z"/><path class="2d088957-9f0c-47ed-8a39-88a8a4dc8740" d="M1369.52,596.55h7.42v1.68h-9.49V582.61h2.07Z"/><path class="2d088957-9f0c-47ed-8a39-88a8a4dc8740" d="M1389.73,582.61v10.62a5,5,0,0,1-1.39,3.62,5.61,5.61,0,0,1-3.75,1.58l-.55,0a5.86,5.86,0,0,1-4.09-1.38,4.94,4.94,0,0,1-1.55-3.81V582.61h2v10.58a3.26,3.26,0,0,0,3.6,3.57,3.62,3.62,0,0,0,2.68-.93,3.56,3.56,0,0,0,.93-2.63V582.61Z"/><path class="2d088957-9f0c-47ed-8a39-88a8a4dc8740" d="M1401.39,594.15h-6.55l-1.47,4.09h-2.13l6-15.62h1.8l6,15.63h-2.12Zm-5.93-1.68h5.32l-2.67-7.31Z"/><path class="2d088957-9f0c-47ed-8a39-88a8a4dc8740" d="M1416.53,584.3h-5v13.94h-2.05V584.3h-5v-1.68h12.1Z"/><path class="2d088957-9f0c-47ed-8a39-88a8a4dc8740" d="M1421.06,598.24H1419V582.61h2.06Z"/><path class="2d088957-9f0c-47ed-8a39-88a8a4dc8740" d="M1436.87,590.93a9.65,9.65,0,0,1-.77,4,5.86,5.86,0,0,1-2.19,2.61,6,6,0,0,1-3.31.9,5.84,5.84,0,0,1-5.5-3.49,9.26,9.26,0,0,1-.81-3.89v-1.13a9.54,9.54,0,0,1,.78-4,5.8,5.8,0,0,1,5.5-3.56,6.07,6.07,0,0,1,3.32.91,5.84,5.84,0,0,1,2.21,2.63,9.69,9.69,0,0,1,.77,4Zm-2.05-1a7,7,0,0,0-1.12-4.27,3.69,3.69,0,0,0-3.13-1.49,3.65,3.65,0,0,0-3.08,1.49,6.86,6.86,0,0,0-1.16,4.13v1.15a7,7,0,0,0,1.13,4.23,4,4,0,0,0,6.22.09,7,7,0,0,0,1.13-4.17Z"/><path class="2d088957-9f0c-47ed-8a39-88a8a4dc8740" d="M1452,598.24h-2.07l-7.88-12v12H1440V582.61H1442l7.9,12.09V582.61H1452Z"/><g class="42591e0f-8f81-459b-8f03-5c2ce2554193"><path class="a38058a6-50d4-4621-b481-80b97b800741" d="M641.48,403.36h-.67v-.21h.67Z"/><path class="a38058a6-50d4-4621-b481-80b97b800741" d="M642.25,403.36h-.67v-.21h.67Z"/><path class="a38058a6-50d4-4621-b481-80b97b800741" d="M643,403.36h-.67v-.21H643Z"/></g><g class="42591e0f-8f81-459b-8f03-5c2ce2554193"><path class="a38058a6-50d4-4621-b481-80b97b800741" d="M71.14,392.19H57.73l-3,8.37H50.36l12.23-32h3.69l12.25,32H74.2ZM59,388.74H69.89l-5.45-15Z"/><path class="a38058a6-50d4-4621-b481-80b97b800741" d="M106.14,390.41a11.75,11.75,0,0,1-3.75,7.83A12.3,12.3,0,0,1,94,401a11.29,11.29,0,0,1-9.09-4.06q-3.42-4.06-3.42-10.87V383a18.19,18.19,0,0,1,1.59-7.84A11.89,11.89,0,0,1,87.61,370a12.59,12.59,0,0,1,6.77-1.81,11.58,11.58,0,0,1,8.18,2.84,11.9,11.9,0,0,1,3.58,7.87H101.9q-.55-3.83-2.39-5.55a7.22,7.22,0,0,0-5.13-1.72,7.56,7.56,0,0,0-6.34,3q-2.3,3-2.3,8.5v3.1a14.09,14.09,0,0,0,2.18,8.28A7,7,0,0,0,94,397.54,8.13,8.13,0,0,0,99.4,396q1.88-1.59,2.5-5.54Z"/><path class="a38058a6-50d4-4621-b481-80b97b800741" d="M129.58,392.19H116.17l-3,8.37H108.8l12.23-32h3.69l12.25,32h-4.33Zm-12.14-3.45h10.88l-5.45-15Z"/><path class="a38058a6-50d4-4621-b481-80b97b800741" d="M141.28,400.55v-32h9a14.57,14.57,0,0,1,7.39,1.84,12.48,12.48,0,0,1,5,5.25,17.07,17.07,0,0,1,1.77,7.82v2a17.13,17.13,0,0,1-1.75,7.93,12.29,12.29,0,0,1-5,5.23,15.5,15.5,0,0,1-7.55,1.87ZM145.5,372v25.08h4.44a9.67,9.67,0,0,0,7.6-3q2.72-3,2.72-8.64v-1.87q0-5.45-2.56-8.47a9.13,9.13,0,0,0-7.27-3.07Z"/><path class="a38058a6-50d4-4621-b481-80b97b800741" d="M188.91,385.78H175v11.33h16.12v3.45H170.81v-32h20.12V372H175v10.3h13.87Z"/><path class="a38058a6-50d4-4621-b481-80b97b800741" d="M201.86,368.58l10.47,26.08,10.47-26.08h5.48v32H224V388.1l.4-13.44-10.51,25.89H210.7l-10.49-25.82.42,13.37v12.45H196.4v-32Z"/><path class="a38058a6-50d4-4621-b481-80b97b800741" d="M240.25,400.55H236v-32h4.22Z"/><path class="a38058a6-50d4-4621-b481-80b97b800741" d="M271.51,390.41a11.75,11.75,0,0,1-3.75,7.83,12.3,12.3,0,0,1-8.39,2.76,11.29,11.29,0,0,1-9.09-4.06q-3.42-4.06-3.42-10.87V383a18.19,18.19,0,0,1,1.59-7.84A11.89,11.89,0,0,1,253,370a12.59,12.59,0,0,1,6.77-1.81,11.58,11.58,0,0,1,8.18,2.84,11.9,11.9,0,0,1,3.58,7.87h-4.24q-.55-3.83-2.39-5.55a7.22,7.22,0,0,0-5.13-1.72,7.56,7.56,0,0,0-6.34,3q-2.3,3-2.3,8.5v3.1a14.09,14.09,0,0,0,2.18,8.28,7,7,0,0,0,6.09,3.08,8.13,8.13,0,0,0,5.4-1.59q1.88-1.59,2.5-5.54Z"/><path class="a38058a6-50d4-4621-b481-80b97b800741" d="M306.52,385.78H292.64v11.33h16.12v3.45H288.42v-32h20.12V372h-15.9v10.3h13.87Z"/><path class="a38058a6-50d4-4621-b481-80b97b800741" d="M324.46,380.83l7.67-12.25h5L327,384.44l10.36,16.12h-5l-7.87-12.47-7.92,12.47h-5l10.38-16.12L311.8,368.58h4.95Z"/><path class="a38058a6-50d4-4621-b481-80b97b800741" d="M365.25,390.41a11.75,11.75,0,0,1-3.75,7.83,12.3,12.3,0,0,1-8.39,2.76,11.29,11.29,0,0,1-9.09-4.06q-3.42-4.06-3.42-10.87V383a18.19,18.19,0,0,1,1.59-7.84,11.89,11.89,0,0,1,4.52-5.19,12.59,12.59,0,0,1,6.77-1.81,11.58,11.58,0,0,1,8.18,2.84,11.9,11.9,0,0,1,3.58,7.87H361q-.55-3.83-2.39-5.55a7.22,7.22,0,0,0-5.13-1.72,7.56,7.56,0,0,0-6.34,3q-2.3,3-2.3,8.5v3.1a14.09,14.09,0,0,0,2.18,8.28,7,7,0,0,0,6.09,3.08,8.13,8.13,0,0,0,5.4-1.59q1.88-1.59,2.5-5.54Z"/><path class="a38058a6-50d4-4621-b481-80b97b800741" d="M389.1,385.78H375.23v11.33h16.12v3.45H371v-32h20.12V372h-15.9v10.3H389.1Z"/><path class="a38058a6-50d4-4621-b481-80b97b800741" d="M400.85,397.11H416v3.45H396.6v-32h4.24Z"/><path class="a38058a6-50d4-4621-b481-80b97b800741" d="M425.08,397.11h15.17v3.45H420.83v-32h4.24Z"/><path class="a38058a6-50d4-4621-b481-80b97b800741" d="M463.16,385.78H449.28v11.33H465.4v3.45H445.06v-32h20.12V372h-15.9v10.3h13.87Z"/><path class="a38058a6-50d4-4621-b481-80b97b800741" d="M495.26,400.55H491L474.9,375.92v24.64h-4.24v-32h4.24l16.16,24.75V368.58h4.2Z"/><path class="a38058a6-50d4-4621-b481-80b97b800741" d="M526.31,390.41a11.75,11.75,0,0,1-3.75,7.83,12.3,12.3,0,0,1-8.39,2.76,11.29,11.29,0,0,1-9.09-4.06q-3.42-4.06-3.42-10.87V383a18.19,18.19,0,0,1,1.59-7.84,11.89,11.89,0,0,1,4.52-5.19,12.59,12.59,0,0,1,6.77-1.81,11.58,11.58,0,0,1,8.18,2.84,11.9,11.9,0,0,1,3.58,7.87h-4.24q-.55-3.83-2.39-5.55a7.22,7.22,0,0,0-5.13-1.72,7.56,7.56,0,0,0-6.34,3q-2.3,3-2.3,8.5v3.1a14.09,14.09,0,0,0,2.18,8.28,7,7,0,0,0,6.09,3.08,8.13,8.13,0,0,0,5.4-1.59q1.88-1.59,2.5-5.54Z"/><path class="a38058a6-50d4-4621-b481-80b97b800741" d="M550.16,385.78H536.29v11.33h16.12v3.45H532.07v-32h20.12V372h-15.9v10.3h13.87Z"/><path class="a38058a6-50d4-4621-b481-80b97b800741" d="M573,388v12.52h-4.22v-32h11.81q5.25,0,8.23,2.68a9.08,9.08,0,0,1,3,7.09,9,9,0,0,1-2.91,7.17Q586,388,580.57,388Zm0-3.45h7.59a7.59,7.59,0,0,0,5.19-1.59,5.83,5.83,0,0,0,1.8-4.61,6,6,0,0,0-1.8-4.57,7.11,7.11,0,0,0-4.95-1.78H573Z"/><path class="a38058a6-50d4-4621-b481-80b97b800741" d="M609,387.62h-7.52v12.93H597.2v-32h10.6q5.41,0,8.32,2.46T619,378.2a8.6,8.6,0,0,1-1.62,5.2,9.64,9.64,0,0,1-4.5,3.32l7.52,13.57v.26h-4.53Zm-7.52-3.45h6.49a7.32,7.32,0,0,0,5-1.63,5.5,5.5,0,0,0,1.86-4.36,5.79,5.79,0,0,0-1.77-4.55A7.5,7.5,0,0,0,607.9,372h-6.46Z"/><path class="a38058a6-50d4-4621-b481-80b97b800741" d="M649.57,385.6a19.75,19.75,0,0,1-1.58,8.2,12,12,0,0,1-4.49,5.35,12.38,12.38,0,0,1-18-5.3,19,19,0,0,1-1.66-8v-2.31a19.52,19.52,0,0,1,1.6-8.15,11.87,11.87,0,0,1,11.26-7.29,12.42,12.42,0,0,1,6.78,1.86,12,12,0,0,1,4.52,5.38,19.85,19.85,0,0,1,1.58,8.2Zm-4.2-2.06q0-5.69-2.29-8.73a7.55,7.55,0,0,0-6.4-3,7.46,7.46,0,0,0-6.3,3q-2.3,3-2.36,8.44v2.35q0,5.51,2.32,8.66a8.14,8.14,0,0,0,12.72.18q2.24-3,2.31-8.53Z"/><path class="a38058a6-50d4-4621-b481-80b97b800741" d="M679.54,396.36a9.75,9.75,0,0,1-4.54,3.48,18.37,18.37,0,0,1-6.78,1.15,13.17,13.17,0,0,1-6.95-1.83,12.21,12.21,0,0,1-4.69-5.21,18,18,0,0,1-1.7-7.84v-2.79q0-7.22,3.38-11.2t9.49-4a12.16,12.16,0,0,1,8.07,2.56,11.14,11.14,0,0,1,3.74,7.26h-4.22q-1.19-6.37-7.56-6.37a7.48,7.48,0,0,0-6.43,3q-2.19,3-2.21,8.63v2.62q0,5.38,2.46,8.56a8,8,0,0,0,6.66,3.18,14.69,14.69,0,0,0,4.16-.53,6.43,6.43,0,0,0,2.95-1.77v-7.16h-7.41v-3.45h11.61Z"/><path class="a38058a6-50d4-4621-b481-80b97b800741" d="M698.32,387.62H690.8v12.93h-4.24v-32h10.6q5.41,0,8.32,2.46t2.91,7.16a8.6,8.6,0,0,1-1.62,5.2,9.64,9.64,0,0,1-4.5,3.32l7.52,13.57v.26h-4.53Zm-7.52-3.45h6.49a7.32,7.32,0,0,0,5-1.63,5.5,5.5,0,0,0,1.86-4.36,5.79,5.79,0,0,0-1.77-4.55,7.5,7.5,0,0,0-5.11-1.61H690.8Z"/><path class="a38058a6-50d4-4621-b481-80b97b800741" d="M732,392.19H718.57l-3,8.37H711.2l12.23-32h3.69l12.25,32H735Zm-12.14-3.45h10.88l-5.45-15Z"/><path class="a38058a6-50d4-4621-b481-80b97b800741" d="M749.13,368.58l10.47,26.08,10.47-26.08h5.48v32h-4.22V388.1l.4-13.44L761.2,400.55H758l-10.49-25.82.42,13.37v12.45h-4.22v-32Z"/><path class="a38058a6-50d4-4621-b481-80b97b800741" d="M788.45,368.58l10.47,26.08,10.47-26.08h5.47v32h-4.22V388.1l.4-13.44-10.51,25.89h-3.23L786.8,374.73l.42,13.37v12.45H783v-32Z"/><path class="a38058a6-50d4-4621-b481-80b97b800741" d="M840.4,385.78H826.53v11.33h16.12v3.45H822.31v-32h20.12V372h-15.9v10.3H840.4Z"/></g><path class="a38058a6-50d4-4621-b481-80b97b800741" d="M67.47,431.64a15.14,15.14,0,0,1-1.21,6.29,9.18,9.18,0,0,1-3.44,4.1A9.49,9.49,0,0,1,49,438a14.52,14.52,0,0,1-1.27-6.1v-1.77A15,15,0,0,1,49,423.85a9.1,9.1,0,0,1,8.63-5.59,9.52,9.52,0,0,1,5.2,1.42,9.17,9.17,0,0,1,3.46,4.12,15.21,15.21,0,0,1,1.21,6.29Zm-3.22-1.58q0-4.36-1.75-6.69a5.78,5.78,0,0,0-4.9-2.33,5.72,5.72,0,0,0-4.83,2.33A10.75,10.75,0,0,0,51,429.84v1.8a11,11,0,0,0,1.78,6.64,6.24,6.24,0,0,0,9.75.13,10.93,10.93,0,0,0,1.77-6.54Z"/><path class="a38058a6-50d4-4621-b481-80b97b800741" d="M91.18,443.1H87.93L75.58,424.22V443.1H72.32V418.6h3.25l12.39,19v-19h3.22Z"/><path class="a38058a6-50d4-4621-b481-80b97b800741" d="M100.18,440.46h11.63v2.64H96.93V418.6h3.25Z"/><path class="a38058a6-50d4-4621-b481-80b97b800741" d="M119,443.1h-3.24V418.6H119Z"/><path class="a38058a6-50d4-4621-b481-80b97b800741" d="M143.75,443.1h-3.25l-12.35-18.88V443.1h-3.25V418.6h3.25l12.39,19v-19h3.22Z"/><path class="a38058a6-50d4-4621-b481-80b97b800741" d="M163.36,431.78H152.73v8.68h12.35v2.64H149.49V418.6h15.42v2.64H152.73v7.89h10.63Z"/><path class="a38058a6-50d4-4621-b481-80b97b800741" d="M180.89,433.51v9.59h-3.24V418.6h9.05a9.1,9.1,0,0,1,6.31,2.05,7,7,0,0,1,2.28,5.44,6.86,6.86,0,0,1-2.23,5.5,9.51,9.51,0,0,1-6.4,1.93Zm0-2.64h5.81a5.82,5.82,0,0,0,4-1.22,4.47,4.47,0,0,0,1.38-3.53,4.61,4.61,0,0,0-1.38-3.51,5.45,5.45,0,0,0-3.79-1.37h-6Z"/><path class="a38058a6-50d4-4621-b481-80b97b800741" d="M202.68,440.46h11.63v2.64H199.43V418.6h3.25Z"/><path class="a38058a6-50d4-4621-b481-80b97b800741" d="M231.87,436.69H221.59l-2.31,6.41h-3.34l9.37-24.5h2.83l9.39,24.5h-3.32Zm-9.3-2.64h8.34l-4.18-11.46Z"/><path class="a38058a6-50d4-4621-b481-80b97b800741" d="M255.62,421.24h-7.89V443.1h-3.22V421.24h-7.87V418.6h19Z"/><path class="a38058a6-50d4-4621-b481-80b97b800741" d="M272.79,432.28h-10.3V443.1h-3.24V418.6h15.2v2.64h-12v8.4h10.3Z"/><path class="a38058a6-50d4-4621-b481-80b97b800741" d="M297.21,431.64a15.14,15.14,0,0,1-1.21,6.29,9.18,9.18,0,0,1-3.44,4.1A9.49,9.49,0,0,1,278.75,438a14.52,14.52,0,0,1-1.27-6.1v-1.77a15,15,0,0,1,1.23-6.24,9.1,9.1,0,0,1,8.63-5.59,9.52,9.52,0,0,1,5.2,1.42,9.17,9.17,0,0,1,3.46,4.12,15.21,15.21,0,0,1,1.21,6.29ZM294,430.06q0-4.36-1.75-6.69a5.78,5.78,0,0,0-4.9-2.33,5.72,5.72,0,0,0-4.83,2.33,10.75,10.75,0,0,0-1.81,6.47v1.8a11,11,0,0,0,1.78,6.64,6.24,6.24,0,0,0,9.75.13,10.93,10.93,0,0,0,1.77-6.54Z"/><path class="a38058a6-50d4-4621-b481-80b97b800741" d="M311.06,433.19H305.3v9.91H302V418.6h8.12a9.63,9.63,0,0,1,6.38,1.88,6.78,6.78,0,0,1,2.23,5.49,6.59,6.59,0,0,1-1.24,4,7.39,7.39,0,0,1-3.45,2.54l5.76,10.4v.2h-3.47Zm-5.76-2.64h5a5.61,5.61,0,0,0,3.83-1.25,4.22,4.22,0,0,0,1.42-3.34,4.44,4.44,0,0,0-1.36-3.49,5.75,5.75,0,0,0-3.92-1.23h-5Z"/><path class="a38058a6-50d4-4621-b481-80b97b800741" d="M327.5,418.6l8,20,8-20h4.2v24.5H344.5v-9.54l.3-10.3-8.06,19.84h-2.48l-8-19.79.32,10.25v9.54h-3.24V418.6Z"/><path class="a38058a6-50d4-4621-b481-80b97b800741" d="M375.53,432.28h-10.3V443.1H362V418.6h15.2v2.64h-12v8.4h10.3Z"/><path class="a38058a6-50d4-4621-b481-80b97b800741" d="M399.95,431.64a15.14,15.14,0,0,1-1.21,6.29,9.18,9.18,0,0,1-3.44,4.1A9.49,9.49,0,0,1,381.49,438a14.52,14.52,0,0,1-1.27-6.1v-1.77a15,15,0,0,1,1.23-6.24,9.1,9.1,0,0,1,8.63-5.59,9.52,9.52,0,0,1,5.2,1.42,9.17,9.17,0,0,1,3.46,4.12,15.21,15.21,0,0,1,1.21,6.29Zm-3.22-1.58q0-4.36-1.75-6.69a5.78,5.78,0,0,0-4.9-2.33,5.72,5.72,0,0,0-4.83,2.33,10.75,10.75,0,0,0-1.81,6.47v1.8a11,11,0,0,0,1.78,6.64,6.24,6.24,0,0,0,9.75.13,10.93,10.93,0,0,0,1.77-6.54Z"/><path class="a38058a6-50d4-4621-b481-80b97b800741" d="M413.8,433.19H408v9.91h-3.25V418.6h8.12a9.63,9.63,0,0,1,6.38,1.88,6.78,6.78,0,0,1,2.23,5.49,6.59,6.59,0,0,1-1.24,4,7.39,7.39,0,0,1-3.45,2.54l5.76,10.4v.2h-3.47ZM408,430.55h5a5.61,5.61,0,0,0,3.83-1.25,4.22,4.22,0,0,0,1.42-3.34,4.44,4.44,0,0,0-1.36-3.49,5.75,5.75,0,0,0-3.92-1.23h-5Z"/><path class="a38058a6-50d4-4621-b481-80b97b800741" d="M452.65,435.33a9,9,0,0,1-2.87,6,9.42,9.42,0,0,1-6.43,2.11,8.65,8.65,0,0,1-7-3.11,12.51,12.51,0,0,1-2.62-8.33v-2.36a13.94,13.94,0,0,1,1.22-6,9.12,9.12,0,0,1,3.46-4,9.65,9.65,0,0,1,5.19-1.39,8.87,8.87,0,0,1,6.27,2.18,9.12,9.12,0,0,1,2.75,6H449.4a7,7,0,0,0-1.83-4.25,5.54,5.54,0,0,0-3.94-1.32,5.79,5.79,0,0,0-4.86,2.29,10.5,10.5,0,0,0-1.76,6.52v2.38a10.8,10.8,0,0,0,1.67,6.35,5.39,5.39,0,0,0,4.67,2.36,6.23,6.23,0,0,0,4.14-1.22,6.77,6.77,0,0,0,1.91-4.25Z"/><path class="a38058a6-50d4-4621-b481-80b97b800741" d="M475.94,431.64a15.14,15.14,0,0,1-1.21,6.29,9.18,9.18,0,0,1-3.44,4.1A9.49,9.49,0,0,1,457.48,438a14.52,14.52,0,0,1-1.27-6.1v-1.77a15,15,0,0,1,1.23-6.24,9.1,9.1,0,0,1,8.63-5.59,9.52,9.52,0,0,1,5.2,1.42,9.17,9.17,0,0,1,3.46,4.12,15.21,15.21,0,0,1,1.21,6.29Zm-3.22-1.58q0-4.36-1.75-6.69a5.78,5.78,0,0,0-4.9-2.33,5.72,5.72,0,0,0-4.83,2.33,10.75,10.75,0,0,0-1.81,6.47v1.8a11,11,0,0,0,1.78,6.64,6.24,6.24,0,0,0,9.75.13,10.93,10.93,0,0,0,1.77-6.54Z"/><path class="a38058a6-50d4-4621-b481-80b97b800741" d="M484,440.46h11.63v2.64H480.79V418.6H484Z"/><path class="a38058a6-50d4-4621-b481-80b97b800741" d="M502.62,440.46h11.63v2.64H499.37V418.6h3.25Z"/><path class="a38058a6-50d4-4621-b481-80b97b800741" d="M531.81,431.78H521.17v8.68h12.35v2.64H517.94V418.6h15.42v2.64H521.17v7.89h10.63Z"/><path class="a38058a6-50d4-4621-b481-80b97b800741" d="M555.67,439.89a7.47,7.47,0,0,1-3.48,2.67,14.08,14.08,0,0,1-5.2.88,10.1,10.1,0,0,1-5.33-1.41,9.36,9.36,0,0,1-3.6-4,13.78,13.78,0,0,1-1.31-6v-2.14q0-5.54,2.59-8.58a9,9,0,0,1,7.27-3,9.32,9.32,0,0,1,6.19,2,8.54,8.54,0,0,1,2.87,5.56h-3.24q-.91-4.88-5.8-4.88a5.73,5.73,0,0,0-4.93,2.28Q540,425.47,540,429.8v2a10.44,10.44,0,0,0,1.89,6.56A6.12,6.12,0,0,0,547,440.8a11.26,11.26,0,0,0,3.19-.4,4.93,4.93,0,0,0,2.26-1.36v-5.49h-5.68V430.9h8.9Z"/><path class="a38058a6-50d4-4621-b481-80b97b800741" d="M574.94,431.78H564.3v8.68h12.35v2.64H561.06V418.6h15.42v2.64H564.3v7.89h10.63Z"/><path class="a38058a6-50d4-4621-b481-80b97b800741" d="M596.46,432.18a15.21,15.21,0,0,1-6.06-2.94,5.61,5.61,0,0,1-1.9-4.3,5.93,5.93,0,0,1,2.32-4.79,9.22,9.22,0,0,1,6-1.89,10.07,10.07,0,0,1,4.51,1,7.41,7.41,0,0,1,3.07,2.69,6.88,6.88,0,0,1,1.09,3.75h-3.25a4.47,4.47,0,0,0-1.42-3.5,5.76,5.76,0,0,0-4-1.28,5.9,5.9,0,0,0-3.73,1.05,3.51,3.51,0,0,0-1.34,2.92,3.16,3.16,0,0,0,1.27,2.54,12.48,12.48,0,0,0,4.33,1.9,20.09,20.09,0,0,1,4.79,1.9,7.26,7.26,0,0,1,2.56,2.42,6.15,6.15,0,0,1,.83,3.25,5.72,5.72,0,0,1-2.33,4.77,9.92,9.92,0,0,1-6.22,1.79,11.56,11.56,0,0,1-4.72-1,7.94,7.94,0,0,1-3.38-2.65,6.46,6.46,0,0,1-1.19-3.82H591a4.22,4.22,0,0,0,1.64,3.51A6.92,6.92,0,0,0,597,440.8a6.37,6.37,0,0,0,3.93-1,3.39,3.39,0,0,0,1.37-2.84,3.33,3.33,0,0,0-1.26-2.79A14.58,14.58,0,0,0,596.46,432.18Z"/><path class="a38058a6-50d4-4621-b481-80b97b800741" d="M626.66,421.24h-7.89V443.1h-3.22V421.24h-7.87V418.6h19Z"/><path class="a38058a6-50d4-4621-b481-80b97b800741" d="M647.57,418.6v16.66a7.81,7.81,0,0,1-2.18,5.67,8.8,8.8,0,0,1-5.87,2.47l-.86,0a9.19,9.19,0,0,1-6.42-2.17,7.76,7.76,0,0,1-2.43-6V418.6H633v16.59a5.11,5.11,0,0,0,5.65,5.6,5.68,5.68,0,0,0,4.2-1.46,5.59,5.59,0,0,0,1.46-4.12V418.6Z"/><path class="a38058a6-50d4-4621-b481-80b97b800741" d="M652.68,443.1V418.6h6.93a11.17,11.17,0,0,1,5.66,1.41,9.57,9.57,0,0,1,3.8,4,13.07,13.07,0,0,1,1.36,6v1.56a13.13,13.13,0,0,1-1.34,6.08,9.41,9.41,0,0,1-3.83,4,11.87,11.87,0,0,1-5.79,1.43Zm3.24-21.86v19.22h3.4a7.41,7.41,0,0,0,5.82-2.32,9.59,9.59,0,0,0,2.08-6.62v-1.43a9.75,9.75,0,0,0-2-6.49,7,7,0,0,0-5.57-2.35Z"/><path class="a38058a6-50d4-4621-b481-80b97b800741" d="M689.18,431.78H678.55v8.68H690.9v2.64H675.31V418.6h15.42v2.64H678.55v7.89h10.63Z"/><path class="a38058a6-50d4-4621-b481-80b97b800741" d="M713.79,443.1h-3.25l-12.35-18.88V443.1h-3.25V418.6h3.25l12.39,19v-19h3.22Z"/><path class="a38058a6-50d4-4621-b481-80b97b800741" d="M736,421.24h-7.89V443.1h-3.22V421.24H717V418.6h19Z"/><path class="a38058a6-50d4-4621-b481-80b97b800741" d="M746.6,432.18a15.21,15.21,0,0,1-6.06-2.94,5.61,5.61,0,0,1-1.9-4.3,5.93,5.93,0,0,1,2.32-4.79,9.22,9.22,0,0,1,6-1.89,10.07,10.07,0,0,1,4.51,1,7.41,7.41,0,0,1,3.07,2.69,6.88,6.88,0,0,1,1.09,3.75H752.4a4.47,4.47,0,0,0-1.42-3.5,5.76,5.76,0,0,0-4-1.28,5.9,5.9,0,0,0-3.73,1.05,3.51,3.51,0,0,0-1.34,2.92,3.16,3.16,0,0,0,1.27,2.54,12.48,12.48,0,0,0,4.33,1.9,20.09,20.09,0,0,1,4.79,1.9,7.26,7.26,0,0,1,2.56,2.42,6.15,6.15,0,0,1,.83,3.25,5.72,5.72,0,0,1-2.33,4.77,9.92,9.92,0,0,1-6.22,1.79,11.56,11.56,0,0,1-4.72-1,7.94,7.94,0,0,1-3.38-2.65,6.46,6.46,0,0,1-1.19-3.82h3.25a4.22,4.22,0,0,0,1.64,3.51,6.92,6.92,0,0,0,4.39,1.29,6.37,6.37,0,0,0,3.93-1,3.39,3.39,0,0,0,1.37-2.84,3.33,3.33,0,0,0-1.26-2.79A14.58,14.58,0,0,0,746.6,432.18Z"/><path id="0cb80344-e8bf-44c7-88d7-85029ae5b127" data-name="path5541" class="3092bf64-468a-4d6d-be22-76d8bc91a65b" d="M1201,362.78c-.71,17.84-2.94,22.81-.71,20.68s4.46-2.13,11.86-1.42,14.8,3.55,14.8.71-1.52-2.84-1.52-2.84l-10.34-6.39Z"/><path id="5446681d-41f0-4df7-9e17-fbc2dce1d3d8" data-name="path5340" class="e2adc619-8e60-48d8-a0e3-f90400afa015" d="M1095.21,19.49v239.1h352.31V20.5H1092.07"/><path id="5ce30652-0dc5-4fc4-a7ea-5847d301ec57" data-name="path5334" class="776f7120-2b41-4561-a73f-63c031b9e127" d="M1107.78,31.65h329.31V250.58H1106.66V31.65Z"/><path id="7db1db97-d438-400a-a5ab-5586b7d1907b" data-name="path5342" class="4f86435f-a510-4633-bc78-dbe8357fdadd" d="M1248.86,64.9h139.06"/><path id="2d0b559e-676c-42f1-9c94-3e72bb2cadd6" data-name="path5344" class="d12e4c78-77ab-4543-bb88-d2a6bcf458b4" d="M1248.86,78.07h106.63"/><path id="08759f37-5eca-4c67-9d80-8498842902da" data-name="path5346" class="7b87f6d9-1ebc-4076-a614-cc6cb38eeb1a" d="M1245.72,99.26h72.17"/><path id="a7050fc6-1171-4bc4-88a1-e13e126c031c" data-name="path5348" class="ca0b4bbc-5177-499b-8ab6-602f9e097ec3" d="M1248.86,117.4H1297"/><path id="85f0cbb2-13eb-4287-b452-289fd0f6954a" data-name="path5352" class="8f0efb08-ec4a-4b2d-8d5d-92eaa562266d" d="M1124.8,245.82c0-24.22,1.52-41.35,1.52-68.52s2.23-34.26,3.65-43.48,17-3.55,26.66-4.26,12.57-2.53,17,8.21,5,17.64,8.11,24.22a32,32,0,0,0,3.85,5.47c5.47,9.53,6.28,6.49,10.34,1.52a152.13,152.13,0,0,0,9.43-14.09c2.64-4.05,9.22-21.39,9.22-24.93s-.41-4,3.34-3.24,30.31,2.84,34.06,6.39,5.17,9.32,5.17,17.84,3.65,37.81-2.23,37.1-22.2-4.26-22.2-4.26-7.4,3.55-11.86,3.55-8.11,4.26-12.57,10a29.86,29.86,0,0,0-5.88,17.84c0,5,.71,18.55,1.52,24.22s0,12.87,8.11,19.26,11.86,9.32,11.86,15,2.94,5.68,0,5.68-5.17.71-15.51,2.84-14.09,10-14.8,4.26,2.94-8.51-.71-8.51-2.94,6.39-3.65,0,0-15.71,0-19.26.71-7.8-2.23-13.58-8.11-5.68-8.11-11.45v3.14c0-5.07-5.47-6-9.22-10.24s-8.51-4.76-13.68-4.76-11,2.13-14.09,5-5.88-1.82-6.59,2.43-3.75.2-3.75,5.17,6.69,1.42,4.46,1.42S1124.8,245.82,1124.8,245.82Z"/><path id="0437d2fc-db29-42fa-b4a6-2c849a4e93e4" data-name="path5356" class="6473ab1d-0b66-4915-9bc2-7defea799f33" d="M1167.88,74.53c0-6.08-2.13-3.55,0-8.11s4.16-4.05,6.79-6.59,6.79-2.53,12.57-2.53,16.72-1,19.87,2,7.8,5.07,7.8,9.12-.51,10.64,1.52,10.64,5.27.51,5.27,4.05-.51,10.14-3.14,12.06-2.64,2.53-2.64,5.57a15.06,15.06,0,0,1-4.16,10.14c-3.14,3.55-4.16,4.05-5.78,7.09l-1.52,3c-2.53,5.07-3.14,9.12-4.66,13.07s-2.64,7.09-4.66,4.56-10.95-9.63-10.95-9.63-3.14-5.07-4.66-7.09-2.64-.51-1.52-3.55,1-1-.51-3.55-7.3-3.55-7.3-8.11,4.16-7.6,0-10.14-6.28-2-6.79-11l-.51-9.12Z"/><path id="ddce06ff-7ee1-4abb-84f4-203821cae19c" data-name="path5358" class="bfa8d22b-af9d-4ff1-a4fd-76588ff2257d" d="M1166.77,73c-3.65-16.62-5.78-16.12-2.64-21.18s7.3-11,11.45-11,14.09,3.55,18.85,3.55,19.87.51,21.39,3,7.3,9.12,6.28,13.07-3.65,21.69-5.27,18.65,0-5.07-1.52-9.12-4.16-9.12-9.93-11.55-13.08,0-17.74-.51-10.44-1-13.08,1.52-6.28,2.53-6.28,5.07S1166.77,73,1166.77,73Z"/><path id="b76072f3-8c69-43fe-b6c8-4fbcfcb377d5" data-name="path5360" class="9f6afd9a-d5ad-4140-8f5d-eb13d86a2cb1" d="M1181.46,105.34c.51-5.07.51-5.07,4.66-7.6s2.13-2.53,6.28-1.52,10.95,8.11,8.92,8.11-4.66-1.52-7.8-1.52-6.28,1-8.92,1S1181.46,105.34,1181.46,105.34Z"/><path id="6fa4dc8a-d07e-4f5f-a9f9-12b871ed2cce" data-name="path5364" class="bcd82445-511e-48c1-9272-907ddab4c8cb" d="M1191.09,136.86c-5.57,11-6,9.43-5.27,11s5.27,1.93,3.85,4.56-6,11.86-4.87,14,5.27,9.12,7,6.79,8.11-5.17,7-7.3-4.87-13.18-3.55-15.1,4.26-1.11,2.84-3.55-7-10.44-7-10.44Z"/><path id="6d2d6f22-e765-4a52-8999-534d7c263d2f" data-name="path5366" class="ea837584-d705-45c9-a73d-e69ddaa0983c" d="M1022,248.66c2.23,39.93,2.94,54.23,2.94,72.77s-5.17,21.39,0,18.55,8.11-3.55,14.09-3.55,74.7.71,74.7-3.55.71-35,.71-50,5.17-35,0-34.26-22.2-9.32-25.14-5.68-5.88,4-11.86,4.26l-12.57-2.84h-20c-8,0-21.89,4.56-21.89,4.56"/><path id="50e2c93c-7ab6-4c35-a2a0-adbf2e02e9d7" data-name="path5372" class="f69a4f2f-4717-4343-95ed-3e6437b8d75e" d="M1053.85,234.47c-6.28,10.64-10.44,11-6.28,10.64s12.57.51,14.6.51h17.23c4.16,0,13.08.51,11.45-1.52s-3.14-8.11-6.28-8.11c-2.94,0-30.71-1.52-30.71-1.52Z"/><path id="5bd1b518-5691-4bee-9c06-ae3227108031" data-name="path5374" class="6473ab1d-0b66-4915-9bc2-7defea799f33" d="M1045,210.75c1.52,9.12,9.93,23.72,12.57,23.72s22,3,24,1.52-3.14-.51,1.52-6.59,6.79-14.6,8.92-17.13,5.78-29.8,3.65-25.74-6.79,20.68-9.43,23.72-12.57,16.62-15.71,17.13-4.66-1-10.44-8.11S1046,198.08,1043.92,193s-.51-7.6-2.13-5.07-1.52,2.53-1.52,5.57-1.52,5.07.51,10.64,4.26,6.59,4.26,6.59Z"/><path id="6df703af-6efa-4b47-ad28-9c3458e819fc" data-name="path5376" class="9f6afd9a-d5ad-4140-8f5d-eb13d86a2cb1" d="M1095.71,186c.51-12.57,4.16-19.16,4.16-23.21s-2.13-9.12-18.85-13.07-20.88-3.55-29.8-1.52-14.09,9.63-14.6,15.1,5.27,19.16,5.27,22.2,3.65,12.57,7.3,18.14,5.27,10.64,10.44,15.1,6.28,10.64,8.41,9.12,4.16-1,7.3-4.56,10.95-12.57,13.58-17.64S1094.7,184,1094.7,184h0Z"/><path id="70b57eef-06fd-46f1-8a46-2052d9f0e6c7" data-name="path5380" class="9e91c983-93c3-45e2-82ba-f3ddf75aa9f3" d="M993.75,328.32c2.13,22.2,3.14,14.8,2.13,22.2s-2.13,33.85-1,44.5,0,12.67,0,21.18.81,63.35.81,63.35c-10.54.81,122.13,1.72,120.61-2-6.69-17-21.08-22.2-12.67-35.88s16.72-10.54,13.58-18,1-4.26-3.14-11.66,5.27-7.4-4.16-7.4-18.85,8.31-30.31,0c-10.24-7.4-20.88-5.27-20.88-11.66s-13.58,13.78-24,3.14-18.85-23.31-15.71-30.71,33.85-31.42,20.27-29.29-45.51-7.7-45.51-7.7Z"/><path id="bd2fce31-6c09-4c0d-bc63-866fb917ecda" data-name="path5382" class="9e91c983-93c3-45e2-82ba-f3ddf75aa9f3" d="M1181.77,410c-1.32,12.06,12.06,14.7,21.59,14.7s.3,3.24,4.46,16.42,3.14,26.35-3.65,31.42-16.93,10.14-7.4,9.12,141.8,3.55,130.85-3.55,28.28-27.16,31-34.26-53.11-4.56-46.22-10.64,17.64-2,13.58-9.12,2.74-14.09-4.05-14.09H1181.77Z"/><path id="35f4e472-d22c-48e4-ae70-b1efb4823fef" data-name="path5384" class="9e91c983-93c3-45e2-82ba-f3ddf75aa9f3" d="M1402.52,410c0,8.11-6.28,9.12,0,10.14s11.86.1,15,21.28,1.72,28.18-3.45,33.14-13,8-5.27,5.07c9.63-3.65,102.67-.1,98.92-2.64-6.59-4.36,2.84-63-2.74-67-7.5-5.47-102.47,0-102.47,0Z"/><path id="364d018d-3000-40a4-bca3-3a7000f21de3" data-name="path5386" class="3092bf64-468a-4d6d-be22-76d8bc91a65b" d="M1198.69,413c1-7.09-3.14-14.09,1-12.87s42.87,5.88,47,1.22,6.28-18.85,11.45-16.52,8.92-6.89,8.92,4.87,1.52,14.6,12,13.38,42.87,5.37,20.88,6.49c-21.79,1.11-101.26,3.45-101.26,3.45Z"/><path id="04d36d0d-c5b9-4bf6-9f44-bf513b319119" data-name="path5388" class="3092bf64-468a-4d6d-be22-76d8bc91a65b" d="M1414.07,408c27.16-4.05,31.32-2,32.43-5.07s-13.58-10.14-2.13-10.14,61-4.87,60.51-.91c-.71,5.37,4.16,21.49-2.94,19.06-7.91-2.64-87.88-2.94-87.88-2.94Z"/><path id="f4f02be1-475c-4097-a1da-12badf144ed4" data-name="path5390" class="9e91c983-93c3-45e2-82ba-f3ddf75aa9f3" d="M1481,327.31c-3.14,9.12-17.74,4.05-8.41,13.07s14.6,20.17,9.43,28.28-25.14,22.2-14.6,22.2,36.59-1,36.59-2-.51-36.29,0-42.37c.41-4.56.61-12.77,1-21.18.3-4.56-24,2-24,2Z"/><path id="89db8b6e-5b24-4bd5-85e7-c26da03b6b81" data-name="path5392" class="3092bf64-468a-4d6d-be22-76d8bc91a65b" d="M1118.22,422.08c-15.71,16.12-19.87,27.26-15.71,36.29s4.16,18.14,11.45,20.17,75.31,1,83.62,2,12.57,1,22-6.08,9.43-15.1,9.43-27.26S1220.59,427,1216.43,423s-9.43-6.08-33.45-5.07-64.77,4.16-64.77,4.16Z"/><path id="a4f188fb-bae1-41be-bfb4-a118c1ca5e83" data-name="path5394" class="3092bf64-468a-4d6d-be22-76d8bc91a65b" d="M1317.89,418.33c-19.87,15.51-19.87,15.51-19.87,29s2.13,20.78,11.45,28-19.87,5.17,13.58,5.17,76.32,4.16,82.61-1,16.72-10.34,16.72-21.79-4.16-21.79-6.28-28-15.71-13.48-23-13.48-75.21,2.13-75.21,2.13Z"/><path id="a1dfbc53-c1f0-416c-bafd-fd9caa77182a" data-name="path5396" class="7d47468a-95ea-4441-8b57-97d3c80bed5f" d="M1133.72,478.43c12.57,1.42,14.09,5,12.57,1.42s0-32.13-3.65-31.42-11-2.13-11,.71,2.13,29.29,2.13,29.29Z"/><path id="d7794373-8c95-4a9e-850e-002714dffd65" data-name="path5398" class="7d47468a-95ea-4441-8b57-97d3c80bed5f" d="M1191.29,450.56s-1.11,29.29,1.11,30,10.34,3.55,10.34,0,6-27.87,0-30-4.36-2.84-7.09-2.13A11.52,11.52,0,0,0,1191.29,450.56Z"/><path id="b14e0998-3b69-42a6-bd3b-c5e2a129d345" data-name="path5396-9" class="7d47468a-95ea-4441-8b57-97d3c80bed5f" d="M1327.21,480.05c12.57,1.42,14.09,5,12.57,1.42s0-32.13-3.65-31.42-11-2.13-11,.71,2.13,29.29,2.13,29.29Z"/><path id="0ed43f13-ad2c-418a-bd28-7c01ad4162d1" data-name="path5396-8" class="7d47468a-95ea-4441-8b57-97d3c80bed5f" d="M1385.59,480.05c12.57,1.42,14.09,5,12.57,1.42s0-32.13-3.65-31.42-11-2.13-11,.71,2.13,29.29,2.13,29.29Z"/><path id="e101a5c2-6bea-4d5a-b006-e9ca24dc9094" data-name="path5396-85" class="7d47468a-95ea-4441-8b57-97d3c80bed5f" d="M1208.12,390.15c12.57,1.42,14.09,5,12.57,1.42s0-32.13-3.65-31.42-11-2.13-11,.71S1208.12,390.15,1208.12,390.15Z"/><path id="fb7c764b-21ff-4e92-a0d5-2cf7637b45dd" data-name="path5396-2" class="7d47468a-95ea-4441-8b57-97d3c80bed5f" d="M1269.54,389.44c12.57,1.42,14.09,5,12.57,1.42s0-32.13-3.65-31.42-11-2.13-11,.71,2.13,29.29,2.13,29.29Z"/><path id="5152fd87-7843-4dca-b719-988062510882" data-name="path5396-22" class="7d47468a-95ea-4441-8b57-97d3c80bed5f" d="M1443.27,390.15c12.57,1.42,14.09,5,12.57,1.42s0-32.13-3.65-31.42-11-2.13-11,.71S1443.27,390.15,1443.27,390.15Z"/><path id="32bc2cca-c553-4f2a-b1d4-6038d96929a0" data-name="path5445" class="84498a45-4b43-4200-a970-4b00442c54e2" d="M1201,334.3h74.7c8.21,0,11,1.42,8.11,6.39s-15.51,44.9-20,47.13-6.69,9.32-9.63,2.13-25.85-33.55-31-39.22S1201,334.3,1201,334.3Z"/><path id="9cb49c9f-6a08-413b-b2a7-49865ac25021" data-name="path5447" class="3092bf64-468a-4d6d-be22-76d8bc91a65b" d="M1424.21,332.88c42.16,1.42,37.7-1.42,42.16,1.42s12.57,8.51,14.09,15.71,6.69,11.45,2.94,16.42-9.63,8.51-13.28,15,4.46,9.32-3.65,9.32-6.69,3.55-9.63-2.84-.71-27.87-5.17-27.87-11-5-11-1.42,1.52,32.84.71,27.06S1424.21,332.88,1424.21,332.88Z"/><path id="6de0d62c-ec2b-47ac-a1f6-a2fe544ba309" data-name="path5451" class="68d3a44d-abb9-4ee8-96f2-c3e2b7db3671" d="M1123.08,263.45c5.37-13.48,4.87-5.07,1.93-10.14s4.26-12.37,5.78-16.32,6.69-10.44,16.32-13.28,20.27.2,25.95,5.37c0,0,11,10.54,14,14.29,2.64,3.45-4,7.3-.2,8.11,4.36.91,1.82,4.66,1.82,12.57s1.52,18.65-.71,23.11-5.17,16.93-11.15,19.16-13.28,7.3-20.78,7.3-10.34.61-16.32-4.46-8.72-14.09-15.51-21.39c-8.51-9.12-1.93-24.33-1.12-24.33Z"/><path id="5ee079ca-ee64-4bdc-bf3f-0e116e09ee85" data-name="path5453" class="373fdcbb-f944-4aab-8154-68b17e4d616b" d="M1222.41,270c-11-12.87-20-24.93-19.26-35s-4.46-20,.71-31.42,5.88-12.87,16.22-17.84,24.43,1.42,34.06,2.13,20.68,21.39,21.49,27.87-.71,32.84-5.17,36.39-11.86,17.13-19.26,17.13-28.79.71-28.79.71Z"/><path id="e7a2241a-03af-4687-9cfb-29cc4a9818fc" data-name="path5455" class="84498a45-4b43-4200-a970-4b00442c54e2" d="M1223.12,271.46"/><path id="3e054f54-4983-450d-9c7f-0e54eca5e400" data-name="path5457" class="16001e00-c12d-4079-8d9c-9c9b71f17e63" d="M1350.73,297.91c-24.43-12.87-17,2.84-24.43-12.87s-8.11-27.87-8.11-39.22,5.88-17.84,13.28-23.51l7.4-5.68c7.4-5.68,7.4-12.16,7.4-5.68s-6.69,7.8,0,6.39,14.8-2.13,15.51,1.42,11.86,4.26,17,7.09,15.51,20,13.28,29.29S1381.74,283.72,1378,288s-25.14,14.29-25.14,14.29"/><path id="08f69f9b-c5c1-4695-a6f8-18b74df7d6f4" data-name="path5459" class="c72236ec-54d0-4dd2-96e0-3c1ed4575b2a" d="M1418.33,223.72c4.46-20.68,13.28-22.1,5.17-42.06s-15.51-24.22-16.22-19.26,11,14.29-.71,5-15.51-20-11.86-9.32,13.28,17.84,3.65,10.74-8.11-17.13-9.63-7.09,8.11,18.55-1.52,10-9.63-15.71-9.63-8.51-4.46,7.09-4.46,15-2.94,19.26.71,30,5.88,20.68,12.57,26.35,13.28,10.74,18.45,5.68c5.37-5.17,13.48-16.52,13.48-16.52Z"/><path id="ba449df7-e90c-45db-a16e-da8a86b2abce" data-name="path5461" class="c086b75a-20b7-4612-9def-897a6f09166b" d="M1200.21,287.17c1.52,48.55-4.46,49.26,1.52,48.55s76.12,2.84,75.41-2.13,2.94-46.42-.71-47.84-17-6.39-20.68-6.39-25.85,0-30.31.71-18.55-2.13-25.24,7.09Z"/><path id="cd599917-242e-4e08-8527-8f48f9be8ce5" data-name="path5467" class="c086b75a-20b7-4612-9def-897a6f09166b" d="M1275.32,327.21c13,0,14-1.42,13,0s3.24-3.55-1.11,1.42,2.13,5-4.36,5-6.49,4.26-6.49,0A16.12,16.12,0,0,0,1275.32,327.21Z"/><path id="cd1950e5-9807-4941-a066-2ec4f9da6db7" data-name="path5469" class="6473ab1d-0b66-4915-9bc2-7defea799f33" d="M1138.89,308.56c4.46,10.74,8.11,1.42,4.46,10.74s-11,12.87-2.94,12.16,31.83,0,31.83-1.42-2.23-10-2.23-14.29,11.86-15,7.4-11.45a41.29,41.29,0,0,1-17,7.8c-6.69,1.52-1.52,7.2-21.49-3.55Z"/><path id="877bc0cd-5c87-4f7c-9ed5-d8d9e0b93eaa" data-name="path5471" class="91e2de2b-dbc8-46e8-89df-88c24bbce886" d="M1108.59,336.43c2.23,63.45-.2,57.57,2.23,63.45,3,7.4,3.34,21.89,6.69,21.39,14.29-2.13,91.52-2.23,81.29-2.84-1.82-.1-1.52-.51.41-1.82,0,0,1.11-30.91,1.11-36,0-6.39,5.17-44.19,1.52-44.19s-9.83-4-21.79-4.26c-7.3-.2-4.05-2.84-7.8-2.13s-21.49-2.13-29.6,0-17.74,2.84-26.66,3.55-7.4,2.84-7.4,2.84Z"/><path id="96d64c51-067e-4e8c-b0ef-0cae7b23318c" data-name="path5473" class="91e2de2b-dbc8-46e8-89df-88c24bbce886" d="M1109.3,366.43c-11,8.51-22.91,16.42-19.26,17.13s21.49-5.68,20.68,0,4.46,17.84-.71,17.84-25.14,4.26-31.83,1.42-20.68-7.09-19.26-10,5.68-9.53,6.69-13.58c2.13-9.43,6.39-10.64,14.09-16.42,8.21-6.18,22.2-20,25.14-22.1s4.46-10.74,4.46-3.55Z"/><path id="f4f857b2-faca-4484-a1fa-4fc0905f309b" data-name="path5475" class="91e2de2b-dbc8-46e8-89df-88c24bbce886" d="M1199.5,401.3c5.88.71,21.49,2.84,31.83,2.13s16.22-.71,17.74-5,11.86-6.39,7.4-10.74-7.4-5.68-8.92-9.32-11.86-15.71-25.14-26.35-22.91-24.22-21.49-17.13-.71,25.64,0,27.06,28.08,18.55,23.62,20.68-25.85-2.84-25.85,2.13.81,16.52.81,16.52Z"/><path id="62cb34fb-3d97-4677-acef-27dd17f65f06" data-name="path5477" class="c7b13151-c044-4ea5-9007-db2d4b04cc64" d="M1335.52,313.63c-28.08,3.55-42.16,5-44.39,8.51s-2.23,1.42-11,27.06-12.57,28.58-12.57,39.22-4.46,7.8,0,12.16,25.85,2.13,32.54,5.68,1.52,20.68,6.69,17.84,26.66-5.68,38.41-6.39,33.24-.71,43.58-.71,14.8,7.09,14.8.71-4.46-9.32,0-9.32,45.1,2.13,42.87-3.55,3.65-10-2.94-20.68-12.57-48.55-22.2-57.06-10.34-12.87-18.45-12.87-19.26-2.13-25.85,0-16.22,3.55-22.91,2.13-18.55-2.74-18.55-2.74Z"/><path id="e9233054-2c4e-4ffa-9762-c1545ec40eb0" data-name="path5479" class="3092bf64-468a-4d6d-be22-76d8bc91a65b" d="M1304.51,360.65c-11.86,15-14.09,16.42-11.86,21.39s14.09,13.58,13.28,8.51C1305.22,385.69,1304.51,360.65,1304.51,360.65Z"/><path id="48c1fe57-62de-434f-9973-95eeacf0a355" data-name="path5481" class="3092bf64-468a-4d6d-be22-76d8bc91a65b" d="M1402.11,361.36c0,26.35-5.88,26.35,0,26.35s17,1.42,11.86-3.55S1402.11,361.36,1402.11,361.36Z"/><path id="1c8b947c-0969-4626-948d-57f1d45701be" data-name="path5487" class="ec7d7526-0625-4600-9096-d9b36514fd54" d="M1338.46,307.14c-2.94,6.39-10.34,5-2.94,6.39a134.84,134.84,0,0,0,25.85,2.13c10.34,0,28.79,2.84,19.26-2.13s-5.88-3.55-11.86-3.55-30.31-2.84-30.31-2.84Z"/><path id="58354bdf-0fa5-43fb-a616-1ee43b8bbd6e" data-name="path5491" class="6473ab1d-0b66-4915-9bc2-7defea799f33" d="M1425,191.59c0,8.21,2.23,15.71-.71,19.76s-2.23,5-6.69,17.33-6.69,7.4-4.46,12.37,7.4,11.76,0,14.19S1388,257.57,1388,251.8s-7.4-26.45,2.23-21.49,10.34,13.18,14.09,8.21,14.8-22.3,17-29.7a162.51,162.51,0,0,0,3.65-17.23Z"/><path id="4fadcd3d-3a2e-4cf1-9914-a733cac4ecc1" data-name="path5493" class="84498a45-4b43-4200-a970-4b00442c54e2" d="M1371.81,202.34c-2.94,5.68,1.52,18.55,1.52,18.55s2.23,5.68,2.23,0S1371.81,202.34,1371.81,202.34Z"/><path id="6c58df21-2d4c-48ae-866b-fcb087de4316" data-name="path5495" class="6473ab1d-0b66-4915-9bc2-7defea799f33" d="M1223.93,270c0,8.51-2.94,8.51,0,8.51s29.6,3.55,29.6,0,5.17-11.45,0-10-29.6,1.52-29.6,1.52Z"/><path id="59fac0c1-5b84-432b-9c38-8793bc2951c9" data-name="path5497" class="8f0efb08-ec4a-4b2d-8d5d-92eaa562266d" d="M1270.45,199.4c17-2.84,17.74-6.39,17-2.84s5.88,20,1.52,20-11.86,11.45-11.86,4.26-6.69-21.39-6.69-21.39Z"/><path id="7807e0d7-a5e0-4a2a-9070-81def21f1c35" data-name="path5499" class="6473ab1d-0b66-4915-9bc2-7defea799f33" d="M1287.89,195.85c5.88-10.74,1.82-7.5,5.88-10.74s8.11-1.82,13-1.82,4.76-2.53,4.76,0-.41,5-3.34,5.37-8.92,1.11-2.94.41,8.11.41,6.28,1.42-9.93,2.84-6.69,2.53,9.22-1.42,6.69.41-9.63,3.24-7.8,3.24,4.76-1.11,6.69-.41,4.05,2.84,0,3.24l-4.05.41h-1.11c2.94,0,9.63-2.13,8.11-.41s2.23-2.13-7,4-2.64,4.26-9.22,6.08-6.69,5.68-6.69,1.82-2.53-15.51-2.53-15.51Z"/><path id="ec12ad6a-c904-4005-a827-e6668df778f9" data-name="path5503" class="14c14fa5-c2ca-4a6b-a618-e11847c61ca8" d="M1173.56,137.06c2.64,7.09,3.14,16.12,6.28,21.69s6.49,11,6.49,9.32-1.32-3.24-.3-5.78,3.45-7.6,3.45-9.12-2.13-3-2.84-1.52,0,4.26-1.32,1.52S1173.56,137.06,1173.56,137.06Z"/><path id="78e9e071-3bef-4d85-95b2-663984aa99cb" data-name="path5505" class="14c14fa5-c2ca-4a6b-a618-e11847c61ca8" d="M1194,152.67c1,4.56,1.52,10.64,2.33,12.37s1,4.56,2.33,1.52,8.92-12.87,10.24-17.64,6-15.41,4.66-15.41,1.52-1-3.45,4.05-6.79,8.82-8.41,10.85c-4,3.24.1,7.09-2.13,5.27s-2.33-3.85-3.14-2.53a3.28,3.28,0,0,1-2.43,1.52Z"/><path class="fcb27656-7d14-4951-a988-4175281e996b" d="M1481.17,312.21c-3.65-8.51-20-44.19-24.43-54.23s0,0-39.93-5c0,0-22.91-.71-26.66-2.13s-1.52,6.39-3.65,13.58-5.88,17.84-14.8,26.35,0,0,0,3.55-3.65,6.39-3.65,12.87,2.23,2.13,11,5.68,25.14-2.13,31,2.84,7.4,10.74,12.57,16.42,22.91.71,35.47,2.13,9.63,4.26,18.45-2.84C1485.63,324.27,1484.92,320.72,1481.17,312.21Zm-36.29,11.55c-5.88,0,0,0,0-26.35,0,0,6.69,17.84,11.86,22.81S1450.77,323.76,1444.89,323.76Z"/><path id="e90ddd1e-f56a-496f-9237-cf47f669a700" data-name="path5354" class="f9f76211-ac15-41a7-8b70-8aac8be1dbe3" d="M1176.6,120.24c-4.46,6.39-11,1.42-6.69,9.32s10.34,16.42,13.28,19.26,1.52,6.39,2.94,2.84,6.69-17.13,6.69-14.29,2.23,5.68,2.94,9.32,5.27,8.51,3.65,6.08c-.51-.81,1.42-3.75,4.46-8.41,2.84-4.36,10.34-10.54,9.53-14.09s-5.17-15-8.11-10.74-8.11,24.22-11.86,19.26c-3.55-5-16.83-18.55-16.83-18.55Z"/><path id="d94b0efb-a937-4574-bd8b-71ad6a3b86d7" data-name="path5501" class="42fb67c0-f3b3-4dc2-8cf5-3a687d69242a" d="M1340,83.85c-50.27,144.43-52.5,143.42-50.27,144.43s1.82,11,4.76,1.42S1340,83.85,1340,83.85Z"/><path id="f58bd0d6-a414-4d6f-9c28-d02efcf013ec" data-name="path5537" class="3092bf64-468a-4d6d-be22-76d8bc91a65b" d="M1206.19,335.72c16.42,18,28.68,22.2,37.7,36.59,6.69,10.74,9.32,16.93,15.51,16.93,5.88,0,5.27-3.45,8.11-9.12,3.24-6.39-3.65-21.79,0-21.79,5.17,0,8.11,7.7,9.63,0s13.28-24.63,8.92-24.63-79.87,2-79.87,2Z"/><path id="42ee0ece-667c-4f87-ad87-034e6f41bfd7" data-name="path5539" class="3092bf64-468a-4d6d-be22-76d8bc91a65b" d="M1110.82,411c-117.07,0-118.18,7.09-117.07,0s0-18.14,1-17.13,64.87-6.08,64.87-1,6.28,8.11,13.58,9.12,17.64.91,23.92.91,15.81-2.94,15.81,1.11a13,13,0,0,1-2.13,7Z"/><path id="9ca24c02-a786-48e8-b58a-dbec36efc5c0" data-name="path5543" class="3092bf64-468a-4d6d-be22-76d8bc91a65b" d="M1108.69,367.75c-13.48,6.79-20.88,14.29-20.78,14.39s22.1,4.36,22.1-1.62a78.86,78.86,0,0,0-1.32-12.77Z"/><path class="ea837584-d705-45c9-a73d-e69ddaa0983c" d="M1025,317.27c-1.62-.3-4.46-.41-7.4-.91-5.47-.71-10.24-2.53-10.24-5.57,0-2.84,8.41-10,13.38-15.81.81-1,1.62-2.13,2.33-3.14a5.78,5.78,0,0,0,1-2.64c0-4.87-2.13-40.24-2.13-40.24h0c-13.58,8.82-6.28,1-17.74,22.6S988.48,303,987.47,311.8s0,14.7,10.44,17.74,28.28,11.76,28.28,7.91C1026.18,333.9,1029.53,320.21,1025,317.27Z"/><path class="ea837584-d705-45c9-a73d-e69ddaa0983c" d="M1141.83,313.63c-3.65-5-17-28.58-18.45-32.84s-2.94-10.74-1.52-17.13,7.4-10.74,1.52-12.16-5.88-5-5.88-1.42-2.23,15-2.23,20-.71,15-.71,15S1122,296,1125.72,302c.51.81.91,1.52,1.32,2.13a.1.1,0,0,0,.1.1h0c1.52,2.64,1.82,3.85,1.72,5.37a1.73,1.73,0,0,1-.1.71c0,.2-.1.41-.1.61-.2,1-1.11,1.62-2.53,2.13a1.91,1.91,0,0,1-.81.2.37.37,0,0,0-.3.1h-.1a33.06,33.06,0,0,1-3.34.51c-2.13.3-3.85.41-5.17.61-.71.1-1.42.3-2,.41h0c-1.11.41-1.93.91-1.93,1.62,0,3.55-2.23,16.42,1.52,17.13s23.62,1.42,25.85-2.84C1141.83,326.4,1145.58,318.59,1141.83,313.63Z"/><path class="5602982c-ed9c-4338-b0e1-e8ce6fbcd575" d="M1198.79,328.52h0c0,1-3.55-2.33-11.55-2.84a32.06,32.06,0,0,0-7.7.41c.41-.2,1-.51,1.72-.91-1-.2,0-.3-1.32.1-1.93.61,6.89-3.85,15.81-9.43,2.64-2.13,4.66-4.16,5.27-6,2.23-6.39,0,0,.71-21.39h0s-.71-1.42-7.4.71-18.45,19.26-22.91,23.51,1.52,9.32,1.52,15,20,5.68,25.85,8.51,0-4.76,0-7.7Z"/><path class="50ba35ea-06de-4a54-9535-13d82b8dc915" d="M1310.39,315.75c-1.52-2.13-20-20.68-23.62-24.22s-9.63-7.09-9.63-3.55-1.52,23.51-1.52,23.51a27.41,27.41,0,0,1,2.53,1.82v-.1h0l.3.3c12.06,9.22,7.8,13.28,12.67,8.62C1296.4,317.17,1311.91,317.88,1310.39,315.75Z"/><path id="075ceded-2e24-43f3-b7ec-2554f935679d" data-name="path5449" class="3092bf64-468a-4d6d-be22-76d8bc91a65b" d="M1046,334.3c-19.87,13.28-23.51,18.24-26.56,27.37s-3.55,11.35,5.57,22.4c8.62,10.44,15,9.32,20.17,8.41,4.66-.81,10.95,5.88,7.5-5.57-2.23-7.2,3.14,21.69,13.18-10,1.22-3.85,7.6-8.41,12.26-12.37,10.85-9.43,35.88-29.39,31.42-29.39s-63.55-.81-63.55-.81Z"/><path id="2a7549e9-d24e-4da6-bee5-71ae0f3ff6e7" data-name="path5489" class="fcb27656-7d14-4951-a988-4175281e996b" d="M1330.35,287.17c7.2,8.21,11.66,2.33,13,13.78,1,8.62-4.05,13.28-12.26,14.09s-14.09,4-14.09-2.53,13.38-25.34,13.38-25.34Z"/><path id="0e9a90b2-8861-47ca-8f00-e25c6d388e3d" data-name="path5483" class="6473ab1d-0b66-4915-9bc2-7defea799f33" d="M1335.73,292.24c8.21,9.32,7.4,4.66,8.11,9.32,1.62,10.34-9.63,10-2.23,8.51s28.79,2.13,28.79-1.42-2.43-3.65,0-10c2.94-7.5-1.42-6-4.36-4.16-3,2-8.21,4.87-17.13,2.64-8.72-2-13.18-4.87-13.18-4.87Z"/><path id="a86a4ede-307b-4428-81ad-6a5668e724b6" data-name="path4520" class="c825906b-4a7a-4293-b8a8-ca1a9f55e110" d="M1310.79,421.37c-10.44,11.45-6.49,5-10.44,11.45s-6.49,6.49-6.49,10.74-3.24,4.66-1.11,9.63,4,7.5,5,11.15,3.24,8.62,4.66,10a7.43,7.43,0,0,0,2.74,1.82s.41-.91,1.11,1.11c0,.1,7.8,5.27,7.09,3.85-2.13-4.66-10.34-11.35-12.47-18.14s-2.74-8.41-3.45-12-1.82-.61-.71-3,4.87-10.74,6.28-12.47,2.13-3.55,5-6.49,3.55-4.26,5-5.78c1.82-1.62,5.78-1.62-2.13-1.93Z"/><path id="e2f7118b-b240-41a1-be67-a5316f829b07" data-name="path4520-3" class="c825906b-4a7a-4293-b8a8-ca1a9f55e110" d="M1116.19,422.08c-10.44,11.45-6.49,5-10.44,11.45s-6.49,6.49-6.49,10.74-3.24,4.66-1.11,9.63,4,7.5,5,11.15,3.24,8.62,4.66,10a7.43,7.43,0,0,0,2.74,1.82s.41-.91,1.11,1.11c0,.1,2.74,2.74,2,1.32-2.13-4.66-5.27-8.82-7.4-15.61s-2.74-8.41-3.45-12-1.82-.61-.71-3,4.87-10.74,6.28-12.47,2.13-3.55,5-6.49,3.55-4.26,5-5.78c1.82-1.52,5.78-1.52-2.13-1.93Z"/><path id="e3ded52c-a6f4-4940-b709-14c55faec672" data-name="path4520-6" class="c825906b-4a7a-4293-b8a8-ca1a9f55e110" d="M1034.6,336.43c-10.44,11.45-6.49,5-10.44,11.45s-6.49,6.49-6.49,10.74-3.24,4.66-1.11,9.63,4,7.5,5,11.15,3.24,8.62,4.66,10a7.43,7.43,0,0,0,2.74,1.82s.41-.91,1.11,1.11c0,.1,3.75,1.72,3,.3-2.13-4.66-6.28-7.8-8.41-14.6s-2.74-8.41-3.45-12-1.82-.61-.71-3,4.87-10.74,6.28-12.47,2.13-3.55,5-6.49,10.64-7.8,12.06-9.32c1.82-1.52-1.32,2-9.22,1.62Z"/><path id="304d2094-a4ed-4594-8d81-ae46edd4ba2a" data-name="path5396-3" class="7d47468a-95ea-4441-8b57-97d3c80bed5f" d="M1047.57,392.38c12.57,1.42,13,.3,11.45-3.24s1.11-27.47-2.64-26.76-11-2.13-11,.71,2.23,29.29,2.23,29.29Z"/><path id="87c55139-a687-400d-a353-23282e163990" data-name="path7131" class="14ccb8b3-99f8-46fa-b1fc-7b3eddb27663" d="M1148,258.28c12.87-11.45,14.29,0,14.29,0"/><path id="255e0bac-9c4f-472d-a3d7-ad7dd2f8f599" data-name="path7675" class="c6e37e64-3179-45a4-b8db-a8b229341b46" d="M1151,256c-11.45,94.77-18.14,107.54-11.45,94.77s-1.52-19.76,4.16.51.3,30.81,8.21,7c6.79-20.27-2.64-16.52,6.08.2,10.24,19.87,13,33.75,6.28-8.82s-.91,19.16-3.85-38.31c-2.74-57.47,4-58.58-9.43-55.34Z"/><path id="2a67d93b-8fae-4e38-8898-224b7c2f3bbe" data-name="path7677" class="75a42ac4-1c00-4517-ab36-5ff0307307f9" d="M1147.3,160.78l-1,61.83"/><path id="2657883b-2904-4d44-82f8-e99c1b9cef96" data-name="path7677-6" class="b1f3d3ba-ed84-4b1e-aaac-d6f9f699ca79" d="M1236.3,158.65l-.61,26.45"/><path class="59bd86ad-d254-4558-928c-ecaef0407f37" d="M1174.87,74.63c.41-.3,2.94-5.57,6.59-3.45a9.73,9.73,0,0,1,3.24,3.45"/><path class="59bd86ad-d254-4558-928c-ecaef0407f37" d="M1196.16,74.63c.41-.3,2.94-5.57,6.59-3.45a9.73,9.73,0,0,1,3.24,3.45"/></g></g></svg>