<svg xmlns="http://www.w3.org/2000/svg" xmlns:xlink="http://www.w3.org/1999/xlink" viewBox="0 0 1600 650"><defs><style>.\38 c65e678-6ab8-4bf6-ae56-727d69e3432d{fill:#aee0c5;}.d5c5142f-f3b4-435d-a398-60cc8e8417dc,.d9f3b1bd-fdef-4680-b041-7f00011d24cd{fill:#336;stroke:#f8f8f8;}.c4b11cb6-01a7-4a83-b328-996cc24a6993,.d5c5142f-f3b4-435d-a398-60cc8e8417dc,.d9f3b1bd-fdef-4680-b041-7f00011d24cd,.eadcaeb6-068c-440c-8861-fb36728f4cb2,.fda7d7a4-7d19-4138-92ee-d9dbc09bb41b{stroke-linecap:round;stroke-linejoin:round;}.d5c5142f-f3b4-435d-a398-60cc8e8417dc{stroke-width:0.85px;}.\31 6b4c119-8c98-4b05-a767-852b88a41e96,.\31 fd7290e-4495-407e-bb1b-47697707addc,.\38 b3418c0-9160-4dd7-bf62-31ef91f99f95{isolation:isolate;}.\38 05067a9-1e92-4e81-bccb-d8ddf2fe357a{fill:#f8fafd;}.d9f3b1bd-fdef-4680-b041-7f00011d24cd{stroke-width:0.9px;}.e158ce0c-0ce1-4c87-a3aa-b869d030b04f{fill:#fcfcfc;}.\33 050ea1f-c589-4467-af58-8ef68718c2b6{fill:#00590d;}.\37 a7bf8bf-f48d-4239-bd4f-037392084c7a{fill:#1b6824;}.\32 42e7330-ba17-4119-92a2-a36ddbb606f8{fill:#fdfcfa;}.\31 6b4c119-8c98-4b05-a767-852b88a41e96{fill:#fff293;}.\31 6b4c119-8c98-4b05-a767-852b88a41e96,.\38 b3418c0-9160-4dd7-bf62-31ef91f99f95{opacity:0.77;}.\38 b3418c0-9160-4dd7-bf62-31ef91f99f95{fill:#f4f30e;}.\32 dc88e3b-5d66-4e49-8436-9b7d6039a7e4{mask:url(#9d528cab-e536-47db-ad26-4c7e627fdb97);}.\34 2fd9827-1391-486a-a563-4b60931c9b71{fill:url(#0b75cdf9-4871-42ef-bff0-e702a5226214);}.a65bd7a2-8d07-4c39-8896-7fc36dc4e460{fill:#326b84;}.\31 c1e391b-715e-4f6b-9b69-46e5d60e9529,.\33 46515f3-d0e7-4c9d-9678-ad8a486ec913,.\34 2d68130-7e43-4e6a-b27f-4a7159662b4f,.\36 57fba29-5ef9-452f-8033-98665b6e7584,.a65bd7a2-8d07-4c39-8896-7fc36dc4e460,.c4b11cb6-01a7-4a83-b328-996cc24a6993,.d05ea0bf-71b7-43b7-8ffb-918119953428,.eadcaeb6-068c-440c-8861-fb36728f4cb2,.fda7d7a4-7d19-4138-92ee-d9dbc09bb41b{stroke:#000;}.\33 46515f3-d0e7-4c9d-9678-ad8a486ec913{fill:#fbfbfd;}.\31 c1e391b-715e-4f6b-9b69-46e5d60e9529{fill:#32846e;}.\34 2d68130-7e43-4e6a-b27f-4a7159662b4f{fill:#328479;}.\30 d10f27b-3c22-44a7-8771-7211cb61d5d8,.\36 57fba29-5ef9-452f-8033-98665b6e7584,.\39 35e1366-e7e7-4dbc-94b6-0e52a0ec3cab,.ba71910a-95aa-4667-8ed7-911e8a86dba5,.da796a23-ace7-4b85-a079-402ad130f0e0{fill:none;}.\30 d10f27b-3c22-44a7-8771-7211cb61d5d8{stroke:#faf7f7;}.\39 35e1366-e7e7-4dbc-94b6-0e52a0ec3cab{stroke:#f7f7fa;}.d05ea0bf-71b7-43b7-8ffb-918119953428{fill:#131314;}.c4b11cb6-01a7-4a83-b328-996cc24a6993,.eadcaeb6-068c-440c-8861-fb36728f4cb2,.fda7d7a4-7d19-4138-92ee-d9dbc09bb41b{fill:#fbf9fe;}.c4b11cb6-01a7-4a83-b328-996cc24a6993{stroke-width:1.05px;}.fda7d7a4-7d19-4138-92ee-d9dbc09bb41b{stroke-width:1.09px;}.da796a23-ace7-4b85-a079-402ad130f0e0{stroke:#5e9ce3;stroke-width:3.7px;}.ba71910a-95aa-4667-8ed7-911e8a86dba5{stroke:#2f53bf;stroke-width:3.8px;}.\39 1b0d851-e48a-47ed-867e-e8243d8e1af0{fill:#2b82c9;}.d5114001-b2b3-422a-8eb4-bb53ed33fff7{filter:url(#1d1c42c8-9240-4ab3-af24-54c446596177);}</style><filter id="1d1c42c8-9240-4ab3-af24-54c446596177" x="1204" y="458" width="106" height="22" filterUnits="userSpaceOnUse" color-interpolation-filters="sRGB"><feFlood flood-color="#fff" result="bg"/><feBlend in="SourceGraphic" in2="bg"/></filter><mask id="9d528cab-e536-47db-ad26-4c7e627fdb97" x="1204" y="458" width="106" height="22" maskUnits="userSpaceOnUse"><g class="d5114001-b2b3-422a-8eb4-bb53ed33fff7"><image width="106" height="22" transform="translate(1204 458)" xlink:href="slide-3@7001.png"/></g></mask><radialGradient id="0b75cdf9-4871-42ef-bff0-e702a5226214" cx="1256.85" cy="469.18" r="36.15" gradientTransform="translate(0 416.7) scale(1 0.11)" gradientUnits="userSpaceOnUse"><stop offset="0"/><stop offset="1" stop-color="gray"/></radialGradient></defs><title>slide-3@700</title><g id="3386eb3a-fe56-4862-bc58-bebf892ebcff" data-name="Layer 2"><g id="1224b79d-ec77-4c51-b294-722e6f31f70a" data-name="Layer 2"><rect class="8c65e678-6ab8-4bf6-ae56-727d69e3432d" width="1600" height="650"/><rect id="0e3a08ac-a318-4d3f-8945-cf1346619ebb" data-name="rect5617" class="d5c5142f-f3b4-435d-a398-60cc8e8417dc" x="1009.99" y="482.3" width="511" height="61.5"/><g class="1fd7290e-4495-407e-bb1b-47697707addc"><path class="805067a9-1e92-4e81-bccb-d8ddf2fe357a" d="M1145.5,515.28a11.92,11.92,0,0,1-4.75-2.3,4.39,4.39,0,0,1-1.49-3.37,4.64,4.64,0,0,1,1.82-3.75,7.22,7.22,0,0,1,4.72-1.48,7.89,7.89,0,0,1,3.53.76,5.81,5.81,0,0,1,2.4,2.11,5.39,5.39,0,0,1,.85,2.94H1150a3.51,3.51,0,0,0-1.11-2.75,4.52,4.52,0,0,0-3.13-1,4.62,4.62,0,0,0-2.92.83,2.75,2.75,0,0,0-1,2.29,2.48,2.48,0,0,0,1,2,9.79,9.79,0,0,0,3.39,1.49,15.76,15.76,0,0,1,3.75,1.48,5.69,5.69,0,0,1,2,1.89,4.82,4.82,0,0,1,.65,2.54,4.48,4.48,0,0,1-1.82,3.74,7.77,7.77,0,0,1-4.87,1.4,9.06,9.06,0,0,1-3.7-.76,6.22,6.22,0,0,1-2.65-2.08,5.06,5.06,0,0,1-.93-3h2.55a3.3,3.3,0,0,0,1.29,2.75,5.42,5.42,0,0,0,3.44,1,5,5,0,0,0,3.08-.82,2.65,2.65,0,0,0,1.07-2.23,2.6,2.6,0,0,0-1-2.18A11.43,11.43,0,0,0,1145.5,515.28Z"/><path class="805067a9-1e92-4e81-bccb-d8ddf2fe357a" d="M1169.16,506.71H1163v17.13h-2.52V506.71h-6.17v-2.07h14.87Z"/><path class="805067a9-1e92-4e81-bccb-d8ddf2fe357a" d="M1185.55,504.64v13.05a6.12,6.12,0,0,1-1.71,4.44,6.89,6.89,0,0,1-4.6,1.94l-.67,0a7.2,7.2,0,0,1-5-1.7,6.08,6.08,0,0,1-1.9-4.68V504.64h2.51v13a4,4,0,0,0,4.42,4.39,4.45,4.45,0,0,0,3.29-1.15,4.38,4.38,0,0,0,1.14-3.23v-13Z"/><path class="805067a9-1e92-4e81-bccb-d8ddf2fe357a" d="M1189.55,523.84v-19.2H1195a8.74,8.74,0,0,1,4.44,1.11,7.5,7.5,0,0,1,3,3.15,10.26,10.26,0,0,1,1.06,4.69v1.23a10.28,10.28,0,0,1-1,4.76,7.37,7.37,0,0,1-3,3.14,9.3,9.3,0,0,1-4.54,1.12Zm2.53-17.13v15.05h2.67a5.81,5.81,0,0,0,4.56-1.82,7.52,7.52,0,0,0,1.63-5.19v-1.12a7.64,7.64,0,0,0-1.54-5.09,5.48,5.48,0,0,0-4.36-1.84Z"/><path class="805067a9-1e92-4e81-bccb-d8ddf2fe357a" d="M1218.14,515h-8.33v6.8h9.68v2.07h-12.21v-19.2h12.08v2.07h-9.54v6.18h8.33Z"/><path class="805067a9-1e92-4e81-bccb-d8ddf2fe357a" d="M1237.42,523.84h-2.55L1225.19,509v14.79h-2.55v-19.2h2.55l9.7,14.86V504.64h2.52Z"/><path class="805067a9-1e92-4e81-bccb-d8ddf2fe357a" d="M1254.82,506.71h-6.18v17.13h-2.52V506.71H1240v-2.07h14.87Z"/><path class="805067a9-1e92-4e81-bccb-d8ddf2fe357a" d="M1266.37,516.32v7.51h-2.53v-19.2h7.09a7.13,7.13,0,0,1,4.94,1.61,5.45,5.45,0,0,1,1.79,4.26,5.38,5.38,0,0,1-1.75,4.3,7.45,7.45,0,0,1-5,1.51Zm0-2.07h4.55a4.56,4.56,0,0,0,3.12-1,3.5,3.5,0,0,0,1.08-2.77,3.61,3.61,0,0,0-1.08-2.75,4.27,4.27,0,0,0-3-1.07h-4.7Z"/><path class="805067a9-1e92-4e81-bccb-d8ddf2fe357a" d="M1287.94,516.07h-4.52v7.77h-2.55v-19.2h6.36a7.54,7.54,0,0,1,5,1.48,5.31,5.31,0,0,1,1.75,4.3,5.16,5.16,0,0,1-1,3.12,5.79,5.79,0,0,1-2.7,2l4.52,8.15v.16h-2.72Zm-4.52-2.07h3.89a4.39,4.39,0,0,0,3-1,3.3,3.3,0,0,0,1.12-2.62,3.48,3.48,0,0,0-1.06-2.73,4.51,4.51,0,0,0-3.07-1h-3.88Z"/><path class="805067a9-1e92-4e81-bccb-d8ddf2fe357a" d="M1312.33,514.86a11.88,11.88,0,0,1-1,4.92,7.2,7.2,0,0,1-2.69,3.21,7.44,7.44,0,0,1-10.82-3.18,11.37,11.37,0,0,1-1-4.78v-1.38a11.72,11.72,0,0,1,1-4.89,7.13,7.13,0,0,1,6.76-4.38,7.45,7.45,0,0,1,4.07,1.11,7.18,7.18,0,0,1,2.71,3.23,11.94,11.94,0,0,1,1,4.92Zm-2.52-1.24a8.6,8.6,0,0,0-1.37-5.24,4.53,4.53,0,0,0-3.84-1.83,4.48,4.48,0,0,0-3.78,1.83,8.42,8.42,0,0,0-1.42,5.07v1.41a8.61,8.61,0,0,0,1.39,5.2,4.88,4.88,0,0,0,7.64.11,8.55,8.55,0,0,0,1.39-5.12Z"/><path class="805067a9-1e92-4e81-bccb-d8ddf2fe357a" d="M1324.18,504.64h2.55v13.59a5.63,5.63,0,0,1-1.66,4.31,6.19,6.19,0,0,1-4.42,1.56,6.37,6.37,0,0,1-4.46-1.46,5.28,5.28,0,0,1-1.6-4.1h2.53a3.18,3.18,0,0,0,3.53,3.49,3.4,3.4,0,0,0,2.54-1,3.83,3.83,0,0,0,1-2.77Z"/><path class="805067a9-1e92-4e81-bccb-d8ddf2fe357a" d="M1341.91,515h-8.33v6.8h9.68v2.07H1331v-19.2h12.08v2.07h-9.54v6.18h8.33Z"/><path class="805067a9-1e92-4e81-bccb-d8ddf2fe357a" d="M1360.55,517.75a7.06,7.06,0,0,1-2.25,4.7,7.38,7.38,0,0,1-5,1.65,6.77,6.77,0,0,1-5.46-2.44,9.8,9.8,0,0,1-2.05-6.53v-1.85a10.92,10.92,0,0,1,1-4.71,7.14,7.14,0,0,1,2.71-3.12,7.56,7.56,0,0,1,4.07-1.09,7,7,0,0,1,4.91,1.71,7.14,7.14,0,0,1,2.15,4.73H1358a5.51,5.51,0,0,0-1.43-3.33,4.34,4.34,0,0,0-3.08-1,4.53,4.53,0,0,0-3.81,1.79,8.23,8.23,0,0,0-1.38,5.11v1.86a8.46,8.46,0,0,0,1.31,5,4.23,4.23,0,0,0,3.66,1.85,4.89,4.89,0,0,0,3.24-1,5.3,5.3,0,0,0,1.5-3.33Z"/><path class="805067a9-1e92-4e81-bccb-d8ddf2fe357a" d="M1376.91,506.71h-6.18v17.13h-2.52V506.71H1362v-2.07h14.87Z"/><path class="805067a9-1e92-4e81-bccb-d8ddf2fe357a" d="M1385.21,515.28a11.92,11.92,0,0,1-4.75-2.3,4.39,4.39,0,0,1-1.49-3.37,4.64,4.64,0,0,1,1.82-3.75,7.22,7.22,0,0,1,4.72-1.48,7.89,7.89,0,0,1,3.53.76,5.81,5.81,0,0,1,2.4,2.11,5.39,5.39,0,0,1,.85,2.94h-2.55a3.51,3.51,0,0,0-1.11-2.75,4.52,4.52,0,0,0-3.13-1,4.62,4.62,0,0,0-2.92.83,2.75,2.75,0,0,0-1,2.29,2.48,2.48,0,0,0,1,2,9.79,9.79,0,0,0,3.39,1.49,15.76,15.76,0,0,1,3.75,1.48,5.69,5.69,0,0,1,2,1.89,4.82,4.82,0,0,1,.65,2.54,4.48,4.48,0,0,1-1.82,3.74,7.77,7.77,0,0,1-4.87,1.4,9.06,9.06,0,0,1-3.7-.76,6.22,6.22,0,0,1-2.65-2.08,5.06,5.06,0,0,1-.93-3h2.55a3.3,3.3,0,0,0,1.29,2.75,5.42,5.42,0,0,0,3.44,1,5,5,0,0,0,3.08-.82,2.65,2.65,0,0,0,1.07-2.23,2.6,2.6,0,0,0-1-2.18A11.43,11.43,0,0,0,1385.21,515.28Z"/></g><rect id="aec1e346-aac3-49ea-9036-fd1f93fc1127" data-name="rect5617-6" class="d9f3b1bd-fdef-4680-b041-7f00011d24cd" x="951.97" y="551.4" width="627.03" height="61.5"/><g class="1fd7290e-4495-407e-bb1b-47697707addc"><path class="e158ce0c-0ce1-4c87-a3aa-b869d030b04f" d="M990,581.95h-4.52v7.77h-2.55v-19.2h6.36a7.54,7.54,0,0,1,5,1.48,5.31,5.31,0,0,1,1.75,4.3,5.16,5.16,0,0,1-1,3.12,5.79,5.79,0,0,1-2.7,2l4.52,8.15v.16h-2.72Zm-4.52-2.07h3.89a4.39,4.39,0,0,0,3-1,3.3,3.3,0,0,0,1.12-2.62,3.48,3.48,0,0,0-1.06-2.73,4.51,4.51,0,0,0-3.07-1h-3.88Z"/><path class="e158ce0c-0ce1-4c87-a3aa-b869d030b04f" d="M1005.38,584.56a4.5,4.5,0,0,1,.77-2.54,11.8,11.8,0,0,1,3-2.7,12.69,12.69,0,0,1-1.72-2.5,4.85,4.85,0,0,1,.86-5.31,4.87,4.87,0,0,1,3.51-1.24,4.74,4.74,0,0,1,3.27,1.15,3.73,3.73,0,0,1,1.29,2.91,4.1,4.1,0,0,1-.59,2.14,7.62,7.62,0,0,1-2.05,2.06l-1.41,1,4.28,5.1a8.09,8.09,0,0,0,.9-3.81h2.2a9.18,9.18,0,0,1-1.62,5.58l2.75,3.28h-2.93l-1.28-1.52a6.69,6.69,0,0,1-2.29,1.32,8.1,8.1,0,0,1-2.67.46,6.61,6.61,0,0,1-4.52-1.49A5,5,0,0,1,1005.38,584.56Zm6.22,3.43a5.14,5.14,0,0,0,3.55-1.48l-4.69-5.6-.44.32q-2.2,1.62-2.21,3.34a3.23,3.23,0,0,0,1,2.49A3.91,3.91,0,0,0,1011.6,588Zm-2.21-13.14A5.54,5.54,0,0,0,1011,578l1.56-1.09a4.15,4.15,0,0,0,1.23-1.21,2.75,2.75,0,0,0,.33-1.39,1.89,1.89,0,0,0-.66-1.47,2.41,2.41,0,0,0-1.66-.59,2.16,2.16,0,0,0-1.72.73A2.73,2.73,0,0,0,1009.4,574.84Z"/><path class="e158ce0c-0ce1-4c87-a3aa-b869d030b04f" d="M1029.78,589.71v-19.2h5.43a8.74,8.74,0,0,1,4.44,1.11,7.5,7.5,0,0,1,3,3.15,10.26,10.26,0,0,1,1.06,4.69v1.23a10.28,10.28,0,0,1-1,4.76,7.37,7.37,0,0,1-3,3.14,9.3,9.3,0,0,1-4.54,1.12Zm2.53-17.12v15.05H1035a5.81,5.81,0,0,0,4.56-1.82,7.52,7.52,0,0,0,1.63-5.19v-1.12a7.64,7.64,0,0,0-1.54-5.09,5.48,5.48,0,0,0-4.36-1.84Z"/><path class="e158ce0c-0ce1-4c87-a3aa-b869d030b04f" d="M1069,580.74a11.88,11.88,0,0,1-1,4.92,7.2,7.2,0,0,1-2.69,3.21,7.44,7.44,0,0,1-10.82-3.18,11.37,11.37,0,0,1-1-4.78v-1.38a11.72,11.72,0,0,1,1-4.89,7.13,7.13,0,0,1,6.76-4.38,7.45,7.45,0,0,1,4.07,1.11,7.18,7.18,0,0,1,2.71,3.23,11.94,11.94,0,0,1,1,4.92Zm-2.52-1.24a8.6,8.6,0,0,0-1.37-5.24,4.53,4.53,0,0,0-3.84-1.83,4.48,4.48,0,0,0-3.78,1.83,8.42,8.42,0,0,0-1.42,5.07v1.41a8.61,8.61,0,0,0,1.39,5.2,4.88,4.88,0,0,0,7.64.11,8.55,8.55,0,0,0,1.39-5.12Z"/><path class="e158ce0c-0ce1-4c87-a3aa-b869d030b04f" d="M1075.33,582.2v7.51h-2.53v-19.2h7.09a7.13,7.13,0,0,1,4.94,1.61,5.45,5.45,0,0,1,1.79,4.26,5.38,5.38,0,0,1-1.75,4.3,7.45,7.45,0,0,1-5,1.51Zm0-2.07h4.55a4.56,4.56,0,0,0,3.12-1,3.5,3.5,0,0,0,1.08-2.77,3.61,3.61,0,0,0-1.08-2.75,4.27,4.27,0,0,0-3-1.07h-4.7Z"/><path class="e158ce0c-0ce1-4c87-a3aa-b869d030b04f" d="M1092.39,582.2v7.51h-2.53v-19.2h7.09a7.13,7.13,0,0,1,4.94,1.61,5.45,5.45,0,0,1,1.79,4.26,5.38,5.38,0,0,1-1.75,4.3,7.45,7.45,0,0,1-5,1.51Zm0-2.07h4.55a4.56,4.56,0,0,0,3.12-1,3.5,3.5,0,0,0,1.08-2.77,3.61,3.61,0,0,0-1.08-2.75,4.27,4.27,0,0,0-3-1.07h-4.7Z"/><path class="e158ce0c-0ce1-4c87-a3aa-b869d030b04f" d="M1121.69,580.74a11.88,11.88,0,0,1-1,4.92,7.2,7.2,0,0,1-2.69,3.21,7.44,7.44,0,0,1-10.82-3.18,11.37,11.37,0,0,1-1-4.78v-1.38a11.72,11.72,0,0,1,1-4.89,7.13,7.13,0,0,1,6.76-4.38,7.45,7.45,0,0,1,4.07,1.11,7.18,7.18,0,0,1,2.71,3.23,11.94,11.94,0,0,1,1,4.92Zm-2.52-1.24a8.6,8.6,0,0,0-1.37-5.24,4.53,4.53,0,0,0-3.84-1.83,4.48,4.48,0,0,0-3.78,1.83,8.42,8.42,0,0,0-1.42,5.07v1.41a8.61,8.61,0,0,0,1.39,5.2,4.88,4.88,0,0,0,7.64.11,8.55,8.55,0,0,0,1.39-5.12Z"/><path class="e158ce0c-0ce1-4c87-a3aa-b869d030b04f" d="M1132.55,581.95H1128v7.77h-2.55v-19.2h6.36a7.54,7.54,0,0,1,5,1.48,5.31,5.31,0,0,1,1.75,4.3,5.16,5.16,0,0,1-1,3.12,5.79,5.79,0,0,1-2.7,2l4.52,8.15v.16h-2.72Zm-4.52-2.07h3.89a4.39,4.39,0,0,0,3-1,3.3,3.3,0,0,0,1.12-2.62,3.48,3.48,0,0,0-1.06-2.73,4.51,4.51,0,0,0-3.07-1H1128Z"/><path class="e158ce0c-0ce1-4c87-a3aa-b869d030b04f" d="M1154.37,572.59h-6.18v17.13h-2.52V572.59h-6.17v-2.07h14.87Z"/><path class="e158ce0c-0ce1-4c87-a3aa-b869d030b04f" d="M1170.75,570.52v13.05A6.12,6.12,0,0,1,1169,588a6.89,6.89,0,0,1-4.6,1.94l-.67,0a7.2,7.2,0,0,1-5-1.7,6.08,6.08,0,0,1-1.9-4.68V570.52h2.51v13a4,4,0,0,0,4.42,4.39,4.45,4.45,0,0,0,3.29-1.15,4.38,4.38,0,0,0,1.14-3.23v-13Z"/><path class="e158ce0c-0ce1-4c87-a3aa-b869d030b04f" d="M1189.53,589.71H1187l-9.68-14.79v14.79h-2.55v-19.2h2.55l9.7,14.86V570.52h2.52Z"/><path class="e158ce0c-0ce1-4c87-a3aa-b869d030b04f" d="M1196.75,589.71h-2.54v-19.2h2.54Z"/><path class="e158ce0c-0ce1-4c87-a3aa-b869d030b04f" d="M1214.28,572.59h-6.18v17.13h-2.52V572.59h-6.17v-2.07h14.87Z"/><path class="e158ce0c-0ce1-4c87-a3aa-b869d030b04f" d="M1219.85,589.71h-2.54v-19.2h2.54Z"/><path class="e158ce0c-0ce1-4c87-a3aa-b869d030b04f" d="M1235.35,580.84H1227v6.8h9.68v2.07h-12.21v-19.2h12.08v2.07H1227v6.18h8.33Z"/><path class="e158ce0c-0ce1-4c87-a3aa-b869d030b04f" d="M1245.52,581.16a11.92,11.92,0,0,1-4.75-2.3,4.39,4.39,0,0,1-1.49-3.37,4.64,4.64,0,0,1,1.82-3.75,7.22,7.22,0,0,1,4.72-1.48,7.89,7.89,0,0,1,3.53.76,5.81,5.81,0,0,1,2.4,2.11,5.39,5.39,0,0,1,.85,2.94h-2.55a3.51,3.51,0,0,0-1.11-2.75,4.52,4.52,0,0,0-3.13-1,4.62,4.62,0,0,0-2.92.83,2.75,2.75,0,0,0-1,2.29,2.48,2.48,0,0,0,1,2,9.79,9.79,0,0,0,3.39,1.49,15.76,15.76,0,0,1,3.75,1.48,5.69,5.69,0,0,1,2,1.89,4.82,4.82,0,0,1,.65,2.54,4.48,4.48,0,0,1-1.82,3.74A7.77,7.77,0,0,1,1246,590a9.06,9.06,0,0,1-3.7-.76,6.22,6.22,0,0,1-2.65-2.08,5.06,5.06,0,0,1-.93-3h2.55a3.3,3.3,0,0,0,1.29,2.75,5.42,5.42,0,0,0,3.44,1,5,5,0,0,0,3.08-.82,2.65,2.65,0,0,0,1.07-2.23,2.6,2.6,0,0,0-1-2.18A11.43,11.43,0,0,0,1245.52,581.16Z"/><path class="e158ce0c-0ce1-4c87-a3aa-b869d030b04f" d="M1273.2,584.69h-8.05l-1.81,5h-2.61l7.34-19.2h2.22l7.35,19.2H1275Zm-7.29-2.07h6.54l-3.27-9Z"/><path class="e158ce0c-0ce1-4c87-a3aa-b869d030b04f" d="M1295,589.71h-2.55l-9.68-14.79v14.79h-2.55v-19.2h2.55l9.7,14.86V570.52H1295Z"/><path class="e158ce0c-0ce1-4c87-a3aa-b869d030b04f" d="M1299.5,589.71v-19.2h5.43a8.74,8.74,0,0,1,4.44,1.11,7.5,7.5,0,0,1,3,3.15,10.26,10.26,0,0,1,1.06,4.69v1.23a10.28,10.28,0,0,1-1,4.76,7.37,7.37,0,0,1-3,3.14,9.3,9.3,0,0,1-4.54,1.12Zm2.53-17.12v15.05h2.67a5.81,5.81,0,0,0,4.56-1.82,7.52,7.52,0,0,0,1.63-5.19v-1.12a7.64,7.64,0,0,0-1.54-5.09,5.48,5.48,0,0,0-4.36-1.84Z"/><path class="e158ce0c-0ce1-4c87-a3aa-b869d030b04f" d="M1338.06,583.62a7.06,7.06,0,0,1-2.25,4.7,7.38,7.38,0,0,1-5,1.65,6.77,6.77,0,0,1-5.46-2.44,9.8,9.8,0,0,1-2.05-6.53v-1.85a10.92,10.92,0,0,1,1-4.71,7.14,7.14,0,0,1,2.71-3.12,7.56,7.56,0,0,1,4.07-1.09,7,7,0,0,1,4.91,1.71,7.14,7.14,0,0,1,2.15,4.73h-2.55a5.51,5.51,0,0,0-1.43-3.33,4.34,4.34,0,0,0-3.08-1,4.53,4.53,0,0,0-3.81,1.79,8.23,8.23,0,0,0-1.38,5.11v1.86a8.46,8.46,0,0,0,1.31,5,4.23,4.23,0,0,0,3.66,1.85,4.89,4.89,0,0,0,3.24-1,5.3,5.3,0,0,0,1.5-3.33Z"/><path class="e158ce0c-0ce1-4c87-a3aa-b869d030b04f" d="M1356.31,580.74a11.88,11.88,0,0,1-1,4.92,7.2,7.2,0,0,1-2.69,3.21,7.44,7.44,0,0,1-10.82-3.18,11.37,11.37,0,0,1-1-4.78v-1.38a11.72,11.72,0,0,1,1-4.89,7.13,7.13,0,0,1,6.76-4.38,7.45,7.45,0,0,1,4.07,1.11,7.18,7.18,0,0,1,2.71,3.23,11.94,11.94,0,0,1,1,4.92Zm-2.52-1.24a8.6,8.6,0,0,0-1.37-5.24,4.53,4.53,0,0,0-3.84-1.83,4.48,4.48,0,0,0-3.78,1.83,8.42,8.42,0,0,0-1.42,5.07v1.41a8.61,8.61,0,0,0,1.39,5.2,4.88,4.88,0,0,0,7.64.11,8.55,8.55,0,0,0,1.39-5.12Z"/><path class="e158ce0c-0ce1-4c87-a3aa-b869d030b04f" d="M1362.66,587.64h9.11v2.07h-11.66v-19.2h2.55Z"/><path class="e158ce0c-0ce1-4c87-a3aa-b869d030b04f" d="M1377.21,587.64h9.11v2.07h-11.66v-19.2h2.55Z"/><path class="e158ce0c-0ce1-4c87-a3aa-b869d030b04f" d="M1400.07,584.69H1392l-1.81,5h-2.61l7.34-19.2h2.22l7.35,19.2h-2.6Zm-7.29-2.07h6.54l-3.27-9Z"/><path class="e158ce0c-0ce1-4c87-a3aa-b869d030b04f" d="M1407.1,589.71v-19.2h6.28a7.3,7.3,0,0,1,4.71,1.29,4.65,4.65,0,0,1,1.58,3.82,3.9,3.9,0,0,1-.77,2.38,5,5,0,0,1-2.09,1.6,4.46,4.46,0,0,1,2.46,1.65,4.75,4.75,0,0,1,.9,2.91,5.13,5.13,0,0,1-1.68,4.06,6.94,6.94,0,0,1-4.74,1.48Zm2.53-11h3.83a4,4,0,0,0,2.66-.83,2.79,2.79,0,0,0,1-2.26,2.74,2.74,0,0,0-.92-2.31,4.54,4.54,0,0,0-2.81-.72h-3.75Zm0,2v6.91h4.19a4,4,0,0,0,2.79-.92,3.22,3.22,0,0,0,1-2.52q0-3.47-3.78-3.47Z"/><path class="e158ce0c-0ce1-4c87-a3aa-b869d030b04f" d="M1438.72,580.74a11.88,11.88,0,0,1-1,4.92,7.2,7.2,0,0,1-2.69,3.21,7.44,7.44,0,0,1-10.82-3.18,11.37,11.37,0,0,1-1-4.78v-1.38a11.72,11.72,0,0,1,1-4.89,7.13,7.13,0,0,1,6.76-4.38,7.45,7.45,0,0,1,4.07,1.11,7.18,7.18,0,0,1,2.71,3.23,11.94,11.94,0,0,1,1,4.92Zm-2.52-1.24a8.6,8.6,0,0,0-1.37-5.24,4.53,4.53,0,0,0-3.84-1.83,4.48,4.48,0,0,0-3.78,1.83,8.42,8.42,0,0,0-1.42,5.07v1.41a8.61,8.61,0,0,0,1.39,5.2,4.88,4.88,0,0,0,7.64.11,8.55,8.55,0,0,0,1.39-5.12Z"/><path class="e158ce0c-0ce1-4c87-a3aa-b869d030b04f" d="M1449.57,581.95h-4.52v7.77h-2.55v-19.2h6.36a7.54,7.54,0,0,1,5,1.48,5.31,5.31,0,0,1,1.75,4.3,5.16,5.16,0,0,1-1,3.12,5.79,5.79,0,0,1-2.7,2l4.52,8.15v.16h-2.72Zm-4.52-2.07h3.89a4.39,4.39,0,0,0,3-1,3.3,3.3,0,0,0,1.12-2.62,3.48,3.48,0,0,0-1.06-2.73,4.51,4.51,0,0,0-3.07-1h-3.88Z"/><path class="e158ce0c-0ce1-4c87-a3aa-b869d030b04f" d="M1469.78,584.69h-8.05l-1.81,5h-2.61l7.34-19.2h2.22l7.35,19.2h-2.6Zm-7.29-2.07H1469l-3.27-9Z"/><path class="e158ce0c-0ce1-4c87-a3aa-b869d030b04f" d="M1488.38,572.59h-6.18v17.13h-2.52V572.59h-6.17v-2.07h14.87Z"/><path class="e158ce0c-0ce1-4c87-a3aa-b869d030b04f" d="M1494,589.71h-2.54v-19.2H1494Z"/><path class="e158ce0c-0ce1-4c87-a3aa-b869d030b04f" d="M1513.37,580.74a11.88,11.88,0,0,1-1,4.92,7.2,7.2,0,0,1-2.69,3.21,7.44,7.44,0,0,1-10.82-3.18,11.37,11.37,0,0,1-1-4.78v-1.38a11.72,11.72,0,0,1,1-4.89,7.13,7.13,0,0,1,6.76-4.38,7.45,7.45,0,0,1,4.07,1.11,7.18,7.18,0,0,1,2.71,3.23,11.94,11.94,0,0,1,1,4.92Zm-2.52-1.24a8.6,8.6,0,0,0-1.37-5.24,4.53,4.53,0,0,0-3.84-1.83,4.48,4.48,0,0,0-3.78,1.83,8.42,8.42,0,0,0-1.42,5.07v1.41a8.61,8.61,0,0,0,1.39,5.2,4.88,4.88,0,0,0,7.64.11,8.55,8.55,0,0,0,1.39-5.12Z"/><path class="e158ce0c-0ce1-4c87-a3aa-b869d030b04f" d="M1531.95,589.71h-2.55l-9.68-14.79v14.79h-2.55v-19.2h2.55l9.7,14.86V570.52h2.52Z"/><path class="e158ce0c-0ce1-4c87-a3aa-b869d030b04f" d="M1542.11,581.16a11.92,11.92,0,0,1-4.75-2.3,4.39,4.39,0,0,1-1.49-3.37,4.64,4.64,0,0,1,1.82-3.75,7.22,7.22,0,0,1,4.72-1.48,7.89,7.89,0,0,1,3.53.76,5.81,5.81,0,0,1,2.4,2.11,5.39,5.39,0,0,1,.85,2.94h-2.55a3.51,3.51,0,0,0-1.11-2.75,4.52,4.52,0,0,0-3.13-1,4.62,4.62,0,0,0-2.92.83,2.75,2.75,0,0,0-1,2.29,2.48,2.48,0,0,0,1,2,9.79,9.79,0,0,0,3.39,1.49,15.76,15.76,0,0,1,3.75,1.48,5.69,5.69,0,0,1,2,1.89,4.82,4.82,0,0,1,.65,2.54,4.48,4.48,0,0,1-1.82,3.74,7.77,7.77,0,0,1-4.87,1.4,9.06,9.06,0,0,1-3.7-.76,6.22,6.22,0,0,1-2.65-2.08,5.06,5.06,0,0,1-.93-3h2.55a3.3,3.3,0,0,0,1.29,2.75,5.42,5.42,0,0,0,3.44,1,5,5,0,0,0,3.08-.82,2.65,2.65,0,0,0,1.07-2.23,2.6,2.6,0,0,0-1-2.18A11.43,11.43,0,0,0,1542.11,581.16Z"/></g><path class="3050ea1f-c589-4467-af58-8ef68718c2b6" d="M71.39,337.5H58.27l-2.95,8.19H51.06l12-31.28h3.61l12,31.28H74.38Zm-11.88-3.37H70.17L64.83,319.5Z"/><path class="3050ea1f-c589-4467-af58-8ef68718c2b6" d="M105.64,335.76a11.5,11.5,0,0,1-3.67,7.66,12,12,0,0,1-8.21,2.7,11,11,0,0,1-8.9-4q-3.35-4-3.35-10.63v-3a17.8,17.8,0,0,1,1.56-7.67,11.64,11.64,0,0,1,4.42-5.08A12.32,12.32,0,0,1,94.13,314a11.33,11.33,0,0,1,8,2.78,11.64,11.64,0,0,1,3.51,7.7h-4.15A9,9,0,0,0,99.16,319a7.07,7.07,0,0,0-5-1.68,7.39,7.39,0,0,0-6.21,2.92q-2.25,2.92-2.25,8.32v3a13.79,13.79,0,0,0,2.13,8.11,6.89,6.89,0,0,0,6,3A8,8,0,0,0,99,341.19q1.84-1.56,2.44-5.42Z"/><path class="3050ea1f-c589-4467-af58-8ef68718c2b6" d="M128.58,337.5H115.45l-2.95,8.19h-4.26l12-31.28h3.61l12,31.28h-4.24Zm-11.88-3.37h10.65L122,319.5Z"/><path class="3050ea1f-c589-4467-af58-8ef68718c2b6" d="M140,345.69V314.41h8.84a14.25,14.25,0,0,1,7.23,1.8,12.21,12.21,0,0,1,4.85,5.13,16.69,16.69,0,0,1,1.73,7.65v2a16.75,16.75,0,0,1-1.71,7.76,12,12,0,0,1-4.88,5.11,15.15,15.15,0,0,1-7.39,1.83Zm4.13-27.91v24.54h4.35a9.46,9.46,0,0,0,7.43-3q2.66-3,2.66-8.45v-1.83q0-5.33-2.51-8.29a8.93,8.93,0,0,0-7.11-3Z"/><path class="3050ea1f-c589-4467-af58-8ef68718c2b6" d="M186.62,331.23H173v11.09h15.77v3.37h-19.9V314.41H188.6v3.37H173v10.08h13.58Z"/><path class="3050ea1f-c589-4467-af58-8ef68718c2b6" d="M199.3,314.41l10.24,25.52,10.24-25.52h5.36v31.28H221V333.51l.39-13.15-10.28,25.33h-3.16l-10.26-25.27.41,13.08v12.18H194V314.41Z"/><path class="3050ea1f-c589-4467-af58-8ef68718c2b6" d="M236.86,345.69h-4.13V314.41h4.13Z"/><path class="3050ea1f-c589-4467-af58-8ef68718c2b6" d="M267.45,335.76a11.5,11.5,0,0,1-3.67,7.66,12,12,0,0,1-8.21,2.7,11,11,0,0,1-8.9-4q-3.35-4-3.35-10.63v-3a17.8,17.8,0,0,1,1.56-7.67,11.64,11.64,0,0,1,4.42-5.08,12.32,12.32,0,0,1,6.63-1.77,11.33,11.33,0,0,1,8,2.78,11.64,11.64,0,0,1,3.51,7.7H263.3A9,9,0,0,0,261,319a7.07,7.07,0,0,0-5-1.68,7.39,7.39,0,0,0-6.21,2.92q-2.25,2.92-2.25,8.32v3a13.79,13.79,0,0,0,2.13,8.11,6.89,6.89,0,0,0,6,3,8,8,0,0,0,5.28-1.56q1.84-1.56,2.44-5.42Z"/><path class="3050ea1f-c589-4467-af58-8ef68718c2b6" d="M301.7,331.23H288.13v11.09H303.9v3.37H284V314.41h19.69v3.37H288.13v10.08H301.7Z"/><path class="3050ea1f-c589-4467-af58-8ef68718c2b6" d="M319.26,326.39l7.51-12h4.86l-9.9,15.51,10.13,15.77H327l-7.7-12.2-7.75,12.2h-4.88l10.15-15.77-9.92-15.51h4.84Z"/><path class="3050ea1f-c589-4467-af58-8ef68718c2b6" d="M359.17,335.76a11.5,11.5,0,0,1-3.67,7.66,12,12,0,0,1-8.21,2.7,11,11,0,0,1-8.9-4q-3.35-4-3.35-10.63v-3a17.8,17.8,0,0,1,1.56-7.67,11.64,11.64,0,0,1,4.42-5.08,12.32,12.32,0,0,1,6.63-1.77,11.33,11.33,0,0,1,8,2.78,11.64,11.64,0,0,1,3.51,7.7H355a9,9,0,0,0-2.33-5.43,7.07,7.07,0,0,0-5-1.68,7.39,7.39,0,0,0-6.21,2.92q-2.25,2.92-2.25,8.32v3a13.79,13.79,0,0,0,2.13,8.11,6.89,6.89,0,0,0,6,3,8,8,0,0,0,5.28-1.56q1.84-1.56,2.44-5.42Z"/><path class="3050ea1f-c589-4467-af58-8ef68718c2b6" d="M382.51,331.23H368.94v11.09h15.77v3.37h-19.9V314.41h19.69v3.37H368.94v10.08h13.58Z"/><path class="3050ea1f-c589-4467-af58-8ef68718c2b6" d="M394,342.31h14.85v3.37h-19V314.41H394Z"/><path class="3050ea1f-c589-4467-af58-8ef68718c2b6" d="M417.71,342.31h14.85v3.37h-19V314.41h4.15Z"/><path class="3050ea1f-c589-4467-af58-8ef68718c2b6" d="M455,331.23H441.4v11.09h15.77v3.37h-19.9V314.41H457v3.37H441.4v10.08H455Z"/><path class="3050ea1f-c589-4467-af58-8ef68718c2b6" d="M486.38,345.69h-4.15l-15.77-24.11v24.11h-4.15V314.41h4.15l15.81,24.21V314.41h4.11Z"/><path class="3050ea1f-c589-4467-af58-8ef68718c2b6" d="M516.76,335.76a11.5,11.5,0,0,1-3.67,7.66,12,12,0,0,1-8.21,2.7,11,11,0,0,1-8.9-4q-3.35-4-3.35-10.63v-3a17.8,17.8,0,0,1,1.56-7.67,11.64,11.64,0,0,1,4.42-5.08,12.32,12.32,0,0,1,6.63-1.77,11.33,11.33,0,0,1,8,2.78,11.64,11.64,0,0,1,3.51,7.7h-4.15a9,9,0,0,0-2.33-5.43,7.07,7.07,0,0,0-5-1.68,7.39,7.39,0,0,0-6.21,2.92q-2.25,2.92-2.25,8.32v3a13.79,13.79,0,0,0,2.13,8.11,6.89,6.89,0,0,0,6,3,8,8,0,0,0,5.28-1.56q1.84-1.56,2.44-5.42Z"/><path class="3050ea1f-c589-4467-af58-8ef68718c2b6" d="M540.11,331.23H526.53v11.09H542.3v3.37H522.4V314.41h19.69v3.37H526.53v10.08h13.58Z"/><path class="3050ea1f-c589-4467-af58-8ef68718c2b6" d="M562.48,333.44v12.25h-4.13V314.41H569.9q5.14,0,8.06,2.62a8.88,8.88,0,0,1,2.92,6.94,8.76,8.76,0,0,1-2.85,7q-2.85,2.46-8.17,2.46Zm0-3.37h7.42a7.42,7.42,0,0,0,5.08-1.56,5.7,5.7,0,0,0,1.76-4.51,5.89,5.89,0,0,0-1.76-4.48,7,7,0,0,0-4.84-1.74h-7.66Z"/><path class="3050ea1f-c589-4467-af58-8ef68718c2b6" d="M597.64,333h-7.36v12.65h-4.15V314.41H596.5q5.29,0,8.14,2.41t2.85,7a8.41,8.41,0,0,1-1.58,5.09,9.43,9.43,0,0,1-4.4,3.24l7.36,13.28v.26h-4.43Zm-7.36-3.37h6.35a7.16,7.16,0,0,0,4.89-1.59,5.38,5.38,0,0,0,1.82-4.26,5.67,5.67,0,0,0-1.73-4.46,7.34,7.34,0,0,0-5-1.57h-6.33Z"/><path class="3050ea1f-c589-4467-af58-8ef68718c2b6" d="M637.37,331.06a19.32,19.32,0,0,1-1.55,8,11.72,11.72,0,0,1-4.39,5.23,12.12,12.12,0,0,1-17.63-5.19,18.54,18.54,0,0,1-1.62-7.79v-2.26a19.09,19.09,0,0,1,1.57-8,11.62,11.62,0,0,1,11-7.13,12.16,12.16,0,0,1,6.64,1.82,11.7,11.7,0,0,1,4.42,5.26,19.42,19.42,0,0,1,1.55,8Zm-4.11-2q0-5.56-2.24-8.54a7.38,7.38,0,0,0-6.26-3,7.3,7.3,0,0,0-6.16,3q-2.25,3-2.31,8.26v2.3q0,5.39,2.27,8.48a8,8,0,0,0,12.45.17q2.19-2.91,2.26-8.35Z"/><path class="3050ea1f-c589-4467-af58-8ef68718c2b6" d="M666.7,341.58a9.54,9.54,0,0,1-4.44,3.41,18,18,0,0,1-6.64,1.13,12.88,12.88,0,0,1-6.8-1.79,12,12,0,0,1-4.59-5.1,17.59,17.59,0,0,1-1.67-7.67v-2.73q0-7.07,3.3-11t9.28-3.89a11.9,11.9,0,0,1,7.9,2.5,10.9,10.9,0,0,1,3.66,7.1h-4.13q-1.16-6.23-7.4-6.23a7.32,7.32,0,0,0-6.29,2.91q-2.14,2.91-2.16,8.44v2.56q0,5.27,2.41,8.38a7.81,7.81,0,0,0,6.52,3.11,14.39,14.39,0,0,0,4.07-.51,6.3,6.3,0,0,0,2.88-1.74v-7h-7.25v-3.37H666.7Z"/><path class="3050ea1f-c589-4467-af58-8ef68718c2b6" d="M685.07,333h-7.36v12.65h-4.15V314.41h10.37q5.29,0,8.14,2.41t2.85,7a8.41,8.41,0,0,1-1.58,5.09,9.43,9.43,0,0,1-4.4,3.24l7.36,13.28v.26h-4.43Zm-7.36-3.37h6.35a7.16,7.16,0,0,0,4.89-1.59,5.38,5.38,0,0,0,1.82-4.26,5.67,5.67,0,0,0-1.73-4.46,7.34,7.34,0,0,0-5-1.57h-6.33Z"/><path class="3050ea1f-c589-4467-af58-8ef68718c2b6" d="M718,337.5H704.89l-2.95,8.19h-4.26l12-31.28h3.61l12,31.28H721Zm-11.88-3.37h10.65l-5.34-14.63Z"/><path class="3050ea1f-c589-4467-af58-8ef68718c2b6" d="M734.79,314.41,745,339.93l10.24-25.52h5.36v31.28H756.5V333.51l.39-13.15L746.6,345.69h-3.16l-10.26-25.27.41,13.08v12.18h-4.13V314.41Z"/><path class="3050ea1f-c589-4467-af58-8ef68718c2b6" d="M773.26,314.41l10.24,25.52,10.24-25.52h5.36v31.28H795V333.51l.39-13.15-10.28,25.33h-3.16l-10.26-25.27.41,13.08v12.18h-4.13V314.41Z"/><path class="3050ea1f-c589-4467-af58-8ef68718c2b6" d="M824.1,331.23H810.52v11.09h15.77v3.37h-19.9V314.41h19.69v3.37H810.52v10.08H824.1Z"/><path class="7a7bf8bf-f48d-4239-bd4f-037392084c7a" d="M66.22,378.39a11,11,0,0,1-.88,4.56,6.65,6.65,0,0,1-2.49,3,6.88,6.88,0,0,1-10-2.95,10.54,10.54,0,0,1-.92-4.42v-1.28a10.85,10.85,0,0,1,.89-4.53,6.6,6.6,0,0,1,6.26-4.05,6.91,6.91,0,0,1,3.77,1,6.65,6.65,0,0,1,2.51,3,11,11,0,0,1,.88,4.56Zm-2.33-1.15a8,8,0,0,0-1.27-4.85,4.2,4.2,0,0,0-3.56-1.69,4.15,4.15,0,0,0-3.5,1.69,7.8,7.8,0,0,0-1.31,4.69v1.31a8,8,0,0,0,1.29,4.82,4.52,4.52,0,0,0,7.07.1,7.93,7.93,0,0,0,1.28-4.74Z"/><path class="7a7bf8bf-f48d-4239-bd4f-037392084c7a" d="M83.42,386.7H81.06l-9-13.7v13.7H69.74V368.93H72.1l9,13.76V368.93h2.33Z"/><path class="7a7bf8bf-f48d-4239-bd4f-037392084c7a" d="M89.94,384.78h8.43v1.92H87.58V368.93h2.36Z"/><path class="7a7bf8bf-f48d-4239-bd4f-037392084c7a" d="M103.57,386.7h-2.35V368.93h2.35Z"/><path class="7a7bf8bf-f48d-4239-bd4f-037392084c7a" d="M121.54,386.7h-2.36l-9-13.7v13.7h-2.36V368.93h2.36l9,13.76V368.93h2.33Z"/><path class="7a7bf8bf-f48d-4239-bd4f-037392084c7a" d="M135.77,378.48h-7.71v6.3h9v1.92H125.71V368.93H136.9v1.92h-8.84v5.73h7.71Z"/><path class="7a7bf8bf-f48d-4239-bd4f-037392084c7a" d="M148.48,379.74v7h-2.35V368.93h6.56a6.6,6.6,0,0,1,4.58,1.49,5,5,0,0,1,1.66,3.94,5,5,0,0,1-1.62,4,6.9,6.9,0,0,1-4.64,1.4Zm0-1.92h4.22a4.22,4.22,0,0,0,2.88-.89,3.24,3.24,0,0,0,1-2.56,3.35,3.35,0,0,0-1-2.54,4,4,0,0,0-2.75-1h-4.35Z"/><path class="7a7bf8bf-f48d-4239-bd4f-037392084c7a" d="M164.29,384.78h8.43v1.92H161.93V368.93h2.36Z"/><path class="7a7bf8bf-f48d-4239-bd4f-037392084c7a" d="M185.46,382H178l-1.67,4.65h-2.42l6.8-17.77h2.05l6.81,17.77h-2.41Zm-6.75-1.92h6.05l-3-8.31Z"/><path class="7a7bf8bf-f48d-4239-bd4f-037392084c7a" d="M202.69,370.84H197V386.7h-2.33V370.84h-5.71v-1.92h13.76Z"/><path class="7a7bf8bf-f48d-4239-bd4f-037392084c7a" d="M215.14,378.85h-7.47v7.85h-2.35V368.93h11v1.92h-8.68v6.09h7.47Z"/><path class="7a7bf8bf-f48d-4239-bd4f-037392084c7a" d="M232.85,378.39a11,11,0,0,1-.88,4.56,6.65,6.65,0,0,1-2.49,3,6.88,6.88,0,0,1-10-2.95,10.54,10.54,0,0,1-.92-4.42v-1.28a10.85,10.85,0,0,1,.89-4.53,6.6,6.6,0,0,1,6.26-4.05,6.91,6.91,0,0,1,3.77,1,6.65,6.65,0,0,1,2.51,3,11,11,0,0,1,.88,4.56Zm-2.33-1.15a8,8,0,0,0-1.27-4.85,4.2,4.2,0,0,0-3.56-1.69,4.15,4.15,0,0,0-3.5,1.69,7.8,7.8,0,0,0-1.31,4.69v1.31a8,8,0,0,0,1.29,4.82,4.52,4.52,0,0,0,7.07.1,7.93,7.93,0,0,0,1.28-4.74Z"/><path class="7a7bf8bf-f48d-4239-bd4f-037392084c7a" d="M242.9,379.51h-4.18v7.19h-2.36V368.93h5.89a7,7,0,0,1,4.63,1.37,4.91,4.91,0,0,1,1.62,4,4.79,4.79,0,0,1-.9,2.89,5.37,5.37,0,0,1-2.5,1.84l4.18,7.54v.15h-2.52Zm-4.18-1.92h3.61a4.07,4.07,0,0,0,2.78-.91,3.06,3.06,0,0,0,1-2.42,3.22,3.22,0,0,0-1-2.53,4.18,4.18,0,0,0-2.84-.89h-3.59Z"/><path class="7a7bf8bf-f48d-4239-bd4f-037392084c7a" d="M254.82,368.93l5.82,14.5,5.82-14.5h3V386.7h-2.35v-6.92l.22-7.47-5.84,14.39h-1.8l-5.83-14.36.23,7.43v6.92h-2.35V368.93Z"/><path class="7a7bf8bf-f48d-4239-bd4f-037392084c7a" d="M289.66,378.85h-7.47v7.85h-2.35V368.93h11v1.92h-8.68v6.09h7.47Z"/><path class="7a7bf8bf-f48d-4239-bd4f-037392084c7a" d="M307.37,378.39a11,11,0,0,1-.88,4.56,6.65,6.65,0,0,1-2.49,3A6.88,6.88,0,0,1,294,383a10.54,10.54,0,0,1-.92-4.42v-1.28a10.85,10.85,0,0,1,.89-4.53,6.6,6.6,0,0,1,6.26-4.05,6.91,6.91,0,0,1,3.77,1,6.65,6.65,0,0,1,2.51,3,11,11,0,0,1,.88,4.56ZM305,377.24a8,8,0,0,0-1.27-4.85,4.2,4.2,0,0,0-3.56-1.69,4.15,4.15,0,0,0-3.5,1.69,7.8,7.8,0,0,0-1.31,4.69v1.31a8,8,0,0,0,1.29,4.82,4.52,4.52,0,0,0,7.07.1,7.93,7.93,0,0,0,1.28-4.74Z"/><path class="7a7bf8bf-f48d-4239-bd4f-037392084c7a" d="M317.42,379.51h-4.18v7.19h-2.36V368.93h5.89a7,7,0,0,1,4.63,1.37,4.91,4.91,0,0,1,1.62,4,4.79,4.79,0,0,1-.9,2.89,5.37,5.37,0,0,1-2.5,1.84l4.18,7.54v.15h-2.52Zm-4.18-1.92h3.61a4.07,4.07,0,0,0,2.78-.91,3.06,3.06,0,0,0,1-2.42,3.22,3.22,0,0,0-1-2.53,4.18,4.18,0,0,0-2.84-.89h-3.59Z"/><path class="7a7bf8bf-f48d-4239-bd4f-037392084c7a" d="M345.6,381.06a6.53,6.53,0,0,1-2.08,4.35,6.84,6.84,0,0,1-4.66,1.53,6.28,6.28,0,0,1-5.05-2.26,9.08,9.08,0,0,1-1.9-6v-1.71a10.11,10.11,0,0,1,.89-4.36,6.61,6.61,0,0,1,2.51-2.89,7,7,0,0,1,3.77-1,6.44,6.44,0,0,1,4.55,1.58,6.61,6.61,0,0,1,2,4.38h-2.36a5.11,5.11,0,0,0-1.33-3.09,4,4,0,0,0-2.85-1,4.2,4.2,0,0,0-3.53,1.66,7.62,7.62,0,0,0-1.28,4.73v1.72a7.83,7.83,0,0,0,1.21,4.61,3.91,3.91,0,0,0,3.39,1.71,4.52,4.52,0,0,0,3-.89,4.91,4.91,0,0,0,1.39-3.08Z"/><path class="7a7bf8bf-f48d-4239-bd4f-037392084c7a" d="M362.49,378.39a11,11,0,0,1-.88,4.56,6.65,6.65,0,0,1-2.49,3,6.88,6.88,0,0,1-10-2.95,10.54,10.54,0,0,1-.92-4.42v-1.28a10.85,10.85,0,0,1,.89-4.53,6.6,6.6,0,0,1,6.26-4.05,6.91,6.91,0,0,1,3.77,1,6.65,6.65,0,0,1,2.51,3,11,11,0,0,1,.88,4.56Zm-2.33-1.15a8,8,0,0,0-1.27-4.85,4.2,4.2,0,0,0-3.56-1.69,4.15,4.15,0,0,0-3.5,1.69,7.8,7.8,0,0,0-1.31,4.69v1.31a8,8,0,0,0,1.29,4.82,4.52,4.52,0,0,0,7.07.1,7.93,7.93,0,0,0,1.28-4.74Z"/><path class="7a7bf8bf-f48d-4239-bd4f-037392084c7a" d="M368.37,384.78h8.43v1.92H366V368.93h2.36Z"/><path class="7a7bf8bf-f48d-4239-bd4f-037392084c7a" d="M381.84,384.78h8.43v1.92H379.48V368.93h2.36Z"/><path class="7a7bf8bf-f48d-4239-bd4f-037392084c7a" d="M403,378.48H395.3v6.3h9v1.92H393V368.93h11.19v1.92H395.3v5.73H403Z"/><path class="7a7bf8bf-f48d-4239-bd4f-037392084c7a" d="M420.32,384.37a5.42,5.42,0,0,1-2.52,1.94,10.22,10.22,0,0,1-3.77.64,7.32,7.32,0,0,1-3.86-1,6.79,6.79,0,0,1-2.61-2.9,10,10,0,0,1-.95-4.36v-1.55a9.34,9.34,0,0,1,1.88-6.23,6.54,6.54,0,0,1,5.27-2.21,6.76,6.76,0,0,1,4.49,1.42,6.2,6.2,0,0,1,2.08,4H418a3.88,3.88,0,0,0-4.21-3.54,4.16,4.16,0,0,0-3.58,1.66A8.07,8.07,0,0,0,409,377v1.45a7.57,7.57,0,0,0,1.37,4.76A4.44,4.44,0,0,0,414,385a8.17,8.17,0,0,0,2.31-.29,3.57,3.57,0,0,0,1.64-1v-4h-4.12v-1.92h6.45Z"/><path class="7a7bf8bf-f48d-4239-bd4f-037392084c7a" d="M434.3,378.48h-7.71v6.3h9v1.92H424.24V368.93h11.19v1.92h-8.84v5.73h7.71Z"/><path class="7a7bf8bf-f48d-4239-bd4f-037392084c7a" d="M449.91,378.78a11,11,0,0,1-4.39-2.13,4.07,4.07,0,0,1-1.38-3.12,4.3,4.3,0,0,1,1.68-3.47,6.69,6.69,0,0,1,4.37-1.37,7.31,7.31,0,0,1,3.27.71,5.37,5.37,0,0,1,2.22,2,5,5,0,0,1,.79,2.72h-2.36a3.25,3.25,0,0,0-1-2.54,4.18,4.18,0,0,0-2.9-.93,4.28,4.28,0,0,0-2.71.76,2.55,2.55,0,0,0-1,2.12,2.29,2.29,0,0,0,.92,1.84,9.05,9.05,0,0,0,3.14,1.38,14.57,14.57,0,0,1,3.47,1.38,5.27,5.27,0,0,1,1.86,1.75,4.47,4.47,0,0,1,.6,2.36,4.15,4.15,0,0,1-1.69,3.46,7.2,7.2,0,0,1-4.51,1.3,8.38,8.38,0,0,1-3.42-.7,5.75,5.75,0,0,1-2.45-1.92,4.68,4.68,0,0,1-.86-2.77h2.36a3.06,3.06,0,0,0,1.19,2.54,5,5,0,0,0,3.18.93,4.62,4.62,0,0,0,2.85-.76,2.45,2.45,0,0,0,1-2.06,2.41,2.41,0,0,0-.92-2A10.56,10.56,0,0,0,449.91,378.78Z"/><path class="7a7bf8bf-f48d-4239-bd4f-037392084c7a" d="M471.81,370.84h-5.72V386.7h-2.33V370.84H458v-1.92h13.76Z"/><path class="7a7bf8bf-f48d-4239-bd4f-037392084c7a" d="M487,368.93V381a5.67,5.67,0,0,1-1.58,4.11,6.39,6.39,0,0,1-4.26,1.79l-.62,0a6.67,6.67,0,0,1-4.66-1.57A5.63,5.63,0,0,1,474.1,381V368.93h2.32v12a3.71,3.71,0,0,0,4.09,4.07,4.12,4.12,0,0,0,3.05-1.06,4.06,4.06,0,0,0,1.06-3v-12Z"/><path class="7a7bf8bf-f48d-4239-bd4f-037392084c7a" d="M490.69,386.7V368.93h5a8.1,8.1,0,0,1,4.11,1,6.93,6.93,0,0,1,2.76,2.92,9.48,9.48,0,0,1,1,4.35v1.13a9.51,9.51,0,0,1-1,4.41,6.83,6.83,0,0,1-2.77,2.91,8.62,8.62,0,0,1-4.2,1ZM493,370.84v13.94h2.47a5.38,5.38,0,0,0,4.22-1.69,7,7,0,0,0,1.51-4.8v-1a7.07,7.07,0,0,0-1.42-4.71,5.07,5.07,0,0,0-4-1.71Z"/><path class="7a7bf8bf-f48d-4239-bd4f-037392084c7a" d="M517.16,378.48h-7.71v6.3h9v1.92H507.1V368.93h11.19v1.92h-8.84v5.73h7.71Z"/><path class="7a7bf8bf-f48d-4239-bd4f-037392084c7a" d="M535,386.7h-2.36l-9-13.7v13.7h-2.36V368.93h2.36l9,13.76V368.93H535Z"/><path class="7a7bf8bf-f48d-4239-bd4f-037392084c7a" d="M551.12,370.84H545.4V386.7h-2.33V370.84h-5.71v-1.92h13.76Z"/><path class="7a7bf8bf-f48d-4239-bd4f-037392084c7a" d="M558.81,378.78a11,11,0,0,1-4.39-2.13,4.07,4.07,0,0,1-1.38-3.12,4.3,4.3,0,0,1,1.68-3.47,6.69,6.69,0,0,1,4.37-1.37,7.31,7.31,0,0,1,3.27.71,5.37,5.37,0,0,1,2.22,2,5,5,0,0,1,.79,2.72H563a3.25,3.25,0,0,0-1-2.54,4.18,4.18,0,0,0-2.9-.93,4.28,4.28,0,0,0-2.71.76,2.55,2.55,0,0,0-1,2.12,2.29,2.29,0,0,0,.92,1.84,9.05,9.05,0,0,0,3.14,1.38,14.57,14.57,0,0,1,3.47,1.38,5.27,5.27,0,0,1,1.86,1.75,4.47,4.47,0,0,1,.6,2.36,4.15,4.15,0,0,1-1.69,3.46,7.2,7.2,0,0,1-4.51,1.3,8.38,8.38,0,0,1-3.42-.7,5.75,5.75,0,0,1-2.45-1.92,4.68,4.68,0,0,1-.86-2.77h2.36a3.06,3.06,0,0,0,1.19,2.54,5,5,0,0,0,3.18.93,4.62,4.62,0,0,0,2.85-.76,2.45,2.45,0,0,0,1-2.06,2.41,2.41,0,0,0-.92-2A10.56,10.56,0,0,0,558.81,378.78Z"/><path class="7a7bf8bf-f48d-4239-bd4f-037392084c7a" d="M584.44,382H577l-1.67,4.65h-2.42l6.8-17.77h2.05l6.81,17.77h-2.41Zm-6.75-1.92h6.05l-3-8.31Z"/><path class="7a7bf8bf-f48d-4239-bd4f-037392084c7a" d="M604.63,386.7h-2.36l-9-13.7v13.7h-2.36V368.93h2.36l9,13.76V368.93h2.33Z"/><path class="7a7bf8bf-f48d-4239-bd4f-037392084c7a" d="M608.8,386.7V368.93h5a8.1,8.1,0,0,1,4.11,1,6.93,6.93,0,0,1,2.76,2.92,9.48,9.48,0,0,1,1,4.35v1.13a9.51,9.51,0,0,1-1,4.41,6.83,6.83,0,0,1-2.77,2.91,8.62,8.62,0,0,1-4.2,1Zm2.35-15.86v13.94h2.47a5.38,5.38,0,0,0,4.22-1.69,7,7,0,0,0,1.51-4.8v-1a7.07,7.07,0,0,0-1.42-4.71,5.07,5.07,0,0,0-4-1.71Z"/><path class="7a7bf8bf-f48d-4239-bd4f-037392084c7a" d="M643.22,370.84H637.5V386.7h-2.33V370.84h-5.71v-1.92h13.76Z"/><path class="7a7bf8bf-f48d-4239-bd4f-037392084c7a" d="M655.92,378.48h-7.71v6.3h9v1.92H645.86V368.93H657v1.92h-8.84v5.73h7.71Z"/><path class="7a7bf8bf-f48d-4239-bd4f-037392084c7a" d="M669.92,382h-7.46l-1.67,4.65h-2.42l6.8-17.77h2.05L674,386.7h-2.41Zm-6.75-1.92h6.05l-3-8.31Z"/><path class="7a7bf8bf-f48d-4239-bd4f-037392084c7a" d="M689.38,381.06a6.53,6.53,0,0,1-2.08,4.35,6.84,6.84,0,0,1-4.66,1.53,6.28,6.28,0,0,1-5.05-2.26,9.08,9.08,0,0,1-1.9-6v-1.71a10.11,10.11,0,0,1,.89-4.36,6.61,6.61,0,0,1,2.51-2.89,7,7,0,0,1,3.77-1,6.44,6.44,0,0,1,4.55,1.58,6.61,6.61,0,0,1,2,4.38H687a5.11,5.11,0,0,0-1.33-3.09,4,4,0,0,0-2.85-1,4.2,4.2,0,0,0-3.53,1.66A7.62,7.62,0,0,0,678,377v1.72a7.83,7.83,0,0,0,1.21,4.61,3.91,3.91,0,0,0,3.39,1.71,4.52,4.52,0,0,0,3-.89,4.91,4.91,0,0,0,1.39-3.08Z"/><path class="7a7bf8bf-f48d-4239-bd4f-037392084c7a" d="M706.26,386.7H703.9v-8.21h-9v8.21h-2.35V368.93h2.35v7.64h9v-7.64h2.36Z"/><path class="7a7bf8bf-f48d-4239-bd4f-037392084c7a" d="M720.49,378.48h-7.71v6.3h9v1.92H710.43V368.93h11.19v1.92h-8.84v5.73h7.71Z"/><path class="7a7bf8bf-f48d-4239-bd4f-037392084c7a" d="M731.18,379.51H727v7.19h-2.36V368.93h5.89a7,7,0,0,1,4.63,1.37,4.91,4.91,0,0,1,1.62,4,4.79,4.79,0,0,1-.9,2.89,5.37,5.37,0,0,1-2.5,1.84l4.18,7.54v.15H735ZM727,377.59h3.61a4.07,4.07,0,0,0,2.78-.91,3.06,3.06,0,0,0,1-2.42,3.22,3.22,0,0,0-1-2.53,4.18,4.18,0,0,0-2.84-.89H727Z"/><path class="7a7bf8bf-f48d-4239-bd4f-037392084c7a" d="M745.31,378.78a11,11,0,0,1-4.39-2.13,4.07,4.07,0,0,1-1.38-3.12,4.3,4.3,0,0,1,1.68-3.47,6.69,6.69,0,0,1,4.37-1.37,7.31,7.31,0,0,1,3.27.71,5.37,5.37,0,0,1,2.22,2,5,5,0,0,1,.79,2.72h-2.36a3.25,3.25,0,0,0-1-2.54,4.18,4.18,0,0,0-2.9-.93,4.28,4.28,0,0,0-2.71.76,2.55,2.55,0,0,0-1,2.12,2.29,2.29,0,0,0,.92,1.84A9.05,9.05,0,0,0,746,376.7a14.57,14.57,0,0,1,3.47,1.38,5.27,5.27,0,0,1,1.86,1.75,4.47,4.47,0,0,1,.6,2.36,4.15,4.15,0,0,1-1.69,3.46,7.2,7.2,0,0,1-4.51,1.3,8.38,8.38,0,0,1-3.42-.7,5.75,5.75,0,0,1-2.45-1.92,4.68,4.68,0,0,1-.86-2.77h2.36a3.06,3.06,0,0,0,1.19,2.54,5,5,0,0,0,3.18.93,4.62,4.62,0,0,0,2.85-.76,2.45,2.45,0,0,0,1-2.06,2.41,2.41,0,0,0-.92-2A10.56,10.56,0,0,0,745.31,378.78Z"/><path id="a2176a9b-4920-4bda-80d7-deb401e62fb3" data-name="path6840" class="242e7330-ba17-4119-92a2-a36ddbb606f8" d="M1358.9,138.54c.59,44-42.77,98-61.08,99.53,0,0-5.57,8.2-8.35,8.28-4.25.15-33.32,2.12-46.95,1-7.69-.59-21.17-.07-24.31-1.17-10.69-3.66-4.47-6.23-8.28-8.06-40.87-19.55-63.94-55.81-63.94-99.6,0-60.13,47.68-108.83,106.49-108.83S1358,78.85,1358.9,138.54Z"/><ellipse id="cd11c0a1-2f65-4e42-907c-4981e7d7bf22" data-name="path6843" class="16b4c119-8c98-4b05-a767-852b88a41e96" cx="1250.95" cy="139.78" rx="86.35" ry="87.96"/><ellipse id="12f59b73-ab50-4f45-9779-9adf49155050" data-name="path6843-7" class="8b3418c0-9160-4dd7-bf62-31ef91f99f95" cx="1249.34" cy="150.99" rx="64.3" ry="63.79"/><g class="2dc88e3b-5d66-4e49-8436-9b7d6039a7e4"><ellipse class="42fd9827-1391-486a-a563-4b60931c9b71" cx="1256.85" cy="469.18" rx="50.36" ry="8.82"/></g><path id="a51f6050-b9ed-4dbb-bf9b-e5e5c0d33067" data-name="path6782" class="a65bd7a2-8d07-4c39-8896-7fc36dc4e460" d="M1211,389.23l10.33,79.9s42.33,3.88,70.31,0c.44-.22,10.33-79.9,10.33-79.9C1271.6,392.82,1241.28,393.48,1211,389.23Z"/><path id="d7267dad-2544-46a0-a9e6-8835448e3bbe" data-name="path6784" class="a65bd7a2-8d07-4c39-8896-7fc36dc4e460" d="M1198.88,372.6c0,4.69,1.68,13.92,1.68,23.88,38.74,4.17,71.77,4.61,108.54.22,0,0,3.52-20.65,3.52-24.1S1198.88,367.84,1198.88,372.6Z"/><path id="c792b134-df5b-44fc-a41b-213f16347bc6" data-name="path6788" class="346515f3-d0e7-4c9d-9678-ad8a486ec913" d="M1209.5,373.77c30.1-3.22,60.42-2.93,91-.22v1a715.06,715.06,0,0,1-92.06,0v-1.1Z"/><path id="9f2421e0-3699-4f0f-9904-9c2274c1e0e8" data-name="path6790" class="a65bd7a2-8d07-4c39-8896-7fc36dc4e460" d="M1250.58,301.86v71.77h7.76V302.22h-7.76Z"/><path id="e4ffcbdc-f679-4831-ba8b-8354eebd0faa" data-name="path6792" class="1c1e391b-715e-4f6b-9b69-46e5d60e9529" d="M1163.72,296c12,12,6.3,6.52,12,12s16.77,14.65,19.63,17.28,16,11.5,19.33,12.52,13.84,1.54,18,2.12,6.52.29,10.18-1.83,8.13-1.54,7.84-7.84.81,2.12-.29-6.3,1-3.15-1-8.35-.51-1.83-2.12-5.2-6.3-5.49-13.33-9.15-9.67-3.66-19.12-4.69a196.66,196.66,0,0,0-22.48-1c-5.49,0-16.77.29-19.33.29s-9.3.15-9.3.15Z"/><path id="1c79f698-4166-4397-8910-cfb7f54c1aa9" data-name="path6794" class="42d68130-7e43-4e6a-b27f-4a7159662b4f" d="M1258.2,315.92c8.64-9.45,5.2-6,8.64-9.45s9.15-7.62,14.35-8.64,9.67-2.34,19.12-2.86,22.78-.29,27.76-.51,16.77-.29,16,1a63.15,63.15,0,0,1-6.81,7.62c-3.15,3.15-9.67,8.64-11.28,10.69s-6.52,6.3-9.67,9.67-10.18,9.45-12,9.45-11,6.52-14.13,6.52-10.69,1.32-14.35,1.32-7,.29-10-1.54-6.81-3.66-6.81-5.79S1258.2,315.92,1258.2,315.92Z"/><path id="82f2cb85-4982-482b-a450-422766091aa4" data-name="path6796" class="0d10f27b-3c22-44a7-8771-7211cb61d5d8" d="M1258.42,325.58c37.94-27.17,60.42-22.48,60.42-22.48"/><path id="6886b1b4-23eb-48a9-b53b-393ab7de0a92" data-name="path6798" class="935e1366-e7e7-4dbc-94b6-0e52a0ec3cab" d="M1249.56,325.88C1212.43,295.56,1192,303.1,1192,303.1"/><path id="59edf80a-088f-4342-8027-f1f345ef2114" data-name="path6800" class="d05ea0bf-71b7-43b7-8ffb-918119953428" d="M1217.63,246.85c2.86,10.18,5,18.6,6,22s3.15,6.81,5,12,3.66,12.52,5.2,12.52,41.31.51,41.31.29,4.17-17.28,5-19.85,11.28-27.17,7.84-27.46-71.85-.22-70.31.51Z"/><path id="5efb7ada-4a0b-41af-9db6-75d577fa000a" data-name="path6802" class="657fba29-5ef9-452f-8033-98665b6e7584" d="M1234.11,293.95c39.77.29,41.09-1.54,39.77.29s-2.12,3.37-6.52,5.2-5.2,1.83-9.67,1.83-7.32.51-10.69,0a23.4,23.4,0,0,1-8.35-3.15,31.18,31.18,0,0,1-4.54-4.17Z"/><path id="7c9c5d2c-955f-48cf-ab38-e5afee92ecba" data-name="rect6804" class="eadcaeb6-068c-440c-8861-fb36728f4cb2" d="M1226.12,281.64h57.05a3,3,0,0,1,3,3h0a3,3,0,0,1-3,3h-57.05a3,3,0,0,1-3-3h0A3,3,0,0,1,1226.12,281.64Z"/><path id="3fa16e52-0ded-497c-afb4-c61a6a1e4b2f" data-name="rect6804-5" class="c4b11cb6-01a7-4a83-b328-996cc24a6993" d="M1221.95,269h63.28a3,3,0,0,1,3,3h0a3,3,0,0,1-3,3h-63.28a3,3,0,0,1-3-3h0A3,3,0,0,1,1221.95,269Z"/><path id="12e9c09c-a9a7-4751-bcfc-ede187675466" data-name="rect6804-4" class="fda7d7a4-7d19-4138-92ee-d9dbc09bb41b" d="M1217.92,256.81h69.58a3,3,0,0,1,3,3h0a3,3,0,0,1-3,3h-69.58a3,3,0,0,1-3-3h0A3,3,0,0,1,1217.92,256.81Z"/><path id="b22c81e7-5ab3-4d60-b3e9-f3db6fa9b247" data-name="path6833" class="da796a23-ace7-4b85-a079-402ad130f0e0" d="M1285.66,232.28l34.06-83.56-18.53-9.59-3.74,7.4-5.2,5.93h0"/><path id="a8cf3c76-0038-48fc-892e-a58727a3f74d" data-name="path6831" class="ba71910a-95aa-4667-8ed7-911e8a86dba5" d="M1220.63,233.74l-35.52-79.9L1207.3,142"/><g class="1fd7290e-4495-407e-bb1b-47697707addc"><path class="91b0d851-e48a-47ed-867e-e8243d8e1af0" d="M1213.05,124.28a2.23,2.23,0,0,1,.6-1.58,2.32,2.32,0,0,1,1.78-.65,2.35,2.35,0,0,1,1.79.65,2.21,2.21,0,0,1,.61,1.58,2.14,2.14,0,0,1-.61,1.56,2.4,2.4,0,0,1-1.79.62,2.36,2.36,0,0,1-1.78-.62A2.16,2.16,0,0,1,1213.05,124.28Zm4.37,28.48h-4V130.25h4Z"/><path class="91b0d851-e48a-47ed-867e-e8243d8e1af0" d="M1222.9,141.32a12.75,12.75,0,0,1,2.58-8.33,8.3,8.3,0,0,1,6.75-3.15,8.38,8.38,0,0,1,6.57,2.7V120.81h4v32h-3.71l-.2-2.41a8.41,8.41,0,0,1-6.75,2.83,8.21,8.21,0,0,1-6.69-3.2,12.9,12.9,0,0,1-2.59-8.36Zm4,.44a9.63,9.63,0,0,0,1.66,6,5.46,5.46,0,0,0,4.59,2.16,5.93,5.93,0,0,0,5.61-3.29V136.29a6,6,0,0,0-5.57-3.18,5.48,5.48,0,0,0-4.63,2.18Q1226.94,137.47,1226.94,141.76Z"/><path class="91b0d851-e48a-47ed-867e-e8243d8e1af0" d="M1258.91,153.18a10.59,10.59,0,0,1-7.82-3,10.85,10.85,0,0,1-3-8v-.71a13,13,0,0,1,1.34-6,10.15,10.15,0,0,1,3.76-4.12,9.79,9.79,0,0,1,5.23-1.49,9.06,9.06,0,0,1,7.16,2.89q2.55,2.89,2.55,8.28v1.6h-16a7.78,7.78,0,0,0,2,5.38,6.57,6.57,0,0,0,5,2,7.32,7.32,0,0,0,3.63-.83,9,9,0,0,0,2.6-2.21l2.47,1.83Q1264.85,153.18,1258.91,153.18Zm-.5-20.18a5.52,5.52,0,0,0-4.11,1.7,8,8,0,0,0-2.05,4.75h11.84v-.29a7.12,7.12,0,0,0-1.66-4.55A5.2,5.2,0,0,0,1258.41,133Z"/><path class="91b0d851-e48a-47ed-867e-e8243d8e1af0" d="M1287.38,152.76a7.73,7.73,0,0,1-.57-2.37,9.23,9.23,0,0,1-6.73,2.79,8.6,8.6,0,0,1-5.73-1.88,6,6,0,0,1-2.24-4.77,6.27,6.27,0,0,1,2.81-5.46q2.81-1.94,7.89-1.94h3.93v-1.77a4.21,4.21,0,0,0-1.27-3.21,5.25,5.25,0,0,0-3.73-1.2,6.1,6.1,0,0,0-3.62,1,3,3,0,0,0-1.46,2.52h-4.06a5.16,5.16,0,0,1,1.26-3.26,8.54,8.54,0,0,1,3.41-2.49,12,12,0,0,1,4.73-.92,9.65,9.65,0,0,1,6.4,1.94,6.87,6.87,0,0,1,2.4,5.36V147.5a12.12,12.12,0,0,0,.83,4.93v.33Zm-6.7-2.93a7.37,7.37,0,0,0,3.6-.94,5.79,5.79,0,0,0,2.47-2.43v-4.62h-3.17q-7.43,0-7.42,4.14a3.43,3.43,0,0,0,1.27,2.83A5,5,0,0,0,1280.68,149.83Z"/></g><line class="ba71910a-95aa-4667-8ed7-911e8a86dba5" x1="1214.48" y1="152.74" x2="1206.13" y2="142.05"/></g></g></svg>