<svg xmlns="http://www.w3.org/2000/svg" viewBox="0 0 1600 650"><defs><style>.\36 2a2dade-ef50-4711-9d66-982221490801{fill:#7dce82;}.\36 2a2dade-ef50-4711-9d66-982221490801,.a7818ec2-b6e1-45a9-96f2-5f13ef928038{fill-opacity:0.81;}.ac4f417a-43ed-4ab8-ab32-b6fc1e536701{fill:#efe3df;}.\30 561c41d-7406-4deb-b7ca-7546b9439dac,.\31 d238264-4ac0-4837-8add-e208f68a10e0,.\31 dbeb024-9b92-4072-ab43-fdf9896ca302,.\32 5e646e6-9137-4cce-9ec1-6a665be6099f,.\32 b5b524f-182d-41e5-9fd4-712ce28eeabf,.\32 f0503d9-bd06-44e0-bc12-0b011af4c49f,.\33 26f0c91-d1cf-448b-9d06-28a0b58501b7,.\33 73d0f56-8e18-4c07-84e4-d5bb13bd69f4,.\33 b325fd2-1845-475c-8f3a-4ce2f0e58572,.\35 38b1c88-4268-43b4-b38d-70c6b272625d,.\35 7c1dea8-b0de-4383-a456-5a335fa90c54,.\35 a729c73-d6d6-4ba2-b83a-01dfeafe4330,.\35 f8b86fc-615a-46cb-8600-dcbc4f0c5929,.\36 f99d628-2c18-459b-a103-3da066f58bd0,.\38 2adaf54-f3c0-4b77-831f-8c793c2cee9b,.\38 966f3bc-bf9c-4a1e-a7bf-f9dcdf30b968,.\38 f815e20-8726-46d4-96ae-9d36c2a9db19,.\39 04e7f97-3a0e-4e5b-a6cf-b7e8e4b2c624,.\39 2d75d88-6340-4ff2-89e2-11d5877bcfbc,.\39 4032b4c-5de5-4f59-8264-77f0d588b2b4,.\39 9ee216b-918d-4ac2-8567-d1b87988ab03,.ac4f417a-43ed-4ab8-ab32-b6fc1e536701,.b0948a7c-915f-47fb-910e-c8433a7e0e47,.b854dccf-8350-472c-aeb0-ff80fd0a4714,.ba2776d0-d4a3-4868-a4e8-f4aa41135d7f,.bc07fb36-c69c-497c-aa93-025c37305c82,.c7da8777-44cd-4069-933b-3c41272b03cd,.c802b4eb-b033-45d5-a5ed-4f29156cb07a,.d3674630-9788-424f-bdee-7571fbf869d0,.d4540870-eb71-4a43-b718-8c3d7606bf6f,.d4b23d73-f88c-4768-955d-5fa4cc1b6e84,.e03e7643-efbf-4f11-a4d4-5f75060dac58,.e4bd40dc-c565-420b-8970-53360506dc80,.e4d4d055-3d39-4750-a856-d91fa9dc85c9,.fe03d0a4-f9ff-418a-8a09-88ed19008f14{stroke:#000;}.\30 561c41d-7406-4deb-b7ca-7546b9439dac,.\31 d238264-4ac0-4837-8add-e208f68a10e0,.\31 dbeb024-9b92-4072-ab43-fdf9896ca302,.\32 5e646e6-9137-4cce-9ec1-6a665be6099f,.\32 b5b524f-182d-41e5-9fd4-712ce28eeabf,.\33 26f0c91-d1cf-448b-9d06-28a0b58501b7,.\33 73d0f56-8e18-4c07-84e4-d5bb13bd69f4,.\33 b325fd2-1845-475c-8f3a-4ce2f0e58572,.\35 7c1dea8-b0de-4383-a456-5a335fa90c54,.\36 f99d628-2c18-459b-a103-3da066f58bd0,.\38 966f3bc-bf9c-4a1e-a7bf-f9dcdf30b968,.\38 f815e20-8726-46d4-96ae-9d36c2a9db19,.\39 04e7f97-3a0e-4e5b-a6cf-b7e8e4b2c624,.\39 2d75d88-6340-4ff2-89e2-11d5877bcfbc,.\39 4032b4c-5de5-4f59-8264-77f0d588b2b4,.\39 9ee216b-918d-4ac2-8567-d1b87988ab03,.ac4f417a-43ed-4ab8-ab32-b6fc1e536701,.b0948a7c-915f-47fb-910e-c8433a7e0e47,.b854dccf-8350-472c-aeb0-ff80fd0a4714,.ba2776d0-d4a3-4868-a4e8-f4aa41135d7f,.bc07fb36-c69c-497c-aa93-025c37305c82,.c7da8777-44cd-4069-933b-3c41272b03cd,.c802b4eb-b033-45d5-a5ed-4f29156cb07a,.c9da7228-d936-4616-87d1-8109fb7db58b,.d3674630-9788-424f-bdee-7571fbf869d0,.d4540870-eb71-4a43-b718-8c3d7606bf6f,.d4b23d73-f88c-4768-955d-5fa4cc1b6e84,.e03e7643-efbf-4f11-a4d4-5f75060dac58,.e4d4d055-3d39-4750-a856-d91fa9dc85c9,.fe03d0a4-f9ff-418a-8a09-88ed19008f14{stroke-width:1.02px;}.ba2776d0-d4a3-4868-a4e8-f4aa41135d7f{fill:#582f43;}.e03e7643-efbf-4f11-a4d4-5f75060dac58{fill:#69c2c2;}.b918f472-4566-47c9-83f0-a30ea01578d2{fill:#081008;}.c802b4eb-b033-45d5-a5ed-4f29156cb07a{fill:#2c1e1e;}.\36 f99d628-2c18-459b-a103-3da066f58bd0{fill:#ebeaf7;}.bc07fb36-c69c-497c-aa93-025c37305c82{fill:#eeeef2;}.\38 2adaf54-f3c0-4b77-831f-8c793c2cee9b,.\39 4032b4c-5de5-4f59-8264-77f0d588b2b4{fill:#f0a5a5;}.\32 b5b524f-182d-41e5-9fd4-712ce28eeabf{fill:#1b1829;}.\32 5e646e6-9137-4cce-9ec1-6a665be6099f{fill:#b09d9d;}.\38 2adaf54-f3c0-4b77-831f-8c793c2cee9b{stroke-width:1.17px;}.d3674630-9788-424f-bdee-7571fbf869d0{fill:#655aa1;}.\37 879c55b-f74a-4f49-9161-9cda35f40bf4{fill:#4c2b2b;}.f944f690-8e0a-4077-98ec-cd33e9f5113a{fill:#6a4646;}.\33 73d0f56-8e18-4c07-84e4-d5bb13bd69f4,.\35 297ab30-e367-47b8-886d-d77bcda363a9,.\35 38b1c88-4268-43b4-b38d-70c6b272625d,.\38 359a339-7f9c-4f10-bc1f-10cb71330838,.c9da7228-d936-4616-87d1-8109fb7db58b,.e4bd40dc-c565-420b-8970-53360506dc80{fill:none;}.\37 3752447-3884-4a0f-aaca-4dff8444de99{fill:#524141;}.\33 b325fd2-1845-475c-8f3a-4ce2f0e58572{fill:#c73c5a;}.\38 f815e20-8726-46d4-96ae-9d36c2a9db19{fill:#f5a8a8;}.c5688b7d-e5a9-4d06-80fd-bd2955b27492{fill:#9896c5;}.\32 4a82779-4eb9-4fd6-81c6-381294856ccc{fill:#bc3221;opacity:0.81;}.\31 5207bd8-085a-4087-b762-e3cae4b0d289,.\32 4a82779-4eb9-4fd6-81c6-381294856ccc,.\34 624f0db-3236-42cf-be0d-ca0b9435ac59,.a819fc1b-2a2b-4756-b2c4-25c8a6cb671b{isolation:isolate;}.\35 297ab30-e367-47b8-886d-d77bcda363a9{stroke:#331d1d;stroke-width:0.46px;}.\35 297ab30-e367-47b8-886d-d77bcda363a9,.a7818ec2-b6e1-45a9-96f2-5f13ef928038{stroke-linecap:round;stroke-linejoin:round;}.\35 a729c73-d6d6-4ba2-b83a-01dfeafe4330,.\39 04e7f97-3a0e-4e5b-a6cf-b7e8e4b2c624{fill:#57313c;}.\39 2d75d88-6340-4ff2-89e2-11d5877bcfbc{fill:#674949;}.\35 a729c73-d6d6-4ba2-b83a-01dfeafe4330{stroke-width:1.41px;}.\30 2a20fae-4de2-496e-9640-1a21a256a34c{fill:#6a689a;}.\32 0dc4514-1456-4077-8888-0d85a88d6639{fill:#6c6c76;stroke:#774848;stroke-width:0.51px;}.e4bd40dc-c565-420b-8970-53360506dc80{stroke-width:0.68px;}.\35 38b1c88-4268-43b4-b38d-70c6b272625d{stroke-width:0.58px;}.\31 d238264-4ac0-4837-8add-e208f68a10e0{fill:#2685b2;}.d4b23d73-f88c-4768-955d-5fa4cc1b6e84{fill:#f39898;}.fe03d0a4-f9ff-418a-8a09-88ed19008f14{fill:#e32c67;}.\30 561c41d-7406-4deb-b7ca-7546b9439dac{fill:#f6f0f0;}.d4540870-eb71-4a43-b718-8c3d7606bf6f{fill:#c9b0b0;}.\39 9ee216b-918d-4ac2-8567-d1b87988ab03{fill:#de3535;}.e4d4d055-3d39-4750-a856-d91fa9dc85c9{fill:#2d1111;}.\31 5207bd8-085a-4087-b762-e3cae4b0d289,.\31 dbeb024-9b92-4072-ab43-fdf9896ca302{fill:#090916;}.\31 5207bd8-085a-4087-b762-e3cae4b0d289,.a819fc1b-2a2b-4756-b2c4-25c8a6cb671b{opacity:0.81;}.a819fc1b-2a2b-4756-b2c4-25c8a6cb671b{fill:#08080b;}.\38 966f3bc-bf9c-4a1e-a7bf-f9dcdf30b968{fill:#efa3a7;}.c7da8777-44cd-4069-933b-3c41272b03cd{fill:#f7f0ee;}.\33 eb08099-37e3-408e-8fbf-b0891fe659aa,.\35 f8b86fc-615a-46cb-8600-dcbc4f0c5929{fill:#382620;}.\33 eb08099-37e3-408e-8fbf-b0891fe659aa{stroke:#070707;stroke-width:3.14px;}.\35 f8b86fc-615a-46cb-8600-dcbc4f0c5929{stroke-width:2.91px;}.b854dccf-8350-472c-aeb0-ff80fd0a4714{fill:#211512;}.b0948a7c-915f-47fb-910e-c8433a7e0e47{fill:#624339;}.\33 26f0c91-d1cf-448b-9d06-28a0b58501b7{fill:#b27967;}.c9da7228-d936-4616-87d1-8109fb7db58b{stroke:#efe9e9;}.\38 359a339-7f9c-4f10-bc1f-10cb71330838{stroke:#fbf5f5;stroke-width:1.01px;}.\32 f0503d9-bd06-44e0-bc12-0b011af4c49f{fill:#5a4d4e;stroke-width:0.97px;}.a7818ec2-b6e1-45a9-96f2-5f13ef928038{fill:#08060a;stroke:#f8f8f8;stroke-width:0.74px;}.cf1aa565-eea2-44e3-9342-cb57f6c4f214{fill:#fbeff6;}.ec9b9bbf-287f-4c54-8496-bdcbb9d7bc8e{fill:#070707;}</style></defs><title>slide-6@700</title><g id="f2a3ed3e-2002-448b-bd8b-ea044643e128" data-name="Layer 2"><g id="fc0d1272-57f2-41c7-9268-4829b11b395a" data-name="Layer 1"><rect id="ae211491-8ba8-435e-b658-1b672ec616a8" data-name="rect4311" class="62a2dade-ef50-4711-9d66-982221490801" width="1600" height="650"/><path id="c4b6cdcf-a517-4809-82a7-9f479fe90952" data-name="path4317" class="ac4f417a-43ed-4ab8-ab32-b6fc1e536701" d="M1174.33,151.71c4.37-2.82-.64-1.28,4.37-2.82s6.47-1.91,9.2-2,5.56.09,7.93.09a56.43,56.43,0,0,1,10,1.46c2,.46,3.74.82,5.38,2.55s4,3.92,5.47,6.47,2.82,3.19,2.28,5.47-.46,4.28-3.1,6-4.46,4.19-9.47,4.19-4.74,1.28-10.84.64-12.3-1.64-14.39-2.82-3.46-2.28-4.83-3.1a16.15,16.15,0,0,1-4.74-5.74,7.39,7.39,0,0,1-.64-5.38,35.5,35.5,0,0,1,3.37-5Z"/><path id="49d44ce0-c70d-45e8-8598-d7aba6f70387" data-name="path4217" class="ba2776d0-d4a3-4868-a4e8-f4aa41135d7f" d="M1225.44,12.59c8.75.64-1.09.36,8.75.64s18.31,4,19.68,6.74,3.19,8.11,3.19,11.11,1.73,12.12,2.1,15.85-1.37-.64.73,3.74,3.46,4.37-1.09,9.47c-4.83,5.38-6.2,11.11-8.75,6.38-1.55-2.73-1.37-4-3.55-5.74s-5,.27-5.65-1.73-.46-9.75-1.37-12.48c-1.28-3.83-8.47-5.1-11.57-6.38s-6-1.37-8.47-3.37-3.19.36-2.46-2-2.1-.64-2.46-5.38-1.55-4.28,1.64-7.29,6.1-4.19,7.83-6.2,1.46-3.37,1.46-3.37Z"/><path id="0e6501c4-0943-43b0-989a-0d81b0fdbe79" data-name="path7010" class="e03e7643-efbf-4f11-a4d4-5f75060dac58" d="M1210.5,71.54c-18.95,5.74-9.29-.64-22,4.74S1169.23,82,1164.4,89.85s-.36,7.83-4.83,16.4-14.85,14.3-15.94,19.31,2.64,4.28.36,7.83-5.19,12.48-3.74,16.4a13.7,13.7,0,0,0,9.66,8.2c4.1.73,10,7.83,10.39,5s3.37-13.21,5.92-16.4,9-10.2,10.39-8.93c4.37,4.19,6.65-1.28,9.66-1.82,4.1-.64,7.83,1.09,13.39,5.38a23.9,23.9,0,0,1,7.47,9.29s0-5.19,7.47,4,4.1,7.38,5.19,13.12.36,10.39,0,22.5-3.37,16.76.73,15.67,10.75-.73,9.29-3.55-6.29-9.29-6.29-14.3.64-24.23-.91-25-3.55-1.46,1.64-6.1,9.29-7.11,11.84-7.47,2.64,5,2.64-.36-.36-9.29,2.19-10.39,3.37-2.82,6.65-3.55.73,0,4.83,0,1.46,3.19,6.65,1.82,2.19-1.46,5.19.36,8.93,3.55,9.29,1.82,3.37-3.55,6.65-1.46,7,8.2,10,7.11,7-1.09,9.66-2.46,13.76-21.77,12.21-25-28.61-47.83-31.52-47.83-11.84,0-15.58-.73a67.07,67.07,0,0,1-11.11-3.55c-1.37-.64,4.1-.36-.46-.09-5.28.18-5.47-4.19-6.2-.91s-.73,10-3,11.75-10,7-12.21,9.66c-2.82,3.28-3.64,18.31-5.19,17.13s-12.21-17.13-14.12-21.41a36.08,36.08,0,0,1-2.19-9.84Z"/><ellipse id="c6c8e4e2-37b8-4e93-83bc-5134e8984c42" data-name="path4275" class="b918f472-4566-47c9-83f0-a30ea01578d2" cx="1194.37" cy="158.27" rx="10.2" ry="5.38"/><path id="867db5fc-b995-4ce4-942f-6edddf649ff9" data-name="path6954" class="c802b4eb-b033-45d5-a5ed-4f29156cb07a" d="M1023.73,223.83c1.64,28.7,1.28,29.06,1.64,28.7s12-.36,11.66-2-2.19-3.74-1.09-6.74,5-1.09,1.64-6.29-8.93-13.94-10.57-13.94-4.83-1.82-4.83-1.82"/><path id="5fd15e56-b9b0-4364-9062-a1686d3342ec" data-name="path4258" class="6f99d628-2c18-459b-a103-3da066f58bd0" d="M1529.72,528.51c-4.83-9,.46-4.1,3.37,1.28-.64,3,4.19,13.39-.82,13.39-5.28,0-23.14,1.55-27.79,0s-4.74,1.55-4.74-1.55-3-9.2,2.64-11.11c6.2-2.1,5-2.19,7.38-10.11,3-10.2-2.64,7.11,8.38,7.56s11.57.55,11.57.55Z"/><path id="7a1d8957-e08c-446d-9a78-a3f4c77dc598" data-name="path4256" class="bc07fb36-c69c-497c-aa93-025c37305c82" d="M1453.83,542.36c2.64-6.56,2.46-3.92,4.37-5,3.28-1.82,6.92.18,11.11-1.82s13.94-14.58,14.21-9.11c.18,3.55,21.5-3.55,21.5,0s2.82,17.67.55,16.13c-2-1.37.91-.46-12.12-.27l-39.9.73"/><path id="3c63f37b-e315-4288-be21-63ab525f7259" data-name="path4196" class="94032b4c-5de5-4f59-8264-77f0d588b2b4" d="M1326,434.59c10.48,9.11,6.29,4,10.48,8.11s1.09,7.56,1.09,7.56,5.28-2.55,1.55-.55-16.31,6.56-23.6,10.57-16.76,8.56-15.76,11.11,17.86,19.13,17.31,16.13-1.55-5.56.55-8.11,33.07-17.67,37.81-21.23,5.74-5.56,5.74-8.56-2.1-8.56-3.19-11.11-12.57-19.13-14.21-17.13S1326,434.59,1326,434.59Z"/><path id="f813f256-5e3f-4067-8838-4d33013dba96" data-name="path4198" class="2b5b524f-182d-41e5-9fd4-712ce28eeabf" d="M1284,427.57c-4.19,24.69-7.83,30.25-4.19,30.25s31.52,4.56,33.07-2-.55-23.23,3.19-19.68,9.93,4.56,12.12,8.11l3.64,6s30-14.67,27.33-17.67-26.24-31.25-28.33-28.79,3.64-2-15.76,9.11-6.92,6.1-31.07,14.67Z"/><path id="585f8162-3032-4ff9-993a-ce64b42f3890" data-name="path4200" class="25e646e6-9137-4cce-9ec1-6a665be6099f" d="M1267.71,500.18c3.19,8.56,5.74,11.11,7.83,11.11s10-5.56,8.93-2-.55,8.56,1.55,13.12,8.93,9.11,8.38,14.67,1.55,6.56-.55,6-16.31,1.55-19.41-.55-21.5-33.8-20-35.8,13.21-6.56,13.21-6.56Z"/><path id="b2b893d7-15ad-4223-a3ee-c54794ccb36f" data-name="path4202" class="25e646e6-9137-4cce-9ec1-6a665be6099f" d="M1295.5,481c19.41,26.24,15.76,29.79,20,26.24s7.83-5.56,7.83-9.11-5.28-5-5.28-12.12,10.48-13.12,3.64-11.57-11,4-14.21,1-5.28-6.56-5.74-3-6.19,8.56-6.19,8.56Z"/><path id="dc88696a-ef01-485b-a73c-bca529fe8b7e" data-name="path4204" class="94032b4c-5de5-4f59-8264-77f0d588b2b4" d="M1277.73,344.76c-2.64,4.56-5.28,8.56-2.1,12.12s5.74,7.11,12.12,8.11,35.71,6.56,39.9,4,22.59-18.13,25.24-21.68,7.38-12.57,10-14.12a16.67,16.67,0,0,1,6.29-2.55c2.64-.55,8.93-2.55,9.47-8.11s-3.64-18.68-5.74-15.12-5.28,14.12-7.83,14.12-4.74,2-4.74-2,3.64-13.12.55-11.11-6.29,9.57-6.29,11.57,4.74,6,2.1,8.56-17.86,14.12-25.69,19.13-6.29,5-10.48,4.56-29.43-10.11-33.62-9.57a66.18,66.18,0,0,0-9.2,2.1Z"/><path id="b0c346b8-7325-43ec-99ad-58de97c5dcb9" data-name="path4206" class="94032b4c-5de5-4f59-8264-77f0d588b2b4" d="M1301.33,326.08c23.14-12.12,15.21-3.55,23.14-12.57s24.69-34.8,25.69-34.35-.55,1.55,4.19,2.55,5.74-2,4.74,1-16.31,30.79-18.4,33.34-25.24,25.24-28.33,22.68-11-12.66-11-12.66Z"/><path id="1f4715fe-2529-4f4d-adab-fb97ee98a052" data-name="path4208" class="82adaf54-f3c0-4b77-831f-8c793c2cee9b" d="M1349.25,278.89c-2.46-9.66-3.74-4-2.46-9.66s3.74-13,8-13,8.65,2.28,8.65,6.83-3.74,2.28-3.74,6.2,1.55,6.74,1.28,10.2l-.36,3.37H1356c-2.1,0,0,0-2.1-.73s0,0-1.82-1,0,.09-2.82-2.19Z"/><path id="c815d4be-19b2-45db-aa63-66480dc77d32" data-name="path4210" class="d3674630-9788-424f-bdee-7571fbf869d0" d="M1280.83,426c-1.09-28.24.55-33.8-2.1-46.46s-7.83-21.23-6.29-27.79,8.93-18.68,11-18.13,5.74,2.55,9.47,2.55,7.83,3,7.83,0-5.28-13.12-1.09-10.11,10.48,10.11,14.21,16.13,8.93,11.11,5.74,10.11-26.78-9.57-30-9.57a97.74,97.74,0,0,0-12.57,1c-2.1.55-3.19,6-3.19,8.11s0,5.56,3.64,8.11,11.57,6.56,16.31,6.56,16.31,3,20.5,3.55,11-2,11-.55,4.74,32.8,4.74,34.35-14.67,7.11-18.4,10.11-22,13.12-24.69,13.12a34,34,0,0,1-6.19-1.09Z"/><path id="21a3265d-41e2-4342-a69c-5a8ba6c9a879" data-name="path4212" class="94032b4c-5de5-4f59-8264-77f0d588b2b4" d="M1284,334.74c-.55-18.13,2.1-19.13-.55-21.23s-6.29-2.55-4.74-6.56,7.38-6,8.38-4,4.74,11.57,4.19,9.11-3.64-7.11-3.64-12.12-5.28-3,0-7.56,10.48-9.11,11.57-7.11,8.93,22.23,11,25.24,4.19,9.11,2.1,9.57-12.12.55-13.67,3,6.83,13.67,3.64,13.67-18.31-2-18.31-2Z"/><path id="b4d54cf3-907c-4a9c-813c-5b0bffa29a21" data-name="path4214" class="57c1dea8-b0de-4383-a456-5a335fa90c54" d="M1281.92,320.07c-10-9.11-3.64-.55-10-9.11s-10-17.67-6.83-20.68,14.21-16.67,12.57-9.57-7.83,14.12-1.55,7.11,15.21-17.67,14.21-13.12-5.74,6-1.09,4.56,6.83-8.56,7.38-5,2.64,10.11.55,11.11-12.12,7.11-12.12,9.57,6.83,21.23,5.74,18.13-2.64-11.11-5.28-11.11-5.74,3-6.29,5.56,4.19,5.56,4.19,8.11v7.11"/><path id="d28b1ad6-3767-4b23-93fc-cb5f56a2d533" data-name="path4220" class="7879c55b-f74a-4f49-9161-9cda35f40bf4" d="M1256.69,509.84l18.95,31.8h16.76v-3.55l-15.21,1-17.86-31.8Z"/><path id="b8385e31-c720-4acd-bffb-f171a189a345" data-name="path4222" class="f944f690-8e0a-4077-98ec-cd33e9f5113a" d="M1299.23,482.05,1316,505.74l3.64-3.55-18.95-21.68Z"/><path id="2d4e7fdb-6c0d-4d7d-aa7b-87c568a39689" data-name="path4226" class="373d0f56-8e18-4c07-84e4-d5bb13bd69f4" d="M1277.73,525c7.38-7.11,8.38-1,8.38-1"/><path id="838a6797-9903-4aab-93ec-84d0bb400af7" data-name="path4228" class="373d0f56-8e18-4c07-84e4-d5bb13bd69f4" d="M1315.54,490.62l2.64-3"/><path id="f3a43464-3631-41f9-a211-2e87dbedf5c8" data-name="path4234" class="73752447-3884-4a0f-aaca-4dff8444de99" d="M1277.73,540.36c16.31,0,16.31,1.91,16.31,0S1293.4,530,1287.3,530s-8.29,1.28-9.57,10.39Z"/><path id="6f252e59-a5d5-4ad9-a9ef-89a8ea31a7db" data-name="path4236" class="f944f690-8e0a-4077-98ec-cd33e9f5113a" d="M1311.35,496.08c3.37-4.37,2.46-3.74,3.37-4.37s7.74,2.55,7.47,5.65c-.18,2.92.18,5.56-3.37,6.29C1312.62,505,1311.35,496.08,1311.35,496.08Z"/><path id="89a65023-64b1-4959-8b04-136d19d9ef37" data-name="path4194" class="94032b4c-5de5-4f59-8264-77f0d588b2b4" d="M1287.11,457.82c0,12.12,2.1-1,0,2s-8.93,18.13-11.57,24.69-11,21.23-10,25.69,20,12.57,19.41,9.11-3.19-7.56-.55-13.12,16.76-31.8,17.31-33.8,2.1-1.55,4.19-9.11,4.28-7.29.55-6.56c-4.46,1-19.77,1.28-19.31,1.09Z"/><path id="43bc8e15-26e5-45c1-a717-16eda48fef7a" data-name="path4244" class="3b325fd2-1845-475c-8f3a-4ce2f0e58572" d="M1481.44,367c8.93,18.68,4.74,7.56,8.93,18.68s4.19,9.57,4.19,15.12-11,29.79-8.38,29.24,34.16,0,37.81,0,11,2.55,11.57-4.56,2.64-20.23,1.55-26.78-1.55-24.69-4.74-33.34-3.64-17.67-8.93-24.69-13.67-14.12-16.31-14.12-32.52,17.13-28.33,19.13,11,5,11,8.56,2.1,6.56-.55,8.56c-2.55,2.19-7.83,4.19-7.83,4.19Z"/><path id="0e9d87fd-2595-42be-9785-f9f2d4adeb48" data-name="path4246" class="8f815e20-8726-46d4-96ae-9d36c2a9db19" d="M1442.54,288.27c5.56-13.3,7.83-11.48,7.38-17.67-.27-3.83-1.55-2.55-3.19-.55s-3.64,14.12-6.83,8.11-6.83-17.13-11-16.67-5.74,6-5.74,9.11,1.09,14.67,4.19,17.67,3.19,0,3.19,3,8.38,35.35,8.38,38.35,2.64,8.11,5.28,11.11,10.48,10.11,14.67,13.67,18.4,14.12,21.5,12.57,11-1,11-4.56.55-10.57-3.64-13.12-5.28-.55-12.12-5.56-18.95-9.57-21.5-15.12-11.57-40.36-11.57-40.36Z"/><path id="d0a73297-d6cd-4f6a-aacb-9f5de1076f0a" data-name="path4248" class="8f815e20-8726-46d4-96ae-9d36c2a9db19" d="M1474.06,270.6c-12.85-12.21-8.38-5.74-11.3-9.29-.73-.82-1.28-4.83,2.92-1.73s8.38,8.56,8.93,4.56-3.64-19.13,0-19.13,10,4,10,7.56-1.09,13.67,2.64,17.13,12.12,10.57,8.38,10.11,0-2-3.64-.55-1.09,4-3.64,1.55,1.55-4-2.64-2.55S1488.27,287.73,1474.06,270.6Z"/><path id="c5282c0c-1a2b-4ed9-9de1-dd23a0aa8887" data-name="path4250" class="8f815e20-8726-46d4-96ae-9d36c2a9db19" d="M1501.39,320.07C1513,303.94,1513,300.39,1513,303.94s2.1,5.56,3.64,11.11,7.83,25.24,4.19,22.23-9.47-11.11-13.67-11.11-2.55,5.47-5.74-6.1Z"/><path id="8f724afd-3fed-42e6-b2c8-aa1daeab77cc" data-name="path4252" class="8f815e20-8726-46d4-96ae-9d36c2a9db19" d="M1489.82,334.19c-3.64-6.56,0-5-3.64-6.56s-12.12-1-12.57-3,1.09-11.11,1.09-14.67.55-11.11,2.1-15.12-1.09-6.56,1.55-4,23.14,30.79,23.14,30.79-2.64-2.55,0,1,5.28,1.55,2.64,3.55-13.12,9.57-13.12,9.57"/><path id="cb0739a7-0921-417c-9b72-a2b555af4b03" data-name="path4254" class="c5688b7d-e5a9-4d06-80fd-bd2955b27492" d="M1453.74,543.64c54.12-1.09,52.84-2.19,52.84,0s1.73,6,0,6-51.93,3.28-52.29-.55Z"/><g id="e0da01f8-43c2-4e48-b3d0-20383df1967d" data-name="path4260"><ellipse class="24a82779-4eb9-4fd6-81c6-381294856ccc" cx="1427.23" cy="218.85" rx="24.69" ry="23.96"/><ellipse class="5297ab30-e367-47b8-886d-d77bcda363a9" cx="1427.23" cy="218.85" rx="24.69" ry="23.96"/></g><path id="3193dcc2-b90b-4e32-b077-42fd32ca2fce" data-name="path4262" class="373d0f56-8e18-4c07-84e4-d5bb13bd69f4" d="M1404.64,212.57c27.79,15.67,21,30.25,21,30.25"/><path id="ea764c07-811e-479f-9c2b-febc9fc9e81c" data-name="path4264" class="373d0f56-8e18-4c07-84e4-d5bb13bd69f4" d="M1414.48,199.17c37.26,17.67,28.33,37.35,28.33,37.35"/><path id="6815b5a8-a9d2-4474-8aba-64a77c1e99f2" data-name="path4266" class="373d0f56-8e18-4c07-84e4-d5bb13bd69f4" d="M1403.54,223.23c38.35-24.69,46.74-12.12,46.74-12.12"/><path id="9c260b50-c189-4d39-9731-1c33242a0609" data-name="path4268" class="373d0f56-8e18-4c07-84e4-d5bb13bd69f4" d="M1411.84,236.89c28.88-19.68,38.9-12.12,38.9-12.12"/><path id="9ea32798-721b-40f6-9009-3ec6acc4461e" data-name="path5804" class="904e7f97-3a0e-4e5b-a6cf-b7e8e4b2c624" d="M1511.87,301.39c.55-8.11,4.19-.55.55-8.11s-1.55-4-8.93-12.12-3.19-13.67-7.38-8.11,4.74,12.57-4.19,5.56S1483,266,1483,271.51s5.74,8.56,0,5.56-6.83-8.56-5.74-3,3.19.55,1.09,5.56-2.1.55-2.1,5-3.64-1,.55,4.56,3.19,17.67,3.19,18.13,1.55-4.56,4.19-5,2.1,0,4.74,5.56,6.83,13.12,9.47,14.67c2.46,1.55,13.48-21.14,13.48-21.14Z"/><path id="09940f72-84bc-4d1c-92b4-b12acc731d4b" data-name="path4238" class="8f815e20-8726-46d4-96ae-9d36c2a9db19" d="M1477.79,452c-10.48,30.25-10.48,26.24-10.48,30.25s13.67,50.47,16.76,52.48,12.21-.18,15.76-2c3.19-1.73-1.64,1.91.82-.55,3.19-3.1-4-16-6.83-25.69-1.55-5.38-6.56-15.58-5-18.68s6.29-22.68,7.83-18.13,13.12,56,13.67,59.58,5.92,5.47,10,4c2.92-1.09,9-2.55,9.75-1,1.55,3.74-13.39-55-12.3-61s11.57-15.12,5.28-15.12-47.28-5-47.28-5"/><path id="89074c0a-5c8d-4946-97e0-8776ec342fc5" data-name="path4240" class="92d75d88-6340-4ff2-89e2-11d5877bcfbc" d="M1486.72,429c-16.31,37.35-18.95,37.81-16.31,37.35s46.19,2.55,47.83.55S1537.19,425,1532.46,426s-10.48,4.56-15.21,4.56-30.52-1.55-30.52-1.55Z"/><path id="dd1e0a6c-7490-45ba-9600-1f83180f8036" data-name="path4242" class="5a729c73-d6d6-4ba2-b83a-01dfeafe4330" d="M1520.07,430.94c-19.86,36.35-28.06,36.35-19.86,36.35s19.13,10.39,22.59,0,13.67-42.27,10.29-41.54-13,5.19-13,5.19Z"/><path id="23e2a213-21d8-4cd3-bc58-b7d1701a1e3d" data-name="path4254-3" class="02a20fae-4de2-496e-9640-1a21a256a34c" d="M1506.4,542.64c29.43-1,29.43-3.1,29.43-1s.82,7.74,0,7.29c-1.09-.55-29.43,1.46-29.43-.82Z"/><path id="26ec5316-b725-435a-9dad-610c9046e4bc" data-name="path5823" class="20dc4514-1456-4077-8888-0d85a88d6639" d="M1453.74,543.09c1.46-4.28-.18-3.37,1.46-4.28s.18-.91,1.82-1.09,3.19-1.46,3.19-.36v4.1c0,2.1,1.82,2,0,2.19a55.05,55.05,0,0,1-6.47-.55Z"/><path id="4f4e76df-7f66-4bc3-bf7f-cf2678027b1f" data-name="path5825" class="e4bd40dc-c565-420b-8970-53360506dc80" d="M1476.06,529.88c5.19,4.1,3.1,6.83,3.1,6.83"/><path id="d3731170-2a5a-4cf8-b12f-190aafd3eb21" data-name="path5825-6" class="538b1c88-4268-43b4-b38d-70c6b272625d" d="M1471.69,533.34c5.28,2.92,3.19,4.83,3.19,4.83"/><path id="8fe725c7-ab9a-4f87-9037-dfd741f2cba6" data-name="path5825-6-7" class="538b1c88-4268-43b4-b38d-70c6b272625d" d="M1504.76,528.33c5.19,3.1,3,4.92,3,4.92"/><path id="e8cc7346-1fbb-4258-894a-f4c1a94b4aaf" data-name="path6883" class="1d238264-4ac0-4837-8add-e208f68a10e0" d="M1064.37,334.06,1100,394l-24.51,67.05-13.39-5.74,17.86-60.68-39.36-42.09-8.93,51.38L1025,464.62h-14.12l3.74-69.24-3-58.49Z"/><path id="d4f91dc4-cf6b-4fa8-99ab-a6497e503cbd" data-name="path6893" class="d4b23d73-f88c-4768-955d-5fa4cc1b6e84" d="M1075.48,269.84c10.39,17.49,10,9.29,10.39,17.49s-1.09,14.67,1.09,13.94,11.11-.73,11.48-3.19-.73-11.39-2.64-14.67-8.2-17.49-10.75-22.14-1.09-7.47-2.64-4.65C1081,259.54,1075.48,269.84,1075.48,269.84Z"/><path id="30faec7a-fa47-4fda-8f82-4d88054c147f" data-name="path6895" class="fe03d0a4-f9ff-418a-8a09-88ed19008f14" d="M1015.35,249.89c19.68-4.28,15.94-6.74,19.68-4.28s10.39,6.47,15.94,3.55,3.37-6.74,8.56-4.28,24.87,6.47,23.78,9.66-10.39,21-11.11,24.6-7.83,16.76-7.83,21.41-2.19,6.47-2.19,9.66,7.47,24.23,4.83,24.23-56.48,3.19-56.85,2.82.73-8.56,4.46-18.95,5.92-16.76,5.92-21-1.09-23.6-1.82-30.7a129.18,129.18,0,0,0-3.37-16.67Z"/><path id="53daee20-4255-4dac-b5e2-b64c47f74066" data-name="path6897" class="0561c41d-7406-4deb-b7ca-7546b9439dac" d="M1016.81,314.48c51.66-67.78,50.11-67.78,51.66-67.78s10.75-.73,6.29,4.28-34.89,45.64-40.81,53.84S1026.1,325.14,1016.81,314.48Z"/><path id="3a8073f3-e5de-4650-933b-b98e616d521a" data-name="path6899" class="d4540870-eb71-4a43-b718-8c3d7606bf6f" d="M1011.07,465.35c0,8.56-1.55,8.56,0,8.56s30,2,30-.55-4.74-5.56-10.48-7.56S1038.86,462.34,1011.07,465.35Z"/><path id="209d109e-20cc-48f8-a263-508bfeed5e81" data-name="path6901" class="d4540870-eb71-4a43-b718-8c3d7606bf6f" d="M1060.9,454.78c0,7.11-3.64,7.11,0,7.56s25.69,9.11,27.33,8.56,5.28,1.55,1.09-3.55,3.64-4.56-12.57-9.11-15.85-3.46-15.85-3.46Z"/><path id="ad489f1b-10c6-4708-8483-6bdef36bbabc" data-name="path6903" class="99ee216b-918d-4ac2-8567-d1b87988ab03" d="M982.19,318.49c13.67,0,.55-1,13.67,0s17.86,1,21-2,4.74-10.57,9.47-12.12,19.41-3.55,17.31,1-6.83,6-5.28,10.11,13.67,8.56,10.48,11.11-8.38.55-8.38,3-4.74,4.56,0,6,11.57,2,10.48,4.56-4.74,6-9.47,8.11-18.4,4-23.14,5.56-4.74,3-13.12,11.11-15.21,13.12-21,11.57-16.76-4.56-21.5-16.67-10.48-14.12-5.74-23.69,13.12-15.12,25.24-17.67Z"/><path id="64e026e0-6413-47b5-8f2d-19058da03996" data-name="path6905" class="373d0f56-8e18-4c07-84e4-d5bb13bd69f4" d="M989.3,335.43l7.83,16.4,8.38-3-1.28-3.55-5.56,2.55L994.76,338l4.74-1.55-2.64-4.28Z"/><path id="f3fc7337-529f-4a4a-9a78-7f9d36b66e2f" data-name="path6907" class="e4d4d055-3d39-4750-a856-d91fa9dc85c9" d="M995,337.71c3.92,9.84,2.92,10.57,3.92,9.84s100-41.63,103.95-42.18,1.55-3,3.92-.55.55,3.83,2.37,2.55,18.13-9.84,18.13-11.57,4.19-10.11,1.82-10.11-28.88,5.28-29.43,6.83,1.09,2.73-.27,3.83c-1.18.91-104.4,41.36-104.4,41.36Z"/><path id="f4ce5067-4d16-445f-a25b-ad0a3d2b3236" data-name="path6911" class="373d0f56-8e18-4c07-84e4-d5bb13bd69f4" d="M1102.17,290.88c-.18-.55.64-.55-.18-.55s-.46.36-.82,0a.78.78,0,0,1,.18-1.28c.55-.18,2.28-.73,2.64-.46s.82,1,.36,1a1.84,1.84,0,0,0-1.09.36c0,.09.36.46,0,.55a5,5,0,0,0-1.09.36Z"/><path id="ba9d604f-d8f0-4d47-9034-211d4571ff2b" data-name="path6911-5" class="373d0f56-8e18-4c07-84e4-d5bb13bd69f4" d="M1108.28,289.33c-.18-.55.64-.55-.18-.55s-.46.36-.82,0a.78.78,0,0,1,.18-1.28c.55-.18,2.28-.73,2.64-.46s.82,1,.36,1a1.84,1.84,0,0,0-1.09.36c0,.09.36.46,0,.55a5,5,0,0,0-1.09.36Z"/><path id="3fb247b1-fbf9-444d-8cd6-cb6816eb3f91" data-name="path6911-3" class="373d0f56-8e18-4c07-84e4-d5bb13bd69f4" d="M1114.47,287.88c-.18-.55.64-.55-.18-.55s-.46.36-.82,0a.78.78,0,0,1,.18-1.28c.55-.18,2.28-.73,2.64-.46s.82,1,.36,1a1.84,1.84,0,0,0-1.09.36c0,.09.36.46,0,.55a5,5,0,0,0-1.09.36Z"/><path id="14a97cbb-c12e-45b1-96fa-c5942bba95e5" data-name="path6911-56" class="373d0f56-8e18-4c07-84e4-d5bb13bd69f4" d="M1121.58,286.51c-.18-.55.64-.55-.18-.55s-.46.36-.82,0a.78.78,0,0,1,.18-1.28c.55-.18,2.28-.73,2.64-.46s.82,1,.36,1a1.84,1.84,0,0,0-1.09.36c0,.09.36.46,0,.55a7.59,7.59,0,0,0-1.09.36Z"/><ellipse id="090bc3f7-a86f-4043-9520-b9a61cbbee22" data-name="path6940" class="15207bd8-085a-4087-b762-e3cae4b0d289" cx="995.86" cy="363.31" rx="1.18" ry="1.37"/><ellipse id="70141242-b27f-4e05-b209-03782996b7c3" data-name="path6942" class="a819fc1b-2a2b-4756-b2c4-25c8a6cb671b" cx="991.21" cy="359.21" rx="0.64" ry="0.73"/><path id="cfa9d863-e36b-44bd-9927-d19ee85a413e" data-name="path6948" class="d4b23d73-f88c-4768-955d-5fa4cc1b6e84" d="M1035.58,234.85c2,4.28,2,1.64,2,4.28s-2.82,5.19-1.28,6.47,3.92,4.65,7.65,4.65,5.19,0,7.83-1.09,6.1-4.28,5.92-5.56-2.19-5.38-2.19-6.29,1.82-.18,3.92-5.19,2.64-12.66,3.55-13.21,4.1-1.28,4.1-2.82-.18-4.46-1.09-5.19,1.28-.18-1.09-.73-2.19,2.28-2.37-.55.73,1.09-1.09-4.46-10.57-9.66-13.57-9.66-13.57,1.82-14.67,3.74-5,8.2-5.56,9.66a28.42,28.42,0,0,1-3.74,5.74c-.73.73.18-1.46-.73.73s-2,3.37-.91,5.19,1.09,2.28,3.19,2.64,1.82.73,3.37,3c1.18,2.46,4,5.28,6.74,8.65Z"/><path id="9d4fd2bf-11b5-40cd-8b52-8c08bd179f00" data-name="path6952" class="1dbeb024-9b92-4072-ab43-fdf9896ca302" d="M1023.19,214c2.64,2.64,3.92,5.56,4.1,4.1s2.82-10,3.74-11.57,3.92-6.47,5.56-6.56,3.74-1.28,5.92-1.28,7.65,0,9.11.91,5.74,3.37,6.65,5.38,3.37,9.66,3.37,8.56,1.82-3.55,2.64-4.28,1.46,3.37.73-.73-1.82-9.29-3.55-12.12-2-6.92-8.2-9.47-14.12-4.1-17-2.82-8.93,5.19-10,7.29a19.52,19.52,0,0,1-1.09,2.19,31.12,31.12,0,0,0-3,11.57,64.6,64.6,0,0,0,1.09,8.84Z"/><path id="41dbd2e5-02bc-4e09-adf6-d7b7307865e3" data-name="path6956" class="c802b4eb-b033-45d5-a5ed-4f29156cb07a" d="M1062.54,219c-1.09,5.56-1.09,8.2-2.82,12.12s-5,4.65-4.46,6.56,1.28,4.65,2.82,6.29,3.92,2.19,6.47,3,6.65,4.1,6.29,1.82-5.19-31.07-6.1-30.52a6.86,6.86,0,0,1-2.19.73Z"/><path id="fb232301-cb3e-4422-99e0-46365f2ee587" data-name="path6891" class="d4b23d73-f88c-4768-955d-5fa4cc1b6e84" d="M1090.24,304c0,2.37-.91,7.83.55,7.2s6.65-4.19,5.92-2.37-3.28,8.47-4.1,10.39-3,5.83-4.56,6.29-3.55.55-6.47-1.37-5.65-3.19-7.11-4.65-3.37-2.64-2.73-3.28,1.28.36,2.1-.55,1.73.27.82-.91-1.55-1.55-1.09-2.28,2,.64,2.92.27,1.28.27.91-.36-2.19-2.19-2.19-3.19.36-2,1.18-1.37,2.64,3.64,3.55,3.64.91.09.91-.55-2.46-6.2-1.73-6.92a1.52,1.52,0,0,1,2.46.73c.27,1.09,3.55,8.47,4.1,8.29s2.1-5.92,2.64-7.2A4,4,0,0,1,1090.24,304Z"/><path id="7dcc9123-68d1-41f6-849a-64823de04e98" data-name="path6889" class="d4b23d73-f88c-4768-955d-5fa4cc1b6e84" d="M998,321.4a16.36,16.36,0,0,0,.55,4.83,78.41,78.41,0,0,0,2.73,9.11c.55,1.28,2.37,5.83,3.1,6.38s1.46.73,1.46.27-1.18-5.65-1.18-6.1,1.73,2.19,2,2.82a9.49,9.49,0,0,0,1.64,3c.46.27,1.55,1.18,1.55.55a5.91,5.91,0,0,0-.55-2.82c-.55-1-1.64-2.19-1.64-4.1s-.27-2.46,0-1.91,3.83,6.83,4.28,7.29,1.91,1.09,1.91.55a7.5,7.5,0,0,0-.36-2.37c-.27-.55-3.46-5.28-3.46-5.83s-.09-1.55.18-1.18,3.55,4.65,4.1,5,2.1.64,2,.09a13,13,0,0,0-2.19-4.19c-1.28-1.64-3.83-5-3.55-5.47s1.82.09,2.46.46,1.55,1.64,2.37,1.55,1.55,1,1.09-.27-.46-2.46-2.37-4a22.46,22.46,0,0,0-4.92-3.37c-2.19-1.09-3.28-1.73-3.74-1.73s-4.28-21.32-4.28-24.87,4.74-14.67,7.83-19.13,9.47-8.29,9.2-10.11-1.28-16.22-3.19-14.85-10.75,8.2-11.48,10.39-10,18.95-10.75,24.23-3,8.56-1.82,12.85,7,23,7,23Z"/><path id="ada3d966-914b-4406-9fb1-2cdaa1ab3c06" data-name="path7008" class="8966f3bc-bf9c-4a1e-a7bf-f9dcdf30b968" d="M1205.67,42.75c3,5,3,.36,3,5s-2.64,3.19-2.64,9.29,3.74,7.83,5.92,10.75,1.82,4.65,5.56,3.55,20-7.83,10-3.55-11.48,2.46-9.66,4.28,10.75,7.83,7.83,6.1-5.92-5.74-8.93-6.47-3.37-5.74-5.19-2.46-1.82,3.19-1.82,5.38,15.21,30.34,17,27.15.73-7.47,3-11.75,13-12.85,14.12-14.67,4.1-10.75,3-13.21-2.64-2.82-4.46-3.92-2.19,2.82-2.19-1.09,0-8.2-2.19-11-8.56-4.65-13.39-6.47-7.83-6.47-10-5.38-5.92.73-7,2.82a21.84,21.84,0,0,0-2,5.65Z"/><path id="6a4c125c-e3b8-4a07-8407-f6234220f996" data-name="path7012" class="c7da8777-44cd-4069-933b-3c41272b03cd" d="M1155.92,209.11c-9.66-10.39-13-5-13-10.39s-.73-21.5.73-24.32,4.1-5.38,10.39-6.47,7-4.65,6.29-1.09-1.09,6.1-3.37,8.93-4.1,10-5.19,14.67,4.19,18.68,4.19,18.68Z"/><path id="1d21423e-07f6-4692-92b5-605cc9d9a3a7" data-name="path7018" class="3eb08099-37e3-408e-8fbf-b0891fe659aa" d="M1243.29,219.4c0,8.93-2.55,6.65,0,8.93s30.06,4.28,37.53,4,19.22-1.55,26.24-6.83c2.73-2.1,7.93-5,4.74-8.56-3.28-3.74-2.37-10.48-3.37-6.38-1.18,5-9.38,8.38-13.76,8.75s-20.5,2.19-25.24,2.64-2.73-1.64-26.15-2.55Z"/><path id="b82428b7-f1f4-4c75-9b79-99f38c1cf8ed" data-name="path7016" class="5f8b86fc-615a-46cb-8600-dcbc4f0c5929" d="M1160.3,212.2c-6.74,1.28-7.83-1-9.66,2.28s-2.28,8.38.36,10.29,13,4.56,18.22,4.56,36.81,1.64,42.09-.64,11.93-3.55,10.39-7.38-1.82-7.74-5.19-6.1-8.93,4.56-14.12,3.83-17.49.36-22.32,0-6.1-2.37-15.12-1.91c-1.64.09.73,1.09-1.46-2.19Z"/><path id="cd3f4c9a-9264-4adf-987c-166ae721ac1d" data-name="path7014" class="b854dccf-8350-472c-aeb0-ff80fd0a4714" d="M1224.43,203.55c7.29.09,10.57-6.38,11.21,3.64s6.56,15.12,3.37,16.58-6.74,8.47-7.93,2.92c-2-9.75-10.29-10.57-12.75-10.75C1192,213.3,1208.31,202.09,1224.43,203.55Z"/><path id="5a810386-6e0c-4f88-95bd-ef2e9cfbc9b4" data-name="path7020" class="b0948a7c-915f-47fb-910e-c8433a7e0e47" d="M1154.74,206.92c6.29,6.47,12.21,12.12,15.58,12.85s31.52,2.19,35.26,0,10.75-8.2,11.48-10,1.46-4.28,1.82-12.48,2.37-25.33,1.09-29.61-.46-6.2-1.09-4.28c-1,3.1-.36,4.28-4.83,6.74-4.19,2.37-.82,2.46-13.48,3.55-8.56.82-10.57-.36-17.13-1.82S1171,162.55,1171,159s6.29-8.93,3-6.74-10,8.2-10.75,10.39-4,3.64-5.1,5.83-1.64,5.38-3.1,8.56-4.56,10.2-4.46,14.12c.09,3.74-.27,5.65,1.46,11.39,1.91,5.74,2.73,4.37,2.73,4.37Z"/><path id="bc2c0099-6da7-4c87-b84d-e2d103be9991" data-name="path7022" class="326f0c91-d1cf-448b-9d06-28a0b58501b7" d="M1300,147c13.76,16.76,10.39,10.39,13.76,16.76,2.37,4.56,4.1,9.57,4.1,14.67-.09,9.57-5.19,22.87-8.2,27.51s-7.83,11.39-7.83,11.39c-.82,0,3-.73,0,1.09-4.74,2.82-29.34,4.46-34.89,2.82s-20.41,0-23.41-4.28-9.29-6.47-12.66-12.48-8.2-11-7.83-17.49-2.73-24.87,1.37-23.78a50.56,50.56,0,0,0,17.58,1.64c6.65-.73,23.78-3.92,30.06-5s19.31-6.47,22.68-8.2A16.42,16.42,0,0,0,1300,147Z"/><path id="a55635e5-2cea-40fa-9621-024dc00fa961" data-name="path4215" class="ba2776d0-d4a3-4868-a4e8-f4aa41135d7f" d="M1205.76,53.41c0-7.11,3.19-4,0-7.11s0,1-3.19-3-3.55-3-3.55-8.11,1.37-5.74,3.19-9.11S1212.41,17,1214.87,15s5.28-1.73,7.74-2,2.82-1.73,2.46-.36a14.82,14.82,0,0,1-5.28,6.74c-3.19,2.37-5.65,3.37-5.65,7.74s5.28,5.38,1.37,6.1-8.2,2-8.93,4.37-2.73,2.73-.91,5.1,3.19,2.73,3.19,5.1-3.1,5.65-3.1,5.65Z"/><path id="2633be07-03de-44a1-8a8c-95ae69b3346c" data-name="path4219" class="373d0f56-8e18-4c07-84e4-d5bb13bd69f4" d="M1181.8,104.06c7.74,14.21,2.82,17.86,2.82,17.86"/><path id="6ddb0b68-80ba-4180-8a8e-694c11319404" data-name="path4221" class="373d0f56-8e18-4c07-84e4-d5bb13bd69f4" d="M1184.26,98.69c17.22,32.07,7,38.54,7,38.54"/><path id="881779a8-e40b-4662-94ea-a8dbe4bfda1a" data-name="path4223" class="373d0f56-8e18-4c07-84e4-d5bb13bd69f4" d="M1267.89,90.94c2.82,22.32,16.13,20,14,23.32s-5.28,6.1-5.28,9.11,2.46,1,0,3-7.74,2.37-9.47,6.38l-1.73,4"/><path id="33b3913a-d90a-49c1-a33f-8b4b2fc8ddb6" data-name="path4225" class="373d0f56-8e18-4c07-84e4-d5bb13bd69f4" d="M1152.28,130.76c13.39-9.47,19.68.64,19.68.64"/><path id="df85ce12-e8d9-4cb3-851f-5d712ec02553" data-name="path4227" class="373d0f56-8e18-4c07-84e4-d5bb13bd69f4" d="M1152.74,203.73a229.81,229.81,0,0,0,18.4-43.91"/><path id="11aa10a5-4fdf-498f-8b19-afa29438aab5" data-name="path4229" class="373d0f56-8e18-4c07-84e4-d5bb13bd69f4" d="M1158.93,209.93c12.21-47.28,19.86-40.81,19.86-40.81"/><path id="917b0be9-851d-4165-afb5-2c7a6a7669df" data-name="path4231" class="373d0f56-8e18-4c07-84e4-d5bb13bd69f4" d="M1183.07,171.75c-6.74,9.29-4,4.74-7.47,10.48a38.4,38.4,0,0,0-5.19,12.94c-1,4.1-2.28,8.84-2.28,11s.73,13.39.73,13.39"/><path id="9d51be3b-8ae1-4402-98a3-8aae50d09c68" data-name="path4233" class="373d0f56-8e18-4c07-84e4-d5bb13bd69f4" d="M1188.27,173.39c-20.13,28.88-14.12,46.55-14.12,46.55"/><path id="4e5f313d-f70c-48e0-a567-0dbc0859260c" data-name="path4235" class="373d0f56-8e18-4c07-84e4-d5bb13bd69f4" d="M1189.45,172.94c-3,41.09-12.39,47.28-12.39,47.28"/><path id="6b58304e-fa8c-4188-ad77-d6a1fb4392b5" data-name="path4237" class="373d0f56-8e18-4c07-84e4-d5bb13bd69f4" d="M1200.2,173.39c-14.67,38.17-7.47,46.83-7.47,46.83"/><path id="7caf5224-ff03-4903-9f41-f001bd244952" data-name="path4239" class="373d0f56-8e18-4c07-84e4-d5bb13bd69f4" d="M1204.39,173.39c-1,12.39,1.28,2.82-1,12.39s-3.46,18.59-5.19,23.14-4.19,11.93-4.19,11.93"/><path id="29c8d80b-ac0c-4b59-80ae-7d3707f21db2" data-name="path4241" class="373d0f56-8e18-4c07-84e4-d5bb13bd69f4" d="M1205.85,173.21l1.73,46.1"/><path id="e7a11147-b702-48f7-b5f4-99c399406313" data-name="path4243" class="373d0f56-8e18-4c07-84e4-d5bb13bd69f4" d="M1213.32,171.48V213.3"/><path id="f5f565b0-f4ab-44db-a4bf-deabde19209c" data-name="path4245" class="373d0f56-8e18-4c07-84e4-d5bb13bd69f4" d="M1231.27,164.37c-1,15.49-1.28,9.29-1,16.95s.46,15.76,1.28,19.31,1.28,6.2,1.28,6.2"/><path id="bd546139-a19f-42e6-920c-e14dc01c030d" data-name="path4247" class="373d0f56-8e18-4c07-84e4-d5bb13bd69f4" d="M1237.19,165.28c-1,16.95-1.46,12.94-1,16.95s4.74,17.67,6.47,21.5,8.65,15.76,8.65,15.76"/><path id="3e3840ce-f92d-4df8-9eb8-3f30a7c16491" data-name="path4249" class="373d0f56-8e18-4c07-84e4-d5bb13bd69f4" d="M1243.66,165c0,12.39-.46,5.28,0,12.39s6.47,23.41,8.93,27.42,8.93,14.76,8.93,14.76"/><path id="0da099fc-02a9-4ae5-920b-7d7c2dfd4a87" data-name="path4251" class="373d0f56-8e18-4c07-84e4-d5bb13bd69f4" d="M1263.79,161.28c5,16,4.46,9.29,5.74,16.95a192.78,192.78,0,0,1,2.73,28.15,83.68,83.68,0,0,1-1,14.12"/><path id="02e49cf8-7ff7-41e3-8cc6-3b7ebb0a490c" data-name="path4253" class="373d0f56-8e18-4c07-84e4-d5bb13bd69f4" d="M1286.39,220.95s.73-14.58.73-18.59-4.74-27-10.48-43.46c11.39,16.95,13.67,17.22,14.94,23.41s3.19,19.13,3.19,25.33v12.66"/><path id="c2657bf9-0009-4744-84d8-9a09f6101392" data-name="path4255" class="373d0f56-8e18-4c07-84e4-d5bb13bd69f4" d="M1294.13,152.89c10.48,49.65,3.19,66.87,3.19,66.87"/><path id="5e7492c5-3869-477b-83e9-4314508b4af2" data-name="path4257" class="373d0f56-8e18-4c07-84e4-d5bb13bd69f4" d="M1296.59,150.71c17.67,37,6.47,65.14,6.47,65.14"/><path id="13321205-3699-4e41-b509-ef1a902bb126" data-name="path4259" class="373d0f56-8e18-4c07-84e4-d5bb13bd69f4" d="M1299.32,149.07c5.47,9.75,7.2,14.12,9.47,22.23s2.46,17.67,2.46,21.23-1,11.48-1,11.48"/><path id="3f925e56-2565-4d20-a194-cf60517601d5" data-name="path4261" class="373d0f56-8e18-4c07-84e4-d5bb13bd69f4" d="M1251.86,162.92c3.19,14.3,6.47,26.24,7.74,30.06s5.47,16.67,7.47,21a61.58,61.58,0,0,0,4.19,7.65"/><path id="5b1292f4-7ace-4e86-beae-939ee836dd51" data-name="path4263" class="c9da7228-d936-4616-87d1-8109fb7db58b" d="M1150.28,220.13c63.13,11.93,69.6-2.82,69.6-2.82"/><path id="dd92f5da-621c-4a42-a401-ee1cb9e065b1" data-name="path4265" class="8359a339-7f9c-4f10-bc1f-10cb71330838" d="M1243.66,220.68c50.11,11.93,62.68-.91,62.68-.91"/><path id="fe7adf29-3ebb-4fc2-83fb-c1993e10284f" data-name="path4267" class="373d0f56-8e18-4c07-84e4-d5bb13bd69f4" d="M1181,150.34c-2,3.37,0,2.64-2,3.37s-1.28-.91-2,.73-2.46,5-.46,7.38,6.74,5.74,9.47,6.47,12.12,3,18.13,2.19c3.92-.55,8.38-.27,10.93-4.56,1.28-2.1,1.73-7.74,1.73-7.74"/><path id="56acf6ec-dc30-4881-a60d-be1ec5edaac3" data-name="path4271" class="8966f3bc-bf9c-4a1e-a7bf-f9dcdf30b968" d="M1165.4,149.07c7.47,2.37,11.66,5.28,12.66,4.56s3.28,0,.82-2.1-8-5-4.74-4.1,9,4,10.2,5.74a11.64,11.64,0,0,0,4.74,3.55c1.37.55,3,.46,3-.73s2.37-1.46.36-2.64c-2,.73-8.29-7.2-6.47-5.38a14.32,14.32,0,0,0,8.75,6.47c.91.18,1.82-.82,2.64-.73-.46-1.46,0,0-1.28-2.28-.91-1.73-7.93-6.2-8.47-7.38.46-1.64,4.74-2.19,8.2.91s7.74,6.2,8.2,4.74,2.28-1.18-.73-4.28a35.32,35.32,0,0,0-9.2-7.2c-3-1.46-4.74-2.82-7.93-1.46s-3.74,2.19-6.2,1.91-2.73-.73-5.19.46-7.47,5-8.47,7.38c-1.18,2.55-.91,2.55-.91,2.55Z"/><path id="864930f3-2f3e-4e44-ba3e-6cbb83024052" data-name="path4273" class="8966f3bc-bf9c-4a1e-a7bf-f9dcdf30b968" d="M1239.47,142.33c.27,10.75-.27,11.66,1.28,11.93s3.74.73,3.74-1.46-1-7.65.27-9.29,5.74-7.38,5-6-4.46,4.1-2.73,4.74.73,2.82,3,.73,1.73-3.83,3.46-3.83,1.73,1.91,3,.46,3.19-4.56,1.28-1.64-3.19,2.82-2,2.82,3.19,2.19,4.46.73,3-4.28,4.19-3.83,6.74,3.1,7.74,2.19,4.19-4.1,5.74-3.83,8.65,3.37,6.2,4.74-5.47.27-6.47,2.19-1.28,5-3.46,6.47-4,1.46-8.2,1.18-9.66,1.64-10.93.27-2.73-3.1-4.46-3.1-4.19-1.91-5.19.27.46,4.74-1,5.47-4.74,1.91-4.74.73-.18-11.93-.18-11.93Z"/><path id="b7668bfd-f6a5-4994-8d10-648848a4240a" data-name="path4279" class="373d0f56-8e18-4c07-84e4-d5bb13bd69f4" d="M1297.32,143.33l2.73,3.37"/><path id="d47ef81b-3518-466d-827b-70ad534dc9a2" data-name="path4281" class="373d0f56-8e18-4c07-84e4-d5bb13bd69f4" d="M1235.19,151.71l2.28-.27"/><path id="107a5971-632d-44bd-89bd-5a745e075c6d" data-name="path4319" class="ac4f417a-43ed-4ab8-ab32-b6fc1e536701" d="M1238.74,150.34c-2.28-1.64-.73-.36-1.82-.64s-1.73,0-4.74,2.28-5.1,4.19-7.2,5.74-1.28.91-2,2-1.82,1.64-1.09,2.64a7.58,7.58,0,0,0,4.46,1.91c1.09-.09,6.56,1.28,8.29,1.28a106.06,106.06,0,0,0,11.84-.46c4.92-.55,16-3,19.22-3.46s10.84-1.55,14.58-2.82a110.86,110.86,0,0,0,11.66-4.65c3.83-1.82,6.1-2.28,7.93-4.65s2.64-1.55,1.82-2.37c-2.28-.82,3,.27-3.37-3.1-9.29-5-5.83-3.46-10.2-3.92-4-.36-8.2,1-13.76,1.91s-5.74.64-11.21,1.28c-4.28.55-11.84,2.73-15.67,3.55a43.93,43.93,0,0,0-8.75,3.46Z"/><path id="6f7076df-b6da-4f58-9bc0-afd27dee0e49" data-name="path4287" class="8966f3bc-bf9c-4a1e-a7bf-f9dcdf30b968" d="M1239.1,141.23c.91,13.21.18,13.21.91,13.21s3.37.82,4.37-.18-1.09-5.92-.36-8.29.18-3.74,3.19-6.38,4.19-3.74,3-2.73-5.83,4.92-4.92,4.92,2.64,3,3.55,1.82,1.73-1.37,2.82-3,.91-1.55,1.91-1.37,1.37,2,2.46.82,3.37-4.74,2.28-3.55-4,3.55-2.64,4,2.82,2.19,3.55,1.55,6.65-4.19,5.28-4.92-.91-2-2.46-1.55-3.64,1.73-4.92,1.73-1.55-1.73-2.82-2-3-1.37-5.1-.64a52.45,52.45,0,0,0-5.83,2.73,22.58,22.58,0,0,0-4.19,3c-.55.64.18,1.55.18,1.55"/><path id="874891be-4078-4f3b-8b3c-069bbbae77b4" data-name="path4289" class="2f0503d9-bd06-44e0-bc12-0b011af4c49f" d="M1165.31,148.61c-3.64,10-3.64,5-3.64,10s-2.92,8,0,5,6.83-8.56,9.38-10,5.1-1.18,2.55-1.46-8.29-3.55-8.29-3.55Z"/><path id="3ebc7014-b2e7-44f4-a4db-3d6a5bbf5b88" data-name="path4291" class="373d0f56-8e18-4c07-84e4-d5bb13bd69f4" d="M1278.09,125.75c13.67-.64,16.49,11.11,16.49,11.11"/><path id="5de6b867-264a-4326-b678-154da4abe2f0" data-name="path4269" class="373d0f56-8e18-4c07-84e4-d5bb13bd69f4" d="M1237.83,151.71c-6.47,3.37-7.74,3.37-7.93,5.74s1.46,3.55,3.46,3.55,13.21,0,16.4-.27,25.05-3.1,30.06-5,11.66-2.82,15.4-5.74a6.85,6.85,0,0,0,3-6.47"/><ellipse id="50c1dc01-001b-4fd3-9c6e-a959778130f6" data-name="path4277" class="b918f472-4566-47c9-83f0-a30ea01578d2" cx="1261.15" cy="151.53" rx="12.03" ry="5.65"/><rect id="5ebc7906-ebe7-45a2-ac89-927318abc82c" data-name="rect5617" class="a7818ec2-b6e1-45a9-96f2-5f13ef928038" x="1074.3" y="565.14" width="389.5" height="61.6"/><g class="4624f0db-3236-42cf-be0d-ca0b9435ac59"><path class="cf1aa565-eea2-44e3-9342-cb57f6c4f214" d="M1105.19,598.23h-6.67v5.45h7.75v1.66h-9.78V590h9.68v1.66h-7.65v5h6.67Z"/><path class="cf1aa565-eea2-44e3-9342-cb57f6c4f214" d="M1113.82,595.85l3.69-5.89h2.39l-4.87,7.63,5,7.75h-2.41l-3.79-6-3.81,6h-2.4l5-7.75-4.88-7.62h2.38Z"/><path class="cf1aa565-eea2-44e3-9342-cb57f6c4f214" d="M1133,591.62h-4.95v13.72h-2V591.62h-4.94V590H1133Z"/><path class="cf1aa565-eea2-44e3-9342-cb57f6c4f214" d="M1140.95,599.11h-3.62v6.22h-2V590h5.1a6,6,0,0,1,4,1.18,4.26,4.26,0,0,1,1.4,3.44,4.14,4.14,0,0,1-.78,2.5,4.63,4.63,0,0,1-2.16,1.59l3.62,6.53v.13h-2.18Zm-3.62-1.66h3.12a3.52,3.52,0,0,0,2.41-.78,2.64,2.64,0,0,0,.89-2.09,2.78,2.78,0,0,0-.85-2.19,3.61,3.61,0,0,0-2.46-.77h-3.11Z"/><path class="cf1aa565-eea2-44e3-9342-cb57f6c4f214" d="M1157.14,601.31h-6.45l-1.45,4h-2.09L1153,590h1.78l5.89,15.38h-2.08Zm-5.84-1.66h5.23l-2.62-7.19Z"/><path class="cf1aa565-eea2-44e3-9342-cb57f6c4f214" d="M1174,600.45a5.66,5.66,0,0,1-1.8,3.76,5.92,5.92,0,0,1-4,1.33,5.43,5.43,0,0,1-4.37-2,7.85,7.85,0,0,1-1.64-5.23v-1.48a8.75,8.75,0,0,1,.77-3.77,5.72,5.72,0,0,1,2.17-2.5,6.05,6.05,0,0,1,3.26-.87,5.57,5.57,0,0,1,3.93,1.37,5.73,5.73,0,0,1,1.72,3.79h-2a4.42,4.42,0,0,0-1.15-2.67,3.48,3.48,0,0,0-2.47-.83,3.63,3.63,0,0,0-3.05,1.44,6.59,6.59,0,0,0-1.1,4.09v1.49a6.77,6.77,0,0,0,1,4,3.38,3.38,0,0,0,2.93,1.48,3.91,3.91,0,0,0,2.6-.77,4.24,4.24,0,0,0,1.2-2.67Z"/><path class="cf1aa565-eea2-44e3-9342-cb57f6c4f214" d="M1187.58,590v10.46a4.9,4.9,0,0,1-1.37,3.56,5.52,5.52,0,0,1-3.68,1.55l-.54,0a5.77,5.77,0,0,1-4-1.36,4.87,4.87,0,0,1-1.52-3.75V590h2v10.41a3.21,3.21,0,0,0,3.54,3.52,3.56,3.56,0,0,0,2.64-.92,3.51,3.51,0,0,0,.92-2.59V590Z"/><path class="cf1aa565-eea2-44e3-9342-cb57f6c4f214" d="M1196.43,599.11h-3.62v6.22h-2V590h5.1a6,6,0,0,1,4,1.18,4.26,4.26,0,0,1,1.4,3.44,4.14,4.14,0,0,1-.78,2.5,4.63,4.63,0,0,1-2.16,1.59l3.62,6.53v.13h-2.18Zm-3.62-1.66h3.12a3.52,3.52,0,0,0,2.41-.78,2.64,2.64,0,0,0,.89-2.09,2.78,2.78,0,0,0-.85-2.19,3.61,3.61,0,0,0-2.46-.77h-3.11Z"/><path class="cf1aa565-eea2-44e3-9342-cb57f6c4f214" d="M1209.77,599.11h-3.62v6.22h-2V590h5.1a6,6,0,0,1,4,1.18,4.26,4.26,0,0,1,1.4,3.44,4.14,4.14,0,0,1-.78,2.5,4.63,4.63,0,0,1-2.16,1.59l3.62,6.53v.13h-2.18Zm-3.62-1.66h3.12a3.52,3.52,0,0,0,2.41-.78,2.64,2.64,0,0,0,.89-2.09,2.78,2.78,0,0,0-.85-2.19,3.61,3.61,0,0,0-2.46-.77h-3.11Z"/><path class="cf1aa565-eea2-44e3-9342-cb57f6c4f214" d="M1219.64,605.33h-2V590h2Z"/><path class="cf1aa565-eea2-44e3-9342-cb57f6c4f214" d="M1234.67,600.45a5.66,5.66,0,0,1-1.8,3.76,5.92,5.92,0,0,1-4,1.33,5.43,5.43,0,0,1-4.37-2,7.85,7.85,0,0,1-1.64-5.23v-1.48a8.75,8.75,0,0,1,.77-3.77,5.72,5.72,0,0,1,2.17-2.5,6.05,6.05,0,0,1,3.26-.87,5.57,5.57,0,0,1,3.93,1.37,5.73,5.73,0,0,1,1.72,3.79h-2a4.42,4.42,0,0,0-1.15-2.67,3.48,3.48,0,0,0-2.47-.83,3.63,3.63,0,0,0-3.05,1.44,6.59,6.59,0,0,0-1.1,4.09v1.49a6.77,6.77,0,0,0,1,4,3.38,3.38,0,0,0,2.93,1.48,3.91,3.91,0,0,0,2.6-.77,4.24,4.24,0,0,0,1.2-2.67Z"/><path class="cf1aa565-eea2-44e3-9342-cb57f6c4f214" d="M1248.28,590v10.46a4.9,4.9,0,0,1-1.37,3.56,5.52,5.52,0,0,1-3.68,1.55l-.54,0a5.77,5.77,0,0,1-4-1.36,4.87,4.87,0,0,1-1.52-3.75V590h2v10.41a3.21,3.21,0,0,0,3.54,3.52,3.56,3.56,0,0,0,2.64-.92,3.51,3.51,0,0,0,.92-2.59V590Z"/><path class="cf1aa565-eea2-44e3-9342-cb57f6c4f214" d="M1253.53,603.67h7.3v1.66h-9.34V590h2Z"/><path class="cf1aa565-eea2-44e3-9342-cb57f6c4f214" d="M1271.85,601.31h-6.45l-1.45,4h-2.09l5.88-15.38h1.78l5.89,15.38h-2.08Zm-5.84-1.66h5.23l-2.62-7.19Z"/><path class="cf1aa565-eea2-44e3-9342-cb57f6c4f214" d="M1283.12,599.11h-3.62v6.22h-2V590h5.1a6,6,0,0,1,4,1.18,4.26,4.26,0,0,1,1.4,3.44,4.14,4.14,0,0,1-.78,2.5,4.63,4.63,0,0,1-2.16,1.59l3.62,6.53v.13h-2.18Zm-3.62-1.66h3.12a3.52,3.52,0,0,0,2.41-.78,2.64,2.64,0,0,0,.89-2.09,2.78,2.78,0,0,0-.85-2.19,3.61,3.61,0,0,0-2.46-.77h-3.11Z"/><path class="cf1aa565-eea2-44e3-9342-cb57f6c4f214" d="M1304.67,601.31h-6.45l-1.45,4h-2.09l5.88-15.38h1.78l5.89,15.38h-2.08Zm-5.84-1.66h5.23l-2.62-7.19Z"/><path class="cf1aa565-eea2-44e3-9342-cb57f6c4f214" d="M1321.51,600.45a5.66,5.66,0,0,1-1.8,3.76,5.92,5.92,0,0,1-4,1.33,5.43,5.43,0,0,1-4.37-2,7.85,7.85,0,0,1-1.64-5.23v-1.48a8.75,8.75,0,0,1,.77-3.77,5.72,5.72,0,0,1,2.17-2.5,6.05,6.05,0,0,1,3.26-.87,5.57,5.57,0,0,1,3.93,1.37,5.73,5.73,0,0,1,1.72,3.79h-2a4.42,4.42,0,0,0-1.15-2.67,3.48,3.48,0,0,0-2.47-.83,3.63,3.63,0,0,0-3.05,1.44,6.59,6.59,0,0,0-1.1,4.09v1.49a6.77,6.77,0,0,0,1,4,3.38,3.38,0,0,0,2.93,1.48,3.91,3.91,0,0,0,2.6-.77,4.24,4.24,0,0,0,1.2-2.67Z"/><path class="cf1aa565-eea2-44e3-9342-cb57f6c4f214" d="M1334.61,591.62h-4.95v13.72h-2V591.62h-4.94V590h11.91Z"/><path class="cf1aa565-eea2-44e3-9342-cb57f6c4f214" d="M1339.07,605.33h-2V590h2Z"/><path class="cf1aa565-eea2-44e3-9342-cb57f6c4f214" d="M1347.88,602.64l4.4-12.68h2.22l-5.71,15.38H1347l-5.7-15.38h2.21Z"/><path class="cf1aa565-eea2-44e3-9342-cb57f6c4f214" d="M1358.74,605.33h-2V590h2Z"/><path class="cf1aa565-eea2-44e3-9342-cb57f6c4f214" d="M1372.79,591.62h-4.95v13.72h-2V591.62h-4.94V590h11.91Z"/><path class="cf1aa565-eea2-44e3-9342-cb57f6c4f214" d="M1377.25,605.33h-2V590h2Z"/><path class="cf1aa565-eea2-44e3-9342-cb57f6c4f214" d="M1389.66,598.23H1383v5.45h7.75v1.66H1381V590h9.68v1.66H1383v5h6.67Z"/><path class="cf1aa565-eea2-44e3-9342-cb57f6c4f214" d="M1397.81,598.48a9.56,9.56,0,0,1-3.8-1.84,3.52,3.52,0,0,1-1.19-2.7,3.72,3.72,0,0,1,1.45-3,5.79,5.79,0,0,1,3.78-1.19,6.32,6.32,0,0,1,2.83.61,4.65,4.65,0,0,1,1.92,1.69,4.32,4.32,0,0,1,.68,2.36h-2a2.81,2.81,0,0,0-.89-2.2,3.62,3.62,0,0,0-2.51-.8,3.7,3.7,0,0,0-2.34.66,2.2,2.2,0,0,0-.84,1.83,2,2,0,0,0,.8,1.59,7.84,7.84,0,0,0,2.72,1.19,12.66,12.66,0,0,1,3,1.19,4.55,4.55,0,0,1,1.61,1.52,3.86,3.86,0,0,1,.52,2,3.59,3.59,0,0,1-1.46,3,6.23,6.23,0,0,1-3.9,1.12,7.24,7.24,0,0,1-3-.61,5,5,0,0,1-2.12-1.66,4.05,4.05,0,0,1-.75-2.4h2a2.65,2.65,0,0,0,1,2.2,4.34,4.34,0,0,0,2.75.81,4,4,0,0,0,2.46-.66,2.12,2.12,0,0,0,.86-1.78,2.09,2.09,0,0,0-.79-1.75A9.14,9.14,0,0,0,1397.81,598.48Z"/></g><g class="4624f0db-3236-42cf-be0d-ca0b9435ac59"><path class="ec9b9bbf-287f-4c54-8496-bdcbb9d7bc8e" d="M67.93,382.58H54.52l-3,8.37H47.15l12.23-32h3.69l12.25,32H71Zm-12.14-3.45H66.68l-5.45-15Z"/><path class="ec9b9bbf-287f-4c54-8496-bdcbb9d7bc8e" d="M102.94,380.8a11.75,11.75,0,0,1-3.75,7.83,12.3,12.3,0,0,1-8.39,2.76,11.29,11.29,0,0,1-9.09-4.06q-3.42-4.06-3.42-10.87v-3.07a18.19,18.19,0,0,1,1.59-7.84,11.89,11.89,0,0,1,4.52-5.19,12.59,12.59,0,0,1,6.77-1.81,11.58,11.58,0,0,1,8.18,2.84,11.9,11.9,0,0,1,3.58,7.87H98.69q-.55-3.83-2.39-5.55A7.22,7.22,0,0,0,91.17,362a7.56,7.56,0,0,0-6.34,3q-2.3,3-2.3,8.5v3.1a14.09,14.09,0,0,0,2.18,8.28,7,7,0,0,0,6.09,3.08,8.13,8.13,0,0,0,5.4-1.59q1.88-1.59,2.5-5.54Z"/><path class="ec9b9bbf-287f-4c54-8496-bdcbb9d7bc8e" d="M126.38,382.58H113l-3,8.37H105.6l12.23-32h3.69l12.25,32h-4.33Zm-12.14-3.45h10.88l-5.45-15Z"/><path class="ec9b9bbf-287f-4c54-8496-bdcbb9d7bc8e" d="M138.07,390.94V359h9a14.57,14.57,0,0,1,7.39,1.84,12.48,12.48,0,0,1,5,5.25,17.07,17.07,0,0,1,1.77,7.82v2a17.13,17.13,0,0,1-1.75,7.93,12.29,12.29,0,0,1-5,5.23,15.5,15.5,0,0,1-7.55,1.87Zm4.22-28.52v25.08h4.44a9.67,9.67,0,0,0,7.6-3q2.72-3,2.72-8.64V374q0-5.45-2.56-8.47a9.13,9.13,0,0,0-7.27-3.07Z"/><path class="ec9b9bbf-287f-4c54-8496-bdcbb9d7bc8e" d="M185.7,376.16H171.82v11.33h16.12v3.45H167.6V359h20.12v3.45h-15.9v10.3H185.7Z"/><path class="ec9b9bbf-287f-4c54-8496-bdcbb9d7bc8e" d="M198.65,359l10.47,26.08L219.58,359h5.48v32h-4.22V378.49l.4-13.44-10.51,25.89h-3.23L197,365.12l.42,13.37v12.45H193.2V359Z"/><path class="ec9b9bbf-287f-4c54-8496-bdcbb9d7bc8e" d="M237,390.94h-4.22V359H237Z"/><path class="ec9b9bbf-287f-4c54-8496-bdcbb9d7bc8e" d="M268.31,380.8a11.75,11.75,0,0,1-3.75,7.83,12.3,12.3,0,0,1-8.39,2.76,11.29,11.29,0,0,1-9.09-4.06q-3.42-4.06-3.42-10.87v-3.07a18.19,18.19,0,0,1,1.59-7.84,11.89,11.89,0,0,1,4.52-5.19,12.59,12.59,0,0,1,6.77-1.81,11.58,11.58,0,0,1,8.18,2.84,11.9,11.9,0,0,1,3.58,7.87h-4.24q-.55-3.83-2.39-5.55a7.22,7.22,0,0,0-5.13-1.72,7.56,7.56,0,0,0-6.34,3q-2.3,3-2.3,8.5v3.1a14.09,14.09,0,0,0,2.18,8.28,7,7,0,0,0,6.09,3.08,8.13,8.13,0,0,0,5.4-1.59q1.88-1.59,2.5-5.54Z"/><path class="ec9b9bbf-287f-4c54-8496-bdcbb9d7bc8e" d="M303.31,376.16H289.44v11.33h16.12v3.45H285.21V359h20.12v3.45h-15.9v10.3h13.87Z"/><path class="ec9b9bbf-287f-4c54-8496-bdcbb9d7bc8e" d="M321.25,371.22,328.93,359h5l-10.11,15.85,10.36,16.12h-5l-7.87-12.47-7.92,12.47h-5l10.38-16.12L308.59,359h4.95Z"/><path class="ec9b9bbf-287f-4c54-8496-bdcbb9d7bc8e" d="M362,380.8a11.75,11.75,0,0,1-3.75,7.83,12.3,12.3,0,0,1-8.39,2.76,11.29,11.29,0,0,1-9.09-4.06q-3.42-4.06-3.42-10.87v-3.07a18.19,18.19,0,0,1,1.59-7.84,11.89,11.89,0,0,1,4.52-5.19,12.59,12.59,0,0,1,6.77-1.81,11.58,11.58,0,0,1,8.18,2.84,11.9,11.9,0,0,1,3.58,7.87H357.8q-.55-3.83-2.39-5.55a7.22,7.22,0,0,0-5.13-1.72,7.56,7.56,0,0,0-6.34,3q-2.3,3-2.3,8.5v3.1a14.09,14.09,0,0,0,2.18,8.28,7,7,0,0,0,6.09,3.08,8.13,8.13,0,0,0,5.4-1.59q1.88-1.59,2.5-5.54Z"/><path class="ec9b9bbf-287f-4c54-8496-bdcbb9d7bc8e" d="M385.9,376.16H372v11.33h16.12v3.45H367.8V359h20.12v3.45H372v10.3H385.9Z"/><path class="ec9b9bbf-287f-4c54-8496-bdcbb9d7bc8e" d="M397.64,387.49h15.17v3.45H393.39V359h4.24Z"/><path class="ec9b9bbf-287f-4c54-8496-bdcbb9d7bc8e" d="M421.87,387.49H437v3.45H417.62V359h4.24Z"/><path class="ec9b9bbf-287f-4c54-8496-bdcbb9d7bc8e" d="M460,376.16H446.08v11.33h16.12v3.45H441.85V359H462v3.45h-15.9v10.3H460Z"/><path class="ec9b9bbf-287f-4c54-8496-bdcbb9d7bc8e" d="M492.05,390.94h-4.24l-16.12-24.64v24.64h-4.24V359h4.24l16.16,24.75V359h4.2Z"/><path class="ec9b9bbf-287f-4c54-8496-bdcbb9d7bc8e" d="M523.1,380.8a11.75,11.75,0,0,1-3.75,7.83,12.3,12.3,0,0,1-8.39,2.76,11.29,11.29,0,0,1-9.09-4.06q-3.42-4.06-3.42-10.87v-3.07a18.19,18.19,0,0,1,1.59-7.84,11.89,11.89,0,0,1,4.52-5.19,12.59,12.59,0,0,1,6.77-1.81,11.58,11.58,0,0,1,8.18,2.84,11.9,11.9,0,0,1,3.58,7.87h-4.24q-.55-3.83-2.39-5.55a7.22,7.22,0,0,0-5.13-1.72,7.56,7.56,0,0,0-6.34,3q-2.3,3-2.3,8.5v3.1a14.09,14.09,0,0,0,2.18,8.28,7,7,0,0,0,6.09,3.08,8.13,8.13,0,0,0,5.4-1.59q1.88-1.59,2.5-5.54Z"/><path class="ec9b9bbf-287f-4c54-8496-bdcbb9d7bc8e" d="M547,376.16H533.08v11.33H549.2v3.45H528.86V359H549v3.45h-15.9v10.3H547Z"/><path class="ec9b9bbf-287f-4c54-8496-bdcbb9d7bc8e" d="M569.82,378.43v12.52H565.6V359h11.81q5.25,0,8.23,2.68a9.08,9.08,0,0,1,3,7.09,9,9,0,0,1-2.91,7.17q-2.91,2.51-8.34,2.51Zm0-3.45h7.59a7.59,7.59,0,0,0,5.19-1.59,5.83,5.83,0,0,0,1.8-4.61,6,6,0,0,0-1.8-4.57,7.11,7.11,0,0,0-4.95-1.78h-7.83Z"/><path class="ec9b9bbf-287f-4c54-8496-bdcbb9d7bc8e" d="M605.75,378h-7.52v12.93H594V359h10.6q5.41,0,8.32,2.46t2.91,7.16a8.6,8.6,0,0,1-1.62,5.2,9.64,9.64,0,0,1-4.5,3.32l7.52,13.57v.26H612.7Zm-7.52-3.45h6.49a7.32,7.32,0,0,0,5-1.63,5.5,5.5,0,0,0,1.86-4.36,5.79,5.79,0,0,0-1.77-4.55,7.5,7.5,0,0,0-5.11-1.61h-6.46Z"/><path class="ec9b9bbf-287f-4c54-8496-bdcbb9d7bc8e" d="M646.36,376a19.75,19.75,0,0,1-1.58,8.2,12,12,0,0,1-4.49,5.35,12.38,12.38,0,0,1-18-5.3,19,19,0,0,1-1.66-8V374a19.52,19.52,0,0,1,1.6-8.15,11.87,11.87,0,0,1,11.26-7.29,12.42,12.42,0,0,1,6.78,1.86,12,12,0,0,1,4.52,5.38,19.85,19.85,0,0,1,1.58,8.2Zm-4.2-2.06q0-5.69-2.29-8.73a7.55,7.55,0,0,0-6.4-3,7.46,7.46,0,0,0-6.3,3q-2.3,3-2.36,8.44V376q0,5.51,2.32,8.66a8.14,8.14,0,0,0,12.72.18q2.24-3,2.31-8.53Z"/><path class="ec9b9bbf-287f-4c54-8496-bdcbb9d7bc8e" d="M676.33,386.75a9.75,9.75,0,0,1-4.54,3.48,18.37,18.37,0,0,1-6.78,1.15,13.17,13.17,0,0,1-6.95-1.83,12.21,12.21,0,0,1-4.69-5.21,18,18,0,0,1-1.7-7.84v-2.79q0-7.22,3.38-11.2t9.49-4a12.16,12.16,0,0,1,8.07,2.56,11.14,11.14,0,0,1,3.74,7.26h-4.22q-1.19-6.37-7.56-6.37a7.48,7.48,0,0,0-6.43,3q-2.19,3-2.21,8.63v2.62q0,5.38,2.46,8.56a8,8,0,0,0,6.66,3.18,14.69,14.69,0,0,0,4.16-.53,6.43,6.43,0,0,0,2.95-1.77v-7.16h-7.41V375h11.61Z"/><path class="ec9b9bbf-287f-4c54-8496-bdcbb9d7bc8e" d="M695.11,378h-7.52v12.93h-4.24V359h10.6q5.41,0,8.32,2.46t2.91,7.16a8.6,8.6,0,0,1-1.62,5.2,9.64,9.64,0,0,1-4.5,3.32l7.52,13.57v.26h-4.53Zm-7.52-3.45h6.49a7.32,7.32,0,0,0,5-1.63,5.5,5.5,0,0,0,1.86-4.36,5.79,5.79,0,0,0-1.77-4.55,7.5,7.5,0,0,0-5.11-1.61h-6.46Z"/><path class="ec9b9bbf-287f-4c54-8496-bdcbb9d7bc8e" d="M728.77,382.58H715.36l-3,8.37H708l12.23-32h3.69l12.25,32h-4.33Zm-12.14-3.45h10.88l-5.45-15Z"/><path class="ec9b9bbf-287f-4c54-8496-bdcbb9d7bc8e" d="M745.92,359l10.47,26.08L766.86,359h5.48v32h-4.22V378.49l.4-13.44L758,390.94h-3.23l-10.49-25.82.42,13.37v12.45h-4.22V359Z"/><path class="ec9b9bbf-287f-4c54-8496-bdcbb9d7bc8e" d="M785.24,359l10.47,26.08L806.17,359h5.47v32h-4.22V378.49l.4-13.44-10.51,25.89h-3.23l-10.49-25.82.42,13.37v12.45h-4.22V359Z"/><path class="ec9b9bbf-287f-4c54-8496-bdcbb9d7bc8e" d="M837.19,376.16H823.32v11.33h16.12v3.45H819.1V359h20.12v3.45h-15.9v10.3h13.87Z"/></g><g class="4624f0db-3236-42cf-be0d-ca0b9435ac59"><path class="ec9b9bbf-287f-4c54-8496-bdcbb9d7bc8e" d="M69.86,422a13.17,13.17,0,0,1-1.06,5.47,8,8,0,0,1-3,3.56,8.26,8.26,0,0,1-12-3.54,12.64,12.64,0,0,1-1.11-5.31v-1.54a13,13,0,0,1,1.07-5.43,7.91,7.91,0,0,1,7.5-4.86,8.29,8.29,0,0,1,4.52,1.24,8,8,0,0,1,3,3.59,13.23,13.23,0,0,1,1.06,5.47Zm-2.8-1.38a9.54,9.54,0,0,0-1.52-5.82,5,5,0,0,0-4.27-2,5,5,0,0,0-4.2,2,9.35,9.35,0,0,0-1.58,5.63V422A9.56,9.56,0,0,0,57,427.76a5.42,5.42,0,0,0,8.48.12,9.5,9.5,0,0,0,1.54-5.69Z"/><path class="ec9b9bbf-287f-4c54-8496-bdcbb9d7bc8e" d="M90.49,432H87.66L76.92,415.53V432H74.09V410.64h2.83l10.77,16.5v-16.5h2.8Z"/><path class="ec9b9bbf-287f-4c54-8496-bdcbb9d7bc8e" d="M98.32,429.66h10.11V432H95.49V410.64h2.83Z"/><path class="ec9b9bbf-287f-4c54-8496-bdcbb9d7bc8e" d="M114.66,432h-2.81V410.64h2.81Z"/><path class="ec9b9bbf-287f-4c54-8496-bdcbb9d7bc8e" d="M136.21,432h-2.83l-10.75-16.42V432h-2.83V410.64h2.83l10.77,16.5v-16.5h2.8Z"/><path class="ec9b9bbf-287f-4c54-8496-bdcbb9d7bc8e" d="M153.27,422.1H144v7.55h10.75V432H141.21V410.64h13.41v2.3H144v6.87h9.25Z"/><path class="ec9b9bbf-287f-4c54-8496-bdcbb9d7bc8e" d="M168.52,423.61V432H165.7V410.64h7.87a7.92,7.92,0,0,1,5.49,1.79,6.05,6.05,0,0,1,2,4.73,6,6,0,0,1-1.94,4.78,8.27,8.27,0,0,1-5.56,1.68Zm0-2.3h5.06a5.06,5.06,0,0,0,3.46-1.06,3.88,3.88,0,0,0,1.2-3.07,4,4,0,0,0-1.2-3,4.74,4.74,0,0,0-3.3-1.19h-5.22Z"/><path class="ec9b9bbf-287f-4c54-8496-bdcbb9d7bc8e" d="M187.47,429.66h10.11V432H184.64V410.64h2.83Z"/><path class="ec9b9bbf-287f-4c54-8496-bdcbb9d7bc8e" d="M212.86,426.38h-8.94l-2,5.58H199l8.15-21.31h2.46L217.78,432H214.9Zm-8.09-2.3H212l-3.64-10Z"/><path class="ec9b9bbf-287f-4c54-8496-bdcbb9d7bc8e" d="M233.51,412.94h-6.86v19h-2.8v-19H217v-2.3h16.51Z"/><path class="ec9b9bbf-287f-4c54-8496-bdcbb9d7bc8e" d="M248.45,422.54h-9V432h-2.81V410.64H249.9v2.3H239.49v7.3h9Z"/><path class="ec9b9bbf-287f-4c54-8496-bdcbb9d7bc8e" d="M269.69,422a13.17,13.17,0,0,1-1.06,5.47,8,8,0,0,1-3,3.56,8.26,8.26,0,0,1-12-3.54,12.64,12.64,0,0,1-1.11-5.31v-1.54a13,13,0,0,1,1.07-5.43,7.91,7.91,0,0,1,7.5-4.86,8.29,8.29,0,0,1,4.52,1.24,8,8,0,0,1,3,3.59,13.23,13.23,0,0,1,1.06,5.47Zm-2.8-1.38a9.54,9.54,0,0,0-1.52-5.82,5,5,0,0,0-4.27-2,5,5,0,0,0-4.2,2,9.35,9.35,0,0,0-1.58,5.63V422a9.56,9.56,0,0,0,1.55,5.78,5.42,5.42,0,0,0,8.48.12,9.5,9.5,0,0,0,1.54-5.69Z"/><path class="ec9b9bbf-287f-4c54-8496-bdcbb9d7bc8e" d="M281.74,423.33h-5V432H273.9V410.64H281a8.37,8.37,0,0,1,5.55,1.64,5.9,5.9,0,0,1,1.94,4.77,5.73,5.73,0,0,1-1.08,3.47,6.43,6.43,0,0,1-3,2.21l5,9V432h-3Zm-5-2.3H281a4.88,4.88,0,0,0,3.33-1.08,3.67,3.67,0,0,0,1.24-2.9,3.86,3.86,0,0,0-1.18-3,5,5,0,0,0-3.41-1.07h-4.31Z"/><path class="ec9b9bbf-287f-4c54-8496-bdcbb9d7bc8e" d="M296,410.64,303,428l7-17.39h3.65V432h-2.81v-8.3l.26-9-7,17.26h-2.15l-7-17.21.28,8.91V432H292.4V410.64Z"/><path class="ec9b9bbf-287f-4c54-8496-bdcbb9d7bc8e" d="M337.81,422.54h-9V432H326V410.64h13.22v2.3H328.85v7.3h9Z"/><path class="ec9b9bbf-287f-4c54-8496-bdcbb9d7bc8e" d="M359,422a13.17,13.17,0,0,1-1.06,5.47,8,8,0,0,1-3,3.56,8.26,8.26,0,0,1-12-3.54,12.64,12.64,0,0,1-1.11-5.31v-1.54a13,13,0,0,1,1.07-5.43,7.91,7.91,0,0,1,7.5-4.86,8.29,8.29,0,0,1,4.52,1.24,8,8,0,0,1,3,3.59,13.23,13.23,0,0,1,1.06,5.47Zm-2.8-1.38a9.54,9.54,0,0,0-1.52-5.82,5,5,0,0,0-4.27-2,5,5,0,0,0-4.2,2,9.35,9.35,0,0,0-1.58,5.63V422a9.56,9.56,0,0,0,1.55,5.78,5.42,5.42,0,0,0,8.48.12,9.5,9.5,0,0,0,1.54-5.69Z"/><path class="ec9b9bbf-287f-4c54-8496-bdcbb9d7bc8e" d="M371.1,423.33h-5V432h-2.83V410.64h7.07a8.37,8.37,0,0,1,5.55,1.64,5.9,5.9,0,0,1,1.94,4.77,5.73,5.73,0,0,1-1.08,3.47,6.43,6.43,0,0,1-3,2.21l5,9V432h-3Zm-5-2.3h4.32a4.88,4.88,0,0,0,3.33-1.08A3.67,3.67,0,0,0,375,417a3.86,3.86,0,0,0-1.18-3,5,5,0,0,0-3.41-1.07h-4.31Z"/><path class="ec9b9bbf-287f-4c54-8496-bdcbb9d7bc8e" d="M404.88,425.19a7.84,7.84,0,0,1-2.5,5.22,8.2,8.2,0,0,1-5.59,1.84,7.52,7.52,0,0,1-6.06-2.71,10.88,10.88,0,0,1-2.28-7.25v-2a12.13,12.13,0,0,1,1.06-5.23,7.94,7.94,0,0,1,3-3.46,8.4,8.4,0,0,1,4.52-1.21,7.72,7.72,0,0,1,5.45,1.9,7.93,7.93,0,0,1,2.39,5.25h-2.83a6.12,6.12,0,0,0-1.59-3.7,4.81,4.81,0,0,0-3.42-1.15,5,5,0,0,0-4.23,2,9.13,9.13,0,0,0-1.53,5.67v2.07a9.39,9.39,0,0,0,1.45,5.52,4.69,4.69,0,0,0,4.06,2.05,5.42,5.42,0,0,0,3.6-1.06,5.89,5.89,0,0,0,1.66-3.7Z"/><path class="ec9b9bbf-287f-4c54-8496-bdcbb9d7bc8e" d="M425.14,422a13.17,13.17,0,0,1-1.06,5.47,8,8,0,0,1-3,3.56,8.26,8.26,0,0,1-12-3.54,12.64,12.64,0,0,1-1.11-5.31v-1.54a13,13,0,0,1,1.07-5.43,7.91,7.91,0,0,1,7.5-4.86,8.29,8.29,0,0,1,4.52,1.24,8,8,0,0,1,3,3.59,13.23,13.23,0,0,1,1.06,5.47Zm-2.8-1.38a9.54,9.54,0,0,0-1.52-5.82,5,5,0,0,0-4.27-2,5,5,0,0,0-4.2,2,9.35,9.35,0,0,0-1.58,5.63V422a9.56,9.56,0,0,0,1.55,5.78,5.42,5.42,0,0,0,8.48.12,9.5,9.5,0,0,0,1.54-5.69Z"/><path class="ec9b9bbf-287f-4c54-8496-bdcbb9d7bc8e" d="M432.19,429.66h10.11V432H429.36V410.64h2.83Z"/><path class="ec9b9bbf-287f-4c54-8496-bdcbb9d7bc8e" d="M448.35,429.66h10.11V432H445.52V410.64h2.83Z"/><path class="ec9b9bbf-287f-4c54-8496-bdcbb9d7bc8e" d="M473.73,422.1h-9.25v7.55h10.75V432H461.67V410.64h13.41v2.3h-10.6v6.87h9.25Z"/><path class="ec9b9bbf-287f-4c54-8496-bdcbb9d7bc8e" d="M494.49,429.16a6.51,6.51,0,0,1-3,2.32,12.25,12.25,0,0,1-4.52.77,8.77,8.77,0,0,1-4.63-1.22,8.15,8.15,0,0,1-3.13-3.48,12,12,0,0,1-1.14-5.23v-1.86q0-4.81,2.25-7.46a7.84,7.84,0,0,1,6.33-2.65,8.11,8.11,0,0,1,5.38,1.71,7.43,7.43,0,0,1,2.49,4.84h-2.81q-.79-4.25-5-4.25a5,5,0,0,0-4.29,2,9.68,9.68,0,0,0-1.47,5.75v1.74a9.07,9.07,0,0,0,1.64,5.71,5.32,5.32,0,0,0,4.44,2.12,9.84,9.84,0,0,0,2.77-.35,4.29,4.29,0,0,0,2-1.18v-4.78h-4.94v-2.3h7.74Z"/><path class="ec9b9bbf-287f-4c54-8496-bdcbb9d7bc8e" d="M511.25,422.1H502v7.55h10.75V432H499.18V410.64h13.41v2.3H502v6.87h9.25Z"/><path class="ec9b9bbf-287f-4c54-8496-bdcbb9d7bc8e" d="M530,422.45a13.22,13.22,0,0,1-5.27-2.55,4.87,4.87,0,0,1-1.65-3.74,5.15,5.15,0,0,1,2-4.17,8,8,0,0,1,5.24-1.65,8.76,8.76,0,0,1,3.92.85,6.45,6.45,0,0,1,2.67,2.34,6,6,0,0,1,.95,3.26H535a3.89,3.89,0,0,0-1.23-3,5,5,0,0,0-3.47-1.11,5.13,5.13,0,0,0-3.25.92,3.06,3.06,0,0,0-1.17,2.54,2.75,2.75,0,0,0,1.11,2.21,10.85,10.85,0,0,0,3.77,1.65,17.49,17.49,0,0,1,4.16,1.65,6.32,6.32,0,0,1,2.23,2.1,5.36,5.36,0,0,1,.73,2.83,5,5,0,0,1-2,4.15,8.63,8.63,0,0,1-5.41,1.56,10.05,10.05,0,0,1-4.1-.84,6.91,6.91,0,0,1-2.94-2.31,5.62,5.62,0,0,1-1-3.32h2.83a3.67,3.67,0,0,0,1.43,3.05,6,6,0,0,0,3.82,1.12,5.54,5.54,0,0,0,3.42-.91,3,3,0,0,0,1.19-2.47,2.89,2.89,0,0,0-1.1-2.42A12.71,12.71,0,0,0,530,422.45Z"/><path class="ec9b9bbf-287f-4c54-8496-bdcbb9d7bc8e" d="M556.23,412.94h-6.86v19h-2.8v-19h-6.85v-2.3h16.51Z"/><path class="ec9b9bbf-287f-4c54-8496-bdcbb9d7bc8e" d="M574.42,410.64v14.49a6.79,6.79,0,0,1-1.9,4.93,7.65,7.65,0,0,1-5.11,2.15l-.75,0a8,8,0,0,1-5.58-1.89,6.75,6.75,0,0,1-2.11-5.2V410.64h2.79v14.43a4.45,4.45,0,0,0,4.91,4.87,4.94,4.94,0,0,0,3.66-1.27,4.86,4.86,0,0,0,1.27-3.59V410.64Z"/><path class="ec9b9bbf-287f-4c54-8496-bdcbb9d7bc8e" d="M578.87,432V410.64h6a9.7,9.7,0,0,1,4.93,1.23,8.32,8.32,0,0,1,3.31,3.5,11.37,11.37,0,0,1,1.18,5.21v1.36a11.4,11.4,0,0,1-1.17,5.28,8.18,8.18,0,0,1-3.33,3.48,10.33,10.33,0,0,1-5,1.24Zm2.81-19v16.72h3a6.45,6.45,0,0,0,5.06-2,8.35,8.35,0,0,0,1.81-5.76v-1.25a8.48,8.48,0,0,0-1.71-5.65,6.08,6.08,0,0,0-4.84-2Z"/><path class="ec9b9bbf-287f-4c54-8496-bdcbb9d7bc8e" d="M610.62,422.1h-9.25v7.55h10.75V432H598.55V410.64H612v2.3h-10.6v6.87h9.25Z"/><path class="ec9b9bbf-287f-4c54-8496-bdcbb9d7bc8e" d="M632,432h-2.83l-10.75-16.42V432h-2.83V410.64h2.83l10.77,16.5v-16.5H632Z"/><path class="ec9b9bbf-287f-4c54-8496-bdcbb9d7bc8e" d="M651.34,412.94h-6.86v19h-2.8v-19h-6.85v-2.3h16.51Z"/><path class="ec9b9bbf-287f-4c54-8496-bdcbb9d7bc8e" d="M660.56,422.45a13.22,13.22,0,0,1-5.27-2.55,4.87,4.87,0,0,1-1.65-3.74,5.15,5.15,0,0,1,2-4.17,8,8,0,0,1,5.24-1.65,8.76,8.76,0,0,1,3.92.85,6.45,6.45,0,0,1,2.67,2.34,6,6,0,0,1,.95,3.26H665.6a3.89,3.89,0,0,0-1.23-3,5,5,0,0,0-3.47-1.11,5.13,5.13,0,0,0-3.25.92,3.06,3.06,0,0,0-1.17,2.54,2.75,2.75,0,0,0,1.11,2.21,10.85,10.85,0,0,0,3.77,1.65,17.49,17.49,0,0,1,4.16,1.65,6.32,6.32,0,0,1,2.23,2.1,5.36,5.36,0,0,1,.73,2.83,5,5,0,0,1-2,4.15,8.63,8.63,0,0,1-5.41,1.56,10.05,10.05,0,0,1-4.1-.84A6.91,6.91,0,0,1,654,429.1a5.62,5.62,0,0,1-1-3.32h2.83a3.67,3.67,0,0,0,1.43,3.05,6,6,0,0,0,3.82,1.12,5.54,5.54,0,0,0,3.42-.91,3,3,0,0,0,1.19-2.47,2.89,2.89,0,0,0-1.1-2.42A12.71,12.71,0,0,0,660.56,422.45Z"/></g></g></g></svg>