<svg xmlns="http://www.w3.org/2000/svg" viewBox="0 0 1600 650"><defs><style>.c4857c22-9116-4710-a935-f90d42308fa6{fill:#b1dbb1;}.f75c4489-3fd4-4e1c-b4b8-d39d28cfff07{fill:#75292f;}.\30 4296b06-8977-45eb-9794-4b282697afd7,.\30 9306030-d5c4-43db-add3-8d4daacd5c61,.\31 0fee635-b3ca-4768-ba30-11ed720f64c8,.\31 4f2e9f4-5b5a-4a8a-aaad-971ad5610a2c,.\33 384f523-8f16-4b2d-bfcf-3d24521890c2,.\33 9c770ea-158f-4e78-ad7c-cae35908a01d,.\34 5817c5a-f3ac-4ae7-979b-e8fded5f5f93,.\34 9f72c1e-2f1e-4d33-b282-857feaec476c,.\36 748d6c6-9f36-49fc-80a5-46f7bb07d919,.\37 cf3d2e2-f8db-4a96-a5c3-bb0d4cad1452,.\37 d02f36a-c12b-4688-a59f-c8a33d702074,.\38 fb0308c-4376-4073-a895-4f9643ec225b,.\39 06d4d78-6e48-4425-821a-0e4776a87ee3,.\39 65814be-6efd-40d0-8536-6f56624ac3c9,.\39 9a66249-5040-4901-be8c-ea368ba8b179,.a160a1cd-7044-43a9-ba19-c3211efd0648,.ac0c5360-7e4a-486d-a657-f364c2e460f5,.b288a036-6cea-4e63-b3c3-6420ef17aa92,.d8798d3b-ac3e-417f-8a55-b933e19ffc2b,.d9250d0e-9ccf-4b5f-aab1-d0c1df31ee57,.eb1b5c74-ab2e-4e13-98c1-d6a56b17622b,.f75c4489-3fd4-4e1c-b4b8-d39d28cfff07{stroke:#000;}.\30 4296b06-8977-45eb-9794-4b282697afd7,.\30 9306030-d5c4-43db-add3-8d4daacd5c61,.\31 0fee635-b3ca-4768-ba30-11ed720f64c8,.\31 4f2e9f4-5b5a-4a8a-aaad-971ad5610a2c,.\33 384f523-8f16-4b2d-bfcf-3d24521890c2,.\33 9c770ea-158f-4e78-ad7c-cae35908a01d,.\34 5817c5a-f3ac-4ae7-979b-e8fded5f5f93,.\34 9f72c1e-2f1e-4d33-b282-857feaec476c,.\36 748d6c6-9f36-49fc-80a5-46f7bb07d919,.\37 cf3d2e2-f8db-4a96-a5c3-bb0d4cad1452,.\37 d02f36a-c12b-4688-a59f-c8a33d702074,.\38 fb0308c-4376-4073-a895-4f9643ec225b,.\39 06d4d78-6e48-4425-821a-0e4776a87ee3,.ac0c5360-7e4a-486d-a657-f364c2e460f5,.b288a036-6cea-4e63-b3c3-6420ef17aa92,.d8798d3b-ac3e-417f-8a55-b933e19ffc2b,.d9250d0e-9ccf-4b5f-aab1-d0c1df31ee57,.eb1b5c74-ab2e-4e13-98c1-d6a56b17622b,.f75c4489-3fd4-4e1c-b4b8-d39d28cfff07{stroke-width:0.93px;}.\34 5817c5a-f3ac-4ae7-979b-e8fded5f5f93{fill:#fabfdc;}.\31 0fee635-b3ca-4768-ba30-11ed720f64c8,.\34 5817c5a-f3ac-4ae7-979b-e8fded5f5f93,.\34 9f72c1e-2f1e-4d33-b282-857feaec476c,.\36 748d6c6-9f36-49fc-80a5-46f7bb07d919,.\37 d02f36a-c12b-4688-a59f-c8a33d702074,.\38 fb0308c-4376-4073-a895-4f9643ec225b,.\39 9a66249-5040-4901-be8c-ea368ba8b179,.ac0c5360-7e4a-486d-a657-f364c2e460f5,.d8798d3b-ac3e-417f-8a55-b933e19ffc2b{fill-opacity:0.78;}.\31 4f2e9f4-5b5a-4a8a-aaad-971ad5610a2c{fill:#101010;}.\33 384f523-8f16-4b2d-bfcf-3d24521890c2{fill:#677c8f;}.b288a036-6cea-4e63-b3c3-6420ef17aa92{fill:#3e76ab;}.\37 2f27942-0b37-4247-b2ff-f5db1348e2ee{fill:#d84f22;opacity:0.94;}.\30 7b2ce83-e385-4474-b84f-a28bad5447d9,.\30 fa12948-2eac-4d53-ab06-d306331978ec,.\33 f69629f-d6d2-4d32-86b1-bc4111441d98,.\35 df4b8c4-181b-4c81-be54-2ba47adc43f8,.\36 a88206c-07fc-4efe-a518-234cd6f8f2ee,.\37 2f27942-0b37-4247-b2ff-f5db1348e2ee,.\38 fde19ba-5826-4039-a139-1910bf14594e,.bfe5887a-f6c6-4856-8bbf-1df3d3fe55a9,.c86b1ef8-ff86-48ee-9c5f-00c33b26b1dc,.cf041feb-e057-4012-b849-c97fe7d71430{isolation:isolate;}.d8798d3b-ac3e-417f-8a55-b933e19ffc2b{fill:#93e6fa;}.\30 4296b06-8977-45eb-9794-4b282697afd7,.\36 a88206c-07fc-4efe-a518-234cd6f8f2ee{fill:none;}.bfe5887a-f6c6-4856-8bbf-1df3d3fe55a9,.d9250d0e-9ccf-4b5f-aab1-d0c1df31ee57{fill:#fdfdfd;}.\38 fb0308c-4376-4073-a895-4f9643ec225b{fill:#fffffd;}.\37 cf3d2e2-f8db-4a96-a5c3-bb0d4cad1452{fill:#fefcfe;}.\34 9f72c1e-2f1e-4d33-b282-857feaec476c{fill:#e883cc;}.ac0c5360-7e4a-486d-a657-f364c2e460f5{fill:#fac0dc;}.eb1b5c74-ab2e-4e13-98c1-d6a56b17622b{fill:#101f14;}.\33 9c770ea-158f-4e78-ad7c-cae35908a01d{fill:#fdfdfe;}.\31 0fee635-b3ca-4768-ba30-11ed720f64c8{fill:#faf8f7;}.\37 d02f36a-c12b-4688-a59f-c8a33d702074,.\39 9a66249-5040-4901-be8c-ea368ba8b179{fill:#fafaf8;}.\39 9a66249-5040-4901-be8c-ea368ba8b179{stroke-width:1.07px;}.\36 748d6c6-9f36-49fc-80a5-46f7bb07d919{fill:#fa93f8;}.\30 9306030-d5c4-43db-add3-8d4daacd5c61,.a160a1cd-7044-43a9-ba19-c3211efd0648{fill:#070707;}.\36 a88206c-07fc-4efe-a518-234cd6f8f2ee,.bfe5887a-f6c6-4856-8bbf-1df3d3fe55a9{stroke:#3665b6;}.\36 a88206c-07fc-4efe-a518-234cd6f8f2ee,.\38 fde19ba-5826-4039-a139-1910bf14594e,.bfe5887a-f6c6-4856-8bbf-1df3d3fe55a9,.e721aa19-c55a-4b1d-8396-7c0a7de33b5c{stroke-linecap:round;stroke-linejoin:round;}.\36 a88206c-07fc-4efe-a518-234cd6f8f2ee,.\38 fde19ba-5826-4039-a139-1910bf14594e{stroke-width:3.96px;}.\36 a88206c-07fc-4efe-a518-234cd6f8f2ee,.\38 fde19ba-5826-4039-a139-1910bf14594e,.bfe5887a-f6c6-4856-8bbf-1df3d3fe55a9{opacity:0.51;}.\35 df4b8c4-181b-4c81-be54-2ba47adc43f8{fill:#112d2d;}.\30 7b2ce83-e385-4474-b84f-a28bad5447d9,.\30 fa12948-2eac-4d53-ab06-d306331978ec,.\35 df4b8c4-181b-4c81-be54-2ba47adc43f8,.c86b1ef8-ff86-48ee-9c5f-00c33b26b1dc,.cf041feb-e057-4012-b849-c97fe7d71430{opacity:0.96;}.cf041feb-e057-4012-b849-c97fe7d71430{fill:#f4fbfc;}.bfe5887a-f6c6-4856-8bbf-1df3d3fe55a9{stroke-width:3.28px;}.c86b1ef8-ff86-48ee-9c5f-00c33b26b1dc{fill:#2d1111;}.\38 fde19ba-5826-4039-a139-1910bf14594e{fill:#f4fcf6;stroke:#73b636;}.\30 7b2ce83-e385-4474-b84f-a28bad5447d9,.\39 06d4d78-6e48-4425-821a-0e4776a87ee3,.\39 65814be-6efd-40d0-8536-6f56624ac3c9{fill:#2d777f;}.a160a1cd-7044-43a9-ba19-c3211efd0648{stroke-width:0.89px;}.\39 65814be-6efd-40d0-8536-6f56624ac3c9{stroke-width:1.18px;}.\30 fa12948-2eac-4d53-ab06-d306331978ec{fill:#f9fbfc;}.e721aa19-c55a-4b1d-8396-7c0a7de33b5c{fill:#393232;stroke:#f8f8f8;stroke-width:0.84px;}.\37 274da5a-c33e-46d4-b1bb-1c4359963829{fill:#fcf9f9;}</style></defs><title>slide-5@700</title><g id="1dcec3a3-af0e-4a9b-b792-63e36ba8be24" data-name="Layer 2"><g id="b7f50d59-2a4c-46d2-9162-2a70261efda5" data-name="Layer 1"><rect id="d8f567b1-430d-4d75-bde9-96901cef6bb5" data-name="rect5907" class="c4857c22-9116-4710-a935-f90d42308fa6" width="1600" height="650"/><path id="5f9530bc-637b-497b-9ce2-2cbcab8371d0" data-name="path4205" class="f75c4489-3fd4-4e1c-b4b8-d39d28cfff07" d="M1081.73,306.85c0,6.57.45,7,.45,7s.45.45,7,3.32,10.8,6.57,14.58,6.57,16.47.45,22.59.91,18.36-1.44,20.25-2.34,10.8-2.8,14.58-4.68,3.78-8.92,1.89-8.92-.91,0-7,1.89-12.69,4.23-16.47,4.23-11.26,1.89-15,1.89-13.15-1.89-16-1.89-10.8-3.32-14.58-4.23-12.24-3.78-12.24-3.78Z"/><path id="a7c3b726-f2a5-4b1b-9256-5263d10e3548" data-name="path4179" class="45817c5a-f3ac-4ae7-979b-e8fded5f5f93" d="M1079.39,409.37c0,10.35,1.44,8.46-.91,14.58s-.45,8.46-4.68,19.27-6.12,13.68-7,22.59-.91,17.38-2.8,25.84-8.92,17.38-9.9,20.7-1.44,12.24-.45,13.15,7.56,3.78,12.24,4.23,11.79-.91,14.58-4.23a21.42,21.42,0,0,0,4.23-11.79c0-2.87-.45-4.23,0-9.44s-1.89-3.78,0-9.9,5.67-13.15,7.56-17.91.91-2.8,4.23-12.69,2.8-17.91,5.14-20.7,4.23-4.23,8-14.13,6.57-13.15,3.78-13.15a50.06,50.06,0,0,1-14.58-1.89c-6.72-1.74-19.42-4.53-19.42-4.53Z"/><path id="ec99f123-59be-43bc-9da8-0703609d61e4" data-name="path4181" class="45817c5a-f3ac-4ae7-979b-e8fded5f5f93" d="M1125.93,416.93c0,6.57.91,9.44,1.89,15s-1.89,2.8-3.32,9.44-2.8,12.69-1.89,17.38-1.44,8,.45,14.13.91,7,2.8,13.15,5.14,10.8,4.23,15,0,.45-.91,9.44l-.91,8.92h0c0,2.8-4.23,1.89,0,2.8s12.69,1.44,19.27,1.89a134.68,134.68,0,0,0,21.16-.91c2.34-.45,7-2.34,7-5.67s2.34-4.68,0-5.67a20.31,20.31,0,0,0-8.46-1.44c-3.78,0-7-1.89-10.8-3.32s-7.56-3.78-8-7,2.8-21.61,2.34-25.84.45-12.24.45-22.14v-9.9c0-4.23,2.8-8.46,3.78-13.15s5.67-15.49,2.8-14.58,16-1.44-2.8.91-8.84,2.42-29.09,1.51Z"/><path id="ea15def9-7cab-4546-b02c-24c197f9cdfd" data-name="path4183" class="45817c5a-f3ac-4ae7-979b-e8fded5f5f93" d="M1281.65,408.92c2.34,13.15,5.67,17.38,7,26.37s3.32,8,3.32,14.13v31.05c0,10.8,2.8,23,1.44,27.73s-3.78,6.12-6.12,7-8,4.68-11.79,4.68-7.56,0-9.44,3.78-1.44,8.46,1.89,9.44,25.39-.45,28.26,0,20.25.45,20.25-1.89,1.44-9.44,0-12.24a27.09,27.09,0,0,1-2.8-12.24c0-5.21,6.12-36.72,6.12-41.4s-4.23-19.72-4.23-24,8.46-26.37,4.23-25.84-14.58-.91-23-2.34a73.37,73.37,0,0,1-15.11-4.31Z"/><path id="b1ac6b75-57c7-4cdc-b71f-401870e0fdd4" data-name="path4185" class="45817c5a-f3ac-4ae7-979b-e8fded5f5f93" d="M1327.29,416.93c4.23,16,3.78,20.7,7.56,24.93s8.46,8,8.46,10.35-2.34,2.8,0,10.35a167.8,167.8,0,0,0,7.56,19.27c2.8,6.57,6.57,12.69,6.57,18.81s.45,8.46.45,12.24.91,6.57.91,11.26.45,8.92,2.34,13.15,17.38,2.34,20.7,2.34,7-.91,7-4.23.91-6.57,0-9.9-1.89-13.15-5.14-16.92-3.32-1.89-4.68-8.46.91-11.79-1.44-23a251.76,251.76,0,0,0-8.46-31.51C1364.46,431,1363,429.09,1363,423s4.23-15,0-12.24-3.78,3.78-18.81,5.14-16.92,1.06-16.92,1.06Z"/><path id="d7c444d2-5322-439b-93b7-fa3131f6ea8f" data-name="path4187" class="14f2e9f4-5b5a-4a8a-aaad-971ad5610a2c" d="M1316,514.7c2.8,3.78,4.23,13.15,3.78,17.91s.91,7-.45,8-8-.45-11.79-.45-5.14-1.89-8.92-.91-8,1.89-11.79,2.8-13.68-.91-17.38-.91-9.9-2.34-11.26-6.57,0-6.57,2.34-10.35a16.06,16.06,0,0,1,9.9-7c3.78-.91,9.9-.45,11.79-2.34s5.14-5.14,6.57-1.89.45,6.12,3.32,8.46,7.56,2.8,11.26,2.34,5.14.91,8-1.89a30.78,30.78,0,0,0,4.61-7.18Z"/><path id="f943c192-d363-4eb7-8c26-5fb06c280bc5" data-name="path4189" class="14f2e9f4-5b5a-4a8a-aaad-971ad5610a2c" d="M1356.45,510a188.59,188.59,0,0,0-.91,21.61c0,8,1.44,10.8,2.8,13.15s6.12,4.23,12.24,4.23,10.8,0,15-1.44,11.26-5.14,11.26-8.46.91-5.67,0-9.9-4.68-7-7.56-13.15-4.68-10.8-5.67-9.44-1.44,5.67-3.32,4.68-8.46-1.44-10.8-.91-9.44,9.9-10.8,6.12c-1.36-3.63-2.27-6.5-2.27-6.5Z"/><path id="34f1656c-8bd6-4f6f-9e74-fdd910b2f4b9" data-name="path4191" class="14f2e9f4-5b5a-4a8a-aaad-971ad5610a2c" d="M1125.93,507.22c-3.32,9.9-3.32,11.26-3.32,16s-2.34,8,.45,8.46,4.23,3.32,8.92,1.44,12.24-2.34,14.58-1.44,11.26,2.34,14.58,2.34,6.12,0,14.13-1.44,10.35-5.14,10.35-8.92-.91-6.57-4.68-9.9-8-3.78-13.68-5.67-12.69-6.12-13.15-4.23,1.44,3.78-.45,6.12-2.34,4.68-5.14,5.14-8.46-1.44-10.8-1.44-8-2.8-8-2.8Z"/><path id="27185d4b-2e56-4592-9f13-28cd1941d539" data-name="path4193" class="14f2e9f4-5b5a-4a8a-aaad-971ad5610a2c" d="M1084.53,501.1c1.89,2.8,2.8,2.8,2.8,8.46v16c0,3.32.91,9.44-1.44,11.26s-9.44,3.32-11.79,4.23-7-1.44-10.35-.91-9.44-.91-11.79-2.8a18.27,18.27,0,0,1-5.67-8.46c-.91-3.32-1.44-3.32.91-8.92a74.88,74.88,0,0,1,7.56-14.13c2.8-4.23,5.67-10.35,5.67-9.44s-2.8,7.56.91,5.67,4.68-1.44,7.56-1.89,8.46,2.34,11.26,4.68,5.14,4.68,5.14,5.67-.76-9.44-.76-9.44Z"/><path id="038cfbb4-7693-4982-a903-f9bb146ab4ec" data-name="path4195" class="3384f523-8f16-4b2d-bfcf-3d24521890c2" d="M1081.73,313.42c-4.68,13.15-7.56,19.27-8,26.37a139.41,139.41,0,0,1-2.34,21.16c-1.89,10.35-.91,15-1.89,20.25s-2.8,16-2.8,18.36.45,3.78,5.14,6.57,15.49,5.67,19.72,6.57,13.68,2.8,18.36,2.34,8,6.12,9.44.91,8.46-20.25,9.44-23.5,1.44-18.36,1.44-12.24-1.44,13.68-3.32,21.16-1.89,8.92-1.89,11.79,2.34,3.78,4.23,2.8,5.67.45,8.46,0a97.32,97.32,0,0,1,11.26-.45c2.34,0,11.26,0,15.49-2.34s8.92-2.8,8.92-5.14-.45-24-.45-28.26-2.34-24.48-2.34-29.62-1.44-13.15-3.32-21.61-1.89-15-3.78-13.68A32.84,32.84,0,0,1,1154,320c-4.23,1.44-3.32.91-9.44,1.44s-10.8,2.34-16.47,2.8-9.9-.45-14.58,0-11.26-.91-15.49-2.34-9.9-5.14-12.24-5.67c-2.19-.45-4.08-2.8-4.08-2.8Z"/><path id="ee2505f1-4e1b-4f1c-a59c-14b15b73b7ad" data-name="path4197" class="b288a036-6cea-4e63-b3c3-6420ef17aa92" d="M1099.64,313.42c0,11.26-3.32,11.26,0,11.26s6.12,2.8,5.14,0,.91-10.35-.91-10.35A15,15,0,0,1,1099.64,313.42Z"/><path id="f4133dd7-b95b-4a53-a041-f9aeb4da1c33" data-name="path4201" class="b288a036-6cea-4e63-b3c3-6420ef17aa92" d="M1155.1,311.08c0,9.9-.91,8.92.91,9.44s4.68,1.44,4.68-1.44v-9.9Z"/><rect id="031a8b08-12cc-4fa9-a6da-53e338648646" data-name="rect4203" class="72f27942-0b37-4247-b2ff-f5db1348e2ee" x="1126.92" y="316.74" width="16.92" height="9.9"/><path id="7ead4f4e-80d3-4383-9558-57e70534d344" data-name="path3347" class="3384f523-8f16-4b2d-bfcf-3d24521890c2" d="M1279.76,284c-9.29,24-6.65,18-12.62,42.54s-7.33,37.25-10.65,53.87-6,16.62-2,16.62,22.59,12.62,32.56,15.26,24,6.65,35.89,5.29,16.62.68,33.24-4.68,17.3-4.68,25.31-11.94,7.33-10,5.29-15.26-4.68-16.62-8.61-32-7.33-29.24-10.65-32-7.33-1.36-15.94-8.61-13.3-15.26-16.62-14.66-2-1.36-11.94-1.36-13.3,2-23.27-2.64-20-10.5-20-10.5Z"/><path id="e5cc596b-cce2-47a3-b6fe-ef2cbacce48e" data-name="path3349" class="d8798d3b-ac3e-417f-8a55-b933e19ffc2b" d="M1062.92,298.69c-.68,11.94,1.36,19.27,2,23.27s8,14,10,8.61,6.65-14,6.65-17.3v-7.33s-6,7.33-4.68-.68-.68-6.65,1.36-8,8-2,12.62-6.65,6.65-2.64,11.33-10S1114.75,262,1113.47,262s-5.29-2.64-7.33,2-2.64,5.29-7.33,11.33-8.61,12.62-11.94,14-4.68.68-9.29,4-14.66,5.44-14.66,5.44Z"/><path id="7a447546-6c0c-4f77-a8a3-31e8106f2997" data-name="path3351" class="d8798d3b-ac3e-417f-8a55-b933e19ffc2b" d="M1098.21,236.81c10.65-5.29,14-4,14-7.33s4-1.36-.68-7.33-5.29-6.65-8.61-12.62-7.33-21.31-11.33-19.27-3.32,4-9.29,4.68-9.29-1.36-11.94,6-3.32,19.95.68,16.62,8.61-6,8.61-10-5.29-6.65,0-4,6,5.29,10,11.33,8.61,21.91,8.61,21.91Z"/><path id="c0baf360-d680-4f88-b39f-ad134bbce8d8" data-name="path3353" class="04296b06-8977-45eb-9794-4b282697afd7" d="M1098.81,238.09"/><path id="6c91d5cf-8124-4303-a94a-6126f265f1ff" data-name="path3355" class="d8798d3b-ac3e-417f-8a55-b933e19ffc2b" d="M1141.42,186.94c0,8.61,1.36,6.65,1.36,12.62s4,6.65,2,12.62-1.36,8.61.68,10.65,12.62,2,12.62-1.36-.68-15.26-2.64-21.31-4.68-4-5.29-7.33l-.68-3.32Z"/><path id="10bb75c5-ff62-4f3d-93b4-21d4de16fd0f" data-name="path3357" class="d8798d3b-ac3e-417f-8a55-b933e19ffc2b" d="M1155.4,254.79c3.32,2.64,6.65,23.27,6.65,17.3V252.83Z"/><path id="3650a43e-33aa-4fc3-a30f-060086d4e96e" data-name="path3359" class="45817c5a-f3ac-4ae7-979b-e8fded5f5f93" d="M1316.33,188.91c-4.68,16.62-5.29,18-2.64,21.31s4.68,5.29,8,6.65,3.32.68,10,0,12.62-5.29,11.33-10-3.32-13.3-3.32-13.3,3.32-2,0-2-5.36,2.57-23.35-2.72Z"/><path id="2b5ebd5f-584d-42a3-b546-d599852994d9" data-name="path3363" class="d9250d0e-9ccf-4b5f-aab1-d0c1df31ee57" d="M1102.81,182.26c-5.29,8.61-8.61,7.33-5.29,14.66s4,13.3,8.61,19.95,11.33,11.33,11.94,6,5.29-14.66,5.29-14.66a5.32,5.32,0,0,1,7.33-1.36c4.68,2.64,11.33,18.66,11.94,14.66s3.32-8,2.64-11.94-4-12.62-4-15.94,3.32-2,0-4.68-8.61-8-8.61-6.65v12.62s-3.32,4-5.29,6.65-2,3.32-6,2.64-8-6-10.65-8-7.93-13.9-7.93-13.9Z"/><path id="721474f3-fd12-4d05-8cb0-82231ae304bc" data-name="path3365" class="8fb0308c-4376-4073-a895-4f9643ec225b" d="M1313,198.88c-4,4-6.65,3.32-9.29,10s1.28,14.66,1.36,17.3c.08,3,8.24,12.32,6.65,3.32-.45-2.64,6-5.29,8.61-8s4.68-2,4.68.68.68,9.29,3.32,11.33-1.28,4.53,3.4,3.17,5.29-5.14,9.29-9.82,8.61-18,8.61-18-7.33-11.33-7.33-8.61,1.36,6.65,0,10-3.32,6-7.33,6.65-7.33,2-10.65.68-10-2-10-4.68-2.64-4-2.64-4Z"/><path id="5dc7beba-fabf-4555-b8c8-f9889d3fa864" data-name="path3367" class="7cf3d2e2-f8db-4a96-a5c3-bb0d4cad1452" d="M1374.89,222.83c10.65,19.27,19.27,33.92,19.95,35.89s-8.16,8-10.5,11c-2.64,3.4-10.5,4.31-14.66,4.68-3.93.3-4.53-.38-8.84-2.34-4.16-1.89-5.82-.45-6.65-2.64-1.66-4.38-2-23.27-2-19.95s3.32,22.59,0,21.31-3.32,1.36-3.32-1.36-1.36,2.64,0-9.29-.68-18,4.68-27.28,6-13.3,9.29-14,12,4,12,4Z"/><path id="7823809f-7127-440e-ac2d-52b743ca973a" data-name="path3369" class="7cf3d2e2-f8db-4a96-a5c3-bb0d4cad1452" d="M1291.1,208.85c-9.29,8-11.94,13.3-18,19.27s-11.94,7.33-10,8.61,2,8.61,5.29,13.3,7.33,14.66,8.61,7.33,0-15.94,2.64-25.31,6.65-9.29,8.61-16.62,4-9.29,4-9.29"/><path id="c09e2b15-0ad6-4ab2-9fd0-97a1e5a04696" data-name="path3371" class="8fb0308c-4376-4073-a895-4f9643ec225b" d="M1301.75,212.86c-3.32,14.66-5.29,21.31-3.32,27.28s8.61,8.61,11.94,8.61,13.3,6,13.3,2,6.65,1.36,7.33-2,6-11.33,6-14,.68-4-2-1.36-2.64,5.29-5.29,2-4-20.63-6-18-7.33,4.68-10,8.61-2,10.65-4.68,6.65c-2.72-3.85-7.33-19.8-7.33-19.8Z"/><path id="3fdd6384-8d57-4502-8ddf-da361c3fb19b" data-name="path3373" class="d9250d0e-9ccf-4b5f-aab1-d0c1df31ee57" d="M1080.22,205.53c-12.62,15.94-24,27.28-23.27,28.64s6.65,8,12.62,11.94,11.94,11.33,15.94,9.29.68.68,6-8.61,4.68-.68,4-10.65-1.36-10-4-15.26-11.26-15.34-11.26-15.34Z"/><path id="408f9540-c10a-466e-890e-9a4fd88ff4dd" data-name="path3375" class="d9250d0e-9ccf-4b5f-aab1-d0c1df31ee57" d="M1156.08,200.84s11.33,7.33,15.26,15.94,14,15.26,9.29,17.3-10,14.66-13.3,10-4-1.36-4-6,1.36-1.36,1.36-6,3.32-3.32-2-8-6.65,4.68-6-9.29-.68-14-.68-14Z"/><path id="31ed9088-ac93-415e-b0b6-0d5e326223b8" data-name="path3377" class="49f72c1e-2f1e-4d33-b282-857feaec476c" d="M1343.61,198.88c25.31,8.61,30.6,9.29,32,15.26s7.33,18.66,2,14-10.65-12.16-15.26-8.84-6,7.48-9.29,12.77a75.07,75.07,0,0,0-8,18c-2,6.65-2,13.3-4.68,13.3s-8-2.64-8-6-4.68-7.33-2-10,4.68-7.33,5.29-11.33,4.68-7.33,8-14,6-9.75,6-11.64c.15-4.91-.91-.15-6-11.56Z"/><path id="179b2159-20a8-4bd1-9573-d4f2a299e48d" data-name="path3379" class="49f72c1e-2f1e-4d33-b282-857feaec476c" d="M1329.63,286.67c2.64,10.65,6.2,6.2,13.3,17.3,9.29,14.43,19.27,16.17,22.59,14.66,4.23-2,2,11.33,6.65,16.62s5.29,8.61,8.61,4.68,3.32-7.33,3.32-15.26,2.64-13.3-.68-13.3-10,0-13.3-1.36-10-4-14.66-8-10.65-13.3-15.26-13.3S1329.63,286.67,1329.63,286.67Z"/><path id="e200eccf-df67-4dc3-aa50-9bbb7d61d94d" data-name="path3381" class="49f72c1e-2f1e-4d33-b282-857feaec476c" d="M1299,196.91c-1.36,4.68-5.29,8.61-7.33,12.62s-3.32,7.33-6,12.62-5.29,10-5.29,14.66-4.68,10.65-4.68,16.62,2,10.65,2,15.26,3.32,10.65,4,5.29,3.32-20.63,4.68-28a54,54,0,0,1,6.65-18c3.32-6,5.29-13.3,10.65-21.31s11.33-9.29,10-9.29-14.66-.53-14.66-.53Z"/><path id="34948481-11b2-466c-8abd-81d1395110b8" data-name="path3383" class="3384f523-8f16-4b2d-bfcf-3d24521890c2" d="M1280.44,274.74c-2,10-4,6,2.64,11.33s15.26,10.65,19.95,10.65,12.62,1.36,18.66,2,18,2.64,15.26.68-4-11.94-8-11.94-6.65,2-8.61-2.64-4.68-7.33-2-17.3,10.65-16.62,4.68-17.3-14.66-2-19.27-5.29-4.68-4-4.68-10,4.68-25.92,2-23.27-8,14-8,18-2,0-4.68,12.62-7.93,32.49-7.93,32.49Z"/><path id="f5391754-d4ee-45d2-b9cc-ffd2b3f44e37" data-name="path3403" class="45817c5a-f3ac-4ae7-979b-e8fded5f5f93" d="M1210.4,205.68c10.65,14,12.16,23.8,14.13,24.48s4-2,4.68,1.36,4.68,21.31,8,31.28,8,18.66,12.62,20.63,16.62,2.64,19.95.68,8.61-5.29,8.61-10-.68-11.94-3.32-14.66-10.65-15.26-10.65-15.26-1.36,7.33-3.32,4-18-24.63-15.94-26.6,2-3.32,2-7.33v-6.8c0-2.64,4.68-12.62,2-13.3s0-2-2.64-.68-3.32,3.32-6.65,9.29-3.7,16.09-3.32,10c.3-6,4-6.65,4-10-.08-5.21-2-2-5.29-8s-3.1-8.39-5.29-10-3.25,1.81-3.32,2l2,10.65s2.64,4.68.68,1.36-4-8-7.33-10c-3.63-2.19-.15-1.81-3.32-2.64-4.16-1.13-2.95,2.8,2.64,10.65,2.8,3.85,8.61,11.33,6.65,8.61s-6.65-9-10-11.33c-8.39-6-4.76-.15-.68,6,4,6,8.61,14.66,4.68,10.65s-9.07-7.1-10-7.33c-2.34-.38-1.51,2.27-1.51,2.27Z"/><path id="ec6dd7fb-a5fd-40f4-8ef0-72b57c57eb7b" data-name="path3407" class="45817c5a-f3ac-4ae7-979b-e8fded5f5f93" d="M1322.53,286.6c-3.32-5.67-7.56-10.35-5.14-9.9s9.44,8.92,6.12,5.14-7-4.23-7-6.57,0-7.56,2.34-4.23,5.67,8.46,5.14,6.57-7-5.67-7-8.92.91-8,2.34-5.67-1.89-.91,1.44,2.34,4.68,5.67,3.32,3.78-4.23-9.9-4.23-9.9,3.78.91,3.78-4.23-1.89-5.14,0-5.14,5.67-2.34,6.12.91.91,6.12,3.32,8.92,8.92,3.78,8.92,3.78,1.89-10.35,2.8-7.56-.45,8.92,1.89,12.69,5.67,0,10.8,1.89,10.8,6.57,17.38,3.78a98.42,98.42,0,0,0,13.68-7.56s-.45-2.8.91,1.44,3.32,6.57,3.32,12.69v13.68c0,4.68-.91,7.56-1.44,10.8s-.45,1.89-4.23,4.23-5.14,0-8.46,0-4.68,1.89-9.9-.91-9.44-2.8-12.24-6.12-4.68-2.34-8-7-7-7-8.92-7-1-1.44-17-1.89Z"/><path id="3aed3e8d-8511-4ad4-bf22-9e969ec813eb" data-name="path3409" class="45817c5a-f3ac-4ae7-979b-e8fded5f5f93" d="M1146.64,223.13c-4.68,7.56-3.78,11.26-1.89,11.26s11.79-4.23,8.92-2.8-9.9,1.44-9.9,3.78-.91,7.56,1.44,7.56,11.26-6.12,9.9-4.23-10.8,2.34-10.8,5.14,0,4.68,2.34,4.23,7-.91,9.44-1.44,8-2.34,2.34-.45-11.79.91-11.79,3.32.91,4.23,4.23,4.23-1.44,1.44,3.32,0,9.44-6.12,9.44-2.8.91,4.68,0,11.26-1.44,12.24,0,17.38,1.89,3.78,8.46,6.57,5.67.45,9.9.45,5.14,1.89,7.56-3.32a33,33,0,0,0,2.34-15.49c-.45-3.32-1.44-10.8-3.32-15s-8.92-19.72-9.9-16.47-5.67,6.12-5.67,6.12-3.32.45-2.8.45,5.14,8,6.57,9.9,13.15,18.81,10.8,16.47-11.26-16.92-13.68-20.7-.45-3.78-2.34-3.78-4.23-3.25-6.57-4.23-1.44,0-.68-5.14,1.44-3.63,1.21-5.67c-.23-1.89-.91-6.57-3.32-6.57h-15.56Z"/><path id="7ca79f57-9d0b-4a87-af0a-b6925a8357b3" data-name="path3411" class="45817c5a-f3ac-4ae7-979b-e8fded5f5f93" d="M1111.35,259.78c4.68,2.34,7,5.67,7,3.32s3.32-2.34,1.89-5.14-7-7-4.23-5.67,5.67,8.46,5.67,6.12,2.34-7,.45-7.56-7.56-8-5.67-5.67,5.14,6.57,5.14,4.68v-5.14s-9.44-7.56-6.12-5.67,7.56,7,7.56,4.68,1.89-1.89,0-4.68-9.44-9.9-11.26-8-8.46,4.68-10.8,4.68-2.8-.91-3.78,2.8-4.23,4.23-4.23,7.56c-4.23,9.44-6.12,8-11.79,11.26s-12.69,10.35-12.69,8.46,12.69-9.44,12.69-9.44.91.91-.91-1.44-8.92-8-12.69-10.8-4.68-6.57-6.12-4.68-4.23,9.44-6.12,16.47-4.68,13.15-4.68,19.27.45,16.47.45,18.81,2.8,4.23,7,4.23,9.9-.45,13.68-2.34,8-3.32,11.79-5.67,6.12-2.8,9.9-8,5.67-9.9,9.44-14.58,4.68-7.56,6.57-8,1.81.15,1.81.15Z"/><path id="9316e6f5-c99d-4b84-9f54-a7429a3407c3" data-name="path3361" class="45817c5a-f3ac-4ae7-979b-e8fded5f5f93" d="M1105.46,178.25c0,7.33.68,12.62,4,15.94s5.29,10,10.65,10,4.68.68,8.61-3.32,4-4.68,4-9.29,2.64-11.94,0-11.94-1.36-.68-9.29,0S1105.46,178.25,1105.46,178.25Z"/><path id="b2fa8317-3915-443e-9f64-19bbf43ea1c2" data-name="path3413" class="45817c5a-f3ac-4ae7-979b-e8fded5f5f93" d="M1067.15,126.2c2.8-47.07,11.26-51.75,38.53-62.11s45.18-3.78,56.44-3.78,27.28,15,24.48,16-6.57-3.78-6.57,0,.91,15,.91,15-7.56,4.68,0,.91,12.24-6.57,12.24-2.8a49.82,49.82,0,0,1-3.78,17.91c-2.8,6.57-10.58,5.89-9.67,11.56s4,8.24,2.12,18.59-15,24.48-21.61,32-12.24,11.26-18.81,11.26-21.61,2.8-28.26-.91-22.59-2.8-29.16-11.26-13.15-27.28-16-22.59-11.26,4.68-11.26,4.68-6.57-3.78-8.46-11.26-3.78-11.26.91-14.13C1054,122.49,1067.15,126.2,1067.15,126.2Z"/><path id="9d9b3791-fa58-4d14-ad16-95b6dcd581d2" data-name="path3415" class="ac0c5360-7e4a-486d-a657-f364c2e460f5" d="M1268.43,89.55c-2.8,16-4.68,9.44-8.46,16s-4.68,21.61-1.89,24.48,8.46-.91,8.46,5.67-4.68,8.46,0,18.81,5.67,16,13.15,23.5,17.91,16,23.5,16,16-3.78,22.59-3.78,16,.91,22.59-1.89,12.24-3.78,18.81-10.35,6.57-20.7,11.26-16.92,10.35,6.57,15,1.89,8.46-11.26,5.67-19.72-6.57-9.44-10.35-9.44-13.15,13.15-13.15,6.57V127.25c0-13.15,10.35-9.44-8.46-28.26s-31.05-18.81-43.29-20.7-32-5.67-40.42-1.89-16,16.92-16,16.92"/><path id="c03bbd9a-3948-4d4e-9aa6-7dce61a2212b" data-name="path3417" class="eb1b5c74-ab2e-4e13-98c1-d6a56b17622b" d="M1058.24,123.4c-8-16-12.24-22.59-13.68-33.4s-.91-9.44,2.8-23.5,11.26-24,17.91-29.62,17.91-10.8,21.16-10.8,10.8,3.78,7.56.45-14.13-4.68-12.24-6.12,13.68,5.67,14.58,2.8,4.23-15,4.23-9.44-3.32,14.58.91,10.8,8.92-5.14,14.13-6.57,13.68-1.44,19.72-1.89,16.47,1.44,20.25,3.32,9.44,7,12.69,9.9S1181.39,43,1182.37,48.6s3.32,13.15,3.78,21.16-3.32,17.38-3.32,11.79,1.89-8-2.8-8.46-20.25-10.35-17.91-8,15,8,8.92,8-13.15-.45-17.38-.91-8-6.12-11.26-6.12-7.56-2.34-3.32,0,2.8,6.57,6.57,9.44,7.56,1.44,3.78,2.8-4.68-1.44-9.9-4.23-8-6.57-10.35-6.57-4.68-3.78-2.34,0,5.67,10.35,7.56,12.24l1.89,1.89h0c-5.67,0-8.92-1.89-12.24-7s-4.23-13.15-7.56-9.9a103.88,103.88,0,0,0-11.26,12.69c-3.78,5.14-1.89,8-3.78,5.14s.45-8-1.89-6.12-8.92,3.32-11.26,7.56-2.34,7-2.34,4.23.91-5.14,0-2.8-4.68,14.13-5.67,9.9,2.8-9.9-.91-3.32-6.57,23-7.56,20.7-2.8-18.81-3.32-15-1.89,17.38-1.89,23.5,1.89,6.57,0,6.12-8.39-3.85-8.39-3.85Z"/><path id="78ec96d6-4438-4e64-a783-e29ee968228e" data-name="path4219" class="04296b06-8977-45eb-9794-4b282697afd7" d="M1092.54,106.48c4.68-11.79,12.24-8.92,12.24-8.92"/><path id="84d33cc3-4a8f-4f86-b925-7e58daa8ce02" data-name="path4221" class="04296b06-8977-45eb-9794-4b282697afd7" d="M1164.54,84.87c8.92,1.44,9.9,5.67,9.9,5.67"/><path id="ba23218d-842f-44ec-9284-55780bb6f868" data-name="path4223" class="d9250d0e-9ccf-4b5f-aab1-d0c1df31ee57" d="M1095.41,126.72c16-22.59,27.73-7.56,27.73-5.14a18.77,18.77,0,0,1-1.89,7c-.91,2.34-5.67,5.67-9.44,5.67s-6.12-.45-8-1.89-8.39-5.67-8.39-5.67Z"/><path id="4527cc0b-43d2-4204-8214-22717b40b4a2" data-name="path4225" class="39c770ea-158f-4e78-ad7c-cae35908a01d" d="M1153.66,114.94c7.56-27.73,21.16-9.9,21.16-7.56s-.91,6.12-3.32,8-1.44,4.23-5.14,4.23S1153.66,114.94,1153.66,114.94Z"/><path id="67e62313-350f-4c05-9224-f2e2e14a5ba8" data-name="path4227" class="10fee635-b3ca-4768-ba30-11ed720f64c8" d="M1271.75,115.84c20.7-14.13,25.39,11.79,23,13.15s-3.78,4.68-7,5.67-12.24-1.44-13.15-4.23-3.78-7.56-3.78-9.44a25.73,25.73,0,0,1,.91-5.14Z"/><path id="ef491a1c-812c-4144-9d04-10cdc6fa317d" data-name="path4229" class="d9250d0e-9ccf-4b5f-aab1-d0c1df31ee57" d="M1323.06,137.53c14.13-23.5,25.84-3.32,27.73-.91s2.8-.45,1.89,2.34-5.67,8.92-8,9.44-6.57,2.34-9.9.91-5.14-.45-8.46-5.14-3.25-6.65-3.25-6.65Z"/><path id="860e1db1-9c88-4a4a-9a18-656742ea6323" data-name="path4231" class="04296b06-8977-45eb-9794-4b282697afd7" d="M1303.71,128.54c0,16.09-5.29,13.22-5.14,13.15"/><path id="648d3ef2-c7e3-4023-bd6e-15aae45074da" data-name="path4233" class="04296b06-8977-45eb-9794-4b282697afd7" d="M1296.23,144.1c-3.32,6.57-2.34,8-.45,8.92s.91,5.14,3.78,3.78,7,1.44,8.46-.91a4.46,4.46,0,0,0,.45-4.23"/><path id="c4d827b5-d408-4b94-b618-f89244ed49d4" data-name="path4235" class="04296b06-8977-45eb-9794-4b282697afd7" d="M1137,133.52c-1.44,3.32-2.12,5.14-1.21,5.89s2.57,1.66,3.78.45,1.66-2.12,3.55-2.34,4,1.89,4.91.68.68-2.57,1.89-2.57.68,1.44,1.21,0,1.66-2.34,0-3.78-1.44-.91-1.44-.91"/><path id="0a1d7d0a-f837-4025-9ac2-c5a69e0a2bf5" data-name="path4237" class="04296b06-8977-45eb-9794-4b282697afd7" d="M1125.48,151.13c-1.66,7-.91,8-.91,8"/><path id="9f4e70b2-e449-48ba-8001-2c5590b0fcab" data-name="path4239" class="04296b06-8977-45eb-9794-4b282697afd7" d="M1160.54,141l2.34,3.78"/><path id="53f52f46-0e1a-4d4d-ae50-ba56029a5add" data-name="path4241" class="04296b06-8977-45eb-9794-4b282697afd7" d="M1125.71,154.23c5.44,5.67,7.78,9.67,10.8,10.35a63.63,63.63,0,0,0,8.46.91,9.38,9.38,0,0,0,5.67-1.44,13.42,13.42,0,0,0,4.46-3.55c1.44-1.89,4.68-6.57,4.68-8s.91-5.44.91-6.35,2.57-5.67.68-3.32a38.41,38.41,0,0,1-6.35,5.89c-2.12,1.66-4.23,3.78-5.44,4s-2.12,1.44-5.14,1.66-4,1.21-6.57,1.21-5.67-.68-6.57-.68-5.59-.68-5.59-.68Z"/><path id="008a80f3-52be-455a-b692-1d98cb5bfe7b" data-name="path4243" class="99a66249-5040-4901-be8c-ea368ba8b179" d="M1132,155.13c2.19,4.38,1.59,4.68,2.49,4.91a16.42,16.42,0,0,0,6.57-.23c3.1-.68,6.27-.45,7.56-1.13s1.59,0,3.78-1.66a16.12,16.12,0,0,0,3.48-3.7c.91-1.13,2.49-1.89,1.89-3s2.27-3.48.08-3.25-5.06,4.23-7.25,5.14a36.72,36.72,0,0,1-8.46,2.34c-3.25.38-10.12.6-10.12.6Z"/><path id="d1f8b9f0-df54-455e-93b1-95b8da2e1f3d" data-name="path4245" class="04296b06-8977-45eb-9794-4b282697afd7" d="M1056.58,135.64c.68-3.32.91-4.23,1.66-4.68s2.8.45,3.78.68,1.89,1.21,3,3.32l1.21,2.12"/><path id="29fb2595-36c3-4727-830e-9817954194cc" data-name="path4247" class="04296b06-8977-45eb-9794-4b282697afd7" d="M1179.12,101.56c3.32-3,5.89-4.91,6.35-3.55a15.88,15.88,0,0,1,.45,3.78"/><path id="258ca55a-4507-48bc-9ebb-2cc94bbd4117" data-name="path4249" class="04296b06-8977-45eb-9794-4b282697afd7" d="M1285.88,153.47a38.45,38.45,0,0,0-3,4.91"/><path id="a8007ee8-09ad-486f-8981-62a56bf82316" data-name="path4251" class="04296b06-8977-45eb-9794-4b282697afd7" d="M1323.51,162.69c1.66,6.35,1.66,5.67,1.66,5.67"/><path id="9ea4fb3d-6b15-4120-8293-d1e66aaa6ddd" data-name="path4253" class="6748d6c6-9f36-49fc-80a5-46f7bb07d919" d="M1284.9,155.59c16,22.59,40,8.69,39.29,10.35s-4,1.89-8.24,6.35-5.44,6.35-8,6.8-8.69.23-10.58-.45a10.32,10.32,0,0,1-5.67-5.44c-1.21-2.8-2.12-8.24-3-10.35S1284.9,155.59,1284.9,155.59Z"/><path id="2af7d394-dfab-4196-8e5c-76cbb0a756ef" data-name="path4255" class="7d02f36a-c12b-4688-a59f-c8a33d702074" d="M1292.23,163.82c0,4-1.44,3.32.68,4.46s2.34,2.8,4.68,3,4.46,1.44,6.35,1.21,4.91-1.21,5.89-1.21,2.57,1.21,2.57-.68,1.66-2.34,0-1.89-4.23-.23-6.57-.45a20.57,20.57,0,0,1-6.57-1.44c-2.34-.91-7-3-7-3Z"/><path id="60834147-0365-4ea2-8719-36377cb8d553" data-name="path4257" class="04296b06-8977-45eb-9794-4b282697afd7" d="M1263.29,118c0-3.32,2.12-3.78,2.8-3.32s3,2.34,3.32,4.23-.68,8.46-.68,8.46"/><path id="6a9c596a-3015-483e-b3e0-3d30ec55f928" data-name="path4259" class="04296b06-8977-45eb-9794-4b282697afd7" d="M1381.31,150.45c3.78-4.68,2.57-4.23,3.78-4.68a3.79,3.79,0,0,1,3.78.23c1.44.91,1.21,4,1.21,4"/><path id="e8199425-2954-4330-8133-63bea9345732" data-name="path4261" class="04296b06-8977-45eb-9794-4b282697afd7" d="M1272.66,103.68c16.47-8.46,22.59,4.46,22.59,4.46"/><path id="f9984a2e-bbed-447d-923f-c49536133ab2" data-name="path4263" class="04296b06-8977-45eb-9794-4b282697afd7" d="M1326.53,114.26c23.72-7.56,28.26,12.69,28.26,12.69"/><path id="7b06c0b0-361a-475f-9526-ada548263854" data-name="path4265" class="09306030-d5c4-43db-add3-8d4daacd5c61" d="M1268.43,88.49c9.67,4,7,8,9.67,4s8-16.92,8.31-12.62-3.63,13-2.64,13,20.93,7.63,22.59,4.31,6.65-10.65,8-8.61,4.68.68,4.68,5.29-6.35,8-.3,7.33,3.32,1,7.63,2.64,16.92,7,18.28,5.29-1-10.28,1.36-10.28.3,7,2.34,9,9.67,5.29,14.28,7.63,5,1.66,9,4.31,6.35,2,6.35,6-4,19.95-.3,15.94,8.31-9.29,11.33-9.29,4.68,5.29,6.35,2.64,6-15.26,6-20.32-2-15.64-2-18-4.31-22.59-6.35-28-9.29-13.6-15-19.64-15.64-7.33-19.64-9.29-13-1.66-15.64-1.66-3,4.68-5,2.34a25.59,25.59,0,0,0-8.61-6.65c-3.63-1.66-13.3,0-17.3-.3s-13.3,3.32-16.32,3.32-8.31,5-10.28,8S1274.63,59.18,1273,60.84s-6,10.65-7,15.26-2.64,12.32-2,16.32.68,14.28,1.36,12.32c.38-2,3-16.24,3-16.24Z"/><ellipse id="4683e6ea-ea1e-4930-ad2e-85539c3cabda" data-name="path4271" class="6a88206c-07fc-4efe-a518-234cd6f8f2ee" cx="1111.58" cy="125.89" rx="7.25" ry="7.4"/><ellipse id="a5251348-656a-4672-ad9b-54adf68f5885" data-name="path4275" class="5df4b8c4-181b-4c81-be54-2ba47adc43f8" cx="1111.81" cy="125.67" rx="5.44" ry="5.67"/><ellipse id="b0045b5f-e17f-46fb-8bff-ff66ca2d9867" data-name="path4275-3" class="cf041feb-e057-4012-b849-c97fe7d71430" cx="1114.07" cy="121.44" rx="1.44" ry="1.51"/><ellipse id="c4033335-ea8c-49b0-ad98-80cdde9b39f4" data-name="path4271-7" class="bfe5887a-f6c6-4856-8bbf-1df3d3fe55a9" cx="1162.65" cy="109.57" rx="5.89" ry="6.27"/><ellipse id="cf127010-bf0d-43c4-9db0-13f77448fd27" data-name="path4275-5" class="c86b1ef8-ff86-48ee-9c5f-00c33b26b1dc" cx="1162.81" cy="109.42" rx="4.38" ry="4.76"/><ellipse id="ecddbc55-3bf9-4e39-9556-49c281c7487f" data-name="path4275-3-3" class="cf041feb-e057-4012-b849-c97fe7d71430" cx="1166.13" cy="108.82" rx="1.13" ry="1.28"/><ellipse id="ac0f1e99-acad-4807-b580-6ddef1e20fa2" data-name="path4271-9" class="8fde19ba-5826-4039-a139-1910bf14594e" cx="1338.55" cy="136.92" rx="7.25" ry="7.4"/><ellipse id="497ea71d-01f5-4296-93a7-5801ace95b16" data-name="path4275-1" class="c86b1ef8-ff86-48ee-9c5f-00c33b26b1dc" cx="1338.77" cy="136.7" rx="5.44" ry="5.67"/><ellipse id="ac6a5c2f-0d17-4b6d-92c4-be80d44a9393" data-name="path4275-3-27" class="cf041feb-e057-4012-b849-c97fe7d71430" cx="1333.48" cy="137" rx="1.44" ry="1.51"/><ellipse id="ba774009-c6e4-4548-87c7-bc9f45103f32" data-name="path4271-9-9" class="8fde19ba-5826-4039-a139-1910bf14594e" cx="1283.84" cy="123.25" rx="7.25" ry="7.4"/><ellipse id="6f87ea1f-6734-426d-9f46-a8827299bdf1" data-name="path4275-1-3" class="c86b1ef8-ff86-48ee-9c5f-00c33b26b1dc" cx="1284.07" cy="123.02" rx="5.44" ry="5.67"/><ellipse id="60053b7f-13fc-4d12-9337-4d6aef3ba015" data-name="path4275-3-27-6" class="cf041feb-e057-4012-b849-c97fe7d71430" cx="1280.29" cy="120.3" rx="1.44" ry="1.51"/><path id="a70d579a-b70b-4f95-9903-b160137781fe" data-name="path4390" class="d9250d0e-9ccf-4b5f-aab1-d0c1df31ee57" d="M1162,274.74c-.68,28-.68,23.27-.68,28s6.65,1.36,0,4.68-24.63,9.29-29.92,8.61-28,2-29.92-1.36-19.95-9.29-19.95-9.29-5.29,10.65-5.29,4.68-2-10,2.64-12.62,12.62-3.32,18-10,11.33-11.94,14-18.66-1.36-8.61,2.64-6.65,8.61,2,9.29-3.32.68,4.68.68-8,2-9.29,0-13.3-8-7.33-9.29-8-1.36,4-1.36-.68-2-5.29,0-4,6,4,6,1.36-1.36-11.94,3.32-16.62,2.64-6.65,6-4.68,9.29,8,11.94,13.3-3.32,2.64,2.64,5.29l6,2.64s-6.65-.68-7.33,1.36,2,4,2,9.29,2,6,1.36,8.61-3.32-2,.68,4,6.65,1.36,8.61,4c2.12,2.72,8.08,21.38,8.08,21.38Z"/><path id="25999326-0a02-4776-a595-133b736a3396" data-name="path4392" class="906d4d78-6e48-4425-821a-0e4776a87ee3" d="M1278.1,52.91c-1.36-9.29-1.36-11.64,1.66-15s10.28-3.32,13-3,3.63-.3,2.64.3-4.68,3.32-7,4.68-5,6.65-5,7.63S1278.1,52.91,1278.1,52.91Z"/><path id="1cad8b03-e56d-479f-93b6-54a75861edc2" data-name="path4394" class="09306030-d5c4-43db-add3-8d4daacd5c61" d="M1289.74,33.94c-1.21-6.2-4.46-11-9.67-12.62-3.25-1-23.5,4.23-24,4.68-2.87,2.87-8.46,10.88-9,15.94-1,9.6,4.46,30.75,2.64,43.22-1.81,12.84-6.35,41.1-4.38,33.77s6.72-11.11,9-22.82c.53-2.64,8.31,13,8.61,5.67s-1.66-12.32.3-20.63a58,58,0,0,1,7-18c3.63-6.65,10-6.35,8.61-10s-4-9-2.64-12.62,2.64-4.31,7.33-6c4.84-1.74,6.2-.68,6.2-.68Z"/><path id="dafb69c6-7687-453f-8a4c-518660fa4655" data-name="path4398" class="a160a1cd-7044-43a9-ba19-c3211efd0648" d="M1398.23,66.36c11.79-6,10.8-8.69,22.14-6s19.8,9.52,22.59,15.19,1.44-.83,2.8,5.67.91,1.28,1.44,6.5-.45,16.47-.91,21.23-3.78,16.47-8.46,29-6.12,28.18-7.56,15.19c-1.28-12,1.66,3.25-3.4-5.14-1.89-3.1.23-3.55-.53-2.87a2.7,2.7,0,0,0-1.13,2.49c-3,8.46-7,11-3.85-1,3.55-13.6,1.21-31.43.45-43.75-.53-9.52-3.32-16.92-13.68-18.21s-10.35,2.57-10.35-1.28c0-4,.45-17,.45-17Z"/><path id="b553504d-6f6f-4ced-92b8-4beaf6353d47" data-name="path4396" class="965814be-6efd-40d0-8536-6f56624ac3c9" d="M1390.53,68c3.78,11.18,3,5.14,3.78,11.18s-2.27,6,1.51,6,3.78,3.25,3.78,0-1.51-11.64-1.51-14.43,3.78-2.8,0-2.8Z"/><ellipse id="1f0edc7e-7d28-4493-a97a-2625f80ab081" data-name="path4400" class="07b2ce83-e385-4474-b84f-a28bad5447d9" cx="1131.75" cy="227.67" rx="2.64" ry="2.8"/><circle id="35a57caa-7eb2-4242-b8f0-097a994bd20e" data-name="path4400-0" class="0fa12948-2eac-4d53-ab06-d306331978ec" cx="1131.68" cy="227.59" r="0.98"/><ellipse id="2b33da8d-0ad6-48b5-a6ee-c512fa9f8838" data-name="path4400-6" class="07b2ce83-e385-4474-b84f-a28bad5447d9" cx="1131.6" cy="249.12" rx="2.64" ry="2.8"/><circle id="617e57d6-76b3-49d7-bc90-993b4bb73d47" data-name="path4400-0-2" class="0fa12948-2eac-4d53-ab06-d306331978ec" cx="1131.53" cy="249.12" r="0.98"/><ellipse id="41de5673-22ad-4cc0-827e-1f54028b8341" data-name="path4400-6-6" class="07b2ce83-e385-4474-b84f-a28bad5447d9" cx="1131.98" cy="271.11" rx="2.64" ry="2.8"/><circle id="41437aa8-8ca9-4c0f-97a0-1efcad4a83d4" data-name="path4400-0-2-1" class="0fa12948-2eac-4d53-ab06-d306331978ec" cx="1131.83" cy="271.11" r="0.98"/><ellipse id="92dacc7d-0479-4e95-b617-09907c77cd17" data-name="path4400-6-8" class="07b2ce83-e385-4474-b84f-a28bad5447d9" cx="1129.86" cy="295.51" rx="2.64" ry="2.8"/><circle id="c379bb04-2524-4736-aff9-cbfcd24b7eb6" data-name="path4400-0-2-7" class="0fa12948-2eac-4d53-ab06-d306331978ec" cx="1129.71" cy="295.51" r="0.98"/><path id="83574a65-1807-4e28-a881-ee6ac3bd6b32" data-name="path4476" class="8fb0308c-4376-4073-a895-4f9643ec225b" d="M1352.75,232.5c-4.16,9.44-4,6.35-6,13.15s-3.85,8.31-3,9.14,1.51-2,1.51,2.8-1.36,7,.68,9.67,2,3.48,2.49,2.64-.15.53-.15-1.51.53-9.14.53-11.94a75.49,75.49,0,0,1,.3-11.33,31.43,31.43,0,0,1,2.64-9.14,11.88,11.88,0,0,0,1-3.48Z"/><rect id="b5047814-da1e-47bf-adc5-d09771e8995e" data-name="rect5617-6" class="e721aa19-c55a-4b1d-8396-7c0a7de33b5c" x="904.1" y="561.64" width="566.13" height="60.36"/><g class="3f69629f-d6d2-4d32-86b1-bc4111441d98"><path class="7274da5a-c33e-46d4-b1bb-1c4359963829" d="M946.32,594.15V601H944V583.54h6.43a6.46,6.46,0,0,1,4.49,1.46,5,5,0,0,1,1.62,3.87,4.89,4.89,0,0,1-1.59,3.91,6.75,6.75,0,0,1-4.55,1.37Zm0-1.88h4.13a4.13,4.13,0,0,0,2.83-.87,3.18,3.18,0,0,0,1-2.51,3.29,3.29,0,0,0-1-2.5,3.87,3.87,0,0,0-2.7-1h-4.27Z"/><path class="7274da5a-c33e-46d4-b1bb-1c4359963829" d="M969.36,592.92H961.8v6.18h8.78V601H959.5V583.54h11v1.88H961.8V591h7.56Z"/><path class="7274da5a-c33e-46d4-b1bb-1c4359963829" d="M979.84,593.93h-4.1V601h-2.31V583.54h5.78a6.83,6.83,0,0,1,4.53,1.34,4.83,4.83,0,0,1,1.59,3.91,4.7,4.7,0,0,1-.88,2.84,5.26,5.26,0,0,1-2.45,1.81l4.1,7.4V601h-2.47Zm-4.1-1.88h3.53a4,4,0,0,0,2.73-.89,3,3,0,0,0,1-2.38,3.16,3.16,0,0,0-1-2.48,4.09,4.09,0,0,0-2.79-.88h-3.52Z"/><path class="7274da5a-c33e-46d4-b1bb-1c4359963829" d="M993.7,593.21a10.82,10.82,0,0,1-4.31-2.09,4,4,0,0,1-1.35-3.06,4.22,4.22,0,0,1,1.65-3.41A6.54,6.54,0,0,1,994,583.3a7.15,7.15,0,0,1,3.21.7,5.27,5.27,0,0,1,2.18,1.92,4.9,4.9,0,0,1,.77,2.67h-2.31a3.19,3.19,0,0,0-1-2.5,4.1,4.1,0,0,0-2.84-.91,4.19,4.19,0,0,0-2.65.75,2.5,2.5,0,0,0-1,2.08,2.25,2.25,0,0,0,.9,1.81,8.88,8.88,0,0,0,3.08,1.35,14.3,14.3,0,0,1,3.4,1.35,5.17,5.17,0,0,1,1.82,1.72,4.39,4.39,0,0,1,.59,2.31,4.08,4.08,0,0,1-1.65,3.4,7.05,7.05,0,0,1-4.42,1.28,8.21,8.21,0,0,1-3.36-.69,5.65,5.65,0,0,1-2.4-1.89,4.61,4.61,0,0,1-.84-2.72h2.31a3,3,0,0,0,1.17,2.5,4.92,4.92,0,0,0,3.12.92,4.52,4.52,0,0,0,2.79-.74,2.41,2.41,0,0,0,1-2,2.37,2.37,0,0,0-.9-2A10.35,10.35,0,0,0,993.7,593.21Z"/><path class="7274da5a-c33e-46d4-b1bb-1c4359963829" d="M1016.53,592.82a10.79,10.79,0,0,1-.86,4.47,6.53,6.53,0,0,1-2.44,2.92,6.74,6.74,0,0,1-9.82-2.89,10.35,10.35,0,0,1-.9-4.34v-1.26a10.66,10.66,0,0,1,.87-4.44,6.47,6.47,0,0,1,6.13-4,6.77,6.77,0,0,1,3.7,1,6.52,6.52,0,0,1,2.46,2.94,10.84,10.84,0,0,1,.86,4.47Zm-2.29-1.13a7.82,7.82,0,0,0-1.25-4.76,4.11,4.11,0,0,0-3.49-1.66,4.06,4.06,0,0,0-3.43,1.66,7.66,7.66,0,0,0-1.29,4.61v1.28a7.83,7.83,0,0,0,1.26,4.73,4.43,4.43,0,0,0,6.93.1,7.79,7.79,0,0,0,1.26-4.65Z"/><path class="7274da5a-c33e-46d4-b1bb-1c4359963829" d="M1033.39,601h-2.31l-8.78-13.44V601H1020V583.54h2.31l8.81,13.5v-13.5h2.29Z"/><path class="7274da5a-c33e-46d4-b1bb-1c4359963829" d="M1047.32,596.42H1040l-1.64,4.56H1036l6.66-17.44h2l6.67,17.44H1049Zm-6.61-1.88h5.93l-3-8.16Z"/><path class="7274da5a-c33e-46d4-b1bb-1c4359963829" d="M1056,599.1h8.27V601H1053.7V583.54H1056Z"/><path class="7274da5a-c33e-46d4-b1bb-1c4359963829" d="M1069.37,601h-2.3V583.54h2.3Z"/><path class="7274da5a-c33e-46d4-b1bb-1c4359963829" d="M1075.3,599.1h10V601h-12.7v-1.73l9.56-13.84h-9.41v-1.88h12.16v1.68Z"/><path class="7274da5a-c33e-46d4-b1bb-1c4359963829" d="M1098.12,592.92h-7.56v6.18h8.78V601h-11.08V583.54h11v1.88h-8.66V591h7.56Z"/><path class="7274da5a-c33e-46d4-b1bb-1c4359963829" d="M1102.21,601V583.54h4.92a7.93,7.93,0,0,1,4,1,6.81,6.81,0,0,1,2.7,2.86,9.32,9.32,0,0,1,1,4.26v1.11a9.36,9.36,0,0,1-1,4.33,6.7,6.7,0,0,1-2.72,2.85,8.43,8.43,0,0,1-4.12,1Zm2.3-15.56V599.1h2.42a5.26,5.26,0,0,0,4.14-1.66,6.84,6.84,0,0,0,1.48-4.71v-1a6.94,6.94,0,0,0-1.4-4.62,5,5,0,0,0-4-1.67Z"/><path class="7274da5a-c33e-46d4-b1bb-1c4359963829" d="M1126.69,599.1H1135V601h-10.58V583.54h2.31Z"/><path class="7274da5a-c33e-46d4-b1bb-1c4359963829" d="M1147.44,592.92h-7.56v6.18h8.78V601h-11.08V583.54h11v1.88h-8.66V591h7.56Z"/><path class="7274da5a-c33e-46d4-b1bb-1c4359963829" d="M1161.16,596.42h-7.31l-1.64,4.56h-2.37l6.66-17.44h2l6.67,17.44h-2.36Zm-6.61-1.88h5.93l-3-8.16Z"/><path class="7274da5a-c33e-46d4-b1bb-1c4359963829" d="M1173.93,593.93h-4.1V601h-2.31V583.54h5.78a6.83,6.83,0,0,1,4.53,1.34,4.83,4.83,0,0,1,1.59,3.91,4.7,4.7,0,0,1-.88,2.84,5.26,5.26,0,0,1-2.45,1.81l4.1,7.4V601h-2.47Zm-4.1-1.88h3.53a4,4,0,0,0,2.73-.89,3,3,0,0,0,1-2.38,3.16,3.16,0,0,0-1-2.48,4.09,4.09,0,0,0-2.79-.88h-3.52Z"/><path class="7274da5a-c33e-46d4-b1bb-1c4359963829" d="M1196,601h-2.31L1185,587.54V601h-2.31V583.54H1185l8.81,13.5v-13.5H1196Z"/><path class="7274da5a-c33e-46d4-b1bb-1c4359963829" d="M1202.6,601h-2.3V583.54h2.3Z"/><path class="7274da5a-c33e-46d4-b1bb-1c4359963829" d="M1220.21,601h-2.31l-8.78-13.44V601h-2.31V583.54h2.31l8.81,13.5v-13.5h2.29Z"/><path class="7274da5a-c33e-46d4-b1bb-1c4359963829" d="M1237.18,598.7a5.31,5.31,0,0,1-2.47,1.9,10,10,0,0,1-3.7.63,7.17,7.17,0,0,1-3.79-1,6.66,6.66,0,0,1-2.56-2.85,9.81,9.81,0,0,1-.93-4.28v-1.52a9.17,9.17,0,0,1,1.84-6.11,6.41,6.41,0,0,1,5.17-2.17,6.62,6.62,0,0,1,4.4,1.4,6.08,6.08,0,0,1,2,4h-2.3a3.8,3.8,0,0,0-4.12-3.47,4.07,4.07,0,0,0-3.5,1.62,7.93,7.93,0,0,0-1.2,4.71v1.43a7.44,7.44,0,0,0,1.34,4.67,4.35,4.35,0,0,0,3.63,1.73,8.05,8.05,0,0,0,2.26-.29,3.51,3.51,0,0,0,1.61-1v-3.91h-4V592.3h6.33Z"/><path class="7274da5a-c33e-46d4-b1bb-1c4359963829" d="M1246.27,596.3a4.09,4.09,0,0,1,.7-2.31,10.66,10.66,0,0,1,2.68-2.46,11.53,11.53,0,0,1-1.56-2.28,4.41,4.41,0,0,1,.78-4.83,4.41,4.41,0,0,1,3.19-1.13,4.29,4.29,0,0,1,3,1,3.39,3.39,0,0,1,1.17,2.64,3.73,3.73,0,0,1-.53,1.95,6.94,6.94,0,0,1-1.86,1.88l-1.28.95,3.88,4.64a7.35,7.35,0,0,0,.82-3.46h2a8.35,8.35,0,0,1-1.47,5.07l2.49,3h-2.66l-1.16-1.38a6.07,6.07,0,0,1-2.08,1.2,7.36,7.36,0,0,1-2.43.41,6,6,0,0,1-4.1-1.35A4.52,4.52,0,0,1,1246.27,596.3Zm5.64,3.12a4.67,4.67,0,0,0,3.22-1.34l-4.25-5.09-.4.29q-2,1.47-2,3a2.94,2.94,0,0,0,.92,2.26A3.55,3.55,0,0,0,1251.91,599.41Zm-2-11.95a5,5,0,0,0,1.41,2.88l1.41-1a3.76,3.76,0,0,0,1.11-1.1,2.49,2.49,0,0,0,.3-1.26,1.72,1.72,0,0,0-.6-1.34,2.19,2.19,0,0,0-1.51-.53,2,2,0,0,0-1.56.67A2.48,2.48,0,0,0,1249.91,587.47Z"/><path class="7274da5a-c33e-46d4-b1bb-1c4359963829" d="M1278,596.42h-7.31l-1.64,4.56h-2.37l6.66-17.44h2l6.67,17.44h-2.36Zm-6.61-1.88h5.93l-3-8.16Z"/><path class="7274da5a-c33e-46d4-b1bb-1c4359963829" d="M1297.83,601h-2.31l-8.78-13.44V601h-2.31V583.54h2.31l8.81,13.5v-13.5h2.29Z"/><path class="7274da5a-c33e-46d4-b1bb-1c4359963829" d="M1311.76,596.42h-7.31l-1.64,4.56h-2.37l6.66-17.44h2l6.67,17.44h-2.36Zm-6.61-1.88h5.93l-3-8.16Z"/><path class="7274da5a-c33e-46d4-b1bb-1c4359963829" d="M1320.45,599.1h8.27V601h-10.58V583.54h2.31Z"/><path class="7274da5a-c33e-46d4-b1bb-1c4359963829" d="M1333.79,592.3l4.55-8.76H1341l-6,10.94V601h-2.3v-6.51l-6-10.94h2.64Z"/><path class="7274da5a-c33e-46d4-b1bb-1c4359963829" d="M1355.47,585.42h-5.61V601h-2.29V585.42H1342v-1.88h13.49Z"/><path class="7274da5a-c33e-46d4-b1bb-1c4359963829" d="M1360.52,601h-2.3V583.54h2.3Z"/><path class="7274da5a-c33e-46d4-b1bb-1c4359963829" d="M1377.56,595.45a6.42,6.42,0,0,1-2,4.27,6.7,6.7,0,0,1-4.57,1.5,6.15,6.15,0,0,1-5-2.22,8.92,8.92,0,0,1-1.86-5.93V591.4a9.94,9.94,0,0,1,.87-4.28,6.49,6.49,0,0,1,2.46-2.83,6.85,6.85,0,0,1,3.69-1,6.3,6.3,0,0,1,4.46,1.55,6.5,6.5,0,0,1,2,4.29h-2.31a5,5,0,0,0-1.3-3,3.93,3.93,0,0,0-2.8-.94,4.11,4.11,0,0,0-3.46,1.63,7.48,7.48,0,0,0-1.25,4.64v1.69a7.7,7.7,0,0,0,1.19,4.52,3.83,3.83,0,0,0,3.32,1.68,4.43,4.43,0,0,0,2.94-.87,4.82,4.82,0,0,0,1.36-3Z"/><path class="7274da5a-c33e-46d4-b1bb-1c4359963829" d="M1385.84,593.21a10.82,10.82,0,0,1-4.31-2.09,4,4,0,0,1-1.35-3.06,4.22,4.22,0,0,1,1.65-3.41,6.54,6.54,0,0,1,4.28-1.35,7.15,7.15,0,0,1,3.21.7,5.27,5.27,0,0,1,2.18,1.92,4.9,4.9,0,0,1,.77,2.67H1390a3.19,3.19,0,0,0-1-2.5,4.1,4.1,0,0,0-2.84-.91,4.19,4.19,0,0,0-2.65.75,2.5,2.5,0,0,0-1,2.08,2.25,2.25,0,0,0,.9,1.81,8.88,8.88,0,0,0,3.08,1.35,14.3,14.3,0,0,1,3.4,1.35,5.17,5.17,0,0,1,1.82,1.72,4.39,4.39,0,0,1,.59,2.31,4.08,4.08,0,0,1-1.65,3.4,7.05,7.05,0,0,1-4.42,1.28,8.21,8.21,0,0,1-3.36-.69,5.65,5.65,0,0,1-2.4-1.89,4.61,4.61,0,0,1-.84-2.72h2.31a3,3,0,0,0,1.17,2.5,4.92,4.92,0,0,0,3.12.92,4.52,4.52,0,0,0,2.79-.74,2.41,2.41,0,0,0,1-2,2.37,2.37,0,0,0-.9-2A10.35,10.35,0,0,0,1385.84,593.21Z"/></g><g class="3f69629f-d6d2-4d32-86b1-bc4111441d98"><path d="M116.4,462.7H103v14.12H98.75v-32h19.83v3.45H103v11H116.4Z"/><path d="M148.26,461.86a19.75,19.75,0,0,1-1.58,8.2,12,12,0,0,1-4.49,5.35,12.38,12.38,0,0,1-18-5.3,19,19,0,0,1-1.66-8v-2.31a19.52,19.52,0,0,1,1.6-8.15,11.87,11.87,0,0,1,11.26-7.29,12.42,12.42,0,0,1,6.78,1.86,12,12,0,0,1,4.52,5.38,19.85,19.85,0,0,1,1.58,8.2Zm-4.2-2.06q0-5.69-2.29-8.73a7.55,7.55,0,0,0-6.4-3,7.46,7.46,0,0,0-6.3,3q-2.3,3-2.36,8.44v2.35q0,5.51,2.32,8.66a8.14,8.14,0,0,0,12.72.18q2.24-3,2.31-8.53Z"/><path d="M177.13,444.85v21.74a10.19,10.19,0,0,1-2.85,7.4,11.49,11.49,0,0,1-7.66,3.23l-1.12,0a12,12,0,0,1-8.38-2.83,10.12,10.12,0,0,1-3.17-7.79V444.85h4.18V466.5a6.67,6.67,0,0,0,7.37,7.31A7.41,7.41,0,0,0,171,471.9a7.29,7.29,0,0,0,1.9-5.38V444.85Z"/><path d="M208.4,476.82h-4.24L188,452.18v24.64h-4.24v-32H188l16.16,24.75V444.85h4.2Z"/><path d="M215.9,476.82v-32h9a14.57,14.57,0,0,1,7.39,1.84,12.48,12.48,0,0,1,5,5.25,17.07,17.07,0,0,1,1.77,7.82v2a17.13,17.13,0,0,1-1.75,7.93,12.29,12.29,0,0,1-5,5.23,15.5,15.5,0,0,1-7.55,1.87Zm4.22-28.52v25.08h4.44a9.67,9.67,0,0,0,7.6-3q2.72-3,2.72-8.64v-1.87q0-5.45-2.56-8.47a9.13,9.13,0,0,0-7.27-3.07Z"/><path d="M262.64,468.45H249.23l-3,8.37h-4.35l12.23-32h3.69l12.25,32H265.7ZM250.5,465h10.88l-5.45-15Z"/><path d="M293.62,448.29H283.33v28.52h-4.2V448.29H268.86v-3.45h24.76Z"/><path d="M302.9,476.82h-4.22v-32h4.22Z"/><path d="M335.25,461.86a19.75,19.75,0,0,1-1.58,8.2,12,12,0,0,1-4.49,5.35,12.38,12.38,0,0,1-18-5.3,19,19,0,0,1-1.66-8v-2.31a19.52,19.52,0,0,1,1.6-8.15,11.87,11.87,0,0,1,11.26-7.29,12.42,12.42,0,0,1,6.78,1.86,12,12,0,0,1,4.52,5.38,19.85,19.85,0,0,1,1.58,8.2ZM331,459.8q0-5.69-2.29-8.73a7.55,7.55,0,0,0-6.4-3,7.46,7.46,0,0,0-6.3,3q-2.3,3-2.36,8.44v2.35q0,5.51,2.32,8.66a8.14,8.14,0,0,0,12.72.18q2.24-3,2.31-8.53Z"/><path d="M366.18,476.82h-4.24l-16.12-24.64v24.64h-4.24v-32h4.24L362,469.59V444.85h4.2Z"/><path d="M389,464.3v12.52h-4.22v-32h11.81q5.25,0,8.23,2.68a9.08,9.08,0,0,1,3,7.09,9,9,0,0,1-2.91,7.17q-2.91,2.51-8.34,2.51Zm0-3.45h7.59a7.59,7.59,0,0,0,5.19-1.59,5.83,5.83,0,0,0,1.8-4.61,6,6,0,0,0-1.8-4.57,7.11,7.11,0,0,0-4.95-1.78H389Z"/><path d="M425,463.88h-7.52v12.93h-4.24v-32h10.6q5.41,0,8.32,2.46t2.91,7.16a8.6,8.6,0,0,1-1.62,5.2,9.64,9.64,0,0,1-4.5,3.32l7.52,13.57v.26h-4.53Zm-7.52-3.45h6.49a7.32,7.32,0,0,0,5-1.63,5.5,5.5,0,0,0,1.86-4.36A5.79,5.79,0,0,0,429,449.9a7.5,7.5,0,0,0-5.11-1.61h-6.46Z"/><path d="M465.59,461.86a19.75,19.75,0,0,1-1.58,8.2,12,12,0,0,1-4.49,5.35,12.38,12.38,0,0,1-18-5.3,19,19,0,0,1-1.66-8v-2.31a19.52,19.52,0,0,1,1.6-8.15,11.87,11.87,0,0,1,11.26-7.29,12.42,12.42,0,0,1,6.78,1.86,12,12,0,0,1,4.52,5.38,19.85,19.85,0,0,1,1.58,8.2Zm-4.2-2.06q0-5.69-2.29-8.73a7.55,7.55,0,0,0-6.4-3,7.46,7.46,0,0,0-6.3,3q-2.3,3-2.36,8.44v2.35q0,5.51,2.32,8.66a8.14,8.14,0,0,0,12.72.18q2.24-3,2.31-8.53Z"/><path d="M495.56,472.62A9.75,9.75,0,0,1,491,476.1a18.37,18.37,0,0,1-6.78,1.15,13.17,13.17,0,0,1-6.95-1.83,12.21,12.21,0,0,1-4.69-5.21,18,18,0,0,1-1.7-7.84v-2.79q0-7.22,3.38-11.2t9.49-4a12.16,12.16,0,0,1,8.07,2.56,11.14,11.14,0,0,1,3.74,7.26h-4.22q-1.19-6.37-7.56-6.37a7.48,7.48,0,0,0-6.43,3q-2.19,3-2.21,8.63v2.62q0,5.38,2.46,8.56a8,8,0,0,0,6.66,3.18,14.69,14.69,0,0,0,4.16-.53,6.43,6.43,0,0,0,2.95-1.77v-7.16h-7.41V460.9h11.61Z"/><path d="M514.34,463.88h-7.52v12.93h-4.24v-32h10.6q5.41,0,8.32,2.46t2.91,7.16a8.6,8.6,0,0,1-1.62,5.2,9.64,9.64,0,0,1-4.5,3.32l7.52,13.57v.26h-4.53Zm-7.52-3.45h6.49a7.32,7.32,0,0,0,5-1.63,5.5,5.5,0,0,0,1.86-4.36,5.79,5.79,0,0,0-1.77-4.55,7.5,7.5,0,0,0-5.11-1.61h-6.46Z"/><path d="M548,468.45H534.59l-3,8.37h-4.35l12.23-32h3.69l12.25,32h-4.33ZM535.86,465h10.88l-5.45-15Z"/><path d="M565.15,444.85l10.47,26.08,10.47-26.08h5.48v32h-4.22V464.37l.4-13.44-10.51,25.89H574L563.5,451l.42,13.37v12.45H559.7v-32Z"/><path d="M604.46,444.85l10.47,26.08,10.47-26.08h5.48v32h-4.22V464.37l.4-13.44-10.51,25.89H613.3L602.81,451l.42,13.37v12.45H599v-32Z"/><path d="M656.42,462H642.55v11.33h16.12v3.45H638.32v-32h20.12v3.45h-15.9v10.3h13.87Z"/></g><g class="3f69629f-d6d2-4d32-86b1-bc4111441d98"><path d="M107.71,502.42h-9v9.41H95.94V490.51h13.22v2.3H98.75v7.3h9Z"/><path d="M111.08,503.76a9.34,9.34,0,0,1,.92-4.19,6.83,6.83,0,0,1,2.55-2.87,7,7,0,0,1,3.73-1,6.69,6.69,0,0,1,5.24,2.24,8.61,8.61,0,0,1,2,6v.19a9.42,9.42,0,0,1-.89,4.15,6.73,6.73,0,0,1-2.54,2.86,7,7,0,0,1-3.79,1,6.68,6.68,0,0,1-5.23-2.24,8.56,8.56,0,0,1-2-5.93Zm2.73.32a6.77,6.77,0,0,0,1.22,4.23,4.15,4.15,0,0,0,6.56,0,7.4,7.4,0,0,0,1.22-4.53,6.76,6.76,0,0,0-1.24-4.22,3.94,3.94,0,0,0-3.29-1.62,3.9,3.9,0,0,0-3.24,1.6A7.35,7.35,0,0,0,113.81,504.08Z"/><path d="M136.59,498.42a8.14,8.14,0,0,0-1.33-.1,3.57,3.57,0,0,0-3.62,2.27v11.24h-2.71V496h2.64l0,1.83a4.22,4.22,0,0,1,3.78-2.12,2.77,2.77,0,0,1,1.2.21Z"/><path d="M152.87,509.91a3.91,3.91,0,0,0,2.54-.88,3.09,3.09,0,0,0,1.2-2.2h2.57a4.91,4.91,0,0,1-.94,2.59,6.17,6.17,0,0,1-2.31,2,6.67,6.67,0,0,1-3.06.73,6.54,6.54,0,0,1-5.15-2.16,8.59,8.59,0,0,1-1.91-5.91v-.45a9.52,9.52,0,0,1,.85-4.11,6.47,6.47,0,0,1,2.44-2.8,6.94,6.94,0,0,1,3.76-1,6.37,6.37,0,0,1,4.43,1.6,5.7,5.7,0,0,1,1.88,4.14h-2.57a3.73,3.73,0,0,0-1.17-2.53,3.63,3.63,0,0,0-2.59-1,3.8,3.8,0,0,0-3.2,1.49,7,7,0,0,0-1.14,4.3v.51a6.83,6.83,0,0,0,1.13,4.21A3.81,3.81,0,0,0,152.87,509.91Z"/><path d="M165.17,511.83h-2.71V489.34h2.71Z"/><path d="M179.3,511.83a5.66,5.66,0,0,1-.38-1.67,6.06,6.06,0,0,1-4.51,2,5.6,5.6,0,0,1-3.85-1.33,4.28,4.28,0,0,1-1.5-3.36,4.47,4.47,0,0,1,1.88-3.84,8.88,8.88,0,0,1,5.3-1.37h2.64V501a3,3,0,0,0-.85-2.26,3.42,3.42,0,0,0-2.51-.84,4,4,0,0,0-2.43.73,2.15,2.15,0,0,0-1,1.77h-2.73a3.73,3.73,0,0,1,.84-2.29,5.75,5.75,0,0,1,2.29-1.75,7.71,7.71,0,0,1,3.17-.64,6.28,6.28,0,0,1,4.29,1.37,4.94,4.94,0,0,1,1.61,3.77v7.29a8.89,8.89,0,0,0,.56,3.47v.23Zm-4.5-2.06a4.77,4.77,0,0,0,2.42-.66,4,4,0,0,0,1.66-1.71v-3.25h-2.13q-5,0-5,2.91a2.46,2.46,0,0,0,.85,2A3.27,3.27,0,0,0,174.8,509.76Z"/><path d="M195.07,507.63a2,2,0,0,0-.83-1.71,8,8,0,0,0-2.89-1,13.66,13.66,0,0,1-3.27-1.05,4.65,4.65,0,0,1-1.79-1.46,3.5,3.5,0,0,1-.58-2,4.11,4.11,0,0,1,1.65-3.29,6.45,6.45,0,0,1,4.21-1.35,6.64,6.64,0,0,1,4.38,1.39,4.41,4.41,0,0,1,1.68,3.56h-2.73a2.44,2.44,0,0,0-.95-1.92,3.54,3.54,0,0,0-2.38-.81,3.71,3.71,0,0,0-2.32.64,2,2,0,0,0-.84,1.68,1.64,1.64,0,0,0,.78,1.48,9.55,9.55,0,0,0,2.81,1,14.64,14.64,0,0,1,3.29,1.08,4.81,4.81,0,0,1,1.87,1.51,3.73,3.73,0,0,1,.61,2.16,4.05,4.05,0,0,1-1.7,3.4,7.14,7.14,0,0,1-4.41,1.28,8,8,0,0,1-3.37-.67,5.47,5.47,0,0,1-2.29-1.88,4.53,4.53,0,0,1-.83-2.61h2.71a2.8,2.8,0,0,0,1.09,2.16,4.24,4.24,0,0,0,2.69.8,4.38,4.38,0,0,0,2.47-.62A1.91,1.91,0,0,0,195.07,507.63Z"/><path d="M210.55,507.63a2,2,0,0,0-.83-1.71,8,8,0,0,0-2.89-1,13.66,13.66,0,0,1-3.27-1.05,4.65,4.65,0,0,1-1.79-1.46,3.5,3.5,0,0,1-.58-2,4.11,4.11,0,0,1,1.65-3.29,6.45,6.45,0,0,1,4.21-1.35,6.64,6.64,0,0,1,4.38,1.39,4.41,4.41,0,0,1,1.68,3.56h-2.73a2.44,2.44,0,0,0-.95-1.92,3.54,3.54,0,0,0-2.38-.81,3.71,3.71,0,0,0-2.32.64,2,2,0,0,0-.84,1.68,1.64,1.64,0,0,0,.78,1.48,9.55,9.55,0,0,0,2.81,1,14.64,14.64,0,0,1,3.29,1.08,4.81,4.81,0,0,1,1.87,1.51,3.73,3.73,0,0,1,.61,2.16,4.05,4.05,0,0,1-1.7,3.4,7.14,7.14,0,0,1-4.41,1.28,8,8,0,0,1-3.37-.67,5.47,5.47,0,0,1-2.29-1.88,4.53,4.53,0,0,1-.83-2.61h2.71a2.8,2.8,0,0,0,1.09,2.16,4.24,4.24,0,0,0,2.69.8,4.38,4.38,0,0,0,2.47-.62A1.91,1.91,0,0,0,210.55,507.63Z"/><path d="M236.89,496.08a4.94,4.94,0,0,1-.84,2.84,5.73,5.73,0,0,1-2.28,1.95,6.12,6.12,0,0,1,2.65,2.09,5.26,5.26,0,0,1,1,3.12,5.57,5.57,0,0,1-1.87,4.41,8.2,8.2,0,0,1-9.85,0,5.59,5.59,0,0,1-1.85-4.4,5.42,5.42,0,0,1,.95-3.12,5.89,5.89,0,0,1,2.62-2.11,5.59,5.59,0,0,1-2.24-1.95,5,5,0,0,1-.82-2.82A5.51,5.51,0,0,1,226,491.8a7.35,7.35,0,0,1,9.11,0A5.49,5.49,0,0,1,236.89,496.08ZM234.68,506a3.93,3.93,0,0,0-1.14-2.91,4,4,0,0,0-3-1.13,3.81,3.81,0,0,0-4,4,3.78,3.78,0,0,0,1.08,2.85,4.82,4.82,0,0,0,6,0A3.77,3.77,0,0,0,234.68,506Zm-4.08-13.57a3.5,3.5,0,0,0-2.59,1,4.08,4.08,0,0,0,0,5.31,3.88,3.88,0,0,0,5.2,0,4,4,0,0,0,0-5.28A3.45,3.45,0,0,0,230.61,492.45Z"/><path d="M252.2,492.15V496h3v2.09h-3v9.83a2.19,2.19,0,0,0,.4,1.43,1.67,1.67,0,0,0,1.35.48,6.55,6.55,0,0,0,1.29-.17v2.18a7.94,7.94,0,0,1-2.08.29,3.38,3.38,0,0,1-2.74-1.1,4.71,4.71,0,0,1-.92-3.12v-9.82H246.6V496h2.89v-3.84Z"/><path d="M257.31,503.76a9.34,9.34,0,0,1,.92-4.19,6.83,6.83,0,0,1,2.55-2.87,7,7,0,0,1,3.73-1,6.69,6.69,0,0,1,5.24,2.24,8.61,8.61,0,0,1,2,6v.19a9.42,9.42,0,0,1-.89,4.15,6.73,6.73,0,0,1-2.54,2.86,7,7,0,0,1-3.79,1,6.68,6.68,0,0,1-5.23-2.24,8.56,8.56,0,0,1-2-5.93Zm2.73.32a6.77,6.77,0,0,0,1.22,4.23,4.15,4.15,0,0,0,6.56,0,7.4,7.4,0,0,0,1.22-4.53,6.76,6.76,0,0,0-1.24-4.22,3.94,3.94,0,0,0-3.29-1.62,3.9,3.9,0,0,0-3.24,1.6A7.35,7.35,0,0,0,260,504.08Z"/><path d="M291.22,511.83h-2.73v-18l-5.47,2v-2.46l7.77-2.91h.43Z"/><path d="M312.55,502.74q0,4.76-1.63,7.07a6.77,6.77,0,0,1-10.14.05q-1.64-2.26-1.7-6.76v-3.62q0-4.7,1.63-7a6.89,6.89,0,0,1,10.17-.08q1.63,2.2,1.67,6.8Zm-2.71-3.7a9.91,9.91,0,0,0-1-5,3.33,3.33,0,0,0-3.06-1.57,3.29,3.29,0,0,0-3,1.57,9.67,9.67,0,0,0-1,4.82v4.33a10.06,10.06,0,0,0,1,5.1,3.32,3.32,0,0,0,3,1.65,3.28,3.28,0,0,0,3-1.55,9.71,9.71,0,0,0,1-4.89Z"/><path d="M316.21,516.07,314.67,515a7.07,7.07,0,0,0,1.44-4v-2.45h2.65v2.12a6.66,6.66,0,0,1-.73,3A6.92,6.92,0,0,1,316.21,516.07Z"/><path d="M345.81,509a6.51,6.51,0,0,1-3,2.32,12.25,12.25,0,0,1-4.52.77,8.77,8.77,0,0,1-4.63-1.22,8.15,8.15,0,0,1-3.13-3.48,12,12,0,0,1-1.14-5.23v-1.86q0-4.81,2.25-7.46a7.84,7.84,0,0,1,6.33-2.65,8.11,8.11,0,0,1,5.38,1.71,7.43,7.43,0,0,1,2.49,4.84H343q-.79-4.25-5-4.25a5,5,0,0,0-4.29,2,9.68,9.68,0,0,0-1.47,5.75V502a9.07,9.07,0,0,0,1.64,5.71,5.32,5.32,0,0,0,4.44,2.12,9.84,9.84,0,0,0,2.77-.35,4.29,4.29,0,0,0,2-1.18v-4.78h-4.94v-2.3h7.74Z"/><path d="M349.35,503.76a9.34,9.34,0,0,1,.92-4.19,6.83,6.83,0,0,1,2.55-2.87,7,7,0,0,1,3.73-1,6.69,6.69,0,0,1,5.24,2.24,8.61,8.61,0,0,1,2,6v.19a9.42,9.42,0,0,1-.89,4.15,6.73,6.73,0,0,1-2.54,2.86,7,7,0,0,1-3.79,1,6.68,6.68,0,0,1-5.23-2.24,8.56,8.56,0,0,1-2-5.93Zm2.73.32a6.77,6.77,0,0,0,1.22,4.23,4.15,4.15,0,0,0,6.56,0,7.4,7.4,0,0,0,1.22-4.53,6.76,6.76,0,0,0-1.24-4.22,3.94,3.94,0,0,0-3.29-1.62,3.9,3.9,0,0,0-3.24,1.6A7.35,7.35,0,0,0,352.08,504.08Z"/><path d="M372.21,508.15,376.14,496h2.77l-5.69,15.84h-2.07L365.41,496h2.77Z"/><path d="M387.91,512.12a6.93,6.93,0,0,1-5.25-2.12,7.84,7.84,0,0,1-2-5.66v-.5a9.5,9.5,0,0,1,.9-4.21,7,7,0,0,1,2.52-2.9,6.34,6.34,0,0,1,3.51-1,5.94,5.94,0,0,1,4.81,2,8.8,8.8,0,0,1,1.72,5.83v1.13H383.35a5.62,5.62,0,0,0,1.37,3.78,4.31,4.31,0,0,0,3.33,1.44,4.73,4.73,0,0,0,2.43-.58,6.12,6.12,0,0,0,1.74-1.55l1.66,1.29A6.66,6.66,0,0,1,387.91,512.12Zm-.34-14.2a3.62,3.62,0,0,0-2.76,1.19,5.79,5.79,0,0,0-1.38,3.34h7.94v-.21a5.15,5.15,0,0,0-1.11-3.2A3.41,3.41,0,0,0,387.57,497.92Z"/><path d="M404.9,498.42a8.14,8.14,0,0,0-1.33-.1,3.57,3.57,0,0,0-3.62,2.27v11.24h-2.71V496h2.64l0,1.83a4.22,4.22,0,0,1,3.78-2.12,2.77,2.77,0,0,1,1.2.21Z"/><path d="M410,496l.09,2a5.78,5.78,0,0,1,4.75-2.28q5,0,5.07,5.67v10.47h-2.71V501.35a3.64,3.64,0,0,0-.78-2.53A3.14,3.14,0,0,0,414,498a3.92,3.92,0,0,0-2.32.7,4.77,4.77,0,0,0-1.55,1.84v11.29h-2.71V496Z"/><path d="M426.5,496l.07,1.76a5.86,5.86,0,0,1,4.71-2q3.33,0,4.53,2.55a6,6,0,0,1,2.06-1.84,6.1,6.1,0,0,1,3-.7q5.22,0,5.31,5.52v10.61h-2.71V501.38a3.63,3.63,0,0,0-.78-2.54,3.42,3.42,0,0,0-2.61-.84,3.6,3.6,0,0,0-2.51.9,3.65,3.65,0,0,0-1.16,2.42v10.51h-2.73V501.45q0-3.46-3.39-3.46a3.63,3.63,0,0,0-3.65,2.27v11.56h-2.71V496Z"/><path d="M456.84,512.12A6.93,6.93,0,0,1,451.6,510a7.84,7.84,0,0,1-2-5.66v-.5a9.5,9.5,0,0,1,.9-4.21,7,7,0,0,1,2.52-2.9,6.34,6.34,0,0,1,3.51-1,5.94,5.94,0,0,1,4.81,2,8.8,8.8,0,0,1,1.72,5.83v1.13H452.29a5.62,5.62,0,0,0,1.37,3.78,4.31,4.31,0,0,0,3.33,1.44,4.73,4.73,0,0,0,2.43-.58,6.12,6.12,0,0,0,1.74-1.55l1.66,1.29A6.66,6.66,0,0,1,456.84,512.12Zm-.34-14.2a3.62,3.62,0,0,0-2.76,1.19,5.79,5.79,0,0,0-1.38,3.34h7.94v-.21a5.15,5.15,0,0,0-1.11-3.2A3.41,3.41,0,0,0,456.51,497.92Z"/><path d="M468.73,496l.09,2a5.78,5.78,0,0,1,4.75-2.28q5,0,5.07,5.67v10.47h-2.71V501.35a3.64,3.64,0,0,0-.78-2.53,3.14,3.14,0,0,0-2.4-.82,3.92,3.92,0,0,0-2.32.7,4.77,4.77,0,0,0-1.55,1.84v11.29h-2.71V496Z"/><path d="M486.41,492.15V496h3v2.09h-3v9.83a2.19,2.19,0,0,0,.4,1.43,1.67,1.67,0,0,0,1.35.48,6.55,6.55,0,0,0,1.29-.17v2.18a7.94,7.94,0,0,1-2.08.29,3.38,3.38,0,0,1-2.74-1.1,4.71,4.71,0,0,1-.92-3.12v-9.82h-2.89V496h2.89v-3.84Z"/><path d="M506.68,502.33a13.22,13.22,0,0,1-5.27-2.55,4.87,4.87,0,0,1-1.65-3.74,5.15,5.15,0,0,1,2-4.17,8,8,0,0,1,5.24-1.65,8.76,8.76,0,0,1,3.92.85,6.45,6.45,0,0,1,2.67,2.34,6,6,0,0,1,.95,3.26h-2.83a3.89,3.89,0,0,0-1.23-3,5,5,0,0,0-3.47-1.11,5.13,5.13,0,0,0-3.25.92,3.06,3.06,0,0,0-1.17,2.54,2.75,2.75,0,0,0,1.11,2.21,10.85,10.85,0,0,0,3.77,1.65,17.49,17.49,0,0,1,4.16,1.65,6.32,6.32,0,0,1,2.23,2.1,5.36,5.36,0,0,1,.73,2.83,5,5,0,0,1-2,4.15,8.63,8.63,0,0,1-5.41,1.56,10.05,10.05,0,0,1-4.1-.84,6.91,6.91,0,0,1-2.94-2.31,5.62,5.62,0,0,1-1-3.32h2.83a3.67,3.67,0,0,0,1.43,3.05,6,6,0,0,0,3.82,1.12,5.54,5.54,0,0,0,3.42-.91,3,3,0,0,0,1.19-2.47,2.89,2.89,0,0,0-1.1-2.42A12.71,12.71,0,0,0,506.68,502.33Z"/><path d="M524.14,509.91a3.91,3.91,0,0,0,2.54-.88,3.09,3.09,0,0,0,1.2-2.2h2.57a4.91,4.91,0,0,1-.94,2.59,6.17,6.17,0,0,1-2.31,2,6.67,6.67,0,0,1-3.06.73A6.54,6.54,0,0,1,519,510a8.59,8.59,0,0,1-1.91-5.91v-.45a9.52,9.52,0,0,1,.85-4.11,6.47,6.47,0,0,1,2.44-2.8,6.94,6.94,0,0,1,3.76-1,6.37,6.37,0,0,1,4.43,1.6,5.7,5.7,0,0,1,1.88,4.14h-2.57a3.73,3.73,0,0,0-1.17-2.53,3.63,3.63,0,0,0-2.59-1,3.8,3.8,0,0,0-3.2,1.49,7,7,0,0,0-1.14,4.3v.51a6.83,6.83,0,0,0,1.13,4.21A3.81,3.81,0,0,0,524.14,509.91Z"/><path d="M536.21,497.91a5.77,5.77,0,0,1,4.69-2.21q5,0,5.07,5.67v10.47h-2.71V501.35a3.64,3.64,0,0,0-.78-2.53,3.14,3.14,0,0,0-2.4-.82,3.92,3.92,0,0,0-2.32.7,4.77,4.77,0,0,0-1.55,1.84v11.29h-2.71V489.34h2.71Z"/><path d="M549.31,503.76a9.34,9.34,0,0,1,.92-4.19,6.83,6.83,0,0,1,2.55-2.87,7,7,0,0,1,3.73-1,6.69,6.69,0,0,1,5.24,2.24,8.61,8.61,0,0,1,2,6v.19a9.42,9.42,0,0,1-.89,4.15,6.73,6.73,0,0,1-2.54,2.86,7,7,0,0,1-3.79,1,6.68,6.68,0,0,1-5.23-2.24,8.56,8.56,0,0,1-2-5.93Zm2.73.32a6.77,6.77,0,0,0,1.22,4.23,4.15,4.15,0,0,0,6.56,0,7.4,7.4,0,0,0,1.22-4.53,6.76,6.76,0,0,0-1.24-4.22,3.94,3.94,0,0,0-3.29-1.62,3.9,3.9,0,0,0-3.24,1.6A7.35,7.35,0,0,0,552,504.08Z"/><path d="M566.43,503.76a9.34,9.34,0,0,1,.92-4.19,6.83,6.83,0,0,1,2.55-2.87,7,7,0,0,1,3.73-1,6.69,6.69,0,0,1,5.24,2.24,8.61,8.61,0,0,1,2,6v.19a9.42,9.42,0,0,1-.89,4.15,6.73,6.73,0,0,1-2.54,2.86,7,7,0,0,1-3.79,1,6.68,6.68,0,0,1-5.23-2.24,8.56,8.56,0,0,1-2-5.93Zm2.73.32a6.77,6.77,0,0,0,1.22,4.23,4.15,4.15,0,0,0,6.56,0,7.4,7.4,0,0,0,1.22-4.53,6.76,6.76,0,0,0-1.24-4.22,3.94,3.94,0,0,0-3.29-1.62,3.9,3.9,0,0,0-3.24,1.6A7.35,7.35,0,0,0,569.16,504.08Z"/><path d="M587.22,511.83h-2.71V489.34h2.71Z"/><path d="M605.7,502.33a13.22,13.22,0,0,1-5.27-2.55,4.87,4.87,0,0,1-1.65-3.74,5.15,5.15,0,0,1,2-4.17,8,8,0,0,1,5.24-1.65,8.76,8.76,0,0,1,3.92.85,6.45,6.45,0,0,1,2.67,2.34,6,6,0,0,1,.95,3.26h-2.83a3.89,3.89,0,0,0-1.23-3,5,5,0,0,0-3.47-1.11,5.13,5.13,0,0,0-3.25.92,3.06,3.06,0,0,0-1.17,2.54,2.75,2.75,0,0,0,1.11,2.21,10.85,10.85,0,0,0,3.77,1.65,17.49,17.49,0,0,1,4.16,1.65,6.32,6.32,0,0,1,2.23,2.1,5.36,5.36,0,0,1,.73,2.83,5,5,0,0,1-2,4.15,8.63,8.63,0,0,1-5.41,1.56,10.05,10.05,0,0,1-4.1-.84,6.91,6.91,0,0,1-2.94-2.31,5.62,5.62,0,0,1-1-3.32h2.83a3.67,3.67,0,0,0,1.43,3.05,6,6,0,0,0,3.82,1.12,5.54,5.54,0,0,0,3.42-.91,3,3,0,0,0,1.19-2.47,2.89,2.89,0,0,0-1.1-2.42A12.71,12.71,0,0,0,605.7,502.33Z"/><path d="M620.48,492.15V496h3v2.09h-3v9.83a2.19,2.19,0,0,0,.4,1.43,1.67,1.67,0,0,0,1.35.48,6.55,6.55,0,0,0,1.29-.17v2.18a7.94,7.94,0,0,1-2.08.29,3.38,3.38,0,0,1-2.74-1.1,4.71,4.71,0,0,1-.92-3.12v-9.82h-2.89V496h2.89v-3.84Z"/><path d="M636.4,510.26a5.77,5.77,0,0,1-4.65,1.86,4.93,4.93,0,0,1-3.86-1.47,6.36,6.36,0,0,1-1.34-4.35V496h2.71v10.23q0,3.6,2.93,3.6,3.11,0,4.13-2.31V496H639v15.84h-2.58Z"/><path d="M642.49,503.78a9.27,9.27,0,0,1,1.73-5.86,5.89,5.89,0,0,1,8.94-.32v-8.26h2.71v22.48h-2.49l-.13-1.7a5.53,5.53,0,0,1-4.53,2,5.42,5.42,0,0,1-4.49-2.25,9.37,9.37,0,0,1-1.74-5.88Zm2.71.31a7,7,0,0,0,1.11,4.22,3.6,3.6,0,0,0,3.08,1.52,4,4,0,0,0,3.77-2.31v-7.28a4,4,0,0,0-3.74-2.24,3.62,3.62,0,0,0-3.11,1.54A7.73,7.73,0,0,0,645.21,504.08Z"/><path d="M666.67,512.12a6.93,6.93,0,0,1-5.25-2.12,7.84,7.84,0,0,1-2-5.66v-.5a9.5,9.5,0,0,1,.9-4.21,7,7,0,0,1,2.52-2.9,6.34,6.34,0,0,1,3.51-1,5.94,5.94,0,0,1,4.81,2,8.8,8.8,0,0,1,1.72,5.83v1.13H662.11a5.62,5.62,0,0,0,1.37,3.78,4.31,4.31,0,0,0,3.33,1.44,4.73,4.73,0,0,0,2.43-.58,6.12,6.12,0,0,0,1.74-1.55l1.66,1.29A6.66,6.66,0,0,1,666.67,512.12Zm-.34-14.2a3.62,3.62,0,0,0-2.76,1.19,5.79,5.79,0,0,0-1.38,3.34h7.94v-.21a5.15,5.15,0,0,0-1.11-3.2A3.41,3.41,0,0,0,666.33,497.92Z"/><path d="M678.55,496l.09,2a5.78,5.78,0,0,1,4.75-2.28q5,0,5.07,5.67v10.47h-2.71V501.35a3.64,3.64,0,0,0-.78-2.53,3.14,3.14,0,0,0-2.4-.82,3.92,3.92,0,0,0-2.32.7,4.77,4.77,0,0,0-1.55,1.84v11.29H676V496Z"/><path d="M696.23,492.15V496h3v2.09h-3v9.83a2.19,2.19,0,0,0,.4,1.43,1.67,1.67,0,0,0,1.35.48,6.55,6.55,0,0,0,1.29-.17v2.18a7.94,7.94,0,0,1-2.08.29,3.38,3.38,0,0,1-2.74-1.1,4.71,4.71,0,0,1-.92-3.12v-9.82h-2.89V496h2.89v-3.84Z"/><path d="M711.59,507.63a2,2,0,0,0-.83-1.71,8,8,0,0,0-2.89-1,13.66,13.66,0,0,1-3.27-1.05,4.65,4.65,0,0,1-1.79-1.46,3.5,3.5,0,0,1-.58-2,4.11,4.11,0,0,1,1.65-3.29,6.45,6.45,0,0,1,4.21-1.35,6.64,6.64,0,0,1,4.38,1.39,4.41,4.41,0,0,1,1.68,3.56h-2.73a2.44,2.44,0,0,0-.95-1.92,3.54,3.54,0,0,0-2.38-.81,3.71,3.71,0,0,0-2.32.64,2,2,0,0,0-.84,1.68,1.64,1.64,0,0,0,.78,1.48,9.55,9.55,0,0,0,2.81,1,14.64,14.64,0,0,1,3.29,1.08,4.81,4.81,0,0,1,1.87,1.51,3.73,3.73,0,0,1,.61,2.16,4.05,4.05,0,0,1-1.7,3.4,7.14,7.14,0,0,1-4.41,1.28,8,8,0,0,1-3.37-.67,5.47,5.47,0,0,1-2.29-1.88,4.53,4.53,0,0,1-.83-2.61h2.71a2.8,2.8,0,0,0,1.09,2.16,4.24,4.24,0,0,0,2.69.8,4.38,4.38,0,0,0,2.47-.62A1.91,1.91,0,0,0,711.59,507.63Z"/></g></g></g></svg>