<svg xmlns="http://www.w3.org/2000/svg" xmlns:xlink="http://www.w3.org/1999/xlink" viewBox="0 0 1600 650"><defs><style>.\38 75714fd-67db-4705-82d2-8ca39dac753f{fill:#3cdbd3;}.af4a029d-6123-4eec-b6d2-4ad8f80514eb{fill:#a48888;}.\30 01c1606-1085-4719-9201-8a319f2f9055{fill:#146124;}.f0df6146-692c-44de-aa88-5a588e13844f{fill:#b7bcbb;}.\37 2860496-9956-4706-9870-b2e92fdcd32a{fill:#7d7662;stroke:url(#6134f45b-aa51-4770-ad6a-11cdb70a306f);}.\32 c92c4e4-ad36-4b39-a2cb-f8b5bcf33260,.\33 ba81cc3-3133-4e6f-a704-7fcf37f9e5fe,.\37 2860496-9956-4706-9870-b2e92fdcd32a,.\39 9307d82-505c-49e6-a282-b8a6a2037fc9,.ca60b44c-af3c-4d89-84fd-ae1eba6c3bb6,.ffc62031-5f0a-43df-b04b-e7efcfe17b21{stroke-width:0.94px;}.\33 a0edb99-bded-4e93-a16e-e7bf2bb3ee1f{fill:#7b7664;stroke-width:0.95px;stroke:url(#2cd89387-2ba9-4a98-806f-ad93749a4c63);}.\30 8e1368f-fe6f-4807-a43b-02c3f619d999{fill:#561b1b;}.ffc62031-5f0a-43df-b04b-e7efcfe17b21{fill:#cac8b6;}.\32 c92c4e4-ad36-4b39-a2cb-f8b5bcf33260,.\33 ba81cc3-3133-4e6f-a704-7fcf37f9e5fe,.\38 2b4d049-bea6-4937-a164-e1bac851bf1c,.\39 9307d82-505c-49e6-a282-b8a6a2037fc9,.ca60b44c-af3c-4d89-84fd-ae1eba6c3bb6,.ffc62031-5f0a-43df-b04b-e7efcfe17b21{stroke:#000;}.\35 d3b791b-0293-4fcc-b6bd-3a4fba6ebc99{fill:#32506f;}.\35 954ad71-eb58-451a-9f05-d6bb21ee7b9b{fill:#3285d8;}.\35 4c02d66-21ea-41a6-9c64-6bfa3eba871d{fill:#8a8e8e;}.\31 c2d4fc9-6138-4f84-8ad5-1ff3d12c9261{fill:#4068c2;}.\33 ba81cc3-3133-4e6f-a704-7fcf37f9e5fe{fill:#f0f7f9;}.\32 c92c4e4-ad36-4b39-a2cb-f8b5bcf33260{fill:#ebf6f9;}.ca60b44c-af3c-4d89-84fd-ae1eba6c3bb6{fill:#f8fcfd;}.\37 a95d98b-5fbb-409b-826b-eb7da640f0e5,.d5235c2f-930c-4e79-a5be-1bf7c2c9a9c6,.f7368fed-1ce3-4e64-a9fc-1434a4ad3dbb{fill:none;}.\35 ca090a6-9582-412b-b742-7477d6ebece3,.d5235c2f-930c-4e79-a5be-1bf7c2c9a9c6{stroke:#f5f5fa;stroke-width:1.59px;}.\31 dd5ca09-80e9-4586-a472-0c50571c1e57{fill:#8e8e8e;}.\33 78ed7ef-b1ee-4695-9c85-c9191082a9f5,.\35 ca090a6-9582-412b-b742-7477d6ebece3{fill:#3b2d2d;}.dac2e3fe-749a-463b-94ba-8ee8e16df42a{fill:#4059c2;}.ec25acc2-da53-4ca0-accf-916806fb5925{fill:#bdc3c2;}.\36 3a96458-162e-4a56-af68-15981b8c0ee7{fill:#d6c5c7;}.b282ecdf-291e-4f3b-a198-2a30e2d1527b{fill:#6f777f;}.f7368fed-1ce3-4e64-a9fc-1434a4ad3dbb{stroke:#fbf8fb;stroke-width:1.87px;}.\38 2b4d049-bea6-4937-a164-e1bac851bf1c{fill:#f3f3f3;stroke-width:1.33px;}.\36 b9462dc-a9d6-4c25-8ed8-f2279e817db4{fill:#cebdbd;}.\37 a95d98b-5fbb-409b-826b-eb7da640f0e5{stroke:#fdf2f2;stroke-width:1.4px;}.\39 9307d82-505c-49e6-a282-b8a6a2037fc9{fill:#faecec;}.\30 19cfad2-816d-44f5-b05c-7d38551dfee1,.\36 5bc8342-1542-4db2-9db5-0acdb93e5328,.\37 30672ab-d894-49cc-bbf2-65ec18fd68ff{fill:#522a27;stroke:#f8f8f8;stroke-linecap:round;stroke-linejoin:round;}.\37 30672ab-d894-49cc-bbf2-65ec18fd68ff{stroke-width:0.84px;}.f6c3c0dc-ddf9-4a04-8b95-c1d3bacfade2{isolation:isolate;}.\33 cb0c5d1-7c17-473d-9cc8-4fbe846beecc{fill:#f8fafd;}.\36 5bc8342-1542-4db2-9db5-0acdb93e5328{stroke-width:0.84px;}.\32 60d13a6-472e-4712-ad36-1b892785b40d{fill:#fcfcfc;}.\30 19cfad2-816d-44f5-b05c-7d38551dfee1{stroke-width:0.84px;}</style><linearGradient id="6134f45b-aa51-4770-ad6a-11cdb70a306f" x1="1105.46" y1="-0.02" x2="1140.37" y2="-0.02" gradientTransform="translate(-81.69 86.4) scale(1.02 1.13)" gradientUnits="userSpaceOnUse"><stop offset="0" stop-color="#9bd1b4"/><stop offset="1" stop-color="#9bd1b4" stop-opacity="0"/></linearGradient><radialGradient id="2cd89387-2ba9-4a98-806f-ad93749a4c63" cx="1164.21" cy="-328.9" r="15.75" gradientTransform="translate(-80.99 1487.86) scale(1.01 4.29)" gradientUnits="userSpaceOnUse"><stop offset="0"/><stop offset="1" stop-opacity="0"/></radialGradient></defs><title>slide-4@700</title><g id="d5d2d57b-8331-46a1-be01-4a5acc936f40" data-name="Layer 2"><g id="f9b26fde-afec-43b1-9d66-df6b66ca2a18" data-name="Layer 1"><rect id="690c2b30-46a6-49a5-a9dd-66ee45f759d2" data-name="rect5895" class="875714fd-67db-4705-82d2-8ca39dac753f" width="1600" height="650"/><path id="bfd2839d-466f-4170-b0e8-67fecf681d99" data-name="path4219" class="af4a029d-6123-4eec-b6d2-4ad8f80514eb" d="M1049.19,188.29l-99.37,27.9L1115.67,411.7,1520.52,221h0L1397.32,163.7v16.37l44.5,20.44h0L1102.83,347"/><path id="9f63770d-ec21-454c-80d3-f22819726b6a" data-name="path4225" class="001c1606-1085-4719-9201-8a319f2f9055" d="M996.39,227.95l107.75,119.43L1443,199.75,1255.84,122Z"/><path id="6f2ebd70-b5a3-494c-b689-78e78e97f6db" data-name="path4247" class="f0df6146-692c-44de-aa88-5a588e13844f" d="M1308,180.76l89.3-29.28v53.8l-90.22,34Z"/><path id="2be904e1-57c3-49bb-9fc5-9d0d31ff8c8f" data-name="path4227" class="72860496-9956-4706-9870-b2e92fdcd32a" d="M1047.19,154.86l-5.76-134.1c6.92,4.3,13.83,3.07,20.67-2.92l17.14,111Z"/><path id="a5f95c7b-f26a-4f5f-9bb1-12fc6259281a" data-name="path4229" class="3a0edb99-bded-4e93-a16e-e7bf2bb3ee1f" d="M1085.08,10l-2.31,120.66,29.9,12.37,5.69-4.07-12.6-127.88c-6.92,8.53-13.83,6.38-20.67-1.08Z"/><path id="15541fe7-503a-458f-ac1f-7b257a1307fd" data-name="path4231" class="08e1368f-fe6f-4807-a43b-02c3f619d999" d="M1043.73,156.94l33.51-31.28,35.35,17L1140,111.29l27.44,15,25.59-27.9,30.51,13.6,25-26.59,75.62,32-26.82,31.36-28.67-16.37-28.67,34-31.74-17.68-28.67,36.12-39-18.37-33.51,38.81Z"/><path id="147cab25-9ce5-4296-90cf-85b9b651d5d7" data-name="path4235" class="ffc62031-5f0a-43df-b04b-e7efcfe17b21" d="M1043.12,157l-1.31,4.53,66.4,50.11,34-38.5,37.5,18.75,29.74-35.2L1241,173.08l29.28-33.74,27.59,15.91,26.74-30.82,22.9,14.6.85-7.38-24.59-15.45-25,31.28L1268.6,132l-28.43,34.66-31.51-18.29-28.05,35.66-40.5-17.83c-11.07,12.68-28.74,32.82-33.2,38Z"/><path id="9d142f17-159e-44d7-9200-decf644729aa" data-name="path4237" class="5d3b791b-0293-4fcc-b6bd-3a4fba6ebc99" d="M1046.19,165.78l4.84,81.77,57.33,48.34L1106.52,210Z"/><path id="0b622dfa-bb12-4d88-a579-d0f56c5c3490" data-name="path4239" class="5954ad71-eb58-451a-9f05-d6bb21ee7b9b" d="M1105.91,210l2.46,87.92L1290,230.49l3.07-59.25,55.49-15.68-1.23-15.68-22.59-15-26.21,31.36-28.67-17.06-28.67,34.74-31.12-19.06L1179,192.37l-36.58-18.67Z"/><path id="2c77021c-a5ad-4960-b12a-9697259e3da2" data-name="path4241" class="54c02d66-21ea-41a6-9c64-6bfa3eba871d" d="M1291.88,171.23l16.45,10.22-1.23,58.25-16.75-9.91Z"/><path id="b4d50bad-55a6-4f7d-aa83-9c8ddb9c82ce" data-name="path4243" class="1c2d4fc9-6138-4f84-8ad5-1ff3d12c9261" d="M1308.33,192.67l88.38-31-.31,12.91-88.69,30.66Z"/><path id="42001c53-2490-4553-89c5-9dc18aedd1ba" data-name="path4249" class="3ba81cc3-3133-4e6f-a704-7fcf37f9e5fe" d="M1132.34,243.47l.46,38.5,24.59-8.68-.46-36.58Z"/><path id="2dd31372-8cbf-493e-a3b4-cf418ad5e9bb" data-name="path4266" class="2c92c4e4-ad36-4b39-a2cb-f8b5bcf33260" d="M1134.88,246.55l.61,31.66,19.21-6.84V240.71l-19.83,5.84Z"/><path id="66e0aea3-993a-40ea-b87d-4326c3573de7" data-name="path4249-6" class="3ba81cc3-3133-4e6f-a704-7fcf37f9e5fe" d="M1196.82,219.65l.46,38.5,24.59-8.68-.46-36.58Z"/><path id="e1348bfe-e7de-4859-b302-8f58ef452909" data-name="path4266-7" class="ca60b44c-af3c-4d89-84fd-ae1eba6c3bb6" d="M1199.36,222.72l.61,31.66,19.21-6.84V216.88l-19.83,5.84Z"/><path id="95ea445e-3e2e-4707-a7cc-22c562bba10c" data-name="path4290" class="d5235c2f-930c-4e79-a5be-1bf7c2c9a9c6" d="M1121.35,209.27l.61,13,40.35-12.53-.61-13Z"/><path id="13757a2b-7422-409c-a341-1aaca3aa820e" data-name="path4292" class="1dd5ca09-80e9-4586-a472-0c50571c1e57" d="M1188.29,189l.46,12.07,40.12-12.6-.31-11.91L1188.29,189Z"/><path id="47a87309-acf6-493c-b977-b57c6d1be0df" data-name="path4290-5" class="5ca090a6-9582-412b-b742-7477d6ebece3" d="M1188,187.83l.61,13,40.35-12.53-.61-13Z"/><path id="62e5a203-e774-4c1e-86b9-6b8b2a4ff7a7" data-name="path4292-3" class="378ed7ef-b1ee-4695-9c85-c9191082a9f5" d="M1122,209.74l.46,12.07,38-12.6-.31-11.91L1122,209.74Z"/><path id="4d5ced28-1eb6-401a-b52f-ceb43f757e4b" data-name="path4245" class="dac2e3fe-749a-463b-94ba-8ee8e16df42a" d="M1308,216.58l89.3-31.66v11.6l-89.92,34Z"/><path id="24f668eb-6a1a-4811-87a2-70a67f992a55" data-name="path4288" class="ec25acc2-da53-4ca0-accf-916806fb5925" d="M1292,171.08l57.1-14.76-1.31-16.83,1.31-7.22,1.69-1,44.8,19.75-88.38,29.9Z"/><path id="33995695-3ba9-4b6a-9aaf-a9c2f568a357" data-name="path4330" class="63a96458-162e-4a56-af68-15981b8c0ee7" d="M1127.89,291l18.6,38L1256,282.28l-22.59-30.43Z"/><path id="f823d01e-2017-4329-8a9c-0f01c1706a2b" data-name="path5824" class="b282ecdf-291e-4f3b-a198-2a30e2d1527b" d="M1141.87,172.69l-1.31,6.76,36.2,16.37,2.61-3.84-39.19-20.21h0"/><path id="14813cfa-4993-4880-93cf-67bbea4b14fd" data-name="path5824-6" class="b282ecdf-291e-4f3b-a198-2a30e2d1527b" d="M1209.42,154.48,1208,160.4l30.89,16.6,2.46-3.23-33.43-20.13h0"/><path id="ec7295e5-dbe2-4789-84c7-29ed99d991db" data-name="path5824-2" class="b282ecdf-291e-4f3b-a198-2a30e2d1527b" d="M1269.44,139.34l-1,5.76,28.59,14,2.07-3.3-31-17.29h0"/><path id="c20095b8-98b4-4746-b98e-6e9726f86b4a" data-name="path5824-9" class="b282ecdf-291e-4f3b-a198-2a30e2d1527b" d="M1324.55,124.66l-1.08,4.38,22.13,12.53,1.77-2.38L1323.47,124h0"/><path id="1e9d0c04-029f-471a-a9d6-c92049054219" data-name="path5866" class="f7368fed-1ce3-4e64-a9fc-1434a4ad3dbb" d="M1292.35,171l15.14,10.45-.54,58.25h0"/><path id="4c487daa-65f8-4131-a667-9286adfdd689" data-name="path5868" class="f7368fed-1ce3-4e64-a9fc-1434a4ad3dbb" d="M1307.26,181.15l88.53-29.9h0"/><path id="984fef22-932f-4f7d-ba2b-94c4daa54171" data-name="path5870" class="f7368fed-1ce3-4e64-a9fc-1434a4ad3dbb" d="M1293.19,171l56-15.45h0"/><path id="d4a538e0-da6c-4258-86fa-f17d7f9fceb3" data-name="path5872-1" class="82b4d049-bea6-4937-a164-e1bac851bf1c" d="M1063.87,217.11l1.08,36.2,18.83,13.76V229.64Z"/><path id="965bce5e-9051-4400-a0bf-abe93867cd10" data-name="path5889" class="6b9462dc-a9d6-4c25-8ed8-f2279e817db4" d="M1058.1,253.31l-25.05,15.91,25.05,27.21,26.21-19.9Z"/><path id="9a108e9e-e132-41eb-8cd3-247edb8012a4" data-name="path5891" class="7a95d98b-5fbb-409b-826b-eb7da640f0e5" d="M1061.33,187.14,1059.18,198l28.59,22.13,3.3-11.3Z"/><path id="5d330ae1-0d02-465e-96b9-148946483a02" data-name="path5893" class="378ed7ef-b1ee-4695-9c85-c9191082a9f5" d="M1061.41,188.06l-1.54,9.15,27.28,22.21,3.15-9.61Z"/><path id="2ce8dd9a-144c-4210-844f-3fae2dbaa036" data-name="path5872" class="99307d82-505c-49e6-a282-b8a6a2037fc9" d="M1067,225.49l.77,25.28,13.3,9.61V234.25Z"/><rect id="44049495-3c31-441b-a3f9-d7c200e3d539" data-name="rect5617" class="730672ab-d894-49cc-bbf2-65ec18fd68ff" x="976.2" y="502" width="530.4" height="61.5"/><g class="f6c3c0dc-ddf9-4a04-8b95-c1d3bacfade2"><path class="3cb0c5d1-7c17-473d-9cc8-4fbe846beecc" d="M1003.51,533.91a9.56,9.56,0,0,1-3.8-1.84,3.52,3.52,0,0,1-1.19-2.7,3.72,3.72,0,0,1,1.45-3,5.79,5.79,0,0,1,3.78-1.19,6.32,6.32,0,0,1,2.83.61,4.65,4.65,0,0,1,1.92,1.69,4.32,4.32,0,0,1,.68,2.36h-2a2.81,2.81,0,0,0-.89-2.2,3.62,3.62,0,0,0-2.51-.8,3.7,3.7,0,0,0-2.34.66,2.2,2.2,0,0,0-.84,1.83,2,2,0,0,0,.8,1.59,7.84,7.84,0,0,0,2.72,1.19,12.66,12.66,0,0,1,3,1.19,4.55,4.55,0,0,1,1.61,1.52,3.86,3.86,0,0,1,.52,2,3.59,3.59,0,0,1-1.46,3,6.23,6.23,0,0,1-3.9,1.12,7.24,7.24,0,0,1-3-.61,5,5,0,0,1-2.12-1.66,4.05,4.05,0,0,1-.75-2.4h2a2.65,2.65,0,0,0,1,2.2,4.34,4.34,0,0,0,2.75.81,4,4,0,0,0,2.46-.66,2.12,2.12,0,0,0,.86-1.78,2.09,2.09,0,0,0-.79-1.75A9.14,9.14,0,0,0,1003.51,533.91Z"/><path class="3cb0c5d1-7c17-473d-9cc8-4fbe846beecc" d="M1022.46,527h-4.95v13.72h-2V527h-4.94v-1.66h11.91Z"/><path class="3cb0c5d1-7c17-473d-9cc8-4fbe846beecc" d="M1035.59,525.38v10.46a4.9,4.9,0,0,1-1.37,3.56,5.52,5.52,0,0,1-3.68,1.55l-.54,0a5.77,5.77,0,0,1-4-1.36,4.87,4.87,0,0,1-1.52-3.75V525.38h2V535.8a3.21,3.21,0,0,0,3.54,3.52,3.56,3.56,0,0,0,2.64-.92,3.51,3.51,0,0,0,.92-2.59V525.38Z"/><path class="3cb0c5d1-7c17-473d-9cc8-4fbe846beecc" d="M1038.79,540.76V525.38h4.35a7,7,0,0,1,3.55.89,6,6,0,0,1,2.38,2.52,8.2,8.2,0,0,1,.85,3.76v1a8.23,8.23,0,0,1-.84,3.81,5.9,5.9,0,0,1-2.4,2.51,7.45,7.45,0,0,1-3.63.9Zm2-13.72V539.1H1043a4.65,4.65,0,0,0,3.65-1.46,6,6,0,0,0,1.31-4.15v-.9a6.12,6.12,0,0,0-1.23-4.07,4.39,4.39,0,0,0-3.5-1.47Z"/><path class="3cb0c5d1-7c17-473d-9cc8-4fbe846beecc" d="M1061.7,533.65H1055v5.45h7.75v1.66H1053V525.38h9.68V527H1055v5h6.67Z"/><path class="3cb0c5d1-7c17-473d-9cc8-4fbe846beecc" d="M1077.14,540.76h-2l-7.75-11.85v11.85h-2V525.38h2l7.77,11.9v-11.9h2Z"/><path class="3cb0c5d1-7c17-473d-9cc8-4fbe846beecc" d="M1091.08,527h-4.95v13.72h-2V527h-4.94v-1.66h11.91Z"/><path class="3cb0c5d1-7c17-473d-9cc8-4fbe846beecc" d="M1100.33,534.74v6h-2V525.38H1104a5.71,5.71,0,0,1,4,1.29,4.37,4.37,0,0,1,1.43,3.41,4.3,4.3,0,0,1-1.4,3.45,6,6,0,0,1-4,1.21Zm0-1.66H1104a3.65,3.65,0,0,0,2.5-.77,2.8,2.8,0,0,0,.87-2.22,2.9,2.9,0,0,0-.87-2.2,3.42,3.42,0,0,0-2.38-.86h-3.76Z"/><path class="3cb0c5d1-7c17-473d-9cc8-4fbe846beecc" d="M1117.61,534.54H1114v6.22h-2V525.38h5.1a6,6,0,0,1,4,1.18,4.26,4.26,0,0,1,1.4,3.44,4.14,4.14,0,0,1-.78,2.5,4.63,4.63,0,0,1-2.16,1.59l3.62,6.53v.13H1121Zm-3.62-1.66h3.12a3.52,3.52,0,0,0,2.41-.78,2.64,2.64,0,0,0,.89-2.09,2.78,2.78,0,0,0-.85-2.19,3.61,3.61,0,0,0-2.46-.77H1114Z"/><path class="3cb0c5d1-7c17-473d-9cc8-4fbe846beecc" d="M1137.14,533.57a9.5,9.5,0,0,1-.76,3.94,5.76,5.76,0,0,1-2.16,2.57,6,6,0,0,1-8.67-2.55,9.11,9.11,0,0,1-.8-3.83V532.6a9.39,9.39,0,0,1,.77-3.92,5.71,5.71,0,0,1,5.42-3.51,6,6,0,0,1,3.26.89,5.75,5.75,0,0,1,2.17,2.59,9.54,9.54,0,0,1,.76,3.94Zm-2-1a6.88,6.88,0,0,0-1.1-4.2,3.63,3.63,0,0,0-3.08-1.46,3.59,3.59,0,0,0-3,1.46,6.75,6.75,0,0,0-1.14,4.06v1.13a6.9,6.9,0,0,0,1.12,4.17,3.91,3.91,0,0,0,6.12.08,6.85,6.85,0,0,0,1.11-4.1Z"/><path class="3cb0c5d1-7c17-473d-9cc8-4fbe846beecc" d="M1146.64,525.38h2v10.89a4.5,4.5,0,0,1-1.33,3.45,5,5,0,0,1-3.54,1.25,5.1,5.1,0,0,1-3.57-1.17,4.23,4.23,0,0,1-1.28-3.28h2a2.55,2.55,0,0,0,2.82,2.8,2.73,2.73,0,0,0,2-.79,3.06,3.06,0,0,0,.79-2.22Z"/><path class="3cb0c5d1-7c17-473d-9cc8-4fbe846beecc" d="M1160.84,533.65h-6.67v5.45h7.75v1.66h-9.78V525.38h9.68V527h-7.65v5h6.67Z"/><path class="3cb0c5d1-7c17-473d-9cc8-4fbe846beecc" d="M1175.77,535.88a5.66,5.66,0,0,1-1.8,3.76,5.92,5.92,0,0,1-4,1.33,5.43,5.43,0,0,1-4.37-2,7.85,7.85,0,0,1-1.64-5.23v-1.48a8.75,8.75,0,0,1,.77-3.77,5.72,5.72,0,0,1,2.17-2.5,6.05,6.05,0,0,1,3.26-.87,5.57,5.57,0,0,1,3.93,1.37,5.73,5.73,0,0,1,1.72,3.79h-2a4.42,4.42,0,0,0-1.15-2.67,3.48,3.48,0,0,0-2.47-.83,3.63,3.63,0,0,0-3.05,1.44,6.59,6.59,0,0,0-1.1,4.09v1.49a6.77,6.77,0,0,0,1,4,3.38,3.38,0,0,0,2.93,1.48,3.91,3.91,0,0,0,2.6-.77,4.24,4.24,0,0,0,1.2-2.67Z"/><path class="3cb0c5d1-7c17-473d-9cc8-4fbe846beecc" d="M1188.88,527h-4.95v13.72h-2V527H1177v-1.66h11.91Z"/><path class="3cb0c5d1-7c17-473d-9cc8-4fbe846beecc" d="M1195.53,533.91a9.56,9.56,0,0,1-3.8-1.84,3.52,3.52,0,0,1-1.19-2.7,3.72,3.72,0,0,1,1.45-3,5.79,5.79,0,0,1,3.78-1.19,6.32,6.32,0,0,1,2.83.61,4.65,4.65,0,0,1,1.92,1.69,4.32,4.32,0,0,1,.68,2.36h-2a2.81,2.81,0,0,0-.89-2.2,3.62,3.62,0,0,0-2.51-.8,3.7,3.7,0,0,0-2.34.66,2.2,2.2,0,0,0-.84,1.83,2,2,0,0,0,.8,1.59,7.84,7.84,0,0,0,2.72,1.19,12.66,12.66,0,0,1,3,1.19,4.55,4.55,0,0,1,1.61,1.52,3.86,3.86,0,0,1,.52,2,3.59,3.59,0,0,1-1.46,3,6.23,6.23,0,0,1-3.9,1.12,7.24,7.24,0,0,1-3-.61,5,5,0,0,1-2.12-1.66,4.05,4.05,0,0,1-.75-2.4h2a2.65,2.65,0,0,0,1,2.2,4.34,4.34,0,0,0,2.75.81,4,4,0,0,0,2.46-.66,2.12,2.12,0,0,0,.86-1.78,2.09,2.09,0,0,0-.79-1.75A9.14,9.14,0,0,0,1195.53,533.91Z"/><path class="3cb0c5d1-7c17-473d-9cc8-4fbe846beecc" d="M1211.38,540.76h-2V525.38h2Z"/><path class="3cb0c5d1-7c17-473d-9cc8-4fbe846beecc" d="M1226.92,540.76h-2l-7.75-11.85v11.85h-2V525.38h2l7.77,11.9v-11.9h2Z"/><path class="3cb0c5d1-7c17-473d-9cc8-4fbe846beecc" d="M1238.07,540.76h-2V525.38h2Z"/><path class="3cb0c5d1-7c17-473d-9cc8-4fbe846beecc" d="M1253.62,540.76h-2l-7.75-11.85v11.85h-2V525.38h2l7.77,11.9v-11.9h2Z"/><path class="3cb0c5d1-7c17-473d-9cc8-4fbe846beecc" d="M1257.22,540.76V525.38h4.35a7,7,0,0,1,3.55.89,6,6,0,0,1,2.38,2.52,8.2,8.2,0,0,1,.85,3.76v1a8.23,8.23,0,0,1-.84,3.81,5.9,5.9,0,0,1-2.4,2.51,7.45,7.45,0,0,1-3.63.9Zm2-13.72V539.1h2.14a4.65,4.65,0,0,0,3.65-1.46,6,6,0,0,0,1.31-4.15v-.9a6.12,6.12,0,0,0-1.23-4.07,4.39,4.39,0,0,0-3.5-1.47Z"/><path class="3cb0c5d1-7c17-473d-9cc8-4fbe846beecc" d="M1282.26,525.38v10.46a4.9,4.9,0,0,1-1.37,3.56,5.52,5.52,0,0,1-3.68,1.55l-.54,0a5.77,5.77,0,0,1-4-1.36,4.87,4.87,0,0,1-1.52-3.75V525.38h2V535.8a3.21,3.21,0,0,0,3.54,3.52,3.56,3.56,0,0,0,2.64-.92,3.51,3.51,0,0,0,.92-2.59V525.38Z"/><path class="3cb0c5d1-7c17-473d-9cc8-4fbe846beecc" d="M1290,533.91a9.56,9.56,0,0,1-3.8-1.84,3.52,3.52,0,0,1-1.19-2.7,3.72,3.72,0,0,1,1.45-3,5.79,5.79,0,0,1,3.78-1.19,6.32,6.32,0,0,1,2.83.61,4.65,4.65,0,0,1,1.92,1.69,4.32,4.32,0,0,1,.68,2.36h-2a2.81,2.81,0,0,0-.89-2.2,3.62,3.62,0,0,0-2.51-.8,3.7,3.7,0,0,0-2.34.66,2.2,2.2,0,0,0-.84,1.83,2,2,0,0,0,.8,1.59,7.84,7.84,0,0,0,2.72,1.19,12.66,12.66,0,0,1,3,1.19,4.55,4.55,0,0,1,1.61,1.52,3.86,3.86,0,0,1,.52,2,3.59,3.59,0,0,1-1.46,3,6.23,6.23,0,0,1-3.9,1.12,7.24,7.24,0,0,1-3-.61,5,5,0,0,1-2.12-1.66,4.05,4.05,0,0,1-.75-2.4h2a2.65,2.65,0,0,0,1,2.2,4.34,4.34,0,0,0,2.75.81,4,4,0,0,0,2.46-.66,2.12,2.12,0,0,0,.86-1.78,2.09,2.09,0,0,0-.79-1.75A9.14,9.14,0,0,0,1290,533.91Z"/><path class="3cb0c5d1-7c17-473d-9cc8-4fbe846beecc" d="M1309,527H1304v13.72h-2V527H1297v-1.66H1309Z"/><path class="3cb0c5d1-7c17-473d-9cc8-4fbe846beecc" d="M1316.89,534.54h-3.62v6.22h-2V525.38h5.1a6,6,0,0,1,4,1.18,4.26,4.26,0,0,1,1.4,3.44,4.14,4.14,0,0,1-.78,2.5,4.63,4.63,0,0,1-2.16,1.59l3.62,6.53v.13h-2.18Zm-3.62-1.66h3.12a3.52,3.52,0,0,0,2.41-.78,2.64,2.64,0,0,0,.89-2.09,2.78,2.78,0,0,0-.85-2.19,3.61,3.61,0,0,0-2.46-.77h-3.11Z"/><path class="3cb0c5d1-7c17-473d-9cc8-4fbe846beecc" d="M1328.76,533.1l4-7.72h2.31l-5.31,9.64v5.73h-2V535l-5.31-9.64h2.33Z"/></g><rect id="889114d6-c5f3-4189-a706-dff6e2fe83c4" data-name="rect5617-6" class="65bc8342-1542-4db2-9db5-0acdb93e5328" x="976.2" y="570.1" width="530.4" height="61.5"/><g class="f6c3c0dc-ddf9-4a04-8b95-c1d3bacfade2"><path class="260d13a6-472e-4712-ad36-1b892785b40d" d="M1010.3,605.3a5.66,5.66,0,0,1-1.8,3.76,5.92,5.92,0,0,1-4,1.33,5.43,5.43,0,0,1-4.37-2,7.85,7.85,0,0,1-1.64-5.23v-1.48a8.75,8.75,0,0,1,.77-3.77,5.72,5.72,0,0,1,2.17-2.5,6.05,6.05,0,0,1,3.26-.87,5.57,5.57,0,0,1,3.93,1.37,5.73,5.73,0,0,1,1.72,3.79h-2a4.42,4.42,0,0,0-1.15-2.67,3.48,3.48,0,0,0-2.47-.83,3.63,3.63,0,0,0-3.05,1.44,6.59,6.59,0,0,0-1.1,4.09v1.49a6.77,6.77,0,0,0,1,4,3.38,3.38,0,0,0,2.93,1.48,3.91,3.91,0,0,0,2.6-.77,4.24,4.24,0,0,0,1.2-2.67Z"/><path class="260d13a6-472e-4712-ad36-1b892785b40d" d="M1024.92,603a9.5,9.5,0,0,1-.76,3.94,5.76,5.76,0,0,1-2.16,2.57,6,6,0,0,1-8.67-2.55,9.11,9.11,0,0,1-.8-3.83V602a9.39,9.39,0,0,1,.77-3.92,5.71,5.71,0,0,1,5.42-3.51,6,6,0,0,1,3.26.89,5.75,5.75,0,0,1,2.17,2.59,9.54,9.54,0,0,1,.76,3.94Zm-2-1a6.88,6.88,0,0,0-1.1-4.2,3.63,3.63,0,0,0-3.08-1.46,3.59,3.59,0,0,0-3,1.46,6.75,6.75,0,0,0-1.14,4.06V603a6.9,6.9,0,0,0,1.12,4.17,3.91,3.91,0,0,0,6.12.08,6.85,6.85,0,0,0,1.11-4.1Z"/><path class="260d13a6-472e-4712-ad36-1b892785b40d" d="M1039.8,610.18h-2L1030,598.33v11.85h-2V594.8h2l7.77,11.9V594.8h2Z"/><path class="260d13a6-472e-4712-ad36-1b892785b40d" d="M1047.94,603.32a9.56,9.56,0,0,1-3.8-1.84,3.52,3.52,0,0,1-1.19-2.7,3.72,3.72,0,0,1,1.45-3,5.79,5.79,0,0,1,3.78-1.19,6.32,6.32,0,0,1,2.83.61,4.65,4.65,0,0,1,1.92,1.69,4.32,4.32,0,0,1,.68,2.36h-2a2.81,2.81,0,0,0-.89-2.2,3.62,3.62,0,0,0-2.51-.8,3.7,3.7,0,0,0-2.34.66,2.2,2.2,0,0,0-.84,1.83,2,2,0,0,0,.8,1.59,7.84,7.84,0,0,0,2.72,1.19,12.66,12.66,0,0,1,3,1.19,4.55,4.55,0,0,1,1.61,1.52,3.86,3.86,0,0,1,.52,2,3.59,3.59,0,0,1-1.46,3,6.23,6.23,0,0,1-3.9,1.12,7.24,7.24,0,0,1-3-.61,5,5,0,0,1-2.12-1.66,4.05,4.05,0,0,1-.75-2.4h2a2.65,2.65,0,0,0,1,2.2,4.34,4.34,0,0,0,2.75.81,4,4,0,0,0,2.46-.66,2.12,2.12,0,0,0,.86-1.78,2.09,2.09,0,0,0-.79-1.75A9.14,9.14,0,0,0,1047.94,603.32Z"/><path class="260d13a6-472e-4712-ad36-1b892785b40d" d="M1067.09,594.8v10.46a4.9,4.9,0,0,1-1.37,3.56,5.52,5.52,0,0,1-3.68,1.55l-.54,0a5.77,5.77,0,0,1-4-1.36,4.87,4.87,0,0,1-1.52-3.75V594.8h2v10.41a3.21,3.21,0,0,0,3.54,3.52,3.56,3.56,0,0,0,2.64-.92,3.51,3.51,0,0,0,.92-2.59V594.8Z"/><path class="260d13a6-472e-4712-ad36-1b892785b40d" d="M1072.34,608.52h7.3v1.66h-9.34V594.8h2Z"/><path class="260d13a6-472e-4712-ad36-1b892785b40d" d="M1089.68,596.46h-4.95v13.72h-2V596.46h-4.94V594.8h11.91Z"/><path class="260d13a6-472e-4712-ad36-1b892785b40d" d="M1099.63,606.15h-6.45l-1.45,4h-2.09l5.88-15.38h1.78l5.89,15.38h-2.08Zm-5.84-1.66H1099l-2.62-7.19Z"/><path class="260d13a6-472e-4712-ad36-1b892785b40d" d="M1117.09,610.18h-2l-7.75-11.85v11.85h-2V594.8h2l7.77,11.9V594.8h2Z"/><path class="260d13a6-472e-4712-ad36-1b892785b40d" d="M1132,605.3a5.66,5.66,0,0,1-1.8,3.76,5.92,5.92,0,0,1-4,1.33,5.43,5.43,0,0,1-4.37-2,7.85,7.85,0,0,1-1.64-5.23v-1.48a8.75,8.75,0,0,1,.77-3.77,5.72,5.72,0,0,1,2.17-2.5,6.05,6.05,0,0,1,3.26-.87,5.57,5.57,0,0,1,3.93,1.37,5.73,5.73,0,0,1,1.72,3.79h-2a4.42,4.42,0,0,0-1.15-2.67,3.48,3.48,0,0,0-2.47-.83,3.63,3.63,0,0,0-3.05,1.44,6.59,6.59,0,0,0-1.1,4.09v1.49a6.77,6.77,0,0,0,1,4,3.38,3.38,0,0,0,2.93,1.48,3.91,3.91,0,0,0,2.6-.77,4.24,4.24,0,0,0,1.2-2.67Z"/><path class="260d13a6-472e-4712-ad36-1b892785b40d" d="M1139.49,602.52l4-7.72h2.31l-5.31,9.64v5.73h-2v-5.73l-5.31-9.64h2.33Z"/><path class="260d13a6-472e-4712-ad36-1b892785b40d" d="M1155.19,604.16v6h-2V594.8h5.68a5.71,5.71,0,0,1,4,1.29,4.37,4.37,0,0,1,1.43,3.41,4.3,4.3,0,0,1-1.4,3.45,6,6,0,0,1-4,1.21Zm0-1.66h3.65a3.65,3.65,0,0,0,2.5-.77,2.8,2.8,0,0,0,.87-2.22,2.9,2.9,0,0,0-.87-2.2,3.42,3.42,0,0,0-2.38-.86h-3.76Z"/><path class="260d13a6-472e-4712-ad36-1b892785b40d" d="M1172.47,604h-3.62v6.22h-2V594.8h5.1a6,6,0,0,1,4,1.18,4.26,4.26,0,0,1,1.4,3.44,4.14,4.14,0,0,1-.78,2.5,4.63,4.63,0,0,1-2.16,1.59L1178,610v.13h-2.18Zm-3.62-1.66H1172a3.52,3.52,0,0,0,2.41-.78,2.64,2.64,0,0,0,.89-2.09,2.78,2.78,0,0,0-.85-2.19,3.61,3.61,0,0,0-2.46-.77h-3.11Z"/><path class="260d13a6-472e-4712-ad36-1b892785b40d" d="M1192,603a9.5,9.5,0,0,1-.76,3.94,5.76,5.76,0,0,1-2.16,2.57,6,6,0,0,1-8.67-2.55,9.11,9.11,0,0,1-.8-3.83V602a9.39,9.39,0,0,1,.77-3.92,5.71,5.71,0,0,1,5.42-3.51,6,6,0,0,1,3.26.89,5.75,5.75,0,0,1,2.17,2.59A9.54,9.54,0,0,1,1192,602Zm-2-1a6.88,6.88,0,0,0-1.1-4.2,3.63,3.63,0,0,0-3.08-1.46,3.59,3.59,0,0,0-3,1.46,6.75,6.75,0,0,0-1.14,4.06V603a6.9,6.9,0,0,0,1.12,4.17,3.91,3.91,0,0,0,6.12.08,6.85,6.85,0,0,0,1.11-4.1Z"/><path class="260d13a6-472e-4712-ad36-1b892785b40d" d="M1201.5,594.8h2v10.89a4.5,4.5,0,0,1-1.33,3.45,5,5,0,0,1-3.54,1.25,5.1,5.1,0,0,1-3.57-1.17,4.23,4.23,0,0,1-1.28-3.28h2a2.55,2.55,0,0,0,2.82,2.8,2.73,2.73,0,0,0,2-.79,3.06,3.06,0,0,0,.79-2.22Z"/><path class="260d13a6-472e-4712-ad36-1b892785b40d" d="M1215.7,603.07H1209v5.45h7.75v1.66H1207V594.8h9.68v1.66H1209v5h6.67Z"/><path class="260d13a6-472e-4712-ad36-1b892785b40d" d="M1230.64,605.3a5.66,5.66,0,0,1-1.8,3.76,5.92,5.92,0,0,1-4,1.33,5.43,5.43,0,0,1-4.37-2,7.85,7.85,0,0,1-1.64-5.23v-1.48a8.75,8.75,0,0,1,.77-3.77,5.72,5.72,0,0,1,2.17-2.5,6.05,6.05,0,0,1,3.26-.87,5.57,5.57,0,0,1,3.93,1.37,5.73,5.73,0,0,1,1.72,3.79h-2a4.42,4.42,0,0,0-1.15-2.67,3.48,3.48,0,0,0-2.47-.83,3.63,3.63,0,0,0-3.05,1.44,6.59,6.59,0,0,0-1.1,4.09v1.49a6.77,6.77,0,0,0,1,4,3.38,3.38,0,0,0,2.93,1.48,3.91,3.91,0,0,0,2.6-.77,4.24,4.24,0,0,0,1.2-2.67Z"/><path class="260d13a6-472e-4712-ad36-1b892785b40d" d="M1243.74,596.46h-4.95v13.72h-2V596.46h-4.94V594.8h11.91Z"/><path class="260d13a6-472e-4712-ad36-1b892785b40d" d="M1250.39,603.32a9.56,9.56,0,0,1-3.8-1.84,3.52,3.52,0,0,1-1.19-2.7,3.72,3.72,0,0,1,1.45-3,5.79,5.79,0,0,1,3.78-1.19,6.32,6.32,0,0,1,2.83.61,4.65,4.65,0,0,1,1.92,1.69,4.32,4.32,0,0,1,.68,2.36h-2a2.81,2.81,0,0,0-.89-2.2,3.62,3.62,0,0,0-2.51-.8,3.7,3.7,0,0,0-2.34.66,2.2,2.2,0,0,0-.84,1.83,2,2,0,0,0,.8,1.59,7.84,7.84,0,0,0,2.72,1.19,12.66,12.66,0,0,1,3,1.19,4.55,4.55,0,0,1,1.61,1.52,3.86,3.86,0,0,1,.52,2,3.59,3.59,0,0,1-1.46,3,6.23,6.23,0,0,1-3.9,1.12,7.24,7.24,0,0,1-3-.61,5,5,0,0,1-2.12-1.66,4.05,4.05,0,0,1-.75-2.4h2a2.65,2.65,0,0,0,1,2.2,4.34,4.34,0,0,0,2.75.81,4,4,0,0,0,2.46-.66,2.12,2.12,0,0,0,.86-1.78,2.09,2.09,0,0,0-.79-1.75A9.14,9.14,0,0,0,1250.39,603.32Z"/></g><g class="f6c3c0dc-ddf9-4a04-8b95-c1d3bacfade2"><path d="M77,389H63.6l-3,8.37H56.23l12.23-32h3.69l12.25,32H80.07Zm-12.14-3.45H75.76l-5.45-15Z"/><path d="M112,387.25a11.75,11.75,0,0,1-3.75,7.83,12.3,12.3,0,0,1-8.39,2.76,11.29,11.29,0,0,1-9.09-4.06q-3.42-4.06-3.42-10.87v-3.07A18.19,18.19,0,0,1,89,372a11.89,11.89,0,0,1,4.52-5.19,12.59,12.59,0,0,1,6.77-1.81,11.58,11.58,0,0,1,8.18,2.84A11.9,11.9,0,0,1,112,375.7h-4.24q-.55-3.83-2.39-5.55a7.22,7.22,0,0,0-5.13-1.72,7.56,7.56,0,0,0-6.34,3q-2.3,3-2.3,8.5V383a14.09,14.09,0,0,0,2.18,8.28,7,7,0,0,0,6.09,3.08,8.13,8.13,0,0,0,5.4-1.59q1.88-1.59,2.5-5.54Z"/><path d="M135.46,389H122l-3,8.37h-4.35l12.23-32h3.69l12.25,32h-4.33Zm-12.14-3.45H134.2l-5.45-15Z"/><path d="M147.15,397.4v-32h9a14.57,14.57,0,0,1,7.39,1.84,12.48,12.48,0,0,1,5,5.25,17.07,17.07,0,0,1,1.77,7.82v2a17.13,17.13,0,0,1-1.75,7.93,12.29,12.29,0,0,1-5,5.23A15.5,15.5,0,0,1,156,397.4Zm4.22-28.52v25.08h4.44a9.67,9.67,0,0,0,7.6-3q2.72-3,2.72-8.64v-1.87q0-5.45-2.56-8.47a9.13,9.13,0,0,0-7.27-3.07Z"/><path d="M194.78,382.62H180.91v11.33H197v3.45H176.68v-32H196.8v3.45h-15.9v10.3h13.87Z"/><path d="M207.73,365.43l10.47,26.08,10.47-26.08h5.48v32h-4.22V384.95l.4-13.44L219.8,397.4h-3.23l-10.49-25.82.42,13.37V397.4h-4.22v-32Z"/><path d="M246.12,397.4H241.9v-32h4.22Z"/><path d="M277.39,387.25a11.75,11.75,0,0,1-3.75,7.83,12.3,12.3,0,0,1-8.39,2.76,11.29,11.29,0,0,1-9.09-4.06q-3.42-4.06-3.42-10.87v-3.07a18.19,18.19,0,0,1,1.59-7.84,11.89,11.89,0,0,1,4.52-5.19,12.59,12.59,0,0,1,6.77-1.81,11.58,11.58,0,0,1,8.18,2.84,11.9,11.9,0,0,1,3.58,7.87h-4.24q-.55-3.83-2.39-5.55a7.22,7.22,0,0,0-5.13-1.72,7.56,7.56,0,0,0-6.34,3q-2.3,3-2.3,8.5V383a14.09,14.09,0,0,0,2.18,8.28,7,7,0,0,0,6.09,3.08,8.13,8.13,0,0,0,5.4-1.59q1.88-1.59,2.5-5.54Z"/><path d="M312.39,382.62H298.52v11.33h16.12v3.45H294.3v-32h20.12v3.45h-15.9v10.3h13.87Z"/><path d="M330.33,377.68,338,365.43h5l-10.11,15.85,10.36,16.12h-5l-7.87-12.47-7.92,12.47h-5l10.38-16.12-10.14-15.85h4.95Z"/><path d="M371.12,387.25a11.75,11.75,0,0,1-3.75,7.83,12.3,12.3,0,0,1-8.39,2.76,11.29,11.29,0,0,1-9.09-4.06q-3.42-4.06-3.42-10.87v-3.07a18.19,18.19,0,0,1,1.59-7.84,11.89,11.89,0,0,1,4.52-5.19,12.59,12.59,0,0,1,6.77-1.81,11.58,11.58,0,0,1,8.18,2.84,11.9,11.9,0,0,1,3.58,7.87h-4.24q-.55-3.83-2.39-5.55a7.22,7.22,0,0,0-5.13-1.72,7.56,7.56,0,0,0-6.34,3q-2.3,3-2.3,8.5V383a14.09,14.09,0,0,0,2.18,8.28,7,7,0,0,0,6.09,3.08,8.13,8.13,0,0,0,5.4-1.59q1.88-1.59,2.5-5.54Z"/><path d="M395,382.62H381.1v11.33h16.12v3.45H376.88v-32H397v3.45H381.1v10.3H395Z"/><path d="M406.72,393.95h15.17v3.45H402.48v-32h4.24Z"/><path d="M430.95,393.95h15.17v3.45H426.71v-32h4.24Z"/><path d="M469,382.62H455.16v11.33h16.12v3.45H450.94v-32h20.12v3.45h-15.9v10.3H469Z"/><path d="M501.13,397.4h-4.24l-16.12-24.64V397.4h-4.24v-32h4.24l16.16,24.75V365.43h4.2Z"/><path d="M532.18,387.25a11.75,11.75,0,0,1-3.75,7.83,12.3,12.3,0,0,1-8.39,2.76,11.29,11.29,0,0,1-9.09-4.06q-3.42-4.06-3.42-10.87v-3.07a18.19,18.19,0,0,1,1.59-7.84,11.89,11.89,0,0,1,4.52-5.19,12.59,12.59,0,0,1,6.77-1.81,11.58,11.58,0,0,1,8.18,2.84,11.9,11.9,0,0,1,3.58,7.87h-4.24q-.55-3.83-2.39-5.55a7.22,7.22,0,0,0-5.13-1.72,7.56,7.56,0,0,0-6.34,3q-2.3,3-2.3,8.5V383a14.09,14.09,0,0,0,2.18,8.28,7,7,0,0,0,6.09,3.08,8.13,8.13,0,0,0,5.4-1.59q1.88-1.59,2.5-5.54Z"/><path d="M556,382.62H542.16v11.33h16.12v3.45H537.94v-32h20.12v3.45h-15.9v10.3H556Z"/><path d="M578.9,384.88V397.4h-4.22v-32h11.81q5.25,0,8.23,2.68a9.08,9.08,0,0,1,3,7.09,9,9,0,0,1-2.91,7.17q-2.91,2.51-8.34,2.51Zm0-3.45h7.59a7.59,7.59,0,0,0,5.19-1.59,5.83,5.83,0,0,0,1.8-4.61,6,6,0,0,0-1.8-4.57,7.11,7.11,0,0,0-4.95-1.78H578.9Z"/><path d="M614.83,384.46h-7.52V397.4h-4.24v-32h10.6q5.41,0,8.32,2.46T624.9,375a8.6,8.6,0,0,1-1.62,5.2,9.64,9.64,0,0,1-4.5,3.32l7.52,13.57v.26h-4.53ZM607.31,381h6.49a7.32,7.32,0,0,0,5-1.63,5.5,5.5,0,0,0,1.86-4.36,5.79,5.79,0,0,0-1.77-4.55,7.5,7.5,0,0,0-5.11-1.61h-6.46Z"/><path d="M655.44,382.44a19.75,19.75,0,0,1-1.58,8.2,12,12,0,0,1-4.49,5.35,12.38,12.38,0,0,1-18-5.3,19,19,0,0,1-1.66-8v-2.31a19.52,19.52,0,0,1,1.6-8.15A11.87,11.87,0,0,1,642.56,365a12.42,12.42,0,0,1,6.78,1.86,12,12,0,0,1,4.52,5.38,19.85,19.85,0,0,1,1.58,8.2Zm-4.2-2.06q0-5.69-2.29-8.73a7.55,7.55,0,0,0-6.4-3,7.46,7.46,0,0,0-6.3,3q-2.3,3-2.36,8.44v2.35q0,5.51,2.32,8.66a8.14,8.14,0,0,0,12.72.18q2.24-3,2.31-8.53Z"/><path d="M685.41,393.2a9.75,9.75,0,0,1-4.54,3.48,18.37,18.37,0,0,1-6.78,1.15,13.17,13.17,0,0,1-6.95-1.83,12.21,12.21,0,0,1-4.69-5.21,18,18,0,0,1-1.7-7.84v-2.79q0-7.22,3.38-11.2t9.49-4a12.16,12.16,0,0,1,8.07,2.56,11.14,11.14,0,0,1,3.74,7.26h-4.22q-1.19-6.37-7.56-6.37a7.48,7.48,0,0,0-6.43,3q-2.19,3-2.21,8.63v2.62q0,5.38,2.46,8.56a8,8,0,0,0,6.66,3.18,14.69,14.69,0,0,0,4.16-.53,6.43,6.43,0,0,0,2.95-1.77v-7.16H673.8v-3.45h11.61Z"/><path d="M704.19,384.46h-7.52V397.4h-4.24v-32H703q5.41,0,8.32,2.46t2.91,7.16a8.6,8.6,0,0,1-1.62,5.2,9.64,9.64,0,0,1-4.5,3.32l7.52,13.57v.26h-4.53ZM696.67,381h6.49a7.32,7.32,0,0,0,5-1.63A5.5,5.5,0,0,0,710,375a5.79,5.79,0,0,0-1.77-4.55,7.5,7.5,0,0,0-5.11-1.61h-6.46Z"/><path d="M737.85,389H724.44l-3,8.37h-4.35l12.23-32H733l12.25,32h-4.33Zm-12.14-3.45H736.6l-5.45-15Z"/><path d="M755,365.43l10.47,26.08,10.47-26.08h5.48v32h-4.22V384.95l.4-13.44L767.08,397.4h-3.23l-10.49-25.82.42,13.37V397.4h-4.22v-32Z"/><path d="M794.32,365.43l10.47,26.08,10.47-26.08h5.47v32H816.5V384.95l.4-13.44L806.39,397.4h-3.23l-10.49-25.82.42,13.37V397.4h-4.22v-32Z"/><path d="M846.28,382.62H832.4v11.33h16.12v3.45H828.18v-32H848.3v3.45H832.4v10.3h13.87Z"/></g><g class="f6c3c0dc-ddf9-4a04-8b95-c1d3bacfade2"><path d="M72.95,428.44a13.17,13.17,0,0,1-1.06,5.47,8,8,0,0,1-3,3.56,8.26,8.26,0,0,1-12-3.54,12.64,12.64,0,0,1-1.11-5.31v-1.54a13,13,0,0,1,1.07-5.43,7.91,7.91,0,0,1,7.5-4.86A8.29,8.29,0,0,1,68.88,418a8,8,0,0,1,3,3.59,13.23,13.23,0,0,1,1.06,5.47Zm-2.8-1.38a9.54,9.54,0,0,0-1.52-5.82,5,5,0,0,0-4.27-2,5,5,0,0,0-4.2,2,9.35,9.35,0,0,0-1.58,5.63v1.57a9.56,9.56,0,0,0,1.55,5.78,5.42,5.42,0,0,0,8.48.12,9.5,9.5,0,0,0,1.54-5.69Z"/><path d="M93.57,438.41H90.74L80,422v16.42H77.17V417.09H80l10.77,16.5v-16.5h2.8Z"/><path d="M101.4,436.11h10.11v2.3H98.57V417.09h2.83Z"/><path d="M117.74,438.41h-2.81V417.09h2.81Z"/><path d="M139.29,438.41h-2.83L125.72,422v16.42h-2.83V417.09h2.83l10.77,16.5v-16.5h2.8Z"/><path d="M156.35,428.56H147.1v7.55h10.75v2.3H144.29V417.09H157.7v2.3H147.1v6.87h9.25Z"/><path d="M171.6,430.06v8.34h-2.81V417.09h7.87a7.92,7.92,0,0,1,5.49,1.79,6.05,6.05,0,0,1,2,4.73,6,6,0,0,1-1.94,4.78,8.27,8.27,0,0,1-5.56,1.68Zm0-2.3h5.06a5.06,5.06,0,0,0,3.46-1.06,3.88,3.88,0,0,0,1.2-3.07,4,4,0,0,0-1.2-3,4.74,4.74,0,0,0-3.3-1.19H171.6Z"/><path d="M190.55,436.11h10.11v2.3H187.72V417.09h2.83Z"/><path d="M215.94,432.83H207l-2,5.58h-2.9l8.15-21.31h2.46l8.17,21.31H218Zm-8.09-2.3h7.26l-3.64-10Z"/><path d="M236.59,419.39h-6.86v19h-2.8v-19h-6.85v-2.3h16.51Z"/><path d="M251.53,429h-9v9.41h-2.81V417.09H253v2.3H242.57v7.3h9Z"/><path d="M272.77,428.44a13.17,13.17,0,0,1-1.06,5.47,8,8,0,0,1-3,3.56,8.26,8.26,0,0,1-12-3.54,12.64,12.64,0,0,1-1.11-5.31v-1.54a13,13,0,0,1,1.07-5.43,7.91,7.91,0,0,1,7.5-4.86A8.29,8.29,0,0,1,268.7,418a8,8,0,0,1,3,3.59,13.23,13.23,0,0,1,1.06,5.47Zm-2.8-1.38a9.54,9.54,0,0,0-1.52-5.82,5,5,0,0,0-4.27-2,5,5,0,0,0-4.2,2,9.35,9.35,0,0,0-1.58,5.63v1.57a9.56,9.56,0,0,0,1.55,5.78,5.42,5.42,0,0,0,8.48.12,9.5,9.5,0,0,0,1.54-5.69Z"/><path d="M284.82,429.79h-5v8.62H277V417.09H284a8.37,8.37,0,0,1,5.55,1.64,5.9,5.9,0,0,1,1.94,4.77,5.73,5.73,0,0,1-1.08,3.47,6.43,6.43,0,0,1-3,2.21l5,9v.18h-3Zm-5-2.3h4.32a4.88,4.88,0,0,0,3.33-1.08,3.67,3.67,0,0,0,1.24-2.9,3.86,3.86,0,0,0-1.18-3,5,5,0,0,0-3.41-1.07h-4.31Z"/><path d="M299.11,417.09l7,17.39,7-17.39h3.65v21.31H313.9v-8.3l.26-9-7,17.26H305l-7-17.21.28,8.91v8.3h-2.81V417.09Z"/><path d="M340.89,429h-9v9.41h-2.81V417.09h13.22v2.3H331.93v7.3h9Z"/><path d="M362.13,428.44a13.17,13.17,0,0,1-1.06,5.47,8,8,0,0,1-3,3.56,8.26,8.26,0,0,1-12-3.54,12.64,12.64,0,0,1-1.11-5.31v-1.54a13,13,0,0,1,1.07-5.43,7.91,7.91,0,0,1,7.5-4.86,8.29,8.29,0,0,1,4.52,1.24,8,8,0,0,1,3,3.59,13.23,13.23,0,0,1,1.06,5.47Zm-2.8-1.38a9.54,9.54,0,0,0-1.52-5.82,5,5,0,0,0-4.27-2,5,5,0,0,0-4.2,2,9.35,9.35,0,0,0-1.58,5.63v1.57a9.56,9.56,0,0,0,1.55,5.78,5.42,5.42,0,0,0,8.48.12,9.5,9.5,0,0,0,1.54-5.69Z"/><path d="M374.18,429.79h-5v8.62h-2.83V417.09h7.07a8.37,8.37,0,0,1,5.55,1.64,5.9,5.9,0,0,1,1.94,4.77,5.73,5.73,0,0,1-1.08,3.47,6.43,6.43,0,0,1-3,2.21l5,9v.18h-3Zm-5-2.3h4.32a4.88,4.88,0,0,0,3.33-1.08,3.67,3.67,0,0,0,1.24-2.9,3.86,3.86,0,0,0-1.18-3,5,5,0,0,0-3.41-1.07h-4.31Z"/><path d="M408,431.64a7.84,7.84,0,0,1-2.5,5.22,8.2,8.2,0,0,1-5.59,1.84,7.52,7.52,0,0,1-6.06-2.71,10.88,10.88,0,0,1-2.28-7.25v-2a12.13,12.13,0,0,1,1.06-5.23,7.94,7.94,0,0,1,3-3.46,8.4,8.4,0,0,1,4.52-1.21,7.72,7.72,0,0,1,5.45,1.9,7.93,7.93,0,0,1,2.39,5.25h-2.83a6.12,6.12,0,0,0-1.59-3.7,4.81,4.81,0,0,0-3.42-1.15,5,5,0,0,0-4.23,2,9.13,9.13,0,0,0-1.53,5.67v2.07a9.39,9.39,0,0,0,1.45,5.52,4.69,4.69,0,0,0,4.06,2.05,5.42,5.42,0,0,0,3.6-1.06,5.89,5.89,0,0,0,1.66-3.7Z"/><path d="M428.22,428.44a13.17,13.17,0,0,1-1.06,5.47,8,8,0,0,1-3,3.56,8.26,8.26,0,0,1-12-3.54,12.64,12.64,0,0,1-1.11-5.31v-1.54a13,13,0,0,1,1.07-5.43,7.91,7.91,0,0,1,7.5-4.86,8.29,8.29,0,0,1,4.52,1.24,8,8,0,0,1,3,3.59,13.23,13.23,0,0,1,1.06,5.47Zm-2.8-1.38a9.54,9.54,0,0,0-1.52-5.82,5,5,0,0,0-4.27-2,5,5,0,0,0-4.2,2,9.35,9.35,0,0,0-1.58,5.63v1.57a9.56,9.56,0,0,0,1.55,5.78,5.42,5.42,0,0,0,8.48.12,9.5,9.5,0,0,0,1.54-5.69Z"/><path d="M435.27,436.11h10.11v2.3H432.44V417.09h2.83Z"/><path d="M451.43,436.11h10.11v2.3H448.6V417.09h2.83Z"/><path d="M476.82,428.56h-9.25v7.55h10.75v2.3H464.75V417.09h13.41v2.3h-10.6v6.87h9.25Z"/><path d="M497.57,435.61a6.51,6.51,0,0,1-3,2.32,12.25,12.25,0,0,1-4.52.77,8.77,8.77,0,0,1-4.63-1.22,8.15,8.15,0,0,1-3.13-3.48,12,12,0,0,1-1.14-5.23v-1.86q0-4.81,2.25-7.46a7.84,7.84,0,0,1,6.33-2.65,8.11,8.11,0,0,1,5.38,1.71,7.43,7.43,0,0,1,2.49,4.84h-2.81q-.79-4.25-5-4.25a5,5,0,0,0-4.29,2,9.68,9.68,0,0,0-1.47,5.75v1.74a9.07,9.07,0,0,0,1.64,5.71A5.32,5.32,0,0,0,490,436.4a9.84,9.84,0,0,0,2.77-.35,4.29,4.29,0,0,0,2-1.18v-4.78h-4.94v-2.3h7.74Z"/><path d="M514.33,428.56h-9.25v7.55h10.75v2.3H502.26V417.09h13.41v2.3h-10.6v6.87h9.25Z"/><path d="M533,428.91a13.22,13.22,0,0,1-5.27-2.55,4.87,4.87,0,0,1-1.65-3.74,5.15,5.15,0,0,1,2-4.17,8,8,0,0,1,5.24-1.65,8.76,8.76,0,0,1,3.92.85A6.45,6.45,0,0,1,540,420a6,6,0,0,1,.95,3.26h-2.83a3.89,3.89,0,0,0-1.23-3,5,5,0,0,0-3.47-1.11,5.13,5.13,0,0,0-3.25.92,3.06,3.06,0,0,0-1.17,2.54,2.75,2.75,0,0,0,1.11,2.21,10.85,10.85,0,0,0,3.77,1.65,17.49,17.49,0,0,1,4.16,1.65,6.32,6.32,0,0,1,2.23,2.1A5.36,5.36,0,0,1,541,433a5,5,0,0,1-2,4.15,8.63,8.63,0,0,1-5.41,1.56,10.05,10.05,0,0,1-4.1-.84,6.91,6.91,0,0,1-2.94-2.31,5.62,5.62,0,0,1-1-3.32h2.83a3.67,3.67,0,0,0,1.43,3.05,6,6,0,0,0,3.82,1.12,5.54,5.54,0,0,0,3.42-.91,3,3,0,0,0,1.19-2.47,2.89,2.89,0,0,0-1.1-2.42A12.71,12.71,0,0,0,533,428.91Z"/><path d="M559.31,419.39h-6.86v19h-2.8v-19h-6.85v-2.3h16.51Z"/><path d="M577.51,417.09v14.49a6.79,6.79,0,0,1-1.9,4.93,7.65,7.65,0,0,1-5.11,2.15l-.75,0a8,8,0,0,1-5.58-1.89,6.75,6.75,0,0,1-2.11-5.2V417.09h2.79v14.43a4.45,4.45,0,0,0,4.91,4.87,4.94,4.94,0,0,0,3.66-1.27,4.86,4.86,0,0,0,1.27-3.59V417.09Z"/><path d="M581.95,438.41V417.09h6a9.7,9.7,0,0,1,4.93,1.23,8.32,8.32,0,0,1,3.31,3.5,11.37,11.37,0,0,1,1.18,5.21v1.36a11.4,11.4,0,0,1-1.17,5.28,8.18,8.18,0,0,1-3.33,3.48,10.33,10.33,0,0,1-5,1.24Zm2.81-19v16.72h3a6.45,6.45,0,0,0,5.06-2,8.35,8.35,0,0,0,1.81-5.76v-1.25a8.48,8.48,0,0,0-1.71-5.65,6.08,6.08,0,0,0-4.84-2Z"/><path d="M613.7,428.56h-9.25v7.55h10.75v2.3H601.63V417.09H615v2.3h-10.6v6.87h9.25Z"/><path d="M635.1,438.41h-2.83L621.52,422v16.42H618.7V417.09h2.83l10.77,16.5v-16.5h2.8Z"/><path d="M654.42,419.39h-6.86v19h-2.8v-19h-6.85v-2.3h16.51Z"/><path d="M663.64,428.91a13.22,13.22,0,0,1-5.27-2.55,4.87,4.87,0,0,1-1.65-3.74,5.15,5.15,0,0,1,2-4.17A8,8,0,0,1,664,416.8a8.76,8.76,0,0,1,3.92.85,6.45,6.45,0,0,1,2.67,2.34,6,6,0,0,1,.95,3.26h-2.83a3.89,3.89,0,0,0-1.23-3A5,5,0,0,0,664,419.1a5.13,5.13,0,0,0-3.25.92,3.06,3.06,0,0,0-1.17,2.54,2.75,2.75,0,0,0,1.11,2.21,10.85,10.85,0,0,0,3.77,1.65,17.49,17.49,0,0,1,4.16,1.65,6.32,6.32,0,0,1,2.23,2.1,5.36,5.36,0,0,1,.73,2.83,5,5,0,0,1-2,4.15,8.63,8.63,0,0,1-5.41,1.56,10.05,10.05,0,0,1-4.1-.84,6.91,6.91,0,0,1-2.94-2.31,5.62,5.62,0,0,1-1-3.32h2.83a3.67,3.67,0,0,0,1.43,3.05,6,6,0,0,0,3.82,1.12,5.54,5.54,0,0,0,3.42-.91,3,3,0,0,0,1.19-2.47,2.89,2.89,0,0,0-1.1-2.42A12.71,12.71,0,0,0,663.64,428.91Z"/><path d="M694.38,432.83h-8.94l-2,5.58h-2.9l8.15-21.31h2.46l8.17,21.31h-2.89Zm-8.09-2.3h7.26l-3.64-10Z"/><path d="M718.58,438.41h-2.83L705,422v16.42h-2.83V417.09H705l10.77,16.5v-16.5h2.8Z"/><path d="M723.58,438.41V417.09h6a9.7,9.7,0,0,1,4.93,1.23,8.32,8.32,0,0,1,3.31,3.5A11.37,11.37,0,0,1,739,427v1.36a11.4,11.4,0,0,1-1.17,5.28,8.18,8.18,0,0,1-3.33,3.48,10.33,10.33,0,0,1-5,1.24Zm2.81-19v16.72h3a6.45,6.45,0,0,0,5.06-2,8.35,8.35,0,0,0,1.81-5.76v-1.25a8.48,8.48,0,0,0-1.71-5.65,6.08,6.08,0,0,0-4.84-2Z"/><path d="M764.85,419.39H758v19h-2.8v-19h-6.85v-2.3h16.51Z"/><path d="M780.08,428.56h-9.25v7.55h10.75v2.3H768V417.09h13.41v2.3h-10.6v6.87h9.25Z"/><path d="M796.87,432.83h-8.94l-2,5.58H783l8.15-21.31h2.46l8.17,21.31h-2.89Zm-8.09-2.3H796l-3.64-10Z"/><path d="M820.21,431.64a7.84,7.84,0,0,1-2.5,5.22,8.2,8.2,0,0,1-5.59,1.84,7.52,7.52,0,0,1-6.06-2.71,10.89,10.89,0,0,1-2.28-7.25v-2a12.12,12.12,0,0,1,1.06-5.23,8,8,0,0,1,3-3.46,8.4,8.4,0,0,1,4.52-1.21,7.72,7.72,0,0,1,5.45,1.9,7.93,7.93,0,0,1,2.39,5.25h-2.83a6.12,6.12,0,0,0-1.59-3.7,4.81,4.81,0,0,0-3.42-1.15,5,5,0,0,0-4.23,2,9.13,9.13,0,0,0-1.53,5.67v2.07a9.4,9.4,0,0,0,1.45,5.52,4.69,4.69,0,0,0,4.06,2.05,5.43,5.43,0,0,0,3.6-1.06,5.89,5.89,0,0,0,1.66-3.7Z"/><path d="M840.45,438.41h-2.83v-9.85H826.86v9.85H824V417.09h2.81v9.16h10.76v-9.16h2.83Z"/><path d="M857.51,428.56h-9.25v7.55H859v2.3H845.45V417.09h13.41v2.3h-10.6v6.87h9.25Z"/><path d="M870.34,429.79h-5v8.62H862.5V417.09h7.07a8.37,8.37,0,0,1,5.55,1.64,5.9,5.9,0,0,1,1.94,4.77A5.73,5.73,0,0,1,876,427a6.43,6.43,0,0,1-3,2.21l5,9v.18h-3Zm-5-2.3h4.32A4.88,4.88,0,0,0,873,426.4a3.67,3.67,0,0,0,1.24-2.9,3.86,3.86,0,0,0-1.18-3,5,5,0,0,0-3.41-1.07h-4.31Z"/><path d="M887.28,428.91a13.22,13.22,0,0,1-5.27-2.55,4.87,4.87,0,0,1-1.65-3.74,5.15,5.15,0,0,1,2-4.17,8,8,0,0,1,5.24-1.65,8.77,8.77,0,0,1,3.92.85,6.46,6.46,0,0,1,2.67,2.34,6,6,0,0,1,.95,3.26h-2.83a3.9,3.9,0,0,0-1.23-3,5,5,0,0,0-3.47-1.11,5.13,5.13,0,0,0-3.25.92,3.06,3.06,0,0,0-1.17,2.54,2.75,2.75,0,0,0,1.11,2.21,10.84,10.84,0,0,0,3.77,1.65,17.5,17.5,0,0,1,4.16,1.65,6.33,6.33,0,0,1,2.23,2.1,5.36,5.36,0,0,1,.73,2.83,5,5,0,0,1-2,4.15,8.63,8.63,0,0,1-5.41,1.56,10,10,0,0,1-4.1-.84,6.91,6.91,0,0,1-2.94-2.31,5.62,5.62,0,0,1-1-3.32h2.83a3.67,3.67,0,0,0,1.43,3.05,6,6,0,0,0,3.82,1.12,5.54,5.54,0,0,0,3.42-.91,3,3,0,0,0,1.19-2.47,2.9,2.9,0,0,0-1.1-2.42A12.72,12.72,0,0,0,887.28,428.91Z"/></g><rect id="b70e94a6-41a2-4368-8950-fd11ff3ee08a" data-name="rect5617-2" class="019cfad2-816d-44f5-b05c-7d38551dfee1" x="976.2" y="433.2" width="530.4" height="61.5"/><g class="f6c3c0dc-ddf9-4a04-8b95-c1d3bacfade2"><path class="3cb0c5d1-7c17-473d-9cc8-4fbe846beecc" d="M1001.16,474h-2V458.61h2Z"/><path class="3cb0c5d1-7c17-473d-9cc8-4fbe846beecc" d="M1016.7,474h-2l-7.75-11.85V474h-2V458.61h2l7.77,11.9v-11.9h2Z"/><path class="3cb0c5d1-7c17-473d-9cc8-4fbe846beecc" d="M1020.31,474V458.61h4.35a7,7,0,0,1,3.55.89,6,6,0,0,1,2.38,2.52,8.2,8.2,0,0,1,.85,3.76v1a8.23,8.23,0,0,1-.84,3.81,5.9,5.9,0,0,1-2.4,2.51,7.45,7.45,0,0,1-3.63.9Zm2-13.72v12.06h2.14a4.65,4.65,0,0,0,3.65-1.46,6,6,0,0,0,1.31-4.15v-.9a6.12,6.12,0,0,0-1.23-4.07,4.39,4.39,0,0,0-3.5-1.47Z"/><path class="3cb0c5d1-7c17-473d-9cc8-4fbe846beecc" d="M1045.35,458.61v10.46a4.9,4.9,0,0,1-1.37,3.56,5.52,5.52,0,0,1-3.68,1.55l-.54,0a5.77,5.77,0,0,1-4-1.36,4.87,4.87,0,0,1-1.52-3.75V458.61h2V469a3.21,3.21,0,0,0,3.54,3.52,3.56,3.56,0,0,0,2.64-.92,3.51,3.51,0,0,0,.92-2.59V458.61Z"/><path class="3cb0c5d1-7c17-473d-9cc8-4fbe846beecc" d="M1053.09,467.13a9.56,9.56,0,0,1-3.8-1.84,3.52,3.52,0,0,1-1.19-2.7,3.72,3.72,0,0,1,1.45-3,5.79,5.79,0,0,1,3.78-1.19,6.32,6.32,0,0,1,2.83.61,4.65,4.65,0,0,1,1.92,1.69,4.32,4.32,0,0,1,.68,2.36h-2a2.81,2.81,0,0,0-.89-2.2,3.62,3.62,0,0,0-2.51-.8,3.7,3.7,0,0,0-2.34.66,2.2,2.2,0,0,0-.84,1.83,2,2,0,0,0,.8,1.59,7.84,7.84,0,0,0,2.72,1.19,12.66,12.66,0,0,1,3,1.19,4.55,4.55,0,0,1,1.61,1.52,3.86,3.86,0,0,1,.52,2,3.59,3.59,0,0,1-1.46,3,6.23,6.23,0,0,1-3.9,1.12,7.24,7.24,0,0,1-3-.61,5,5,0,0,1-2.12-1.66,4.05,4.05,0,0,1-.75-2.4h2a2.65,2.65,0,0,0,1,2.2,4.34,4.34,0,0,0,2.75.81,4,4,0,0,0,2.46-.66,2.12,2.12,0,0,0,.86-1.78,2.09,2.09,0,0,0-.79-1.75A9.14,9.14,0,0,0,1053.09,467.13Z"/><path class="3cb0c5d1-7c17-473d-9cc8-4fbe846beecc" d="M1072,460.27h-4.95V474h-2V460.27h-4.94v-1.66H1072Z"/><path class="3cb0c5d1-7c17-473d-9cc8-4fbe846beecc" d="M1080,467.76h-3.62V474h-2V458.61h5.1a6,6,0,0,1,4,1.18,4.26,4.26,0,0,1,1.4,3.44,4.14,4.14,0,0,1-.78,2.5,4.63,4.63,0,0,1-2.16,1.59l3.62,6.53V474h-2.18Zm-3.62-1.66h3.12a3.52,3.52,0,0,0,2.41-.78,2.64,2.64,0,0,0,.89-2.09,2.78,2.78,0,0,0-.85-2.19,3.61,3.61,0,0,0-2.46-.77h-3.11Z"/><path class="3cb0c5d1-7c17-473d-9cc8-4fbe846beecc" d="M1091.85,466.33l4-7.72h2.31l-5.31,9.64V474h-2v-5.73l-5.31-9.64h2.33Z"/><path class="3cb0c5d1-7c17-473d-9cc8-4fbe846beecc" d="M1111.17,467.76h-3.62V474h-2V458.61h5.1a6,6,0,0,1,4,1.18,4.26,4.26,0,0,1,1.4,3.44,4.14,4.14,0,0,1-.78,2.5,4.63,4.63,0,0,1-2.16,1.59l3.62,6.53V474h-2.18Zm-3.62-1.66h3.12a3.52,3.52,0,0,0,2.41-.78,2.64,2.64,0,0,0,.89-2.09,2.78,2.78,0,0,0-.85-2.19,3.61,3.61,0,0,0-2.46-.77h-3.11Z"/><path class="3cb0c5d1-7c17-473d-9cc8-4fbe846beecc" d="M1127.56,466.88h-6.67v5.45h7.75V474h-9.78V458.61h9.68v1.66h-7.65v5h6.67Z"/><path class="3cb0c5d1-7c17-473d-9cc8-4fbe846beecc" d="M1133.21,472.33h7.3V474h-9.34V458.61h2Z"/><path class="3cb0c5d1-7c17-473d-9cc8-4fbe846beecc" d="M1151.52,466.88h-6.67v5.45h7.75V474h-9.78V458.61h9.68v1.66h-7.65v5h6.67Z"/><path class="3cb0c5d1-7c17-473d-9cc8-4fbe846beecc" d="M1160.23,471.29l4.4-12.68h2.22L1161.14,474h-1.8l-5.7-15.38h2.21Z"/><path class="3cb0c5d1-7c17-473d-9cc8-4fbe846beecc" d="M1176.62,470h-6.45l-1.45,4h-2.09l5.88-15.38h1.78l5.89,15.38h-2.08Zm-5.84-1.66H1176l-2.62-7.19Z"/><path class="3cb0c5d1-7c17-473d-9cc8-4fbe846beecc" d="M1194.08,474h-2l-7.75-11.85V474h-2V458.61h2l7.77,11.9v-11.9h2Z"/><path class="3cb0c5d1-7c17-473d-9cc8-4fbe846beecc" d="M1208,460.27h-4.95V474h-2V460.27h-4.94v-1.66H1208Z"/><path class="3cb0c5d1-7c17-473d-9cc8-4fbe846beecc" d="M1219.78,467.13a9.56,9.56,0,0,1-3.8-1.84,3.52,3.52,0,0,1-1.19-2.7,3.72,3.72,0,0,1,1.45-3,5.79,5.79,0,0,1,3.78-1.19,6.32,6.32,0,0,1,2.83.61,4.65,4.65,0,0,1,1.92,1.69,4.32,4.32,0,0,1,.68,2.36h-2a2.81,2.81,0,0,0-.89-2.2,3.62,3.62,0,0,0-2.51-.8,3.7,3.7,0,0,0-2.34.66,2.2,2.2,0,0,0-.84,1.83,2,2,0,0,0,.8,1.59,7.84,7.84,0,0,0,2.72,1.19,12.66,12.66,0,0,1,3,1.19A4.55,4.55,0,0,1,1225,468a3.86,3.86,0,0,1,.52,2,3.59,3.59,0,0,1-1.46,3,6.23,6.23,0,0,1-3.9,1.12,7.24,7.24,0,0,1-3-.61,5,5,0,0,1-2.12-1.66,4.05,4.05,0,0,1-.75-2.4h2a2.65,2.65,0,0,0,1,2.2,4.34,4.34,0,0,0,2.75.81,4,4,0,0,0,2.46-.66,2.12,2.12,0,0,0,.86-1.78,2.09,2.09,0,0,0-.79-1.75A9.14,9.14,0,0,0,1219.78,467.13Z"/><path class="3cb0c5d1-7c17-473d-9cc8-4fbe846beecc" d="M1232,466.83l-1.88,2V474h-2V458.61h2v7.6l6.84-7.6h2.45l-6.06,6.79,6.54,8.59h-2.43Z"/><path class="3cb0c5d1-7c17-473d-9cc8-4fbe846beecc" d="M1243.84,474h-2V458.61h2Z"/><path class="3cb0c5d1-7c17-473d-9cc8-4fbe846beecc" d="M1249.6,472.33h7.3V474h-9.34V458.61h2Z"/><path class="3cb0c5d1-7c17-473d-9cc8-4fbe846beecc" d="M1261.25,472.33h7.3V474h-9.34V458.61h2Z"/><path class="3cb0c5d1-7c17-473d-9cc8-4fbe846beecc" d="M1286.44,460.27h-4.95V474h-2V460.27h-4.94v-1.66h11.91Z"/><path class="3cb0c5d1-7c17-473d-9cc8-4fbe846beecc" d="M1294.37,467.76h-3.62V474h-2V458.61h5.1a6,6,0,0,1,4,1.18,4.26,4.26,0,0,1,1.4,3.44,4.14,4.14,0,0,1-.78,2.5,4.63,4.63,0,0,1-2.16,1.59l3.62,6.53V474h-2.18Zm-3.62-1.66h3.12a3.52,3.52,0,0,0,2.41-.78,2.64,2.64,0,0,0,.89-2.09,2.78,2.78,0,0,0-.85-2.19,3.61,3.61,0,0,0-2.46-.77h-3.11Z"/><path class="3cb0c5d1-7c17-473d-9cc8-4fbe846beecc" d="M1310.56,470h-6.45l-1.45,4h-2.09l5.88-15.38h1.78l5.89,15.38H1312Zm-5.84-1.66H1310l-2.62-7.19Z"/><path class="3cb0c5d1-7c17-473d-9cc8-4fbe846beecc" d="M1318.37,474h-2V458.61h2Z"/><path class="3cb0c5d1-7c17-473d-9cc8-4fbe846beecc" d="M1333.91,474h-2l-7.75-11.85V474h-2V458.61h2l7.77,11.9v-11.9h2Z"/><path class="3cb0c5d1-7c17-473d-9cc8-4fbe846beecc" d="M1339.7,474h-2V458.61h2Z"/><path class="3cb0c5d1-7c17-473d-9cc8-4fbe846beecc" d="M1355.24,474h-2l-7.75-11.85V474h-2V458.61h2l7.77,11.9v-11.9h2Z"/><path class="3cb0c5d1-7c17-473d-9cc8-4fbe846beecc" d="M1370.22,472a4.69,4.69,0,0,1-2.18,1.67,8.84,8.84,0,0,1-3.26.55,6.34,6.34,0,0,1-3.34-.88,5.88,5.88,0,0,1-2.26-2.51,8.66,8.66,0,0,1-.82-3.77v-1.34a8.08,8.08,0,0,1,1.62-5.39,5.66,5.66,0,0,1,4.56-1.91,5.85,5.85,0,0,1,3.88,1.23,5.36,5.36,0,0,1,1.8,3.49h-2a3.36,3.36,0,0,0-3.64-3.06,3.6,3.6,0,0,0-3.09,1.43,7,7,0,0,0-1.06,4.15v1.26a6.55,6.55,0,0,0,1.18,4.12,3.84,3.84,0,0,0,3.2,1.53,7.11,7.11,0,0,0,2-.25,3.09,3.09,0,0,0,1.42-.85V468h-3.56v-1.66h5.58Z"/></g></g></g></svg>