<svg xmlns="http://www.w3.org/2000/svg" xmlns:xlink="http://www.w3.org/1999/xlink" viewBox="0 0 1600 900"><defs><style>.f7dead11-2d9b-4d1c-9e06-d894a017d1ff{fill:#3cdbd3;}.\33 98bf4c4-2b86-43fa-93fd-c78c839ab096{fill:#a48888;}.\31 21c2099-f202-4c42-a494-0c318359ea4b{fill:#146124;}.c8f376b7-80cf-4826-8911-a53e23fb150d{fill:#b7bcbb;}.\30 d143eb0-a381-4b31-a970-2f00fb2b036d{fill:#7d7662;stroke:url(#eb56d536-f2c3-4837-b1b1-da55158c2a64);}.\30 5ad4419-d2c2-4653-b1ea-735f8ed9393e,.\30 77f2f68-9f71-43c8-9467-9243a195df4e,.\30 d143eb0-a381-4b31-a970-2f00fb2b036d,.\31 f2f1274-06f1-412d-a67e-9df26372d268,.\32 b3627d2-7025-414c-91ef-7d868d6220d5,.\36 633dc11-15e7-4d33-8ed7-750c6d48fecd{stroke-width:1.07px;}.c7a2a537-bcab-46c5-9382-e4b3458b66cf{fill:#7b7664;stroke-width:1.09px;stroke:url(#7b249594-d0bc-492c-89aa-1e1ba69bebaf);}.\36 e24a805-7f94-4557-b0a1-e44baa9d172a{fill:#561b1b;}.\36 633dc11-15e7-4d33-8ed7-750c6d48fecd{fill:#cac8b6;}.\30 5ad4419-d2c2-4653-b1ea-735f8ed9393e,.\30 77f2f68-9f71-43c8-9467-9243a195df4e,.\31 f2f1274-06f1-412d-a67e-9df26372d268,.\32 b3627d2-7025-414c-91ef-7d868d6220d5,.\36 633dc11-15e7-4d33-8ed7-750c6d48fecd,.c80c6bed-0b54-482d-a0de-5d61a86eb46a{stroke:#000;}.\30 21cfde0-7294-45a1-a920-2b3caf70c0b0{fill:#32506f;}.d3ae5dc8-8316-4265-b1ab-1466615da64b{fill:#3285d8;}.\39 301c5d1-81ce-47a1-815c-87eb4dc6570e{fill:#8a8e8e;}.b701277b-0cf0-4bb4-aae1-61e38de9c4b6{fill:#4068c2;}.\31 f2f1274-06f1-412d-a67e-9df26372d268{fill:#f0f7f9;}.\32 b3627d2-7025-414c-91ef-7d868d6220d5{fill:#ebf6f9;}.\30 5ad4419-d2c2-4653-b1ea-735f8ed9393e{fill:#f8fcfd;}.\33 2332b10-67f8-4649-a0a7-21b70070f5fc,.\38 5d97463-e874-428c-83a8-f36c6ebe0033,.f8cf611e-8ffb-4648-a522-45931d823915{fill:none;}.\33 2332b10-67f8-4649-a0a7-21b70070f5fc,.\34 4cc6d99-e724-4166-ba5d-a18f4e80529a{stroke:#f5f5fa;stroke-width:1.82px;}.cc05e017-eaf4-49ec-be36-c180606f96fe{fill:#8e8e8e;}.\34 4cc6d99-e724-4166-ba5d-a18f4e80529a,.e9f2744b-8fa6-4589-b657-080184e3bddf{fill:#3b2d2d;}.eeed4e22-9ad9-46d5-9b77-dd0869ef17ed{fill:#4059c2;}.\36 74fab65-45d0-4e70-9b9f-86f8afa74996{fill:#bdc3c2;}.dbbe5c0c-18c6-4dff-96d5-b573e09566f4{fill:#d6c5c7;}.\35 bf5fdcd-6064-42f5-a779-cb517ebc8d3e{fill:#c4c3b9;stroke-width:0.78px;stroke:url(#b60908d7-7f59-4c16-9b58-8423e36dadfb);}.\32 e8747ec-40c1-4a43-9f93-a6c44eff2f2e{fill:#d3d1c7;stroke-width:0.81px;stroke:url(#174b6380-af79-4368-b6dc-3437138ec7a3);}.\38 70224cd-1e7c-4b03-9c12-e9452397aa93{fill:#6f777f;}.f8cf611e-8ffb-4648-a522-45931d823915{stroke:#fbf8fb;stroke-width:2.15px;}.c80c6bed-0b54-482d-a0de-5d61a86eb46a{fill:#f3f3f3;stroke-width:1.53px;}.\36 19d8628-8bed-4058-a191-49f75ae11194{fill:#cebdbd;}.\38 5d97463-e874-428c-83a8-f36c6ebe0033{stroke:#fdf2f2;stroke-width:1.61px;}.\30 77f2f68-9f71-43c8-9467-9243a195df4e{fill:#faecec;}.\38 c12c60b-e497-420e-801d-bf375cf78451{fill:#522a27;stroke:#f8f8f8;stroke-linecap:round;stroke-linejoin:round;stroke-width:0.84px;}.ae6c69a6-1c4d-43d5-a499-ca59121819d4{isolation:isolate;}.\31 f5858ce-b43f-4956-84e9-3286d545ec92{fill:#f8fafd;}.\31 301b0a3-7299-453c-b281-38e339340f59{fill:#fcfcfc;}</style><linearGradient id="eb56d536-f2c3-4837-b1b1-da55158c2a64" x1="924.85" y1="51.53" x2="970.13" y2="51.53" gradientTransform="translate(-56.58 69.6) scale(1.02 1.13)" gradientUnits="userSpaceOnUse"><stop offset="0" stop-color="#9bd1b4"/><stop offset="1" stop-color="#9bd1b4" stop-opacity="0"/></linearGradient><radialGradient id="7b249594-d0bc-492c-89aa-1e1ba69bebaf" cx="1002.06" cy="-224.24" r="20.41" gradientTransform="translate(-56.85 1077.36) scale(1.01 4.29)" gradientUnits="userSpaceOnUse"><stop offset="0"/><stop offset="1" stop-opacity="0"/></radialGradient><linearGradient id="b60908d7-7f59-4c16-9b58-8423e36dadfb" x1="907.49" y1="298.15" x2="936.2" y2="298.15" gradientTransform="translate(-51.43 -136.2) scale(1.03 0.6)" xlink:href="#7b249594-d0bc-492c-89aa-1e1ba69bebaf"/><linearGradient id="174b6380-af79-4368-b6dc-3437138ec7a3" x1="967.43" y1="247.61" x2="995.98" y2="247.61" gradientTransform="translate(-53.03 -126.65) scale(1.03 0.64)" xlink:href="#7b249594-d0bc-492c-89aa-1e1ba69bebaf"/></defs><title>slide-4</title><g id="318f5f56-307c-4097-bbec-6e8f987691d0" data-name="Layer 2"><g id="072e8aee-e92d-4ead-bc4b-c04ef0284656" data-name="Layer 1"><rect id="065c78e6-52c5-470e-8bf2-4a0b32483a03" data-name="rect5895" class="f7dead11-2d9b-4d1c-9e06-d894a017d1ff" width="1600" height="900"/><path id="892380ab-59c7-4959-8b60-d89c8fafe2d4" data-name="path4219" class="398bf4c4-2b86-43fa-93fd-c78c839ab096" d="M893.3,260.7,764,297,979.8,551.4l526.8-248.2h0l-160.3-74.5V250l57.9,26.6h0L963.1,467.2"/><path id="304b41ca-2f55-46f3-8061-598cad67d66c" data-name="path4225" class="121c2099-f202-4c42-a494-0c318359ea4b" d="M824.6,312.3,964.8,467.7l440.9-192.1L1162.2,174.5Z"/><path id="4c312327-1829-4fee-8ba9-326896009021" data-name="path4247" class="c8f376b7-80cf-4826-8911-a53e23fb150d" d="M1230.1,250.9l116.2-38.1v70l-117.4,44.3Z"/><path id="d46f28c7-281b-4df8-893c-ea46c8be1f9a" data-name="path4227" class="0d143eb0-a381-4b31-a970-2f00fb2b036d" d="M890.7,217.2,883.2,42.7c9,5.6,18,4,26.9-3.8l22.3,144.5Z"/><path id="259b90f3-13c0-49f6-ba0d-330c53ffdc28" data-name="path4229" class="c7a2a537-bcab-46c5-9382-e4b3458b66cf" d="M940,28.7l-3,157,38.9,16.1,7.4-5.3L966.9,30.1c-9,11.1-18,8.3-26.9-1.4Z"/><path id="f9ec87ed-d4bf-464c-af1b-2b111b0a8b4b" data-name="path4231" class="6e24a805-7f94-4557-b0a1-e44baa9d172a" d="M886.2,219.9l43.6-40.7,46,22.1,35.7-40.8,35.7,19.5,33.3-36.3,39.7,17.7,32.5-34.6,98.4,41.7-34.9,40.8L1178.9,188l-37.3,44.3-41.3-23-37.3,47-50.8-23.9-43.6,50.5Z"/><path id="1dc0c7db-99e9-4803-bce4-4fba0795dc6e" data-name="path4235" class="6633dc11-15e7-4d33-8ed7-750c6d48fecd" d="M885.4,220l-1.7,5.9,86.4,65.2,44.3-50.1,48.8,24.4,38.7-45.8,41,21.3L1181,197l35.9,20.7,34.8-40.1,29.8,19,1.1-9.6-32-20.1-32.5,40.7-39.3-20.1-37,45.1-41-23.8-36.5,46.4L1011.6,232c-14.4,16.5-37.4,42.7-43.2,49.5Z"/><path id="177f8a74-74e4-46de-9813-69b58a940f98" data-name="path4237" class="021cfde0-7294-45a1-a920-2b3caf70c0b0" d="M889.4,231.4l6.3,106.4,74.6,62.9L967.9,289Z"/><path id="257e1d60-cb9d-4024-8900-dd75d6161fda" data-name="path4239" class="d3ae5dc8-8316-4265-b1ab-1466615da64b" d="M967.1,289l3.2,114.4,236.4-87.8,4-77.1,72.2-20.4-1.6-20.4-29.4-19.5L1217.8,219l-37.3-22.2L1143.2,242l-40.5-24.8L1062.2,266l-47.6-24.3Z"/><path id="988ce2c3-b438-48ae-8e57-77edb628fedf" data-name="path4241" class="9301c5d1-81ce-47a1-815c-87eb4dc6570e" d="M1209.1,238.5l21.4,13.3-1.6,75.8-21.8-12.9Z"/><path id="1ea18e35-61ce-48fb-a4dc-dc7c329d6221" data-name="path4243" class="b701277b-0cf0-4bb4-aae1-61e38de9c4b6" d="M1230.5,266.4l115-40.3-.4,16.8-115.4,39.9Z"/><path id="89b7770a-da0a-4081-b024-678bf1f96e7c" data-name="path4249" class="1f2f1274-06f1-412d-a67e-9df26372d268" d="M1001.5,332.5l.6,50.1,32-11.3-.6-47.6Z"/><path id="b75f279d-73aa-4485-8636-425e3c898af7" data-name="path4266" class="2b3627d2-7025-414c-91ef-7d868d6220d5" d="M1004.8,336.5l.8,41.2,25-8.9V328.9l-25.8,7.6Z"/><path id="8a2a0413-2a2d-4a82-b6f3-c71d5c6e1174" data-name="path4249-6" class="1f2f1274-06f1-412d-a67e-9df26372d268" d="M1085.4,301.5l.6,50.1,32-11.3-.6-47.6Z"/><path id="7ee1047d-d020-454d-8a27-faeffdc62993" data-name="path4266-7" class="05ad4419-d2c2-4653-b1ea-735f8ed9393e" d="M1088.7,305.5l.8,41.2,25-8.9V297.9l-25.8,7.6Z"/><path id="2e254ec4-4164-4731-afe3-6549bd950a50" data-name="path4290" class="32332b10-67f8-4649-a0a7-21b70070f5fc" d="M987.2,288l.8,16.9,52.5-16.3-.8-16.9Z"/><path id="c9f54f99-95ee-4f06-ab4f-424d46c63f81" data-name="path4292" class="cc05e017-eaf4-49ec-be36-c180606f96fe" d="M1074.3,261.6l.6,15.7,52.2-16.4-.4-15.5-52.4,16.2Z"/><path id="8d857c1c-069a-4995-bb15-d96592bbb149" data-name="path4290-5" class="44cc6d99-e724-4166-ba5d-a18f4e80529a" d="M1073.9,260.1l.8,16.9,52.5-16.3-.8-16.9Z"/><path id="7ac816c4-7204-4618-820d-7a7b06ea0a44" data-name="path4292-3" class="e9f2744b-8fa6-4589-b657-080184e3bddf" d="M988.1,288.6l.6,15.7,49.4-16.4-.4-15.5-49.6,16.2Z"/><path id="d2f88885-bc99-4264-86a4-33452a386c17" data-name="path4245" class="eeed4e22-9ad9-46d5-9b77-dd0869ef17ed" d="M1230.1,297.5l116.2-41.2v15.1l-117,44.3Z"/><path id="532829aa-b878-4119-a8ab-13c445b92f43" data-name="path4288" class="674fab65-45d0-4e70-9b9f-86f8afa74996" d="M1209.3,238.3l74.3-19.2-1.7-21.9,1.7-9.4,2.2-1.3,58.3,25.7-115,38.9Z"/><path id="640992fc-1bc4-4e0a-a956-070cdb1ea25b" data-name="path4330" class="dbbe5c0c-18c6-4dff-96d5-b573e09566f4" d="M995.7,394.3l24.2,49.5L1162.4,383,1133,343.4Z"/><path id="6bbce942-fd52-47a5-a6d2-d63a2033cca8" data-name="path4332" class="5bf5fdcd-6064-42f5-a779-cb517ebc8d3e" d="M882.4,44.2c19.9-8.6,29-3,27.8-2.3s0,2.3-9.1,3.3a74.22,74.22,0,0,1-18.7-1Z"/><path id="f7887cb0-bb01-48ad-9adc-5691d387a287" data-name="path4334" class="2e8747ec-40c1-4a43-9f93-a6c44eff2f2e" d="M939.7,31.3c17.6-6.8,30,1.4,27.8,1.4s-2.8,4.6-6.8,3.9-10.2.7-14.2-1.1a27.37,27.37,0,0,1-6.8-4.2Z"/><path id="c2e376ff-639b-45f4-8b8b-e2039bdd6e7c" data-name="path5824" class="870224cd-1e7c-4b03-9c12-e9452397aa93" d="M1013.9,240.4l-1.7,8.8,47.1,21.3,3.4-5-51-26.3h0"/><path id="b97da093-3eca-4d09-8149-69c85ec7d85d" data-name="path5824-6" class="870224cd-1e7c-4b03-9c12-e9452397aa93" d="M1101.8,216.7l-1.9,7.7,40.2,21.6,3.2-4.2-43.5-26.2h0"/><path id="b3c1a55a-010d-4f0a-889b-4a84703ccfde" data-name="path5824-2" class="870224cd-1e7c-4b03-9c12-e9452397aa93" d="M1179.9,197l-1.3,7.5,37.2,18.2,2.7-4.3-40.4-22.5h0"/><path id="b72427ad-8460-40bb-bc3e-3a952144406d" data-name="path5824-9" class="870224cd-1e7c-4b03-9c12-e9452397aa93" d="M1251.6,177.9l-1.4,5.7,28.8,16.3,2.3-3.1L1250.2,177h0"/><path id="52ae574f-fd1c-410a-934a-3f15cc85ac7f" data-name="path5866" class="f8cf611e-8ffb-4648-a522-45931d823915" d="M1209.7,238.2l19.7,13.6-.7,75.8h0"/><path id="3f2ec429-3604-4c1c-b017-eb728a737caa" data-name="path5868" class="f8cf611e-8ffb-4648-a522-45931d823915" d="M1229.1,251.4l115.2-38.9h0"/><path id="9a96ab65-a8ed-493b-91ed-5e7415d3f48a" data-name="path5870" class="f8cf611e-8ffb-4648-a522-45931d823915" d="M1210.8,238.2l72.9-20.1h0"/><path id="46aa2725-4561-4f1c-bbea-b1d0c5941ce8" data-name="path5872-1" class="c80c6bed-0b54-482d-a0de-5d61a86eb46a" d="M912.4,298.2l1.4,47.1,24.5,17.9V314.5Z"/><path id="88b612d9-f78a-41ef-b8e4-bda8d96dc9d7" data-name="path5889" class="619d8628-8bed-4058-a191-49f75ae11194" d="M904.9,345.3,872.3,366l32.6,35.4L939,375.5Z"/><path id="9c6165d9-6ab4-466c-8af1-e6497890662d" data-name="path5891" class="85d97463-e874-428c-83a8-f36c6ebe0033" d="M909.1,259.2l-2.8,14.1,37.2,28.8,4.3-14.7Z"/><path id="d9fc9f69-83c7-47f3-8d4b-22bdbf2dd6db" data-name="path5893" class="e9f2744b-8fa6-4589-b657-080184e3bddf" d="M909.2,260.4l-2,11.9,35.5,28.9,4.1-12.5Z"/><path id="15b4e2fd-3d1f-4d6d-b73c-0cb75340b426" data-name="path5872" class="077f2f68-9f71-43c8-9467-9243a195df4e" d="M916.5,309.1l1,32.9,17.3,12.5v-34Z"/><rect id="bca7b418-85ab-47ac-8f58-deecb1fdcf61" data-name="rect5617" class="8c12c60b-e497-420e-801d-bf375cf78451" x="976.2" y="693.7" width="530.4" height="61.5"/><g class="ae6c69a6-1c4d-43d5-a499-ca59121819d4"><path class="1f5858ce-b43f-4956-84e9-3286d545ec92" d="M1003.51,725.61a9.56,9.56,0,0,1-3.8-1.84,3.52,3.52,0,0,1-1.19-2.7,3.72,3.72,0,0,1,1.45-3,5.79,5.79,0,0,1,3.78-1.19,6.32,6.32,0,0,1,2.83.61,4.65,4.65,0,0,1,1.92,1.69,4.32,4.32,0,0,1,.68,2.36h-2a2.81,2.81,0,0,0-.89-2.2,3.62,3.62,0,0,0-2.51-.8,3.7,3.7,0,0,0-2.34.66,2.2,2.2,0,0,0-.84,1.83,2,2,0,0,0,.8,1.59,7.84,7.84,0,0,0,2.72,1.19,12.66,12.66,0,0,1,3,1.19,4.55,4.55,0,0,1,1.61,1.52,3.86,3.86,0,0,1,.52,2,3.59,3.59,0,0,1-1.46,3,6.23,6.23,0,0,1-3.9,1.12,7.24,7.24,0,0,1-3-.61,5,5,0,0,1-2.12-1.66A4.05,4.05,0,0,1,998,728h2a2.65,2.65,0,0,0,1,2.2,4.34,4.34,0,0,0,2.75.81,4,4,0,0,0,2.46-.66,2.12,2.12,0,0,0,.86-1.78,2.09,2.09,0,0,0-.79-1.75A9.14,9.14,0,0,0,1003.51,725.61Z"/><path class="1f5858ce-b43f-4956-84e9-3286d545ec92" d="M1022.46,718.74h-4.95v13.72h-2V718.74h-4.94v-1.66h11.91Z"/><path class="1f5858ce-b43f-4956-84e9-3286d545ec92" d="M1035.59,717.08v10.46a4.9,4.9,0,0,1-1.37,3.56,5.52,5.52,0,0,1-3.68,1.55l-.54,0a5.77,5.77,0,0,1-4-1.36,4.87,4.87,0,0,1-1.52-3.75V717.08h2V727.5A3.21,3.21,0,0,0,1030,731a3.56,3.56,0,0,0,2.64-.92,3.51,3.51,0,0,0,.92-2.59V717.08Z"/><path class="1f5858ce-b43f-4956-84e9-3286d545ec92" d="M1038.79,732.46V717.08h4.35a7,7,0,0,1,3.55.89,6,6,0,0,1,2.38,2.52,8.2,8.2,0,0,1,.85,3.76v1a8.23,8.23,0,0,1-.84,3.81,5.9,5.9,0,0,1-2.4,2.51,7.45,7.45,0,0,1-3.63.9Zm2-13.72V730.8H1043a4.65,4.65,0,0,0,3.65-1.46,6,6,0,0,0,1.31-4.15v-.9a6.12,6.12,0,0,0-1.23-4.07,4.39,4.39,0,0,0-3.5-1.47Z"/><path class="1f5858ce-b43f-4956-84e9-3286d545ec92" d="M1061.7,725.35H1055v5.45h7.75v1.66H1053V717.08h9.68v1.66H1055v5h6.67Z"/><path class="1f5858ce-b43f-4956-84e9-3286d545ec92" d="M1077.14,732.46h-2l-7.75-11.85v11.85h-2V717.08h2l7.77,11.9v-11.9h2Z"/><path class="1f5858ce-b43f-4956-84e9-3286d545ec92" d="M1091.08,718.74h-4.95v13.72h-2V718.74h-4.94v-1.66h11.91Z"/><path class="1f5858ce-b43f-4956-84e9-3286d545ec92" d="M1100.33,726.44v6h-2V717.08H1104a5.71,5.71,0,0,1,4,1.29,4.37,4.37,0,0,1,1.43,3.41,4.3,4.3,0,0,1-1.4,3.45,6,6,0,0,1-4,1.21Zm0-1.66H1104a3.65,3.65,0,0,0,2.5-.77,2.8,2.8,0,0,0,.87-2.22,2.9,2.9,0,0,0-.87-2.2,3.42,3.42,0,0,0-2.38-.86h-3.76Z"/><path class="1f5858ce-b43f-4956-84e9-3286d545ec92" d="M1117.61,726.24H1114v6.22h-2V717.08h5.1a6,6,0,0,1,4,1.18,4.26,4.26,0,0,1,1.4,3.44,4.14,4.14,0,0,1-.78,2.5,4.63,4.63,0,0,1-2.16,1.59l3.62,6.53v.13H1121Zm-3.62-1.66h3.12a3.52,3.52,0,0,0,2.41-.78,2.64,2.64,0,0,0,.89-2.09,2.78,2.78,0,0,0-.85-2.19,3.61,3.61,0,0,0-2.46-.77H1114Z"/><path class="1f5858ce-b43f-4956-84e9-3286d545ec92" d="M1137.14,725.27a9.5,9.5,0,0,1-.76,3.94,5.76,5.76,0,0,1-2.16,2.57,6,6,0,0,1-8.67-2.55,9.11,9.11,0,0,1-.8-3.83V724.3a9.39,9.39,0,0,1,.77-3.92,5.71,5.71,0,0,1,5.42-3.51,6,6,0,0,1,3.26.89,5.75,5.75,0,0,1,2.17,2.59,9.54,9.54,0,0,1,.76,3.94Zm-2-1a6.88,6.88,0,0,0-1.1-4.2,3.63,3.63,0,0,0-3.08-1.46,3.59,3.59,0,0,0-3,1.46,6.75,6.75,0,0,0-1.14,4.06v1.13a6.9,6.9,0,0,0,1.12,4.17,3.91,3.91,0,0,0,6.12.08,6.85,6.85,0,0,0,1.11-4.1Z"/><path class="1f5858ce-b43f-4956-84e9-3286d545ec92" d="M1146.64,717.08h2V728a4.5,4.5,0,0,1-1.33,3.45,5,5,0,0,1-3.54,1.25,5.1,5.1,0,0,1-3.57-1.17,4.23,4.23,0,0,1-1.28-3.28h2a2.55,2.55,0,0,0,2.82,2.8,2.73,2.73,0,0,0,2-.79,3.06,3.06,0,0,0,.79-2.22Z"/><path class="1f5858ce-b43f-4956-84e9-3286d545ec92" d="M1160.84,725.35h-6.67v5.45h7.75v1.66h-9.78V717.08h9.68v1.66h-7.65v5h6.67Z"/><path class="1f5858ce-b43f-4956-84e9-3286d545ec92" d="M1175.77,727.58a5.66,5.66,0,0,1-1.8,3.76,5.92,5.92,0,0,1-4,1.33,5.43,5.43,0,0,1-4.37-2,7.85,7.85,0,0,1-1.64-5.23V724a8.75,8.75,0,0,1,.77-3.77,5.72,5.72,0,0,1,2.17-2.5,6.05,6.05,0,0,1,3.26-.87,5.57,5.57,0,0,1,3.93,1.37,5.73,5.73,0,0,1,1.72,3.79h-2a4.42,4.42,0,0,0-1.15-2.67,3.48,3.48,0,0,0-2.47-.83,3.63,3.63,0,0,0-3.05,1.44,6.59,6.59,0,0,0-1.1,4.09v1.49a6.77,6.77,0,0,0,1,4,3.38,3.38,0,0,0,2.93,1.48,3.91,3.91,0,0,0,2.6-.77,4.24,4.24,0,0,0,1.2-2.67Z"/><path class="1f5858ce-b43f-4956-84e9-3286d545ec92" d="M1188.88,718.74h-4.95v13.72h-2V718.74H1177v-1.66h11.91Z"/><path class="1f5858ce-b43f-4956-84e9-3286d545ec92" d="M1195.53,725.61a9.56,9.56,0,0,1-3.8-1.84,3.52,3.52,0,0,1-1.19-2.7,3.72,3.72,0,0,1,1.45-3,5.79,5.79,0,0,1,3.78-1.19,6.32,6.32,0,0,1,2.83.61,4.65,4.65,0,0,1,1.92,1.69,4.32,4.32,0,0,1,.68,2.36h-2a2.81,2.81,0,0,0-.89-2.2,3.62,3.62,0,0,0-2.51-.8,3.7,3.7,0,0,0-2.34.66,2.2,2.2,0,0,0-.84,1.83,2,2,0,0,0,.8,1.59,7.84,7.84,0,0,0,2.72,1.19,12.66,12.66,0,0,1,3,1.19,4.55,4.55,0,0,1,1.61,1.52,3.86,3.86,0,0,1,.52,2,3.59,3.59,0,0,1-1.46,3,6.23,6.23,0,0,1-3.9,1.12,7.24,7.24,0,0,1-3-.61,5,5,0,0,1-2.12-1.66,4.05,4.05,0,0,1-.75-2.4h2a2.65,2.65,0,0,0,1,2.2,4.34,4.34,0,0,0,2.75.81,4,4,0,0,0,2.46-.66,2.12,2.12,0,0,0,.86-1.78,2.09,2.09,0,0,0-.79-1.75A9.14,9.14,0,0,0,1195.53,725.61Z"/><path class="1f5858ce-b43f-4956-84e9-3286d545ec92" d="M1211.38,732.46h-2V717.08h2Z"/><path class="1f5858ce-b43f-4956-84e9-3286d545ec92" d="M1226.92,732.46h-2l-7.75-11.85v11.85h-2V717.08h2l7.77,11.9v-11.9h2Z"/><path class="1f5858ce-b43f-4956-84e9-3286d545ec92" d="M1238.07,732.46h-2V717.08h2Z"/><path class="1f5858ce-b43f-4956-84e9-3286d545ec92" d="M1253.62,732.46h-2l-7.75-11.85v11.85h-2V717.08h2l7.77,11.9v-11.9h2Z"/><path class="1f5858ce-b43f-4956-84e9-3286d545ec92" d="M1257.22,732.46V717.08h4.35a7,7,0,0,1,3.55.89,6,6,0,0,1,2.38,2.52,8.2,8.2,0,0,1,.85,3.76v1a8.23,8.23,0,0,1-.84,3.81,5.9,5.9,0,0,1-2.4,2.51,7.45,7.45,0,0,1-3.63.9Zm2-13.72V730.8h2.14a4.65,4.65,0,0,0,3.65-1.46,6,6,0,0,0,1.31-4.15v-.9a6.12,6.12,0,0,0-1.23-4.07,4.39,4.39,0,0,0-3.5-1.47Z"/><path class="1f5858ce-b43f-4956-84e9-3286d545ec92" d="M1282.26,717.08v10.46a4.9,4.9,0,0,1-1.37,3.56,5.52,5.52,0,0,1-3.68,1.55l-.54,0a5.77,5.77,0,0,1-4-1.36,4.87,4.87,0,0,1-1.52-3.75V717.08h2V727.5a3.21,3.21,0,0,0,3.54,3.52,3.56,3.56,0,0,0,2.64-.92,3.51,3.51,0,0,0,.92-2.59V717.08Z"/><path class="1f5858ce-b43f-4956-84e9-3286d545ec92" d="M1290,725.61a9.56,9.56,0,0,1-3.8-1.84,3.52,3.52,0,0,1-1.19-2.7,3.72,3.72,0,0,1,1.45-3,5.79,5.79,0,0,1,3.78-1.19,6.32,6.32,0,0,1,2.83.61,4.65,4.65,0,0,1,1.92,1.69,4.32,4.32,0,0,1,.68,2.36h-2a2.81,2.81,0,0,0-.89-2.2,3.62,3.62,0,0,0-2.51-.8,3.7,3.7,0,0,0-2.34.66,2.2,2.2,0,0,0-.84,1.83,2,2,0,0,0,.8,1.59,7.84,7.84,0,0,0,2.72,1.19,12.66,12.66,0,0,1,3,1.19,4.55,4.55,0,0,1,1.61,1.52,3.86,3.86,0,0,1,.52,2,3.59,3.59,0,0,1-1.46,3,6.23,6.23,0,0,1-3.9,1.12,7.24,7.24,0,0,1-3-.61,5,5,0,0,1-2.12-1.66,4.05,4.05,0,0,1-.75-2.4h2a2.65,2.65,0,0,0,1,2.2,4.34,4.34,0,0,0,2.75.81,4,4,0,0,0,2.46-.66,2.12,2.12,0,0,0,.86-1.78,2.09,2.09,0,0,0-.79-1.75A9.14,9.14,0,0,0,1290,725.61Z"/><path class="1f5858ce-b43f-4956-84e9-3286d545ec92" d="M1309,718.74H1304v13.72h-2V718.74H1297v-1.66H1309Z"/><path class="1f5858ce-b43f-4956-84e9-3286d545ec92" d="M1316.89,726.24h-3.62v6.22h-2V717.08h5.1a6,6,0,0,1,4,1.18,4.26,4.26,0,0,1,1.4,3.44,4.14,4.14,0,0,1-.78,2.5,4.63,4.63,0,0,1-2.16,1.59l3.62,6.53v.13h-2.18Zm-3.62-1.66h3.12a3.52,3.52,0,0,0,2.41-.78,2.64,2.64,0,0,0,.89-2.09,2.78,2.78,0,0,0-.85-2.19,3.61,3.61,0,0,0-2.46-.77h-3.11Z"/><path class="1f5858ce-b43f-4956-84e9-3286d545ec92" d="M1328.76,724.8l4-7.72h2.31l-5.31,9.64v5.73h-2v-5.73l-5.31-9.64h2.33Z"/></g><rect id="f8001fd5-3e55-4ac5-bac7-c2a570e92a07" data-name="rect5617-6" class="8c12c60b-e497-420e-801d-bf375cf78451" x="976.2" y="761.8" width="530.4" height="61.5"/><g class="ae6c69a6-1c4d-43d5-a499-ca59121819d4"><path class="1301b0a3-7299-453c-b281-38e339340f59" d="M1010.3,797a5.66,5.66,0,0,1-1.8,3.76,5.92,5.92,0,0,1-4,1.33,5.43,5.43,0,0,1-4.37-2,7.85,7.85,0,0,1-1.64-5.23v-1.48a8.75,8.75,0,0,1,.77-3.77,5.72,5.72,0,0,1,2.17-2.5,6.05,6.05,0,0,1,3.26-.87,5.57,5.57,0,0,1,3.93,1.37,5.73,5.73,0,0,1,1.72,3.79h-2a4.42,4.42,0,0,0-1.15-2.67,3.48,3.48,0,0,0-2.47-.83,3.63,3.63,0,0,0-3.05,1.44,6.59,6.59,0,0,0-1.1,4.09V795a6.77,6.77,0,0,0,1,4,3.38,3.38,0,0,0,2.93,1.48,3.91,3.91,0,0,0,2.6-.77,4.24,4.24,0,0,0,1.2-2.67Z"/><path class="1301b0a3-7299-453c-b281-38e339340f59" d="M1024.92,794.69a9.5,9.5,0,0,1-.76,3.94,5.76,5.76,0,0,1-2.16,2.57,6,6,0,0,1-8.67-2.55,9.11,9.11,0,0,1-.8-3.83v-1.11a9.39,9.39,0,0,1,.77-3.92,5.71,5.71,0,0,1,5.42-3.51,6,6,0,0,1,3.26.89,5.75,5.75,0,0,1,2.17,2.59,9.54,9.54,0,0,1,.76,3.94Zm-2-1a6.88,6.88,0,0,0-1.1-4.2,3.63,3.63,0,0,0-3.08-1.46,3.59,3.59,0,0,0-3,1.46,6.75,6.75,0,0,0-1.14,4.06v1.13a6.9,6.9,0,0,0,1.12,4.17,3.91,3.91,0,0,0,6.12.08,6.85,6.85,0,0,0,1.11-4.1Z"/><path class="1301b0a3-7299-453c-b281-38e339340f59" d="M1039.8,801.88h-2L1030,790v11.85h-2V786.5h2l7.77,11.9V786.5h2Z"/><path class="1301b0a3-7299-453c-b281-38e339340f59" d="M1047.94,795a9.56,9.56,0,0,1-3.8-1.84,3.52,3.52,0,0,1-1.19-2.7,3.72,3.72,0,0,1,1.45-3,5.79,5.79,0,0,1,3.78-1.19,6.32,6.32,0,0,1,2.83.61,4.65,4.65,0,0,1,1.92,1.69,4.32,4.32,0,0,1,.68,2.36h-2a2.81,2.81,0,0,0-.89-2.2,3.62,3.62,0,0,0-2.51-.8,3.7,3.7,0,0,0-2.34.66,2.2,2.2,0,0,0-.84,1.83,2,2,0,0,0,.8,1.59,7.84,7.84,0,0,0,2.72,1.19,12.66,12.66,0,0,1,3,1.19,4.55,4.55,0,0,1,1.61,1.52,3.86,3.86,0,0,1,.52,2,3.59,3.59,0,0,1-1.46,3,6.23,6.23,0,0,1-3.9,1.12,7.24,7.24,0,0,1-3-.61,5,5,0,0,1-2.12-1.66,4.05,4.05,0,0,1-.75-2.4h2a2.65,2.65,0,0,0,1,2.2,4.34,4.34,0,0,0,2.75.81,4,4,0,0,0,2.46-.66,2.12,2.12,0,0,0,.86-1.78,2.09,2.09,0,0,0-.79-1.75A9.14,9.14,0,0,0,1047.94,795Z"/><path class="1301b0a3-7299-453c-b281-38e339340f59" d="M1067.09,786.5V797a4.9,4.9,0,0,1-1.37,3.56,5.52,5.52,0,0,1-3.68,1.55l-.54,0a5.77,5.77,0,0,1-4-1.36,4.87,4.87,0,0,1-1.52-3.75V786.5h2v10.41a3.21,3.21,0,0,0,3.54,3.52,3.56,3.56,0,0,0,2.64-.92,3.51,3.51,0,0,0,.92-2.59V786.5Z"/><path class="1301b0a3-7299-453c-b281-38e339340f59" d="M1072.34,800.22h7.3v1.66h-9.34V786.5h2Z"/><path class="1301b0a3-7299-453c-b281-38e339340f59" d="M1089.68,788.16h-4.95v13.72h-2V788.16h-4.94V786.5h11.91Z"/><path class="1301b0a3-7299-453c-b281-38e339340f59" d="M1099.63,797.85h-6.45l-1.45,4h-2.09l5.88-15.38h1.78l5.89,15.38h-2.08Zm-5.84-1.66H1099l-2.62-7.19Z"/><path class="1301b0a3-7299-453c-b281-38e339340f59" d="M1117.09,801.88h-2L1107.3,790v11.85h-2V786.5h2l7.77,11.9V786.5h2Z"/><path class="1301b0a3-7299-453c-b281-38e339340f59" d="M1132,797a5.66,5.66,0,0,1-1.8,3.76,5.92,5.92,0,0,1-4,1.33,5.43,5.43,0,0,1-4.37-2,7.85,7.85,0,0,1-1.64-5.23v-1.48a8.75,8.75,0,0,1,.77-3.77,5.72,5.72,0,0,1,2.17-2.5,6.05,6.05,0,0,1,3.26-.87,5.57,5.57,0,0,1,3.93,1.37,5.73,5.73,0,0,1,1.72,3.79h-2a4.42,4.42,0,0,0-1.15-2.67,3.48,3.48,0,0,0-2.47-.83,3.63,3.63,0,0,0-3.05,1.44,6.59,6.59,0,0,0-1.1,4.09V795a6.77,6.77,0,0,0,1,4,3.38,3.38,0,0,0,2.93,1.48,3.91,3.91,0,0,0,2.6-.77A4.24,4.24,0,0,0,1130,797Z"/><path class="1301b0a3-7299-453c-b281-38e339340f59" d="M1139.49,794.22l4-7.72h2.31l-5.31,9.64v5.73h-2v-5.73l-5.31-9.64h2.33Z"/><path class="1301b0a3-7299-453c-b281-38e339340f59" d="M1155.19,795.86v6h-2V786.5h5.68a5.71,5.71,0,0,1,4,1.29,4.37,4.37,0,0,1,1.43,3.41,4.3,4.3,0,0,1-1.4,3.45,6,6,0,0,1-4,1.21Zm0-1.66h3.65a3.65,3.65,0,0,0,2.5-.77,2.8,2.8,0,0,0,.87-2.22,2.9,2.9,0,0,0-.87-2.2,3.42,3.42,0,0,0-2.38-.86h-3.76Z"/><path class="1301b0a3-7299-453c-b281-38e339340f59" d="M1172.47,795.66h-3.62v6.22h-2V786.5h5.1a6,6,0,0,1,4,1.18,4.26,4.26,0,0,1,1.4,3.44,4.14,4.14,0,0,1-.78,2.5,4.63,4.63,0,0,1-2.16,1.59l3.62,6.53v.13h-2.18Zm-3.62-1.66H1172a3.52,3.52,0,0,0,2.41-.78,2.64,2.64,0,0,0,.89-2.09,2.78,2.78,0,0,0-.85-2.19,3.61,3.61,0,0,0-2.46-.77h-3.11Z"/><path class="1301b0a3-7299-453c-b281-38e339340f59" d="M1192,794.69a9.5,9.5,0,0,1-.76,3.94,5.76,5.76,0,0,1-2.16,2.57,6,6,0,0,1-8.67-2.55,9.11,9.11,0,0,1-.8-3.83v-1.11a9.39,9.39,0,0,1,.77-3.92,5.71,5.71,0,0,1,5.42-3.51,6,6,0,0,1,3.26.89,5.75,5.75,0,0,1,2.17,2.59,9.54,9.54,0,0,1,.76,3.94Zm-2-1a6.88,6.88,0,0,0-1.1-4.2,3.63,3.63,0,0,0-3.08-1.46,3.59,3.59,0,0,0-3,1.46,6.75,6.75,0,0,0-1.14,4.06v1.13a6.9,6.9,0,0,0,1.12,4.17,3.91,3.91,0,0,0,6.12.08,6.85,6.85,0,0,0,1.11-4.1Z"/><path class="1301b0a3-7299-453c-b281-38e339340f59" d="M1201.5,786.5h2v10.89a4.5,4.5,0,0,1-1.33,3.45,5,5,0,0,1-3.54,1.25,5.1,5.1,0,0,1-3.57-1.17,4.23,4.23,0,0,1-1.28-3.28h2a2.55,2.55,0,0,0,2.82,2.8,2.73,2.73,0,0,0,2-.79,3.06,3.06,0,0,0,.79-2.22Z"/><path class="1301b0a3-7299-453c-b281-38e339340f59" d="M1215.7,794.77H1209v5.45h7.75v1.66H1207V786.5h9.68v1.66H1209v5h6.67Z"/><path class="1301b0a3-7299-453c-b281-38e339340f59" d="M1230.64,797a5.66,5.66,0,0,1-1.8,3.76,5.92,5.92,0,0,1-4,1.33,5.43,5.43,0,0,1-4.37-2,7.85,7.85,0,0,1-1.64-5.23v-1.48a8.75,8.75,0,0,1,.77-3.77,5.72,5.72,0,0,1,2.17-2.5,6.05,6.05,0,0,1,3.26-.87,5.57,5.57,0,0,1,3.93,1.37,5.73,5.73,0,0,1,1.72,3.79h-2a4.42,4.42,0,0,0-1.15-2.67,3.48,3.48,0,0,0-2.47-.83,3.63,3.63,0,0,0-3.05,1.44,6.59,6.59,0,0,0-1.1,4.09V795a6.77,6.77,0,0,0,1,4,3.38,3.38,0,0,0,2.93,1.48,3.91,3.91,0,0,0,2.6-.77,4.24,4.24,0,0,0,1.2-2.67Z"/><path class="1301b0a3-7299-453c-b281-38e339340f59" d="M1243.74,788.16h-4.95v13.72h-2V788.16h-4.94V786.5h11.91Z"/><path class="1301b0a3-7299-453c-b281-38e339340f59" d="M1250.39,795a9.56,9.56,0,0,1-3.8-1.84,3.52,3.52,0,0,1-1.19-2.7,3.72,3.72,0,0,1,1.45-3,5.79,5.79,0,0,1,3.78-1.19,6.32,6.32,0,0,1,2.83.61,4.65,4.65,0,0,1,1.92,1.69,4.32,4.32,0,0,1,.68,2.36h-2a2.81,2.81,0,0,0-.89-2.2,3.62,3.62,0,0,0-2.51-.8,3.7,3.7,0,0,0-2.34.66,2.2,2.2,0,0,0-.84,1.83,2,2,0,0,0,.8,1.59,7.84,7.84,0,0,0,2.72,1.19,12.66,12.66,0,0,1,3,1.19,4.55,4.55,0,0,1,1.61,1.52,3.86,3.86,0,0,1,.52,2,3.59,3.59,0,0,1-1.46,3,6.23,6.23,0,0,1-3.9,1.12,7.24,7.24,0,0,1-3-.61,5,5,0,0,1-2.12-1.66,4.05,4.05,0,0,1-.75-2.4h2a2.65,2.65,0,0,0,1,2.2,4.34,4.34,0,0,0,2.75.81,4,4,0,0,0,2.46-.66,2.12,2.12,0,0,0,.86-1.78,2.09,2.09,0,0,0-.79-1.75A9.14,9.14,0,0,0,1250.39,795Z"/></g><g class="ae6c69a6-1c4d-43d5-a499-ca59121819d4"><path d="M77,549.73H63.6l-3,8.37H56.23l12.23-32h3.69l12.25,32H80.07Zm-12.14-3.45H75.76l-5.45-15Z"/><path d="M112,548a11.75,11.75,0,0,1-3.75,7.83,12.3,12.3,0,0,1-8.39,2.76,11.29,11.29,0,0,1-9.09-4.06q-3.42-4.06-3.42-10.87v-3.07A18.2,18.2,0,0,1,89,532.69a11.9,11.9,0,0,1,4.52-5.19,12.59,12.59,0,0,1,6.77-1.81,11.58,11.58,0,0,1,8.18,2.84A11.9,11.9,0,0,1,112,536.4h-4.24q-.55-3.83-2.38-5.55a7.22,7.22,0,0,0-5.13-1.72,7.56,7.56,0,0,0-6.34,3q-2.3,3-2.3,8.5v3.1A14.09,14.09,0,0,0,93.79,552a7,7,0,0,0,6.09,3.08,8.13,8.13,0,0,0,5.4-1.59q1.88-1.59,2.5-5.54Z"/><path d="M135.46,549.73H122l-3,8.37h-4.35l12.23-32h3.69l12.25,32h-4.33Zm-12.14-3.45H134.2l-5.45-15Z"/><path d="M147.15,558.1v-32h9a14.56,14.56,0,0,1,7.39,1.84,12.48,12.48,0,0,1,5,5.25,17.06,17.06,0,0,1,1.77,7.82v2a17.12,17.12,0,0,1-1.75,7.93,12.28,12.28,0,0,1-5,5.23A15.5,15.5,0,0,1,156,558.1Zm4.22-28.52v25.08h4.44a9.67,9.67,0,0,0,7.6-3q2.72-3,2.71-8.64v-1.87q0-5.45-2.56-8.47a9.13,9.13,0,0,0-7.27-3.07Z"/><path d="M194.78,543.32H180.91v11.33H197v3.45H176.68v-32H196.8v3.45h-15.9v10.3h13.87Z"/><path d="M207.73,526.13l10.47,26.08,10.46-26.08h5.48v32h-4.22V545.65l.4-13.44L219.8,558.1h-3.23l-10.49-25.82.42,13.37V558.1h-4.22v-32Z"/><path d="M246.12,558.1H241.9v-32h4.22Z"/><path d="M277.39,548a11.75,11.75,0,0,1-3.75,7.83,12.3,12.3,0,0,1-8.39,2.76,11.29,11.29,0,0,1-9.09-4.06q-3.42-4.06-3.42-10.87v-3.07a18.18,18.18,0,0,1,1.59-7.84,11.9,11.9,0,0,1,4.52-5.19,12.59,12.59,0,0,1,6.77-1.81,11.58,11.58,0,0,1,8.18,2.84,11.9,11.9,0,0,1,3.58,7.87h-4.24q-.55-3.83-2.39-5.55a7.22,7.22,0,0,0-5.13-1.72,7.56,7.56,0,0,0-6.34,3q-2.3,3-2.3,8.5v3.1a14.09,14.09,0,0,0,2.18,8.28,7,7,0,0,0,6.09,3.08,8.13,8.13,0,0,0,5.4-1.59q1.88-1.59,2.5-5.54Z"/><path d="M312.39,543.32H298.52v11.33h16.12v3.45H294.3v-32h20.12v3.45h-15.9v10.3h13.88Z"/><path d="M330.33,538.38,338,526.13h5L332.86,542l10.36,16.12h-5l-7.87-12.47-7.92,12.47h-5L327.8,542l-10.14-15.85h4.95Z"/><path d="M371.12,548a11.76,11.76,0,0,1-3.75,7.83,12.3,12.3,0,0,1-8.39,2.76,11.29,11.29,0,0,1-9.09-4.06q-3.42-4.06-3.42-10.87v-3.07a18.2,18.2,0,0,1,1.59-7.84,11.89,11.89,0,0,1,4.52-5.19,12.59,12.59,0,0,1,6.77-1.81,11.58,11.58,0,0,1,8.18,2.84,11.91,11.91,0,0,1,3.58,7.87h-4.24q-.55-3.83-2.39-5.55a7.22,7.22,0,0,0-5.13-1.72,7.56,7.56,0,0,0-6.34,3q-2.3,3-2.3,8.5v3.1a14.09,14.09,0,0,0,2.18,8.28,7,7,0,0,0,6.09,3.08,8.13,8.13,0,0,0,5.4-1.59q1.88-1.59,2.5-5.54Z"/><path d="M395,543.32H381.1v11.33h16.12v3.45H376.88v-32H397v3.45H381.1v10.3H395Z"/><path d="M406.72,554.65h15.17v3.45H402.47v-32h4.24Z"/><path d="M430.95,554.65h15.17v3.45H426.71v-32h4.24Z"/><path d="M469,543.32H455.16v11.33h16.12v3.45H450.94v-32h20.12v3.45h-15.9v10.3H469Z"/><path d="M501.13,558.1h-4.24l-16.12-24.64V558.1h-4.24v-32h4.24l16.16,24.75V526.13h4.2Z"/><path d="M532.18,548a11.75,11.75,0,0,1-3.75,7.83,12.3,12.3,0,0,1-8.39,2.76,11.29,11.29,0,0,1-9.09-4.06q-3.42-4.06-3.42-10.87v-3.07a18.18,18.18,0,0,1,1.59-7.84,11.89,11.89,0,0,1,4.52-5.19,12.59,12.59,0,0,1,6.77-1.81,11.58,11.58,0,0,1,8.18,2.84,11.9,11.9,0,0,1,3.58,7.87h-4.24q-.55-3.83-2.39-5.55a7.22,7.22,0,0,0-5.13-1.72,7.56,7.56,0,0,0-6.34,3q-2.3,3-2.3,8.5v3.1A14.09,14.09,0,0,0,514,552a7,7,0,0,0,6.09,3.08,8.13,8.13,0,0,0,5.4-1.59q1.88-1.59,2.5-5.54Z"/><path d="M556,543.32H542.16v11.33h16.12v3.45H537.94v-32h20.12v3.45h-15.9v10.3H556Z"/><path d="M578.9,545.58V558.1h-4.22v-32h11.81q5.26,0,8.23,2.68a9.08,9.08,0,0,1,3,7.09,9,9,0,0,1-2.91,7.17q-2.91,2.51-8.34,2.51Zm0-3.45h7.59a7.59,7.59,0,0,0,5.19-1.59,5.83,5.83,0,0,0,1.8-4.61,6,6,0,0,0-1.8-4.57,7.11,7.11,0,0,0-4.95-1.78H578.9Z"/><path d="M614.83,545.16h-7.52V558.1h-4.24v-32h10.6q5.41,0,8.32,2.46t2.91,7.16a8.59,8.59,0,0,1-1.62,5.2,9.64,9.64,0,0,1-4.5,3.32l7.52,13.57v.26h-4.53Zm-7.52-3.45h6.49a7.32,7.32,0,0,0,5-1.63,5.5,5.5,0,0,0,1.86-4.36,5.79,5.79,0,0,0-1.77-4.55,7.5,7.5,0,0,0-5.11-1.61h-6.46Z"/><path d="M655.44,543.14a19.76,19.76,0,0,1-1.58,8.2,12,12,0,0,1-4.49,5.35,12.38,12.38,0,0,1-18-5.3,18.94,18.94,0,0,1-1.66-8v-2.31a19.52,19.52,0,0,1,1.6-8.15,11.87,11.87,0,0,1,11.26-7.29,12.42,12.42,0,0,1,6.78,1.86,12,12,0,0,1,4.52,5.38,19.86,19.86,0,0,1,1.58,8.2Zm-4.2-2.06q0-5.69-2.29-8.73a7.55,7.55,0,0,0-6.4-3,7.46,7.46,0,0,0-6.3,3q-2.3,3-2.36,8.44v2.35q0,5.51,2.32,8.66a8.14,8.14,0,0,0,12.72.18q2.24-3,2.31-8.53Z"/><path d="M685.41,553.9a9.75,9.75,0,0,1-4.54,3.48,18.37,18.37,0,0,1-6.78,1.15,13.16,13.16,0,0,1-6.95-1.83,12.21,12.21,0,0,1-4.69-5.21,18,18,0,0,1-1.7-7.84v-2.79q0-7.22,3.38-11.2t9.49-4a12.16,12.16,0,0,1,8.07,2.56,11.14,11.14,0,0,1,3.74,7.26h-4.22q-1.19-6.37-7.56-6.37a7.48,7.48,0,0,0-6.43,3q-2.19,3-2.21,8.63v2.62q0,5.38,2.46,8.56a8,8,0,0,0,6.66,3.18,14.7,14.7,0,0,0,4.16-.53,6.42,6.42,0,0,0,2.95-1.77v-7.16H673.8v-3.45h11.61Z"/><path d="M704.19,545.16h-7.52V558.1h-4.24v-32H703q5.41,0,8.32,2.46t2.91,7.16a8.59,8.59,0,0,1-1.62,5.2,9.64,9.64,0,0,1-4.5,3.32l7.52,13.57v.26h-4.53Zm-7.52-3.45h6.49a7.32,7.32,0,0,0,5-1.63,5.5,5.5,0,0,0,1.86-4.36,5.79,5.79,0,0,0-1.77-4.55,7.51,7.51,0,0,0-5.11-1.61h-6.46Z"/><path d="M737.85,549.73H724.44l-3,8.37h-4.35l12.22-32H733l12.25,32h-4.33Zm-12.14-3.45H736.6l-5.45-15Z"/><path d="M755,526.13l10.47,26.08,10.47-26.08h5.48v32h-4.22V545.65l.4-13.44L767.08,558.1h-3.23l-10.49-25.82.42,13.37V558.1h-4.22v-32Z"/><path d="M794.32,526.13l10.47,26.08,10.47-26.08h5.47v32H816.5V545.65l.4-13.44L806.39,558.1h-3.23l-10.49-25.82.42,13.37V558.1h-4.22v-32Z"/><path d="M846.28,543.32H832.4v11.33h16.12v3.45H828.18v-32H848.3v3.45H832.4v10.3h13.87Z"/></g><g class="ae6c69a6-1c4d-43d5-a499-ca59121819d4"><path d="M72.95,589.14a13.18,13.18,0,0,1-1.05,5.47,8,8,0,0,1-3,3.56,8.26,8.26,0,0,1-12-3.54,12.64,12.64,0,0,1-1.11-5.31v-1.54a13,13,0,0,1,1.07-5.43,7.91,7.91,0,0,1,7.5-4.86,8.28,8.28,0,0,1,4.52,1.24,8,8,0,0,1,3,3.59,13.24,13.24,0,0,1,1.05,5.47Zm-2.8-1.38a9.54,9.54,0,0,0-1.53-5.82,5,5,0,0,0-4.27-2,5,5,0,0,0-4.2,2,9.35,9.35,0,0,0-1.58,5.63v1.57a9.56,9.56,0,0,0,1.55,5.78,5.42,5.42,0,0,0,8.48.12,9.5,9.5,0,0,0,1.54-5.69Z"/><path d="M93.57,599.11H90.74L80,582.68v16.42H77.17V577.79H80l10.77,16.5v-16.5h2.8Z"/><path d="M101.4,596.81h10.11v2.3H98.57V577.79h2.83Z"/><path d="M117.74,599.11h-2.81V577.79h2.81Z"/><path d="M139.29,599.11h-2.83l-10.75-16.42v16.42h-2.83V577.79h2.83l10.77,16.5v-16.5h2.8Z"/><path d="M156.35,589.26H147.1v7.55h10.74v2.3H144.29V577.79H157.7v2.3H147.1V587h9.25Z"/><path d="M171.6,590.76v8.34h-2.81V577.79h7.87a7.92,7.92,0,0,1,5.49,1.79,6.05,6.05,0,0,1,2,4.73,6,6,0,0,1-1.94,4.78,8.27,8.27,0,0,1-5.56,1.68Zm0-2.3h5.06a5.06,5.06,0,0,0,3.46-1.06,3.88,3.88,0,0,0,1.2-3.07,4,4,0,0,0-1.2-3,4.74,4.74,0,0,0-3.3-1.19H171.6Z"/><path d="M190.55,596.81h10.11v2.3H187.72V577.79h2.83Z"/><path d="M215.94,593.53H207l-2,5.58h-2.9l8.15-21.31h2.46l8.17,21.31H218Zm-8.09-2.3h7.26l-3.63-10Z"/><path d="M236.59,580.09h-6.86v19h-2.8v-19h-6.85v-2.3h16.5Z"/><path d="M251.53,589.7h-9v9.41h-2.81V577.79H253v2.3H242.57v7.3h9Z"/><path d="M272.77,589.14a13.18,13.18,0,0,1-1.06,5.47,8,8,0,0,1-3,3.56,8.26,8.26,0,0,1-12-3.54,12.64,12.64,0,0,1-1.11-5.31v-1.54a13,13,0,0,1,1.07-5.43,7.91,7.91,0,0,1,7.5-4.86,8.29,8.29,0,0,1,4.52,1.24,8,8,0,0,1,3,3.59,13.24,13.24,0,0,1,1.06,5.47Zm-2.8-1.38a9.54,9.54,0,0,0-1.53-5.82,5,5,0,0,0-4.27-2,5,5,0,0,0-4.2,2,9.35,9.35,0,0,0-1.58,5.63v1.57a9.56,9.56,0,0,0,1.55,5.78,5.42,5.42,0,0,0,8.48.12,9.51,9.51,0,0,0,1.54-5.69Z"/><path d="M284.82,590.49h-5v8.62H277V577.79H284a8.37,8.37,0,0,1,5.55,1.64,5.9,5.9,0,0,1,1.94,4.77,5.73,5.73,0,0,1-1.08,3.47,6.42,6.42,0,0,1-3,2.21l5,9v.18h-3Zm-5-2.3h4.32a4.88,4.88,0,0,0,3.33-1.08,3.67,3.67,0,0,0,1.24-2.9,3.86,3.86,0,0,0-1.18-3,5,5,0,0,0-3.41-1.07h-4.31Z"/><path d="M299.11,577.79l7,17.39,7-17.39h3.65v21.31H313.9v-8.3l.26-9-7,17.26H305l-7-17.21.28,8.91v8.3h-2.81V577.79Z"/><path d="M340.89,589.7h-9v9.41h-2.81V577.79h13.22v2.3H331.93v7.3h9Z"/><path d="M362.13,589.14a13.16,13.16,0,0,1-1.06,5.47,8,8,0,0,1-3,3.56,8.26,8.26,0,0,1-12-3.54,12.63,12.63,0,0,1-1.11-5.31v-1.54a13,13,0,0,1,1.07-5.43,7.91,7.91,0,0,1,7.5-4.86,8.29,8.29,0,0,1,4.52,1.24,8,8,0,0,1,3,3.59,13.22,13.22,0,0,1,1.06,5.47Zm-2.8-1.38a9.54,9.54,0,0,0-1.52-5.82,5,5,0,0,0-4.27-2,5,5,0,0,0-4.2,2,9.35,9.35,0,0,0-1.58,5.63v1.57a9.56,9.56,0,0,0,1.55,5.78,5.42,5.42,0,0,0,8.48.12,9.5,9.5,0,0,0,1.54-5.69Z"/><path d="M374.18,590.49h-5v8.62h-2.83V577.79h7.07a8.37,8.37,0,0,1,5.55,1.64,5.9,5.9,0,0,1,1.94,4.77,5.73,5.73,0,0,1-1.08,3.47,6.43,6.43,0,0,1-3,2.21l5,9v.18h-3Zm-5-2.3h4.32a4.88,4.88,0,0,0,3.33-1.08,3.67,3.67,0,0,0,1.24-2.9,3.86,3.86,0,0,0-1.18-3,5,5,0,0,0-3.41-1.07h-4.31Z"/><path d="M408,592.34a7.84,7.84,0,0,1-2.5,5.22,8.2,8.2,0,0,1-5.59,1.84,7.52,7.52,0,0,1-6.06-2.71,10.89,10.89,0,0,1-2.28-7.25v-2a12.12,12.12,0,0,1,1.06-5.23,8,8,0,0,1,3-3.46,8.4,8.4,0,0,1,4.52-1.21,7.72,7.72,0,0,1,5.45,1.9,7.93,7.93,0,0,1,2.39,5.25h-2.83a6.12,6.12,0,0,0-1.59-3.7,4.81,4.81,0,0,0-3.42-1.15,5,5,0,0,0-4.23,2,9.13,9.13,0,0,0-1.53,5.67v2.07a9.4,9.4,0,0,0,1.45,5.52,4.69,4.69,0,0,0,4.06,2.05,5.43,5.43,0,0,0,3.6-1.06,5.89,5.89,0,0,0,1.66-3.7Z"/><path d="M428.22,589.14a13.18,13.18,0,0,1-1.06,5.47,8,8,0,0,1-3,3.56,8.26,8.26,0,0,1-12-3.54,12.64,12.64,0,0,1-1.11-5.31v-1.54a13,13,0,0,1,1.07-5.43,7.91,7.91,0,0,1,7.5-4.86,8.29,8.29,0,0,1,4.52,1.24,8,8,0,0,1,3,3.59,13.24,13.24,0,0,1,1.06,5.47Zm-2.8-1.38a9.54,9.54,0,0,0-1.53-5.82,5,5,0,0,0-4.27-2,5,5,0,0,0-4.2,2,9.35,9.35,0,0,0-1.58,5.63v1.57a9.56,9.56,0,0,0,1.55,5.78,5.42,5.42,0,0,0,8.48.12,9.51,9.51,0,0,0,1.54-5.69Z"/><path d="M435.27,596.81h10.12v2.3H432.45V577.79h2.83Z"/><path d="M451.43,596.81h10.11v2.3H448.6V577.79h2.83Z"/><path d="M476.82,589.26h-9.25v7.55h10.75v2.3H464.75V577.79h13.41v2.3h-10.6V587h9.25Z"/><path d="M497.57,596.31a6.5,6.5,0,0,1-3,2.32,12.25,12.25,0,0,1-4.52.77,8.78,8.78,0,0,1-4.63-1.22,8.15,8.15,0,0,1-3.13-3.48,12,12,0,0,1-1.14-5.23v-1.86q0-4.81,2.25-7.46a7.84,7.84,0,0,1,6.33-2.65,8.1,8.1,0,0,1,5.38,1.71,7.42,7.42,0,0,1,2.49,4.84h-2.81q-.79-4.25-5-4.25a5,5,0,0,0-4.29,2,9.68,9.68,0,0,0-1.47,5.75v1.74A9.07,9.07,0,0,0,485.6,595,5.32,5.32,0,0,0,490,597.1a9.83,9.83,0,0,0,2.77-.35,4.29,4.29,0,0,0,2-1.18v-4.78h-4.94v-2.3h7.74Z"/><path d="M514.33,589.26h-9.25v7.55h10.74v2.3H502.26V577.79h13.41v2.3h-10.6V587h9.25Z"/><path d="M533,589.61a13.22,13.22,0,0,1-5.27-2.55,4.87,4.87,0,0,1-1.65-3.74,5.15,5.15,0,0,1,2-4.17,8,8,0,0,1,5.24-1.65,8.76,8.76,0,0,1,3.92.85,6.45,6.45,0,0,1,2.67,2.34,6,6,0,0,1,.95,3.26h-2.83a3.89,3.89,0,0,0-1.23-3,5,5,0,0,0-3.47-1.11,5.13,5.13,0,0,0-3.25.92,3.06,3.06,0,0,0-1.17,2.54,2.75,2.75,0,0,0,1.11,2.21,10.84,10.84,0,0,0,3.77,1.65,17.49,17.49,0,0,1,4.16,1.65,6.33,6.33,0,0,1,2.23,2.1,5.36,5.36,0,0,1,.72,2.83,5,5,0,0,1-2,4.15,8.63,8.63,0,0,1-5.41,1.56,10,10,0,0,1-4.1-.84,6.91,6.91,0,0,1-2.94-2.31,5.62,5.62,0,0,1-1-3.32h2.83a3.67,3.67,0,0,0,1.43,3.05,6,6,0,0,0,3.82,1.12,5.53,5.53,0,0,0,3.42-.91,3,3,0,0,0,1.19-2.47,2.9,2.9,0,0,0-1.1-2.42A12.71,12.71,0,0,0,533,589.61Z"/><path d="M559.31,580.09h-6.86v19h-2.8v-19h-6.85v-2.3h16.51Z"/><path d="M577.51,577.79v14.49a6.8,6.8,0,0,1-1.9,4.93,7.65,7.65,0,0,1-5.11,2.15l-.75,0a8,8,0,0,1-5.58-1.89,6.75,6.75,0,0,1-2.11-5.2V577.79h2.79v14.43a4.45,4.45,0,0,0,4.91,4.87,4.94,4.94,0,0,0,3.66-1.27,4.86,4.86,0,0,0,1.27-3.59V577.79Z"/><path d="M581.95,599.11V577.79h6A9.7,9.7,0,0,1,592.9,579a8.31,8.31,0,0,1,3.3,3.5,11.37,11.37,0,0,1,1.18,5.21v1.36a11.4,11.4,0,0,1-1.17,5.28,8.19,8.19,0,0,1-3.33,3.48,10.33,10.33,0,0,1-5,1.24Zm2.81-19v16.72h3a6.45,6.45,0,0,0,5.06-2A8.35,8.35,0,0,0,594.6,589v-1.25a8.48,8.48,0,0,0-1.71-5.65,6.08,6.08,0,0,0-4.84-2Z"/><path d="M613.7,589.26h-9.25v7.55h10.75v2.3H601.63V577.79H615v2.3h-10.6V587h9.25Z"/><path d="M635.1,599.11h-2.83l-10.75-16.42v16.42H618.7V577.79h2.83l10.77,16.5v-16.5h2.8Z"/><path d="M654.42,580.09h-6.86v19h-2.8v-19h-6.85v-2.3h16.51Z"/><path d="M663.64,589.61a13.22,13.22,0,0,1-5.27-2.55,4.87,4.87,0,0,1-1.65-3.74,5.15,5.15,0,0,1,2-4.17A8,8,0,0,1,664,577.5a8.76,8.76,0,0,1,3.92.85,6.45,6.45,0,0,1,2.67,2.34,6,6,0,0,1,.95,3.26h-2.83a3.89,3.89,0,0,0-1.23-3A5,5,0,0,0,664,579.8a5.13,5.13,0,0,0-3.25.92,3.05,3.05,0,0,0-1.17,2.54,2.75,2.75,0,0,0,1.11,2.21,10.86,10.86,0,0,0,3.77,1.65,17.48,17.48,0,0,1,4.16,1.65,6.32,6.32,0,0,1,2.23,2.1,5.35,5.35,0,0,1,.73,2.83,5,5,0,0,1-2,4.15,8.63,8.63,0,0,1-5.41,1.56,10.05,10.05,0,0,1-4.1-.84,6.91,6.91,0,0,1-2.94-2.31,5.62,5.62,0,0,1-1-3.32h2.83A3.67,3.67,0,0,0,660.3,596a6,6,0,0,0,3.82,1.12,5.53,5.53,0,0,0,3.42-.91,2.94,2.94,0,0,0,1.19-2.47,2.89,2.89,0,0,0-1.1-2.42A12.7,12.7,0,0,0,663.64,589.61Z"/><path d="M694.38,593.53h-8.94l-2,5.58h-2.9l8.15-21.31h2.46l8.17,21.31h-2.89Zm-8.09-2.3h7.26l-3.63-10Z"/><path d="M718.58,599.11h-2.83L705,582.68v16.42h-2.83V577.79H705l10.78,16.5v-16.5h2.8Z"/><path d="M723.58,599.11V577.79h6a9.71,9.71,0,0,1,4.93,1.23,8.32,8.32,0,0,1,3.3,3.5,11.37,11.37,0,0,1,1.18,5.21v1.36a11.4,11.4,0,0,1-1.17,5.28,8.18,8.18,0,0,1-3.33,3.48,10.33,10.33,0,0,1-5,1.24Zm2.81-19v16.72h3a6.45,6.45,0,0,0,5.06-2,8.35,8.35,0,0,0,1.81-5.76v-1.25a8.48,8.48,0,0,0-1.71-5.65,6.08,6.08,0,0,0-4.84-2Z"/><path d="M764.86,580.09H758v19h-2.8v-19h-6.85v-2.3h16.51Z"/><path d="M780.08,589.26h-9.25v7.55h10.74v2.3H768V577.79h13.41v2.3h-10.6V587h9.25Z"/><path d="M796.87,593.53h-8.94l-2,5.58H783l8.15-21.31h2.46l8.17,21.31h-2.89Zm-8.09-2.3H796l-3.63-10Z"/><path d="M820.21,592.34a7.84,7.84,0,0,1-2.5,5.22,8.2,8.2,0,0,1-5.59,1.84,7.52,7.52,0,0,1-6.06-2.71,10.89,10.89,0,0,1-2.28-7.25v-2a12.12,12.12,0,0,1,1.06-5.23,8,8,0,0,1,3-3.46,8.4,8.4,0,0,1,4.52-1.21,7.72,7.72,0,0,1,5.45,1.9,7.93,7.93,0,0,1,2.39,5.25h-2.83a6.12,6.12,0,0,0-1.59-3.7,4.81,4.81,0,0,0-3.42-1.15,5,5,0,0,0-4.23,2,9.13,9.13,0,0,0-1.53,5.67v2.07a9.4,9.4,0,0,0,1.45,5.52,4.69,4.69,0,0,0,4.06,2.05,5.43,5.43,0,0,0,3.6-1.06,5.89,5.89,0,0,0,1.66-3.7Z"/><path d="M840.45,599.11h-2.83v-9.85H826.86v9.85H824V577.79h2.81V587h10.76v-9.16h2.83Z"/><path d="M857.51,589.26h-9.25v7.55H859v2.3H845.45V577.79h13.41v2.3h-10.6V587h9.25Z"/><path d="M870.34,590.49h-5v8.62H862.5V577.79h7.07a8.37,8.37,0,0,1,5.55,1.64,5.9,5.9,0,0,1,1.94,4.77,5.73,5.73,0,0,1-1.08,3.47,6.43,6.43,0,0,1-3,2.21l5,9v.18h-3Zm-5-2.3h4.32A4.88,4.88,0,0,0,873,587.1a3.67,3.67,0,0,0,1.24-2.9,3.86,3.86,0,0,0-1.18-3,5,5,0,0,0-3.41-1.07h-4.31Z"/><path d="M887.28,589.61a13.22,13.22,0,0,1-5.27-2.55,4.87,4.87,0,0,1-1.65-3.74,5.15,5.15,0,0,1,2-4.17,8,8,0,0,1,5.24-1.65,8.77,8.77,0,0,1,3.92.85,6.46,6.46,0,0,1,2.67,2.34,6,6,0,0,1,.95,3.26h-2.83a3.9,3.9,0,0,0-1.23-3,5,5,0,0,0-3.47-1.11,5.13,5.13,0,0,0-3.25.92,3.06,3.06,0,0,0-1.17,2.54,2.75,2.75,0,0,0,1.11,2.21,10.84,10.84,0,0,0,3.77,1.65,17.5,17.5,0,0,1,4.16,1.65,6.33,6.33,0,0,1,2.23,2.1,5.36,5.36,0,0,1,.73,2.83,5,5,0,0,1-2,4.15,8.63,8.63,0,0,1-5.41,1.56,10,10,0,0,1-4.1-.84,6.91,6.91,0,0,1-2.94-2.31,5.62,5.62,0,0,1-1-3.32h2.83a3.67,3.67,0,0,0,1.43,3.05,6,6,0,0,0,3.82,1.12,5.54,5.54,0,0,0,3.42-.91,3,3,0,0,0,1.19-2.47,2.9,2.9,0,0,0-1.1-2.42A12.72,12.72,0,0,0,887.28,589.61Z"/></g><rect id="8f1b8a55-4e76-4301-b9ba-227da88b39cd" data-name="rect5617-2" class="8c12c60b-e497-420e-801d-bf375cf78451" x="976.2" y="624.9" width="530.4" height="61.5"/><g class="ae6c69a6-1c4d-43d5-a499-ca59121819d4"><path class="1f5858ce-b43f-4956-84e9-3286d545ec92" d="M1001.16,665.68h-2V650.31h2Z"/><path class="1f5858ce-b43f-4956-84e9-3286d545ec92" d="M1016.7,665.68h-2l-7.75-11.85v11.85h-2V650.31h2l7.77,11.9v-11.9h2Z"/><path class="1f5858ce-b43f-4956-84e9-3286d545ec92" d="M1020.31,665.68V650.31h4.35a7,7,0,0,1,3.55.89,6,6,0,0,1,2.38,2.52,8.2,8.2,0,0,1,.85,3.76v1a8.23,8.23,0,0,1-.84,3.81,5.9,5.9,0,0,1-2.4,2.51,7.45,7.45,0,0,1-3.63.9Zm2-13.72V664h2.14a4.65,4.65,0,0,0,3.65-1.46,6,6,0,0,0,1.31-4.15v-.9a6.12,6.12,0,0,0-1.23-4.07,4.39,4.39,0,0,0-3.5-1.47Z"/><path class="1f5858ce-b43f-4956-84e9-3286d545ec92" d="M1045.35,650.31v10.46a4.9,4.9,0,0,1-1.37,3.56,5.52,5.52,0,0,1-3.68,1.55l-.54,0a5.77,5.77,0,0,1-4-1.36,4.87,4.87,0,0,1-1.52-3.75V650.31h2v10.41a3.21,3.21,0,0,0,3.54,3.52,3.56,3.56,0,0,0,2.64-.92,3.51,3.51,0,0,0,.92-2.59V650.31Z"/><path class="1f5858ce-b43f-4956-84e9-3286d545ec92" d="M1053.09,658.83a9.56,9.56,0,0,1-3.8-1.84,3.52,3.52,0,0,1-1.19-2.7,3.72,3.72,0,0,1,1.45-3,5.79,5.79,0,0,1,3.78-1.19,6.32,6.32,0,0,1,2.83.61,4.65,4.65,0,0,1,1.92,1.69,4.32,4.32,0,0,1,.68,2.36h-2a2.81,2.81,0,0,0-.89-2.2,3.62,3.62,0,0,0-2.51-.8,3.7,3.7,0,0,0-2.34.66,2.2,2.2,0,0,0-.84,1.83,2,2,0,0,0,.8,1.59,7.84,7.84,0,0,0,2.72,1.19,12.66,12.66,0,0,1,3,1.19,4.55,4.55,0,0,1,1.61,1.52,3.86,3.86,0,0,1,.52,2,3.59,3.59,0,0,1-1.46,3,6.23,6.23,0,0,1-3.9,1.12,7.24,7.24,0,0,1-3-.61,5,5,0,0,1-2.12-1.66,4.05,4.05,0,0,1-.75-2.4h2a2.65,2.65,0,0,0,1,2.2,4.34,4.34,0,0,0,2.75.81,4,4,0,0,0,2.46-.66,2.12,2.12,0,0,0,.86-1.78,2.09,2.09,0,0,0-.79-1.75A9.14,9.14,0,0,0,1053.09,658.83Z"/><path class="1f5858ce-b43f-4956-84e9-3286d545ec92" d="M1072,652h-4.95v13.72h-2V652h-4.94v-1.66H1072Z"/><path class="1f5858ce-b43f-4956-84e9-3286d545ec92" d="M1080,659.46h-3.62v6.22h-2V650.31h5.1a6,6,0,0,1,4,1.18,4.26,4.26,0,0,1,1.4,3.44,4.14,4.14,0,0,1-.78,2.5,4.63,4.63,0,0,1-2.16,1.59l3.62,6.53v.13h-2.18Zm-3.62-1.66h3.12a3.52,3.52,0,0,0,2.41-.78,2.64,2.64,0,0,0,.89-2.09,2.78,2.78,0,0,0-.85-2.19,3.61,3.61,0,0,0-2.46-.77h-3.11Z"/><path class="1f5858ce-b43f-4956-84e9-3286d545ec92" d="M1091.85,658l4-7.72h2.31l-5.31,9.64v5.73h-2V660l-5.31-9.64h2.33Z"/><path class="1f5858ce-b43f-4956-84e9-3286d545ec92" d="M1111.17,659.46h-3.62v6.22h-2V650.31h5.1a6,6,0,0,1,4,1.18,4.26,4.26,0,0,1,1.4,3.44,4.14,4.14,0,0,1-.78,2.5,4.63,4.63,0,0,1-2.16,1.59l3.62,6.53v.13h-2.18Zm-3.62-1.66h3.12a3.52,3.52,0,0,0,2.41-.78,2.64,2.64,0,0,0,.89-2.09,2.78,2.78,0,0,0-.85-2.19,3.61,3.61,0,0,0-2.46-.77h-3.11Z"/><path class="1f5858ce-b43f-4956-84e9-3286d545ec92" d="M1127.56,658.58h-6.67V664h7.75v1.66h-9.78V650.31h9.68V652h-7.65v5h6.67Z"/><path class="1f5858ce-b43f-4956-84e9-3286d545ec92" d="M1133.21,664h7.3v1.66h-9.34V650.31h2Z"/><path class="1f5858ce-b43f-4956-84e9-3286d545ec92" d="M1151.52,658.58h-6.67V664h7.75v1.66h-9.78V650.31h9.68V652h-7.65v5h6.67Z"/><path class="1f5858ce-b43f-4956-84e9-3286d545ec92" d="M1160.23,663l4.4-12.68h2.22l-5.71,15.38h-1.8l-5.7-15.38h2.21Z"/><path class="1f5858ce-b43f-4956-84e9-3286d545ec92" d="M1176.62,661.66h-6.45l-1.45,4h-2.09l5.88-15.38h1.78l5.89,15.38h-2.08Zm-5.84-1.66H1176l-2.62-7.19Z"/><path class="1f5858ce-b43f-4956-84e9-3286d545ec92" d="M1194.08,665.68h-2l-7.75-11.85v11.85h-2V650.31h2l7.77,11.9v-11.9h2Z"/><path class="1f5858ce-b43f-4956-84e9-3286d545ec92" d="M1208,652h-4.95v13.72h-2V652h-4.94v-1.66H1208Z"/><path class="1f5858ce-b43f-4956-84e9-3286d545ec92" d="M1219.78,658.83A9.56,9.56,0,0,1,1216,657a3.52,3.52,0,0,1-1.19-2.7,3.72,3.72,0,0,1,1.45-3,5.79,5.79,0,0,1,3.78-1.19,6.32,6.32,0,0,1,2.83.61,4.65,4.65,0,0,1,1.92,1.69,4.32,4.32,0,0,1,.68,2.36h-2a2.81,2.81,0,0,0-.89-2.2,3.62,3.62,0,0,0-2.51-.8,3.7,3.7,0,0,0-2.34.66,2.2,2.2,0,0,0-.84,1.83,2,2,0,0,0,.8,1.59,7.84,7.84,0,0,0,2.72,1.19,12.66,12.66,0,0,1,3,1.19,4.55,4.55,0,0,1,1.61,1.52,3.86,3.86,0,0,1,.52,2,3.59,3.59,0,0,1-1.46,3,6.23,6.23,0,0,1-3.9,1.12,7.24,7.24,0,0,1-3-.61,5,5,0,0,1-2.12-1.66,4.05,4.05,0,0,1-.75-2.4h2a2.65,2.65,0,0,0,1,2.2,4.34,4.34,0,0,0,2.75.81,4,4,0,0,0,2.46-.66,2.12,2.12,0,0,0,.86-1.78,2.09,2.09,0,0,0-.79-1.75A9.14,9.14,0,0,0,1219.78,658.83Z"/><path class="1f5858ce-b43f-4956-84e9-3286d545ec92" d="M1232,658.53l-1.88,2v5.2h-2V650.31h2v7.6l6.84-7.6h2.45l-6.06,6.79,6.54,8.59h-2.43Z"/><path class="1f5858ce-b43f-4956-84e9-3286d545ec92" d="M1243.84,665.68h-2V650.31h2Z"/><path class="1f5858ce-b43f-4956-84e9-3286d545ec92" d="M1249.6,664h7.3v1.66h-9.34V650.31h2Z"/><path class="1f5858ce-b43f-4956-84e9-3286d545ec92" d="M1261.25,664h7.3v1.66h-9.34V650.31h2Z"/><path class="1f5858ce-b43f-4956-84e9-3286d545ec92" d="M1286.44,652h-4.95v13.72h-2V652h-4.94v-1.66h11.91Z"/><path class="1f5858ce-b43f-4956-84e9-3286d545ec92" d="M1294.37,659.46h-3.62v6.22h-2V650.31h5.1a6,6,0,0,1,4,1.18,4.26,4.26,0,0,1,1.4,3.44,4.14,4.14,0,0,1-.78,2.5,4.63,4.63,0,0,1-2.16,1.59l3.62,6.53v.13h-2.18Zm-3.62-1.66h3.12a3.52,3.52,0,0,0,2.41-.78,2.64,2.64,0,0,0,.89-2.09,2.78,2.78,0,0,0-.85-2.19,3.61,3.61,0,0,0-2.46-.77h-3.11Z"/><path class="1f5858ce-b43f-4956-84e9-3286d545ec92" d="M1310.56,661.66h-6.45l-1.45,4h-2.09l5.88-15.38h1.78l5.89,15.38H1312Zm-5.84-1.66H1310l-2.62-7.19Z"/><path class="1f5858ce-b43f-4956-84e9-3286d545ec92" d="M1318.37,665.68h-2V650.31h2Z"/><path class="1f5858ce-b43f-4956-84e9-3286d545ec92" d="M1333.91,665.68h-2l-7.75-11.85v11.85h-2V650.31h2l7.77,11.9v-11.9h2Z"/><path class="1f5858ce-b43f-4956-84e9-3286d545ec92" d="M1339.7,665.68h-2V650.31h2Z"/><path class="1f5858ce-b43f-4956-84e9-3286d545ec92" d="M1355.24,665.68h-2l-7.75-11.85v11.85h-2V650.31h2l7.77,11.9v-11.9h2Z"/><path class="1f5858ce-b43f-4956-84e9-3286d545ec92" d="M1370.22,663.67a4.69,4.69,0,0,1-2.18,1.67,8.84,8.84,0,0,1-3.26.55,6.34,6.34,0,0,1-3.34-.88,5.88,5.88,0,0,1-2.26-2.51,8.66,8.66,0,0,1-.82-3.77v-1.34A8.08,8.08,0,0,1,1360,652a5.66,5.66,0,0,1,4.56-1.91,5.85,5.85,0,0,1,3.88,1.23,5.36,5.36,0,0,1,1.8,3.49h-2a3.36,3.36,0,0,0-3.64-3.06,3.6,3.6,0,0,0-3.09,1.43,7,7,0,0,0-1.06,4.15v1.26a6.55,6.55,0,0,0,1.18,4.12,3.84,3.84,0,0,0,3.2,1.53,7.11,7.11,0,0,0,2-.25,3.09,3.09,0,0,0,1.42-.85v-3.45h-3.56V658h5.58Z"/></g></g></g></svg>