<svg xmlns="http://www.w3.org/2000/svg" viewBox="0 0 1600 900"><defs><style>.c02b4e22-16aa-4b24-a32c-5511efbb491d{fill:#b1dbb1;}.c000b49c-5191-4287-aa9b-aebe42ddb9ee{fill:#75292f;}.\31 568a7dc-3e48-4f0b-8dc0-7de2ea1b8600,.\31 6346fdf-364b-4d4d-ba9e-690b5e326cb5,.\31 ae5ba30-e9f9-4df7-b234-118db4d17822,.\33 afaf80c-beae-4315-b9ee-910e83251ab6,.\34 417c348-a2db-436a-a6ad-3a52428f2e90,.\34 da79f18-e4d0-4a40-93a6-f930df30ec8b,.\35 bcbece6-e52e-4eca-8b5c-6acaf852ede3,.\37 0086b58-95ca-4a52-9e76-7c2991dddae3,.\37 5b84468-f30f-46a0-a06a-0c2bb85aee87,.\38 008deb7-3dba-40d0-9ad5-8598a2896b16,.\38 05c2fba-d7f3-4f89-9a78-1a8d10b1f993,.\39 867814b-dea2-4ff6-bcc2-b30bee4d6133,.\39 9d80e65-7589-4712-a2c5-4e636d7aa2a5,.a56d27d1-abd5-4ebc-8c98-4e41c881b998,.adaa5bb8-30ae-4475-bd73-7dc3de71df47,.afc73a02-6d37-41a1-bd4e-efb2a2ddf07d,.c000b49c-5191-4287-aa9b-aebe42ddb9ee,.c559f67b-936d-42b8-a80e-8af1db5f2e90,.cae021cf-0212-41e8-8974-f2dc1fa2abe5,.d8a940b7-8630-4782-a692-4e891119f346,.da768884-6c8c-4281-883e-64cebe68e6f0,.e02d9222-4ebc-4081-802e-4fd7766034f3{stroke:#000;}.da768884-6c8c-4281-883e-64cebe68e6f0{fill:#fabfdc;}.\31 568a7dc-3e48-4f0b-8dc0-7de2ea1b8600,.\34 417c348-a2db-436a-a6ad-3a52428f2e90,.\37 5b84468-f30f-46a0-a06a-0c2bb85aee87,.\39 9d80e65-7589-4712-a2c5-4e636d7aa2a5,.adaa5bb8-30ae-4475-bd73-7dc3de71df47,.afc73a02-6d37-41a1-bd4e-efb2a2ddf07d,.d8a940b7-8630-4782-a692-4e891119f346,.da768884-6c8c-4281-883e-64cebe68e6f0,.e02d9222-4ebc-4081-802e-4fd7766034f3{fill-opacity:0.78;}.cae021cf-0212-41e8-8974-f2dc1fa2abe5{fill:#101010;}.\33 afaf80c-beae-4315-b9ee-910e83251ab6{fill:#677c8f;}.\35 bcbece6-e52e-4eca-8b5c-6acaf852ede3{fill:#3e76ab;}.\37 f2f3c36-072b-4af9-9535-4c22df24844b{fill:#d84f22;opacity:0.94;}.\30 3080725-252d-483f-8090-48ddeaf01792,.\34 f5b147b-13d2-48ea-8359-55beb5d8cbf2,.\35 9bf720e-9248-44e3-b6f2-e21ddf7b64e4,.\35 ed1c8f7-d911-4ef2-8d5d-773fbbc0b2a4,.\37 f2f3c36-072b-4af9-9535-4c22df24844b,.\38 6b07e68-a802-4bd1-927c-ec97ce9cd2c0,.c3a6ce18-7fa5-43c4-8826-437b564566a1,.c9ef6c54-4fc0-4716-8117-3301f2cb0586,.f9450aaf-99c4-4869-b853-22f2c3f2ecdc,.ffad39aa-3e9b-49c2-8cc4-e3952ca0c50b{isolation:isolate;}.afc73a02-6d37-41a1-bd4e-efb2a2ddf07d{fill:#93e6fa;}.a56d27d1-abd5-4ebc-8c98-4e41c881b998,.c9ef6c54-4fc0-4716-8117-3301f2cb0586{fill:none;}.\37 0086b58-95ca-4a52-9e76-7c2991dddae3,.\38 6b07e68-a802-4bd1-927c-ec97ce9cd2c0{fill:#fdfdfd;}.e02d9222-4ebc-4081-802e-4fd7766034f3{fill:#fffffd;}.\38 05c2fba-d7f3-4f89-9a78-1a8d10b1f993{fill:#fefcfe;}.\31 568a7dc-3e48-4f0b-8dc0-7de2ea1b8600{fill:#e883cc;}.\39 9d80e65-7589-4712-a2c5-4e636d7aa2a5{fill:#fac0dc;}.\34 da79f18-e4d0-4a40-93a6-f930df30ec8b{fill:#101f14;}.c559f67b-936d-42b8-a80e-8af1db5f2e90{fill:#fdfdfe;}.\37 5b84468-f30f-46a0-a06a-0c2bb85aee87{fill:#faf8f7;}.\34 417c348-a2db-436a-a6ad-3a52428f2e90,.d8a940b7-8630-4782-a692-4e891119f346{fill:#fafaf8;}.d8a940b7-8630-4782-a692-4e891119f346{stroke-width:1.15px;}.adaa5bb8-30ae-4475-bd73-7dc3de71df47{fill:#fa93f8;}.\31 6346fdf-364b-4d4d-ba9e-690b5e326cb5,.\39 867814b-dea2-4ff6-bcc2-b30bee4d6133{fill:#070707;}.\38 6b07e68-a802-4bd1-927c-ec97ce9cd2c0,.c9ef6c54-4fc0-4716-8117-3301f2cb0586{stroke:#3665b6;}.\30 a2fc9fe-f697-495b-9ec3-13570f3f45fa,.\35 9bf720e-9248-44e3-b6f2-e21ddf7b64e4,.\38 6b07e68-a802-4bd1-927c-ec97ce9cd2c0,.c9ef6c54-4fc0-4716-8117-3301f2cb0586{stroke-linecap:round;stroke-linejoin:round;}.\35 9bf720e-9248-44e3-b6f2-e21ddf7b64e4,.c9ef6c54-4fc0-4716-8117-3301f2cb0586{stroke-width:4.25px;}.\35 9bf720e-9248-44e3-b6f2-e21ddf7b64e4,.\38 6b07e68-a802-4bd1-927c-ec97ce9cd2c0,.c9ef6c54-4fc0-4716-8117-3301f2cb0586{opacity:0.51;}.ffad39aa-3e9b-49c2-8cc4-e3952ca0c50b{fill:#112d2d;}.\30 3080725-252d-483f-8090-48ddeaf01792,.\35 ed1c8f7-d911-4ef2-8d5d-773fbbc0b2a4,.c3a6ce18-7fa5-43c4-8826-437b564566a1,.f9450aaf-99c4-4869-b853-22f2c3f2ecdc,.ffad39aa-3e9b-49c2-8cc4-e3952ca0c50b{opacity:0.96;}.\30 3080725-252d-483f-8090-48ddeaf01792{fill:#f4fbfc;}.\38 6b07e68-a802-4bd1-927c-ec97ce9cd2c0{stroke-width:3.52px;}.c3a6ce18-7fa5-43c4-8826-437b564566a1{fill:#2d1111;}.\35 9bf720e-9248-44e3-b6f2-e21ddf7b64e4{fill:#f4fcf6;stroke:#73b636;}.\31 ae5ba30-e9f9-4df7-b234-118db4d17822,.\35 ed1c8f7-d911-4ef2-8d5d-773fbbc0b2a4,.\38 008deb7-3dba-40d0-9ad5-8598a2896b16{fill:#2d777f;}.\39 867814b-dea2-4ff6-bcc2-b30bee4d6133{stroke-width:0.96px;}.\31 ae5ba30-e9f9-4df7-b234-118db4d17822{stroke-width:1.26px;}.f9450aaf-99c4-4869-b853-22f2c3f2ecdc{fill:#f9fbfc;}.\30 a2fc9fe-f697-495b-9ec3-13570f3f45fa{fill:#393232;stroke:#f8f8f8;stroke-width:0.85px;}.bbd39847-2645-402e-b5f6-cbb708f19493{fill:#fcf9f9;}</style></defs><title>slide-5</title><g id="559fefe4-c6f0-4536-ad2a-942e97c7dfbe" data-name="Layer 2"><g id="cc666acb-5989-4fed-bc06-29aa9998c538" data-name="Layer 1"><rect id="3ba8e603-f7f8-4cf6-a7ca-02a7e725f003" data-name="rect5907" class="c02b4e22-16aa-4b24-a32c-5511efbb491d" width="1600" height="900"/><path id="ab54d50f-74e4-4c07-9b99-d789f9969261" data-name="path4205" class="c000b49c-5191-4287-aa9b-aebe42ddb9ee" d="M1055,437.27c0,8.7.6,9.3.6,9.3s.6.6,9.3,4.4,14.3,8.7,19.3,8.7,21.8.6,29.9,1.2,24.3-1.9,26.8-3.1,14.3-3.7,19.3-6.2,5-11.8,2.5-11.8-1.2,0-9.3,2.5-16.8,5.6-21.8,5.6-14.9,2.5-19.9,2.5-17.4-2.5-21.2-2.5-14.3-4.4-19.3-5.6-16.2-5-16.2-5Z"/><path id="c3435cfb-63ee-421c-b482-0c3d7070c833" data-name="path4179" class="da768884-6c8c-4281-883e-64cebe68e6f0" d="M1051.9,573c0,13.7,1.9,11.2-1.2,19.3s-.6,11.2-6.2,25.5-8.1,18.1-9.3,29.9-1.2,23-3.7,34.2-11.8,23-13.1,27.4-1.9,16.2-.6,17.4,10,5,16.2,5.6,15.6-1.2,19.3-5.6,5.6-11.8,5.6-15.6-.6-5.6,0-12.5-2.5-5,0-13.1,7.5-17.4,10-23.7,1.2-3.7,5.6-16.8,3.7-23.7,6.8-27.4,5.6-5.6,10.6-18.7,8.7-17.4,5-17.4a66.25,66.25,0,0,1-19.3-2.5c-8.9-2.3-25.7-6-25.7-6Z"/><path id="3a2b4bcb-0eaa-4a14-9395-a97b7e669af8" data-name="path4181" class="da768884-6c8c-4281-883e-64cebe68e6f0" d="M1113.5,583c0,8.7,1.2,12.5,2.5,19.9s-2.5,3.7-4.4,12.5-3.7,16.8-2.5,23-1.9,10.6.6,18.7,1.2,9.3,3.7,17.4,6.8,14.3,5.6,19.9,0,.6-1.2,12.5l-1.2,11.8h0c0,3.7-5.6,2.5,0,3.7s16.8,1.9,25.5,2.5a178.26,178.26,0,0,0,28-1.2c3.1-.6,9.3-3.1,9.3-7.5s3.1-6.2,0-7.5-6.2-1.9-11.2-1.9-9.3-2.5-14.3-4.4-10-5-10.6-9.3,3.7-28.6,3.1-34.2.6-16.2.6-29.3v-13.1c0-5.6,3.7-11.2,5-17.4s7.5-20.5,3.7-19.3,21.2-1.9-3.7,1.2-11.7,3.2-38.5,2Z"/><path id="a7f3e505-a8b6-4a4e-be27-aeb45aaec1b1" data-name="path4183" class="da768884-6c8c-4281-883e-64cebe68e6f0" d="M1319.6,572.37c3.1,17.4,7.5,23,9.3,34.9s4.4,10.6,4.4,18.7v41.1c0,14.3,3.7,30.5,1.9,36.7s-5,8.1-8.1,9.3-10.6,6.2-15.6,6.2-10,0-12.5,5-1.9,11.2,2.5,12.5,33.6-.6,37.4,0,26.8.6,26.8-2.5,1.9-12.5,0-16.2a35.85,35.85,0,0,1-3.7-16.2c0-6.9,8.1-48.6,8.1-54.8s-5.6-26.1-5.6-31.7,11.2-34.9,5.6-34.2-19.3-1.2-30.5-3.1a97.11,97.11,0,0,1-20-5.7Z"/><path id="bafd562b-f871-43d8-afe8-cc957322ce97" data-name="path4185" class="da768884-6c8c-4281-883e-64cebe68e6f0" d="M1380,583c5.6,21.2,5,27.4,10,33s11.2,10.6,11.2,13.7-3.1,3.7,0,13.7,6.2,16.8,10,25.5,8.7,16.8,8.7,24.9.6,11.2.6,16.2,1.2,8.7,1.2,14.9.6,11.8,3.1,17.4,23,3.1,27.4,3.1,9.3-1.2,9.3-5.6,1.2-8.7,0-13.1-2.5-17.4-6.8-22.4-4.4-2.5-6.2-11.2,1.2-15.6-1.9-30.5-5-22.4-11.2-41.7-8.1-21.8-8.1-29.9,5.6-19.9,0-16.2-5,5-24.9,6.8S1380,583,1380,583Z"/><path id="4c400fb2-5a70-46c2-9699-297d0ad914f5" data-name="path4187" class="cae021cf-0212-41e8-8974-f2dc1fa2abe5" d="M1365,712.37c3.7,5,5.6,17.4,5,23.7s1.2,9.3-.6,10.6-10.6-.6-15.6-.6-6.8-2.5-11.8-1.2-10.6,2.5-15.6,3.7-18.1-1.2-23-1.2-13.1-3.1-14.9-8.7,0-8.7,3.1-13.7a21.26,21.26,0,0,1,13.1-9.3c5-1.2,13.1-.6,15.6-3.1s6.8-6.8,8.7-2.5.6,8.1,4.4,11.2,10,3.7,14.9,3.1,6.8,1.2,10.6-2.5a40.74,40.74,0,0,0,6.1-9.5Z"/><path id="e71caae1-152b-4a28-9870-2700a8f69b2c" data-name="path4189" class="cae021cf-0212-41e8-8974-f2dc1fa2abe5" d="M1418.6,706.17a249.6,249.6,0,0,0-1.2,28.6c0,10.6,1.9,14.3,3.7,17.4s8.1,5.6,16.2,5.6,14.3,0,19.9-1.9,14.9-6.8,14.9-11.2,1.2-7.5,0-13.1-6.2-9.3-10-17.4-6.2-14.3-7.5-12.5-1.9,7.5-4.4,6.2-11.2-1.9-14.3-1.2-12.5,13.1-14.3,8.1c-1.8-4.8-3-8.6-3-8.6Z"/><path id="ca8d85c6-5509-4c51-8125-79c4322508fb" data-name="path4191" class="cae021cf-0212-41e8-8974-f2dc1fa2abe5" d="M1113.5,702.47c-4.4,13.1-4.4,14.9-4.4,21.2s-3.1,10.6.6,11.2,5.6,4.4,11.8,1.9,16.2-3.1,19.3-1.9,14.9,3.1,19.3,3.1,8.1,0,18.7-1.9,13.7-6.8,13.7-11.8-1.2-8.7-6.2-13.1-10.6-5-18.1-7.5-16.8-8.1-17.4-5.6,1.9,5-.6,8.1-3.1,6.2-6.8,6.8-11.2-1.9-14.3-1.9-10.6-3.7-10.6-3.7Z"/><path id="19863f1a-8720-4873-ab3a-486e3aa04212" data-name="path4193" class="cae021cf-0212-41e8-8974-f2dc1fa2abe5" d="M1058.7,694.37c2.5,3.7,3.7,3.7,3.7,11.2v21.2c0,4.4,1.2,12.5-1.9,14.9s-12.5,4.4-15.6,5.6-9.3-1.9-13.7-1.2-12.5-1.2-15.6-3.7a24.18,24.18,0,0,1-7.5-11.2c-1.2-4.4-1.9-4.4,1.2-11.8a99.11,99.11,0,0,1,10-18.7c3.7-5.6,7.5-13.7,7.5-12.5s-3.7,10,1.2,7.5,6.2-1.9,10-2.5,11.2,3.1,14.9,6.2,6.8,6.2,6.8,7.5-1-12.5-1-12.5Z"/><path id="73248749-9bf4-408e-aedc-485cd42fff35" data-name="path4195" class="3afaf80c-beae-4315-b9ee-910e83251ab6" d="M1055,446c-6.2,17.4-10,25.5-10.6,34.9s-.6,14.3-3.1,28-1.2,19.9-2.5,26.8-3.7,21.2-3.7,24.3.6,5,6.8,8.7,20.5,7.5,26.1,8.7,18.1,3.7,24.3,3.1,10.6,8.1,12.5,1.2,11.2-26.8,12.5-31.1,1.9-24.3,1.9-16.2-1.9,18.1-4.4,28-2.5,11.8-2.5,15.6,3.1,5,5.6,3.7,7.5.6,11.2,0,11.8-.6,14.9-.6,14.9,0,20.5-3.1,11.8-3.7,11.8-6.8-.6-31.7-.6-37.4-3.1-32.4-3.1-39.2-1.9-17.4-4.4-28.6-2.5-19.9-5-18.1a43.47,43.47,0,0,1-12.5,6.8c-5.6,1.9-4.4,1.2-12.5,1.9s-14.3,3.1-21.8,3.7-13.1-.6-19.3,0-14.9-1.2-20.5-3.1-13.1-6.8-16.2-7.5c-2.9-.6-5.4-3.7-5.4-3.7Z"/><path id="02b1dbb5-84fd-490a-932d-48355103908d" data-name="path4197" class="5bcbece6-e52e-4eca-8b5c-6acaf852ede3" d="M1078.7,446c0,14.9-4.4,14.9,0,14.9s8.1,3.7,6.8,0,1.2-13.7-1.2-13.7A19.8,19.8,0,0,1,1078.7,446Z"/><path id="d4363a0b-20a0-4cb5-b4e8-a039cb31fc1d" data-name="path4201" class="5bcbece6-e52e-4eca-8b5c-6acaf852ede3" d="M1152.1,442.87c0,13.1-1.2,11.8,1.2,12.5s6.2,1.9,6.2-1.9v-13.1Z"/><rect id="53448c65-be34-4fc4-9291-2cda2279066b" data-name="rect4203" class="7f2f3c36-072b-4af9-9535-4c22df24844b" x="1114.8" y="450.37" width="22.4" height="13.1"/><path id="91383b87-9216-4ae8-b945-8791d815576d" data-name="path3347" class="3afaf80c-beae-4315-b9ee-910e83251ab6" d="M1317.1,407.07c-12.3,31.7-8.8,23.8-16.7,56.3s-9.7,49.3-14.1,71.3-7.9,22-2.6,22,29.9,16.7,43.1,20.2,31.7,8.8,47.5,7,22,.9,44-6.2,22.9-6.2,33.5-15.8,9.7-13.2,7-20.2-6.2-22-11.4-42.3-9.7-38.7-14.1-42.3-9.7-1.8-21.1-11.4-17.6-20.2-22-19.4-2.6-1.8-15.8-1.8-17.6,2.6-30.8-3.5-26.5-13.9-26.5-13.9Z"/><path id="b363798a-c02b-479e-bbb3-9193e5dcfa64" data-name="path3349" class="afc73a02-6d37-41a1-bd4e-efb2a2ddf07d" d="M1030.1,426.47c-.9,15.8,1.8,25.5,2.6,30.8s10.6,18.5,13.2,11.4,8.8-18.5,8.8-22.9v-9.7s-7.9,9.7-6.2-.9-.9-8.8,1.8-10.6,10.6-2.6,16.7-8.8,8.8-3.5,15-13.2,16.7-24.7,15-24.7-7-3.5-9.7,2.6-3.5,7-9.7,15-11.4,16.7-15.8,18.5-6.2.9-12.3,5.3-19.4,7.2-19.4,7.2Z"/><path id="94b35cb5-5de4-4f53-b5c0-9b105e20837c" data-name="path3351" class="afc73a02-6d37-41a1-bd4e-efb2a2ddf07d" d="M1076.8,344.57c14.1-7,18.5-5.3,18.5-9.7s5.3-1.8-.9-9.7-7-8.8-11.4-16.7-9.7-28.2-15-25.5-4.4,5.3-12.3,6.2-12.3-1.8-15.8,7.9-4.4,26.4.9,22,11.4-7.9,11.4-13.2-7-8.8,0-5.3,7.9,7,13.2,15,11.4,29,11.4,29Z"/><path id="c5f60c5f-6e79-491b-b874-57e1eb3237f0" data-name="path3353" class="a56d27d1-abd5-4ebc-8c98-4e41c881b998" d="M1077.6,346.27"/><path id="aa673e43-2f73-4529-b947-f5994867ce48" data-name="path3355" class="afc73a02-6d37-41a1-bd4e-efb2a2ddf07d" d="M1134,278.57c0,11.4,1.8,8.8,1.8,16.7s5.3,8.8,2.6,16.7-1.8,11.4.9,14.1,16.7,2.6,16.7-1.8-.9-20.2-3.5-28.2-6.2-5.3-7-9.7l-.9-4.4Z"/><path id="0c37a606-37ca-41ca-9587-9ffc2f24cab4" data-name="path3357" class="afc73a02-6d37-41a1-bd4e-efb2a2ddf07d" d="M1152.5,368.37c4.4,3.5,8.8,30.8,8.8,22.9v-25.5Z"/><path id="0a3937d5-1cc6-449f-ac6d-06411e58240e" data-name="path3359" class="da768884-6c8c-4281-883e-64cebe68e6f0" d="M1365.5,281.17c-6.2,22-7,23.8-3.5,28.2s6.2,7,10.6,8.8,4.4.9,13.2,0,16.7-7,15-13.2-4.4-17.6-4.4-17.6,4.4-2.6,0-2.6-7.1,3.4-30.9-3.6Z"/><path id="2297890e-fa90-46ab-a27e-c75b134af5e9" data-name="path3363" class="70086b58-95ca-4a52-9e76-7c2991dddae3" d="M1082.9,272.37c-7,11.4-11.4,9.7-7,19.4s5.3,17.6,11.4,26.4,15,15,15.8,7.9,7-19.4,7-19.4,3.5-5.3,9.7-1.8,15,24.7,15.8,19.4,4.4-10.6,3.5-15.8-5.3-16.7-5.3-21.1,4.4-2.6,0-6.2-11.4-10.6-11.4-8.8v16.7s-4.4,5.3-7,8.8-2.6,4.4-7.9,3.5-10.6-7.9-14.1-10.6-10.5-18.4-10.5-18.4Z"/><path id="0cf88bfc-943c-4e5f-8469-fdcf1e5aef33" data-name="path3365" class="e02d9222-4ebc-4081-802e-4fd7766034f3" d="M1361.1,294.37c-5.3,5.3-8.8,4.4-12.3,13.2s1.7,19.4,1.8,22.9c.1,4,10.9,16.3,8.8,4.4-.6-3.5,7.9-7,11.4-10.6s6.2-2.6,6.2.9.9,12.3,4.4,15-1.7,6,4.5,4.2,7-6.8,12.3-13,11.4-23.8,11.4-23.8-9.7-15-9.7-11.4,1.8,8.8,0,13.2-4.4,7.9-9.7,8.8-9.7,2.6-14.1.9-13.2-2.6-13.2-6.2-3.5-5.3-3.5-5.3Z"/><path id="9cb67287-913d-4c2c-9eed-4238971d3a17" data-name="path3367" class="805c2fba-d7f3-4f89-9a78-1a8d10b1f993" d="M1443,326.07c14.1,25.5,25.5,44.9,26.4,47.5s-10.8,10.6-13.9,14.5c-3.5,4.5-13.9,5.7-19.4,6.2-5.2.4-6-.5-11.7-3.1-5.5-2.5-7.7-.6-8.8-3.5-2.2-5.8-2.6-30.8-2.6-26.4s4.4,29.9,0,28.2-4.4,1.8-4.4-1.8-1.8,3.5,0-12.3-.9-23.8,6.2-36.1,7.9-17.6,12.3-18.5,15.9,5.3,15.9,5.3Z"/><path id="e5192c16-c7ac-4954-b71f-217084e2c452" data-name="path3369" class="805c2fba-d7f3-4f89-9a78-1a8d10b1f993" d="M1332.1,307.57c-12.3,10.6-15.8,17.6-23.8,25.5s-15.8,9.7-13.2,11.4,2.6,11.4,7,17.6,9.7,19.4,11.4,9.7,0-21.1,3.5-33.5,8.8-12.3,11.4-22,5.3-12.3,5.3-12.3"/><path id="c6aadb0e-297a-45a8-8cba-dbc275598158" data-name="path3371" class="e02d9222-4ebc-4081-802e-4fd7766034f3" d="M1346.2,312.87c-4.4,19.4-7,28.2-4.4,36.1s11.4,11.4,15.8,11.4,17.6,7.9,17.6,2.6,8.8,1.8,9.7-2.6,7.9-15,7.9-18.5.9-5.3-2.6-1.8-3.5,7-7,2.6-5.3-27.3-7.9-23.8-9.7,6.2-13.2,11.4-2.6,14.1-6.2,8.8c-3.6-5.1-9.7-26.2-9.7-26.2Z"/><path id="f701f4af-c5b5-4653-b806-d8b20e107935" data-name="path3373" class="70086b58-95ca-4a52-9e76-7c2991dddae3" d="M1053,303.17c-16.7,21.1-31.7,36.1-30.8,37.9s8.8,10.6,16.7,15.8,15.8,15,21.1,12.3.9.9,7.9-11.4,6.2-.9,5.3-14.1-1.8-13.2-5.3-20.2-14.9-20.3-14.9-20.3Z"/><path id="1071fa5b-48ec-4b32-8b87-2f0542057efc" data-name="path3375" class="70086b58-95ca-4a52-9e76-7c2991dddae3" d="M1153.4,297s15,9.7,20.2,21.1,18.5,20.2,12.3,22.9-13.2,19.4-17.6,13.2-5.3-1.8-5.3-7.9,1.8-1.8,1.8-7.9,4.4-4.4-2.6-10.6-8.8,6.2-7.9-12.3-.9-18.5-.9-18.5Z"/><path id="f1c30c8b-4ebd-4061-aa33-fb0782baee68" data-name="path3377" class="1568a7dc-3e48-4f0b-8dc0-7de2ea1b8600" d="M1401.6,294.37c33.5,11.4,40.5,12.3,42.3,20.2s9.7,24.7,2.6,18.5-14.1-16.1-20.2-11.7-7.9,9.9-12.3,16.9a99.36,99.36,0,0,0-10.6,23.8c-2.7,8.8-2.6,17.6-6.2,17.6s-10.6-3.5-10.6-7.9-6.2-9.7-2.6-13.2,6.2-9.7,7-15,6.2-9.7,10.6-18.5,7.9-12.9,7.9-15.4c.2-6.5-1.2-.2-7.9-15.3Z"/><path id="6c759c5d-793c-4e88-b134-1f6a59bb55f7" data-name="path3379" class="1568a7dc-3e48-4f0b-8dc0-7de2ea1b8600" d="M1383.1,410.57c3.5,14.1,8.2,8.2,17.6,22.9,12.3,19.1,25.5,21.4,29.9,19.4,5.6-2.6,2.6,15,8.8,22s7,11.4,11.4,6.2,4.4-9.7,4.4-20.2,3.5-17.6-.9-17.6-13.2,0-17.6-1.8-13.2-5.3-19.4-10.6-14.1-17.6-20.2-17.6S1383.1,410.57,1383.1,410.57Z"/><path id="20f08ecf-392d-4890-9891-ac847f04e2b4" data-name="path3381" class="1568a7dc-3e48-4f0b-8dc0-7de2ea1b8600" d="M1342.6,291.77c-1.8,6.2-7,11.4-9.7,16.7s-4.4,9.7-7.9,16.7-7,13.2-7,19.4-6.2,14.1-6.2,22,2.6,14.1,2.6,20.2,4.4,14.1,5.3,7,4.4-27.3,6.2-37,4.4-15.8,8.8-23.8,7-17.6,14.1-28.2,15-12.3,13.2-12.3-19.4-.7-19.4-.7Z"/><path id="cd8acff7-6002-44df-9ba1-3ac9fa70aad3" data-name="path3383" class="3afaf80c-beae-4315-b9ee-910e83251ab6" d="M1318,394.77c-2.6,13.2-5.3,7.9,3.5,15s20.2,14.1,26.4,14.1,16.7,1.8,24.7,2.6,23.8,3.5,20.2.9-5.3-15.8-10.6-15.8-8.8,2.6-11.4-3.5-6.2-9.7-2.6-22.9,14.1-22,6.2-22.9-19.4-2.6-25.5-7-6.2-5.3-6.2-13.2,6.2-34.3,2.6-30.8-10.6,18.5-10.6,23.8-2.6,0-6.2,16.7-10.5,43-10.5,43Z"/><path id="6ee58a7f-80b3-44c0-93fb-ee19655abe61" data-name="path3403" class="da768884-6c8c-4281-883e-64cebe68e6f0" d="M1225.3,303.37c14.1,18.5,16.1,31.5,18.7,32.4s5.3-2.6,6.2,1.8,6.2,28.2,10.6,41.4,10.6,24.7,16.7,27.3,22,3.5,26.4.9,11.4-7,11.4-13.2-.9-15.8-4.4-19.4-14.1-20.2-14.1-20.2-1.8,9.7-4.4,5.3-23.8-32.6-21.1-35.2,2.6-4.4,2.6-9.7v-9c0-3.5,6.2-16.7,2.6-17.6s0-2.6-3.5-.9-4.4,4.4-8.8,12.3-4.9,21.3-4.4,13.2c.4-7.9,5.3-8.8,5.3-13.2-.1-6.9-2.6-2.6-7-10.6s-4.1-11.1-7-13.2-4.3,2.4-4.4,2.6l2.6,14.1s3.5,6.2.9,1.8-5.3-10.6-9.7-13.2c-4.8-2.9-.2-2.4-4.4-3.5-5.5-1.5-3.9,3.7,3.5,14.1,3.7,5.1,11.4,15,8.8,11.4s-8.8-11.9-13.2-15c-11.1-7.9-6.3-.2-.9,7.9,5.3,7.9,11.4,19.4,6.2,14.1s-12-9.4-13.2-9.7c-3.1-.5-2,3-2,3Z"/><path id="3d23ec03-c4bb-4f06-a396-05605ea34d24" data-name="path3407" class="da768884-6c8c-4281-883e-64cebe68e6f0" d="M1373.7,410.47c-4.4-7.5-10-13.7-6.8-13.1s12.5,11.8,8.1,6.8-9.3-5.6-9.3-8.7,0-10,3.1-5.6,7.5,11.2,6.8,8.7-9.3-7.5-9.3-11.8,1.2-10.6,3.1-7.5-2.5-1.2,1.9,3.1,6.2,7.5,4.4,5-5.6-13.1-5.6-13.1,5,1.2,5-5.6-2.5-6.8,0-6.8,7.5-3.1,8.1,1.2,1.2,8.1,4.4,11.8,11.8,5,11.8,5,2.5-13.7,3.7-10-.6,11.8,2.5,16.8,7.5,0,14.3,2.5,14.3,8.7,23,5a130.27,130.27,0,0,0,18.1-10s-.6-3.7,1.2,1.9,4.4,8.7,4.4,16.8V421c0,6.2-1.2,10-1.9,14.3s-.6,2.5-5.6,5.6-6.8,0-11.2,0-6.2,2.5-13.1-1.2-12.5-3.7-16.2-8.1-6.2-3.1-10.6-9.3-9.3-9.3-11.8-9.3-1.3-1.9-22.5-2.5Z"/><path id="9b95a588-8583-4b81-98fc-67fa30851542" data-name="path3409" class="da768884-6c8c-4281-883e-64cebe68e6f0" d="M1140.9,326.47c-6.2,10-5,14.9-2.5,14.9s15.6-5.6,11.8-3.7-13.1,1.9-13.1,5-1.2,10,1.9,10,14.9-8.1,13.1-5.6-14.3,3.1-14.3,6.8,0,6.2,3.1,5.6,9.3-1.2,12.5-1.9,10.6-3.1,3.1-.6-15.6,1.2-15.6,4.4,1.2,5.6,5.6,5.6-1.9,1.9,4.4,0,12.5-8.1,12.5-3.7,1.2,6.2,0,14.9-1.9,16.2,0,23,2.5,5,11.2,8.7,7.5.6,13.1.6,6.8,2.5,10-4.4,3.7-16.2,3.1-20.5-1.9-14.3-4.4-19.9-11.8-26.1-13.1-21.8-7.5,8.1-7.5,8.1-4.4.6-3.7.6,6.8,10.6,8.7,13.1,17.4,24.9,14.3,21.8-14.9-22.4-18.1-27.4-.6-5-3.1-5-5.6-4.3-8.7-5.6-1.9,0-.9-6.8,1.9-4.8,1.6-7.5c-.3-2.5-1.2-8.7-4.4-8.7h-20.6Z"/><path id="6ab76cf6-d1ef-496f-b29b-cf6c5da0f157" data-name="path3411" class="da768884-6c8c-4281-883e-64cebe68e6f0" d="M1094.2,375c6.2,3.1,9.3,7.5,9.3,4.4s4.4-3.1,2.5-6.8-9.3-9.3-5.6-7.5,7.5,11.2,7.5,8.1,3.1-9.3.6-10-10-10.6-7.5-7.5,6.8,8.7,6.8,6.2v-6.8s-12.5-10-8.1-7.5,10,9.3,10,6.2,2.5-2.5,0-6.2-12.5-13.1-14.9-10.6-11.2,6.2-14.3,6.2-3.7-1.2-5,3.7-5.6,5.6-5.6,10c-5.6,12.5-8.1,10.6-15.6,14.9s-16.8,13.7-16.8,11.2,16.8-12.5,16.8-12.5,1.2,1.2-1.2-1.9-11.8-10.6-16.8-14.3-6.2-8.7-8.1-6.2-5.6,12.5-8.1,21.8-6.2,17.4-6.2,25.5.6,21.8.6,24.9,3.7,5.6,9.3,5.6,13.1-.6,18.1-3.1,10.6-4.4,15.6-7.5,8.1-3.7,13.1-10.6,7.5-13.1,12.5-19.3,6.2-10,8.7-10.6,2.4.2,2.4.2Z"/><path id="7719a341-9f72-445d-8814-7f72c2189db1" data-name="path3361" class="da768884-6c8c-4281-883e-64cebe68e6f0" d="M1086.4,267.07c0,9.7.9,16.7,5.3,21.1s7,13.2,14.1,13.2,6.2.9,11.4-4.4,5.3-6.2,5.3-12.3,3.5-15.8,0-15.8-1.8-.9-12.3,0S1086.4,267.07,1086.4,267.07Z"/><path id="eb75e936-7ae1-4ecf-8d50-93606daa32fd" data-name="path3413" class="da768884-6c8c-4281-883e-64cebe68e6f0" d="M1035.7,198.17c3.7-62.3,14.9-68.5,51-82.2s59.8-5,74.7-5,36.1,19.9,32.4,21.2-8.7-5-8.7,0,1.2,19.9,1.2,19.9-10,6.2,0,1.2,16.2-8.7,16.2-3.7a65.94,65.94,0,0,1-5,23.7c-3.7,8.7-14,7.8-12.8,15.3s5.3,10.9,2.8,24.6-19.9,32.4-28.6,42.3-16.2,14.9-24.9,14.9-28.6,3.7-37.4-1.2-29.9-3.7-38.6-14.9-17.4-36.1-21.2-29.9-14.9,6.2-14.9,6.2-8.7-5-11.2-14.9-5-14.9,1.2-18.7C1018.3,193.27,1035.7,198.17,1035.7,198.17Z"/><path id="2ea14784-b3a2-4a4b-8ff5-195af5bfe482" data-name="path3415" class="99d80e65-7589-4712-a2c5-4e636d7aa2a5" d="M1302.1,149.67c-3.7,21.2-6.2,12.5-11.2,21.2s-6.2,28.6-2.5,32.4,11.2-1.2,11.2,7.5-6.2,11.2,0,24.9,7.5,21.2,17.4,31.1,23.7,21.2,31.1,21.2,21.2-5,29.9-5,21.2,1.2,29.9-2.5,16.2-5,24.9-13.7,8.7-27.4,14.9-22.4,13.7,8.7,19.9,2.5,11.2-14.9,7.5-26.1-8.7-12.5-13.7-12.5-17.4,17.4-17.4,8.7v-17.4c0-17.4,13.7-12.5-11.2-37.4s-41.1-24.9-57.3-27.4-42.3-7.5-53.5-2.5-21.2,22.4-21.2,22.4"/><path id="43118610-57b7-4789-8b4c-524494186bb7" data-name="path3417" class="4da79f18-e4d0-4a40-93a6-f930df30ec8b" d="M1023.9,194.47c-10.6-21.2-16.2-29.9-18.1-44.2s-1.2-12.5,3.7-31.1,14.9-31.7,23.7-39.2,23.7-14.3,28-14.3,14.3,5,10,.6-18.7-6.2-16.2-8.1,18.1,7.5,19.3,3.7,5.6-19.9,5.6-12.5-4.4,19.3,1.2,14.3,11.8-6.8,18.7-8.7,18.1-1.9,26.1-2.5,21.8,1.9,26.8,4.4,12.5,9.3,16.8,13.1,17.4,18.1,18.7,25.5,4.4,17.4,5,28-4.4,23-4.4,15.6,2.5-10.6-3.7-11.2-26.8-13.7-23.7-10.6,19.9,10.6,11.8,10.6-17.4-.6-23-1.2-10.6-8.1-14.9-8.1-10-3.1-4.4,0,3.7,8.7,8.7,12.5,10,1.9,5,3.7-6.2-1.9-13.1-5.6-10.6-8.7-13.7-8.7-6.2-5-3.1,0,7.5,13.7,10,16.2l2.5,2.5h0c-7.5,0-11.8-2.5-16.2-9.3s-5.6-17.4-10-13.1a137.49,137.49,0,0,0-14.9,16.8c-5,6.8-2.5,10.6-5,6.8s.6-10.6-2.5-8.1-11.8,4.4-14.9,10-3.1,9.3-3.1,5.6,1.2-6.8,0-3.7-6.2,18.7-7.5,13.1,3.7-13.1-1.2-4.4-8.7,30.5-10,27.4-3.7-24.9-4.4-19.9-2.5,23-2.5,31.1,2.5,8.7,0,8.1-11.1-5.1-11.1-5.1Z"/><path id="b0e3031f-6ff6-4a81-be6c-b355fca56bfb" data-name="path4219" class="a56d27d1-abd5-4ebc-8c98-4e41c881b998" d="M1069.3,172.07c6.2-15.6,16.2-11.8,16.2-11.8"/><path id="0152e3ef-42db-4507-9870-a4d669694259" data-name="path4221" class="a56d27d1-abd5-4ebc-8c98-4e41c881b998" d="M1164.6,143.47c11.8,1.9,13.1,7.5,13.1,7.5"/><path id="17ec23ab-fbcf-4e0a-a454-9f7ef4fac10e" data-name="path4223" class="70086b58-95ca-4a52-9e76-7c2991dddae3" d="M1073.1,198.87c21.2-29.9,36.7-10,36.7-6.8s-1.2,6.2-2.5,9.3-7.5,7.5-12.5,7.5-8.1-.6-10.6-2.5-11.1-7.5-11.1-7.5Z"/><path id="f28617b7-127b-40b9-9035-dad48c281c41" data-name="path4225" class="c559f67b-936d-42b8-a80e-8af1db5f2e90" d="M1150.2,183.27c10-36.7,28-13.1,28-10s-1.2,8.1-4.4,10.6-1.9,5.6-6.8,5.6S1150.2,183.27,1150.2,183.27Z"/><path id="1a518e99-fa3b-45c6-a3d0-efa022ca69af" data-name="path4227" class="75b84468-f30f-46a0-a06a-0c2bb85aee87" d="M1306.5,184.47c27.4-18.7,33.6,15.6,30.5,17.4s-5,6.2-9.3,7.5-16.2-1.9-17.4-5.6-5-10-5-12.5a34.06,34.06,0,0,1,1.2-6.8Z"/><path id="49a0efe2-d2c9-4a59-888b-d635413951f8" data-name="path4229" class="70086b58-95ca-4a52-9e76-7c2991dddae3" d="M1374.4,213.17c18.7-31.1,34.2-4.4,36.7-1.2s3.7-.6,2.5,3.1-7.5,11.8-10.6,12.5-8.7,3.1-13.1,1.2-6.8-.6-11.2-6.8-4.3-8.8-4.3-8.8Z"/><path id="ecbbe5d9-01ef-46c6-999a-003ae3632352" data-name="path4231" class="a56d27d1-abd5-4ebc-8c98-4e41c881b998" d="M1348.8,201.27c0,21.3-7,17.5-6.8,17.4"/><path id="0570aa11-30e8-415d-be32-3a794a04c220" data-name="path4233" class="a56d27d1-abd5-4ebc-8c98-4e41c881b998" d="M1338.9,221.87c-4.4,8.7-3.1,10.6-.6,11.8s1.2,6.8,5,5,9.3,1.9,11.2-1.2a5.91,5.91,0,0,0,.6-5.6"/><path id="a4e47b56-721e-4614-9306-7e22864212a7" data-name="path4235" class="a56d27d1-abd5-4ebc-8c98-4e41c881b998" d="M1128.1,207.87c-1.9,4.4-2.8,6.8-1.6,7.8s3.4,2.2,5,.6,2.2-2.8,4.7-3.1,5.3,2.5,6.5.9.9-3.4,2.5-3.4.9,1.9,1.6,0,2.2-3.1,0-5-1.9-1.2-1.9-1.2"/><path id="b865bf85-60c6-4811-b8ba-63c6ac4c815c" data-name="path4237" class="a56d27d1-abd5-4ebc-8c98-4e41c881b998" d="M1112.9,231.17c-2.2,9.3-1.2,10.6-1.2,10.6"/><path id="859db319-2016-4473-966a-34647ddaaae7" data-name="path4239" class="a56d27d1-abd5-4ebc-8c98-4e41c881b998" d="M1159.3,217.77l3.1,5"/><path id="00316773-971e-4806-b76b-eebb99d273da" data-name="path4241" class="a56d27d1-abd5-4ebc-8c98-4e41c881b998" d="M1113.2,235.27c7.2,7.5,10.3,12.8,14.3,13.7s8.1.9,11.2,1.2a12.42,12.42,0,0,0,7.5-1.9,17.76,17.76,0,0,0,5.9-4.7c1.9-2.5,6.2-8.7,6.2-10.6s1.2-7.2,1.2-8.4,3.4-7.5.9-4.4a50.84,50.84,0,0,1-8.4,7.8c-2.8,2.2-5.6,5-7.2,5.3s-2.8,1.9-6.8,2.2-5.3,1.6-8.7,1.6-7.5-.9-8.7-.9-7.4-.9-7.4-.9Z"/><path id="545841f3-c318-4b2e-a082-ae64940dabe0" data-name="path4243" class="d8a940b7-8630-4782-a692-4e891119f346" d="M1121.5,236.47c2.9,5.8,2.1,6.2,3.3,6.5a21.74,21.74,0,0,0,8.7-.3c4.1-.9,8.3-.6,10-1.5s2.1,0,5-2.2,3.3-3.4,4.6-4.9,3.3-2.5,2.5-4,3-4.6.1-4.3-6.7,5.6-9.6,6.8a48.6,48.6,0,0,1-11.2,3.1c-4.3.5-13.4.8-13.4.8Z"/><path id="c481960c-fc3a-49be-bdbc-68cae51b4a16" data-name="path4245" class="a56d27d1-abd5-4ebc-8c98-4e41c881b998" d="M1021.7,210.67c.9-4.4,1.2-5.6,2.2-6.2s3.7.6,5,.9,2.5,1.6,4,4.4l1.6,2.8"/><path id="2ba14c5a-443d-4133-8e2d-ccaad4376682" data-name="path4247" class="a56d27d1-abd5-4ebc-8c98-4e41c881b998" d="M1183.9,165.57c4.4-4,7.8-6.5,8.4-4.7a21,21,0,0,1,.6,5"/><path id="e3cb0af9-fa0f-4838-a1f2-a3efd41616ab" data-name="path4249" class="a56d27d1-abd5-4ebc-8c98-4e41c881b998" d="M1325.2,234.27c-3.7,5.6-4,6.5-4,6.5"/><path id="af952351-710d-4017-b891-e3e1106cdc1b" data-name="path4251" class="a56d27d1-abd5-4ebc-8c98-4e41c881b998" d="M1375,246.47c2.2,8.4,2.2,7.5,2.2,7.5"/><path id="4f4077ea-a77d-42ad-9460-76c01b5a01f9" data-name="path4253" class="adaa5bb8-30ae-4475-bd73-7dc3de71df47" d="M1323.9,237.07c21.2,29.9,52.9,11.5,52,13.7s-5.3,2.5-10.9,8.4-7.2,8.4-10.6,9-11.5.3-14-.6a13.66,13.66,0,0,1-7.5-7.2c-1.6-3.7-2.8-10.9-4-13.7S1323.9,237.07,1323.9,237.07Z"/><path id="ba06d349-fac7-45ed-befd-d9da64a9b7bc" data-name="path4255" class="4417c348-a2db-436a-a6ad-3a52428f2e90" d="M1333.6,248c0,5.3-1.9,4.4.9,5.9s3.1,3.7,6.2,4,5.9,1.9,8.4,1.6,6.5-1.6,7.8-1.6,3.4,1.6,3.4-.9,2.2-3.1,0-2.5-5.6-.3-8.7-.6a27.23,27.23,0,0,1-8.7-1.9c-3.1-1.2-9.3-4-9.3-4Z"/><path id="f08e0b65-9f53-429b-873e-f9a75cb08c88" data-name="path4257" class="a56d27d1-abd5-4ebc-8c98-4e41c881b998" d="M1295.3,187.27c0-4.4,2.8-5,3.7-4.4s4,3.1,4.4,5.6-.9,11.2-.9,11.2"/><path id="b9b73b8b-f610-4b1a-b3f4-7f98aa36809d" data-name="path4259" class="a56d27d1-abd5-4ebc-8c98-4e41c881b998" d="M1451.5,230.27c5-6.2,3.4-5.6,5-6.2a5,5,0,0,1,5,.3c1.9,1.2,1.6,5.3,1.6,5.3"/><path id="83cc80b8-f0f3-402a-aa69-86f0ec4e90a7" data-name="path4261" class="a56d27d1-abd5-4ebc-8c98-4e41c881b998" d="M1307.7,168.37c21.8-11.2,29.9,5.9,29.9,5.9"/><path id="79b1b2f6-8683-4696-969e-47d50595062b" data-name="path4263" class="a56d27d1-abd5-4ebc-8c98-4e41c881b998" d="M1379,182.37c31.4-10,37.4,16.8,37.4,16.8"/><path id="37829e91-451f-43c1-b5e4-d01dee975953" data-name="path4265" class="16346fdf-364b-4d4d-ba9e-690b5e326cb5" d="M1302.1,148.27c12.8,5.3,9.2,10.6,12.8,5.3s10.6-22.4,11-16.7-4.8,17.2-3.5,17.2,27.7,10.1,29.9,5.7,8.8-14.1,10.6-11.4,6.2.9,6.2,7-8.4,10.6-.4,9.7,4.4,1.3,10.1,3.5,22.4,9.2,24.2,7-1.3-13.6,1.8-13.6.4,9.2,3.1,11.9,12.8,7,18.9,10.1,6.6,2.2,11.9,5.7,8.4,2.6,8.4,7.9-5.3,26.4-.4,21.1,11-12.3,15-12.3,6.2,7,8.4,3.5,7.9-20.2,7.9-26.9-2.6-20.7-2.6-23.8-5.7-29.9-8.4-37-12.3-18-19.8-26-20.7-9.7-26-12.3-17.2-2.2-20.7-2.2-4,6.2-6.6,3.1a33.87,33.87,0,0,0-11.4-8.8c-4.8-2.2-17.6,0-22.9-.4S1342,80,1338,80s-11,6.6-13.6,10.6-14.1,18.9-16.3,21.1-7.9,14.1-9.2,20.2-3.5,16.3-2.6,21.6.9,18.9,1.8,16.3c.5-2.6,4-21.5,4-21.5Z"/><ellipse id="e67ae6bc-ea45-486b-9f61-cf0008008e29" data-name="path4271" class="c9ef6c54-4fc0-4716-8117-3301f2cb0586" cx="1094.5" cy="197.77" rx="9.6" ry="9.8"/><ellipse id="f3325eb1-e68e-442d-a987-1ea96e4e511a" data-name="path4275" class="ffad39aa-3e9b-49c2-8cc4-e3952ca0c50b" cx="1094.8" cy="197.47" rx="7.2" ry="7.5"/><ellipse id="d94f4883-c66f-4348-b73b-cc09fcc583e5" data-name="path4275-3" class="03080725-252d-483f-8090-48ddeaf01792" cx="1097.8" cy="191.87" rx="1.9" ry="2"/><ellipse id="34a84682-eb5c-4d19-93fa-085891e43e5a" data-name="path4271-7" class="86b07e68-a802-4bd1-927c-ec97ce9cd2c0" cx="1162.1" cy="176.17" rx="7.8" ry="8.3"/><ellipse id="e65d66b8-8c1f-4999-94bf-ae11dc4c9f6b" data-name="path4275-5" class="c3a6ce18-7fa5-43c4-8826-437b564566a1" cx="1162.3" cy="175.97" rx="5.8" ry="6.3"/><ellipse id="600e9db9-edc8-490e-a826-ba0934d8f660" data-name="path4275-3-3" class="03080725-252d-483f-8090-48ddeaf01792" cx="1166.7" cy="175.17" rx="1.5" ry="1.7"/><ellipse id="8dac2a36-5f2e-4839-8123-3070cf3f8a18" data-name="path4271-9" class="59bf720e-9248-44e3-b6f2-e21ddf7b64e4" cx="1394.9" cy="212.37" rx="9.6" ry="9.8"/><ellipse id="91c67782-b884-4f73-b1e4-35a53f7f4704" data-name="path4275-1" class="c3a6ce18-7fa5-43c4-8826-437b564566a1" cx="1395.2" cy="212.07" rx="7.2" ry="7.5"/><ellipse id="0d341548-f568-433d-af79-dbe9fbfce2af" data-name="path4275-3-27" class="03080725-252d-483f-8090-48ddeaf01792" cx="1388.2" cy="212.47" rx="1.9" ry="2"/><ellipse id="3289e8f1-5275-4824-8bae-74f8a67af73d" data-name="path4271-9-9" class="59bf720e-9248-44e3-b6f2-e21ddf7b64e4" cx="1322.5" cy="194.27" rx="9.6" ry="9.8"/><ellipse id="a5964e72-042e-458d-87f1-eab43841ef04" data-name="path4275-1-3" class="c3a6ce18-7fa5-43c4-8826-437b564566a1" cx="1322.8" cy="193.97" rx="7.2" ry="7.5"/><ellipse id="f8028b7b-32e9-47a7-9032-5e6a3f89e394" data-name="path4275-3-27-6" class="03080725-252d-483f-8090-48ddeaf01792" cx="1317.8" cy="190.37" rx="1.9" ry="2"/><path id="1bd066ae-c891-453f-a668-a0c98c0b6a13" data-name="path4390" class="70086b58-95ca-4a52-9e76-7c2991dddae3" d="M1161.3,394.77c-.9,37-.9,30.8-.9,37s8.8,1.8,0,6.2-32.6,12.3-39.6,11.4-37,2.6-39.6-1.8-26.4-12.3-26.4-12.3-7,14.1-7,6.2-2.6-13.2,3.5-16.7,16.7-4.4,23.8-13.2,15-15.8,18.5-24.7-1.8-11.4,3.5-8.8,11.4,2.6,12.3-4.4.9,6.2.9-10.6,2.6-12.3,0-17.6-10.6-9.7-12.3-10.6-1.8,5.3-1.8-.9-2.6-7,0-5.3,7.9,5.3,7.9,1.8-1.8-15.8,4.4-22,3.5-8.8,7.9-6.2,12.3,10.6,15.8,17.6-4.4,3.5,3.5,7l7.9,3.5s-8.8-.9-9.7,1.8,2.6,5.3,2.6,12.3,2.6,7.9,1.8,11.4-4.4-2.6.9,5.3,8.8,1.8,11.4,5.3c2.8,3.6,10.7,28.3,10.7,28.3Z"/><path id="30d47f8e-0134-444d-86d0-74b0a095d945" data-name="path4392" class="8008deb7-3dba-40d0-9ad5-8598a2896b16" d="M1314.9,101.17c-1.8-12.3-1.8-15.4,2.2-19.8s13.6-4.4,17.2-4,4.8-.4,3.5.4-6.2,4.4-9.2,6.2-6.6,8.8-6.6,10.1S1314.9,101.17,1314.9,101.17Z"/><path id="8fbaba8a-ba21-4f18-a361-ff464231d987" data-name="path4394" class="16346fdf-364b-4d4d-ba9e-690b5e326cb5" d="M1330.3,76.07c-1.6-8.2-5.9-14.6-12.8-16.7-4.3-1.3-31.1,5.6-31.7,6.2-3.8,3.8-11.2,14.4-11.9,21.1-1.3,12.7,5.9,40.7,3.5,57.2-2.4,17-8.4,54.4-5.8,44.7s8.9-14.7,11.9-30.2c.7-3.5,11,17.2,11.4,7.5s-2.2-16.3.4-27.3,4.4-15,9.2-23.8,13.2-8.4,11.4-13.2-5.3-11.9-3.5-16.7,3.5-5.7,9.7-7.9c6.4-2.3,8.2-.9,8.2-.9Z"/><path id="e38c955a-cad3-4b10-a56f-e491a083acd9" data-name="path4398" class="9867814b-dea2-4ff6-bcc2-b30bee4d6133" d="M1473.9,119c15.6-8,14.3-11.5,29.3-8s26.2,12.6,29.9,20.1,1.9-1.1,3.7,7.5,1.2,1.7,1.9,8.6-.6,21.8-1.2,28.1-5,21.8-11.2,38.4-8.1,37.3-10,20.1c-1.7-15.9,2.2,4.3-4.5-6.8-2.5-4.1.3-4.7-.7-3.8-1.9,1.7-1.5,3.3-1.5,3.3-4,11.2-9.2,14.5-5.1-1.3,4.7-18,1.6-41.6.6-57.9-.7-12.6-4.4-22.4-18.1-24.1s-13.7,3.4-13.7-1.7c0-5.3.6-22.5.6-22.5Z"/><path id="c96000cc-d851-4e9c-ba29-45b3b89d4685" data-name="path4396" class="1ae5ba30-e9f9-4df7-b234-118db4d17822" d="M1463.7,121.17c5,14.8,4,6.8,5,14.8s-3,8,2,8,5,4.3,5,0-2-15.4-2-19.1,5-3.7,0-3.7Z"/><ellipse id="a508739a-9597-4aeb-86b8-512deadc77c0" data-name="path4400" class="5ed1c8f7-d911-4ef2-8d5d-773fbbc0b2a4" cx="1121.2" cy="332.47" rx="3.5" ry="3.7"/><circle id="b7928b33-8586-4857-b453-ca2ab1deea8d" data-name="path4400-0" class="f9450aaf-99c4-4869-b853-22f2c3f2ecdc" cx="1121.1" cy="332.37" r="1.3"/><ellipse id="58164762-e098-4990-aa81-c6dd865761c7" data-name="path4400-6" class="5ed1c8f7-d911-4ef2-8d5d-773fbbc0b2a4" cx="1121" cy="360.87" rx="3.5" ry="3.7"/><circle id="1d7aff43-d6a4-4969-b5fd-bf1b6b19e187" data-name="path4400-0-2" class="f9450aaf-99c4-4869-b853-22f2c3f2ecdc" cx="1120.9" cy="360.87" r="1.3"/><ellipse id="7accc326-4dfc-4bce-b13a-2d93138ddc81" data-name="path4400-6-6" class="5ed1c8f7-d911-4ef2-8d5d-773fbbc0b2a4" cx="1121.5" cy="389.97" rx="3.5" ry="3.7"/><circle id="071dd9f1-3e08-471b-990f-c272456697c8" data-name="path4400-0-2-1" class="f9450aaf-99c4-4869-b853-22f2c3f2ecdc" cx="1121.3" cy="389.97" r="1.3"/><ellipse id="e6bddde6-b62a-4e79-a3d9-7863ddd8ce09" data-name="path4400-6-8" class="5ed1c8f7-d911-4ef2-8d5d-773fbbc0b2a4" cx="1118.7" cy="422.27" rx="3.5" ry="3.7"/><circle id="f2535e41-4b4a-43f8-b65f-645ca8032b8f" data-name="path4400-0-2-7" class="f9450aaf-99c4-4869-b853-22f2c3f2ecdc" cx="1118.5" cy="422.27" r="1.3"/><path id="f8341054-5d81-4b1f-bd8d-2849e1b42840" data-name="path4476" class="e02d9222-4ebc-4081-802e-4fd7766034f3" d="M1413.7,338.87c-5.5,12.5-5.3,8.4-7.9,17.4s-5.1,11-4,12.1,2-2.6,2,3.7-1.8,9.2.9,12.8,2.6,4.6,3.3,3.5-.2.7-.2-2,.7-12.1.7-15.8-.4-9.2.4-15a41.61,41.61,0,0,1,3.5-12.1,15.73,15.73,0,0,0,1.3-4.6Z"/><rect id="d299244d-2742-4284-9cd3-c58fd3dc7496" data-name="rect5617-6" class="0a2fc9fe-f697-495b-9ec3-13570f3f45fa" x="935.1" y="782.77" width="576.8" height="61.5"/><g class="4f5b147b-13d2-48ea-8359-55beb5d8cbf2"><path class="bbd39847-2645-402e-b5f6-cbb708f19493" d="M978.12,815.9v7h-2.34V805.08h6.56a6.58,6.58,0,0,1,4.57,1.49,5.05,5.05,0,0,1,1.65,3.94,5,5,0,0,1-1.62,4,6.88,6.88,0,0,1-4.63,1.4Zm0-1.92h4.21a4.21,4.21,0,0,0,2.88-.89,3.24,3.24,0,0,0,1-2.56,3.35,3.35,0,0,0-1-2.54,4,4,0,0,0-2.75-1h-4.35Z"/><path class="bbd39847-2645-402e-b5f6-cbb708f19493" d="M1001.59,814.64h-7.7v6.3h8.95v1.92H991.54V805.08h11.17V807h-8.83v5.73h7.7Z"/><path class="bbd39847-2645-402e-b5f6-cbb708f19493" d="M1012.27,815.67h-4.17v7.19h-2.36V805.08h5.88a7,7,0,0,1,4.62,1.37,4.92,4.92,0,0,1,1.62,4,4.79,4.79,0,0,1-.9,2.89,5.36,5.36,0,0,1-2.5,1.84l4.17,7.54v.15h-2.51Zm-4.17-1.92h3.6a4.06,4.06,0,0,0,2.78-.91,3.06,3.06,0,0,0,1-2.42,3.22,3.22,0,0,0-1-2.53,4.17,4.17,0,0,0-2.84-.89h-3.59Z"/><path class="bbd39847-2645-402e-b5f6-cbb708f19493" d="M1026.38,814.93a11,11,0,0,1-4.39-2.13,4.07,4.07,0,0,1-1.37-3.12,4.3,4.3,0,0,1,1.68-3.47,6.67,6.67,0,0,1,4.36-1.37,7.28,7.28,0,0,1,3.26.71,5.36,5.36,0,0,1,2.22,2,5,5,0,0,1,.79,2.72h-2.36a3.25,3.25,0,0,0-1-2.54,4.17,4.17,0,0,0-2.89-.93,4.27,4.27,0,0,0-2.7.76,2.55,2.55,0,0,0-1,2.12,2.3,2.3,0,0,0,.92,1.84,9,9,0,0,0,3.14,1.38,14.53,14.53,0,0,1,3.47,1.38,5.25,5.25,0,0,1,1.86,1.75,4.47,4.47,0,0,1,.6,2.36,4.15,4.15,0,0,1-1.68,3.46,7.18,7.18,0,0,1-4.5,1.3,8.36,8.36,0,0,1-3.42-.7,5.75,5.75,0,0,1-2.45-1.92,4.69,4.69,0,0,1-.86-2.77h2.36a3.06,3.06,0,0,0,1.19,2.54,5,5,0,0,0,3.18.93,4.6,4.6,0,0,0,2.84-.76,2.46,2.46,0,0,0,1-2.06,2.41,2.41,0,0,0-.92-2A10.54,10.54,0,0,0,1026.38,814.93Z"/><path class="bbd39847-2645-402e-b5f6-cbb708f19493" d="M1049.65,814.54a11,11,0,0,1-.88,4.56,6.65,6.65,0,0,1-2.49,3,6.87,6.87,0,0,1-10-2.95,10.53,10.53,0,0,1-.92-4.42v-1.28a10.87,10.87,0,0,1,.89-4.53,6.59,6.59,0,0,1,6.25-4.05,6.9,6.9,0,0,1,3.77,1,6.65,6.65,0,0,1,2.51,3,11,11,0,0,1,.88,4.56Zm-2.33-1.15a8,8,0,0,0-1.27-4.85,4.19,4.19,0,0,0-3.55-1.69,4.14,4.14,0,0,0-3.5,1.69,7.8,7.8,0,0,0-1.31,4.69v1.31a8,8,0,0,0,1.29,4.82,4.51,4.51,0,0,0,7.06.1,7.94,7.94,0,0,0,1.28-4.74Z"/><path class="bbd39847-2645-402e-b5f6-cbb708f19493" d="M1066.83,822.86h-2.36l-8.95-13.7v13.7h-2.36V805.08h2.36l9,13.76V805.08h2.33Z"/><path class="bbd39847-2645-402e-b5f6-cbb708f19493" d="M1081,818.21h-7.45l-1.67,4.65h-2.42l6.79-17.77h2.05l6.8,17.77h-2.4Zm-6.74-1.92h6l-3-8.31Z"/><path class="bbd39847-2645-402e-b5f6-cbb708f19493" d="M1089.87,820.94h8.42v1.92h-10.78V805.08h2.36Z"/><path class="bbd39847-2645-402e-b5f6-cbb708f19493" d="M1103.48,822.86h-2.34V805.08h2.34Z"/><path class="bbd39847-2645-402e-b5f6-cbb708f19493" d="M1109.53,820.94h10.17v1.92h-12.94V821.1l9.74-14.1h-9.58v-1.92h12.39v1.71Z"/><path class="bbd39847-2645-402e-b5f6-cbb708f19493" d="M1132.78,814.64h-7.7v6.3H1134v1.92h-11.29V805.08h11.17V807h-8.83v5.73h7.7Z"/><path class="bbd39847-2645-402e-b5f6-cbb708f19493" d="M1136.94,822.86V805.08h5a8.08,8.08,0,0,1,4.1,1,6.94,6.94,0,0,1,2.75,2.92,9.49,9.49,0,0,1,1,4.35v1.13a9.52,9.52,0,0,1-1,4.41,6.83,6.83,0,0,1-2.77,2.91,8.6,8.6,0,0,1-4.19,1Zm2.34-15.86v13.94h2.47a5.36,5.36,0,0,0,4.22-1.69,7,7,0,0,0,1.51-4.8v-1a7.07,7.07,0,0,0-1.42-4.71,5.06,5.06,0,0,0-4-1.71Z"/><path class="bbd39847-2645-402e-b5f6-cbb708f19493" d="M1161.88,820.94h8.42v1.92h-10.78V805.08h2.36Z"/><path class="bbd39847-2645-402e-b5f6-cbb708f19493" d="M1183,814.64h-7.7v6.3h8.95v1.92H1173V805.08h11.17V807h-8.83v5.73h7.7Z"/><path class="bbd39847-2645-402e-b5f6-cbb708f19493" d="M1197,818.21h-7.45l-1.67,4.65h-2.42l6.79-17.77h2.05l6.8,17.77h-2.41Zm-6.74-1.92h6l-3-8.31Z"/><path class="bbd39847-2645-402e-b5f6-cbb708f19493" d="M1210,815.67h-4.17v7.19h-2.36V805.08h5.88a7,7,0,0,1,4.62,1.37,4.92,4.92,0,0,1,1.62,4,4.79,4.79,0,0,1-.9,2.89,5.37,5.37,0,0,1-2.5,1.84l4.17,7.54v.15h-2.51Zm-4.17-1.92h3.6a4.06,4.06,0,0,0,2.78-.91,3.06,3.06,0,0,0,1-2.42,3.22,3.22,0,0,0-1-2.53,4.17,4.17,0,0,0-2.84-.89h-3.59Z"/><path class="bbd39847-2645-402e-b5f6-cbb708f19493" d="M1232.55,822.86h-2.36l-8.95-13.7v13.7h-2.36V805.08h2.36l9,13.76V805.08h2.33Z"/><path class="bbd39847-2645-402e-b5f6-cbb708f19493" d="M1239.23,822.86h-2.34V805.08h2.34Z"/><path class="bbd39847-2645-402e-b5f6-cbb708f19493" d="M1257.17,822.86h-2.36l-8.95-13.7v13.7h-2.36V805.08h2.36l9,13.76V805.08h2.33Z"/><path class="bbd39847-2645-402e-b5f6-cbb708f19493" d="M1274.46,820.52a5.42,5.42,0,0,1-2.52,1.94,10.19,10.19,0,0,1-3.77.64,7.3,7.3,0,0,1-3.86-1,6.79,6.79,0,0,1-2.61-2.9,10,10,0,0,1-.95-4.36v-1.55a9.35,9.35,0,0,1,1.87-6.23,6.53,6.53,0,0,1,5.27-2.21,6.75,6.75,0,0,1,4.48,1.42,6.2,6.2,0,0,1,2.08,4h-2.34a3.88,3.88,0,0,0-4.2-3.54,4.15,4.15,0,0,0-3.57,1.66,8.08,8.08,0,0,0-1.23,4.79v1.45a7.57,7.57,0,0,0,1.37,4.76,4.43,4.43,0,0,0,3.7,1.77,8.16,8.16,0,0,0,2.31-.29,3.56,3.56,0,0,0,1.64-1v-4H1268V814h6.45Z"/><path class="bbd39847-2645-402e-b5f6-cbb708f19493" d="M1283.72,818.08a4.16,4.16,0,0,1,.71-2.36,10.86,10.86,0,0,1,2.73-2.5,11.77,11.77,0,0,1-1.59-2.32,4.49,4.49,0,0,1,.79-4.92,4.5,4.5,0,0,1,3.25-1.15,4.38,4.38,0,0,1,3,1.07,3.45,3.45,0,0,1,1.2,2.69,3.79,3.79,0,0,1-.54,2,7.07,7.07,0,0,1-1.9,1.91l-1.31,1,4,4.72a7.5,7.5,0,0,0,.83-3.53h2a8.51,8.51,0,0,1-1.5,5.16l2.54,3h-2.71l-1.18-1.4a6.19,6.19,0,0,1-2.12,1.23,7.51,7.51,0,0,1-2.47.42,6.11,6.11,0,0,1-4.17-1.38A4.6,4.6,0,0,1,1283.72,818.08Zm5.75,3.17a4.75,4.75,0,0,0,3.28-1.37l-4.33-5.19-.4.29q-2,1.5-2,3.09a3,3,0,0,0,.93,2.31A3.61,3.61,0,0,0,1289.47,821.26Zm-2-12.17a5.12,5.12,0,0,0,1.44,2.93l1.44-1a3.84,3.84,0,0,0,1.13-1.12,2.55,2.55,0,0,0,.31-1.29,1.75,1.75,0,0,0-.61-1.36,2.23,2.23,0,0,0-1.54-.54,2,2,0,0,0-1.59.68A2.53,2.53,0,0,0,1287.43,809.09Z"/><path class="bbd39847-2645-402e-b5f6-cbb708f19493" d="M1316.09,818.21h-7.45l-1.67,4.65h-2.42l6.79-17.77h2.05l6.8,17.77h-2.41Zm-6.74-1.92h6l-3-8.31Z"/><path class="bbd39847-2645-402e-b5f6-cbb708f19493" d="M1336.25,822.86h-2.36l-8.95-13.7v13.7h-2.36V805.08h2.36l9,13.76V805.08h2.33Z"/><path class="bbd39847-2645-402e-b5f6-cbb708f19493" d="M1350.44,818.21H1343l-1.67,4.65h-2.42l6.79-17.77h2.05l6.8,17.77h-2.41Zm-6.74-1.92h6l-3-8.31Z"/><path class="bbd39847-2645-402e-b5f6-cbb708f19493" d="M1359.29,820.94h8.42v1.92h-10.78V805.08h2.36Z"/><path class="bbd39847-2645-402e-b5f6-cbb708f19493" d="M1372.89,814l4.64-8.92h2.66l-6.13,11.14v6.63h-2.34v-6.63l-6.13-11.14h2.69Z"/><path class="bbd39847-2645-402e-b5f6-cbb708f19493" d="M1395,807h-5.71v15.86h-2.33V807h-5.7v-1.92H1395Z"/><path class="bbd39847-2645-402e-b5f6-cbb708f19493" d="M1400.13,822.86h-2.34V805.08h2.34Z"/><path class="bbd39847-2645-402e-b5f6-cbb708f19493" d="M1417.49,817.22a6.54,6.54,0,0,1-2.08,4.35,6.82,6.82,0,0,1-4.66,1.53,6.27,6.27,0,0,1-5-2.26,9.09,9.09,0,0,1-1.9-6v-1.71a10.11,10.11,0,0,1,.89-4.36,6.61,6.61,0,0,1,2.51-2.89,7,7,0,0,1,3.76-1,6.42,6.42,0,0,1,4.54,1.58,6.62,6.62,0,0,1,2,4.38h-2.36a5.11,5.11,0,0,0-1.32-3.09,4,4,0,0,0-2.85-1,4.19,4.19,0,0,0-3.52,1.66,7.63,7.63,0,0,0-1.28,4.73v1.72a7.84,7.84,0,0,0,1.21,4.61,3.9,3.9,0,0,0,3.38,1.71,4.51,4.51,0,0,0,3-.89,4.91,4.91,0,0,0,1.38-3.08Z"/><path class="bbd39847-2645-402e-b5f6-cbb708f19493" d="M1425.92,814.93a11,11,0,0,1-4.39-2.13,4.07,4.07,0,0,1-1.37-3.12,4.3,4.3,0,0,1,1.68-3.47,6.67,6.67,0,0,1,4.36-1.37,7.28,7.28,0,0,1,3.26.71,5.36,5.36,0,0,1,2.22,2,5,5,0,0,1,.79,2.72h-2.36a3.25,3.25,0,0,0-1-2.54,4.17,4.17,0,0,0-2.89-.93,4.27,4.27,0,0,0-2.7.76,2.55,2.55,0,0,0-1,2.12,2.3,2.3,0,0,0,.92,1.84,9,9,0,0,0,3.14,1.38,14.53,14.53,0,0,1,3.47,1.38,5.25,5.25,0,0,1,1.86,1.75,4.47,4.47,0,0,1,.6,2.36,4.15,4.15,0,0,1-1.68,3.46,7.18,7.18,0,0,1-4.5,1.3,8.36,8.36,0,0,1-3.42-.7,5.75,5.75,0,0,1-2.45-1.92,4.69,4.69,0,0,1-.86-2.77H1422a3.06,3.06,0,0,0,1.19,2.54,5,5,0,0,0,3.18.93,4.6,4.6,0,0,0,2.84-.76,2.46,2.46,0,0,0,1-2.06,2.41,2.41,0,0,0-.92-2A10.54,10.54,0,0,0,1425.92,814.93Z"/></g><g class="4f5b147b-13d2-48ea-8359-55beb5d8cbf2"><path d="M115.4,656.83H102v14.12H97.75V639h19.83v3.45H102v11H115.4Z"/><path d="M147.26,656a19.75,19.75,0,0,1-1.58,8.2,12,12,0,0,1-4.49,5.35,12.38,12.38,0,0,1-18-5.3,19,19,0,0,1-1.66-8V654a19.52,19.52,0,0,1,1.61-8.15,11.87,11.87,0,0,1,11.26-7.29,12.42,12.42,0,0,1,6.78,1.86,12,12,0,0,1,4.52,5.38,19.85,19.85,0,0,1,1.58,8.2Zm-4.2-2.06q0-5.69-2.29-8.73a7.55,7.55,0,0,0-6.4-3,7.47,7.47,0,0,0-6.3,3q-2.3,3-2.36,8.44V656q0,5.51,2.32,8.66a8.14,8.14,0,0,0,12.72.18q2.24-3,2.31-8.53Z"/><path d="M176.13,639v21.74a10.18,10.18,0,0,1-2.85,7.4,11.48,11.48,0,0,1-7.66,3.23l-1.12,0a12,12,0,0,1-8.38-2.83,10.12,10.12,0,0,1-3.17-7.79V639h4.18v21.65a6.67,6.67,0,0,0,7.37,7.31A7.41,7.41,0,0,0,170,666a7.29,7.29,0,0,0,1.9-5.38V639Z"/><path d="M207.4,670.95h-4.24L187,646.31v24.64h-4.24V639H187l16.16,24.75V639h4.2Z"/><path d="M214.9,670.95V639h9a14.57,14.57,0,0,1,7.39,1.84,12.48,12.48,0,0,1,5,5.25,17.09,17.09,0,0,1,1.77,7.82v2a17.13,17.13,0,0,1-1.75,7.93,12.29,12.29,0,0,1-5,5.23,15.5,15.5,0,0,1-7.55,1.87Zm4.22-28.52V667.5h4.44a9.67,9.67,0,0,0,7.6-3q2.71-3,2.71-8.64V654q0-5.45-2.56-8.47a9.12,9.12,0,0,0-7.27-3.07Z"/><path d="M261.64,662.58H248.23l-3,8.37h-4.35l12.22-32h3.69l12.25,32H264.7Zm-12.14-3.45h10.88l-5.45-15Z"/><path d="M292.62,642.42H282.33v28.52h-4.2V642.42H267.86V639h24.76Z"/><path d="M301.9,670.95h-4.22V639h4.22Z"/><path d="M334.25,656a19.76,19.76,0,0,1-1.58,8.2,12,12,0,0,1-4.49,5.35,12.38,12.38,0,0,1-18-5.3,18.94,18.94,0,0,1-1.66-8V654a19.52,19.52,0,0,1,1.6-8.15,11.87,11.87,0,0,1,11.26-7.29,12.42,12.42,0,0,1,6.78,1.86,12,12,0,0,1,4.52,5.38,19.86,19.86,0,0,1,1.58,8.2Zm-4.2-2.06q0-5.69-2.29-8.73a7.55,7.55,0,0,0-6.4-3,7.46,7.46,0,0,0-6.3,3q-2.3,3-2.36,8.44V656q0,5.51,2.32,8.66a8.14,8.14,0,0,0,12.72.18q2.24-3,2.31-8.53Z"/><path d="M365.18,670.95h-4.24l-16.12-24.64v24.64h-4.24V639h4.24L361,663.72V639h4.2Z"/><path d="M388,658.43v12.52h-4.22V639h11.81q5.25,0,8.23,2.68a9.08,9.08,0,0,1,3,7.09,9,9,0,0,1-2.91,7.17q-2.92,2.51-8.34,2.51Zm0-3.45h7.59a7.59,7.59,0,0,0,5.19-1.59,5.83,5.83,0,0,0,1.8-4.61,6,6,0,0,0-1.8-4.57,7.11,7.11,0,0,0-4.95-1.78H388Z"/><path d="M424,658h-7.52v12.93h-4.24V639h10.6q5.41,0,8.32,2.46t2.91,7.16a8.6,8.6,0,0,1-1.62,5.2,9.64,9.64,0,0,1-4.5,3.32l7.52,13.57v.26h-4.53Zm-7.52-3.45h6.49a7.32,7.32,0,0,0,5-1.63,5.5,5.5,0,0,0,1.86-4.36A5.79,5.79,0,0,0,428,644a7.5,7.5,0,0,0-5.11-1.61h-6.46Z"/><path d="M464.59,656a19.76,19.76,0,0,1-1.58,8.2,12,12,0,0,1-4.49,5.35,12.38,12.38,0,0,1-18-5.3,19,19,0,0,1-1.66-8V654a19.52,19.52,0,0,1,1.6-8.15,11.87,11.87,0,0,1,11.26-7.29,12.42,12.42,0,0,1,6.78,1.86,12,12,0,0,1,4.52,5.38,19.86,19.86,0,0,1,1.58,8.2Zm-4.2-2.06q0-5.69-2.29-8.73a7.55,7.55,0,0,0-6.4-3,7.46,7.46,0,0,0-6.3,3q-2.3,3-2.36,8.44V656q0,5.51,2.32,8.66a8.14,8.14,0,0,0,12.72.18q2.24-3,2.31-8.53Z"/><path d="M494.56,666.75a9.75,9.75,0,0,1-4.54,3.48,18.37,18.37,0,0,1-6.78,1.15,13.16,13.16,0,0,1-6.95-1.83,12.21,12.21,0,0,1-4.69-5.21,18,18,0,0,1-1.7-7.84v-2.79q0-7.22,3.38-11.2t9.49-4a12.16,12.16,0,0,1,8.07,2.56,11.14,11.14,0,0,1,3.74,7.26h-4.22q-1.19-6.37-7.56-6.37a7.48,7.48,0,0,0-6.43,3q-2.19,3-2.21,8.63v2.62q0,5.38,2.46,8.56a8,8,0,0,0,6.66,3.18,14.7,14.7,0,0,0,4.16-.53,6.42,6.42,0,0,0,2.95-1.77v-7.16h-7.41V655h11.61Z"/><path d="M513.34,658h-7.52v12.93h-4.24V639h10.6q5.41,0,8.32,2.46t2.91,7.16a8.59,8.59,0,0,1-1.62,5.2,9.64,9.64,0,0,1-4.5,3.32l7.52,13.57v.26h-4.53Zm-7.52-3.45h6.49a7.32,7.32,0,0,0,5-1.63,5.5,5.5,0,0,0,1.86-4.36,5.79,5.79,0,0,0-1.77-4.55,7.51,7.51,0,0,0-5.11-1.61h-6.46Z"/><path d="M547,662.58H533.59l-3,8.37h-4.35l12.23-32h3.69l12.25,32h-4.33Zm-12.14-3.45h10.88l-5.45-15Z"/><path d="M564.15,639l10.47,26.08L585.08,639h5.48v32h-4.22V658.5l.4-13.44-10.51,25.89H573L562.5,645.13l.42,13.37v12.45H558.7V639Z"/><path d="M603.46,639l10.47,26.08L624.39,639h5.48v32h-4.22V658.5l.4-13.44-10.51,25.89H612.3l-10.49-25.82.42,13.37v12.45H598V639Z"/><path d="M655.42,656.17H641.54V667.5h16.12v3.45H637.32V639h20.12v3.45h-15.9v10.3h13.88Z"/></g><g class="4f5b147b-13d2-48ea-8359-55beb5d8cbf2"><path d="M106.71,696.55h-9V706H94.94V684.65h13.22v2.3H97.75v7.3h9Z"/><path d="M110.08,697.89a9.35,9.35,0,0,1,.92-4.19,6.83,6.83,0,0,1,2.55-2.87,7,7,0,0,1,3.73-1,6.69,6.69,0,0,1,5.24,2.24,8.61,8.61,0,0,1,2,6v.19a9.43,9.43,0,0,1-.89,4.15,6.74,6.74,0,0,1-2.54,2.86,7,7,0,0,1-3.79,1,6.67,6.67,0,0,1-5.22-2.24,8.56,8.56,0,0,1-2-5.93Zm2.73.32a6.77,6.77,0,0,0,1.22,4.23,4.15,4.15,0,0,0,6.56,0,7.4,7.4,0,0,0,1.22-4.53,6.76,6.76,0,0,0-1.24-4.22,3.94,3.94,0,0,0-3.29-1.62,3.9,3.9,0,0,0-3.24,1.6A7.34,7.34,0,0,0,112.81,698.22Z"/><path d="M135.59,692.55a8.13,8.13,0,0,0-1.33-.1,3.57,3.57,0,0,0-3.62,2.27V706h-2.71V690.12h2.64l0,1.83a4.22,4.22,0,0,1,3.78-2.12,2.77,2.77,0,0,1,1.2.21Z"/><path d="M151.87,704a3.91,3.91,0,0,0,2.54-.88,3.09,3.09,0,0,0,1.2-2.2h2.57a4.91,4.91,0,0,1-.94,2.59,6.17,6.17,0,0,1-2.31,2,6.66,6.66,0,0,1-3.06.73,6.54,6.54,0,0,1-5.15-2.16,8.59,8.59,0,0,1-1.91-5.91v-.45a9.53,9.53,0,0,1,.85-4.11,6.48,6.48,0,0,1,2.44-2.8,6.94,6.94,0,0,1,3.76-1,6.37,6.37,0,0,1,4.43,1.6,5.7,5.7,0,0,1,1.88,4.14h-2.57a3.73,3.73,0,0,0-1.17-2.53,3.63,3.63,0,0,0-2.59-1,3.8,3.8,0,0,0-3.2,1.49,7,7,0,0,0-1.14,4.3v.51a6.83,6.83,0,0,0,1.13,4.21A3.82,3.82,0,0,0,151.87,704Z"/><path d="M164.17,706h-2.71V683.47h2.71Z"/><path d="M178.3,706a5.68,5.68,0,0,1-.38-1.67,6.06,6.06,0,0,1-4.51,2,5.6,5.6,0,0,1-3.85-1.33,4.28,4.28,0,0,1-1.5-3.36,4.47,4.47,0,0,1,1.88-3.84,8.88,8.88,0,0,1,5.3-1.37h2.64v-1.24a3,3,0,0,0-.85-2.26,3.42,3.42,0,0,0-2.51-.84,4,4,0,0,0-2.43.73,2.16,2.16,0,0,0-1,1.77h-2.73a3.73,3.73,0,0,1,.84-2.29,5.75,5.75,0,0,1,2.29-1.75,7.71,7.71,0,0,1,3.17-.64A6.28,6.28,0,0,1,179,691.2a4.93,4.93,0,0,1,1.61,3.77v7.29a8.9,8.9,0,0,0,.56,3.47V706Zm-4.5-2.06a4.77,4.77,0,0,0,2.42-.66,4,4,0,0,0,1.66-1.71v-3.25h-2.13q-5,0-5,2.91a2.46,2.46,0,0,0,.85,2A3.27,3.27,0,0,0,173.8,703.89Z"/><path d="M194.07,701.76a2,2,0,0,0-.83-1.71,8,8,0,0,0-2.89-1,13.65,13.65,0,0,1-3.27-1.05,4.65,4.65,0,0,1-1.79-1.46,3.49,3.49,0,0,1-.58-2,4.11,4.11,0,0,1,1.65-3.29,6.45,6.45,0,0,1,4.21-1.35,6.64,6.64,0,0,1,4.38,1.39,4.41,4.41,0,0,1,1.68,3.56h-2.73a2.44,2.44,0,0,0-.95-1.92,3.54,3.54,0,0,0-2.38-.81,3.71,3.71,0,0,0-2.32.64,2,2,0,0,0-.84,1.68,1.64,1.64,0,0,0,.78,1.48,9.55,9.55,0,0,0,2.81,1,14.65,14.65,0,0,1,3.29,1.08,4.82,4.82,0,0,1,1.87,1.51,3.73,3.73,0,0,1,.61,2.16,4.05,4.05,0,0,1-1.7,3.4,7.14,7.14,0,0,1-4.41,1.28,8,8,0,0,1-3.37-.67A5.47,5.47,0,0,1,185,703.7a4.52,4.52,0,0,1-.83-2.61h2.71a2.8,2.8,0,0,0,1.09,2.16,4.24,4.24,0,0,0,2.69.8,4.38,4.38,0,0,0,2.47-.62A1.91,1.91,0,0,0,194.07,701.76Z"/><path d="M209.55,701.76a2,2,0,0,0-.83-1.71,8,8,0,0,0-2.89-1,13.68,13.68,0,0,1-3.27-1.05,4.64,4.64,0,0,1-1.79-1.46,3.5,3.5,0,0,1-.58-2,4.11,4.11,0,0,1,1.65-3.29,6.45,6.45,0,0,1,4.21-1.35,6.63,6.63,0,0,1,4.38,1.39,4.41,4.41,0,0,1,1.68,3.56h-2.73a2.44,2.44,0,0,0-.95-1.92,3.54,3.54,0,0,0-2.38-.81,3.71,3.71,0,0,0-2.32.64,2,2,0,0,0-.83,1.68,1.64,1.64,0,0,0,.78,1.48,9.55,9.55,0,0,0,2.81,1,14.64,14.64,0,0,1,3.29,1.08,4.8,4.8,0,0,1,1.87,1.51,3.72,3.72,0,0,1,.61,2.16,4.05,4.05,0,0,1-1.7,3.4,7.14,7.14,0,0,1-4.41,1.28,8,8,0,0,1-3.37-.67,5.48,5.48,0,0,1-2.29-1.88,4.53,4.53,0,0,1-.83-2.61h2.71a2.8,2.8,0,0,0,1.09,2.16,4.24,4.24,0,0,0,2.69.8,4.38,4.38,0,0,0,2.47-.62A1.91,1.91,0,0,0,209.55,701.76Z"/><path d="M235.89,690.21a4.94,4.94,0,0,1-.84,2.84,5.73,5.73,0,0,1-2.28,1.95,6.12,6.12,0,0,1,2.65,2.09,5.26,5.26,0,0,1,1,3.12,5.57,5.57,0,0,1-1.87,4.41,8.2,8.2,0,0,1-9.85,0,5.59,5.59,0,0,1-1.86-4.4,5.43,5.43,0,0,1,.95-3.12,5.89,5.89,0,0,1,2.62-2.11,5.59,5.59,0,0,1-2.24-1.95,5,5,0,0,1-.82-2.82,5.51,5.51,0,0,1,1.73-4.27,7.35,7.35,0,0,1,9.11,0A5.49,5.49,0,0,1,235.89,690.21Zm-2.21,9.94a3.93,3.93,0,0,0-1.14-2.91,4,4,0,0,0-3-1.13,3.81,3.81,0,0,0-4,4,3.78,3.78,0,0,0,1.08,2.85,4.82,4.82,0,0,0,6,0A3.77,3.77,0,0,0,233.68,700.15Zm-4.08-13.57a3.5,3.5,0,0,0-2.59,1,4.08,4.08,0,0,0,0,5.31,3.88,3.88,0,0,0,5.2,0,4,4,0,0,0,0-5.28A3.45,3.45,0,0,0,229.61,686.58Z"/><path d="M251.2,686.28v3.84h3v2.09h-3V702a2.2,2.2,0,0,0,.4,1.43,1.67,1.67,0,0,0,1.35.48,6.56,6.56,0,0,0,1.29-.17V706a8,8,0,0,1-2.08.29,3.38,3.38,0,0,1-2.74-1.1,4.71,4.71,0,0,1-.92-3.12v-9.82H245.6v-2.09h2.89v-3.84Z"/><path d="M256.31,697.89a9.35,9.35,0,0,1,.92-4.19,6.83,6.83,0,0,1,2.55-2.87,7,7,0,0,1,3.73-1,6.69,6.69,0,0,1,5.24,2.24,8.61,8.61,0,0,1,2,6v.19a9.41,9.41,0,0,1-.89,4.15,6.74,6.74,0,0,1-2.54,2.86,7,7,0,0,1-3.79,1,6.68,6.68,0,0,1-5.23-2.24,8.56,8.56,0,0,1-2-5.93Zm2.73.32a6.77,6.77,0,0,0,1.22,4.23,4.15,4.15,0,0,0,6.56,0,7.4,7.4,0,0,0,1.22-4.53,6.76,6.76,0,0,0-1.24-4.22,3.94,3.94,0,0,0-3.29-1.62,3.9,3.9,0,0,0-3.24,1.6A7.34,7.34,0,0,0,259,698.22Z"/><path d="M290.22,706h-2.73v-18l-5.47,2v-2.46l7.77-2.91h.43Z"/><path d="M311.55,696.87q0,4.76-1.63,7.07a6.77,6.77,0,0,1-10.14.05q-1.64-2.26-1.7-6.76v-3.62q0-4.7,1.63-7a6.89,6.89,0,0,1,10.17-.08q1.63,2.2,1.67,6.8Zm-2.71-3.7a9.91,9.91,0,0,0-1-5,3.33,3.33,0,0,0-3.06-1.57,3.29,3.29,0,0,0-3,1.57,9.67,9.67,0,0,0-1,4.82v4.33a10.06,10.06,0,0,0,1,5.1,3.33,3.33,0,0,0,3,1.65,3.28,3.28,0,0,0,3-1.55,9.72,9.72,0,0,0,1-4.89Z"/><path d="M315.21,710.2l-1.54-1.05a7.07,7.07,0,0,0,1.44-4v-2.45h2.65v2.12a6.67,6.67,0,0,1-.73,3A6.92,6.92,0,0,1,315.21,710.2Z"/><path d="M344.81,703.16a6.5,6.5,0,0,1-3,2.32,12.25,12.25,0,0,1-4.52.77,8.78,8.78,0,0,1-4.63-1.22,8.15,8.15,0,0,1-3.13-3.48,12,12,0,0,1-1.14-5.23v-1.86q0-4.81,2.25-7.46a7.84,7.84,0,0,1,6.33-2.65,8.1,8.1,0,0,1,5.38,1.71,7.42,7.42,0,0,1,2.49,4.84H342q-.79-4.25-5-4.25a5,5,0,0,0-4.29,2,9.68,9.68,0,0,0-1.47,5.75v1.74a9.07,9.07,0,0,0,1.64,5.71,5.32,5.32,0,0,0,4.44,2.12,9.83,9.83,0,0,0,2.77-.35,4.29,4.29,0,0,0,2-1.18v-4.78h-4.94v-2.3h7.74Z"/><path d="M348.35,697.89a9.35,9.35,0,0,1,.92-4.19,6.83,6.83,0,0,1,2.55-2.87,7,7,0,0,1,3.73-1,6.69,6.69,0,0,1,5.24,2.24,8.61,8.61,0,0,1,2,6v.19a9.43,9.43,0,0,1-.89,4.15,6.74,6.74,0,0,1-2.54,2.86,7,7,0,0,1-3.79,1,6.67,6.67,0,0,1-5.22-2.24,8.56,8.56,0,0,1-2-5.93Zm2.73.32a6.77,6.77,0,0,0,1.22,4.23,4.15,4.15,0,0,0,6.56,0,7.4,7.4,0,0,0,1.22-4.53,6.76,6.76,0,0,0-1.24-4.22,3.94,3.94,0,0,0-3.29-1.62,3.9,3.9,0,0,0-3.24,1.6A7.34,7.34,0,0,0,351.08,698.22Z"/><path d="M371.21,702.28l3.93-12.16h2.77L372.22,706h-2.07l-5.75-15.84h2.77Z"/><path d="M386.91,706.25a6.93,6.93,0,0,1-5.25-2.12,7.84,7.84,0,0,1-2-5.66V698a9.49,9.49,0,0,1,.9-4.21,7,7,0,0,1,2.52-2.9,6.34,6.34,0,0,1,3.51-1,5.94,5.94,0,0,1,4.81,2,8.81,8.81,0,0,1,1.71,5.83v1.13H382.35a5.62,5.62,0,0,0,1.37,3.78,4.31,4.31,0,0,0,3.33,1.44,4.73,4.73,0,0,0,2.43-.58,6.14,6.14,0,0,0,1.74-1.55l1.66,1.29A6.66,6.66,0,0,1,386.91,706.25Zm-.34-14.2a3.62,3.62,0,0,0-2.76,1.19,5.79,5.79,0,0,0-1.38,3.34h7.94v-.21a5.15,5.15,0,0,0-1.11-3.2A3.41,3.41,0,0,0,386.57,692.05Z"/><path d="M403.9,692.55a8.14,8.14,0,0,0-1.33-.1,3.57,3.57,0,0,0-3.62,2.27V706h-2.71V690.12h2.64l0,1.83a4.22,4.22,0,0,1,3.78-2.12,2.78,2.78,0,0,1,1.2.21Z"/><path d="M409,690.12l.09,2a5.78,5.78,0,0,1,4.75-2.28q5,0,5.07,5.67V706h-2.71V695.48a3.64,3.64,0,0,0-.79-2.53,3.14,3.14,0,0,0-2.4-.82,3.92,3.92,0,0,0-2.32.7,4.77,4.77,0,0,0-1.55,1.84V706h-2.71V690.12Z"/><path d="M425.5,690.12l.07,1.76a5.86,5.86,0,0,1,4.71-2q3.33,0,4.53,2.55a6,6,0,0,1,2.06-1.84,6.1,6.1,0,0,1,3-.7q5.22,0,5.31,5.52V706h-2.71V695.51a3.63,3.63,0,0,0-.78-2.54,3.42,3.42,0,0,0-2.61-.84,3.6,3.6,0,0,0-2.51.9,3.65,3.65,0,0,0-1.16,2.42V706h-2.73V695.58q0-3.46-3.39-3.46a3.63,3.63,0,0,0-3.65,2.27V706h-2.71V690.12Z"/><path d="M455.84,706.25a6.93,6.93,0,0,1-5.25-2.12,7.84,7.84,0,0,1-2-5.66V698a9.5,9.5,0,0,1,.9-4.21,7,7,0,0,1,2.52-2.9,6.34,6.34,0,0,1,3.51-1,5.94,5.94,0,0,1,4.81,2,8.8,8.8,0,0,1,1.72,5.83v1.13H451.29a5.62,5.62,0,0,0,1.37,3.78A4.31,4.31,0,0,0,456,704a4.73,4.73,0,0,0,2.43-.58,6.12,6.12,0,0,0,1.74-1.55l1.66,1.29A6.66,6.66,0,0,1,455.84,706.25Zm-.34-14.2a3.62,3.62,0,0,0-2.76,1.19,5.8,5.8,0,0,0-1.38,3.34h7.94v-.21a5.15,5.15,0,0,0-1.11-3.2A3.41,3.41,0,0,0,455.51,692.05Z"/><path d="M467.73,690.12l.09,2a5.78,5.78,0,0,1,4.75-2.28q5,0,5.07,5.67V706h-2.71V695.48a3.64,3.64,0,0,0-.78-2.53,3.14,3.14,0,0,0-2.4-.82,3.91,3.91,0,0,0-2.32.7,4.76,4.76,0,0,0-1.55,1.84V706h-2.71V690.12Z"/><path d="M485.41,686.28v3.84h3v2.09h-3V702a2.2,2.2,0,0,0,.4,1.43,1.67,1.67,0,0,0,1.35.48,6.56,6.56,0,0,0,1.29-.17V706a8,8,0,0,1-2.08.29,3.38,3.38,0,0,1-2.74-1.1,4.71,4.71,0,0,1-.92-3.12v-9.82h-2.89v-2.09h2.89v-3.84Z"/><path d="M505.68,696.46a13.22,13.22,0,0,1-5.27-2.55,4.87,4.87,0,0,1-1.65-3.74,5.15,5.15,0,0,1,2-4.17,8,8,0,0,1,5.24-1.65,8.76,8.76,0,0,1,3.92.85,6.45,6.45,0,0,1,2.67,2.34,6,6,0,0,1,.95,3.26h-2.83a3.89,3.89,0,0,0-1.23-3,5,5,0,0,0-3.47-1.11,5.13,5.13,0,0,0-3.25.92,3.05,3.05,0,0,0-1.17,2.54,2.75,2.75,0,0,0,1.11,2.21,10.86,10.86,0,0,0,3.77,1.65,17.48,17.48,0,0,1,4.16,1.65,6.32,6.32,0,0,1,2.23,2.1,5.35,5.35,0,0,1,.73,2.83,5,5,0,0,1-2,4.15,8.63,8.63,0,0,1-5.41,1.56,10.05,10.05,0,0,1-4.1-.84,6.91,6.91,0,0,1-2.94-2.31,5.62,5.62,0,0,1-1-3.32h2.83a3.67,3.67,0,0,0,1.43,3.05,6,6,0,0,0,3.82,1.12,5.53,5.53,0,0,0,3.42-.91,2.94,2.94,0,0,0,1.19-2.47,2.89,2.89,0,0,0-1.1-2.42A12.7,12.7,0,0,0,505.68,696.46Z"/><path d="M523.14,704a3.91,3.91,0,0,0,2.54-.88,3.09,3.09,0,0,0,1.2-2.2h2.57a4.91,4.91,0,0,1-.94,2.59,6.17,6.17,0,0,1-2.31,2,6.66,6.66,0,0,1-3.06.73,6.54,6.54,0,0,1-5.15-2.16,8.59,8.59,0,0,1-1.91-5.91v-.45a9.53,9.53,0,0,1,.85-4.11,6.48,6.48,0,0,1,2.44-2.8,6.94,6.94,0,0,1,3.76-1,6.37,6.37,0,0,1,4.43,1.6,5.7,5.7,0,0,1,1.88,4.14h-2.57a3.73,3.73,0,0,0-1.17-2.53,3.63,3.63,0,0,0-2.59-1,3.8,3.8,0,0,0-3.2,1.49,7,7,0,0,0-1.14,4.3v.51a6.83,6.83,0,0,0,1.13,4.21A3.82,3.82,0,0,0,523.14,704Z"/><path d="M535.21,692a5.77,5.77,0,0,1,4.69-2.21q5,0,5.07,5.67V706h-2.71V695.48a3.64,3.64,0,0,0-.78-2.53,3.14,3.14,0,0,0-2.4-.82,3.91,3.91,0,0,0-2.32.7,4.76,4.76,0,0,0-1.55,1.84V706h-2.71V683.47h2.71Z"/><path d="M548.31,697.89a9.34,9.34,0,0,1,.92-4.19,6.83,6.83,0,0,1,2.55-2.87,7,7,0,0,1,3.73-1,6.69,6.69,0,0,1,5.24,2.24,8.61,8.61,0,0,1,2,6v.19a9.43,9.43,0,0,1-.89,4.15,6.73,6.73,0,0,1-2.54,2.86,7,7,0,0,1-3.79,1,6.68,6.68,0,0,1-5.23-2.24,8.56,8.56,0,0,1-2-5.93Zm2.73.32a6.77,6.77,0,0,0,1.22,4.23,4.15,4.15,0,0,0,6.56,0,7.4,7.4,0,0,0,1.22-4.53,6.76,6.76,0,0,0-1.24-4.22,3.94,3.94,0,0,0-3.29-1.62,3.9,3.9,0,0,0-3.24,1.6A7.35,7.35,0,0,0,551,698.22Z"/><path d="M565.43,697.89a9.34,9.34,0,0,1,.92-4.19,6.83,6.83,0,0,1,2.55-2.87,7,7,0,0,1,3.73-1,6.69,6.69,0,0,1,5.24,2.24,8.61,8.61,0,0,1,2,6v.19a9.43,9.43,0,0,1-.89,4.15,6.73,6.73,0,0,1-2.54,2.86,7,7,0,0,1-3.79,1,6.68,6.68,0,0,1-5.23-2.24,8.56,8.56,0,0,1-2-5.93Zm2.73.32a6.77,6.77,0,0,0,1.22,4.23,4.15,4.15,0,0,0,6.56,0,7.4,7.4,0,0,0,1.22-4.53,6.76,6.76,0,0,0-1.24-4.22,3.94,3.94,0,0,0-3.29-1.62,3.9,3.9,0,0,0-3.24,1.6A7.35,7.35,0,0,0,568.16,698.22Z"/><path d="M586.22,706h-2.71V683.47h2.71Z"/><path d="M604.7,696.46a13.22,13.22,0,0,1-5.27-2.55,4.87,4.87,0,0,1-1.65-3.74,5.15,5.15,0,0,1,2-4.17,8,8,0,0,1,5.24-1.65,8.76,8.76,0,0,1,3.92.85,6.45,6.45,0,0,1,2.67,2.34,6,6,0,0,1,.95,3.26h-2.83a3.89,3.89,0,0,0-1.23-3,5,5,0,0,0-3.47-1.11,5.13,5.13,0,0,0-3.25.92,3.06,3.06,0,0,0-1.16,2.54,2.75,2.75,0,0,0,1.11,2.21A10.86,10.86,0,0,0,605.5,694a17.49,17.49,0,0,1,4.16,1.65,6.31,6.31,0,0,1,2.23,2.1,5.35,5.35,0,0,1,.73,2.83,5,5,0,0,1-2,4.15,8.63,8.63,0,0,1-5.41,1.56,10.06,10.06,0,0,1-4.11-.84,6.91,6.91,0,0,1-2.94-2.31,5.62,5.62,0,0,1-1-3.32h2.83a3.67,3.67,0,0,0,1.43,3.05,6,6,0,0,0,3.82,1.12,5.54,5.54,0,0,0,3.42-.91,2.94,2.94,0,0,0,1.19-2.47,2.89,2.89,0,0,0-1.1-2.42A12.71,12.71,0,0,0,604.7,696.46Z"/><path d="M619.48,686.28v3.84h3v2.09h-3V702a2.2,2.2,0,0,0,.4,1.43,1.67,1.67,0,0,0,1.35.48,6.56,6.56,0,0,0,1.29-.17V706a8,8,0,0,1-2.08.29,3.38,3.38,0,0,1-2.74-1.1,4.71,4.71,0,0,1-.92-3.12v-9.82h-2.89v-2.09h2.89v-3.84Z"/><path d="M635.4,704.39a5.76,5.76,0,0,1-4.65,1.86,4.93,4.93,0,0,1-3.86-1.47,6.35,6.35,0,0,1-1.34-4.35v-10.3h2.71v10.23q0,3.6,2.93,3.6,3.11,0,4.13-2.31V690.12H638V706h-2.58Z"/><path d="M641.49,697.91a9.27,9.27,0,0,1,1.73-5.86,5.89,5.89,0,0,1,8.94-.32v-8.26h2.71V706h-2.49l-.13-1.7a5.53,5.53,0,0,1-4.53,2,5.42,5.42,0,0,1-4.49-2.25,9.38,9.38,0,0,1-1.74-5.88Zm2.71.31a7,7,0,0,0,1.11,4.22A3.6,3.6,0,0,0,648.4,704a4,4,0,0,0,3.77-2.31v-7.28a4,4,0,0,0-3.74-2.24,3.62,3.62,0,0,0-3.11,1.54A7.72,7.72,0,0,0,644.21,698.22Z"/><path d="M665.67,706.25a6.94,6.94,0,0,1-5.25-2.12,7.85,7.85,0,0,1-2-5.66V698a9.49,9.49,0,0,1,.9-4.21,7,7,0,0,1,2.52-2.9,6.34,6.34,0,0,1,3.51-1,5.94,5.94,0,0,1,4.81,2,8.8,8.8,0,0,1,1.71,5.83v1.13H661.11a5.62,5.62,0,0,0,1.37,3.78,4.31,4.31,0,0,0,3.33,1.44,4.73,4.73,0,0,0,2.43-.58A6.12,6.12,0,0,0,670,701.9l1.66,1.29A6.66,6.66,0,0,1,665.67,706.25Zm-.34-14.2a3.62,3.62,0,0,0-2.76,1.19,5.79,5.79,0,0,0-1.38,3.34h7.95v-.21a5.15,5.15,0,0,0-1.12-3.2A3.41,3.41,0,0,0,665.33,692.05Z"/><path d="M677.55,690.12l.09,2a5.78,5.78,0,0,1,4.75-2.28q5,0,5.07,5.67V706h-2.71V695.48a3.64,3.64,0,0,0-.79-2.53,3.14,3.14,0,0,0-2.4-.82,3.92,3.92,0,0,0-2.32.7,4.77,4.77,0,0,0-1.55,1.84V706H675V690.12Z"/><path d="M695.23,686.28v3.84h3v2.09h-3V702a2.19,2.19,0,0,0,.4,1.43A1.67,1.67,0,0,0,697,704a6.55,6.55,0,0,0,1.29-.17V706a7.93,7.93,0,0,1-2.08.29,3.38,3.38,0,0,1-2.74-1.1,4.72,4.72,0,0,1-.92-3.12v-9.82h-2.89v-2.09h2.89v-3.84Z"/><path d="M710.59,701.76a2,2,0,0,0-.83-1.71,8,8,0,0,0-2.89-1,13.68,13.68,0,0,1-3.27-1.05,4.64,4.64,0,0,1-1.79-1.46,3.5,3.5,0,0,1-.58-2,4.11,4.11,0,0,1,1.65-3.29,6.45,6.45,0,0,1,4.21-1.35,6.63,6.63,0,0,1,4.38,1.39,4.41,4.41,0,0,1,1.68,3.56h-2.73a2.44,2.44,0,0,0-.95-1.92,3.54,3.54,0,0,0-2.38-.81,3.71,3.71,0,0,0-2.32.64,2,2,0,0,0-.83,1.68,1.64,1.64,0,0,0,.78,1.48,9.55,9.55,0,0,0,2.81,1,14.64,14.64,0,0,1,3.29,1.08,4.8,4.8,0,0,1,1.87,1.51,3.72,3.72,0,0,1,.61,2.16,4.05,4.05,0,0,1-1.7,3.4,7.14,7.14,0,0,1-4.41,1.28,8,8,0,0,1-3.37-.67,5.48,5.48,0,0,1-2.29-1.88,4.53,4.53,0,0,1-.83-2.61h2.71a2.8,2.8,0,0,0,1.09,2.16,4.24,4.24,0,0,0,2.69.8,4.38,4.38,0,0,0,2.47-.62A1.91,1.91,0,0,0,710.59,701.76Z"/></g></g></g></svg>