<svg xmlns="http://www.w3.org/2000/svg" viewBox="0 0 1600 900"><defs><style>.\30 5920cc5-4b5b-4ac0-a24e-040ec95fbddb{fill:#7dce82;}.\30 2db15cf-7865-4f26-bfca-05889aee7c09,.\30 5920cc5-4b5b-4ac0-a24e-040ec95fbddb{fill-opacity:0.81;}.\33 6d20e1f-442c-4dae-ae49-3d17c6ef3d39{fill:#efe3df;}.\31 878a02b-1652-4707-b166-0a5498475527,.\31 f48cfb8-bad5-43bb-a1da-f9e74c91f517,.\32 695116a-9da6-4ff1-a283-d952df014f67,.\32 753ef15-0dda-4836-a7dc-6425c1c7b7ff,.\32 b332295-b6d1-4377-b8f9-43de86c50f91,.\33 4fb9b6e-d2d8-404c-be43-a9e2931dbd49,.\33 6d20e1f-442c-4dae-ae49-3d17c6ef3d39,.\33 e7eb95d-e869-4a30-a375-23f8f9e73491,.\33 f1947c0-9b47-48a7-8430-365af3a6d99c,.\34 6d70473-a6ce-46ec-85fa-ab95b0da9db3,.\34 ec192c5-a6d6-485b-b6be-e519e4dcd6f4,.\35 0d765ae-bf30-43f9-9ecd-359f2b1b56e2,.\35 14cf838-6458-4822-8f57-5ac76441e0f3,.\35 c0d3c1b-9de3-4852-bffa-272d83af1c35,.\35 cdd2be9-0c9b-41c7-8551-a881aec8846a,.\35 f2384be-cc3d-4c68-a148-3ddc0229853f,.\37 94493b9-9e98-462f-b5dc-28a179ad7b58,.\37 ee6f2f0-73d3-4dd9-9a67-530a330f6f60,.\37 f8f184d-566e-40a1-950b-56155fa3aec8,.\39 00deaeb-3289-4802-8864-eb8425b555e0,.\39 335f575-2f1b-408c-a8a5-68cee7a63608,.a0b68546-8ca2-424d-976c-97ea18fdddee,.a1b21dea-119b-48cd-937a-7f0e91e928b0,.a58b1118-9d67-4e8f-bcc6-32ae2bf393fc,.a8018a12-522b-43dc-b0d9-15f2eba55362,.a88a5ca8-4242-4607-9e11-f55853157a3a,.b345e74f-dd9d-45b0-a9b4-bb07ed081dde,.bca95c12-eac6-4191-84a2-c4e4b92ffacc,.c0020b0d-54d2-4a93-a7f5-191ccd7be0d5,.c463afcf-d3ac-415f-b653-5f0010e806d5,.c55f9b30-ed44-4f80-8cd0-970e24d634e0,.d810f11d-0e08-4f40-869f-cba3c950252a,.d8af631a-4836-4000-b8d1-7655aac39df2,.d8f3a71a-7573-4ecd-b469-fe43c75766a9,.e65ac6ed-0071-4376-ad41-1c7560d644f2{stroke:#000;}.\31 878a02b-1652-4707-b166-0a5498475527,.\31 f48cfb8-bad5-43bb-a1da-f9e74c91f517,.\32 753ef15-0dda-4836-a7dc-6425c1c7b7ff,.\33 4fb9b6e-d2d8-404c-be43-a9e2931dbd49,.\33 6d20e1f-442c-4dae-ae49-3d17c6ef3d39,.\33 e7eb95d-e869-4a30-a375-23f8f9e73491,.\33 f1947c0-9b47-48a7-8430-365af3a6d99c,.\34 6d70473-a6ce-46ec-85fa-ab95b0da9db3,.\34 ec192c5-a6d6-485b-b6be-e519e4dcd6f4,.\35 0d765ae-bf30-43f9-9ecd-359f2b1b56e2,.\35 c0d3c1b-9de3-4852-bffa-272d83af1c35,.\35 cdd2be9-0c9b-41c7-8551-a881aec8846a,.\35 f2384be-cc3d-4c68-a148-3ddc0229853f,.\37 94493b9-9e98-462f-b5dc-28a179ad7b58,.\37 ee6f2f0-73d3-4dd9-9a67-530a330f6f60,.\39 00deaeb-3289-4802-8864-eb8425b555e0,.\39 335f575-2f1b-408c-a8a5-68cee7a63608,.a1b21dea-119b-48cd-937a-7f0e91e928b0,.a58b1118-9d67-4e8f-bcc6-32ae2bf393fc,.a8018a12-522b-43dc-b0d9-15f2eba55362,.a88a5ca8-4242-4607-9e11-f55853157a3a,.b345e74f-dd9d-45b0-a9b4-bb07ed081dde,.bca95c12-eac6-4191-84a2-c4e4b92ffacc,.c0020b0d-54d2-4a93-a7f5-191ccd7be0d5,.c463afcf-d3ac-415f-b653-5f0010e806d5,.c55f9b30-ed44-4f80-8cd0-970e24d634e0,.d4031dfc-f611-43e0-8d93-56bb808e53ce,.d810f11d-0e08-4f40-869f-cba3c950252a,.d8f3a71a-7573-4ecd-b469-fe43c75766a9,.e65ac6ed-0071-4376-ad41-1c7560d644f2{stroke-width:1.12px;}.b345e74f-dd9d-45b0-a9b4-bb07ed081dde{fill:#582f43;}.\34 ec192c5-a6d6-485b-b6be-e519e4dcd6f4{fill:#69c2c2;}.e4e1a515-7b4f-40ec-a9e6-d3490ac64e5c{fill:#081008;}.\32 753ef15-0dda-4836-a7dc-6425c1c7b7ff{fill:#2c1e1e;}.a8018a12-522b-43dc-b0d9-15f2eba55362{fill:#ebeaf7;}.c463afcf-d3ac-415f-b653-5f0010e806d5{fill:#eeeef2;}.\31 878a02b-1652-4707-b166-0a5498475527,.\37 f8f184d-566e-40a1-950b-56155fa3aec8{fill:#f0a5a5;}.c55f9b30-ed44-4f80-8cd0-970e24d634e0{fill:#1b1829;}.\35 f2384be-cc3d-4c68-a148-3ddc0229853f{fill:#b09d9d;}.\37 f8f184d-566e-40a1-950b-56155fa3aec8{stroke-width:1.29px;}.e65ac6ed-0071-4376-ad41-1c7560d644f2{fill:#655aa1;}.c4be6b37-46b3-4ba2-9dd2-578b91ce7f4e{fill:#4c2b2b;}.\35 11c6f94-308d-424a-85f3-9ee4f8dd4242{fill:#6a4646;}.\30 baf9973-2a4f-47eb-b926-602bdefdad9a,.\31 f00125a-a150-41d0-87a8-6d8f08db775e,.\32 695116a-9da6-4ff1-a283-d952df014f67,.\32 b332295-b6d1-4377-b8f9-43de86c50f91,.\34 6d70473-a6ce-46ec-85fa-ab95b0da9db3,.d4031dfc-f611-43e0-8d93-56bb808e53ce{fill:none;}.\32 29f21db-eceb-469d-b0eb-193e063548a9{fill:#524141;}.d810f11d-0e08-4f40-869f-cba3c950252a{fill:#c73c5a;}.\33 f1947c0-9b47-48a7-8430-365af3a6d99c{fill:#f5a8a8;}.\36 85d8c28-86fa-4a63-b007-1c217bb5ee18{fill:#9896c5;}.\34 b01f6c2-7821-4a1f-8938-a3be980b5806{fill:#bc3221;opacity:0.81;}.\30 7ba4d94-8818-4cb3-969e-f1124e06eaa0,.\34 b01f6c2-7821-4a1f-8938-a3be980b5806,.ed36ec28-0e14-48cc-9766-db2d77c876a5,.f5526e74-44ce-4dd7-b4f6-0f67d872db26{isolation:isolate;}.\30 baf9973-2a4f-47eb-b926-602bdefdad9a{stroke:#331d1d;stroke-width:0.5px;}.\30 2db15cf-7865-4f26-bfca-05889aee7c09,.\30 baf9973-2a4f-47eb-b926-602bdefdad9a{stroke-linecap:round;stroke-linejoin:round;}.\35 0d765ae-bf30-43f9-9ecd-359f2b1b56e2,.a0b68546-8ca2-424d-976c-97ea18fdddee{fill:#57313c;}.\33 e7eb95d-e869-4a30-a375-23f8f9e73491{fill:#674949;}.a0b68546-8ca2-424d-976c-97ea18fdddee{stroke-width:1.55px;}.\34 25adf63-220c-4a84-8c2a-64e5ca20b112{fill:#6a689a;}.\35 d355c1a-ebc4-45f6-aa2e-01c4782b787b{fill:#6c6c76;stroke:#774848;stroke-width:0.56px;}.\32 b332295-b6d1-4377-b8f9-43de86c50f91{stroke-width:0.75px;}.\32 695116a-9da6-4ff1-a283-d952df014f67{stroke-width:0.64px;}.a88a5ca8-4242-4607-9e11-f55853157a3a{fill:#2685b2;}.a1b21dea-119b-48cd-937a-7f0e91e928b0{fill:#f39898;}.\35 cdd2be9-0c9b-41c7-8551-a881aec8846a{fill:#e32c67;}.c0020b0d-54d2-4a93-a7f5-191ccd7be0d5{fill:#f6f0f0;}.\33 4fb9b6e-d2d8-404c-be43-a9e2931dbd49{fill:#c9b0b0;}.a58b1118-9d67-4e8f-bcc6-32ae2bf393fc{fill:#de3535;}.\31 f48cfb8-bad5-43bb-a1da-f9e74c91f517{fill:#2d1111;}.\39 00deaeb-3289-4802-8864-eb8425b555e0,.ed36ec28-0e14-48cc-9766-db2d77c876a5{fill:#090916;}.ed36ec28-0e14-48cc-9766-db2d77c876a5,.f5526e74-44ce-4dd7-b4f6-0f67d872db26{opacity:0.81;}.f5526e74-44ce-4dd7-b4f6-0f67d872db26{fill:#08080b;}.bca95c12-eac6-4191-84a2-c4e4b92ffacc{fill:#efa3a7;}.\37 ee6f2f0-73d3-4dd9-9a67-530a330f6f60{fill:#f7f0ee;}.\31 7835a5e-d052-4015-9039-4d37b0dbe540,.d8af631a-4836-4000-b8d1-7655aac39df2{fill:#382620;}.\31 7835a5e-d052-4015-9039-4d37b0dbe540{stroke:#070707;stroke-width:3.45px;}.d8af631a-4836-4000-b8d1-7655aac39df2{stroke-width:3.19px;}.d8f3a71a-7573-4ecd-b469-fe43c75766a9{fill:#211512;}.\39 335f575-2f1b-408c-a8a5-68cee7a63608{fill:#624339;}.\37 94493b9-9e98-462f-b5dc-28a179ad7b58{fill:#b27967;}.d4031dfc-f611-43e0-8d93-56bb808e53ce{stroke:#efe9e9;}.\31 f00125a-a150-41d0-87a8-6d8f08db775e{stroke:#fbf5f5;stroke-width:1.11px;}.\35 14cf838-6458-4822-8f57-5ac76441e0f3{fill:#5a4d4e;stroke-width:1.06px;}.\30 2db15cf-7865-4f26-bfca-05889aee7c09{fill:#08060a;stroke:#f8f8f8;stroke-width:0.74px;}.\33 1f70c3e-1bfe-4806-8b57-2b62d431cb5c{fill:#fbeff6;}.\38 0a697e5-4518-4c72-a1d4-a12e58711325{fill:#070707;}</style></defs><title>slide-6</title><g id="32970614-0310-4c86-a0fc-600e8a421270" data-name="Layer 2"><g id="e6f22034-4f9b-49e9-bec0-a5aea8a9075f" data-name="Layer 1"><rect id="c718b6f7-e531-4515-94d6-7387adfb7a0d" data-name="rect4311" class="05920cc5-4b5b-4ac0-a24e-040ec95fbddb" width="1600" height="900"/><path id="36e5a000-55ba-4cd1-b348-988d7e4db92b" data-name="path4317" class="36d20e1f-442c-4dae-ae49-3d17c6ef3d39" d="M1275.3,194c4.8-3.1-.7-1.4,4.8-3.1s7.1-2.1,10.1-2.2,6.1.1,8.7.1a62,62,0,0,1,11,1.6c2.2.5,4.1.9,5.9,2.8s4.4,4.3,6,7.1,3.1,3.5,2.5,6-.5,4.7-3.4,6.6-4.9,4.6-10.4,4.6-5.2,1.4-11.9.7-13.5-1.8-15.8-3.1-3.8-2.5-5.3-3.4a17.73,17.73,0,0,1-5.2-6.3,8.11,8.11,0,0,1-.7-5.9c.5-1.4,3.7-5.5,3.7-5.5Z"/><path id="9be20bbe-7ddc-4e0e-8d00-85642695c43d" data-name="path4217" class="b345e74f-dd9d-45b0-a9b4-bb07ed081dde" d="M1331.4,41.34c9.6.7-1.2.4,9.6.7s20.1,4.4,21.6,7.4,3.5,8.9,3.5,12.2,1.9,13.3,2.3,17.4-1.5-.7.8,4.1,3.8,4.8-1.2,10.4c-5.3,5.9-6.8,12.2-9.6,7-1.7-3-1.5-4.4-3.9-6.3s-5.5.3-6.2-1.9-.5-10.7-1.5-13.7c-1.4-4.2-9.3-5.6-12.7-7s-6.6-1.5-9.3-3.7-3.5.4-2.7-2.2-2.3-.7-2.7-5.9-1.7-4.7,1.8-8,6.7-4.6,8.6-6.8,1.6-3.7,1.6-3.7Z"/><path id="35da0722-aea8-408d-b211-6ffac57288a0" data-name="path7010" class="4ec192c5-a6d6-485b-b6be-e519e4dcd6f4" d="M1315,106c-20.8,6.3-10.2-.7-24.1,5.2s-21.2,6.3-26.5,14.9-.4,8.6-5.3,18-16.3,15.7-17.5,21.2,2.9,4.7.4,8.6-5.7,13.7-4.1,18a15,15,0,0,0,10.6,9c4.5.8,11,8.6,11.4,5.5s3.7-14.5,6.5-18,9.9-11.2,11.4-9.8c4.8,4.6,7.3-1.4,10.6-2,4.5-.7,8.6,1.2,14.7,5.9a26.24,26.24,0,0,1,8.2,10.2s0-5.7,8.2,4.4,4.5,8.1,5.7,14.4.4,11.4,0,24.7-3.7,18.4.8,17.2,11.8-.8,10.2-3.9-6.9-10.2-6.9-15.7.7-26.6-1-27.4-3.9-1.6,1.8-6.7,10.2-7.8,13-8.2,2.9,5.5,2.9-.4-.4-10.2,2.4-11.4,3.7-3.1,7.3-3.9.8,0,5.3,0,1.6,3.5,7.3,2,2.4-1.6,5.7.4,9.8,3.9,10.2,2,3.7-3.9,7.3-1.6,7.7,9,11,7.8,7.7-1.2,10.6-2.7,15.1-23.9,13.4-27.4-31.4-52.5-34.6-52.5-13,0-17.1-.8a73.62,73.62,0,0,1-12.2-3.9c-1.5-.7,4.5-.4-.5-.1-5.8.2-6-4.6-6.8-1s-.8,11-3.3,12.9-11,7.7-13.4,10.6c-3.1,3.6-4,20.1-5.7,18.8s-13.4-18.8-15.5-23.5A39.6,39.6,0,0,1,1315,106Z"/><ellipse id="7c7c84a2-1b30-46bb-83f1-6c38b886f616" data-name="path4275" class="e4e1a515-7b4f-40ec-a9e6-d3490ac64e5c" cx="1297.3" cy="201.24" rx="11.2" ry="5.9"/><path id="2b20f05c-cd5a-4488-af8e-d175d464b325" data-name="path6954" class="2753ef15-0dda-4836-a7dc-6425c1c7b7ff" d="M1003,283.24c1.8,31.5,1.4,31.9,1.8,31.5s13.2-.4,12.8-2.2-2.4-4.1-1.2-7.4,5.5-1.2,1.8-6.9-9.8-15.3-11.6-15.3-5.3-2-5.3-2"/><path id="690e43b5-d5c6-4a65-b082-666d098f8e08" data-name="path4258" class="a8018a12-522b-43dc-b0d9-15f2eba55362" d="M1508.4,720.64c-5.3-9.9.5-4.5,3.7,1.4-.7,3.3,4.6,14.7-.9,14.7-5.8,0-25.4,1.7-30.5,0s-5.2,1.7-5.2-1.7-3.3-10.1,2.9-12.2c6.8-2.3,5.5-2.4,8.1-11.1,3.3-11.2-2.9,7.8,9.2,8.3s12.7.6,12.7.6Z"/><path id="979765dc-e8e5-4b1a-a6b0-d6a4074b2460" data-name="path4256" class="c463afcf-d3ac-415f-b653-5f0010e806d5" d="M1425.1,735.84c2.9-7.2,2.7-4.3,4.8-5.5,3.6-2,7.6.2,12.2-2s15.3-16,15.6-10c.2,3.9,23.6-3.9,23.6,0s3.1,19.4.6,17.7c-2.2-1.5,1-.5-13.3-.3l-43.8.8"/><path id="5f2d4d8f-9bc6-442f-a5f4-ff37f6263111" data-name="path4196" class="1878a02b-1652-4707-b166-0a5498475527" d="M1284.8,617.54c11.5,10,6.9,4.4,11.5,8.9s1.2,8.3,1.2,8.3,5.8-2.8,1.7-.6-17.9,7.2-25.9,11.6-18.4,9.4-17.3,12.2,19.6,21,19,17.7-1.7-6.1.6-8.9,36.3-19.4,41.5-23.3,6.3-6.1,6.3-9.4-2.3-9.4-3.5-12.2-13.8-21-15.6-18.8-19.5,14.5-19.5,14.5Z"/><path id="1fdc7b71-373b-4bc2-bd23-7b563c0fdb33" data-name="path4198" class="c55f9b30-ed44-4f80-8cd0-970e24d634e0" d="M1238.7,609.84c-4.6,27.1-8.6,33.2-4.6,33.2s34.6,5,36.3-2.2-.6-25.5,3.5-21.6,10.9,5,13.3,8.9l4,6.6s32.9-16.1,30-19.4-28.8-34.3-31.1-31.6,4-2.2-17.3,10-7.6,6.7-34.1,16.1Z"/><path id="2988edac-1f10-4234-a494-19d17efa53b7" data-name="path4200" class="5f2384be-cc3d-4c68-a148-3ddc0229853f" d="M1220.8,689.54c3.5,9.4,6.3,12.2,8.6,12.2s11-6.1,9.8-2.2-.6,9.4,1.7,14.4,9.8,10,9.2,16.1,1.7,7.2-.6,6.6-17.9,1.7-21.3-.6-23.6-37.1-21.9-39.3,14.5-7.2,14.5-7.2Z"/><path id="fc5dfd8e-82b2-404c-86fc-c49cb7c10d83" data-name="path4202" class="5f2384be-cc3d-4c68-a148-3ddc0229853f" d="M1251.3,668.54c21.3,28.8,17.3,32.7,21.9,28.8s8.6-6.1,8.6-10-5.8-5.5-5.8-13.3,11.5-14.4,4-12.7-12.1,4.4-15.6,1.1-5.8-7.2-6.3-3.3-6.8,9.4-6.8,9.4Z"/><path id="927b915e-063f-453b-9537-21d1af1fac61" data-name="path4204" class="1878a02b-1652-4707-b166-0a5498475527" d="M1231.8,518.94c-2.9,5-5.8,9.4-2.3,13.3s6.3,7.8,13.3,8.9,39.2,7.2,43.8,4.4,24.8-19.9,27.7-23.8,8.1-13.8,11-15.5a18.29,18.29,0,0,1,6.9-2.8c2.9-.6,9.8-2.8,10.4-8.9s-4-20.5-6.3-16.6-5.8,15.5-8.6,15.5-5.2,2.2-5.2-2.2,4-14.4.6-12.2-6.9,10.5-6.9,12.7,5.2,6.6,2.3,9.4-19.6,15.5-28.2,21-6.9,5.5-11.5,5-32.3-11.1-36.9-10.5a72.64,72.64,0,0,0-10.1,2.3Z"/><path id="eb74449b-40e4-424b-aace-6e80bf36f798" data-name="path4206" class="1878a02b-1652-4707-b166-0a5498475527" d="M1257.7,498.44c25.4-13.3,16.7-3.9,25.4-13.8s27.1-38.2,28.2-37.7-.6,1.7,4.6,2.8,6.3-2.2,5.2,1.1-17.9,33.8-20.2,36.6-27.7,27.7-31.1,24.9-12.1-13.9-12.1-13.9Z"/><path id="8ea59a9e-b2f8-49af-9581-dafb44b81da6" data-name="path4208" class="7f8f184d-566e-40a1-950b-56155fa3aec8" d="M1310.3,446.64c-2.7-10.6-4.1-4.4-2.7-10.6s4.1-14.3,8.8-14.3,9.5,2.5,9.5,7.5-4.1,2.5-4.1,6.8,1.7,7.4,1.4,11.2l-.4,3.7h-5.1c-2.3,0,0,0-2.3-.8s0,0-2-1.1,0,.1-3.1-2.4Z"/><path id="8b753902-1de2-4ff1-9b25-2da57dd833c5" data-name="path4210" class="e65ac6ed-0071-4376-ad41-1c7560d644f2" d="M1235.2,608.14c-1.2-31,.6-37.1-2.3-51s-8.6-23.3-6.9-30.5,9.8-20.5,12.1-19.9,6.3,2.8,10.4,2.8,8.6,3.3,8.6,0-5.8-14.4-1.2-11.1,11.5,11.1,15.6,17.7,9.8,12.2,6.3,11.1-29.4-10.5-32.9-10.5a107.28,107.28,0,0,0-13.8,1.1c-2.3.6-3.5,6.6-3.5,8.9s0,6.1,4,8.9,12.7,7.2,17.9,7.2,17.9,3.3,22.5,3.9,12.1-2.2,12.1-.6,5.2,36,5.2,37.7-16.1,7.8-20.2,11.1-24.2,14.4-27.1,14.4a37.32,37.32,0,0,1-6.8-1.2Z"/><path id="d152b3ca-6a8b-42fd-bc67-3b636d6efe30" data-name="path4212" class="1878a02b-1652-4707-b166-0a5498475527" d="M1238.7,507.94c-.6-19.9,2.3-21-.6-23.3s-6.9-2.8-5.2-7.2,8.1-6.6,9.2-4.4,5.2,12.7,4.6,10-4-7.8-4-13.3-5.8-3.3,0-8.3,11.5-10,12.7-7.8,9.8,24.4,12.1,27.7,4.6,10,2.3,10.5-13.3.6-15,3.3,7.5,15,4,15-20.1-2.2-20.1-2.2Z"/><path id="097b09f8-0a32-49f5-b88f-7e6f2fb69b56" data-name="path4214" class="5c0d3c1b-9de3-4852-bffa-272d83af1c35" d="M1236.4,491.84c-11-10-4-.6-11-10s-11-19.4-7.5-22.7,15.6-18.3,13.8-10.5-8.6,15.5-1.7,7.8,16.7-19.4,15.6-14.4-6.3,6.6-1.2,5,7.5-9.4,8.1-5.5,2.9,11.1.6,12.2-13.3,7.8-13.3,10.5,7.5,23.3,6.3,19.9-2.9-12.2-5.8-12.2-6.3,3.3-6.9,6.1,4.6,6.1,4.6,8.9v7.8"/><path id="8376aa96-99c9-4796-82eb-0a4489c1ddb4" data-name="path4220" class="c4be6b37-46b3-4ba2-9dd2-578b91ce7f4e" d="M1208.7,700.14l20.8,34.9h18.4v-3.9l-16.7,1.1-19.6-34.9Z"/><path id="966e5b06-6943-4993-99e4-61ad16810515" data-name="path4222" class="511c6f94-308d-424a-85f3-9ee4f8dd4242" d="M1255.4,669.64l18.4,26,4-3.9-20.8-23.8Z"/><path id="6c6abfb9-e1c7-4351-91f1-88aa628940d4" data-name="path4226" class="46d70473-a6ce-46ec-85fa-ab95b0da9db3" d="M1231.8,716.74c8.1-7.8,9.2-1.1,9.2-1.1"/><path id="c96a9bd5-80f7-4e58-9b38-849f56affd66" data-name="path4228" class="46d70473-a6ce-46ec-85fa-ab95b0da9db3" d="M1273.3,679l2.9-3.3"/><path id="f0803afe-a2c1-4877-a703-198af95aeff5" data-name="path4234" class="229f21db-eceb-469d-b0eb-193e063548a9" d="M1231.8,733.64c17.9,0,17.9,2.1,17.9,0s-.7-11.4-7.4-11.4-9.1,1.4-10.5,11.4Z"/><path id="374b5b24-f3ac-4efb-bf98-fd53b9f4d39b" data-name="path4236" class="511c6f94-308d-424a-85f3-9ee4f8dd4242" d="M1268.7,685c3.7-4.8,2.7-4.1,3.7-4.8s8.5,2.8,8.2,6.2c-.2,3.2.2,6.1-3.7,6.9C1270.1,694.84,1268.7,685,1268.7,685Z"/><path id="6794040a-f21d-4348-bd20-06a05102e2a1" data-name="path4194" class="1878a02b-1652-4707-b166-0a5498475527" d="M1242.1,643c0,13.3,2.3-1.1,0,2.2s-9.8,19.9-12.7,27.1-12.1,23.3-11,28.2,21.9,13.8,21.3,10-3.5-8.3-.6-14.4,18.4-34.9,19-37.1,2.3-1.7,4.6-10,4.7-8,.6-7.2c-4.9,1.1-21.7,1.4-21.2,1.2Z"/><path id="5700d78f-50e6-4f94-8cd5-97a848123a31" data-name="path4244" class="d810f11d-0e08-4f40-869f-cba3c950252a" d="M1455.4,543.34c9.8,20.5,5.2,8.3,9.8,20.5s4.6,10.5,4.6,16.6-12.1,32.7-9.2,32.1,37.5,0,41.5,0,12.1,2.8,12.7-5,2.9-22.2,1.7-29.4-1.7-27.1-5.2-36.6-4-19.4-9.8-27.1-15-15.5-17.9-15.5-35.7,18.8-31.1,21,12.1,5.5,12.1,9.4,2.3,7.2-.6,9.4c-2.8,2.4-8.6,4.6-8.6,4.6Z"/><path id="73190fe3-ae47-494d-a5c2-325b69428bd6" data-name="path4246" class="3f1947c0-9b47-48a7-8430-365af3a6d99c" d="M1412.7,456.94c6.1-14.6,8.6-12.6,8.1-19.4-.3-4.2-1.7-2.8-3.5-.6s-4,15.5-7.5,8.9-7.5-18.8-12.1-18.3-6.3,6.6-6.3,10,1.2,16.1,4.6,19.4,3.5,0,3.5,3.3,9.2,38.8,9.2,42.1,2.9,8.9,5.8,12.2,11.5,11.1,16.1,15,20.2,15.5,23.6,13.8,12.1-1.1,12.1-5,.6-11.6-4-14.4-5.8-.6-13.3-6.1-20.8-10.5-23.6-16.6-12.7-44.3-12.7-44.3Z"/><path id="56083741-a939-4f78-bcf2-cae4718c898f" data-name="path4248" class="3f1947c0-9b47-48a7-8430-365af3a6d99c" d="M1447.3,437.54c-14.1-13.4-9.2-6.3-12.4-10.2-.8-.9-1.4-5.3,3.2-1.9s9.2,9.4,9.8,5-4-21,0-21,11,4.4,11,8.3-1.2,15,2.9,18.8,13.3,11.6,9.2,11.1,0-2.2-4-.6-1.2,4.4-4,1.7,1.7-4.4-2.9-2.8S1462.9,456.34,1447.3,437.54Z"/><path id="20c23dad-ae72-4d9b-91fc-d123bb8def36" data-name="path4250" class="3f1947c0-9b47-48a7-8430-365af3a6d99c" d="M1477.3,491.84c12.7-17.7,12.7-21.6,12.7-17.7s2.3,6.1,4,12.2,8.6,27.7,4.6,24.4-10.4-12.2-15-12.2-2.8,6-6.3-6.7Z"/><path id="abef2cf8-5e72-453c-9ef0-122a871a5a7f" data-name="path4252" class="3f1947c0-9b47-48a7-8430-365af3a6d99c" d="M1464.6,507.34c-4-7.2,0-5.5-4-7.2s-13.3-1.1-13.8-3.3,1.2-12.2,1.2-16.1.6-12.2,2.3-16.6-1.2-7.2,1.7-4.4,25.4,33.8,25.4,33.8-2.9-2.8,0,1.1,5.8,1.7,2.9,3.9-14.4,10.5-14.4,10.5"/><path id="1f56ee43-bf9b-4949-813b-a7ef3c4f34a7" data-name="path4254" class="685d8c28-86fa-4a63-b007-1c217bb5ee18" d="M1425,737.24c59.4-1.2,58-2.4,58,0s1.9,6.6,0,6.6-57,3.6-57.4-.6Z"/><g id="d8b17d30-d8aa-4e0e-8df9-9d9ac230ac3c" data-name="path4260"><ellipse class="4b01f6c2-7821-4a1f-8938-a3be980b5806" cx="1368.9" cy="380.74" rx="27.1" ry="26.3"/><ellipse class="0baf9973-2a4f-47eb-b926-602bdefdad9a" cx="1368.9" cy="380.74" rx="27.1" ry="26.3"/></g><path id="7c5ab4e9-0975-440f-a92c-1029d4235ace" data-name="path4262" class="46d70473-a6ce-46ec-85fa-ab95b0da9db3" d="M1344.1,373.84c30.5,17.2,23.1,33.2,23.1,33.2"/><path id="2fd17eb8-4d42-4c0f-b101-36cfa3099dbd" data-name="path4264" class="46d70473-a6ce-46ec-85fa-ab95b0da9db3" d="M1354.9,359.14c40.9,19.4,31.1,41,31.1,41"/><path id="2513d9ee-b6ae-499b-8d95-e55cecf14bb8" data-name="path4266" class="46d70473-a6ce-46ec-85fa-ab95b0da9db3" d="M1342.9,385.54c42.1-27.1,51.3-13.3,51.3-13.3"/><path id="336b91ca-424e-4419-b701-dd8f6afe1da5" data-name="path4268" class="46d70473-a6ce-46ec-85fa-ab95b0da9db3" d="M1352,400.54c31.7-21.6,42.7-13.3,42.7-13.3"/><path id="68751a6d-4db6-4b69-887b-ec408fa36914" data-name="path5804" class="50d765ae-bf30-43f9-9ecd-359f2b1b56e2" d="M1488.8,471.34c.6-8.9,4.6-.6.6-8.9s-1.7-4.4-9.8-13.3-3.5-15-8.1-8.9,5.2,13.8-4.6,6.1-9.8-13.8-9.8-7.8,6.3,9.4,0,6.1-7.5-9.4-6.3-3.3,3.5.6,1.2,6.1-2.3.6-2.3,5.5-4-1.1.6,5,3.5,19.4,3.5,19.9,1.7-5,4.6-5.5,2.3,0,5.2,6.1,7.5,14.4,10.4,16.1c2.7,1.7,14.8-23.2,14.8-23.2Z"/><path id="4754a8ed-97f1-4335-85e8-0ed872ad9f65" data-name="path4238" class="3f1947c0-9b47-48a7-8430-365af3a6d99c" d="M1451.4,636.64c-11.5,33.2-11.5,28.8-11.5,33.2s15,55.4,18.4,57.6,13.4-.2,17.3-2.2c3.5-1.9-1.8,2.1.9-.6,3.5-3.4-4.4-17.6-7.5-28.2-1.7-5.9-7.2-17.1-5.5-20.5s6.9-24.9,8.6-19.9,14.4,61.5,15,65.4,6.5,6,11,4.4c3.2-1.2,9.9-2.8,10.7-1.1,1.7,4.1-14.7-60.4-13.5-67s12.7-16.6,5.8-16.6-51.9-5.5-51.9-5.5"/><path id="20a3cf8b-aeb2-4816-ad24-470f4ccce440" data-name="path4240" class="3e7eb95d-e869-4a30-a375-23f8f9e73491" d="M1461.2,611.44c-17.9,41-20.8,41.5-17.9,41s50.7,2.8,52.5.6,20.8-46,15.6-44.9-11.5,5-16.7,5-33.5-1.7-33.5-1.7Z"/><path id="8ab7ff84-8270-4b82-be58-dd25f81ad993" data-name="path4242" class="a0b68546-8ca2-424d-976c-97ea18fdddee" d="M1497.8,613.54c-21.8,39.9-30.8,39.9-21.8,39.9s21,11.4,24.8,0,15-46.4,11.3-45.6-14.3,5.7-14.3,5.7Z"/><path id="f3b2201a-04a3-42ef-a060-6960b8a43042" data-name="path4254-3" class="425adf63-220c-4a84-8c2a-64e5ca20b112" d="M1482.8,736.14c32.3-1.1,32.3-3.4,32.3-1.1s.9,8.5,0,8c-1.2-.6-32.3,1.6-32.3-.9Z"/><path id="84543c9d-f636-42cb-b75b-712db451f27f" data-name="path5823" class="5d355c1a-ebc4-45f6-aa2e-01c4782b787b" d="M1425,736.64c1.6-4.7-.2-3.7,1.6-4.7s.2-1,2-1.2,3.5-1.6,3.5-.4v4.5c0,2.3,2,2.2,0,2.4a60.43,60.43,0,0,1-7.1-.6Z"/><path id="3389eecd-012d-40bb-b6d4-4e735b7eb4e8" data-name="path5825" class="2b332295-b6d1-4377-b8f9-43de86c50f91" d="M1449.5,722.14c5.7,4.5,3.4,7.5,3.4,7.5"/><path id="fcc7651a-2144-4d71-98a6-8bf00ce0a673" data-name="path5825-6" class="2695116a-9da6-4ff1-a283-d952df014f67" d="M1444.7,725.94c5.8,3.2,3.5,5.3,3.5,5.3"/><path id="a85e02c2-5c30-43a0-9b57-ecc081e97bca" data-name="path5825-6-7" class="2695116a-9da6-4ff1-a283-d952df014f67" d="M1481,720.44c5.7,3.4,3.3,5.4,3.3,5.4"/><path id="ae9588b7-07e1-4657-bc53-113d47480d21" data-name="path6883" class="a88a5ca8-4242-4607-9e11-f55853157a3a" d="M1047.6,404.24l39.1,65.8-26.9,73.6-14.7-6.3,19.6-66.6-43.2-46.2-9.8,56.4-7.3,66.6H988.9l4.1-76-3.3-64.2Z"/><path id="24e0c72e-eedb-4518-8c83-67c9a8514521" data-name="path6893" class="a1b21dea-119b-48cd-937a-7f0e91e928b0" d="M1059.8,333.74c11.4,19.2,11,10.2,11.4,19.2s-1.2,16.1,1.2,15.3,12.2-.8,12.6-3.5-.8-12.5-2.9-16.1-9-19.2-11.8-24.3-1.2-8.2-2.9-5.1C1065.9,322.44,1059.8,333.74,1059.8,333.74Z"/><path id="8425a0a2-6373-45ff-9eca-bcfa28f14f1a" data-name="path6895" class="5cdd2be9-0c9b-41c7-8551-a881aec8846a" d="M993.8,311.84c21.6-4.7,17.5-7.4,21.6-4.7s11.4,7.1,17.5,3.9,3.7-7.4,9.4-4.7,27.3,7.1,26.1,10.6-11.4,23.1-12.2,27-8.6,18.4-8.6,23.5-2.4,7.1-2.4,10.6,8.2,26.6,5.3,26.6-62,3.5-62.4,3.1.8-9.4,4.9-20.8,6.5-18.4,6.5-23.1-1.2-25.9-2-33.7a141.79,141.79,0,0,0-3.7-18.3Z"/><path id="3c61c72c-9c77-43b1-8544-ea476e07c3d7" data-name="path6897" class="c0020b0d-54d2-4a93-a7f5-191ccd7be0d5" d="M995.4,382.74c56.7-74.4,55-74.4,56.7-74.4s11.8-.8,6.9,4.7-38.3,50.1-44.8,59.1S1005.6,394.44,995.4,382.74Z"/><path id="65b3e9e5-afc2-4582-8a75-e1b22ad3227b" data-name="path6899" class="34fb9b6e-d2d8-404c-be43-a9e2931dbd49" d="M989.1,548.34c0,9.4-1.7,9.4,0,9.4s32.9,2.2,32.9-.6-5.2-6.1-11.5-8.3S1019.6,545,989.1,548.34Z"/><path id="d8537eb0-d4a8-459a-8a1a-bf7db83a614f" data-name="path6901" class="34fb9b6e-d2d8-404c-be43-a9e2931dbd49" d="M1043.8,536.74c0,7.8-4,7.8,0,8.3s28.2,10,30,9.4,5.8,1.7,1.2-3.9,4-5-13.8-10-17.4-3.8-17.4-3.8Z"/><path id="05d2b6c4-2e5a-4f34-bd2c-efbeb63a0141" data-name="path6903" class="a58b1118-9d67-4e8f-bcc6-32ae2bf393fc" d="M957.4,387.14c15,0,.6-1.1,15,0s19.6,1.1,23.1-2.2,5.2-11.6,10.4-13.3,21.3-3.9,19,1.1-7.5,6.6-5.8,11.1,15,9.4,11.5,12.2-9.2.6-9.2,3.3-5.2,5,0,6.6,12.7,2.2,11.5,5-5.2,6.6-10.4,8.9-20.2,4.4-25.4,6.1-5.2,3.3-14.4,12.2-16.7,14.4-23.1,12.7-18.4-5-23.6-18.3-11.5-15.5-6.3-26,14.4-16.6,27.7-19.4Z"/><path id="e97d4629-f575-4080-800c-cd1696313493" data-name="path6905" class="46d70473-a6ce-46ec-85fa-ab95b0da9db3" d="M965.2,405.74l8.6,18,9.2-3.3-1.4-3.9-6.1,2.8-4.3-10.8,5.2-1.7-2.9-4.7Z"/><path id="07b4d3f7-6768-4d48-8521-1901a3a89cbd" data-name="path6907" class="1f48cfb8-bad5-43bb-a1da-f9e74c91f517" d="M971.5,408.24c4.3,10.8,3.2,11.6,4.3,10.8s109.8-45.7,114.1-46.3,1.7-3.3,4.3-.6.6,4.2,2.6,2.8,19.9-10.8,19.9-12.7,4.6-11.1,2-11.1-31.7,5.8-32.3,7.5,1.2,3-.3,4.2c-1.3,1-114.6,45.4-114.6,45.4Z"/><path id="e00c3a6b-8aea-4979-968f-a462d9f20ecd" data-name="path6911" class="46d70473-a6ce-46ec-85fa-ab95b0da9db3" d="M1089.1,356.84c-.2-.6.7-.6-.2-.6s-.5.4-.9,0a.85.85,0,0,1,.2-1.4c.6-.2,2.5-.8,2.9-.5s.9,1.1.4,1.1a2,2,0,0,0-1.2.4c0,.1.4.5,0,.6a5.48,5.48,0,0,0-1.2.4Z"/><path id="79dec014-7f1e-48e1-a86d-5c64fd0164d6" data-name="path6911-5" class="46d70473-a6ce-46ec-85fa-ab95b0da9db3" d="M1095.8,355.14c-.2-.6.7-.6-.2-.6s-.5.4-.9,0a.85.85,0,0,1,.2-1.4c.6-.2,2.5-.8,2.9-.5s.9,1.1.4,1.1a2,2,0,0,0-1.2.4c0,.1.4.5,0,.6a5.48,5.48,0,0,0-1.2.4Z"/><path id="8d5afead-3813-41c1-890e-7c908ee27edf" data-name="path6911-3" class="46d70473-a6ce-46ec-85fa-ab95b0da9db3" d="M1102.6,353.54c-.2-.6.7-.6-.2-.6s-.5.4-.9,0a.85.85,0,0,1,.2-1.4c.6-.2,2.5-.8,2.9-.5s.9,1.1.4,1.1a2,2,0,0,0-1.2.4c0,.1.4.5,0,.6a5.48,5.48,0,0,0-1.2.4Z"/><path id="467fc5d6-3611-4405-81e8-85c0e620b621" data-name="path6911-56" class="46d70473-a6ce-46ec-85fa-ab95b0da9db3" d="M1110.4,352c-.2-.6.7-.6-.2-.6s-.5.4-.9,0a.85.85,0,0,1,.2-1.4c.6-.2,2.5-.8,2.9-.5s.9,1.1.4,1.1a2,2,0,0,0-1.2.4c0,.1.4.5,0,.6a8.34,8.34,0,0,0-1.2.4Z"/><ellipse id="672c739c-6d7d-44ce-a89b-9b3e3a0e6ba1" data-name="path6940" class="ed36ec28-0e14-48cc-9766-db2d77c876a5" cx="972.4" cy="436.34" rx="1.3" ry="1.5"/><ellipse id="dc937a25-924d-44a0-90eb-2348eccce3aa" data-name="path6942" class="f5526e74-44ce-4dd7-b4f6-0f67d872db26" cx="967.3" cy="431.84" rx="0.7" ry="0.8"/><path id="1a8f9dc1-cb58-4051-80c4-db904951ab46" data-name="path6948" class="a1b21dea-119b-48cd-937a-7f0e91e928b0" d="M1016,295.34c2.2,4.7,2.2,1.8,2.2,4.7s-3.1,5.7-1.4,7.1,4.3,5.1,8.4,5.1,5.7,0,8.6-1.2,6.7-4.7,6.5-6.1-2.4-5.9-2.4-6.9,2-.2,4.3-5.7,2.9-13.9,3.9-14.5,4.5-1.4,4.5-3.1-.2-4.9-1.2-5.7,1.4-.2-1.2-.8-2.4,2.5-2.6-.6.8,1.2-1.2-4.9-11.6-10.6-14.9-10.6-14.9,2-16.1,4.1-5.5,9-6.1,10.6a31.2,31.2,0,0,1-4.1,6.3c-.8.8.2-1.6-.8.8s-2.2,3.7-1,5.7,1.2,2.5,3.5,2.9,2,.8,3.7,3.3c1.3,2.7,4.4,5.8,7.4,9.5Z"/><path id="bf97158b-506e-4f1e-8bb9-6dcd5b9e37ec" data-name="path6952" class="900deaeb-3289-4802-8864-eb8425b555e0" d="M1002.4,272.44c2.9,2.9,4.3,6.1,4.5,4.5s3.1-11,4.1-12.7,4.3-7.1,6.1-7.2,4.1-1.4,6.5-1.4,8.4,0,10,1,6.3,3.7,7.3,5.9,3.7,10.6,3.7,9.4,2-3.9,2.9-4.7,1.6,3.7.8-.8-2-10.2-3.9-13.3-2.2-7.6-9-10.4-15.5-4.5-18.7-3.1-9.8,5.7-11,8a21.43,21.43,0,0,1-1.2,2.4,34.16,34.16,0,0,0-3.3,12.7c-.1,2.7,1.2,9.7,1.2,9.7Z"/><path id="aa98f11a-8910-4b49-8930-2e9cba1d25f4" data-name="path6956" class="2753ef15-0dda-4836-a7dc-6425c1c7b7ff" d="M1045.6,277.94c-1.2,6.1-1.2,9-3.1,13.3s-5.5,5.1-4.9,7.2,1.4,5.1,3.1,6.9,4.3,2.4,7.1,3.3,7.3,4.5,6.9,2-5.7-34.1-6.7-33.5a7.53,7.53,0,0,1-2.4.8Z"/><path id="81c18204-51fc-42f4-846c-b7d80816907a" data-name="path6891" class="a1b21dea-119b-48cd-937a-7f0e91e928b0" d="M1076,371.24c0,2.6-1,8.6.6,7.9s7.3-4.6,6.5-2.6-3.6,9.3-4.5,11.4-3.3,6.4-5,6.9-3.9.6-7.1-1.5-6.2-3.5-7.8-5.1-3.7-2.9-3-3.6,1.4.4,2.3-.6,1.9.3.9-1-1.7-1.7-1.2-2.5,2.2.7,3.2.3,1.4.3,1-.4-2.4-2.4-2.4-3.5.4-2.2,1.3-1.5,2.9,4,3.9,4,1,.1,1-.6-2.7-6.8-1.9-7.6a1.67,1.67,0,0,1,2.7.8c.3,1.2,3.9,9.3,4.5,9.1s2.3-6.5,2.9-7.9A4.34,4.34,0,0,1,1076,371.24Z"/><path id="058d58b4-fa6d-4642-8d52-7aac65488594" data-name="path6889" class="a1b21dea-119b-48cd-937a-7f0e91e928b0" d="M974.8,390.34a18,18,0,0,0,.6,5.3,86.07,86.07,0,0,0,3,10c.6,1.4,2.6,6.4,3.4,7s1.6.8,1.6.3-1.3-6.2-1.3-6.7,1.9,2.4,2.2,3.1a10.42,10.42,0,0,0,1.8,3.3c.5.3,1.7,1.3,1.7.6a6.48,6.48,0,0,0-.6-3.1c-.6-1.1-1.8-2.4-1.8-4.5s-.3-2.7,0-2.1,4.2,7.5,4.7,8,2.1,1.2,2.1.6a8.24,8.24,0,0,0-.4-2.6c-.3-.6-3.8-5.8-3.8-6.4s-.1-1.7.2-1.3,3.9,5.1,4.5,5.5,2.3.7,2.2.1a14.27,14.27,0,0,0-2.4-4.6c-1.4-1.8-4.2-5.5-3.9-6s2,.1,2.7.5,1.7,1.8,2.6,1.7,1.7,1.1,1.2-.3-.5-2.7-2.6-4.4a24.65,24.65,0,0,0-5.4-3.7c-2.4-1.2-3.6-1.9-4.1-1.9s-4.7-23.4-4.7-27.3,5.2-16.1,8.6-21,10.4-9.1,10.1-11.1-1.4-17.8-3.5-16.3-11.8,9-12.6,11.4-11,20.8-11.8,26.6-3.3,9.4-2,14.1,7.7,25.2,7.7,25.2Z"/><path id="0b104b4e-3ab5-4e02-898c-95d792d3f970" data-name="path7008" class="bca95c12-eac6-4191-84a2-c4e4b92ffacc" d="M1309.7,74.44c3.3,5.5,3.3.4,3.3,5.5s-2.9,3.5-2.9,10.2,4.1,8.6,6.5,11.8,2,5.1,6.1,3.9,22-8.6,11-3.9-12.6,2.7-10.6,4.7,11.8,8.6,8.6,6.7-6.5-6.3-9.8-7.1-3.7-6.3-5.7-2.7-2,3.5-2,5.9,16.7,33.3,18.7,29.8.8-8.2,3.3-12.9,14.3-14.1,15.5-16.1,4.5-11.8,3.3-14.5-2.9-3.1-4.9-4.3-2.4,3.1-2.4-1.2,0-9-2.4-12.1-9.4-5.1-14.7-7.1-8.6-7.1-11-5.9-6.5.8-7.7,3.1a24,24,0,0,0-2.2,6.2Z"/><path id="ca09f324-92d4-4001-9c5a-4574c9c5f7b8" data-name="path7012" class="7ee6f2f0-73d3-4dd9-9a67-530a330f6f60" d="M1255.1,257c-10.6-11.4-14.3-5.5-14.3-11.4s-.8-23.6.8-26.7,4.5-5.9,11.4-7.1,7.7-5.1,6.9-1.2-1.2,6.7-3.7,9.8-4.5,11-5.7,16.1,4.6,20.5,4.6,20.5Z"/><path id="bf034bb5-70f3-4ab8-9955-e024bc2a54f2" data-name="path7018" class="17835a5e-d052-4015-9039-4d37b0dbe540" d="M1351,268.34c0,9.8-2.8,7.3,0,9.8s33,4.7,41.2,4.4,21.1-1.7,28.8-7.5c3-2.3,8.7-5.5,5.2-9.4-3.6-4.1-2.6-11.5-3.7-7-1.3,5.5-10.3,9.2-15.1,9.6s-22.5,2.4-27.7,2.9-3-1.8-28.7-2.8Z"/><path id="bada9620-fb8c-40b1-aef4-39266810ed2c" data-name="path7016" class="d8af631a-4836-4000-b8d1-7655aac39df2" d="M1259.9,260.44c-7.4,1.4-8.6-1.1-10.6,2.5s-2.5,9.2.4,11.3,14.3,5,20,5,40.4,1.8,46.2-.7,13.1-3.9,11.4-8.1-2-8.5-5.7-6.7-9.8,5-15.5,4.2-19.2.4-24.5,0-6.7-2.6-16.6-2.1c-1.8.1.8,1.2-1.6-2.4Z"/><path id="bd1d7d14-c4da-452c-847f-97b10f162fa6" data-name="path7014" class="d8f3a71a-7573-4ecd-b469-fe43c75766a9" d="M1330.3,250.94c8,.1,11.6-7,12.3,4s7.2,16.6,3.7,18.2-7.4,9.3-8.7,3.2c-2.2-10.7-11.3-11.6-14-11.8C1294.7,261.64,1312.6,249.34,1330.3,250.94Z"/><path id="5765b06d-8a2e-4c94-9f9a-da219579590a" data-name="path7020" class="9335f575-2f1b-408c-a8a5-68cee7a63608" d="M1253.8,254.64c6.9,7.1,13.4,13.3,17.1,14.1s34.6,2.4,38.7,0,11.8-9,12.6-11,1.6-4.7,2-13.7,2.6-27.8,1.2-32.5-.5-6.8-1.2-4.7c-1.1,3.4-.4,4.7-5.3,7.4-4.6,2.6-.9,2.7-14.8,3.9-9.4.9-11.6-.4-18.8-2s-13.7-10.2-13.7-14.1,6.9-9.8,3.3-7.4-11,9-11.8,11.4-4.4,4-5.6,6.4-1.8,5.9-3.4,9.4-5,11.2-4.9,15.5c.1,4.1-.3,6.2,1.6,12.5,2.1,6.3,3,4.8,3,4.8Z"/><path id="21876c97-1d7d-413b-b97c-c2d53f15ad0b" data-name="path7022" class="794493b9-9e98-462f-b5dc-28a179ad7b58" d="M1413.2,188.84c15.1,18.4,11.4,11.4,15.1,18.4,2.6,5,4.5,10.5,4.5,16.1-.1,10.5-5.7,25.1-9,30.2s-8.6,12.5-8.6,12.5c-.9,0,3.3-.8,0,1.2-5.2,3.1-32.2,4.9-38.3,3.1s-22.4,0-25.7-4.7-10.2-7.1-13.9-13.7-9-12.1-8.6-19.2-3-27.3,1.5-26.1a55.5,55.5,0,0,0,19.3,1.8c7.3-.8,26.1-4.3,33-5.5s21.2-7.1,24.9-9a18,18,0,0,0,5.8-5.1Z"/><path id="4ae421b9-206f-4d20-8d57-b20a0a742f1f" data-name="path4215" class="b345e74f-dd9d-45b0-a9b4-bb07ed081dde" d="M1309.8,86.14c0-7.8,3.5-4.4,0-7.8s0,1.1-3.5-3.3-3.9-3.3-3.9-8.9,1.5-6.3,3.5-10,11.2-10,13.9-12.2,5.8-1.9,8.5-2.2,3.1-1.9,2.7-.4a16.27,16.27,0,0,1-5.8,7.4c-3.5,2.6-6.2,3.7-6.2,8.5s5.8,5.9,1.5,6.7-9,2.2-9.8,4.8-3,3-1,5.6,3.5,3,3.5,5.6-3.4,6.2-3.4,6.2Z"/><path id="66e9874d-739a-4051-92a6-4f9f91f05229" data-name="path4219" class="46d70473-a6ce-46ec-85fa-ab95b0da9db3" d="M1283.5,141.74c8.5,15.6,3.1,19.6,3.1,19.6"/><path id="09ce7c20-42d3-43f2-b4f8-76426d2f5152" data-name="path4221" class="46d70473-a6ce-46ec-85fa-ab95b0da9db3" d="M1286.2,135.84c18.9,35.2,7.7,42.3,7.7,42.3"/><path id="71894d0b-b8e7-4b52-882d-0c134ce5ef1b" data-name="path4223" class="46d70473-a6ce-46ec-85fa-ab95b0da9db3" d="M1378,127.34c3.1,24.5,17.7,21.9,15.4,25.6s-5.8,6.7-5.8,10,2.7,1.1,0,3.3-8.5,2.6-10.4,7l-1.9,4.4"/><path id="39ca0878-6f1d-40b7-957a-02252159a773" data-name="path4225" class="46d70473-a6ce-46ec-85fa-ab95b0da9db3" d="M1251.1,171c14.7-10.4,21.6.7,21.6.7"/><path id="f2bcdd74-8ec7-46ba-a8a1-24eb99d4b719" data-name="path4227" class="46d70473-a6ce-46ec-85fa-ab95b0da9db3" d="M1251.6,251.14a252.25,252.25,0,0,0,20.2-48.2"/><path id="0e2bf2d6-c83f-4d88-aa15-c004309eed8e" data-name="path4229" class="46d70473-a6ce-46ec-85fa-ab95b0da9db3" d="M1258.4,257.94c13.4-51.9,21.8-44.8,21.8-44.8"/><path id="ad042681-7ba4-4062-84a8-3350d31dc753" data-name="path4231" class="46d70473-a6ce-46ec-85fa-ab95b0da9db3" d="M1284.9,216c-7.4,10.2-4.4,5.2-8.2,11.5a42.15,42.15,0,0,0-5.7,14.2c-1.1,4.5-2.5,9.7-2.5,12.1s.8,14.7.8,14.7"/><path id="e6a1995d-7b87-4a85-a7a5-b8b89f50e89f" data-name="path4233" class="46d70473-a6ce-46ec-85fa-ab95b0da9db3" d="M1290.6,217.84c-22.1,31.7-15.5,51.1-15.5,51.1"/><path id="4deb49cc-54b2-4479-9bc3-7d00545f4512" data-name="path4235" class="46d70473-a6ce-46ec-85fa-ab95b0da9db3" d="M1291.9,217.34c-3.3,45.1-13.6,51.9-13.6,51.9"/><path id="e77ce67c-38f7-4bbc-8099-a7b0cba51ed1" data-name="path4237" class="46d70473-a6ce-46ec-85fa-ab95b0da9db3" d="M1303.7,217.84c-16.1,41.9-8.2,51.4-8.2,51.4"/><path id="83f3206a-dcb7-419d-a294-8b120cb77adf" data-name="path4239" class="46d70473-a6ce-46ec-85fa-ab95b0da9db3" d="M1308.3,217.84c-1.1,13.6,1.4,3.1-1.1,13.6s-3.8,20.4-5.7,25.4-4.6,13.1-4.6,13.1"/><path id="bdd7f250-9b3b-4239-9a40-d2f98ffb5680" data-name="path4241" class="46d70473-a6ce-46ec-85fa-ab95b0da9db3" d="M1309.9,217.64l1.9,50.6"/><path id="d207b828-28e0-49a9-9763-09bbd784fc2e" data-name="path4243" class="46d70473-a6ce-46ec-85fa-ab95b0da9db3" d="M1318.1,215.74v45.9"/><path id="79ae38ab-7825-43a7-ba7d-bf7560d54e72" data-name="path4245" class="46d70473-a6ce-46ec-85fa-ab95b0da9db3" d="M1337.8,207.94c-1.1,17-1.4,10.2-1.1,18.6s.5,17.3,1.4,21.2,1.4,6.8,1.4,6.8"/><path id="14a515fd-8db7-4f1a-a49d-4a226cef2cb3" data-name="path4247" class="46d70473-a6ce-46ec-85fa-ab95b0da9db3" d="M1344.3,208.94c-1.1,18.6-1.6,14.2-1.1,18.6s5.2,19.4,7.1,23.6,9.5,17.3,9.5,17.3"/><path id="0f50ac42-2372-401b-b99a-9ef84e1a1639" data-name="path4249" class="46d70473-a6ce-46ec-85fa-ab95b0da9db3" d="M1351.4,208.64c0,13.6-.5,5.8,0,13.6s7.1,25.7,9.8,30.1,9.8,16.2,9.8,16.2"/><path id="3097a14e-55f2-439e-857e-7aadf7310149" data-name="path4251" class="46d70473-a6ce-46ec-85fa-ab95b0da9db3" d="M1373.5,204.54c5.5,17.6,4.9,10.2,6.3,18.6s3,21.2,3,30.9a91.85,91.85,0,0,1-1.1,15.5"/><path id="5050108b-63c0-429b-8728-735611ded7c3" data-name="path4253" class="46d70473-a6ce-46ec-85fa-ab95b0da9db3" d="M1398.3,270s.8-16,.8-20.4-5.2-29.6-11.5-47.7c12.5,18.6,15,18.9,16.4,25.7s3.5,21,3.5,27.8v13.9"/><path id="a8348c23-5559-4069-b395-b2322184e577" data-name="path4255" class="46d70473-a6ce-46ec-85fa-ab95b0da9db3" d="M1406.8,195.34c11.5,54.5,3.5,73.4,3.5,73.4"/><path id="88cdb9a7-8db2-492d-8744-961937c0c62a" data-name="path4257" class="46d70473-a6ce-46ec-85fa-ab95b0da9db3" d="M1409.5,192.94c19.4,40.6,7.1,71.5,7.1,71.5"/><path id="8f9d2fc2-979a-4dc1-b433-f9ad68e05822" data-name="path4259" class="46d70473-a6ce-46ec-85fa-ab95b0da9db3" d="M1412.5,191.14c6,10.7,7.9,15.5,10.4,24.4s2.7,19.4,2.7,23.3-1.1,12.6-1.1,12.6"/><path id="3e9f4d33-7cb8-4edf-bc8c-64c81b71226b" data-name="path4261" class="46d70473-a6ce-46ec-85fa-ab95b0da9db3" d="M1360.4,206.34c3.5,15.7,7.1,28.8,8.5,33s6,18.3,8.2,23.1a67.59,67.59,0,0,0,4.6,8.4"/><path id="10e9e874-0809-48c7-9d41-2ed2818f4909" data-name="path4263" class="d4031dfc-f611-43e0-8d93-56bb808e53ce" d="M1248.9,269.14c69.3,13.1,76.4-3.1,76.4-3.1"/><path id="59594183-70a6-46d8-9d01-cd91898d08e1" data-name="path4265" class="1f00125a-a150-41d0-87a8-6d8f08db775e" d="M1351.4,269.74c55,13.1,68.8-1,68.8-1"/><path id="a4733c82-cec9-491c-8254-7a27e09dbe59" data-name="path4267" class="46d70473-a6ce-46ec-85fa-ab95b0da9db3" d="M1282.6,192.54c-2.2,3.7,0,2.9-2.2,3.7s-1.4-1-2.2.8-2.7,5.5-.5,8.1,7.4,6.3,10.4,7.1,13.3,3.3,19.9,2.4c4.3-.6,9.2-.3,12-5,1.4-2.3,1.9-8.5,1.9-8.5"/><path id="2ce15e90-f23f-4798-aa0b-5e3d95e16276" data-name="path4271" class="bca95c12-eac6-4191-84a2-c4e4b92ffacc" d="M1265.5,191.14c8.2,2.6,12.8,5.8,13.9,5s3.6,0,.9-2.3-8.8-5.5-5.2-4.5,9.9,4.4,11.2,6.3a12.78,12.78,0,0,0,5.2,3.9c1.5.6,3.3.5,3.3-.8s2.6-1.6.4-2.9c-2.2.8-9.1-7.9-7.1-5.9a15.72,15.72,0,0,0,9.6,7.1c1,.2,2-.9,2.9-.8-.5-1.6,0,0-1.4-2.5-1-1.9-8.7-6.8-9.3-8.1.5-1.8,5.2-2.4,9,1s8.5,6.8,9,5.2,2.5-1.3-.8-4.7a38.76,38.76,0,0,0-10.1-7.9c-3.3-1.6-5.2-3.1-8.7-1.6s-4.1,2.4-6.8,2.1-3-.8-5.7.5-8.2,5.5-9.3,8.1c-1.3,2.8-1,2.8-1,2.8Z"/><path id="30cfb0ee-4b96-40e0-ad79-800af0c8c970" data-name="path4273" class="bca95c12-eac6-4191-84a2-c4e4b92ffacc" d="M1346.8,183.74c.3,11.8-.3,12.8,1.4,13.1s4.1.8,4.1-1.6-1.1-8.4.3-10.2,6.3-8.1,5.5-6.6-4.9,4.5-3,5.2.8,3.1,3.3.8,1.9-4.2,3.8-4.2,1.9,2.1,3.3.5,3.5-5,1.4-1.8-3.5,3.1-2.2,3.1,3.5,2.4,4.9.8,3.3-4.7,4.6-4.2,7.4,3.4,8.5,2.4,4.6-4.5,6.3-4.2,9.5,3.7,6.8,5.2-6,.3-7.1,2.4-1.4,5.5-3.8,7.1-4.4,1.6-9,1.3-10.6,1.8-12,.3-3-3.4-4.9-3.4-4.6-2.1-5.7.3.5,5.2-1.1,6-5.2,2.1-5.2.8-.2-13.1-.2-13.1Z"/><path id="3a3272cb-f06f-4dd9-87da-b9beee0f3906" data-name="path4279" class="46d70473-a6ce-46ec-85fa-ab95b0da9db3" d="M1410.3,184.84l3,3.7"/><path id="f57b0617-9ba1-4599-a8b0-f427ac76b0d8" data-name="path4281" class="46d70473-a6ce-46ec-85fa-ab95b0da9db3" d="M1342.1,194l2.5-.3"/><path id="6a823cdc-c295-486f-9897-0fd2ef2d9665" data-name="path4319" class="36d20e1f-442c-4dae-ae49-3d17c6ef3d39" d="M1346,192.54c-2.5-1.8-.8-.4-2-.7s-1.9,0-5.2,2.5-5.6,4.6-7.9,6.3-1.4,1-2.2,2.2-2,1.8-1.2,2.9a8.32,8.32,0,0,0,4.9,2.1c1.2-.1,7.2,1.4,9.1,1.4a116.41,116.41,0,0,0,13-.5c5.4-.6,17.6-3.3,21.1-3.8s11.9-1.7,16-3.1a121.68,121.68,0,0,0,12.8-5.1c4.2-2,6.7-2.5,8.7-5.1s2.9-1.7,2-2.6c-2.5-.9,3.3.3-3.7-3.4-10.2-5.5-6.4-3.8-11.2-4.3-4.4-.4-9,1.1-15.1,2.1s-6.3.7-12.3,1.4c-4.7.6-13,3-17.2,3.9a48.22,48.22,0,0,0-9.6,3.8Z"/><path id="2aeb1ad6-36a1-4b77-b02b-59afb3adfae3" data-name="path4287" class="bca95c12-eac6-4191-84a2-c4e4b92ffacc" d="M1346.4,182.54c1,14.5.2,14.5,1,14.5s3.7.9,4.8-.2-1.2-6.5-.4-9.1.2-4.1,3.5-7,4.6-4.1,3.3-3-6.4,5.4-5.4,5.4,2.9,3.3,3.9,2,1.9-1.5,3.1-3.3,1-1.7,2.1-1.5,1.5,2.2,2.7.9,3.7-5.2,2.5-3.9-4.4,3.9-2.9,4.4,3.1,2.4,3.9,1.7,7.3-4.6,5.8-5.4-1-2.2-2.7-1.7-4,1.9-5.4,1.9-1.7-1.9-3.1-2.2-3.3-1.5-5.6-.7a57.57,57.57,0,0,0-6.4,3,24.79,24.79,0,0,0-4.6,3.3c-.6.7.2,1.7.2,1.7"/><path id="15cf72aa-10a1-45c5-bbd0-976f4f49ca0d" data-name="path4289" class="514cf838-6458-4822-8f57-5ac76441e0f3" d="M1265.4,190.64c-4,11-4,5.5-4,11s-3.2,8.8,0,5.5,7.5-9.4,10.3-11,5.6-1.3,2.8-1.6-9.1-3.9-9.1-3.9Z"/><path id="ddfd7ab2-c1af-445b-9cf9-58a21558c1a5" data-name="path4291" class="46d70473-a6ce-46ec-85fa-ab95b0da9db3" d="M1389.2,165.54c15-.7,18.1,12.2,18.1,12.2"/><path id="192a4afd-db52-4ded-bea3-01c589b9b831" data-name="path4269" class="46d70473-a6ce-46ec-85fa-ab95b0da9db3" d="M1345,194c-7.1,3.7-8.5,3.7-8.7,6.3s1.6,3.9,3.8,3.9,14.5,0,18-.3,27.5-3.4,33-5.5,12.8-3.1,16.9-6.3a7.52,7.52,0,0,0,3.3-7.1"/><ellipse id="bb1eeedb-421a-4b6e-a1e6-8070684f85c3" data-name="path4277" class="e4e1a515-7b4f-40ec-a9e6-d3490ac64e5c" cx="1370.6" cy="193.84" rx="13.2" ry="6.2"/><rect id="948a2b9d-125b-457f-8ec7-1b32343c4030" data-name="rect5617" class="02db15cf-7865-4f26-bfca-05889aee7c09" x="1066.3" y="768.14" width="389.5" height="61.6"/><g class="07ba4d94-8818-4cb3-969e-f1124e06eaa0"><path class="31f70c3e-1bfe-4806-8b57-2b62d431cb5c" d="M1097.19,801.23h-6.67v5.45h7.75v1.66h-9.78V793h9.68v1.66h-7.65v5h6.67Z"/><path class="31f70c3e-1bfe-4806-8b57-2b62d431cb5c" d="M1105.82,798.85l3.69-5.89h2.39l-4.87,7.63,5,7.75h-2.41l-3.79-6-3.81,6h-2.4l5-7.75-4.88-7.62h2.38Z"/><path class="31f70c3e-1bfe-4806-8b57-2b62d431cb5c" d="M1125,794.62h-4.95v13.72h-2V794.62h-4.94V793H1125Z"/><path class="31f70c3e-1bfe-4806-8b57-2b62d431cb5c" d="M1132.95,802.11h-3.62v6.22h-2V793h5.1a6,6,0,0,1,4,1.18,4.26,4.26,0,0,1,1.4,3.44,4.14,4.14,0,0,1-.78,2.5,4.63,4.63,0,0,1-2.16,1.59l3.62,6.53v.13h-2.18Zm-3.62-1.66h3.12a3.52,3.52,0,0,0,2.41-.78,2.64,2.64,0,0,0,.89-2.09,2.78,2.78,0,0,0-.85-2.19,3.61,3.61,0,0,0-2.46-.77h-3.11Z"/><path class="31f70c3e-1bfe-4806-8b57-2b62d431cb5c" d="M1149.14,804.31h-6.45l-1.45,4h-2.09L1145,793h1.78l5.89,15.38h-2.08Zm-5.84-1.66h5.23l-2.62-7.19Z"/><path class="31f70c3e-1bfe-4806-8b57-2b62d431cb5c" d="M1166,803.45a5.66,5.66,0,0,1-1.8,3.76,5.92,5.92,0,0,1-4,1.33,5.43,5.43,0,0,1-4.37-2,7.85,7.85,0,0,1-1.64-5.23v-1.48a8.75,8.75,0,0,1,.77-3.77,5.72,5.72,0,0,1,2.17-2.5,6.05,6.05,0,0,1,3.26-.87,5.57,5.57,0,0,1,3.93,1.37,5.73,5.73,0,0,1,1.72,3.79h-2a4.42,4.42,0,0,0-1.15-2.67,3.48,3.48,0,0,0-2.47-.83,3.63,3.63,0,0,0-3.05,1.44,6.59,6.59,0,0,0-1.1,4.09v1.49a6.77,6.77,0,0,0,1,4,3.38,3.38,0,0,0,2.93,1.48,3.91,3.91,0,0,0,2.6-.77,4.24,4.24,0,0,0,1.2-2.67Z"/><path class="31f70c3e-1bfe-4806-8b57-2b62d431cb5c" d="M1179.58,793v10.46a4.9,4.9,0,0,1-1.37,3.56,5.52,5.52,0,0,1-3.68,1.55l-.54,0a5.77,5.77,0,0,1-4-1.36,4.87,4.87,0,0,1-1.52-3.75V793h2v10.41a3.21,3.21,0,0,0,3.54,3.52,3.56,3.56,0,0,0,2.64-.92,3.51,3.51,0,0,0,.92-2.59V793Z"/><path class="31f70c3e-1bfe-4806-8b57-2b62d431cb5c" d="M1188.43,802.11h-3.62v6.22h-2V793h5.1a6,6,0,0,1,4,1.18,4.26,4.26,0,0,1,1.4,3.44,4.14,4.14,0,0,1-.78,2.5,4.63,4.63,0,0,1-2.16,1.59l3.62,6.53v.13h-2.18Zm-3.62-1.66h3.12a3.52,3.52,0,0,0,2.41-.78,2.64,2.64,0,0,0,.89-2.09,2.78,2.78,0,0,0-.85-2.19,3.61,3.61,0,0,0-2.46-.77h-3.11Z"/><path class="31f70c3e-1bfe-4806-8b57-2b62d431cb5c" d="M1201.77,802.11h-3.62v6.22h-2V793h5.1a6,6,0,0,1,4,1.18,4.26,4.26,0,0,1,1.4,3.44,4.14,4.14,0,0,1-.78,2.5,4.63,4.63,0,0,1-2.16,1.59l3.62,6.53v.13h-2.18Zm-3.62-1.66h3.12a3.52,3.52,0,0,0,2.41-.78,2.64,2.64,0,0,0,.89-2.09,2.78,2.78,0,0,0-.85-2.19,3.61,3.61,0,0,0-2.46-.77h-3.11Z"/><path class="31f70c3e-1bfe-4806-8b57-2b62d431cb5c" d="M1211.64,808.33h-2V793h2Z"/><path class="31f70c3e-1bfe-4806-8b57-2b62d431cb5c" d="M1226.67,803.45a5.66,5.66,0,0,1-1.8,3.76,5.92,5.92,0,0,1-4,1.33,5.43,5.43,0,0,1-4.37-2,7.85,7.85,0,0,1-1.64-5.23v-1.48a8.75,8.75,0,0,1,.77-3.77,5.72,5.72,0,0,1,2.17-2.5,6.05,6.05,0,0,1,3.26-.87,5.57,5.57,0,0,1,3.93,1.37,5.73,5.73,0,0,1,1.72,3.79h-2a4.42,4.42,0,0,0-1.15-2.67,3.48,3.48,0,0,0-2.47-.83,3.63,3.63,0,0,0-3.05,1.44,6.59,6.59,0,0,0-1.1,4.09v1.49a6.77,6.77,0,0,0,1,4,3.38,3.38,0,0,0,2.93,1.48,3.91,3.91,0,0,0,2.6-.77,4.24,4.24,0,0,0,1.2-2.67Z"/><path class="31f70c3e-1bfe-4806-8b57-2b62d431cb5c" d="M1240.28,793v10.46a4.9,4.9,0,0,1-1.37,3.56,5.52,5.52,0,0,1-3.68,1.55l-.54,0a5.77,5.77,0,0,1-4-1.36,4.87,4.87,0,0,1-1.52-3.75V793h2v10.41a3.21,3.21,0,0,0,3.54,3.52,3.56,3.56,0,0,0,2.64-.92,3.51,3.51,0,0,0,.92-2.59V793Z"/><path class="31f70c3e-1bfe-4806-8b57-2b62d431cb5c" d="M1245.53,806.67h7.3v1.66h-9.34V793h2Z"/><path class="31f70c3e-1bfe-4806-8b57-2b62d431cb5c" d="M1263.85,804.31h-6.45l-1.45,4h-2.09l5.88-15.38h1.78l5.89,15.38h-2.08Zm-5.84-1.66h5.23l-2.62-7.19Z"/><path class="31f70c3e-1bfe-4806-8b57-2b62d431cb5c" d="M1275.12,802.11h-3.62v6.22h-2V793h5.1a6,6,0,0,1,4,1.18,4.26,4.26,0,0,1,1.4,3.44,4.14,4.14,0,0,1-.78,2.5,4.63,4.63,0,0,1-2.16,1.59l3.62,6.53v.13h-2.18Zm-3.62-1.66h3.12a3.52,3.52,0,0,0,2.41-.78,2.64,2.64,0,0,0,.89-2.09,2.78,2.78,0,0,0-.85-2.19,3.61,3.61,0,0,0-2.46-.77h-3.11Z"/><path class="31f70c3e-1bfe-4806-8b57-2b62d431cb5c" d="M1296.67,804.31h-6.45l-1.45,4h-2.09l5.88-15.38h1.78l5.89,15.38h-2.08Zm-5.84-1.66h5.23l-2.62-7.19Z"/><path class="31f70c3e-1bfe-4806-8b57-2b62d431cb5c" d="M1313.51,803.45a5.66,5.66,0,0,1-1.8,3.76,5.92,5.92,0,0,1-4,1.33,5.43,5.43,0,0,1-4.37-2,7.85,7.85,0,0,1-1.64-5.23v-1.48a8.75,8.75,0,0,1,.77-3.77,5.72,5.72,0,0,1,2.17-2.5,6.05,6.05,0,0,1,3.26-.87,5.57,5.57,0,0,1,3.93,1.37,5.73,5.73,0,0,1,1.72,3.79h-2a4.42,4.42,0,0,0-1.15-2.67,3.48,3.48,0,0,0-2.47-.83,3.63,3.63,0,0,0-3.05,1.44,6.59,6.59,0,0,0-1.1,4.09v1.49a6.77,6.77,0,0,0,1,4,3.38,3.38,0,0,0,2.93,1.48,3.91,3.91,0,0,0,2.6-.77,4.24,4.24,0,0,0,1.2-2.67Z"/><path class="31f70c3e-1bfe-4806-8b57-2b62d431cb5c" d="M1326.61,794.62h-4.95v13.72h-2V794.62h-4.94V793h11.91Z"/><path class="31f70c3e-1bfe-4806-8b57-2b62d431cb5c" d="M1331.07,808.33h-2V793h2Z"/><path class="31f70c3e-1bfe-4806-8b57-2b62d431cb5c" d="M1339.88,805.64l4.4-12.68h2.22l-5.71,15.38H1339l-5.7-15.38h2.21Z"/><path class="31f70c3e-1bfe-4806-8b57-2b62d431cb5c" d="M1350.74,808.33h-2V793h2Z"/><path class="31f70c3e-1bfe-4806-8b57-2b62d431cb5c" d="M1364.79,794.62h-4.95v13.72h-2V794.62h-4.94V793h11.91Z"/><path class="31f70c3e-1bfe-4806-8b57-2b62d431cb5c" d="M1369.25,808.33h-2V793h2Z"/><path class="31f70c3e-1bfe-4806-8b57-2b62d431cb5c" d="M1381.66,801.23H1375v5.45h7.75v1.66H1373V793h9.68v1.66H1375v5h6.67Z"/><path class="31f70c3e-1bfe-4806-8b57-2b62d431cb5c" d="M1389.81,801.48a9.56,9.56,0,0,1-3.8-1.84,3.52,3.52,0,0,1-1.19-2.7,3.72,3.72,0,0,1,1.45-3,5.79,5.79,0,0,1,3.78-1.19,6.32,6.32,0,0,1,2.83.61,4.65,4.65,0,0,1,1.92,1.69,4.32,4.32,0,0,1,.68,2.36h-2a2.81,2.81,0,0,0-.89-2.2,3.62,3.62,0,0,0-2.51-.8,3.7,3.7,0,0,0-2.34.66,2.2,2.2,0,0,0-.84,1.83,2,2,0,0,0,.8,1.59,7.84,7.84,0,0,0,2.72,1.19,12.66,12.66,0,0,1,3,1.19,4.55,4.55,0,0,1,1.61,1.52,3.86,3.86,0,0,1,.52,2,3.59,3.59,0,0,1-1.46,3,6.23,6.23,0,0,1-3.9,1.12,7.24,7.24,0,0,1-3-.61,5,5,0,0,1-2.12-1.66,4.05,4.05,0,0,1-.75-2.4h2a2.65,2.65,0,0,0,1,2.2,4.34,4.34,0,0,0,2.75.81,4,4,0,0,0,2.46-.66,2.12,2.12,0,0,0,.86-1.78,2.09,2.09,0,0,0-.79-1.75A9.14,9.14,0,0,0,1389.81,801.48Z"/></g><g class="07ba4d94-8818-4cb3-969e-f1124e06eaa0"><path class="80a697e5-4518-4c72-a1d4-a12e58711325" d="M67.93,576.58H54.52l-3,8.37H47.15l12.22-32h3.69l12.25,32H71Zm-12.14-3.45H66.68l-5.45-15Z"/><path class="80a697e5-4518-4c72-a1d4-a12e58711325" d="M102.94,574.8a11.75,11.75,0,0,1-3.75,7.83,12.3,12.3,0,0,1-8.39,2.76,11.29,11.29,0,0,1-9.09-4.06q-3.42-4.06-3.42-10.87v-3.07a18.18,18.18,0,0,1,1.59-7.84,11.89,11.89,0,0,1,4.52-5.19,12.59,12.59,0,0,1,6.77-1.81,11.58,11.58,0,0,1,8.18,2.84,11.9,11.9,0,0,1,3.58,7.87H98.69q-.55-3.83-2.39-5.55A7.22,7.22,0,0,0,91.17,556a7.56,7.56,0,0,0-6.34,3q-2.3,3-2.3,8.5v3.1a14.09,14.09,0,0,0,2.18,8.28,7,7,0,0,0,6.09,3.08,8.13,8.13,0,0,0,5.4-1.59q1.88-1.59,2.5-5.54Z"/><path class="80a697e5-4518-4c72-a1d4-a12e58711325" d="M126.38,576.58H113l-3,8.37H105.6l12.22-32h3.69l12.25,32h-4.33Zm-12.14-3.45h10.88l-5.45-15Z"/><path class="80a697e5-4518-4c72-a1d4-a12e58711325" d="M138.07,584.94V553h9a14.57,14.57,0,0,1,7.39,1.84,12.48,12.48,0,0,1,5,5.25,17.07,17.07,0,0,1,1.77,7.82v2a17.14,17.14,0,0,1-1.75,7.93,12.29,12.29,0,0,1-5,5.23,15.49,15.49,0,0,1-7.55,1.87Zm4.22-28.52v25.08h4.44a9.67,9.67,0,0,0,7.6-3q2.71-3,2.72-8.64V568q0-5.45-2.56-8.47a9.12,9.12,0,0,0-7.27-3.07Z"/><path class="80a697e5-4518-4c72-a1d4-a12e58711325" d="M185.7,570.16H171.82v11.33h16.12v3.45H167.6V553h20.12v3.45h-15.9v10.3H185.7Z"/><path class="80a697e5-4518-4c72-a1d4-a12e58711325" d="M198.65,553l10.47,26.08L219.58,553h5.47v32h-4.22V572.49l.4-13.44-10.51,25.89h-3.23L197,559.12l.42,13.37v12.45H193.2V553Z"/><path class="80a697e5-4518-4c72-a1d4-a12e58711325" d="M237,584.94h-4.22V553H237Z"/><path class="80a697e5-4518-4c72-a1d4-a12e58711325" d="M268.31,574.8a11.76,11.76,0,0,1-3.75,7.83,12.3,12.3,0,0,1-8.39,2.76,11.29,11.29,0,0,1-9.09-4.06q-3.42-4.06-3.42-10.87v-3.07a18.2,18.2,0,0,1,1.59-7.84,11.89,11.89,0,0,1,4.52-5.19,12.59,12.59,0,0,1,6.77-1.81,11.58,11.58,0,0,1,8.18,2.84,11.91,11.91,0,0,1,3.58,7.87h-4.24q-.55-3.83-2.39-5.55a7.22,7.22,0,0,0-5.13-1.72,7.56,7.56,0,0,0-6.34,3q-2.3,3-2.3,8.5v3.1a14.09,14.09,0,0,0,2.18,8.28,7,7,0,0,0,6.09,3.08,8.13,8.13,0,0,0,5.4-1.59q1.88-1.59,2.5-5.54Z"/><path class="80a697e5-4518-4c72-a1d4-a12e58711325" d="M303.31,570.16H289.44v11.33h16.12v3.45H285.21V553h20.12v3.45h-15.9v10.3h13.87Z"/><path class="80a697e5-4518-4c72-a1d4-a12e58711325" d="M321.25,565.22,328.93,553h5l-10.12,15.85,10.36,16.12h-5l-7.87-12.47-7.92,12.47h-5l10.38-16.12L308.59,553h4.95Z"/><path class="80a697e5-4518-4c72-a1d4-a12e58711325" d="M362,574.8a11.75,11.75,0,0,1-3.75,7.83,12.3,12.3,0,0,1-8.39,2.76,11.29,11.29,0,0,1-9.09-4.06q-3.42-4.06-3.42-10.87v-3.07a18.18,18.18,0,0,1,1.59-7.84,11.9,11.9,0,0,1,4.52-5.19,12.59,12.59,0,0,1,6.77-1.81,11.58,11.58,0,0,1,8.18,2.84,11.9,11.9,0,0,1,3.58,7.87H357.8q-.55-3.83-2.39-5.55a7.22,7.22,0,0,0-5.13-1.72,7.56,7.56,0,0,0-6.34,3q-2.3,3-2.3,8.5v3.1a14.09,14.09,0,0,0,2.18,8.28,7,7,0,0,0,6.09,3.08,8.13,8.13,0,0,0,5.4-1.59q1.88-1.59,2.5-5.54Z"/><path class="80a697e5-4518-4c72-a1d4-a12e58711325" d="M385.9,570.16H372v11.33h16.12v3.45H367.8V553h20.12v3.45H372v10.3H385.9Z"/><path class="80a697e5-4518-4c72-a1d4-a12e58711325" d="M397.64,581.49h15.17v3.45H393.39V553h4.24Z"/><path class="80a697e5-4518-4c72-a1d4-a12e58711325" d="M421.87,581.49H437v3.45H417.63V553h4.24Z"/><path class="80a697e5-4518-4c72-a1d4-a12e58711325" d="M460,570.16H446.08v11.33h16.12v3.45H441.86V553H462v3.45h-15.9v10.3H460Z"/><path class="80a697e5-4518-4c72-a1d4-a12e58711325" d="M492.05,584.94h-4.24l-16.12-24.64v24.64h-4.24V553h4.24l16.16,24.75V553h4.2Z"/><path class="80a697e5-4518-4c72-a1d4-a12e58711325" d="M523.1,574.8a11.75,11.75,0,0,1-3.75,7.83,12.3,12.3,0,0,1-8.39,2.76,11.29,11.29,0,0,1-9.09-4.06q-3.42-4.06-3.42-10.87v-3.07a18.2,18.2,0,0,1,1.59-7.84,11.9,11.9,0,0,1,4.52-5.19,12.59,12.59,0,0,1,6.77-1.81,11.58,11.58,0,0,1,8.18,2.84,11.9,11.9,0,0,1,3.58,7.87h-4.24q-.55-3.83-2.38-5.55a7.22,7.22,0,0,0-5.13-1.72,7.56,7.56,0,0,0-6.34,3q-2.3,3-2.3,8.5v3.1a14.09,14.09,0,0,0,2.18,8.28,7,7,0,0,0,6.09,3.08,8.13,8.13,0,0,0,5.4-1.59q1.88-1.59,2.5-5.54Z"/><path class="80a697e5-4518-4c72-a1d4-a12e58711325" d="M547,570.16H533.08v11.33H549.2v3.45H528.86V553H549v3.45h-15.9v10.3H547Z"/><path class="80a697e5-4518-4c72-a1d4-a12e58711325" d="M569.82,572.43v12.52H565.6V553h11.81q5.25,0,8.23,2.68a9.08,9.08,0,0,1,3,7.09,9,9,0,0,1-2.91,7.17q-2.91,2.51-8.34,2.51Zm0-3.45h7.59a7.59,7.59,0,0,0,5.19-1.59,5.83,5.83,0,0,0,1.8-4.61,6,6,0,0,0-1.8-4.57,7.11,7.11,0,0,0-4.95-1.78h-7.83Z"/><path class="80a697e5-4518-4c72-a1d4-a12e58711325" d="M605.75,572h-7.52v12.93H594V553h10.6q5.41,0,8.32,2.46t2.91,7.16a8.6,8.6,0,0,1-1.62,5.2,9.64,9.64,0,0,1-4.5,3.32l7.52,13.57v.26H612.7Zm-7.52-3.45h6.49a7.32,7.32,0,0,0,5-1.63,5.5,5.5,0,0,0,1.86-4.36,5.79,5.79,0,0,0-1.77-4.55,7.5,7.5,0,0,0-5.11-1.61h-6.46Z"/><path class="80a697e5-4518-4c72-a1d4-a12e58711325" d="M646.36,570a19.75,19.75,0,0,1-1.58,8.2,12,12,0,0,1-4.49,5.35,12.38,12.38,0,0,1-18-5.3,19,19,0,0,1-1.66-8V568a19.52,19.52,0,0,1,1.61-8.15,11.87,11.87,0,0,1,11.26-7.29,12.42,12.42,0,0,1,6.78,1.86,12,12,0,0,1,4.52,5.38,19.85,19.85,0,0,1,1.58,8.2Zm-4.2-2.06q0-5.69-2.29-8.73a7.55,7.55,0,0,0-6.4-3,7.47,7.47,0,0,0-6.3,3q-2.3,3-2.36,8.44V570q0,5.51,2.32,8.66a8.14,8.14,0,0,0,12.72.18q2.24-3,2.31-8.53Z"/><path class="80a697e5-4518-4c72-a1d4-a12e58711325" d="M676.33,580.75a9.75,9.75,0,0,1-4.54,3.48,18.37,18.37,0,0,1-6.78,1.15,13.17,13.17,0,0,1-6.95-1.83,12.21,12.21,0,0,1-4.69-5.21,18,18,0,0,1-1.7-7.84v-2.79q0-7.22,3.38-11.2t9.49-4a12.16,12.16,0,0,1,8.07,2.56,11.14,11.14,0,0,1,3.74,7.26h-4.22q-1.19-6.37-7.56-6.37a7.48,7.48,0,0,0-6.43,3q-2.19,3-2.21,8.63v2.62q0,5.38,2.46,8.56a8,8,0,0,0,6.66,3.18,14.69,14.69,0,0,0,4.15-.53,6.43,6.43,0,0,0,2.95-1.77v-7.16h-7.41V569h11.61Z"/><path class="80a697e5-4518-4c72-a1d4-a12e58711325" d="M695.11,572h-7.52v12.93h-4.24V553h10.6q5.41,0,8.32,2.46t2.91,7.16a8.6,8.6,0,0,1-1.62,5.2,9.64,9.64,0,0,1-4.5,3.32l7.52,13.57v.26h-4.53Zm-7.52-3.45h6.49a7.32,7.32,0,0,0,5-1.63,5.5,5.5,0,0,0,1.86-4.36,5.79,5.79,0,0,0-1.77-4.55,7.5,7.5,0,0,0-5.11-1.61h-6.46Z"/><path class="80a697e5-4518-4c72-a1d4-a12e58711325" d="M728.77,576.58H715.36l-3,8.37H708l12.23-32h3.69l12.25,32h-4.33Zm-12.14-3.45h10.88l-5.45-15Z"/><path class="80a697e5-4518-4c72-a1d4-a12e58711325" d="M745.92,553l10.47,26.08L766.86,553h5.47v32h-4.22V572.49l.4-13.44L758,584.94h-3.23l-10.49-25.82.42,13.37v12.45h-4.22V553Z"/><path class="80a697e5-4518-4c72-a1d4-a12e58711325" d="M785.24,553l10.47,26.08L806.17,553h5.47v32h-4.22V572.49l.4-13.44-10.51,25.89h-3.23l-10.49-25.82.42,13.37v12.45h-4.22V553Z"/><path class="80a697e5-4518-4c72-a1d4-a12e58711325" d="M837.19,570.16H823.32v11.33h16.12v3.45H819.1V553h20.12v3.45h-15.9v10.3h13.87Z"/></g><g class="07ba4d94-8818-4cb3-969e-f1124e06eaa0"><path class="80a697e5-4518-4c72-a1d4-a12e58711325" d="M69.87,616a13.16,13.16,0,0,1-1.06,5.47,8,8,0,0,1-3,3.56,8.26,8.26,0,0,1-12-3.54,12.63,12.63,0,0,1-1.11-5.31v-1.54a13,13,0,0,1,1.07-5.43,7.91,7.91,0,0,1,7.5-4.86,8.29,8.29,0,0,1,4.52,1.24,8,8,0,0,1,3,3.59,13.22,13.22,0,0,1,1.06,5.47Zm-2.8-1.38a9.54,9.54,0,0,0-1.52-5.82,5,5,0,0,0-4.27-2,5,5,0,0,0-4.2,2,9.35,9.35,0,0,0-1.58,5.63V616A9.56,9.56,0,0,0,57,621.76a5.42,5.42,0,0,0,8.48.12,9.5,9.5,0,0,0,1.54-5.69Z"/><path class="80a697e5-4518-4c72-a1d4-a12e58711325" d="M90.49,626H87.66L76.92,609.53V626H74.09V604.64h2.83l10.77,16.5v-16.5h2.8Z"/><path class="80a697e5-4518-4c72-a1d4-a12e58711325" d="M98.32,623.66h10.12V626H95.49V604.64h2.83Z"/><path class="80a697e5-4518-4c72-a1d4-a12e58711325" d="M114.66,626h-2.81V604.64h2.81Z"/><path class="80a697e5-4518-4c72-a1d4-a12e58711325" d="M136.21,626h-2.83l-10.75-16.42V626h-2.83V604.64h2.83l10.77,16.5v-16.5h2.8Z"/><path class="80a697e5-4518-4c72-a1d4-a12e58711325" d="M153.27,616.1H144v7.55h10.75V626H141.21V604.64h13.41v2.3H144v6.87h9.25Z"/><path class="80a697e5-4518-4c72-a1d4-a12e58711325" d="M168.52,617.61V626H165.7V604.64h7.87a7.91,7.91,0,0,1,5.49,1.79,6.05,6.05,0,0,1,2,4.73,6,6,0,0,1-1.94,4.78,8.27,8.27,0,0,1-5.56,1.68Zm0-2.3h5.06a5.06,5.06,0,0,0,3.46-1.06,3.88,3.88,0,0,0,1.2-3.07,4,4,0,0,0-1.2-3,4.74,4.74,0,0,0-3.3-1.19h-5.22Z"/><path class="80a697e5-4518-4c72-a1d4-a12e58711325" d="M187.47,623.66h10.12V626H184.64V604.64h2.83Z"/><path class="80a697e5-4518-4c72-a1d4-a12e58711325" d="M212.86,620.38h-8.94l-2,5.58H199l8.15-21.31h2.46L217.78,626H214.9Zm-8.09-2.3H212l-3.64-10Z"/><path class="80a697e5-4518-4c72-a1d4-a12e58711325" d="M233.51,606.94h-6.86v19h-2.8v-19H217v-2.3h16.51Z"/><path class="80a697e5-4518-4c72-a1d4-a12e58711325" d="M248.45,616.54h-9V626h-2.81V604.64H249.9v2.3H239.49v7.3h9Z"/><path class="80a697e5-4518-4c72-a1d4-a12e58711325" d="M269.69,616a13.16,13.16,0,0,1-1.06,5.47,8,8,0,0,1-3,3.56,8.24,8.24,0,0,1-4.51,1.23,8,8,0,0,1-7.5-4.76,12.63,12.63,0,0,1-1.11-5.31v-1.54a13,13,0,0,1,1.07-5.43,7.91,7.91,0,0,1,7.51-4.86,8.28,8.28,0,0,1,4.52,1.24,8,8,0,0,1,3,3.59,13.22,13.22,0,0,1,1.06,5.47Zm-2.8-1.38a9.55,9.55,0,0,0-1.52-5.82,5,5,0,0,0-4.27-2,5,5,0,0,0-4.2,2,9.35,9.35,0,0,0-1.58,5.63V616a9.56,9.56,0,0,0,1.55,5.78,5.42,5.42,0,0,0,8.48.12,9.49,9.49,0,0,0,1.54-5.69Z"/><path class="80a697e5-4518-4c72-a1d4-a12e58711325" d="M281.74,617.33h-5V626H273.9V604.64H281a8.37,8.37,0,0,1,5.55,1.64,5.9,5.9,0,0,1,1.94,4.77,5.73,5.73,0,0,1-1.08,3.47,6.43,6.43,0,0,1-3,2.21l5,9V626h-3Zm-5-2.3H281a4.88,4.88,0,0,0,3.34-1.08,3.67,3.67,0,0,0,1.24-2.9,3.86,3.86,0,0,0-1.18-3,5,5,0,0,0-3.41-1.07h-4.31Z"/><path class="80a697e5-4518-4c72-a1d4-a12e58711325" d="M296,604.64,303,622l7-17.39h3.65V626h-2.81v-8.3l.26-9-7,17.26h-2.15l-7-17.21.28,8.91V626h-2.81V604.64Z"/><path class="80a697e5-4518-4c72-a1d4-a12e58711325" d="M337.81,616.54h-9V626H326V604.64h13.22v2.3H328.85v7.3h9Z"/><path class="80a697e5-4518-4c72-a1d4-a12e58711325" d="M359,616a13.18,13.18,0,0,1-1.05,5.47,8,8,0,0,1-3,3.56,8.26,8.26,0,0,1-12-3.54,12.64,12.64,0,0,1-1.11-5.31v-1.54a13,13,0,0,1,1.07-5.43,7.91,7.91,0,0,1,7.5-4.86,8.28,8.28,0,0,1,4.52,1.24,8,8,0,0,1,3,3.59,13.24,13.24,0,0,1,1.05,5.47Zm-2.8-1.38a9.54,9.54,0,0,0-1.53-5.82,5,5,0,0,0-4.27-2,5,5,0,0,0-4.2,2,9.35,9.35,0,0,0-1.58,5.63V616a9.56,9.56,0,0,0,1.55,5.78,5.42,5.42,0,0,0,8.48.12,9.5,9.5,0,0,0,1.54-5.69Z"/><path class="80a697e5-4518-4c72-a1d4-a12e58711325" d="M371.1,617.33h-5V626h-2.83V604.64h7.07a8.37,8.37,0,0,1,5.55,1.64,5.9,5.9,0,0,1,1.94,4.77,5.73,5.73,0,0,1-1.08,3.47,6.43,6.43,0,0,1-3,2.21l5,9V626h-3Zm-5-2.3h4.32a4.88,4.88,0,0,0,3.33-1.08A3.67,3.67,0,0,0,375,611a3.86,3.86,0,0,0-1.18-3,5,5,0,0,0-3.41-1.07h-4.31Z"/><path class="80a697e5-4518-4c72-a1d4-a12e58711325" d="M404.88,619.19a7.84,7.84,0,0,1-2.5,5.22,8.2,8.2,0,0,1-5.59,1.84,7.52,7.52,0,0,1-6.06-2.71,10.88,10.88,0,0,1-2.28-7.25v-2a12.14,12.14,0,0,1,1.06-5.23,7.93,7.93,0,0,1,3-3.46,8.4,8.4,0,0,1,4.51-1.21,7.72,7.72,0,0,1,5.45,1.9,7.93,7.93,0,0,1,2.39,5.25h-2.83a6.12,6.12,0,0,0-1.59-3.7,4.82,4.82,0,0,0-3.42-1.15,5,5,0,0,0-4.23,2,9.13,9.13,0,0,0-1.53,5.67v2.07a9.39,9.39,0,0,0,1.45,5.52,4.69,4.69,0,0,0,4.06,2.05,5.42,5.42,0,0,0,3.6-1.06,5.88,5.88,0,0,0,1.66-3.7Z"/><path class="80a697e5-4518-4c72-a1d4-a12e58711325" d="M425.14,616a13.16,13.16,0,0,1-1.06,5.47,8,8,0,0,1-3,3.56,8.24,8.24,0,0,1-4.51,1.23,8,8,0,0,1-7.5-4.76,12.63,12.63,0,0,1-1.11-5.31v-1.54a13,13,0,0,1,1.07-5.43,7.91,7.91,0,0,1,7.51-4.86,8.28,8.28,0,0,1,4.52,1.24,8,8,0,0,1,3,3.59,13.22,13.22,0,0,1,1.06,5.47Zm-2.8-1.38a9.55,9.55,0,0,0-1.52-5.82,5,5,0,0,0-4.27-2,5,5,0,0,0-4.2,2,9.35,9.35,0,0,0-1.58,5.63V616a9.56,9.56,0,0,0,1.55,5.78,5.42,5.42,0,0,0,8.48.12,9.49,9.49,0,0,0,1.54-5.69Z"/><path class="80a697e5-4518-4c72-a1d4-a12e58711325" d="M432.19,623.66h10.11V626H429.36V604.64h2.83Z"/><path class="80a697e5-4518-4c72-a1d4-a12e58711325" d="M448.35,623.66h10.12V626H445.52V604.64h2.83Z"/><path class="80a697e5-4518-4c72-a1d4-a12e58711325" d="M473.73,616.1h-9.25v7.55h10.75V626H461.67V604.64h13.41v2.3h-10.6v6.87h9.25Z"/><path class="80a697e5-4518-4c72-a1d4-a12e58711325" d="M494.49,623.16a6.51,6.51,0,0,1-3,2.32,12.26,12.26,0,0,1-4.52.77,8.77,8.77,0,0,1-4.63-1.22,8.14,8.14,0,0,1-3.13-3.48,12,12,0,0,1-1.14-5.23v-1.86q0-4.81,2.25-7.46a7.84,7.84,0,0,1,6.33-2.65,8.11,8.11,0,0,1,5.38,1.71,7.43,7.43,0,0,1,2.49,4.84h-2.81q-.79-4.25-5-4.25a5,5,0,0,0-4.29,2,9.68,9.68,0,0,0-1.47,5.75v1.74a9.07,9.07,0,0,0,1.64,5.71,5.32,5.32,0,0,0,4.44,2.12,9.84,9.84,0,0,0,2.77-.35,4.28,4.28,0,0,0,2-1.18v-4.78h-4.94v-2.3h7.74Z"/><path class="80a697e5-4518-4c72-a1d4-a12e58711325" d="M511.25,616.1H502v7.55h10.75V626H499.18V604.64h13.41v2.3H502v6.87h9.25Z"/><path class="80a697e5-4518-4c72-a1d4-a12e58711325" d="M530,616.45a13.22,13.22,0,0,1-5.27-2.55,4.87,4.87,0,0,1-1.65-3.74,5.15,5.15,0,0,1,2-4.17,8,8,0,0,1,5.24-1.65,8.76,8.76,0,0,1,3.92.85,6.45,6.45,0,0,1,2.67,2.34,6,6,0,0,1,.95,3.26H535a3.89,3.89,0,0,0-1.23-3,5,5,0,0,0-3.47-1.11,5.13,5.13,0,0,0-3.25.92,3.06,3.06,0,0,0-1.16,2.54,2.75,2.75,0,0,0,1.11,2.21,10.86,10.86,0,0,0,3.77,1.65,17.49,17.49,0,0,1,4.16,1.65,6.31,6.31,0,0,1,2.23,2.1,5.35,5.35,0,0,1,.73,2.83,5,5,0,0,1-2,4.15,8.63,8.63,0,0,1-5.41,1.56,10.06,10.06,0,0,1-4.11-.84,6.91,6.91,0,0,1-2.94-2.31,5.62,5.62,0,0,1-1-3.32h2.83a3.67,3.67,0,0,0,1.43,3.05,6,6,0,0,0,3.82,1.12,5.54,5.54,0,0,0,3.42-.91,2.94,2.94,0,0,0,1.19-2.47,2.89,2.89,0,0,0-1.1-2.42A12.71,12.71,0,0,0,530,616.45Z"/><path class="80a697e5-4518-4c72-a1d4-a12e58711325" d="M556.23,606.94h-6.86v19h-2.8v-19h-6.85v-2.3h16.5Z"/><path class="80a697e5-4518-4c72-a1d4-a12e58711325" d="M574.42,604.64v14.49a6.79,6.79,0,0,1-1.9,4.93,7.65,7.65,0,0,1-5.11,2.15l-.75,0a8,8,0,0,1-5.58-1.89,6.75,6.75,0,0,1-2.11-5.2V604.64h2.79v14.43a4.45,4.45,0,0,0,4.91,4.87,4.94,4.94,0,0,0,3.66-1.27,4.86,4.86,0,0,0,1.27-3.59V604.64Z"/><path class="80a697e5-4518-4c72-a1d4-a12e58711325" d="M578.87,626V604.64h6a9.7,9.7,0,0,1,4.92,1.23,8.32,8.32,0,0,1,3.31,3.5,11.37,11.37,0,0,1,1.18,5.21v1.36a11.4,11.4,0,0,1-1.17,5.28,8.18,8.18,0,0,1-3.33,3.48,10.34,10.34,0,0,1-5,1.24Zm2.81-19v16.72h3a6.45,6.45,0,0,0,5.06-2,8.35,8.35,0,0,0,1.81-5.76v-1.25a8.48,8.48,0,0,0-1.71-5.65,6.08,6.08,0,0,0-4.85-2Z"/><path class="80a697e5-4518-4c72-a1d4-a12e58711325" d="M610.62,616.1h-9.25v7.55h10.75V626H598.55V604.64H612v2.3h-10.6v6.87h9.25Z"/><path class="80a697e5-4518-4c72-a1d4-a12e58711325" d="M632,626h-2.83l-10.75-16.42V626h-2.83V604.64h2.83l10.77,16.5v-16.5H632Z"/><path class="80a697e5-4518-4c72-a1d4-a12e58711325" d="M651.34,606.94h-6.86v19h-2.8v-19h-6.85v-2.3h16.5Z"/><path class="80a697e5-4518-4c72-a1d4-a12e58711325" d="M660.56,616.45a13.23,13.23,0,0,1-5.27-2.55,4.87,4.87,0,0,1-1.65-3.74,5.15,5.15,0,0,1,2-4.17,8,8,0,0,1,5.24-1.65,8.76,8.76,0,0,1,3.92.85,6.45,6.45,0,0,1,2.67,2.34,6,6,0,0,1,.95,3.26H665.6a3.89,3.89,0,0,0-1.23-3,5,5,0,0,0-3.47-1.11,5.13,5.13,0,0,0-3.25.92,3.06,3.06,0,0,0-1.17,2.54,2.75,2.75,0,0,0,1.11,2.21,10.84,10.84,0,0,0,3.77,1.65,17.49,17.49,0,0,1,4.16,1.65,6.31,6.31,0,0,1,2.23,2.1,5.36,5.36,0,0,1,.73,2.83,5,5,0,0,1-2,4.15,8.63,8.63,0,0,1-5.41,1.56,10.05,10.05,0,0,1-4.1-.84A6.91,6.91,0,0,1,654,623.1a5.62,5.62,0,0,1-1-3.32h2.83a3.67,3.67,0,0,0,1.43,3.05,6,6,0,0,0,3.82,1.12,5.54,5.54,0,0,0,3.42-.91,3,3,0,0,0,1.19-2.47,2.89,2.89,0,0,0-1.1-2.42A12.72,12.72,0,0,0,660.56,616.45Z"/></g></g></g></svg>