<svg xmlns="http://www.w3.org/2000/svg" xmlns:xlink="http://www.w3.org/1999/xlink" viewBox="0 0 1600 900"><defs><style>.aba7cb3c-12d0-4995-9075-ba603ece5e40{fill:#aee0c5;}.\34 c52e44b-be61-4214-9e0d-4b1062ec3fbe,.b287f4df-7b4b-4ec0-9dac-09af5d62df52{fill:#336;stroke:#f8f8f8;}.\34 b777cbb-6f9b-44cb-83bb-b5a04501f44e,.\34 c52e44b-be61-4214-9e0d-4b1062ec3fbe,.a75f6147-d9b2-4f49-bc2f-f1fd0e644865,.b287f4df-7b4b-4ec0-9dac-09af5d62df52,.e4cfd2fe-8596-4fcc-a9bb-fe609f988684{stroke-linecap:round;stroke-linejoin:round;}.b287f4df-7b4b-4ec0-9dac-09af5d62df52{stroke-width:0.93px;}.\33 800f9a7-ea5f-4b5a-bee9-58fc725708b4,.\36 68501bc-5e29-4ded-9240-e753feecb7db,.afe1f77d-5a2b-4169-92cf-25d1bed2c282{isolation:isolate;}.a5c375a0-fa89-4dfa-9ddc-88d35a79f15e{fill:#f8fafd;}.\34 c52e44b-be61-4214-9e0d-4b1062ec3fbe{stroke-width:1.02px;}.a2a25121-d83f-4809-85c5-749bd75a4629{fill:#fcfcfc;}.\34 297458f-989f-42d6-8bb6-6facec5087fc{fill:#00590d;}.\38 61cfa43-b61f-4663-a509-0232d6f0d90e{fill:#1b6824;}.\35 df52252-26e3-4d62-868e-871e4570f3cf{fill:#fdfcfa;}.\36 68501bc-5e29-4ded-9240-e753feecb7db{fill:#fff293;}.\33 800f9a7-ea5f-4b5a-bee9-58fc725708b4,.\36 68501bc-5e29-4ded-9240-e753feecb7db{opacity:0.77;}.\33 800f9a7-ea5f-4b5a-bee9-58fc725708b4{fill:#f4f30e;}.bfb5a725-40bd-4f7b-83d9-bc55233484e1{mask:url(#4cf8d572-672e-4e5b-a1bc-9fa92d0824f7);}.\38 35eb1a1-891f-45c3-bcbf-515bd4ae0bcc{fill:url(#298f8aed-014c-4039-9947-6e03b77c3adf);}.f2dc2ff9-f03a-4f5a-9e0b-ba878f70c241{fill:#326b84;}.\30 194c7c4-9ad0-4249-aa21-2eb5339f32cf,.\30 a8df9f8-e5e6-433e-8c83-fd8fb47f2e7f,.\31 5bacf58-be4e-47fb-8d47-9c6fada275ff,.\34 b777cbb-6f9b-44cb-83bb-b5a04501f44e,.\39 de33b31-f2da-4153-98f2-fb9b4e81baca,.a75f6147-d9b2-4f49-bc2f-f1fd0e644865,.d2ce37d1-dddf-47ce-9a9c-d2c4f00f0467,.e4cfd2fe-8596-4fcc-a9bb-fe609f988684,.f2dc2ff9-f03a-4f5a-9e0b-ba878f70c241{stroke:#000;}.\31 5bacf58-be4e-47fb-8d47-9c6fada275ff{fill:#fbfbfd;}.d2ce37d1-dddf-47ce-9a9c-d2c4f00f0467{fill:#32846e;}.\30 194c7c4-9ad0-4249-aa21-2eb5339f32cf{fill:#328479;}.\30 a8df9f8-e5e6-433e-8c83-fd8fb47f2e7f,.\31 5f415c7-da15-4494-a170-2ec1a42945f0,.\31 a47cacf-258b-4078-aea1-dd64332b661e,.a50b52bc-32c6-4e79-98f7-a5d35964d204,.b9ca802c-1153-4eb6-b568-06c4d0bee510{fill:none;}.\31 5f415c7-da15-4494-a170-2ec1a42945f0{stroke:#faf7f7;}.a50b52bc-32c6-4e79-98f7-a5d35964d204{stroke:#f7f7fa;}.\39 de33b31-f2da-4153-98f2-fb9b4e81baca{fill:#131314;}.\34 b777cbb-6f9b-44cb-83bb-b5a04501f44e,.a75f6147-d9b2-4f49-bc2f-f1fd0e644865,.e4cfd2fe-8596-4fcc-a9bb-fe609f988684{fill:#fbf9fe;}.e4cfd2fe-8596-4fcc-a9bb-fe609f988684{stroke-width:1.05px;}.a75f6147-d9b2-4f49-bc2f-f1fd0e644865{stroke-width:1.09px;}.b9ca802c-1153-4eb6-b568-06c4d0bee510{stroke:#5e9ce3;stroke-width:3.7px;}.\31 a47cacf-258b-4078-aea1-dd64332b661e{stroke:#2f53bf;stroke-width:3.8px;}.e0769ef4-e814-404c-8160-7d001a25dbe4{fill:#2b82c9;}.\32 3417352-412c-40b2-8da2-0212fd72dab1{filter:url(#84a1a669-7b7b-4c04-91f7-4244418114ce);}</style><filter id="84a1a669-7b7b-4c04-91f7-4244418114ce" x="1160" y="641" width="142" height="29" filterUnits="userSpaceOnUse" color-interpolation-filters="sRGB"><feFlood flood-color="#fff" result="bg"/><feBlend in="SourceGraphic" in2="bg"/></filter><mask id="4cf8d572-672e-4e5b-a1bc-9fa92d0824f7" x="1160" y="641" width="142" height="29" maskUnits="userSpaceOnUse"><g class="23417352-412c-40b2-8da2-0212fd72dab1"><image width="142" height="29" transform="translate(1160 641)" xlink:href="slide-31.png"/></g></mask><radialGradient id="298f8aed-014c-4039-9947-6e03b77c3adf" cx="1231" cy="655.5" r="49.17" gradientTransform="translate(0 582.18) scale(1 0.11)" gradientUnits="userSpaceOnUse"><stop offset="0"/><stop offset="1" stop-color="gray"/></radialGradient></defs><title>slide-3</title><g id="9db20169-b75a-4b02-8f0d-3f4a0346d138" data-name="Layer 2"><g id="d5b3d7cf-6a48-4b3d-876a-b0e47a062f63" data-name="Layer 1"><rect class="aba7cb3c-12d0-4995-9075-ba603ece5e40" width="1600" height="900"/><rect id="c1f0e720-dd88-4a88-8921-79ba9b0fbb2f" data-name="rect5617" class="b287f4df-7b4b-4ec0-9dac-09af5d62df52" x="937.45" y="714.37" width="562.21" height="67.66"/><g class="afe1f77d-5a2b-4169-92cf-25d1bed2c282"><path class="a5c375a0-fa89-4dfa-9ddc-88d35a79f15e" d="M1110.69,747.47a13.14,13.14,0,0,1-5.22-2.53,4.83,4.83,0,0,1-1.63-3.71,5.11,5.11,0,0,1,2-4.13,7.94,7.94,0,0,1,5.19-1.63,8.66,8.66,0,0,1,3.88.84,6.38,6.38,0,0,1,2.64,2.32,5.93,5.93,0,0,1,.94,3.23h-2.8a3.86,3.86,0,0,0-1.22-3,5,5,0,0,0-3.44-1.1,5.08,5.08,0,0,0-3.22.91,3,3,0,0,0-1.15,2.52,2.72,2.72,0,0,0,1.1,2.19,10.75,10.75,0,0,0,3.73,1.63,17.32,17.32,0,0,1,4.13,1.63,6.25,6.25,0,0,1,2.21,2.08,5.3,5.3,0,0,1,.72,2.8,4.93,4.93,0,0,1-2,4.11,8.55,8.55,0,0,1-5.36,1.54,10,10,0,0,1-4.07-.83,6.85,6.85,0,0,1-2.91-2.28,5.57,5.57,0,0,1-1-3.29h2.8a3.64,3.64,0,0,0,1.42,3,6,6,0,0,0,3.78,1.11,5.49,5.49,0,0,0,3.38-.9,2.92,2.92,0,0,0,1.18-2.45,2.87,2.87,0,0,0-1.09-2.4A12.59,12.59,0,0,0,1110.69,747.47Z"/><path class="a5c375a0-fa89-4dfa-9ddc-88d35a79f15e" d="M1136.72,738h-6.8v18.84h-2.77V738h-6.78v-2.28h16.36Z"/><path class="a5c375a0-fa89-4dfa-9ddc-88d35a79f15e" d="M1154.74,735.76v14.36a6.73,6.73,0,0,1-1.88,4.89,7.58,7.58,0,0,1-5.06,2.13l-.74,0a7.92,7.92,0,0,1-5.53-1.87,6.69,6.69,0,0,1-2.09-5.15V735.76h2.76v14.3a4.41,4.41,0,0,0,4.87,4.83,4.9,4.9,0,0,0,3.62-1.26,4.82,4.82,0,0,0,1.26-3.55V735.76Z"/><path class="a5c375a0-fa89-4dfa-9ddc-88d35a79f15e" d="M1159.14,756.88V735.76h6A9.62,9.62,0,0,1,1170,737a8.24,8.24,0,0,1,3.28,3.47,11.26,11.26,0,0,1,1.17,5.16V747a11.3,11.3,0,0,1-1.16,5.24,8.12,8.12,0,0,1-3.3,3.45,10.24,10.24,0,0,1-5,1.23Zm2.79-18.84V754.6h2.93a6.39,6.39,0,0,0,5-2,8.27,8.27,0,0,0,1.79-5.71v-1.23a8.4,8.4,0,0,0-1.69-5.6,6,6,0,0,0-4.8-2Z"/><path class="a5c375a0-fa89-4dfa-9ddc-88d35a79f15e" d="M1190.61,747.12h-9.17v7.48h10.65v2.28h-13.44V735.76h13.29V738h-10.5v6.8h9.17Z"/><path class="a5c375a0-fa89-4dfa-9ddc-88d35a79f15e" d="M1211.81,756.88H1209l-10.65-16.27v16.27h-2.8V735.76h2.8L1209,752.11V735.76h2.77Z"/><path class="a5c375a0-fa89-4dfa-9ddc-88d35a79f15e" d="M1231,738h-6.8v18.84h-2.77V738h-6.78v-2.28H1231Z"/><path class="a5c375a0-fa89-4dfa-9ddc-88d35a79f15e" d="M1243.67,748.61v8.27h-2.79V735.76h7.8a7.84,7.84,0,0,1,5.44,1.77,6,6,0,0,1,2,4.69,5.92,5.92,0,0,1-1.92,4.74,8.2,8.2,0,0,1-5.51,1.66Zm0-2.28h5a5,5,0,0,0,3.43-1.05,3.85,3.85,0,0,0,1.19-3,4,4,0,0,0-1.19-3,4.7,4.7,0,0,0-3.27-1.18h-5.17Z"/><path class="a5c375a0-fa89-4dfa-9ddc-88d35a79f15e" d="M1267.4,748.34h-5v8.54h-2.8V735.76h7a8.3,8.3,0,0,1,5.5,1.63,5.84,5.84,0,0,1,1.92,4.73,5.68,5.68,0,0,1-1.07,3.44,6.37,6.37,0,0,1-3,2.19l5,9v.17h-3Zm-5-2.28h4.29A4.84,4.84,0,0,0,1270,745a3.63,3.63,0,0,0,1.23-2.88,3.83,3.83,0,0,0-1.17-3,5,5,0,0,0-3.38-1.06h-4.27Z"/><path class="a5c375a0-fa89-4dfa-9ddc-88d35a79f15e" d="M1294.23,747a13.05,13.05,0,0,1-1,5.42,7.91,7.91,0,0,1-3,3.53,8.18,8.18,0,0,1-11.9-3.5,12.52,12.52,0,0,1-1.1-5.26v-1.52a12.89,12.89,0,0,1,1.06-5.38,7.84,7.84,0,0,1,7.44-4.82,8.22,8.22,0,0,1,4.48,1.23,7.9,7.9,0,0,1,3,3.55,13.11,13.11,0,0,1,1,5.42Zm-2.77-1.36a9.46,9.46,0,0,0-1.51-5.77,5,5,0,0,0-4.23-2,4.93,4.93,0,0,0-4.16,2,9.27,9.27,0,0,0-1.56,5.58V747a9.47,9.47,0,0,0,1.53,5.72,5.38,5.38,0,0,0,8.4.12,9.42,9.42,0,0,0,1.52-5.63Z"/><path class="a5c375a0-fa89-4dfa-9ddc-88d35a79f15e" d="M1307.27,735.76h2.8v15a6.19,6.19,0,0,1-1.82,4.74,6.81,6.81,0,0,1-4.86,1.71,7,7,0,0,1-4.91-1.61,5.81,5.81,0,0,1-1.76-4.51h2.79a3.5,3.5,0,0,0,3.88,3.84,3.74,3.74,0,0,0,2.8-1.09,4.21,4.21,0,0,0,1.08-3Z"/><path class="a5c375a0-fa89-4dfa-9ddc-88d35a79f15e" d="M1326.78,747.12h-9.17v7.48h10.65v2.28h-13.44V735.76h13.29V738h-10.5v6.8h9.17Z"/><path class="a5c375a0-fa89-4dfa-9ddc-88d35a79f15e" d="M1347.29,750.18a7.76,7.76,0,0,1-2.48,5.17,8.12,8.12,0,0,1-5.54,1.82,7.46,7.46,0,0,1-6-2.68,10.78,10.78,0,0,1-2.26-7.18v-2a12,12,0,0,1,1.05-5.18,7.86,7.86,0,0,1,3-3.43,8.33,8.33,0,0,1,4.47-1.2,7.65,7.65,0,0,1,5.4,1.88,7.86,7.86,0,0,1,2.37,5.2h-2.8a6.06,6.06,0,0,0-1.58-3.67,4.77,4.77,0,0,0-3.39-1.13,5,5,0,0,0-4.19,2,9.06,9.06,0,0,0-1.52,5.62v2a9.3,9.3,0,0,0,1.44,5.47,4.65,4.65,0,0,0,4,2,5.37,5.37,0,0,0,3.57-1.05,5.84,5.84,0,0,0,1.65-3.66Z"/><path class="a5c375a0-fa89-4dfa-9ddc-88d35a79f15e" d="M1365.28,738h-6.8v18.84h-2.77V738h-6.78v-2.28h16.36Z"/><path class="a5c375a0-fa89-4dfa-9ddc-88d35a79f15e" d="M1374.42,747.47a13.14,13.14,0,0,1-5.22-2.53,4.83,4.83,0,0,1-1.63-3.71,5.11,5.11,0,0,1,2-4.13,7.94,7.94,0,0,1,5.19-1.63,8.66,8.66,0,0,1,3.88.84,6.38,6.38,0,0,1,2.64,2.32,5.93,5.93,0,0,1,.94,3.23h-2.8a3.86,3.86,0,0,0-1.22-3,5,5,0,0,0-3.44-1.1,5.08,5.08,0,0,0-3.22.91,3,3,0,0,0-1.15,2.52,2.72,2.72,0,0,0,1.1,2.19,10.75,10.75,0,0,0,3.73,1.63,17.32,17.32,0,0,1,4.13,1.63,6.25,6.25,0,0,1,2.21,2.08,5.3,5.3,0,0,1,.72,2.8,4.93,4.93,0,0,1-2,4.11,8.55,8.55,0,0,1-5.36,1.54,10,10,0,0,1-4.07-.83,6.85,6.85,0,0,1-2.91-2.28,5.57,5.57,0,0,1-1-3.29h2.8a3.64,3.64,0,0,0,1.42,3,6,6,0,0,0,3.78,1.11,5.49,5.49,0,0,0,3.38-.9,2.92,2.92,0,0,0,1.18-2.45,2.87,2.87,0,0,0-1.09-2.4A12.59,12.59,0,0,0,1374.42,747.47Z"/></g><rect id="2ceed32f-5537-48b0-8ab1-3d04cd353255" data-name="rect5617-6" class="4c52e44b-be61-4214-9e0d-4b1062ec3fbe" x="854" y="788.37" width="729.11" height="67.66"/><g class="afe1f77d-5a2b-4169-92cf-25d1bed2c282"><path class="a2a25121-d83f-4809-85c5-749bd75a4629" d="M915.45,822.34h-5v8.54h-2.8V809.76h7a8.3,8.3,0,0,1,5.5,1.63,5.84,5.84,0,0,1,1.92,4.73,5.68,5.68,0,0,1-1.07,3.44,6.37,6.37,0,0,1-3,2.19l5,9v.17h-3Zm-5-2.28h4.29a4.84,4.84,0,0,0,3.3-1.08,3.63,3.63,0,0,0,1.23-2.88,3.83,3.83,0,0,0-1.17-3,5,5,0,0,0-3.38-1.06h-4.27Z"/><path class="a2a25121-d83f-4809-85c5-749bd75a4629" d="M932.39,825.21a5,5,0,0,1,.85-2.8,13,13,0,0,1,3.25-3,14,14,0,0,1-1.89-2.76,5.34,5.34,0,0,1,.94-5.85,5.36,5.36,0,0,1,3.86-1.36,5.21,5.21,0,0,1,3.6,1.27,4.1,4.1,0,0,1,1.42,3.2,4.51,4.51,0,0,1-.65,2.36,8.41,8.41,0,0,1-2.26,2.27L940,819.71l4.71,5.61a8.89,8.89,0,0,0,1-4.19h2.43a10.1,10.1,0,0,1-1.79,6.14l3,3.61H946.1l-1.41-1.67a7.39,7.39,0,0,1-2.52,1.46,9,9,0,0,1-2.94.5,7.27,7.27,0,0,1-5-1.64A5.46,5.46,0,0,1,932.39,825.21Zm6.84,3.77a5.66,5.66,0,0,0,3.91-1.62L938,821.19l-.48.35q-2.43,1.78-2.43,3.67a3.56,3.56,0,0,0,1.11,2.74A4.3,4.3,0,0,0,939.23,829Zm-2.43-14.46a6.09,6.09,0,0,0,1.71,3.48l1.71-1.2a4.55,4.55,0,0,0,1.35-1.33,3,3,0,0,0,.36-1.53,2.07,2.07,0,0,0-.73-1.62,2.65,2.65,0,0,0-1.83-.65,2.37,2.37,0,0,0-1.89.8A3,3,0,0,0,936.81,814.52Z"/><path class="a2a25121-d83f-4809-85c5-749bd75a4629" d="M959.23,830.88V809.76h6a9.62,9.62,0,0,1,4.88,1.22,8.24,8.24,0,0,1,3.28,3.47,11.26,11.26,0,0,1,1.17,5.16V821a11.3,11.3,0,0,1-1.16,5.24,8.12,8.12,0,0,1-3.3,3.45,10.24,10.24,0,0,1-5,1.23ZM962,812V828.6H965a6.39,6.39,0,0,0,5-2,8.27,8.27,0,0,0,1.79-5.71v-1.23a8.4,8.4,0,0,0-1.69-5.6,6,6,0,0,0-4.8-2Z"/><path class="a2a25121-d83f-4809-85c5-749bd75a4629" d="M1002.37,821a13.05,13.05,0,0,1-1,5.42,7.91,7.91,0,0,1-3,3.53,8.18,8.18,0,0,1-11.9-3.5,12.52,12.52,0,0,1-1.1-5.26v-1.52a12.89,12.89,0,0,1,1.06-5.38,7.84,7.84,0,0,1,7.44-4.82,8.22,8.22,0,0,1,4.48,1.23,7.9,7.9,0,0,1,3,3.55,13.11,13.11,0,0,1,1,5.42Zm-2.77-1.36a9.46,9.46,0,0,0-1.51-5.77,5,5,0,0,0-4.23-2,4.93,4.93,0,0,0-4.16,2,9.27,9.27,0,0,0-1.56,5.58V821a9.47,9.47,0,0,0,1.53,5.72,5.38,5.38,0,0,0,8.4.12,9.42,9.42,0,0,0,1.52-5.63Z"/><path class="a2a25121-d83f-4809-85c5-749bd75a4629" d="M1009.34,822.61v8.27h-2.79V809.76h7.8a7.84,7.84,0,0,1,5.44,1.77,6,6,0,0,1,2,4.69,5.92,5.92,0,0,1-1.92,4.74,8.2,8.2,0,0,1-5.51,1.66Zm0-2.28h5a5,5,0,0,0,3.43-1.05,3.85,3.85,0,0,0,1.19-3,4,4,0,0,0-1.19-3,4.7,4.7,0,0,0-3.27-1.18h-5.17Z"/><path class="a2a25121-d83f-4809-85c5-749bd75a4629" d="M1028.11,822.61v8.27h-2.79V809.76h7.8a7.84,7.84,0,0,1,5.44,1.77,6,6,0,0,1,2,4.69,5.92,5.92,0,0,1-1.92,4.74,8.2,8.2,0,0,1-5.51,1.66Zm0-2.28h5a5,5,0,0,0,3.43-1.05,3.85,3.85,0,0,0,1.19-3,4,4,0,0,0-1.19-3,4.7,4.7,0,0,0-3.27-1.18h-5.17Z"/><path class="a2a25121-d83f-4809-85c5-749bd75a4629" d="M1060.36,821a13.05,13.05,0,0,1-1,5.42,7.91,7.91,0,0,1-3,3.53,8.18,8.18,0,0,1-11.9-3.5,12.52,12.52,0,0,1-1.1-5.26v-1.52a12.89,12.89,0,0,1,1.06-5.38,7.84,7.84,0,0,1,7.44-4.82,8.22,8.22,0,0,1,4.48,1.23,7.9,7.9,0,0,1,3,3.55,13.11,13.11,0,0,1,1,5.42Zm-2.77-1.36a9.46,9.46,0,0,0-1.51-5.77,5,5,0,0,0-4.23-2,4.93,4.93,0,0,0-4.16,2,9.27,9.27,0,0,0-1.56,5.58V821a9.47,9.47,0,0,0,1.53,5.72,5.38,5.38,0,0,0,8.4.12,9.42,9.42,0,0,0,1.52-5.63Z"/><path class="a2a25121-d83f-4809-85c5-749bd75a4629" d="M1072.29,822.34h-5v8.54h-2.8V809.76h7a8.3,8.3,0,0,1,5.5,1.63,5.84,5.84,0,0,1,1.92,4.73,5.68,5.68,0,0,1-1.07,3.44,6.37,6.37,0,0,1-3,2.19l5,9v.17h-3Zm-5-2.28h4.29a4.84,4.84,0,0,0,3.3-1.08,3.63,3.63,0,0,0,1.23-2.88,3.83,3.83,0,0,0-1.17-3,5,5,0,0,0-3.38-1.06h-4.27Z"/><path class="a2a25121-d83f-4809-85c5-749bd75a4629" d="M1096.31,812h-6.8v18.84h-2.77V812H1080v-2.28h16.36Z"/><path class="a2a25121-d83f-4809-85c5-749bd75a4629" d="M1114.33,809.76v14.36a6.73,6.73,0,0,1-1.88,4.89,7.58,7.58,0,0,1-5.06,2.13l-.74,0a7.92,7.92,0,0,1-5.53-1.87,6.69,6.69,0,0,1-2.09-5.15V809.76h2.76v14.3a4.41,4.41,0,0,0,4.87,4.83,4.9,4.9,0,0,0,3.62-1.26,4.82,4.82,0,0,0,1.26-3.55V809.76Z"/><path class="a2a25121-d83f-4809-85c5-749bd75a4629" d="M1135,830.88h-2.8l-10.65-16.27v16.27h-2.8V809.76h2.8l10.68,16.35V809.76H1135Z"/><path class="a2a25121-d83f-4809-85c5-749bd75a4629" d="M1142.93,830.88h-2.79V809.76h2.79Z"/><path class="a2a25121-d83f-4809-85c5-749bd75a4629" d="M1162.22,812h-6.8v18.84h-2.77V812h-6.78v-2.28h16.36Z"/><path class="a2a25121-d83f-4809-85c5-749bd75a4629" d="M1168.35,830.88h-2.79V809.76h2.79Z"/><path class="a2a25121-d83f-4809-85c5-749bd75a4629" d="M1185.4,821.12h-9.17v7.48h10.65v2.28h-13.44V809.76h13.29V812h-10.5v6.8h9.17Z"/><path class="a2a25121-d83f-4809-85c5-749bd75a4629" d="M1196.59,821.47a13.14,13.14,0,0,1-5.22-2.53,4.83,4.83,0,0,1-1.63-3.71,5.11,5.11,0,0,1,2-4.13,7.94,7.94,0,0,1,5.19-1.63,8.66,8.66,0,0,1,3.88.84,6.38,6.38,0,0,1,2.64,2.32,5.93,5.93,0,0,1,.94,3.23h-2.8a3.86,3.86,0,0,0-1.22-3,5,5,0,0,0-3.44-1.1,5.08,5.08,0,0,0-3.22.91,3,3,0,0,0-1.15,2.52,2.72,2.72,0,0,0,1.1,2.19,10.75,10.75,0,0,0,3.73,1.63,17.32,17.32,0,0,1,4.13,1.63,6.25,6.25,0,0,1,2.21,2.08,5.3,5.3,0,0,1,.72,2.8,4.93,4.93,0,0,1-2,4.11,8.55,8.55,0,0,1-5.36,1.54,10,10,0,0,1-4.07-.83,6.85,6.85,0,0,1-2.91-2.28,5.57,5.57,0,0,1-1-3.29h2.8a3.64,3.64,0,0,0,1.42,3,6,6,0,0,0,3.78,1.11,5.49,5.49,0,0,0,3.38-.9,2.92,2.92,0,0,0,1.18-2.45,2.87,2.87,0,0,0-1.09-2.4A12.59,12.59,0,0,0,1196.59,821.47Z"/><path class="a2a25121-d83f-4809-85c5-749bd75a4629" d="M1227,825.35h-8.86l-2,5.53h-2.88l8.08-21.12h2.44l8.09,21.12h-2.86Zm-8-2.28h7.19l-3.6-9.88Z"/><path class="a2a25121-d83f-4809-85c5-749bd75a4629" d="M1251,830.88h-2.8l-10.65-16.27v16.27h-2.8V809.76h2.8l10.68,16.35V809.76H1251Z"/><path class="a2a25121-d83f-4809-85c5-749bd75a4629" d="M1256,830.88V809.76h6a9.62,9.62,0,0,1,4.88,1.22,8.24,8.24,0,0,1,3.28,3.47,11.26,11.26,0,0,1,1.17,5.16V821a11.3,11.3,0,0,1-1.16,5.24,8.12,8.12,0,0,1-3.3,3.45,10.24,10.24,0,0,1-5,1.23Zm2.79-18.84V828.6h2.93a6.39,6.39,0,0,0,5-2,8.27,8.27,0,0,0,1.79-5.71v-1.23a8.4,8.4,0,0,0-1.69-5.6,6,6,0,0,0-4.8-2Z"/><path class="a2a25121-d83f-4809-85c5-749bd75a4629" d="M1298.41,824.18a7.76,7.76,0,0,1-2.48,5.17,8.12,8.12,0,0,1-5.54,1.82,7.46,7.46,0,0,1-6-2.68,10.78,10.78,0,0,1-2.26-7.18v-2a12,12,0,0,1,1.05-5.18,7.86,7.86,0,0,1,3-3.43,8.33,8.33,0,0,1,4.47-1.2,7.65,7.65,0,0,1,5.4,1.88,7.86,7.86,0,0,1,2.37,5.2h-2.8a6.06,6.06,0,0,0-1.58-3.67,4.77,4.77,0,0,0-3.39-1.13,5,5,0,0,0-4.19,2,9.06,9.06,0,0,0-1.52,5.62v2a9.3,9.3,0,0,0,1.44,5.47,4.65,4.65,0,0,0,4,2,5.37,5.37,0,0,0,3.57-1.05,5.84,5.84,0,0,0,1.65-3.66Z"/><path class="a2a25121-d83f-4809-85c5-749bd75a4629" d="M1318.48,821a13.05,13.05,0,0,1-1,5.42,7.91,7.91,0,0,1-3,3.53,8.18,8.18,0,0,1-11.9-3.5,12.52,12.52,0,0,1-1.1-5.26v-1.52a12.89,12.89,0,0,1,1.06-5.38,7.84,7.84,0,0,1,7.44-4.82,8.22,8.22,0,0,1,4.48,1.23,7.9,7.9,0,0,1,3,3.55,13.11,13.11,0,0,1,1,5.42Zm-2.77-1.36a9.46,9.46,0,0,0-1.51-5.77,5,5,0,0,0-4.23-2,4.93,4.93,0,0,0-4.16,2,9.27,9.27,0,0,0-1.56,5.58V821a9.47,9.47,0,0,0,1.53,5.72,5.38,5.38,0,0,0,8.4.12,9.42,9.42,0,0,0,1.52-5.63Z"/><path class="a2a25121-d83f-4809-85c5-749bd75a4629" d="M1325.47,828.6h10v2.28h-12.83V809.76h2.8Z"/><path class="a2a25121-d83f-4809-85c5-749bd75a4629" d="M1341.47,828.6h10v2.28h-12.83V809.76h2.8Z"/><path class="a2a25121-d83f-4809-85c5-749bd75a4629" d="M1366.63,825.35h-8.86l-2,5.53h-2.88l8.08-21.12h2.44l8.09,21.12h-2.86Zm-8-2.28h7.19l-3.6-9.88Z"/><path class="a2a25121-d83f-4809-85c5-749bd75a4629" d="M1374.36,830.88V809.76h6.91a8,8,0,0,1,5.18,1.42,5.12,5.12,0,0,1,1.74,4.21,4.29,4.29,0,0,1-.84,2.62,5.47,5.47,0,0,1-2.29,1.76,4.9,4.9,0,0,1,2.71,1.82,5.22,5.22,0,0,1,1,3.2,5.64,5.64,0,0,1-1.84,4.47,7.63,7.63,0,0,1-5.21,1.63Zm2.79-12.11h4.21a4.42,4.42,0,0,0,2.93-.92,3.07,3.07,0,0,0,1.1-2.49,3,3,0,0,0-1-2.54,5,5,0,0,0-3.09-.79h-4.13Zm0,2.23v7.6h4.6a4.44,4.44,0,0,0,3.07-1,3.54,3.54,0,0,0,1.13-2.78q0-3.81-4.15-3.81Z"/><path class="a2a25121-d83f-4809-85c5-749bd75a4629" d="M1409.15,821a13.05,13.05,0,0,1-1,5.42,7.91,7.91,0,0,1-3,3.53,8.18,8.18,0,0,1-11.9-3.5,12.52,12.52,0,0,1-1.1-5.26v-1.52a12.89,12.89,0,0,1,1.06-5.38,7.84,7.84,0,0,1,7.44-4.82,8.22,8.22,0,0,1,4.48,1.23,7.9,7.9,0,0,1,3,3.55,13.11,13.11,0,0,1,1,5.42Zm-2.77-1.36a9.46,9.46,0,0,0-1.51-5.77,5,5,0,0,0-4.23-2,4.93,4.93,0,0,0-4.16,2,9.27,9.27,0,0,0-1.56,5.58V821a9.47,9.47,0,0,0,1.53,5.72,5.38,5.38,0,0,0,8.4.12,9.42,9.42,0,0,0,1.52-5.63Z"/><path class="a2a25121-d83f-4809-85c5-749bd75a4629" d="M1421.09,822.34h-5v8.54h-2.8V809.76h7a8.3,8.3,0,0,1,5.5,1.63,5.84,5.84,0,0,1,1.92,4.73,5.68,5.68,0,0,1-1.07,3.44,6.37,6.37,0,0,1-3,2.19l5,9v.17h-3Zm-5-2.28h4.29a4.84,4.84,0,0,0,3.3-1.08,3.63,3.63,0,0,0,1.23-2.88,3.83,3.83,0,0,0-1.17-3,5,5,0,0,0-3.38-1.06h-4.27Z"/><path class="a2a25121-d83f-4809-85c5-749bd75a4629" d="M1443.32,825.35h-8.86l-2,5.53h-2.88l8.08-21.12h2.44l8.09,21.12h-2.86Zm-8-2.28h7.19l-3.6-9.88Z"/><path class="a2a25121-d83f-4809-85c5-749bd75a4629" d="M1463.79,812H1457v18.84h-2.77V812h-6.78v-2.28h16.36Z"/><path class="a2a25121-d83f-4809-85c5-749bd75a4629" d="M1469.92,830.88h-2.79V809.76h2.79Z"/><path class="a2a25121-d83f-4809-85c5-749bd75a4629" d="M1491.29,821a13.05,13.05,0,0,1-1,5.42,7.91,7.91,0,0,1-3,3.53,8.18,8.18,0,0,1-11.9-3.5,12.52,12.52,0,0,1-1.1-5.26v-1.52a12.89,12.89,0,0,1,1.06-5.38,7.84,7.84,0,0,1,7.44-4.82,8.22,8.22,0,0,1,4.48,1.23,7.9,7.9,0,0,1,3,3.55,13.11,13.11,0,0,1,1,5.42Zm-2.77-1.36a9.46,9.46,0,0,0-1.51-5.77,5,5,0,0,0-4.23-2,4.93,4.93,0,0,0-4.16,2,9.27,9.27,0,0,0-1.56,5.58V821a9.47,9.47,0,0,0,1.53,5.72,5.38,5.38,0,0,0,8.4.12,9.42,9.42,0,0,0,1.52-5.63Z"/><path class="a2a25121-d83f-4809-85c5-749bd75a4629" d="M1511.72,830.88h-2.8l-10.65-16.27v16.27h-2.8V809.76h2.8l10.68,16.35V809.76h2.77Z"/><path class="a2a25121-d83f-4809-85c5-749bd75a4629" d="M1522.91,821.47a13.14,13.14,0,0,1-5.22-2.53,4.83,4.83,0,0,1-1.63-3.71,5.11,5.11,0,0,1,2-4.13,7.94,7.94,0,0,1,5.19-1.63,8.66,8.66,0,0,1,3.88.84,6.38,6.38,0,0,1,2.64,2.32,5.93,5.93,0,0,1,.94,3.23h-2.8a3.86,3.86,0,0,0-1.22-3,5,5,0,0,0-3.44-1.1,5.08,5.08,0,0,0-3.22.91,3,3,0,0,0-1.15,2.52,2.72,2.72,0,0,0,1.1,2.19,10.75,10.75,0,0,0,3.73,1.63,17.32,17.32,0,0,1,4.13,1.63,6.25,6.25,0,0,1,2.21,2.08,5.3,5.3,0,0,1,.72,2.8,4.93,4.93,0,0,1-2,4.11,8.55,8.55,0,0,1-5.36,1.54,10,10,0,0,1-4.07-.83,6.85,6.85,0,0,1-2.91-2.28,5.57,5.57,0,0,1-1-3.29h2.8a3.64,3.64,0,0,0,1.42,3,6,6,0,0,0,3.78,1.11,5.49,5.49,0,0,0,3.38-.9,2.92,2.92,0,0,0,1.18-2.45,2.87,2.87,0,0,0-1.09-2.4A12.59,12.59,0,0,0,1522.91,821.47Z"/></g><path class="4297458f-989f-42d6-8bb6-6facec5087fc" d="M79.77,477.57H65.16l-3.28,9.12H57.13l13.32-34.84h4l13.35,34.84H83.1Zm-13.23-3.76H78.41l-5.94-16.29Z"/><path class="4297458f-989f-42d6-8bb6-6facec5087fc" d="M117.91,475.63a12.81,12.81,0,0,1-4.08,8.53,13.4,13.4,0,0,1-9.14,3,12.3,12.3,0,0,1-9.91-4.43q-3.73-4.43-3.72-11.84v-3.35A19.82,19.82,0,0,1,92.79,459a13,13,0,0,1,4.92-5.66,13.73,13.73,0,0,1,7.38-2,12.62,12.62,0,0,1,8.91,3.1,13,13,0,0,1,3.9,8.58h-4.62q-.6-4.17-2.6-6a7.87,7.87,0,0,0-5.6-1.87,8.24,8.24,0,0,0-6.91,3.26q-2.5,3.26-2.5,9.27V471q0,5.68,2.37,9a7.67,7.67,0,0,0,6.64,3.35,8.86,8.86,0,0,0,5.88-1.74q2-1.73,2.72-6Z"/><path class="4297458f-989f-42d6-8bb6-6facec5087fc" d="M143.46,477.57H128.84l-3.28,9.12h-4.74l13.32-34.84h4l13.35,34.84h-4.72Zm-13.23-3.76h11.86l-5.94-16.29Z"/><path class="4297458f-989f-42d6-8bb6-6facec5087fc" d="M156.2,486.69V451.85H166a15.87,15.87,0,0,1,8.05,2,13.6,13.6,0,0,1,5.4,5.72,18.6,18.6,0,0,1,1.93,8.52v2.22a18.64,18.64,0,0,1-1.91,8.64,13.38,13.38,0,0,1-5.44,5.7,16.89,16.89,0,0,1-8.23,2Zm4.6-31.08v27.32h4.84q5.32,0,8.28-3.3t3-9.41v-2q0-5.94-2.79-9.23a9.94,9.94,0,0,0-7.92-3.34Z"/><path class="4297458f-989f-42d6-8bb6-6facec5087fc" d="M208.1,470.59H193v12.35h17.56v3.76H188.38V451.85H210.3v3.76H193v11.22H208.1Z"/><path class="4297458f-989f-42d6-8bb6-6facec5087fc" d="M222.21,451.85l11.4,28.42L245,451.85h6v34.84h-4.6V473.12l.43-14.64-11.45,28.21h-3.52l-11.43-28.14.46,14.57v13.57h-4.6V451.85Z"/><path class="4297458f-989f-42d6-8bb6-6facec5087fc" d="M264,486.69h-4.6V451.85H264Z"/><path class="4297458f-989f-42d6-8bb6-6facec5087fc" d="M298.11,475.63a12.81,12.81,0,0,1-4.08,8.53,13.4,13.4,0,0,1-9.14,3,12.3,12.3,0,0,1-9.91-4.43q-3.73-4.43-3.73-11.84v-3.35A19.8,19.8,0,0,1,273,459a13,13,0,0,1,4.92-5.66,13.73,13.73,0,0,1,7.38-2,12.62,12.62,0,0,1,8.91,3.1,13,13,0,0,1,3.91,8.58h-4.62q-.6-4.17-2.6-6a7.87,7.87,0,0,0-5.59-1.87,8.23,8.23,0,0,0-6.91,3.26q-2.5,3.26-2.5,9.27V471q0,5.68,2.37,9a7.67,7.67,0,0,0,6.64,3.35,8.86,8.86,0,0,0,5.88-1.74q2-1.73,2.72-6Z"/><path class="4297458f-989f-42d6-8bb6-6facec5087fc" d="M336.26,470.59H321.14v12.35H338.7v3.76H316.54V451.85h21.92v3.76H321.14v11.22h15.12Z"/><path class="4297458f-989f-42d6-8bb6-6facec5087fc" d="M355.81,465.2l8.36-13.35h5.42l-11,17.27,11.28,17.56h-5.46l-8.58-13.59-8.63,13.59h-5.44l11.31-17.56-11-17.27h5.39Z"/><path class="4297458f-989f-42d6-8bb6-6facec5087fc" d="M400.25,475.63a12.81,12.81,0,0,1-4.08,8.53,13.4,13.4,0,0,1-9.14,3,12.3,12.3,0,0,1-9.91-4.43q-3.73-4.43-3.72-11.84v-3.35a19.82,19.82,0,0,1,1.74-8.54,13,13,0,0,1,4.92-5.66,13.73,13.73,0,0,1,7.38-2,12.62,12.62,0,0,1,8.91,3.1,13,13,0,0,1,3.9,8.58h-4.62q-.6-4.17-2.6-6a7.87,7.87,0,0,0-5.6-1.87,8.24,8.24,0,0,0-6.91,3.26q-2.5,3.26-2.5,9.27V471q0,5.68,2.37,9a7.67,7.67,0,0,0,6.64,3.35,8.86,8.86,0,0,0,5.88-1.74q2-1.73,2.72-6Z"/><path class="4297458f-989f-42d6-8bb6-6facec5087fc" d="M426.25,470.59H411.13v12.35h17.56v3.76H406.53V451.85h21.92v3.76H411.13v11.22h15.12Z"/><path class="4297458f-989f-42d6-8bb6-6facec5087fc" d="M439,482.93h16.53v3.76H434.42V451.85H439Z"/><path class="4297458f-989f-42d6-8bb6-6facec5087fc" d="M465.44,482.93H482v3.76H460.82V451.85h4.62Z"/><path class="4297458f-989f-42d6-8bb6-6facec5087fc" d="M506.94,470.59H491.82v12.35h17.56v3.76H487.22V451.85h21.92v3.76H491.82v11.22h15.12Z"/><path class="4297458f-989f-42d6-8bb6-6facec5087fc" d="M541.92,486.69H537.3l-17.56-26.84v26.84h-4.62V451.85h4.63l17.61,27v-27h4.58Z"/><path class="4297458f-989f-42d6-8bb6-6facec5087fc" d="M575.75,475.63a12.81,12.81,0,0,1-4.08,8.53,13.4,13.4,0,0,1-9.14,3,12.3,12.3,0,0,1-9.91-4.43q-3.73-4.43-3.72-11.84v-3.35a19.82,19.82,0,0,1,1.74-8.54,13,13,0,0,1,4.92-5.66,13.73,13.73,0,0,1,7.38-2,12.62,12.62,0,0,1,8.91,3.1,13,13,0,0,1,3.9,8.58h-4.62q-.6-4.17-2.6-6a7.87,7.87,0,0,0-5.6-1.87,8.24,8.24,0,0,0-6.91,3.26q-2.5,3.26-2.5,9.27V471q0,5.68,2.37,9a7.67,7.67,0,0,0,6.64,3.35,8.86,8.86,0,0,0,5.88-1.74q2-1.73,2.72-6Z"/><path class="4297458f-989f-42d6-8bb6-6facec5087fc" d="M601.75,470.59H586.63v12.35h17.56v3.76H582V451.85H604v3.76H586.63v11.22h15.12Z"/><path class="4297458f-989f-42d6-8bb6-6facec5087fc" d="M626.67,473v13.64h-4.6V451.85h12.87q5.73,0,9,2.92a9.89,9.89,0,0,1,3.25,7.73q0,5.07-3.17,7.81T634.88,473Zm0-3.76h8.27a8.27,8.27,0,0,0,5.65-1.74,6.35,6.35,0,0,0,2-5,6.56,6.56,0,0,0-2-5,7.75,7.75,0,0,0-5.39-1.94h-8.53Z"/><path class="4297458f-989f-42d6-8bb6-6facec5087fc" d="M665.81,472.6h-8.19v14.09H653V451.85h11.55q5.89,0,9.07,2.68t3.18,7.8A9.37,9.37,0,0,1,675,468a10.51,10.51,0,0,1-4.9,3.61l8.19,14.79v.29h-4.94Zm-8.19-3.76h7.07a8,8,0,0,0,5.45-1.77,6,6,0,0,0,2-4.75,6.31,6.31,0,0,0-1.93-5,8.18,8.18,0,0,0-5.57-1.75h-7Z"/><path class="4297458f-989f-42d6-8bb6-6facec5087fc" d="M710.07,470.39a21.52,21.52,0,0,1-1.73,8.94,13,13,0,0,1-4.89,5.83,13.49,13.49,0,0,1-19.63-5.78,20.64,20.64,0,0,1-1.81-8.67v-2.51a21.27,21.27,0,0,1,1.75-8.88A12.94,12.94,0,0,1,696,451.37a13.54,13.54,0,0,1,7.39,2,13,13,0,0,1,4.92,5.86,21.62,21.62,0,0,1,1.73,8.94Zm-4.58-2.25q0-6.2-2.49-9.51a8.22,8.22,0,0,0-7-3.31,8.13,8.13,0,0,0-6.86,3.31q-2.5,3.31-2.58,9.2v2.56q0,6,2.53,9.44A8.87,8.87,0,0,0,703,480q2.44-3.24,2.52-9.3Z"/><path class="4297458f-989f-42d6-8bb6-6facec5087fc" d="M742.72,482.12a10.62,10.62,0,0,1-4.95,3.79,20,20,0,0,1-7.39,1.26,14.35,14.35,0,0,1-7.57-2,13.31,13.31,0,0,1-5.12-5.68,19.62,19.62,0,0,1-1.86-8.54v-3q0-7.87,3.68-12.2t10.34-4.33a13.26,13.26,0,0,1,8.79,2.79,12.14,12.14,0,0,1,4.07,7.91h-4.6q-1.29-6.94-8.24-6.94a8.15,8.15,0,0,0-7,3.25q-2.38,3.24-2.41,9.4v2.85q0,5.87,2.68,9.33a8.7,8.7,0,0,0,7.26,3.46,16,16,0,0,0,4.53-.57,7,7,0,0,0,3.21-1.93V473.1h-8.07v-3.76h12.65Z"/><path class="4297458f-989f-42d6-8bb6-6facec5087fc" d="M763.19,472.6H755v14.09h-4.62V451.85h11.55q5.89,0,9.07,2.68t3.17,7.8A9.37,9.37,0,0,1,772.4,468a10.52,10.52,0,0,1-4.9,3.61l8.19,14.79v.29h-4.94ZM755,468.84h7.07a8,8,0,0,0,5.45-1.77,6,6,0,0,0,2-4.75,6.31,6.31,0,0,0-1.93-5,8.18,8.18,0,0,0-5.57-1.75h-7Z"/><path class="4297458f-989f-42d6-8bb6-6facec5087fc" d="M799.87,477.57H785.25L782,486.69h-4.74l13.32-34.84h4l13.35,34.84H803.2Zm-13.22-3.76H798.5l-5.94-16.29Z"/><path class="4297458f-989f-42d6-8bb6-6facec5087fc" d="M818.56,451.85,830,480.28l11.4-28.42h6v34.84h-4.6V473.12l.43-14.64-11.45,28.21h-3.52l-11.43-28.14.46,14.57v13.57h-4.6V451.85Z"/><path class="4297458f-989f-42d6-8bb6-6facec5087fc" d="M861.4,451.85l11.4,28.42,11.4-28.42h6v34.84h-4.6V473.12l.43-14.64-11.45,28.21H871L859.6,458.55l.46,14.57v13.57h-4.6V451.85Z"/><path class="4297458f-989f-42d6-8bb6-6facec5087fc" d="M918,470.59H902.89v12.35h17.56v3.76H898.29V451.85h21.92v3.76H902.89v11.22H918Z"/><path class="861cfa43-b61f-4663-a509-0232d6f0d90e" d="M74.11,521.39a12.3,12.3,0,0,1-1,5.11,7.46,7.46,0,0,1-2.79,3.33,7.71,7.71,0,0,1-11.22-3.3,11.81,11.81,0,0,1-1-5v-1.44a12.16,12.16,0,0,1,1-5.07,7.39,7.39,0,0,1,7-4.54,7.73,7.73,0,0,1,4.22,1.16A7.45,7.45,0,0,1,73.12,515a12.36,12.36,0,0,1,1,5.11Zm-2.62-1.29a8.92,8.92,0,0,0-1.42-5.43,4.7,4.7,0,0,0-4-1.89,4.65,4.65,0,0,0-3.92,1.89,8.73,8.73,0,0,0-1.47,5.26v1.46a8.93,8.93,0,0,0,1.44,5.39,5.07,5.07,0,0,0,7.92.11,8.88,8.88,0,0,0,1.44-5.31Z"/><path class="861cfa43-b61f-4663-a509-0232d6f0d90e" d="M93.37,530.7H90.73l-10-15.34V530.7H78V510.79h2.64L90.75,526.2V510.79h2.61Z"/><path class="861cfa43-b61f-4663-a509-0232d6f0d90e" d="M100.68,528.55h9.45v2.15H98V510.79h2.64Z"/><path class="861cfa43-b61f-4663-a509-0232d6f0d90e" d="M115.95,530.7h-2.63V510.79h2.63Z"/><path class="861cfa43-b61f-4663-a509-0232d6f0d90e" d="M136.07,530.7h-2.64l-10-15.34V530.7h-2.64V510.79h2.64l10.06,15.41V510.79h2.62Z"/><path class="861cfa43-b61f-4663-a509-0232d6f0d90e" d="M152,521.5h-8.64v7.05h10v2.15H140.74V510.79h12.53v2.15h-9.9v6.41H152Z"/><path class="861cfa43-b61f-4663-a509-0232d6f0d90e" d="M166.25,522.91v7.79h-2.63V510.79H171a7.39,7.39,0,0,1,5.13,1.67,5.65,5.65,0,0,1,1.86,4.42,5.58,5.58,0,0,1-1.81,4.46,7.72,7.72,0,0,1-5.2,1.57Zm0-2.15H171a4.72,4.72,0,0,0,3.23-1,3.63,3.63,0,0,0,1.12-2.87A3.75,3.75,0,0,0,174.2,514a4.43,4.43,0,0,0-3.08-1.11h-4.87Z"/><path class="861cfa43-b61f-4663-a509-0232d6f0d90e" d="M183.95,528.55h9.45v2.15H181.31V510.79h2.64Z"/><path class="861cfa43-b61f-4663-a509-0232d6f0d90e" d="M207.66,525.49h-8.35l-1.87,5.21h-2.71l7.61-19.91h2.3l7.63,19.91h-2.7Zm-7.56-2.15h6.78l-3.4-9.31Z"/><path class="861cfa43-b61f-4663-a509-0232d6f0d90e" d="M227,512.94h-6.41V530.7h-2.62V512.94h-6.39v-2.15H227Z"/><path class="861cfa43-b61f-4663-a509-0232d6f0d90e" d="M240.9,521.91h-8.37v8.79h-2.63V510.79h12.35v2.15h-9.72v6.82h8.37Z"/><path class="861cfa43-b61f-4663-a509-0232d6f0d90e" d="M260.74,521.39a12.3,12.3,0,0,1-1,5.11,7.46,7.46,0,0,1-2.79,3.33,7.71,7.71,0,0,1-11.22-3.3,11.79,11.79,0,0,1-1-5v-1.44a12.16,12.16,0,0,1,1-5.07,7.39,7.39,0,0,1,7-4.54,7.73,7.73,0,0,1,4.22,1.16,7.45,7.45,0,0,1,2.81,3.35,12.36,12.36,0,0,1,1,5.11Zm-2.62-1.29a8.92,8.92,0,0,0-1.42-5.43,4.7,4.7,0,0,0-4-1.89,4.65,4.65,0,0,0-3.92,1.89,8.74,8.74,0,0,0-1.47,5.26v1.46a8.93,8.93,0,0,0,1.44,5.39,5.07,5.07,0,0,0,7.92.11,8.88,8.88,0,0,0,1.44-5.31Z"/><path class="861cfa43-b61f-4663-a509-0232d6f0d90e" d="M272,522.65h-4.68v8.05h-2.64V510.79h6.6a7.82,7.82,0,0,1,5.18,1.53,5.51,5.51,0,0,1,1.81,4.46,5.36,5.36,0,0,1-1,3.24,6,6,0,0,1-2.8,2.06l4.68,8.45v.16h-2.82Zm-4.68-2.15h4a4.56,4.56,0,0,0,3.11-1,3.43,3.43,0,0,0,1.16-2.71,3.61,3.61,0,0,0-1.1-2.83,4.67,4.67,0,0,0-3.18-1h-4Z"/><path class="861cfa43-b61f-4663-a509-0232d6f0d90e" d="M285.35,510.79,291.86,527l6.52-16.24h3.41V530.7h-2.63v-7.75l.25-8.37-6.54,16.12h-2l-6.53-16.08.26,8.33v7.75H282V510.79Z"/><path class="861cfa43-b61f-4663-a509-0232d6f0d90e" d="M324.37,521.91H316v8.79h-2.63V510.79h12.35v2.15H316v6.82h8.37Z"/><path class="861cfa43-b61f-4663-a509-0232d6f0d90e" d="M344.2,521.39a12.28,12.28,0,0,1-1,5.11,7.45,7.45,0,0,1-2.79,3.33,7.71,7.71,0,0,1-11.22-3.3,11.79,11.79,0,0,1-1-5v-1.44a12.16,12.16,0,0,1,1-5.07,7.39,7.39,0,0,1,7-4.54,7.74,7.74,0,0,1,4.22,1.16,7.44,7.44,0,0,1,2.81,3.35,12.34,12.34,0,0,1,1,5.11Zm-2.62-1.29a8.92,8.92,0,0,0-1.42-5.43,4.7,4.7,0,0,0-4-1.89,4.65,4.65,0,0,0-3.92,1.89,8.73,8.73,0,0,0-1.47,5.26v1.46a8.93,8.93,0,0,0,1.45,5.39,5.07,5.07,0,0,0,7.92.11,8.88,8.88,0,0,0,1.44-5.31Z"/><path class="861cfa43-b61f-4663-a509-0232d6f0d90e" d="M355.46,522.65h-4.68v8.05h-2.64V510.79h6.6a7.82,7.82,0,0,1,5.18,1.53,5.5,5.5,0,0,1,1.81,4.46,5.35,5.35,0,0,1-1,3.24,6,6,0,0,1-2.8,2.06l4.68,8.45v.16h-2.82Zm-4.68-2.15h4a4.56,4.56,0,0,0,3.11-1,3.42,3.42,0,0,0,1.16-2.71,3.61,3.61,0,0,0-1.1-2.83,4.67,4.67,0,0,0-3.18-1h-4Z"/><path class="861cfa43-b61f-4663-a509-0232d6f0d90e" d="M387,524.38a7.32,7.32,0,0,1-2.33,4.87,7.66,7.66,0,0,1-5.22,1.72,7,7,0,0,1-5.66-2.53,10.16,10.16,0,0,1-2.13-6.77v-1.91a11.32,11.32,0,0,1,1-4.88,7.41,7.41,0,0,1,2.81-3.23,7.84,7.84,0,0,1,4.22-1.13,7.21,7.21,0,0,1,5.09,1.77,7.42,7.42,0,0,1,2.23,4.9h-2.64a5.72,5.72,0,0,0-1.49-3.46,4.5,4.5,0,0,0-3.2-1.07,4.7,4.7,0,0,0-4,1.86,8.54,8.54,0,0,0-1.43,5.29v1.93a8.77,8.77,0,0,0,1.36,5.16,4.38,4.38,0,0,0,3.79,1.92,5.06,5.06,0,0,0,3.36-1,5.5,5.5,0,0,0,1.55-3.45Z"/><path class="861cfa43-b61f-4663-a509-0232d6f0d90e" d="M405.94,521.39a12.3,12.3,0,0,1-1,5.11,7.46,7.46,0,0,1-2.79,3.33,7.71,7.71,0,0,1-11.22-3.3,11.79,11.79,0,0,1-1-5v-1.44a12.16,12.16,0,0,1,1-5.07,7.39,7.39,0,0,1,7-4.54,7.73,7.73,0,0,1,4.22,1.16A7.45,7.45,0,0,1,405,515a12.36,12.36,0,0,1,1,5.11Zm-2.62-1.29a8.92,8.92,0,0,0-1.42-5.43,4.7,4.7,0,0,0-4-1.89,4.65,4.65,0,0,0-3.92,1.89,8.74,8.74,0,0,0-1.47,5.26v1.46a8.93,8.93,0,0,0,1.44,5.39,5.07,5.07,0,0,0,7.92.11,8.88,8.88,0,0,0,1.44-5.31Z"/><path class="861cfa43-b61f-4663-a509-0232d6f0d90e" d="M412.52,528.55H422v2.15H409.88V510.79h2.64Z"/><path class="861cfa43-b61f-4663-a509-0232d6f0d90e" d="M427.61,528.55h9.45v2.15H425V510.79h2.64Z"/><path class="861cfa43-b61f-4663-a509-0232d6f0d90e" d="M451.32,521.5h-8.64v7.05h10v2.15H440.05V510.79h12.53v2.15h-9.9v6.41h8.64Z"/><path class="861cfa43-b61f-4663-a509-0232d6f0d90e" d="M470.71,528.09a6.08,6.08,0,0,1-2.83,2.17,11.43,11.43,0,0,1-4.22.72,8.21,8.21,0,0,1-4.33-1.14,7.61,7.61,0,0,1-2.92-3.25,11.2,11.2,0,0,1-1.06-4.88V520q0-4.5,2.1-7a7.33,7.33,0,0,1,5.91-2.47,7.57,7.57,0,0,1,5,1.59,6.94,6.94,0,0,1,2.33,4.52h-2.63a4.34,4.34,0,0,0-4.71-4,4.65,4.65,0,0,0-4,1.85,9,9,0,0,0-1.38,5.37v1.63a8.47,8.47,0,0,0,1.53,5.33,5,5,0,0,0,4.15,2,9.18,9.18,0,0,0,2.59-.33,4,4,0,0,0,1.83-1.1v-4.46h-4.61v-2.15h7.23Z"/><path class="861cfa43-b61f-4663-a509-0232d6f0d90e" d="M486.36,521.5h-8.64v7.05h10v2.15H475.09V510.79h12.53v2.15h-9.9v6.41h8.64Z"/><path class="861cfa43-b61f-4663-a509-0232d6f0d90e" d="M503.84,521.83a12.38,12.38,0,0,1-4.92-2.39,4.55,4.55,0,0,1-1.54-3.49,4.82,4.82,0,0,1,1.88-3.89,7.49,7.49,0,0,1,4.89-1.54,8.19,8.19,0,0,1,3.66.79,6,6,0,0,1,2.49,2.19,5.58,5.58,0,0,1,.88,3h-2.64a3.64,3.64,0,0,0-1.15-2.85,4.69,4.69,0,0,0-3.25-1,4.79,4.79,0,0,0-3,.86A2.85,2.85,0,0,0,500,515.9a2.57,2.57,0,0,0,1,2.06,10.14,10.14,0,0,0,3.52,1.54,16.36,16.36,0,0,1,3.89,1.54,5.9,5.9,0,0,1,2.08,2,5,5,0,0,1,.68,2.64,4.65,4.65,0,0,1-1.89,3.88,8.06,8.06,0,0,1-5.05,1.46,9.37,9.37,0,0,1-3.83-.79,6.46,6.46,0,0,1-2.75-2.15,5.26,5.26,0,0,1-1-3.1h2.64a3.43,3.43,0,0,0,1.33,2.85,5.63,5.63,0,0,0,3.57,1,5.17,5.17,0,0,0,3.19-.85,2.75,2.75,0,0,0,1.11-2.31,2.7,2.7,0,0,0-1-2.26A11.85,11.85,0,0,0,503.84,521.83Z"/><path class="861cfa43-b61f-4663-a509-0232d6f0d90e" d="M528.38,512.94H522V530.7h-2.62V512.94H513v-2.15h15.42Z"/><path class="861cfa43-b61f-4663-a509-0232d6f0d90e" d="M545.37,510.79v13.54a6.35,6.35,0,0,1-1.77,4.61,7.15,7.15,0,0,1-4.77,2l-.7,0a7.47,7.47,0,0,1-5.22-1.76,6.31,6.31,0,0,1-2-4.85V510.79h2.6v13.48a4.15,4.15,0,0,0,4.59,4.55,4.61,4.61,0,0,0,3.42-1.19,4.54,4.54,0,0,0,1.18-3.35V510.79Z"/><path class="861cfa43-b61f-4663-a509-0232d6f0d90e" d="M549.51,530.7V510.79h5.63a9.06,9.06,0,0,1,4.6,1.15,7.77,7.77,0,0,1,3.09,3.27,10.62,10.62,0,0,1,1.1,4.87v1.27a10.66,10.66,0,0,1-1.09,4.94,7.65,7.65,0,0,1-3.11,3.25,9.65,9.65,0,0,1-4.7,1.16Zm2.63-17.76v15.61h2.77a6,6,0,0,0,4.73-1.89,7.79,7.79,0,0,0,1.69-5.38v-1.16a7.92,7.92,0,0,0-1.59-5.27,5.68,5.68,0,0,0-4.53-1.91Z"/><path class="861cfa43-b61f-4663-a509-0232d6f0d90e" d="M579.17,521.5h-8.64v7.05h10v2.15H567.9V510.79h12.53v2.15h-9.9v6.41h8.64Z"/><path class="861cfa43-b61f-4663-a509-0232d6f0d90e" d="M599.16,530.7h-2.64l-10-15.34V530.7h-2.64V510.79h2.64l10.06,15.41V510.79h2.61Z"/><path class="861cfa43-b61f-4663-a509-0232d6f0d90e" d="M617.2,512.94h-6.41V530.7h-2.62V512.94h-6.39v-2.15H617.2Z"/><path class="861cfa43-b61f-4663-a509-0232d6f0d90e" d="M625.81,521.83a12.38,12.38,0,0,1-4.92-2.39,4.56,4.56,0,0,1-1.54-3.49,4.81,4.81,0,0,1,1.88-3.89,7.49,7.49,0,0,1,4.89-1.54,8.19,8.19,0,0,1,3.66.79,6,6,0,0,1,2.49,2.19,5.59,5.59,0,0,1,.88,3h-2.64a3.64,3.64,0,0,0-1.15-2.85,4.68,4.68,0,0,0-3.25-1,4.79,4.79,0,0,0-3,.86A2.85,2.85,0,0,0,622,515.9a2.57,2.57,0,0,0,1,2.06,10.15,10.15,0,0,0,3.52,1.54,16.35,16.35,0,0,1,3.89,1.54,5.91,5.91,0,0,1,2.08,2,5,5,0,0,1,.68,2.64,4.65,4.65,0,0,1-1.89,3.88,8.06,8.06,0,0,1-5.05,1.46,9.38,9.38,0,0,1-3.83-.79,6.46,6.46,0,0,1-2.75-2.15,5.25,5.25,0,0,1-1-3.1h2.64a3.43,3.43,0,0,0,1.34,2.85,5.62,5.62,0,0,0,3.57,1,5.17,5.17,0,0,0,3.19-.85,2.75,2.75,0,0,0,1.11-2.31,2.7,2.7,0,0,0-1-2.26A11.84,11.84,0,0,0,625.81,521.83Z"/><path class="861cfa43-b61f-4663-a509-0232d6f0d90e" d="M654.52,525.49h-8.35l-1.87,5.21h-2.71l7.61-19.91h2.3l7.63,19.91h-2.7ZM647,523.34h6.78l-3.4-9.31Z"/><path class="861cfa43-b61f-4663-a509-0232d6f0d90e" d="M677.13,530.7h-2.64l-10-15.34V530.7h-2.64V510.79h2.64l10.06,15.41V510.79h2.62Z"/><path class="861cfa43-b61f-4663-a509-0232d6f0d90e" d="M681.8,530.7V510.79h5.63a9.07,9.07,0,0,1,4.6,1.15,7.78,7.78,0,0,1,3.09,3.27,10.65,10.65,0,0,1,1.1,4.87v1.27a10.67,10.67,0,0,1-1.09,4.94,7.65,7.65,0,0,1-3.11,3.25,9.65,9.65,0,0,1-4.7,1.16Zm2.63-17.76v15.61h2.77a6,6,0,0,0,4.73-1.89,7.79,7.79,0,0,0,1.69-5.38v-1.16a7.92,7.92,0,0,0-1.59-5.27,5.68,5.68,0,0,0-4.52-1.91Z"/><path class="861cfa43-b61f-4663-a509-0232d6f0d90e" d="M720.35,512.94h-6.41V530.7h-2.62V512.94h-6.39v-2.15h15.42Z"/><path class="861cfa43-b61f-4663-a509-0232d6f0d90e" d="M734.57,521.5h-8.64v7.05h10v2.15H723.31V510.79h12.53v2.15h-9.9v6.41h8.64Z"/><path class="861cfa43-b61f-4663-a509-0232d6f0d90e" d="M750.25,525.49H741.9L740,530.7h-2.71l7.61-19.91h2.3l7.63,19.91h-2.7Zm-7.56-2.15h6.78l-3.4-9.31Z"/><path class="861cfa43-b61f-4663-a509-0232d6f0d90e" d="M772,524.38a7.32,7.32,0,0,1-2.33,4.87,7.66,7.66,0,0,1-5.22,1.72,7,7,0,0,1-5.66-2.53,10.17,10.17,0,0,1-2.13-6.77v-1.91a11.32,11.32,0,0,1,1-4.88,7.4,7.4,0,0,1,2.81-3.23,7.84,7.84,0,0,1,4.22-1.13,7.21,7.21,0,0,1,5.09,1.77,7.41,7.41,0,0,1,2.23,4.9H769.4a5.71,5.71,0,0,0-1.48-3.46,4.5,4.5,0,0,0-3.2-1.07,4.71,4.71,0,0,0-4,1.86,8.53,8.53,0,0,0-1.43,5.29v1.93a8.77,8.77,0,0,0,1.36,5.16,4.38,4.38,0,0,0,3.79,1.92,5.06,5.06,0,0,0,3.36-1,5.51,5.51,0,0,0,1.55-3.45Z"/><path class="861cfa43-b61f-4663-a509-0232d6f0d90e" d="M791,530.7h-2.64v-9.2h-10v9.2h-2.63V510.79h2.63v8.56h10v-8.56H791Z"/><path class="861cfa43-b61f-4663-a509-0232d6f0d90e" d="M806.89,521.5h-8.64v7.05h10v2.15H795.62V510.79h12.53v2.15h-9.9v6.41h8.64Z"/><path class="861cfa43-b61f-4663-a509-0232d6f0d90e" d="M818.87,522.65h-4.68v8.05h-2.64V510.79h6.6a7.82,7.82,0,0,1,5.18,1.53,5.51,5.51,0,0,1,1.81,4.46,5.36,5.36,0,0,1-1,3.24,6,6,0,0,1-2.8,2.06l4.68,8.45v.16H823.2Zm-4.68-2.15h4a4.56,4.56,0,0,0,3.11-1,3.42,3.42,0,0,0,1.16-2.71,3.6,3.6,0,0,0-1.1-2.83,4.67,4.67,0,0,0-3.18-1h-4Z"/><path class="861cfa43-b61f-4663-a509-0232d6f0d90e" d="M834.7,521.83a12.37,12.37,0,0,1-4.92-2.39,4.55,4.55,0,0,1-1.54-3.49,4.81,4.81,0,0,1,1.88-3.89,7.49,7.49,0,0,1,4.89-1.54,8.18,8.18,0,0,1,3.66.79,6,6,0,0,1,2.49,2.19,5.59,5.59,0,0,1,.88,3h-2.64a3.64,3.64,0,0,0-1.15-2.85,4.68,4.68,0,0,0-3.25-1,4.79,4.79,0,0,0-3,.86,2.85,2.85,0,0,0-1.09,2.38,2.57,2.57,0,0,0,1,2.06,10.14,10.14,0,0,0,3.52,1.54,16.35,16.35,0,0,1,3.89,1.54,5.89,5.89,0,0,1,2.08,2,5,5,0,0,1,.68,2.64,4.65,4.65,0,0,1-1.89,3.88,8.07,8.07,0,0,1-5.05,1.46,9.37,9.37,0,0,1-3.83-.79,6.46,6.46,0,0,1-2.75-2.15,5.25,5.25,0,0,1-1-3.1h2.64a3.43,3.43,0,0,0,1.33,2.85,5.63,5.63,0,0,0,3.57,1,5.17,5.17,0,0,0,3.19-.85,2.75,2.75,0,0,0,1.11-2.31,2.7,2.7,0,0,0-1-2.26A11.85,11.85,0,0,0,834.7,521.83Z"/><path id="6fa3de00-10ed-4b63-9fe2-8cbb777223e6" data-name="path6840" class="5df52252-26e3-4d62-868e-871e4570f3cf" d="M1369.9,201.1c.8,60.1-58.4,133.8-83.4,135.9,0,0-7.6,11.2-11.4,11.3-5.8.2-45.5,2.9-64.1,1.4-10.5-.8-28.9-.1-33.2-1.6-14.6-5-6.1-8.5-11.3-11-55.8-26.7-87.3-76.2-87.3-136,0-82.1,65.1-148.6,145.4-148.6,80.5.1,144.1,67.1,145.3,148.6Z"/><ellipse id="57a2f886-3a6a-4203-af81-9a92c3139568" data-name="path6843" class="668501bc-5e29-4ded-9240-e753feecb7db" cx="1222.5" cy="202.8" rx="117.9" ry="120.1"/><ellipse id="85cd6c2f-0ac6-4476-aa9f-5376238ba0c5" data-name="path6843-7" class="3800f9a7-ea5f-4b5a-bee9-58fc725708b4" cx="1220.3" cy="218.1" rx="87.8" ry="87.1"/><g class="bfb5a725-40bd-4f7b-83d9-bc55233484e1"><ellipse class="835eb1a1-891f-45c3-bcbf-515bd4ae0bcc" cx="1231" cy="655.5" rx="68.5" ry="12"/></g><path id="bcd340de-f588-438d-ac7a-b9ebcc95fce6" data-name="path6782" class="f2dc2ff9-f03a-4f5a-9e0b-ba878f70c241" d="M1167.9,543.4,1182,652.5c6.86,6.05,66.89,13.33,96,0,.6-.3,14.1-109.1,14.1-109.1C1250.7,548.3,1209.3,549.2,1167.9,543.4Z"/><path id="ba25e109-494e-45d6-90bf-3c308c4e83c3" data-name="path6784" class="f2dc2ff9-f03a-4f5a-9e0b-ba878f70c241" d="M1151.4,520.7c0,6.4,2.3,19,2.3,32.6,52.9,5.7,98,6.3,148.2.3,0,0,4.8-28.2,4.8-32.9S1151.4,514.2,1151.4,520.7Z"/><path id="61391fce-7e12-4638-9736-83df9f9c0bf2" data-name="path6788" class="15bacf58-be4e-47fb-8d47-9c6fada275ff" d="M1165.9,522.3c41.1-4.4,82.5-4,124.2-.3v1.3a976.35,976.35,0,0,1-125.7,0v-1.5Z"/><path id="f53f549d-c4b6-43cd-9dae-d857fde87afe" data-name="path6790" class="f2dc2ff9-f03a-4f5a-9e0b-ba878f70c241" d="M1222,424.1v98h10.6V424.6H1222Z"/><path id="5fcac071-da4f-4659-965e-43c71d10de0b" data-name="path6792" class="d2ce37d1-dddf-47ce-9a9c-d2c4f00f0467" d="M1103.4,416.1c16.4,16.4,8.6,8.9,16.4,16.4s22.9,20,26.8,23.6,21.8,15.7,26.4,17.1,18.9,2.1,24.6,2.9,8.9.4,13.9-2.5,11.1-2.1,10.7-10.7,1.1,2.9-.4-8.6,1.4-4.3-1.4-11.4-.7-2.5-2.9-7.1-8.6-7.5-18.2-12.5-13.2-5-26.1-6.4a268.53,268.53,0,0,0-30.7-1.4c-7.5,0-22.9.4-26.4.4s-12.7.2-12.7.2Z"/><path id="a7c7f05c-e3b2-42ca-8819-ae19f78c0751" data-name="path6794" class="0194c7c4-9ad0-4249-aa21-2eb5339f32cf" d="M1232.4,443.3c11.8-12.9,7.1-8.2,11.8-12.9s12.5-10.4,19.6-11.8,13.2-3.2,26.1-3.9,31.1-.4,37.9-.7,22.9-.4,21.8,1.4-5,6.1-9.3,10.4-13.2,11.8-15.4,14.6-8.9,8.6-13.2,13.2-13.9,12.9-16.4,12.9-15,8.9-19.3,8.9-14.6,1.8-19.6,1.8-9.6.4-13.6-2.1-9.3-5-9.3-7.9S1232.4,443.3,1232.4,443.3Z"/><path id="f003541e-5805-428b-b5b9-ba02c0a2e549" data-name="path6796" class="15f415c7-da15-4494-a170-2ec1a42945f0" d="M1232.7,456.5c51.8-37.1,82.5-30.7,82.5-30.7"/><path id="13c50b99-5690-4ebf-9a73-cf78087a6b39" data-name="path6798" class="a50b52bc-32c6-4e79-98f7-a5d35964d204" d="M1220.6,456.9c-50.7-41.4-78.6-31.1-78.6-31.1"/><path id="d358b78f-ea54-48e2-8af8-e4cf30974b0f" data-name="path6800" class="9de33b31-f2da-4153-98f2-fb9b4e81baca" d="M1177,349c3.9,13.9,6.8,25.4,8.2,30s4.3,9.3,6.8,16.4,5,17.1,7.1,17.1,56.4.7,56.4.4,5.7-23.6,6.8-27.1,15.4-37.1,10.7-37.5-98.1-.3-96,.7Z"/><path id="6798cdbb-e352-4342-96cf-6aa56e0bedda" data-name="path6802" class="0a8df9f8-e5e6-433e-8c83-fd8fb47f2e7f" d="M1199.5,413.3c54.3.4,56.1-2.1,54.3.4s-2.9,4.6-8.9,7.1-7.1,2.5-13.2,2.5-10,.7-14.6,0a32,32,0,0,1-11.4-4.3c-2.3-1.4-6.2-5.7-6.2-5.7Z"/><path id="eaf6c9a2-bba1-4329-b2da-9976709f46f6" data-name="rect6804" class="4b777cbb-6f9b-44cb-83bb-b5a04501f44e" d="M1188.6,396.5h77.9a4.06,4.06,0,0,1,4.1,4.1h0a4.06,4.06,0,0,1-4.1,4.1h-77.9a4.06,4.06,0,0,1-4.1-4.1h0A4.06,4.06,0,0,1,1188.6,396.5Z"/><path id="0d25ec73-57e6-411e-8e03-8f4ada718d4a" data-name="rect6804-5" class="e4cfd2fe-8596-4fcc-a9bb-fe609f988684" d="M1182.9,379.2h86.4a4.06,4.06,0,0,1,4.1,4.1h0a4.06,4.06,0,0,1-4.1,4.1h-86.4a4.06,4.06,0,0,1-4.1-4.1h0A4.06,4.06,0,0,1,1182.9,379.2Z"/><path id="46254da0-4922-4d66-8cd5-73a108ad2da2" data-name="rect6804-4" class="a75f6147-d9b2-4f49-bc2f-f1fd0e644865" d="M1177.4,362.6h95a4.12,4.12,0,0,1,4.1,4.1h0a4.12,4.12,0,0,1-4.1,4.1h-95a4.12,4.12,0,0,1-4.1-4.1h0A4.06,4.06,0,0,1,1177.4,362.6Z"/><path id="0287c6ba-c313-4759-af7d-282f575d6720" data-name="path6833" class="b9ca802c-1153-4eb6-b568-06c4d0bee510" d="M1269.9,329.1,1316.4,215l-25.3-13.1L1286,212l-7.1,8.1h0"/><path id="8536022c-617d-401b-8638-6535c3db593e" data-name="path6831" class="1a47cacf-258b-4078-aea1-dd64332b661e" d="M1181.1,331.1,1132.6,222l30.3-16.2"/><g class="afe1f77d-5a2b-4169-92cf-25d1bed2c282"><path class="e0769ef4-e814-404c-8160-7d001a25dbe4" d="M1170.75,181.64a3.05,3.05,0,0,1,.82-2.16,3.16,3.16,0,0,1,2.43-.88,3.21,3.21,0,0,1,2.45.88,3,3,0,0,1,.83,2.16,2.93,2.93,0,0,1-.83,2.13,3.28,3.28,0,0,1-2.45.85,3.22,3.22,0,0,1-2.43-.85A3,3,0,0,1,1170.75,181.64Zm6,38.89h-5.52V189.79h5.52Z"/><path class="e0769ef4-e814-404c-8160-7d001a25dbe4" d="M1184.2,204.9q0-7.07,3.52-11.38a11.33,11.33,0,0,1,9.21-4.3,11.45,11.45,0,0,1,9,3.69v-16h5.52v43.63h-5.07l-.27-3.29q-3.31,3.86-9.21,3.86a11.21,11.21,0,0,1-9.14-4.37q-3.53-4.37-3.53-11.42Zm5.52.6q0,5.23,2.27,8.18a7.45,7.45,0,0,0,6.26,3,8.09,8.09,0,0,0,7.66-4.49V198a8.17,8.17,0,0,0-7.6-4.35,7.49,7.49,0,0,0-6.32,3Q1189.71,199.65,1189.72,205.5Z"/><path class="e0769ef4-e814-404c-8160-7d001a25dbe4" d="M1233.37,221.1a14.46,14.46,0,0,1-10.67-4.1q-4.11-4.1-4.11-11v-1a17.71,17.71,0,0,1,1.83-8.17,13.85,13.85,0,0,1,5.13-5.62,13.36,13.36,0,0,1,7.14-2q6.29,0,9.78,3.95t3.49,11.31v2.19h-21.86a10.62,10.62,0,0,0,2.79,7.34,9,9,0,0,0,6.78,2.8,10,10,0,0,0,4.95-1.14,12.26,12.26,0,0,0,3.55-3l3.37,2.5Q1241.48,221.1,1233.37,221.1Zm-.69-27.55a7.53,7.53,0,0,0-5.61,2.31,11,11,0,0,0-2.8,6.49h16.16V202a9.73,9.73,0,0,0-2.27-6.21A7.1,7.1,0,0,0,1232.68,193.54Z"/><path class="e0769ef4-e814-404c-8160-7d001a25dbe4" d="M1272.25,220.53a10.61,10.61,0,0,1-.77-3.24,12.6,12.6,0,0,1-9.18,3.81,11.74,11.74,0,0,1-7.83-2.57,8.15,8.15,0,0,1-3.06-6.52,8.56,8.56,0,0,1,3.83-7.46q3.83-2.66,10.78-2.66h5.37v-2.41a5.75,5.75,0,0,0-1.73-4.39,7.17,7.17,0,0,0-5.1-1.63,8.32,8.32,0,0,0-4.95,1.42,4.14,4.14,0,0,0-2,3.44h-5.55a7,7,0,0,1,1.71-4.45,11.65,11.65,0,0,1,4.65-3.39,16.32,16.32,0,0,1,6.46-1.25q5.58,0,8.74,2.66a9.38,9.38,0,0,1,3.28,7.31v14.15a16.55,16.55,0,0,0,1.13,6.73v.45Zm-9.15-4a10.07,10.07,0,0,0,4.92-1.28,7.92,7.92,0,0,0,3.37-3.32v-6.31h-4.32q-10.14,0-10.14,5.65a4.68,4.68,0,0,0,1.73,3.86A6.86,6.86,0,0,0,1263.1,216.52Z"/></g><line class="1a47cacf-258b-4078-aea1-dd64332b661e" x1="1172.7" y1="220.5" x2="1161.3" y2="205.9"/></g></g></svg>