<svg xmlns="http://www.w3.org/2000/svg" viewBox="0 0 1600 900"><defs><style>.a60e1bb9-a8bb-4449-88fa-8a567a67ed59{fill:#21a1bc;}.\36 a7c7d79-846e-4402-a923-c6bf94dd5b76{fill:#ffa64f;}.\32 6f09624-31e3-40ba-97d2-df07d177456f,.d87c5169-7159-4830-8274-20b6f2139374{fill:#ffe5ed;}.d2e7a0b4-85ce-4f64-8ad1-b20aff5dd818{fill:#ffbd7b;stroke-linecap:round;stroke-linejoin:round;stroke-width:0.84px;}.aac0889f-b706-4f33-828b-04b694de96bb,.d2e7a0b4-85ce-4f64-8ad1-b20aff5dd818{stroke:#f8f8f8;}.e4c3bd6c-6a45-45d9-a378-fd78374889aa,.ecce432a-bc31-4320-9765-b0c49ba2a391{fill:#4c9754;}.\31 12901c3-7d4d-49c0-bcb9-09a915fc4274{isolation:isolate;}.\30 9bd9df5-f856-4719-91af-e3c55736c38f{fill:#ba9c73;}.\30 9bd9df5-f856-4719-91af-e3c55736c38f,.\30 fb40d32-774e-4d17-b528-d6f5fe61bd50,.\32 3d8a311-1ec1-426b-894e-1d273c4474b8,.\34 39be27b-82db-42d1-8b4c-41d6c8b9259a,.\34 7d3aeab-83b8-4687-9123-04aeecc0b377,.\35 3331f0c-a7df-458c-8742-01e082ca51e7,.\36 1f46a27-51ad-4769-8f18-faf8c82c5291,.\36 e9bb1eb-2638-4f57-880b-ddc1d658e7ad,.\38 5b105f9-185e-4bb3-a1ee-4e7c954b417c,.\39 069bece-23a6-487e-9356-4729d9e8fe58,.\39 e7efe1e-2c4e-4828-8480-55230828b596,.\39 e89d736-309c-4d22-90af-e1a7217d732a,.a00e6a62-72b3-4824-bc03-092d9b6b6d00,.a09b6968-593f-4175-afd2-575c525261aa,.a49a0b64-1d51-4307-b620-cc172ac17c37,.ade3f887-58d8-4fce-ba61-5a7cb7d59eba,.b34d659b-5758-475e-ab18-96ffb4ba58b9,.bc6c6056-56f6-4a66-8b36-70f1e9671b9b,.c3d5257e-62a7-4780-89d7-86e0bee55ff0,.c659ba75-83f1-48e1-bf8a-706ea0d7ae79,.caf62995-54d9-44cd-8bd7-40dd051824cb,.cc2c605d-3790-4fb9-9bff-18c4a2ac6535,.d87c5169-7159-4830-8274-20b6f2139374,.da15e447-ed73-4ae8-8932-7a6b8b0e8f3c,.dacbc856-e9a8-495d-a0a8-faa766d1f813,.e49092e9-28ef-4c22-b4b5-6a27982811c4,.e4c3bd6c-6a45-45d9-a378-fd78374889aa,.e569233d-8f24-4270-8d38-d30e6c1ae4ab,.ef80d6ec-467d-4f0f-8e10-d0d043e495a3,.efa9ea7b-b4a8-4337-b6e7-46db56772a40,.f60d051a-c0b0-47e7-9edc-375431baaae0,.fe216b3d-3c70-4f21-b605-ba9bd178845b{stroke:#000;}.\30 9bd9df5-f856-4719-91af-e3c55736c38f,.\30 fb40d32-774e-4d17-b528-d6f5fe61bd50,.\32 3d8a311-1ec1-426b-894e-1d273c4474b8,.\34 39be27b-82db-42d1-8b4c-41d6c8b9259a,.\34 7d3aeab-83b8-4687-9123-04aeecc0b377,.\36 1f46a27-51ad-4769-8f18-faf8c82c5291,.\38 5b105f9-185e-4bb3-a1ee-4e7c954b417c,.\39 55322c0-2458-4f9c-81ae-ba98fde8f99a,.\39 e7efe1e-2c4e-4828-8480-55230828b596,.\39 e89d736-309c-4d22-90af-e1a7217d732a,.a00e6a62-72b3-4824-bc03-092d9b6b6d00,.a09b6968-593f-4175-afd2-575c525261aa,.aac0889f-b706-4f33-828b-04b694de96bb,.ade3f887-58d8-4fce-ba61-5a7cb7d59eba,.b34d659b-5758-475e-ab18-96ffb4ba58b9,.bc6c6056-56f6-4a66-8b36-70f1e9671b9b,.c3d5257e-62a7-4780-89d7-86e0bee55ff0,.c659ba75-83f1-48e1-bf8a-706ea0d7ae79,.caf62995-54d9-44cd-8bd7-40dd051824cb,.cc2c605d-3790-4fb9-9bff-18c4a2ac6535,.d87c5169-7159-4830-8274-20b6f2139374,.dacbc856-e9a8-495d-a0a8-faa766d1f813,.e3bb77c5-3b0e-4ce6-80fd-01b802a0b57d,.e49092e9-28ef-4c22-b4b5-6a27982811c4,.e4c3bd6c-6a45-45d9-a378-fd78374889aa,.e569233d-8f24-4270-8d38-d30e6c1ae4ab,.ef80d6ec-467d-4f0f-8e10-d0d043e495a3,.efa9ea7b-b4a8-4337-b6e7-46db56772a40,.f8753788-e2bb-405c-aa7f-54a337204fb7,.fe216b3d-3c70-4f21-b605-ba9bd178845b{stroke-width:1.14px;}.\39 e89d736-309c-4d22-90af-e1a7217d732a{fill:#4c9790;}.f8753788-e2bb-405c-aa7f-54a337204fb7{fill:#e8ebeb;stroke:#fff6f6;}.\35 3331f0c-a7df-458c-8742-01e082ca51e7,.\36 e9bb1eb-2638-4f57-880b-ddc1d658e7ad,.\39 55322c0-2458-4f9c-81ae-ba98fde8f99a,.aac0889f-b706-4f33-828b-04b694de96bb,.c6e547a8-bc85-4e6e-b7a0-d67e882cdb06,.da15e447-ed73-4ae8-8932-7a6b8b0e8f3c,.e3bb77c5-3b0e-4ce6-80fd-01b802a0b57d,.e49092e9-28ef-4c22-b4b5-6a27982811c4{fill:none;}.e3bb77c5-3b0e-4ce6-80fd-01b802a0b57d{stroke:#fffbfb;}.\39 55322c0-2458-4f9c-81ae-ba98fde8f99a{stroke:#fffdfd;}.\32 3d8a311-1ec1-426b-894e-1d273c4474b8{fill:#394f59;}.a00e6a62-72b3-4824-bc03-092d9b6b6d00{fill:#1a101d;}.ef80d6ec-467d-4f0f-8e10-d0d043e495a3{fill:#050e12;}.dacbc856-e9a8-495d-a0a8-faa766d1f813{fill:#ec6f6f;}.\30 fb40d32-774e-4d17-b528-d6f5fe61bd50{fill:#ffe59d;}.b34d659b-5758-475e-ab18-96ffb4ba58b9{fill:#ff9a9d;}.\38 5b105f9-185e-4bb3-a1ee-4e7c954b417c{fill:#796552;}.c659ba75-83f1-48e1-bf8a-706ea0d7ae79{fill:#6e9c73;}.a49a0b64-1d51-4307-b620-cc172ac17c37{fill:#191a04;stroke-width:1.01px;}.\34 39be27b-82db-42d1-8b4c-41d6c8b9259a{fill:#0a161c;}.ade3f887-58d8-4fce-ba61-5a7cb7d59eba{fill:#403317;}.efa9ea7b-b4a8-4337-b6e7-46db56772a40{fill:#1a160d;}.cc2c605d-3790-4fb9-9bff-18c4a2ac6535{fill:#48629d;}.\36 1f46a27-51ad-4769-8f18-faf8c82c5291{fill:#ff849d;}.caf62995-54d9-44cd-8bd7-40dd051824cb{fill:#29b2bf;}.\34 7d3aeab-83b8-4687-9123-04aeecc0b377{fill:#9bfbfc;}.bc6c6056-56f6-4a66-8b36-70f1e9671b9b{fill:#fdffff;}.e569233d-8f24-4270-8d38-d30e6c1ae4ab{fill:#29bfbf;}.a09b6968-593f-4175-afd2-575c525261aa{fill:#f9fcfc;}.fe216b3d-3c70-4f21-b605-ba9bd178845b{fill:#733431;}.\39 e7efe1e-2c4e-4828-8480-55230828b596{fill:#48619d;}.c3d5257e-62a7-4780-89d7-86e0bee55ff0{fill:#48759d;}.f60d051a-c0b0-47e7-9edc-375431baaae0{fill:#4b3832;stroke-width:1.36px;}.c6e547a8-bc85-4e6e-b7a0-d67e882cdb06{stroke:#2ea0e0;stroke-width:5.42px;}.\39 069bece-23a6-487e-9356-4729d9e8fe58{fill:#080000;stroke-width:1.91px;}.\36 e9bb1eb-2638-4f57-880b-ddc1d658e7ad{stroke-width:1.55px;}.\35 3331f0c-a7df-458c-8742-01e082ca51e7{stroke-width:1.55px;}.da15e447-ed73-4ae8-8932-7a6b8b0e8f3c{stroke-width:1.02px;}.b63d283a-3e92-4e31-a6cc-baab2acaef73{fill:#fff;}</style></defs><title>slide-2</title><g id="75667b2e-0e52-4776-9e50-ca490d07fe07" data-name="Layer 2"><g id="aea877d0-84e2-425c-ad70-59d3b39c6dde" data-name="Layer 1"><rect id="15414a28-1ed4-4234-a504-eb180c678a82" data-name="rect5580" class="a60e1bb9-a8bb-4449-88fa-8a567a67ed59" width="1600" height="900"/><rect id="9c1827bc-7d4f-4b85-bf04-99999228e313" data-name="rect5617" class="6a7c7d79-846e-4402-a923-c6bf94dd5b76" x="869" y="668.17" width="703.57" height="86.61"/><path class="26f09624-31e3-40ba-97d2-df07d177456f" d="M914.48,723.91V703.3h6.75a7.84,7.84,0,0,1,5.05,1.39,5,5,0,0,1,1.69,4.11,4.19,4.19,0,0,1-.82,2.56,5.33,5.33,0,0,1-2.24,1.72,4.79,4.79,0,0,1,2.64,1.78,5.1,5.1,0,0,1,1,3.12,5.51,5.51,0,0,1-1.8,4.36,7.45,7.45,0,0,1-5.09,1.59Zm2.72-11.82h4.11a4.31,4.31,0,0,0,2.86-.89,3,3,0,0,0,1.07-2.43,2.94,2.94,0,0,0-1-2.48,4.88,4.88,0,0,0-3-.77h-4Zm0,2.18v7.42h4.5a4.33,4.33,0,0,0,3-1,3.46,3.46,0,0,0,1.1-2.71q0-3.72-4.06-3.72Z"/><path class="26f09624-31e3-40ba-97d2-df07d177456f" d="M944.23,714.38h-8.95v7.31h10.39v2.22H932.56V703.3h13v2.22H935.28v6.64h8.95Z"/><path class="26f09624-31e3-40ba-97d2-df07d177456f" d="M955.15,714.72a12.81,12.81,0,0,1-5.1-2.47,4.72,4.72,0,0,1-1.59-3.62,5,5,0,0,1,1.95-4,7.76,7.76,0,0,1,5.07-1.59,8.46,8.46,0,0,1,3.79.82,6.23,6.23,0,0,1,2.58,2.27,5.79,5.79,0,0,1,.92,3.16H960a3.77,3.77,0,0,0-1.19-2.95,4.85,4.85,0,0,0-3.36-1.07,5,5,0,0,0-3.14.89,3,3,0,0,0-1.13,2.46,2.66,2.66,0,0,0,1.07,2.13,10.51,10.51,0,0,0,3.64,1.6,16.9,16.9,0,0,1,4,1.59,6.11,6.11,0,0,1,2.16,2,5.18,5.18,0,0,1,.7,2.73,4.82,4.82,0,0,1-2,4,8.36,8.36,0,0,1-5.23,1.51,9.71,9.71,0,0,1-4-.81,6.68,6.68,0,0,1-2.84-2.23,5.44,5.44,0,0,1-1-3.21h2.74a3.55,3.55,0,0,0,1.38,3,5.82,5.82,0,0,0,3.69,1.08,5.36,5.36,0,0,0,3.3-.88,2.85,2.85,0,0,0,1.15-2.39,2.8,2.8,0,0,0-1.06-2.34A12.26,12.26,0,0,0,955.15,714.72Z"/><path class="26f09624-31e3-40ba-97d2-df07d177456f" d="M980.56,705.52h-6.64v18.39h-2.71V705.52h-6.62V703.3h16Z"/><path class="26f09624-31e3-40ba-97d2-df07d177456f" d="M1006.11,723.91h-2.74v-9.53H993v9.53h-2.72V703.3H993v8.86h10.41V703.3h2.74Z"/><path class="26f09624-31e3-40ba-97d2-df07d177456f" d="M1022.6,718.52H1014l-1.94,5.39h-2.81l7.88-20.62h2.38l7.9,20.62h-2.79Zm-7.83-2.22h7l-3.52-9.64Z"/><path class="26f09624-31e3-40ba-97d2-df07d177456f" d="M1046,723.91h-2.74L1032.88,708v15.89h-2.74V703.3h2.74l10.42,16v-16H1046Z"/><path class="26f09624-31e3-40ba-97d2-df07d177456f" d="M1050.85,723.91V703.3h5.83a9.4,9.4,0,0,1,4.76,1.19,8.05,8.05,0,0,1,3.2,3.38,11,11,0,0,1,1.14,5v1.32a11,11,0,0,1-1.13,5.11,7.92,7.92,0,0,1-3.22,3.37,10,10,0,0,1-4.87,1.2Zm2.72-18.39v16.17h2.86a6.24,6.24,0,0,0,4.9-2,8.08,8.08,0,0,0,1.75-5.57V713a8.2,8.2,0,0,0-1.65-5.46,5.88,5.88,0,0,0-4.69-2Z"/><path class="26f09624-31e3-40ba-97d2-df07d177456f" d="M1074.34,717.41l.4,2.72.58-2.45,4.08-14.39h2.3l4,14.39.57,2.49.44-2.78,3.21-14.1h2.74l-5,20.62h-2.48l-4.25-15-.33-1.57-.33,1.57-4.41,15h-2.48l-5-20.62h2.72Z"/><path class="26f09624-31e3-40ba-97d2-df07d177456f" d="M1103.23,715.57h-4.85v8.34h-2.74V703.3h6.83a8.1,8.1,0,0,1,5.37,1.59,5.7,5.7,0,0,1,1.88,4.62,5.55,5.55,0,0,1-1,3.36,6.22,6.22,0,0,1-2.9,2.14l4.85,8.75v.17h-2.92Zm-4.85-2.22h4.18a4.72,4.72,0,0,0,3.23-1,3.55,3.55,0,0,0,1.2-2.81,3.74,3.74,0,0,0-1.14-2.94,4.84,4.84,0,0,0-3.3-1h-4.17Z"/><path class="26f09624-31e3-40ba-97d2-df07d177456f" d="M1116.46,723.91h-2.72V703.3h2.72Z"/><path class="26f09624-31e3-40ba-97d2-df07d177456f" d="M1135.29,705.52h-6.64v18.39h-2.71V705.52h-6.62V703.3h16Z"/><path class="26f09624-31e3-40ba-97d2-df07d177456f" d="M1152.84,705.52h-6.64v18.39h-2.71V705.52h-6.62V703.3h16Z"/><path class="26f09624-31e3-40ba-97d2-df07d177456f" d="M1167.58,714.38h-8.95v7.31H1169v2.22h-13.12V703.3h13v2.22h-10.25v6.64h8.95Z"/><path class="26f09624-31e3-40ba-97d2-df07d177456f" d="M1188.28,723.91h-2.74L1175.15,708v15.89h-2.74V703.3h2.74l10.42,16v-16h2.71Z"/><path class="26f09624-31e3-40ba-97d2-df07d177456f" d="M1216.17,723.91h-2.74L1203,708v15.89h-2.74V703.3H1203l10.42,16v-16h2.71Z"/><path class="26f09624-31e3-40ba-97d2-df07d177456f" d="M1236.89,714.27a12.74,12.74,0,0,1-1,5.29A7.72,7.72,0,0,1,1233,723a8,8,0,0,1-11.62-3.42,12.23,12.23,0,0,1-1.07-5.13V713a12.6,12.6,0,0,1,1-5.25,7.66,7.66,0,0,1,7.26-4.7,8,8,0,0,1,4.37,1.2,7.71,7.71,0,0,1,2.91,3.47,12.8,12.8,0,0,1,1,5.29Zm-2.71-1.33a9.23,9.23,0,0,0-1.47-5.63,4.87,4.87,0,0,0-4.13-2,4.81,4.81,0,0,0-4.06,2,9,9,0,0,0-1.52,5.44v1.52a9.24,9.24,0,0,0,1.5,5.59,5.25,5.25,0,0,0,8.2.11,9.2,9.2,0,0,0,1.49-5.5Z"/><path class="26f09624-31e3-40ba-97d2-df07d177456f" d="M1254.86,705.52h-6.64v18.39h-2.71V705.52h-6.62V703.3h16Z"/><path class="26f09624-31e3-40ba-97d2-df07d177456f" d="M1269.59,714.38h-8.95v7.31H1271v2.22h-13.12V703.3h13v2.22h-10.25v6.64h8.95Z"/><path class="26f09624-31e3-40ba-97d2-df07d177456f" d="M1280.51,714.72a12.81,12.81,0,0,1-5.1-2.47,4.72,4.72,0,0,1-1.59-3.62,5,5,0,0,1,1.95-4,7.76,7.76,0,0,1,5.07-1.59,8.46,8.46,0,0,1,3.79.82,6.23,6.23,0,0,1,2.58,2.27,5.79,5.79,0,0,1,.92,3.16h-2.74a3.77,3.77,0,0,0-1.19-2.95,4.85,4.85,0,0,0-3.36-1.07,5,5,0,0,0-3.14.89,3,3,0,0,0-1.13,2.46,2.66,2.66,0,0,0,1.07,2.13,10.51,10.51,0,0,0,3.64,1.6,16.9,16.9,0,0,1,4,1.59,6.11,6.11,0,0,1,2.16,2,5.18,5.18,0,0,1,.7,2.73,4.82,4.82,0,0,1-2,4,8.36,8.36,0,0,1-5.23,1.51,9.71,9.71,0,0,1-4-.81,6.68,6.68,0,0,1-2.84-2.23,5.44,5.44,0,0,1-1-3.21h2.74a3.55,3.55,0,0,0,1.38,3A5.82,5.82,0,0,0,1281,722a5.36,5.36,0,0,0,3.3-.88,2.85,2.85,0,0,0,1.15-2.39,2.8,2.8,0,0,0-1.06-2.34A12.26,12.26,0,0,0,1280.51,714.72Z"/><path class="26f09624-31e3-40ba-97d2-df07d177456f" d="M1314,717.37a7.58,7.58,0,0,1-2.42,5,7.93,7.93,0,0,1-5.41,1.78,7.28,7.28,0,0,1-5.86-2.62,10.53,10.53,0,0,1-2.21-7v-2a11.73,11.73,0,0,1,1-5.05,7.67,7.67,0,0,1,2.91-3.35,8.12,8.12,0,0,1,4.37-1.17,7.47,7.47,0,0,1,5.27,1.83,7.67,7.67,0,0,1,2.31,5.08h-2.74a5.92,5.92,0,0,0-1.54-3.58,4.66,4.66,0,0,0-3.31-1.11,4.87,4.87,0,0,0-4.09,1.93,8.84,8.84,0,0,0-1.48,5.48v2a9.09,9.09,0,0,0,1.4,5.34,4.54,4.54,0,0,0,3.93,2,5.24,5.24,0,0,0,3.48-1,5.7,5.7,0,0,0,1.61-3.58Z"/><path class="26f09624-31e3-40ba-97d2-df07d177456f" d="M1333.61,723.91h-2.74v-9.53h-10.41v9.53h-2.72V703.3h2.72v8.86h10.41V703.3h2.74Z"/><path class="26f09624-31e3-40ba-97d2-df07d177456f" d="M1350.1,718.52h-8.65l-1.94,5.39h-2.81l7.88-20.62H1347l7.9,20.62h-2.79Zm-7.83-2.22h7l-3.52-9.64Z"/><path class="26f09624-31e3-40ba-97d2-df07d177456f" d="M1360.37,715.84v8.07h-2.72V703.3h7.61a7.66,7.66,0,0,1,5.31,1.73,5.85,5.85,0,0,1,1.92,4.57,5.78,5.78,0,0,1-1.88,4.62,8,8,0,0,1-5.38,1.62Zm0-2.22h4.89a4.89,4.89,0,0,0,3.35-1,3.76,3.76,0,0,0,1.16-3,3.88,3.88,0,0,0-1.16-3,4.59,4.59,0,0,0-3.19-1.15h-5Z"/><path class="26f09624-31e3-40ba-97d2-df07d177456f" d="M1390.23,705.52h-6.64v18.39h-2.71V705.52h-6.62V703.3h16Z"/><path class="26f09624-31e3-40ba-97d2-df07d177456f" d="M1405,714.38H1396v7.31h10.39v2.22h-13.12V703.3h13v2.22H1396v6.64H1405Z"/><path class="26f09624-31e3-40ba-97d2-df07d177456f" d="M1417.37,715.57h-4.85v8.34h-2.74V703.3h6.83a8.1,8.1,0,0,1,5.37,1.59,5.7,5.7,0,0,1,1.88,4.62,5.55,5.55,0,0,1-1,3.36,6.22,6.22,0,0,1-2.9,2.14l4.85,8.75v.17h-2.92Zm-4.85-2.22h4.18a4.72,4.72,0,0,0,3.23-1,3.55,3.55,0,0,0,1.2-2.81,3.74,3.74,0,0,0-1.14-2.94,4.84,4.84,0,0,0-3.3-1h-4.17Z"/><path class="26f09624-31e3-40ba-97d2-df07d177456f" d="M1432.13,717.41l.4,2.72.58-2.45,4.08-14.39h2.3l4,14.39.57,2.49.44-2.78,3.21-14.1h2.74l-5,20.62h-2.48l-4.25-15-.33-1.57-.33,1.57-4.41,15h-2.48l-5-20.62h2.72Z"/><path class="26f09624-31e3-40ba-97d2-df07d177456f" d="M1456.37,723.91h-2.72V703.3h2.72Z"/><path class="26f09624-31e3-40ba-97d2-df07d177456f" d="M1467.43,714.72a12.81,12.81,0,0,1-5.1-2.47,4.72,4.72,0,0,1-1.59-3.62,5,5,0,0,1,1.95-4,7.76,7.76,0,0,1,5.07-1.59,8.46,8.46,0,0,1,3.79.82,6.23,6.23,0,0,1,2.58,2.27,5.79,5.79,0,0,1,.92,3.16h-2.74a3.77,3.77,0,0,0-1.19-2.95,4.85,4.85,0,0,0-3.36-1.07,5,5,0,0,0-3.14.89,3,3,0,0,0-1.13,2.46,2.66,2.66,0,0,0,1.07,2.13,10.51,10.51,0,0,0,3.64,1.6,16.9,16.9,0,0,1,4,1.59,6.11,6.11,0,0,1,2.16,2,5.18,5.18,0,0,1,.7,2.73,4.82,4.82,0,0,1-2,4,8.36,8.36,0,0,1-5.23,1.51,9.71,9.71,0,0,1-4-.81,6.68,6.68,0,0,1-2.84-2.23,5.44,5.44,0,0,1-1-3.21h2.74a3.55,3.55,0,0,0,1.38,3,5.82,5.82,0,0,0,3.69,1.08,5.36,5.36,0,0,0,3.3-.88,2.85,2.85,0,0,0,1.15-2.39,2.8,2.8,0,0,0-1.06-2.34A12.26,12.26,0,0,0,1467.43,714.72Z"/><path class="26f09624-31e3-40ba-97d2-df07d177456f" d="M1490.24,714.38h-8.95v7.31h10.39v2.22h-13.12V703.3h13v2.22H1481.3v6.64h8.95Z"/><rect id="338a48df-1caf-47c5-aff0-207f1f01e140" data-name="rect5617-6" class="d2e7a0b4-85ce-4f64-8ad1-b20aff5dd818" x="869" y="767.83" width="703.57" height="86.61"/><path class="ecce432a-bc31-4320-9765-b0c49ba2a391" d="M954.82,822.92h-2.74V813.4H941.67v9.53H939V802.31h2.72v8.86h10.41v-8.86h2.74Z"/><path class="ecce432a-bc31-4320-9765-b0c49ba2a391" d="M962.58,822.92h-2.72V802.31h2.72Z"/><path class="ecce432a-bc31-4320-9765-b0c49ba2a391" d="M982.8,820.22a6.29,6.29,0,0,1-2.93,2.25,11.86,11.86,0,0,1-4.37.74A8.49,8.49,0,0,1,971,822a7.88,7.88,0,0,1-3-3.36,11.61,11.61,0,0,1-1.1-5.06v-1.8q0-4.66,2.18-7.22a7.59,7.59,0,0,1,6.12-2.56,7.84,7.84,0,0,1,5.2,1.65,7.19,7.19,0,0,1,2.41,4.68h-2.72q-.76-4.11-4.88-4.11a4.82,4.82,0,0,0-4.15,1.92,9.36,9.36,0,0,0-1.42,5.56v1.69a8.78,8.78,0,0,0,1.59,5.52,5.15,5.15,0,0,0,4.3,2,9.48,9.48,0,0,0,2.68-.34,4.15,4.15,0,0,0,1.9-1.14v-4.62h-4.78v-2.22h7.49Z"/><path class="ecce432a-bc31-4320-9765-b0c49ba2a391" d="M1003.2,822.92h-2.74V813.4H990.06v9.53h-2.72V802.31h2.72v8.86h10.41v-8.86h2.74Z"/><path class="ecce432a-bc31-4320-9765-b0c49ba2a391" d="M1019.71,813.4h-8.95v7.31h10.39v2.22H1008V802.31h13v2.22h-10.25v6.64h8.95Z"/><path class="ecce432a-bc31-4320-9765-b0c49ba2a391" d="M1032.12,814.58h-4.85v8.34h-2.74V802.31h6.83a8.1,8.1,0,0,1,5.37,1.59,5.7,5.7,0,0,1,1.88,4.62,5.55,5.55,0,0,1-1,3.36,6.22,6.22,0,0,1-2.9,2.14l4.85,8.75v.17h-2.92Zm-4.85-2.22h4.18a4.72,4.72,0,0,0,3.23-1,3.55,3.55,0,0,0,1.2-2.81,3.74,3.74,0,0,0-1.14-2.94,4.84,4.84,0,0,0-3.3-1h-4.17Z"/><path class="ecce432a-bc31-4320-9765-b0c49ba2a391" d="M1065.49,813.28a12.74,12.74,0,0,1-1,5.29,7.72,7.72,0,0,1-2.89,3.45A8,8,0,0,1,1050,818.6a12.23,12.23,0,0,1-1.07-5.13V812a12.6,12.6,0,0,1,1-5.25,7.66,7.66,0,0,1,7.26-4.7,8,8,0,0,1,4.37,1.2,7.71,7.71,0,0,1,2.91,3.47,12.8,12.8,0,0,1,1,5.29Zm-2.71-1.33a9.23,9.23,0,0,0-1.47-5.63,4.87,4.87,0,0,0-4.13-2,4.81,4.81,0,0,0-4.06,2,9,9,0,0,0-1.52,5.44v1.52a9.24,9.24,0,0,0,1.5,5.59,5.25,5.25,0,0,0,8.2.11,9.2,9.2,0,0,0,1.49-5.5Z"/><path class="ecce432a-bc31-4320-9765-b0c49ba2a391" d="M1077.15,814.58h-4.85v8.34h-2.74V802.31h6.83a8.1,8.1,0,0,1,5.37,1.59,5.7,5.7,0,0,1,1.88,4.62,5.55,5.55,0,0,1-1,3.36,6.22,6.22,0,0,1-2.9,2.14l4.85,8.75v.17h-2.92Zm-4.85-2.22h4.18a4.72,4.72,0,0,0,3.23-1,3.55,3.55,0,0,0,1.2-2.81,3.74,3.74,0,0,0-1.14-2.94,4.84,4.84,0,0,0-3.3-1h-4.17Z"/><path class="ecce432a-bc31-4320-9765-b0c49ba2a391" d="M1087.46,822.92V802.31h5.83a9.4,9.4,0,0,1,4.76,1.19,8.05,8.05,0,0,1,3.2,3.38,11,11,0,0,1,1.14,5v1.32a11,11,0,0,1-1.13,5.11,7.92,7.92,0,0,1-3.22,3.37,10,10,0,0,1-4.87,1.2Zm2.72-18.39V820.7H1093a6.24,6.24,0,0,0,4.9-2,8.08,8.08,0,0,0,1.75-5.57V812a8.2,8.2,0,0,0-1.65-5.46,5.88,5.88,0,0,0-4.69-2Z"/><path class="ecce432a-bc31-4320-9765-b0c49ba2a391" d="M1118.17,813.4h-8.95v7.31h10.39v2.22H1106.5V802.31h13v2.22h-10.25v6.64h8.95Z"/><path class="ecce432a-bc31-4320-9765-b0c49ba2a391" d="M1130.58,814.58h-4.85v8.34H1123V802.31h6.83a8.1,8.1,0,0,1,5.37,1.59,5.7,5.7,0,0,1,1.88,4.62,5.55,5.55,0,0,1-1,3.36,6.22,6.22,0,0,1-2.9,2.14l4.85,8.75v.17h-2.92Zm-4.85-2.22h4.18a4.72,4.72,0,0,0,3.23-1,3.55,3.55,0,0,0,1.2-2.81,3.74,3.74,0,0,0-1.14-2.94,4.84,4.84,0,0,0-3.3-1h-4.17Z"/><path class="ecce432a-bc31-4320-9765-b0c49ba2a391" d="M1151.59,802.31l6.75,16.82,6.75-16.82h3.53v20.62h-2.72v-8l.25-8.67-6.78,16.7h-2.08l-6.76-16.65.27,8.62v8h-2.72V802.31Z"/><path class="ecce432a-bc31-4320-9765-b0c49ba2a391" d="M1188.62,816.38a7.58,7.58,0,0,1-2.42,5,7.93,7.93,0,0,1-5.41,1.78,7.28,7.28,0,0,1-5.86-2.62,10.53,10.53,0,0,1-2.21-7v-2a11.73,11.73,0,0,1,1-5.05,7.67,7.67,0,0,1,2.91-3.35A8.12,8.12,0,0,1,1181,802a7.47,7.47,0,0,1,5.27,1.83,7.67,7.67,0,0,1,2.31,5.08h-2.74a5.92,5.92,0,0,0-1.54-3.58,4.66,4.66,0,0,0-3.31-1.11,4.87,4.87,0,0,0-4.09,1.93,8.84,8.84,0,0,0-1.48,5.48v2a9.09,9.09,0,0,0,1.4,5.34,4.54,4.54,0,0,0,3.93,2,5.24,5.24,0,0,0,3.48-1,5.7,5.7,0,0,0,1.61-3.58Z"/><path class="ecce432a-bc31-4320-9765-b0c49ba2a391" d="M1208.1,813.28a12.73,12.73,0,0,1-1,5.15,8,8,0,0,1-2.67,3.38l3.69,2.89-1.86,1.71L1202,823a8.87,8.87,0,0,1-2.16.25,7.7,7.7,0,0,1-7.25-4.61,12.23,12.23,0,0,1-1.07-5.13V812a12.58,12.58,0,0,1,1-5.25,7.66,7.66,0,0,1,7.26-4.7,8,8,0,0,1,4.39,1.2,7.77,7.77,0,0,1,2.91,3.46,12.7,12.7,0,0,1,1,5.27Zm-2.72-1.33a9.35,9.35,0,0,0-1.45-5.61,5.25,5.25,0,0,0-8.2,0,9,9,0,0,0-1.52,5.44v1.52a9.31,9.31,0,0,0,1.48,5.58,5.24,5.24,0,0,0,8.2.12,9.2,9.2,0,0,0,1.49-5.5Z"/><path class="ecce432a-bc31-4320-9765-b0c49ba2a391" d="M1213.49,802.75l-.3,5.21h-1.83v-6.78h2.11Z"/><path class="ecce432a-bc31-4320-9765-b0c49ba2a391" d="M1224.75,818.86a1.93,1.93,0,0,0-.8-1.65,7.72,7.72,0,0,0-2.79-1,13.21,13.21,0,0,1-3.16-1,4.5,4.5,0,0,1-1.73-1.42,3.38,3.38,0,0,1-.56-2,4,4,0,0,1,1.59-3.19,6.24,6.24,0,0,1,4.08-1.3,6.42,6.42,0,0,1,4.23,1.34,4.27,4.27,0,0,1,1.62,3.44h-2.64a2.36,2.36,0,0,0-.92-1.86,3.43,3.43,0,0,0-2.3-.78,3.59,3.59,0,0,0-2.24.62,2,2,0,0,0-.81,1.63,1.59,1.59,0,0,0,.75,1.43,9.23,9.23,0,0,0,2.71.92,14.17,14.17,0,0,1,3.18,1,4.65,4.65,0,0,1,1.81,1.47,3.6,3.6,0,0,1,.59,2.09,3.92,3.92,0,0,1-1.64,3.29,6.91,6.91,0,0,1-4.27,1.24,7.73,7.73,0,0,1-3.26-.65,5.31,5.31,0,0,1-2.22-1.82,4.38,4.38,0,0,1-.8-2.53h2.62a2.71,2.71,0,0,0,1.06,2.09,4.1,4.1,0,0,0,2.6.77,4.24,4.24,0,0,0,2.39-.6A1.85,1.85,0,0,0,1224.75,818.86Z"/><path class="ecce432a-bc31-4320-9765-b0c49ba2a391" d="M1249.79,817.53h-8.65l-1.94,5.39h-2.81l7.88-20.62h2.38l7.9,20.62h-2.79Zm-7.83-2.22h7l-3.52-9.64Z"/><path class="ecce432a-bc31-4320-9765-b0c49ba2a391" d="M1273.2,822.92h-2.74L1260.07,807v15.89h-2.74V802.31h2.74l10.42,16v-16h2.71Z"/><path class="ecce432a-bc31-4320-9765-b0c49ba2a391" d="M1278,822.92V802.31h5.83a9.4,9.4,0,0,1,4.76,1.19,8.05,8.05,0,0,1,3.2,3.38,11,11,0,0,1,1.14,5v1.32a11,11,0,0,1-1.13,5.11,7.92,7.92,0,0,1-3.22,3.37,10,10,0,0,1-4.87,1.2Zm2.72-18.39V820.7h2.86a6.24,6.24,0,0,0,4.9-2,8.08,8.08,0,0,0,1.75-5.57V812a8.2,8.2,0,0,0-1.65-5.46,5.88,5.88,0,0,0-4.69-2Z"/><path class="ecce432a-bc31-4320-9765-b0c49ba2a391" d="M1315.94,813.4H1307v7.31h10.39v2.22h-13.12V802.31h13v2.22H1307v6.64h8.95Z"/><path class="ecce432a-bc31-4320-9765-b0c49ba2a391" d="M1327.61,819.31l5.9-17h3l-7.66,20.62h-2.41l-7.64-20.62h3Z"/><path class="ecce432a-bc31-4320-9765-b0c49ba2a391" d="M1349.59,817.53h-8.65l-1.94,5.39h-2.81l7.88-20.62h2.38l7.9,20.62h-2.79Zm-7.83-2.22h7l-3.52-9.64Z"/><path class="ecce432a-bc31-4320-9765-b0c49ba2a391" d="M1359.87,820.7h9.78v2.22h-12.52V802.31h2.74Z"/><path class="ecce432a-bc31-4320-9765-b0c49ba2a391" d="M1386.53,802.31v14a6.57,6.57,0,0,1-1.84,4.77,7.41,7.41,0,0,1-4.94,2.08l-.72,0a7.74,7.74,0,0,1-5.4-1.83,6.53,6.53,0,0,1-2-5v-14h2.69v14A4.3,4.3,0,0,0,1379,821a4.78,4.78,0,0,0,3.54-1.23,4.7,4.7,0,0,0,1.23-3.47v-14Z"/><path class="ecce432a-bc31-4320-9765-b0c49ba2a391" d="M1401.91,817.53h-8.65l-1.94,5.39h-2.81l7.88-20.62h2.38l7.9,20.62h-2.79Zm-7.83-2.22h7l-3.52-9.64Z"/><path class="ecce432a-bc31-4320-9765-b0c49ba2a391" d="M1421.89,804.53h-6.64v18.39h-2.71V804.53h-6.62v-2.22h16Z"/><path class="ecce432a-bc31-4320-9765-b0c49ba2a391" d="M1427.88,822.92h-2.72V802.31h2.72Z"/><path class="ecce432a-bc31-4320-9765-b0c49ba2a391" d="M1448.74,813.28a12.74,12.74,0,0,1-1,5.29,7.72,7.72,0,0,1-2.89,3.45,8,8,0,0,1-11.62-3.42,12.23,12.23,0,0,1-1.07-5.13V812a12.6,12.6,0,0,1,1-5.25,7.66,7.66,0,0,1,7.26-4.7,8,8,0,0,1,4.37,1.2,7.71,7.71,0,0,1,2.91,3.47,12.8,12.8,0,0,1,1,5.29ZM1446,812a9.23,9.23,0,0,0-1.47-5.63,4.87,4.87,0,0,0-4.13-2,4.81,4.81,0,0,0-4.06,2,9,9,0,0,0-1.52,5.44v1.52a9.24,9.24,0,0,0,1.5,5.59,5.25,5.25,0,0,0,8.2.11,9.2,9.2,0,0,0,1.49-5.5Z"/><path class="ecce432a-bc31-4320-9765-b0c49ba2a391" d="M1468.69,822.92H1466L1455.56,807v15.89h-2.74V802.31h2.74l10.42,16v-16h2.71Z"/><g class="112901c3-7d4d-49c0-bcb9-09a915fc4274"><path d="M653.48,521.36h-.67v-.21h.67Z"/><path d="M654.25,521.36h-.67v-.21h.67Z"/><path d="M655,521.36h-.67v-.21H655Z"/></g><path id="804bda80-32ef-42b7-82de-578f4942c8bf" data-name="path5541" class="09bd9df5-f856-4719-91af-e3c55736c38f" d="M1154.36,492.26c-.95,23.86-3.93,30.51-.95,27.66s6-2.85,15.86-1.9,19.8,4.75,19.8.95-2-3.8-2-3.8l-13.83-8.54Z"/><path id="22181dd7-9589-4966-9e58-84ad315e5809" data-name="path5340" class="9e89d736-309c-4d22-90af-e1a7217d732a" d="M1012.8,33V352.87h471.33V34.36H1008.6"/><path id="612138aa-cb39-404e-96bb-54e1c8254bcb" data-name="path5334" class="e4c3bd6c-6a45-45d9-a378-fd78374889aa" d="M1029.61,49.27h440.55V342.16h-442V49.27Z"/><path id="86e93dc2-384c-4307-901d-912af74eb750" data-name="path5342" class="f8753788-e2bb-405c-aa7f-54a337204fb7" d="M1218.36,93.75h186"/><path id="f15df101-6f4e-4bfa-a3e8-68944e9d9e5f" data-name="path5344" class="e3bb77c5-3b0e-4ce6-80fd-01b802a0b57d" d="M1218.36,111.37H1361"/><path id="7f00d44e-fcc0-4983-a826-0a75cfcfaa08" data-name="path5346" class="955322c0-2458-4f9c-81ae-ba98fde8f99a" d="M1214.16,139.71h96.54"/><path id="2ee0a3e1-73af-46bb-aabf-c45c77d96cb4" data-name="path5348" class="aac0889f-b706-4f33-828b-04b694de96bb" d="M1218.36,164h64.41"/><path id="4076dfb6-e290-428d-a757-ba29e0c31f43" data-name="path5352" class="23d8a311-1ec1-426b-894e-1d273c4474b8" d="M1052.39,335.79c0-32.41,2-55.32,2-91.66s3-45.83,4.88-58.17,22.78-4.75,35.66-5.7,16.81-3.39,22.78,11,6.64,23.59,10.85,32.41a42.81,42.81,0,0,0,5.15,7.32c7.32,12.75,8.41,8.68,13.83,2s10.71-15.86,12.61-18.85c3.53-5.42,12.34-28.61,12.34-33.36s-.54-5.29,4.47-4.34,40.54,3.8,45.56,8.54,6.92,12.47,6.92,23.86,4.88,50.58-3,49.63-29.7-5.7-29.7-5.7-9.9,4.75-15.86,4.75-10.85,5.7-16.81,13.42-7.86,17.22-7.86,23.86.95,24.81,2,32.41,0,17.22,10.85,25.76S1185,365.48,1185,373.08s3.93,7.59,0,7.59-6.92.95-20.75,3.8-18.85,13.42-19.8,5.7,3.93-11.39-.95-11.39-3.93,8.54-4.88,0,0-21,0-25.76.95-10.44-3-18.17-10.85-7.59-10.85-15.32v4.2c0-6.78-7.32-8-12.34-13.7s-11.39-6.37-18.31-6.37-14.78,2.85-18.85,6.64-7.86-2.44-8.81,3.25-5,.27-5,6.92,8.95,1.9,6,1.9S1052.39,335.79,1052.39,335.79Z"/><path id="8fbb4a05-7f47-4db3-8e9b-0181089390f0" data-name="path5356" class="d87c5169-7159-4830-8274-20b6f2139374" d="M1110,106.63c0-8.14-2.85-4.75,0-10.85s5.56-5.42,9.08-8.81,9.08-3.39,16.81-3.39,22.37-1.36,26.58,2.71,10.44,6.78,10.44,12.2-.68,14.24,2,14.24,7.05.68,7.05,5.42-.68,13.56-4.2,16.14-3.53,3.39-3.53,7.46-1.36,8.81-5.56,13.56-5.56,5.42-7.73,9.49l-2,4.07c-3.39,6.78-4.2,12.2-6.24,17.49s-3.53,9.49-6.24,6.1-14.64-12.88-14.64-12.88-4.2-6.78-6.24-9.49-3.53-.68-2-4.75,1.36-1.36-.68-4.75-9.76-4.75-9.76-10.85,5.56-10.17,0-13.56-8.41-2.71-9.08-14.78l-.68-12.2Z"/><path id="ad115833-8661-46ce-b17d-12121e113ae4" data-name="path5358" class="a00e6a62-72b3-4824-bc03-092d9b6b6d00" d="M1108.53,104.59c-4.88-22.24-7.73-21.56-3.53-28.34s9.76-14.78,15.32-14.78,18.85,4.75,25.22,4.75,26.58.68,28.61,4.07,9.76,12.2,8.41,17.49-4.88,29-7.05,24.95,0-6.78-2-12.2-5.56-12.2-13.29-15.46-17.49,0-23.73-.68-14-1.36-17.49,2-8.41,3.39-8.41,6.78S1108.53,104.59,1108.53,104.59Z"/><path id="7b191eb4-818e-4354-9975-3947f83fad24" data-name="path5360" class="ef80d6ec-467d-4f0f-8e10-d0d043e495a3" d="M1128.19,147.85c.68-6.78.68-6.78,6.24-10.17s2.85-3.39,8.41-2,14.64,10.85,11.93,10.85-6.24-2-10.44-2-8.41,1.36-11.93,1.36S1128.19,147.85,1128.19,147.85Z"/><path id="8cde890a-0ea6-4ac6-8ab4-8f61b12ffde6" data-name="path5364" class="dacbc856-e9a8-495d-a0a8-faa766d1f813" d="M1141.07,190c-7.46,14.78-8,12.61-7.05,14.78s7.05,2.58,5.15,6.1-8,15.86-6.51,18.71,7.05,12.2,9.36,9.08,10.85-6.92,9.36-9.76-6.51-17.63-4.75-20.2,5.69-1.49,3.8-4.75-9.36-14-9.36-14Z"/><path id="72f2b7fa-2909-49a7-9fc9-26bd04b3acda" data-name="path5366" class="0fb40d32-774e-4d17-b528-d6f5fe61bd50" d="M914.9,339.58c3,53.42,3.93,72.54,3.93,97.36s-6.92,28.61,0,24.81S929.68,457,937.68,457s99.93.95,99.93-4.75.95-46.78.95-66.85,6.92-46.78,0-45.83-29.7-12.47-33.63-7.59-7.86,5.29-15.86,5.7l-16.81-3.8H945.54c-10.71,0-29.29,6.1-29.29,6.1"/><path id="e5ceb0de-a352-4a1e-ba3c-0c2d5601634a" data-name="path5372" class="b34d659b-5758-475e-ab18-96ffb4ba58b9" d="M957.48,320.6c-8.41,14.24-14,14.78-8.41,14.24s16.81.68,19.53.68h23.05c5.56,0,17.49.68,15.32-2s-4.2-10.85-8.41-10.85c-3.93,0-41.09-2-41.09-2Z"/><path id="9532bea3-80ac-4de8-86f1-b5f87c7cc740" data-name="path5374" class="d87c5169-7159-4830-8274-20b6f2139374" d="M945.68,288.87c2,12.2,13.29,31.73,16.81,31.73s29.42,4.07,32.14,2-4.2-.68,2-8.81,9.08-19.53,11.93-22.92,7.73-39.87,4.88-34.44-9.08,27.66-12.61,31.73-16.81,22.24-21,22.92-6.24-1.36-14-10.85-18.85-28.34-21.7-35.12-.68-10.17-2.85-6.78-2,3.39-2,7.46-2,6.78.68,14.24,5.7,8.81,5.7,8.81Z"/><path id="77496a08-5b95-4630-8607-e9ccabd10dba" data-name="path5376" class="ef80d6ec-467d-4f0f-8e10-d0d043e495a3" d="M1013.48,255.78c.68-16.81,5.56-25.63,5.56-31.05s-2.85-12.2-25.22-17.49-27.93-4.75-39.87-2-18.85,12.88-19.53,20.2,7.05,25.63,7.05,29.7,4.88,16.81,9.76,24.27,7.05,14.24,14,20.2,8.41,14.24,11.25,12.2,5.56-1.36,9.76-6.1,14.64-16.81,18.17-23.59,7.73-29,7.73-29h0Z"/><path id="4c50fc7a-0e26-4a28-a20a-cab2771d55b8" data-name="path5380" class="85b105f9-185e-4bb3-a1ee-4e7c954b417c" d="M877.07,446.16c2.85,29.7,4.2,19.8,2.85,29.7s-2.85,45.29-1.36,59.53,0,16.95,0,28.34,1.08,84.75,1.08,84.75c-14.1,1.08,163.39,2.31,161.36-2.71-8.95-22.78-28.2-29.7-16.95-48s22.37-14.1,18.17-24.14,1.36-5.7-4.2-15.59,7.05-9.9-5.56-9.9-25.22,11.12-40.54,0c-13.7-9.9-27.93-7.05-27.93-15.59s-18.17,18.44-32.14,4.2-25.22-31.19-21-41.09,45.29-42,27.12-39.19-60.88-10.31-60.88-10.31Z"/><path id="f3a31fe5-f603-4027-8dbf-c2815ebcba6a" data-name="path5382" class="85b105f9-185e-4bb3-a1ee-4e7c954b417c" d="M1128.6,555.45c-1.76,16.14,16.14,19.66,28.88,19.66s.41,4.34,6,22,4.2,35.26-4.88,42-22.64,13.56-9.9,12.2,189.7,4.75,175.05-4.75,37.83-36.34,41.49-45.83-71.05-6.1-61.83-14.24,23.59-2.71,18.17-12.2,3.66-18.85-5.42-18.85H1128.6Z"/><path id="53203b3b-0b9a-4bf5-884e-b70eba54d30b" data-name="path5384" class="85b105f9-185e-4bb3-a1ee-4e7c954b417c" d="M1423.93,555.45c0,10.85-8.41,12.2,0,13.56s15.86.14,20.07,28.48,2.31,37.7-4.61,44.34-17.36,10.71-7.05,6.78c12.88-4.88,137.36-.14,132.34-3.53-8.81-5.83,3.8-84.34-3.66-89.63-10-7.32-137.09,0-137.09,0Z"/><path id="b93befef-e54e-41f7-947c-e79f47acb52f" data-name="path5386" class="09bd9df5-f856-4719-91af-e3c55736c38f" d="M1151.24,559.38c1.36-9.49-4.2-18.85,1.36-17.22s57.36,7.86,62.92,1.63,8.41-25.22,15.32-22.1,11.93-9.22,11.93,6.51,2,19.53,16,17.9,57.36,7.19,27.93,8.68c-29.15,1.49-135.46,4.61-135.46,4.61Z"/><path id="0e2b178b-5c91-4763-856a-3838894cb5bd" data-name="path5388" class="09bd9df5-f856-4719-91af-e3c55736c38f" d="M1439.38,552.74c36.34-5.42,41.9-2.71,43.39-6.78s-18.17-13.56-2.85-13.56,81.63-6.51,81-1.22c-.95,7.19,5.56,28.75-3.93,25.49-10.58-3.53-117.56-3.93-117.56-3.93Z"/><path id="e19fd2b2-5434-471f-9e2c-b90259837e5e" data-name="path5390" class="85b105f9-185e-4bb3-a1ee-4e7c954b417c" d="M1528.88,444.81c-4.2,12.2-23.73,5.42-11.25,17.49s19.53,27,12.61,37.83-33.63,29.7-19.53,29.7,49-1.36,49-2.71-.68-48.54,0-56.68c.54-6.1.81-17.09,1.36-28.34.41-6.1-32.14,2.71-32.14,2.71Z"/><path id="0fdb6087-5376-4c59-b258-b4c8f226ff0a" data-name="path5392" class="09bd9df5-f856-4719-91af-e3c55736c38f" d="M1043.58,571.59c-21,21.56-26.58,36.48-21,48.54s5.56,24.27,15.32,27,100.75,1.36,111.87,2.71,16.81,1.36,29.42-8.14,12.61-20.2,12.61-36.48-11.25-27-16.81-32.41-12.61-8.14-44.75-6.78-86.65,5.56-86.65,5.56Z"/><path id="dfa0e141-5fd4-40e3-b4f2-30ee85149f6a" data-name="path5394" class="09bd9df5-f856-4719-91af-e3c55736c38f" d="M1310.7,566.57c-26.58,20.75-26.58,20.75-26.58,38.78s2.85,27.8,15.32,37.42-26.58,6.92,18.17,6.92,102.1,5.56,110.51-1.36,22.37-13.83,22.37-29.15-5.56-29.15-8.41-37.42-21-18-30.78-18-100.61,2.85-100.61,2.85Z"/><path id="1b3b18e4-1dda-4b77-b532-4dc5a01f369a" data-name="path5396" class="c659ba75-83f1-48e1-bf8a-706ea0d7ae79" d="M1064.33,647c16.81,1.9,18.85,6.64,16.81,1.9s0-43-4.88-42-14.78-2.85-14.78.95,2.85,39.19,2.85,39.19Z"/><path id="43a5611a-d670-406a-b38f-c3ca10e200ac" data-name="path5398" class="c659ba75-83f1-48e1-bf8a-706ea0d7ae79" d="M1141.34,609.69s-1.49,39.19,1.49,40.14,13.83,4.75,13.83,0,8-37.29,0-40.14-5.83-3.8-9.49-2.85A15.41,15.41,0,0,0,1141.34,609.69Z"/><path id="9edfefde-1909-4c2a-bc71-2afc14a7f8b8" data-name="path5396-9" class="c659ba75-83f1-48e1-bf8a-706ea0d7ae79" d="M1323.18,649.15C1340,651,1342,655.79,1340,651s0-43-4.88-42-14.78-2.85-14.78.95,2.85,39.19,2.85,39.19Z"/><path id="905b3fea-22d5-4fde-96ac-797715b7ac84" data-name="path5396-8" class="c659ba75-83f1-48e1-bf8a-706ea0d7ae79" d="M1401.28,649.15c16.81,1.9,18.85,6.64,16.81,1.9s0-43-4.88-42-14.78-2.85-14.78.95,2.85,39.19,2.85,39.19Z"/><path id="4118a83a-9581-411d-91ae-a354aee1f0c6" data-name="path5396-85" class="c659ba75-83f1-48e1-bf8a-706ea0d7ae79" d="M1163.85,528.88c16.81,1.9,18.85,6.64,16.81,1.9s0-43-4.88-42-14.78-2.85-14.78.95S1163.85,528.88,1163.85,528.88Z"/><path id="987fe592-8c24-48c1-94f9-30f0b3ca7b76" data-name="path5396-2" class="c659ba75-83f1-48e1-bf8a-706ea0d7ae79" d="M1246,527.93c16.81,1.9,18.85,6.64,16.81,1.9s0-43-4.88-42-14.78-2.85-14.78.95,2.85,39.19,2.85,39.19Z"/><path id="32d56eb7-56b6-4750-9b7a-7bc8ee75579e" data-name="path5396-22" class="c659ba75-83f1-48e1-bf8a-706ea0d7ae79" d="M1478.44,528.88c16.81,1.9,18.85,6.64,16.81,1.9s0-43-4.88-42-14.78-2.85-14.78.95S1478.44,528.88,1478.44,528.88Z"/><path id="fd65d95c-c9d7-42e9-9cd6-bde0e659bc62" data-name="path5445" class="e49092e9-28ef-4c22-b4b5-6a27982811c4" d="M1154.36,454.16h99.93c11,0,14.78,1.9,10.85,8.54s-20.75,60.07-26.71,63.05-8.95,12.47-12.88,2.85-34.58-44.88-41.49-52.48-29.7-22-29.7-22Z"/><path id="384380c4-43fa-4137-a43b-9223cc5da95a" data-name="path5447" class="09bd9df5-f856-4719-91af-e3c55736c38f" d="M1452.94,452.26c56.41,1.9,50.44-1.9,56.41,1.9s16.81,11.39,18.85,21,8.95,15.32,3.93,22-12.88,11.39-17.76,20.07,6,12.47-4.88,12.47-8.95,4.75-12.88-3.8-.95-37.29-6.92-37.29-14.78-6.64-14.78-1.9,2,43.93.95,36.2S1452.94,452.26,1452.94,452.26Z"/><path id="033ba29e-3e1a-4668-b63e-b2e0c560b793" data-name="path5451" class="a49a0b64-1d51-4307-b620-cc172ac17c37" d="M1050.09,359.38c7.19-18,6.51-6.78,2.58-13.56s5.69-16.54,7.73-21.83,8.95-14,21.83-17.76,27.12.27,34.71,7.19c0,0,14.78,14.1,18.71,19.12,3.53,4.61-5.29,9.76-.27,10.85,5.83,1.22,2.44,6.24,2.44,16.81s2,24.95-.95,30.92S1130,413.75,1122,416.74s-17.76,9.76-27.8,9.76-13.83.81-21.83-6-11.66-18.85-20.75-28.61c-11.39-12.2-2.58-32.54-1.49-32.54Z"/><path id="bf513e39-1c3b-4a1d-a825-ea855eaca992" data-name="path5453" class="439be27b-82db-42d1-8b4c-41d6c8b9259a" d="M1183,368.19c-14.78-17.22-26.71-33.36-25.76-46.78s-6-26.71.95-42,7.86-17.22,21.7-23.86,32.68,1.9,45.56,2.85,27.66,28.61,28.75,37.29-.95,43.93-6.92,48.68-15.86,22.92-25.76,22.92-38.51.95-38.51.95Z"/><path id="18f054d9-8112-4bd1-a38c-24e434e40e28" data-name="path5455" class="e49092e9-28ef-4c22-b4b5-6a27982811c4" d="M1183.92,370.09"/><path id="a305f925-7bf2-45a4-a74d-9e24dcb5cba7" data-name="path5457" class="ade3f887-58d8-4fce-ba61-5a7cb7d59eba" d="M1354.64,405.48c-32.68-17.22-22.78,3.8-32.68-17.22s-10.85-37.29-10.85-52.48,7.86-23.86,17.76-31.46l9.9-7.59c9.9-7.59,9.9-16.27,9.9-7.59s-8.95,10.44,0,8.54,19.8-2.85,20.75,1.9,15.86,5.7,22.78,9.49,20.75,26.71,17.76,39.19-13.83,38.24-18.85,43.93-33.63,19.12-33.63,19.12"/><path id="8e6eb256-48ce-47e5-872a-a1f280cd68d6" data-name="path5459" class="efa9ea7b-b4a8-4337-b6e7-46db56772a40" d="M1445.08,306.23c6-27.66,17.76-29.56,6.92-56.27s-20.75-32.41-21.7-25.76,14.78,19.12-.95,6.64-20.75-26.71-15.86-12.47,17.76,23.86,4.88,14.37-10.85-22.92-12.88-9.49,10.85,24.81-2,13.42-12.88-21-12.88-11.39-6,9.49-6,20.07-3.93,25.76.95,40.14,7.86,27.66,16.81,35.26,17.76,14.37,24.68,7.59c7.19-6.92,18-22.1,18-22.1Z"/><path id="01bbafc8-e1a1-42cb-b039-f241fc0c1822" data-name="path5461" class="cc2c605d-3790-4fb9-9bff-18c4a2ac6535" d="M1153.28,391.11c2,65-6,65.9,2,65s101.83,3.8,100.88-2.85,3.93-62.1-.95-64-22.78-8.54-27.66-8.54-34.58,0-40.54.95-24.81-2.85-33.76,9.49Z"/><path id="f5020821-d56f-4d83-98ff-a033a5bb9d87" data-name="path5467" class="cc2c605d-3790-4fb9-9bff-18c4a2ac6535" d="M1253.75,444.67c17.36,0,18.71-1.9,17.36,0s4.34-4.75-1.49,1.9,2.85,6.64-5.83,6.64-8.68,5.7-8.68,0S1253.75,444.67,1253.75,444.67Z"/><path id="cf86d9bc-f83b-4ac8-86c6-cf6c733ea3de" data-name="path5469" class="d87c5169-7159-4830-8274-20b6f2139374" d="M1071.24,419.72c6,14.37,10.85,1.9,6,14.37s-14.78,17.22-3.93,16.27,42.58,0,42.58-1.9-3-13.42-3-19.12,15.86-20.07,9.9-15.32A55.24,55.24,0,0,1,1100,424.47c-8.95,2-2,9.63-28.75-4.75Z"/><path id="814966f9-a887-4e23-a1cb-5c8a03806b9c" data-name="path5471" class="61f46a27-51ad-4769-8f18-faf8c82c5291" d="M1030.7,457c3,84.88-.27,77,3,84.88,4.07,9.9,4.47,29.29,8.95,28.61,19.12-2.85,122.44-3,108.75-3.8-2.44-.14-2-.68.54-2.44,0,0,1.49-41.36,1.49-48.14,0-8.54,6.92-59.12,2-59.12s-13.15-5.29-29.15-5.7c-9.76-.27-5.42-3.8-10.44-2.85s-28.75-2.85-39.59,0-23.73,3.8-35.66,4.75-9.9,3.8-9.9,3.8Z"/><path id="c2ec5bfc-d365-4be5-8055-1caef3e332cc" data-name="path5473" class="61f46a27-51ad-4769-8f18-faf8c82c5291" d="M1031.65,497.15c-14.78,11.39-30.64,22-25.76,22.92s28.75-7.59,27.66,0,6,23.86-.95,23.86-33.63,5.7-42.58,1.9-27.66-9.49-25.76-13.42,7.59-12.75,8.95-18.17c2.85-12.61,8.54-14.24,18.85-22,11-8.27,29.7-26.71,33.63-29.56s6-14.37,6-4.75Z"/><path id="d39f7cb1-4d21-4c20-bd9b-8ff9dc9d7a04" data-name="path5475" class="61f46a27-51ad-4769-8f18-faf8c82c5291" d="M1152.33,543.79c7.86.95,28.75,3.8,42.58,2.85s21.7-.95,23.73-6.64,15.86-8.54,9.9-14.37-9.9-7.59-11.93-12.47-15.86-21-33.63-35.26-30.64-32.41-28.75-22.92-.95,34.31,0,36.2,37.56,24.81,31.59,27.66-34.58-3.8-34.58,2.85,1.08,22.1,1.08,22.1Z"/><path id="61595c41-e9e0-4841-88ed-e50c9a6b68e2" data-name="path5477" class="caf62995-54d9-44cd-8bd7-40dd051824cb" d="M1334.3,426.5c-37.56,4.75-56.41,6.64-59.39,11.39s-3,1.9-14.78,36.2-16.81,38.24-16.81,52.48-6,10.44,0,16.27,34.58,2.85,43.53,7.59,2,27.66,8.95,23.86,35.66-7.59,51.39-8.54,44.48-.95,58.31-.95,19.8,9.49,19.8.95-6-12.47,0-12.47,60.34,2.85,57.36-4.75,4.88-13.42-3.93-27.66-16.81-65-29.7-76.34-13.83-17.22-24.68-17.22-25.76-2.85-34.58,0-21.7,4.75-30.64,2.85-24.81-3.66-24.81-3.66Z"/><path id="9cf7a900-c230-4017-80e9-8e2b45424971" data-name="path5479" class="09bd9df5-f856-4719-91af-e3c55736c38f" d="M1292.81,489.42c-15.86,20.07-18.85,22-15.86,28.61s18.85,18.17,17.76,11.39C1293.75,522.91,1292.81,489.42,1292.81,489.42Z"/><path id="8978497b-f511-4fe4-89fc-eb185d838222" data-name="path5481" class="09bd9df5-f856-4719-91af-e3c55736c38f" d="M1423.38,490.37c0,35.26-7.86,35.26,0,35.26s22.78,1.9,15.86-4.75S1423.38,490.37,1423.38,490.37Z"/><path id="c4dfd802-5415-4a5a-97d1-1ac72d9fce80" data-name="path5487" class="47d3aeab-83b8-4687-9123-04aeecc0b377" d="M1338.23,417.82c-3.93,8.54-13.83,6.64-3.93,8.54s20.75,2.85,34.58,2.85,38.51,3.8,25.76-2.85-7.86-4.75-15.86-4.75-40.54-3.8-40.54-3.8Z"/><path id="45401d09-1d77-4d87-941d-60cd7383059a" data-name="path5491" class="d87c5169-7159-4830-8274-20b6f2139374" d="M1454,263.24c0,11,3,21-.95,26.44s-3,6.64-8.95,23.19-8.95,9.9-6,16.54,9.9,15.73,0,19-33.63,3.12-33.63-4.61-9.9-35.39,3-28.75,13.83,17.63,18.85,11,19.8-29.83,22.78-39.73a217.42,217.42,0,0,0,4.88-23.05Z"/><path id="3e0ef65b-6c11-4c5c-b8d2-da1902ee248b" data-name="path5493" class="e49092e9-28ef-4c22-b4b5-6a27982811c4" d="M1382.84,277.62c-3.93,7.59,2,24.81,2,24.81s3,7.59,3,0S1382.84,277.62,1382.84,277.62Z"/><path id="023bf334-d57b-44aa-be05-3acc371cf86d" data-name="path5495" class="d87c5169-7159-4830-8274-20b6f2139374" d="M1185,368.19c0,11.39-3.93,11.39,0,11.39s39.59,4.75,39.59,0,6.92-15.32,0-13.42-39.59,2-39.59,2Z"/><path id="ffeb206c-8614-45b6-9a04-e83009c776e5" data-name="path5497" class="23d8a311-1ec1-426b-894e-1d273c4474b8" d="M1247.24,273.68c22.78-3.8,23.73-8.54,22.78-3.8s7.86,26.71,2,26.71-15.86,15.32-15.86,5.7-8.95-28.61-8.95-28.61Z"/><path id="5c3597c9-2490-47b9-8a4f-6c582c52039f" data-name="path5499" class="d87c5169-7159-4830-8274-20b6f2139374" d="M1270.57,268.94c7.86-14.37,2.44-10,7.86-14.37s10.85-2.44,17.36-2.44,6.37-3.39,6.37,0-.54,6.64-4.47,7.19-11.93,1.49-3.93.54,10.85.54,8.41,1.9-13.29,3.8-8.95,3.39,12.34-1.9,8.95.54-12.88,4.34-10.44,4.34,6.37-1.49,8.95-.54,5.42,3.8,0,4.34l-5.42.54h-1.49c3.93,0,12.88-2.85,10.85-.54s3-2.85-9.36,5.29-3.53,5.7-12.34,8.14-8.95,7.59-8.95,2.44-3.39-20.75-3.39-20.75Z"/><path id="adc16476-09c7-4212-a9c7-373bfcae2a8e" data-name="path5503" class="bc6c6056-56f6-4a66-8b36-70f1e9671b9b" d="M1117.61,190.29c3.53,9.49,4.2,21.56,8.41,29s8.68,14.78,8.68,12.47-1.76-4.34-.41-7.73,4.61-10.17,4.61-12.2-2.85-4.07-3.8-2,0,5.7-1.76,2S1117.61,190.29,1117.61,190.29Z"/><path id="d76cad2a-a244-49b6-ade4-04b73bb10278" data-name="path5505" class="bc6c6056-56f6-4a66-8b36-70f1e9671b9b" d="M1145,211.17c1.36,6.1,2,14.24,3.12,16.54s1.36,6.1,3.12,2,11.93-17.22,13.7-23.59,8-20.61,6.24-20.61,2-1.36-4.61,5.42-9.08,11.8-11.25,14.51c-5.29,4.34.14,9.49-2.85,7.05s-3.12-5.15-4.2-3.39c-.81,1.76-3.25,2-3.25,2Z"/><path class="e569233d-8f24-4270-8d38-d30e6c1ae4ab" d="M1529.15,424.6c-4.88-11.39-26.71-59.12-32.68-72.54s0,0-53.42-6.64c0,0-30.64-.95-35.66-2.85s-2,8.54-4.88,18.17-7.86,23.86-19.8,35.26,0,0,0,4.75-4.88,8.54-4.88,17.22,3,2.85,14.78,7.59,33.63-2.85,41.49,3.8,9.9,14.37,16.81,22,30.64.95,47.46,2.85,12.88,5.7,24.68-3.8C1535.12,440.74,1534.17,436,1529.15,424.6Zm-48.54,15.46c-7.86,0,0,0,0-35.26,0,0,8.95,23.86,15.86,30.51S1488.47,440.06,1480.61,440.06Z"/><path id="8ec24858-e2de-4055-bf21-0e74630f3e2a" data-name="path5354" class="a09b6968-593f-4175-afd2-575c525261aa" d="M1121.68,167.78c-6,8.54-14.78,1.9-8.95,12.47s13.83,22,17.76,25.76,2,8.54,3.93,3.8,8.95-22.92,8.95-19.12,3,7.59,3.93,12.47,7.05,11.39,4.88,8.14c-.68-1.08,1.9-5,6-11.25,3.8-5.83,13.83-14.1,12.75-18.85s-6.92-20.07-10.85-14.37-10.85,32.41-15.86,25.76c-4.75-6.64-22.51-24.81-22.51-24.81Z"/><path id="88813beb-3fc1-4ef9-a834-f89bc935125d" data-name="path5501" class="fe216b3d-3c70-4f21-b605-ba9bd178845b" d="M1340.26,119.1C1273,312.33,1270,311,1273,312.33s2.44,14.78,6.37,1.9,60.88-195.12,60.88-195.12Z"/><path id="04087766-0b72-4ef4-b8ef-02eadf925ca9" data-name="path5537" class="09bd9df5-f856-4719-91af-e3c55736c38f" d="M1161.28,456.06c22,24.14,38.37,29.7,50.44,49,8.95,14.37,12.47,22.64,20.75,22.64,7.86,0,7.05-4.61,10.85-12.2,4.34-8.54-4.88-29.15,0-29.15,6.92,0,10.85,10.31,12.88,0s17.76-32.95,11.93-32.95-106.85,2.71-106.85,2.71Z"/><path id="9d092d57-3fa2-4ac6-bc1b-de8c247b6283" data-name="path5539" class="09bd9df5-f856-4719-91af-e3c55736c38f" d="M1033.68,556.81c-156.61,0-158.11,9.49-156.61,0s0-24.27,1.36-22.92,86.78-8.14,86.78-1.36,8.41,10.85,18.17,12.2,23.59,1.22,32,1.22,21.15-3.93,21.15,1.49a17.4,17.4,0,0,1-2.85,9.36Z"/><path id="588c9bdd-1de3-453b-921f-78d944841c6c" data-name="path5543" class="09bd9df5-f856-4719-91af-e3c55736c38f" d="M1030.83,498.91c-18,9.08-27.93,19.12-27.8,19.25S1032.6,524,1032.6,516a105.5,105.5,0,0,0-1.76-17.09Z"/><path class="0fb40d32-774e-4d17-b528-d6f5fe61bd50" d="M918.83,431.38c-2.17-.41-6-.54-9.9-1.22-7.32-.95-13.7-3.39-13.7-7.46,0-3.8,11.25-13.42,17.9-21.15,1.08-1.36,2.17-2.85,3.12-4.2a7.74,7.74,0,0,0,1.36-3.53c0-6.51-2.85-53.83-2.85-53.83h0c-18.17,11.8-8.41,1.36-23.73,30.24s-21,42-22.37,53.83,0,19.66,14,23.73,37.83,15.73,37.83,10.58C920.46,453.62,924.93,435.31,918.83,431.38Z"/><path class="0fb40d32-774e-4d17-b528-d6f5fe61bd50" d="M1075.17,426.5c-4.88-6.64-22.78-38.24-24.68-43.93s-3.93-14.37-2-22.92,9.9-14.37,2-16.27-7.86-6.64-7.86-1.9-3,20.07-3,26.71-.95,20.07-.95,20.07,9.9,14.64,14.92,22.64c.68,1.08,1.22,2,1.76,2.85a.13.13,0,0,0,.14.14h0c2,3.53,2.44,5.15,2.31,7.19a2.31,2.31,0,0,1-.14.95c0,.27-.14.54-.14.81-.27,1.36-1.49,2.17-3.39,2.85a2.55,2.55,0,0,1-1.08.27.5.5,0,0,0-.41.14h-.14a44.23,44.23,0,0,1-4.47.68c-2.85.41-5.15.54-6.92.81-.95.14-1.9.41-2.71.54h0c-1.49.54-2.58,1.22-2.58,2.17,0,4.75-3,22,2,22.92s31.59,1.9,34.58-3.8C1075.17,443.59,1080.19,433.14,1075.17,426.5Z"/><path class="9e7efe1e-2c4e-4828-8480-55230828b596" d="M1151.38,446.43h0c0,1.36-4.75-3.12-15.46-3.8-4.34-.14-8.41,0-10.31.54.54-.27,1.36-.68,2.31-1.22-1.36-.27,0-.41-1.76.14-2.58.81,9.22-5.15,21.15-12.61,3.53-2.85,6.24-5.56,7.05-8,3-8.54,0,0,.95-28.61h0s-.95-1.9-9.9.95-24.68,25.76-30.64,31.46,2,12.47,2,20.07,26.71,7.59,34.58,11.39,0-6.37,0-10.31Z"/><path class="c3d5257e-62a7-4780-89d7-86e0bee55ff0" d="M1300.67,429.35c-2-2.85-26.71-27.66-31.59-32.41s-12.88-9.49-12.88-4.75-2,31.46-2,31.46a36.67,36.67,0,0,1,3.39,2.44V426h0l.41.41c16.14,12.34,10.44,17.76,16.95,11.53C1282,431.25,1302.7,432.2,1300.67,429.35Z"/><path id="61c03aa7-48a5-4513-8608-d2bb69d62811" data-name="path5449" class="09bd9df5-f856-4719-91af-e3c55736c38f" d="M947,454.16c-26.58,17.76-31.46,24.41-35.53,36.61s-4.75,15.19,7.46,30c11.53,14,20.07,12.47,27,11.25,6.24-1.08,14.64,7.86,10-7.46-3-9.63,4.2,29,17.63-13.42,1.63-5.15,10.17-11.25,16.41-16.54,14.51-12.61,48-39.32,42-39.32s-85-1.08-85-1.08Z"/><path id="bc993f7b-069b-4418-ba31-4cc9a2276962" data-name="path5489" class="e569233d-8f24-4270-8d38-d30e6c1ae4ab" d="M1327.38,391.11c9.63,11,15.59,3.12,17.36,18.44,1.36,11.53-5.42,17.76-16.41,18.85s-18.85,5.29-18.85-3.39,17.9-33.9,17.9-33.9Z"/><path id="90a8fd5c-81c7-4941-ba94-a58af6734cf7" data-name="path5483" class="d87c5169-7159-4830-8274-20b6f2139374" d="M1334.57,397.89c11,12.47,9.9,6.24,10.85,12.47,2.17,13.83-12.88,13.42-3,11.39s38.51,2.85,38.51-1.9-3.25-4.88,0-13.42c3.93-10-1.9-8-5.83-5.56-4.07,2.71-11,6.51-22.92,3.53-11.66-2.71-17.63-6.51-17.63-6.51Z"/><path id="dbcef6a3-bbdd-451e-85e4-9e7ca8125231" data-name="path4520" class="f60d051a-c0b0-47e7-9edc-375431baaae0" d="M1301.21,570.64c-14,15.32-8.68,6.64-14,15.32s-8.68,8.68-8.68,14.37-4.34,6.24-1.49,12.88,5.29,10,6.64,14.92,4.34,11.53,6.24,13.42a9.94,9.94,0,0,0,3.66,2.44s.54-1.22,1.49,1.49c0,.14,10.44,7.05,9.49,5.15-2.85-6.24-13.83-15.19-16.68-24.27s-3.66-11.25-4.61-16-2.44-.81-.95-4.07,6.51-14.37,8.41-16.68,2.85-4.75,6.64-8.68,4.75-5.7,6.64-7.73c2.44-2.17,7.73-2.17-2.85-2.58Z"/><path id="3e6416d9-7cad-4348-8922-b5a6c93365f1" data-name="path4520-3" class="f60d051a-c0b0-47e7-9edc-375431baaae0" d="M1040.87,571.59c-14,15.32-8.68,6.64-14,15.32s-8.68,8.68-8.68,14.37-4.34,6.24-1.49,12.88,5.29,10,6.64,14.92,4.34,11.53,6.24,13.42a9.94,9.94,0,0,0,3.66,2.44s.54-1.22,1.49,1.49c0,.14,3.66,3.66,2.71,1.76-2.85-6.24-7.05-11.8-9.9-20.88s-3.66-11.25-4.61-16-2.44-.81-.95-4.07,6.51-14.37,8.41-16.68,2.85-4.75,6.64-8.68,4.75-5.7,6.64-7.73c2.44-2,7.73-2-2.85-2.58Z"/><path id="4858cacd-ea3b-451f-9d01-920c5fa43628" data-name="path4520-6" class="f60d051a-c0b0-47e7-9edc-375431baaae0" d="M931.71,457c-14,15.32-8.68,6.64-14,15.32s-8.68,8.68-8.68,14.37-4.34,6.24-1.49,12.88,5.29,10,6.64,14.92,4.34,11.53,6.24,13.42a9.94,9.94,0,0,0,3.66,2.44s.54-1.22,1.49,1.49c0,.14,5,2.31,4.07.41-2.85-6.24-8.41-10.44-11.25-19.53s-3.66-11.25-4.61-16-2.44-.81-.95-4.07,6.51-14.37,8.41-16.68,2.85-4.75,6.64-8.68,14.24-10.44,16.14-12.47c2.44-2-1.76,2.71-12.34,2.17Z"/><path id="416b22e4-6aea-4a1f-a1a8-34d1be7775fd" data-name="path5396-3" class="c659ba75-83f1-48e1-bf8a-706ea0d7ae79" d="M949.07,531.86c16.81,1.9,17.36.41,15.32-4.34s1.49-36.75-3.53-35.8-14.78-2.85-14.78.95,3,39.19,3,39.19Z"/><path id="c754dcf1-65d9-4571-83e8-f0a451b503ec" data-name="path7131" class="c6e547a8-bc85-4e6e-b7a0-d67e882cdb06" d="M1083.44,352.46c17.22-15.32,19.12,0,19.12,0"/><path id="24146c37-d35d-4f42-b519-e0cff29aa7ca" data-name="path7675" class="9069bece-23a6-487e-9356-4729d9e8fe58" d="M1087.38,349.35c-15.32,126.78-24.27,143.87-15.32,126.78s-2-26.44,5.56.68.41,41.22,11,9.36c9.08-27.12-3.53-22.1,8.14.27,13.7,26.58,17.36,45.15,8.41-11.8s-1.22,25.63-5.15-51.26c-3.66-76.88,5.29-78.37-12.61-74Z"/><path id="f6e861cf-1a0c-4f9e-b97c-1fb11692d04d" data-name="path7677" class="6e9bb1eb-2638-4f57-880b-ddc1d658e7ad" d="M1082.5,222l-1.36,82.71"/><path id="b58a85f7-ebb0-45a4-ac91-edf8ee449bdd" data-name="path7677-6" class="53331f0c-a7df-458c-8742-01e082ca51e7" d="M1201.55,219.17l-.81,35.39"/><path class="da15e447-ed73-4ae8-8932-7a6b8b0e8f3c" d="M1119.38,106.76c.54-.41,3.93-7.46,8.81-4.61,1.36.68,2.71,2.17,4.34,4.61"/><path class="da15e447-ed73-4ae8-8932-7a6b8b0e8f3c" d="M1147.85,106.76c.54-.41,3.93-7.46,8.81-4.61,1.36.68,2.71,2.17,4.34,4.61"/><path class="b63d283a-3e92-4e31-a6cc-baab2acaef73" d="M76.14,471H62.73l-3,8.37H55.36l12.23-32h3.69l12.25,32H79.2ZM64,467.57H74.89l-5.45-15Z"/><path class="b63d283a-3e92-4e31-a6cc-baab2acaef73" d="M111.14,469.24a11.75,11.75,0,0,1-3.75,7.83A12.3,12.3,0,0,1,99,479.83a11.29,11.29,0,0,1-9.09-4.06q-3.42-4.06-3.42-10.87v-3.07A18.18,18.18,0,0,1,88.09,454a11.89,11.89,0,0,1,4.52-5.19A12.59,12.59,0,0,1,99.38,447a11.58,11.58,0,0,1,8.18,2.84,11.9,11.9,0,0,1,3.58,7.87H106.9q-.55-3.83-2.39-5.55a7.23,7.23,0,0,0-5.13-1.72,7.56,7.56,0,0,0-6.34,3q-2.3,3-2.3,8.5V465a14.09,14.09,0,0,0,2.18,8.28A7,7,0,0,0,99,476.38a8.13,8.13,0,0,0,5.4-1.59q1.88-1.59,2.5-5.54Z"/><path class="b63d283a-3e92-4e31-a6cc-baab2acaef73" d="M134.58,471H121.17l-3,8.37H113.8l12.23-32h3.69l12.25,32h-4.33Zm-12.14-3.45h10.88l-5.45-15Z"/><path class="b63d283a-3e92-4e31-a6cc-baab2acaef73" d="M146.28,479.39v-32h9a14.57,14.57,0,0,1,7.39,1.84,12.47,12.47,0,0,1,5,5.25,17.05,17.05,0,0,1,1.77,7.82v2a17.13,17.13,0,0,1-1.75,7.93,12.29,12.29,0,0,1-5,5.23,15.49,15.49,0,0,1-7.55,1.87Zm4.22-28.52v25.07h4.44a9.67,9.67,0,0,0,7.6-3q2.72-3,2.72-8.64V462.4q0-5.45-2.56-8.47a9.12,9.12,0,0,0-7.27-3.07Z"/><path class="b63d283a-3e92-4e31-a6cc-baab2acaef73" d="M193.91,464.61H180v11.33h16.12v3.45H175.81v-32h20.12v3.45H180v10.3h13.87Z"/><path class="b63d283a-3e92-4e31-a6cc-baab2acaef73" d="M206.86,447.42l10.47,26.08,10.47-26.08h5.47v32H229V466.94l.4-13.44-10.51,25.89H215.7l-10.49-25.82.42,13.37v12.45H201.4v-32Z"/><path class="b63d283a-3e92-4e31-a6cc-baab2acaef73" d="M245.25,479.39H241v-32h4.22Z"/><path class="b63d283a-3e92-4e31-a6cc-baab2acaef73" d="M276.51,469.24a11.75,11.75,0,0,1-3.75,7.83,12.3,12.3,0,0,1-8.39,2.76,11.29,11.29,0,0,1-9.09-4.06q-3.42-4.06-3.42-10.87v-3.07a18.18,18.18,0,0,1,1.59-7.84,11.89,11.89,0,0,1,4.52-5.19,12.59,12.59,0,0,1,6.77-1.81,11.58,11.58,0,0,1,8.18,2.84,11.9,11.9,0,0,1,3.58,7.87h-4.24q-.55-3.83-2.39-5.55a7.23,7.23,0,0,0-5.13-1.72,7.56,7.56,0,0,0-6.34,3q-2.3,3-2.3,8.5V465a14.09,14.09,0,0,0,2.18,8.28,7,7,0,0,0,6.09,3.08,8.13,8.13,0,0,0,5.4-1.59q1.88-1.59,2.5-5.54Z"/><path class="b63d283a-3e92-4e31-a6cc-baab2acaef73" d="M311.52,464.61H297.64v11.33h16.12v3.45H293.42v-32h20.12v3.45h-15.9v10.3h13.87Z"/><path class="b63d283a-3e92-4e31-a6cc-baab2acaef73" d="M329.46,459.67l7.67-12.25h5L332,463.27l10.36,16.12h-5l-7.87-12.47-7.92,12.47h-5l10.38-16.12-10.14-15.85h4.95Z"/><path class="b63d283a-3e92-4e31-a6cc-baab2acaef73" d="M370.25,469.24a11.75,11.75,0,0,1-3.75,7.83,12.3,12.3,0,0,1-8.39,2.76,11.29,11.29,0,0,1-9.09-4.06q-3.42-4.06-3.42-10.87v-3.07a18.18,18.18,0,0,1,1.59-7.84,11.89,11.89,0,0,1,4.52-5.19,12.59,12.59,0,0,1,6.77-1.81,11.58,11.58,0,0,1,8.18,2.84,11.9,11.9,0,0,1,3.58,7.87H366q-.55-3.83-2.39-5.55a7.23,7.23,0,0,0-5.13-1.72,7.56,7.56,0,0,0-6.34,3q-2.3,3-2.3,8.5V465A14.09,14.09,0,0,0,352,473.3a7,7,0,0,0,6.09,3.08,8.13,8.13,0,0,0,5.4-1.59q1.88-1.59,2.5-5.54Z"/><path class="b63d283a-3e92-4e31-a6cc-baab2acaef73" d="M394.1,464.61H380.23v11.33h16.12v3.45H376v-32h20.12v3.45h-15.9v10.3H394.1Z"/><path class="b63d283a-3e92-4e31-a6cc-baab2acaef73" d="M405.85,475.94H421v3.45H401.6v-32h4.24Z"/><path class="b63d283a-3e92-4e31-a6cc-baab2acaef73" d="M430.08,475.94h15.17v3.45H425.83v-32h4.24Z"/><path class="b63d283a-3e92-4e31-a6cc-baab2acaef73" d="M468.16,464.61H454.28v11.33H470.4v3.45H450.06v-32h20.12v3.45h-15.9v10.3h13.87Z"/><path class="b63d283a-3e92-4e31-a6cc-baab2acaef73" d="M500.26,479.39H496L479.9,454.75v24.64h-4.24v-32h4.24l16.16,24.75V447.42h4.2Z"/><path class="b63d283a-3e92-4e31-a6cc-baab2acaef73" d="M531.31,469.24a11.75,11.75,0,0,1-3.75,7.83,12.3,12.3,0,0,1-8.39,2.76,11.29,11.29,0,0,1-9.09-4.06q-3.42-4.06-3.42-10.87v-3.07a18.18,18.18,0,0,1,1.59-7.84,11.89,11.89,0,0,1,4.52-5.19,12.59,12.59,0,0,1,6.77-1.81,11.58,11.58,0,0,1,8.18,2.84,11.9,11.9,0,0,1,3.58,7.87h-4.24q-.55-3.83-2.39-5.55a7.23,7.23,0,0,0-5.13-1.72,7.56,7.56,0,0,0-6.34,3q-2.3,3-2.3,8.5V465a14.09,14.09,0,0,0,2.18,8.28,7,7,0,0,0,6.09,3.08,8.13,8.13,0,0,0,5.4-1.59q1.88-1.59,2.5-5.54Z"/><path class="b63d283a-3e92-4e31-a6cc-baab2acaef73" d="M555.16,464.61H541.29v11.33h16.12v3.45H537.07v-32h20.12v3.45h-15.9v10.3h13.87Z"/><path class="b63d283a-3e92-4e31-a6cc-baab2acaef73" d="M578,466.87v12.52h-4.22v-32h11.81q5.25,0,8.23,2.68a9.08,9.08,0,0,1,3,7.09,9,9,0,0,1-2.91,7.17q-2.91,2.51-8.34,2.51Zm0-3.45h7.59a7.59,7.59,0,0,0,5.19-1.59,5.83,5.83,0,0,0,1.8-4.61,6,6,0,0,0-1.8-4.57,7.11,7.11,0,0,0-4.95-1.78H578Z"/><path class="b63d283a-3e92-4e31-a6cc-baab2acaef73" d="M614,466.45h-7.52v12.93H602.2v-32h10.6q5.41,0,8.32,2.46T624,457a8.6,8.6,0,0,1-1.62,5.2,9.65,9.65,0,0,1-4.5,3.32l7.52,13.57v.26h-4.53ZM606.44,463h6.49a7.32,7.32,0,0,0,5-1.63,5.5,5.5,0,0,0,1.86-4.36,5.79,5.79,0,0,0-1.77-4.55,7.5,7.5,0,0,0-5.11-1.61h-6.46Z"/><path class="b63d283a-3e92-4e31-a6cc-baab2acaef73" d="M654.57,464.43a19.75,19.75,0,0,1-1.58,8.2A12,12,0,0,1,648.5,478a12.38,12.38,0,0,1-18-5.3,18.94,18.94,0,0,1-1.66-8v-2.31a19.53,19.53,0,0,1,1.6-8.15A11.87,11.87,0,0,1,641.68,447a12.42,12.42,0,0,1,6.78,1.86,12,12,0,0,1,4.52,5.38,19.85,19.85,0,0,1,1.58,8.2Zm-4.2-2.06q0-5.69-2.29-8.73a7.55,7.55,0,0,0-6.4-3,7.46,7.46,0,0,0-6.3,3q-2.3,3-2.36,8.44v2.35q0,5.51,2.32,8.66a8.14,8.14,0,0,0,12.72.18q2.24-3,2.31-8.53Z"/><path class="b63d283a-3e92-4e31-a6cc-baab2acaef73" d="M684.54,475.19a9.75,9.75,0,0,1-4.54,3.48,18.37,18.37,0,0,1-6.78,1.15,13.16,13.16,0,0,1-6.95-1.83,12.21,12.21,0,0,1-4.69-5.21,18,18,0,0,1-1.7-7.84v-2.79q0-7.22,3.38-11.2t9.49-4a12.16,12.16,0,0,1,8.07,2.56,11.14,11.14,0,0,1,3.74,7.26h-4.22q-1.19-6.37-7.56-6.37a7.48,7.48,0,0,0-6.43,3q-2.19,3-2.21,8.63v2.62q0,5.38,2.46,8.56a8,8,0,0,0,6.66,3.18,14.7,14.7,0,0,0,4.16-.53,6.43,6.43,0,0,0,2.95-1.77v-7.16h-7.41v-3.45h11.61Z"/><path class="b63d283a-3e92-4e31-a6cc-baab2acaef73" d="M703.32,466.45H695.8v12.93h-4.24v-32h10.6q5.41,0,8.32,2.46t2.91,7.16a8.6,8.6,0,0,1-1.62,5.2,9.65,9.65,0,0,1-4.5,3.32l7.52,13.57v.26h-4.53ZM695.8,463h6.49a7.32,7.32,0,0,0,5-1.63,5.5,5.5,0,0,0,1.86-4.36,5.79,5.79,0,0,0-1.77-4.55,7.5,7.5,0,0,0-5.11-1.61H695.8Z"/><path class="b63d283a-3e92-4e31-a6cc-baab2acaef73" d="M737,471H723.57l-3,8.37H716.2l12.23-32h3.69l12.25,32H740Zm-12.14-3.45h10.88l-5.45-15Z"/><path class="b63d283a-3e92-4e31-a6cc-baab2acaef73" d="M754.13,447.42,764.6,473.5l10.47-26.08h5.47v32h-4.22V466.94l.4-13.44L766.2,479.39H763l-10.49-25.82.42,13.37v12.45h-4.22v-32Z"/><path class="b63d283a-3e92-4e31-a6cc-baab2acaef73" d="M793.44,447.42l10.47,26.08,10.47-26.08h5.47v32h-4.22V466.94l.4-13.44-10.51,25.89h-3.23l-10.49-25.82.42,13.37v12.45H788v-32Z"/><path class="b63d283a-3e92-4e31-a6cc-baab2acaef73" d="M845.4,464.61H831.53v11.33h16.12v3.45H827.31v-32h20.12v3.45h-15.9v10.3H845.4Z"/><path class="b63d283a-3e92-4e31-a6cc-baab2acaef73" d="M76.17,513.47a14.93,14.93,0,0,1-1.2,6.2,9.06,9.06,0,0,1-3.39,4,9.36,9.36,0,0,1-13.62-4,14.32,14.32,0,0,1-1.25-6v-1.74a14.75,14.75,0,0,1,1.21-6.16,9,9,0,0,1,8.51-5.51,9.4,9.4,0,0,1,5.13,1.4A9,9,0,0,1,75,505.74a15,15,0,0,1,1.2,6.2ZM73,511.91q0-4.3-1.73-6.6a5.71,5.71,0,0,0-4.84-2.3,5.64,5.64,0,0,0-4.76,2.3,10.6,10.6,0,0,0-1.79,6.38v1.78A10.85,10.85,0,0,0,61.64,520a6.15,6.15,0,0,0,9.62.13A10.79,10.79,0,0,0,73,513.7Z"/><path class="b63d283a-3e92-4e31-a6cc-baab2acaef73" d="M99.57,524.77H96.36L84.17,506.15v18.63H81V500.6h3.21l12.22,18.71V500.6h3.18Z"/><path class="b63d283a-3e92-4e31-a6cc-baab2acaef73" d="M108.44,522.17h11.47v2.61H105.23V500.6h3.21Z"/><path class="b63d283a-3e92-4e31-a6cc-baab2acaef73" d="M127,524.77h-3.19V500.6H127Z"/><path class="b63d283a-3e92-4e31-a6cc-baab2acaef73" d="M151.42,524.77h-3.21L136,506.15v18.63h-3.21V500.6H136l12.22,18.71V500.6h3.18Z"/><path class="b63d283a-3e92-4e31-a6cc-baab2acaef73" d="M170.77,513.6H160.28v8.57h12.19v2.61H157.09V500.6H172.3v2.61h-12V511h10.49Z"/><path class="b63d283a-3e92-4e31-a6cc-baab2acaef73" d="M188.06,515.31v9.46h-3.19V500.6h8.93a9,9,0,0,1,6.23,2,6.86,6.86,0,0,1,2.25,5.36,6.77,6.77,0,0,1-2.2,5.42,9.38,9.38,0,0,1-6.31,1.9Zm0-2.61h5.74a5.73,5.73,0,0,0,3.92-1.21,4.4,4.4,0,0,0,1.36-3.48,4.55,4.55,0,0,0-1.36-3.46,5.38,5.38,0,0,0-3.74-1.35h-5.92Z"/><path class="b63d283a-3e92-4e31-a6cc-baab2acaef73" d="M209.56,522.17H221v2.61H206.35V500.6h3.21Z"/><path class="b63d283a-3e92-4e31-a6cc-baab2acaef73" d="M238.35,518.45H228.21l-2.28,6.33h-3.29l9.24-24.17h2.79l9.26,24.17h-3.28Zm-9.18-2.61h8.23l-4.12-11.31Z"/><path class="b63d283a-3e92-4e31-a6cc-baab2acaef73" d="M261.77,503.21H254v21.57h-3.18V503.21h-7.76V500.6h18.72Z"/><path class="b63d283a-3e92-4e31-a6cc-baab2acaef73" d="M278.71,514.1H268.56v10.67h-3.19V500.6h15v2.61h-11.8v8.28h10.16Z"/><path class="b63d283a-3e92-4e31-a6cc-baab2acaef73" d="M302.8,513.47a14.93,14.93,0,0,1-1.2,6.2,9.06,9.06,0,0,1-3.39,4,9.36,9.36,0,0,1-13.62-4,14.32,14.32,0,0,1-1.25-6v-1.74a14.75,14.75,0,0,1,1.21-6.16,9,9,0,0,1,8.51-5.51,9.4,9.4,0,0,1,5.13,1.4,9,9,0,0,1,3.42,4.07,15,15,0,0,1,1.2,6.2Zm-3.18-1.56q0-4.3-1.73-6.6a5.71,5.71,0,0,0-4.84-2.3,5.64,5.64,0,0,0-4.76,2.3,10.6,10.6,0,0,0-1.79,6.38v1.78a10.85,10.85,0,0,0,1.75,6.55,6.15,6.15,0,0,0,9.62.13,10.79,10.79,0,0,0,1.75-6.45Z"/><path class="b63d283a-3e92-4e31-a6cc-baab2acaef73" d="M316.47,515h-5.69v9.78h-3.21V500.6h8a9.5,9.5,0,0,1,6.29,1.86,6.68,6.68,0,0,1,2.2,5.41,6.5,6.5,0,0,1-1.22,3.93,7.29,7.29,0,0,1-3.4,2.51l5.69,10.26v.2h-3.42Zm-5.69-2.61h4.9a5.54,5.54,0,0,0,3.78-1.23,4.16,4.16,0,0,0,1.4-3.29,4.38,4.38,0,0,0-1.34-3.44,5.67,5.67,0,0,0-3.87-1.21h-4.89Z"/><path class="b63d283a-3e92-4e31-a6cc-baab2acaef73" d="M332.68,500.6l7.91,19.72,7.91-19.72h4.14v24.17h-3.19v-9.41l.3-10.16-7.95,19.57h-2.44l-7.93-19.52.32,10.11v9.41h-3.19V500.6Z"/><path class="b63d283a-3e92-4e31-a6cc-baab2acaef73" d="M380.06,514.1H369.9v10.67h-3.19V500.6h15v2.61H369.9v8.28h10.16Z"/><path class="b63d283a-3e92-4e31-a6cc-baab2acaef73" d="M404.15,513.47a14.93,14.93,0,0,1-1.2,6.2,9.06,9.06,0,0,1-3.39,4,9.36,9.36,0,0,1-13.62-4,14.32,14.32,0,0,1-1.25-6v-1.74a14.75,14.75,0,0,1,1.21-6.16,9,9,0,0,1,8.51-5.51,9.4,9.4,0,0,1,5.13,1.4,9,9,0,0,1,3.42,4.07,15,15,0,0,1,1.2,6.2ZM401,511.91q0-4.3-1.73-6.6a5.71,5.71,0,0,0-4.84-2.3,5.64,5.64,0,0,0-4.76,2.3,10.6,10.6,0,0,0-1.79,6.38v1.78a10.85,10.85,0,0,0,1.75,6.55,6.15,6.15,0,0,0,9.62.13A10.79,10.79,0,0,0,401,513.7Z"/><path class="b63d283a-3e92-4e31-a6cc-baab2acaef73" d="M417.81,515h-5.69v9.78h-3.21V500.6h8a9.5,9.5,0,0,1,6.29,1.86,6.68,6.68,0,0,1,2.2,5.41,6.5,6.5,0,0,1-1.22,3.93,7.29,7.29,0,0,1-3.4,2.51l5.69,10.26v.2h-3.42Zm-5.69-2.61H417a5.54,5.54,0,0,0,3.78-1.23,4.16,4.16,0,0,0,1.4-3.29,4.38,4.38,0,0,0-1.34-3.44,5.67,5.67,0,0,0-3.87-1.21h-4.89Z"/><path class="b63d283a-3e92-4e31-a6cc-baab2acaef73" d="M456.13,517.1A8.89,8.89,0,0,1,453.3,523a9.3,9.3,0,0,1-6.34,2.08,8.53,8.53,0,0,1-6.87-3.07,12.34,12.34,0,0,1-2.58-8.22v-2.32a13.75,13.75,0,0,1,1.21-5.93,9,9,0,0,1,3.42-3.93,9.53,9.53,0,0,1,5.12-1.37,8.75,8.75,0,0,1,6.18,2.15,9,9,0,0,1,2.71,6h-3.21a7,7,0,0,0-1.8-4.2,5.46,5.46,0,0,0-3.88-1.3,5.71,5.71,0,0,0-4.8,2.26,10.36,10.36,0,0,0-1.74,6.43v2.34a10.65,10.65,0,0,0,1.65,6.26,5.32,5.32,0,0,0,4.6,2.33,6.15,6.15,0,0,0,4.08-1.2,6.67,6.67,0,0,0,1.89-4.19Z"/><path class="b63d283a-3e92-4e31-a6cc-baab2acaef73" d="M479.11,513.47a14.93,14.93,0,0,1-1.2,6.2,9.06,9.06,0,0,1-3.39,4,9.36,9.36,0,0,1-13.62-4,14.32,14.32,0,0,1-1.25-6v-1.74a14.75,14.75,0,0,1,1.21-6.16,9,9,0,0,1,8.51-5.51,9.4,9.4,0,0,1,5.13,1.4,9,9,0,0,1,3.42,4.07,15,15,0,0,1,1.2,6.2Zm-3.18-1.56q0-4.3-1.73-6.6a5.71,5.71,0,0,0-4.84-2.3,5.64,5.64,0,0,0-4.76,2.3,10.6,10.6,0,0,0-1.79,6.38v1.78a10.85,10.85,0,0,0,1.75,6.55,6.15,6.15,0,0,0,9.62.13,10.79,10.79,0,0,0,1.75-6.45Z"/><path class="b63d283a-3e92-4e31-a6cc-baab2acaef73" d="M487.11,522.17h11.47v2.61H483.9V500.6h3.21Z"/><path class="b63d283a-3e92-4e31-a6cc-baab2acaef73" d="M505.43,522.17H516.9v2.61H502.22V500.6h3.21Z"/><path class="b63d283a-3e92-4e31-a6cc-baab2acaef73" d="M534.22,513.6H523.73v8.57h12.19v2.61H520.54V500.6h15.21v2.61h-12V511h10.49Z"/><path class="b63d283a-3e92-4e31-a6cc-baab2acaef73" d="M557.76,521.6a7.38,7.38,0,0,1-3.43,2.63,13.9,13.9,0,0,1-5.13.87,10,10,0,0,1-5.25-1.39,9.24,9.24,0,0,1-3.55-3.94,13.6,13.6,0,0,1-1.29-5.93v-2.11q0-5.46,2.55-8.47a8.9,8.9,0,0,1,7.17-3,9.2,9.2,0,0,1,6.1,1.93,8.43,8.43,0,0,1,2.83,5.49h-3.19q-.9-4.81-5.72-4.81a5.65,5.65,0,0,0-4.86,2.25q-1.65,2.25-1.67,6.52v2a10.29,10.29,0,0,0,1.86,6.47,6,6,0,0,0,5,2.4,11.12,11.12,0,0,0,3.14-.4,4.86,4.86,0,0,0,2.23-1.34v-5.42H549v-2.61h8.78Z"/><path class="b63d283a-3e92-4e31-a6cc-baab2acaef73" d="M576.76,513.6H566.27v8.57h12.19v2.61H563.08V500.6h15.21v2.61h-12V511h10.49Z"/><path class="b63d283a-3e92-4e31-a6cc-baab2acaef73" d="M598,514a15,15,0,0,1-6-2.9,5.53,5.53,0,0,1-1.87-4.24,5.85,5.85,0,0,1,2.29-4.72,9.1,9.1,0,0,1,5.94-1.87,9.94,9.94,0,0,1,4.45,1,7.31,7.31,0,0,1,3,2.66,6.79,6.79,0,0,1,1.07,3.7h-3.21a4.42,4.42,0,0,0-1.4-3.46,5.69,5.69,0,0,0-3.94-1.26,5.82,5.82,0,0,0-3.68,1,3.46,3.46,0,0,0-1.32,2.88,3.12,3.12,0,0,0,1.25,2.5,12.3,12.3,0,0,0,4.27,1.87,19.81,19.81,0,0,1,4.72,1.87,7.15,7.15,0,0,1,2.53,2.38,6.07,6.07,0,0,1,.82,3.2,5.65,5.65,0,0,1-2.29,4.71,9.8,9.8,0,0,1-6.13,1.77,11.39,11.39,0,0,1-4.66-1,7.83,7.83,0,0,1-3.33-2.61,6.38,6.38,0,0,1-1.17-3.77h3.21a4.16,4.16,0,0,0,1.62,3.46,6.83,6.83,0,0,0,4.33,1.27,6.28,6.28,0,0,0,3.87-1,3.34,3.34,0,0,0,1.35-2.81,3.28,3.28,0,0,0-1.25-2.75A14.41,14.41,0,0,0,598,514Z"/><path class="b63d283a-3e92-4e31-a6cc-baab2acaef73" d="M627.79,503.21H620v21.57h-3.18V503.21h-7.76V500.6h18.72Z"/><path class="b63d283a-3e92-4e31-a6cc-baab2acaef73" d="M648.42,500.6V517a7.7,7.7,0,0,1-2.15,5.59,8.68,8.68,0,0,1-5.79,2.44l-.85,0a9.07,9.07,0,0,1-6.33-2.14,7.65,7.65,0,0,1-2.39-5.89V500.6h3.16V517a5,5,0,0,0,5.57,5.53,5.6,5.6,0,0,0,4.15-1.44,5.51,5.51,0,0,0,1.44-4.07V500.6Z"/><path class="b63d283a-3e92-4e31-a6cc-baab2acaef73" d="M653.45,524.77V500.6h6.83a11,11,0,0,1,5.59,1.39,9.44,9.44,0,0,1,3.75,4,12.9,12.9,0,0,1,1.34,5.91v1.54a13,13,0,0,1-1.32,6,9.29,9.29,0,0,1-3.77,4,11.71,11.71,0,0,1-5.71,1.41Zm3.19-21.57v19H660a7.31,7.31,0,0,0,5.74-2.29,9.46,9.46,0,0,0,2.05-6.53v-1.41a9.61,9.61,0,0,0-1.94-6.41,6.9,6.9,0,0,0-5.49-2.32Z"/><path class="b63d283a-3e92-4e31-a6cc-baab2acaef73" d="M689.46,513.6H679v8.57h12.19v2.61H675.78V500.6H691v2.61H679V511h10.49Z"/><path class="b63d283a-3e92-4e31-a6cc-baab2acaef73" d="M713.74,524.77h-3.21l-12.19-18.63v18.63h-3.21V500.6h3.21l12.22,18.71V500.6h3.18Z"/><path class="b63d283a-3e92-4e31-a6cc-baab2acaef73" d="M735.65,503.21h-7.78v21.57h-3.18V503.21h-7.76V500.6h18.72Z"/><path class="b63d283a-3e92-4e31-a6cc-baab2acaef73" d="M746.1,514a15,15,0,0,1-6-2.9,5.53,5.53,0,0,1-1.87-4.24,5.85,5.85,0,0,1,2.29-4.72,9.1,9.1,0,0,1,5.94-1.87,9.94,9.94,0,0,1,4.45,1,7.31,7.31,0,0,1,3,2.66,6.79,6.79,0,0,1,1.07,3.7h-3.21a4.42,4.42,0,0,0-1.4-3.46,5.69,5.69,0,0,0-3.94-1.26,5.82,5.82,0,0,0-3.68,1,3.46,3.46,0,0,0-1.32,2.88,3.12,3.12,0,0,0,1.25,2.5,12.3,12.3,0,0,0,4.27,1.87,19.81,19.81,0,0,1,4.72,1.87,7.15,7.15,0,0,1,2.53,2.38,6.07,6.07,0,0,1,.82,3.2,5.65,5.65,0,0,1-2.29,4.71,9.8,9.8,0,0,1-6.13,1.77,11.39,11.39,0,0,1-4.66-1,7.83,7.83,0,0,1-3.33-2.61,6.38,6.38,0,0,1-1.17-3.77h3.21a4.16,4.16,0,0,0,1.62,3.46,6.83,6.83,0,0,0,4.33,1.27,6.28,6.28,0,0,0,3.87-1,3.34,3.34,0,0,0,1.35-2.81,3.28,3.28,0,0,0-1.25-2.75A14.41,14.41,0,0,0,746.1,514Z"/></g></g></svg>