<svg xmlns="http://www.w3.org/2000/svg" viewBox="0 0 2401.56 688.77"><defs><style>.cf68dc4c-5b12-4c4a-859b-b891c0a38252{fill:#b9af08;}.ef08b2f7-edd4-488f-b594-c73e24c33840{fill:#124877;}.\38 aa92b5d-ed53-4faa-8ab7-8948405a6c2a{fill:#ea940c;}.\31 ce4672f-a56d-42b7-8cd3-b71c3c5c943c{fill:#9b9b9b;stroke:#9b9b9b;stroke-miterlimit:10;stroke-width:8px;}.\36 d8868d6-9a95-4e00-b5bf-5a2bf8096a4d{fill:#595959;}</style></defs><title>logo</title><g id="2573ac9d-a885-4535-b5b1-83d3d76b8cfc" data-name="Layer 2"><g id="341c2ceb-88a8-40f2-a95d-f181d18f66af" data-name="Layer 3"><path class="cf68dc4c-5b12-4c4a-859b-b891c0a38252" d="M0,334s26.39-21.76,51.43-21S88,327.42,88,327.42,63.85,313,38.91,335.2c0,0,14,22.22,47,13.76,0,0-16.28,11.73-35.06,11.28S16.08,351.78,0,334Z"/><path class="cf68dc4c-5b12-4c4a-859b-b891c0a38252" d="M9.29,438s18.83-28.56,43-35.16,39.22,3,39.22,3-27.35-6.69-44.66,21.87c0,0,19.88,17.13,49-.66,0,0-12.11,16-30.19,21.08S29.9,450.33,9.29,438Z"/><path class="cf68dc4c-5b12-4c4a-859b-b891c0a38252" d="M54.3,535.12s7.82-33.3,28.22-47.84,37.86-10.68,37.86-10.68-28,3.15-34.37,35.94c0,0,24.57,9.22,45.73-17.52,0,0-5.85,19.19-21.07,30.2S77.89,539.56,54.3,535.12Z"/><path class="cf68dc4c-5b12-4c4a-859b-b891c0a38252" d="M18.71,230.87s31.38-12.14,55.08-4,30.86,24.05,30.86,24.05-19-20.38-49.13-7.4c0,0,7,24.49,41,26.51,0,0-18.88,5.93-36.69,0S29,252,18.71,230.87Z"/><path class="cf68dc4c-5b12-4c4a-859b-b891c0a38252" d="M67.79,138.12S100.95,137,121,152s22.16,32,22.16,32-12-24.85-44.24-22.51c0,0-.47,24.83,31,37.53,0,0-19.55-.56-34.63-11.75S71.4,160.85,67.79,138.12Z"/><path class="cf68dc4c-5b12-4c4a-859b-b891c0a38252" d="M144.08,62.5s32.45,8.32,47.13,28.62,11.48,37.35,11.48,37.35S198.79,101,166.88,94c0,0-8.17,23.91,18.33,45.2,0,0-18.74-6.11-29.86-21.26S140.5,85.55,144.08,62.5Z"/><path class="cf68dc4c-5b12-4c4a-859b-b891c0a38252" d="M242.31,17.88s27.81,18.68,34.87,42.71-1.65,39-1.65,39S281,72.4,253.27,55.23c0,0-15.69,19.81,2.19,48.73,0,0-15.62-12-21-30S231.24,38.41,242.31,17.88Z"/><path class="cf68dc4c-5b12-4c4a-859b-b891c0a38252" d="M345.58,0c1.69.76,25,26.57,22.62,50.29-2.5,25-11.71,37.28-11.71,37.28s12.38-24.87-10-48.65c0,0-20.3,15.07-10.52,47.63,0,0-12-15.66-12.56-34.43S329.56,17,345.58,0Z"/><path class="cf68dc4c-5b12-4c4a-859b-b891c0a38252" d="M125.92,614.07s-2.05-33.44,12.75-53.65,32-22.4,32-22.4-25,12.17-21.75,44.65c0,0,25.27.43,37.38-31.34,0,0-.06,19.71-11,34.94S148.95,610.39,125.92,614.07Z"/><path class="cf68dc4c-5b12-4c4a-859b-b891c0a38252" d="M220.49,668.07s-12.55-31.06-4.91-54.92,23.26-31.39,23.26-31.39S219,601.21,232.37,631c0,0,24.1-7.61,25.52-41.57,0,0,6.19,18.71.6,36.65S241.17,657.28,220.49,668.07Z"/><path class="cf68dc4c-5b12-4c4a-859b-b891c0a38252" d="M330.69,688.77c1.69-.76,25-26.57,22.62-50.29-2.5-25-11.71-37.28-11.71-37.28s12.38,24.87-10,48.65c0,0-20.3-15.07-10.52-47.63,0,0-12,15.66-12.56,34.43S314.68,671.8,330.69,688.77Z"/><path class="cf68dc4c-5b12-4c4a-859b-b891c0a38252" d="M450.38,19.07c1.41,1.25,16.13,33.1,6.52,54.92C446.78,97,434,105.79,434,105.79S453.73,86,439.28,56.38c0,0-24.39,8-24.9,42,0,0-6.83-18.64-1.61-36.69S429.57,30.21,450.38,19.07Z"/><path class="cf68dc4c-5b12-4c4a-859b-b891c0a38252" d="M548.13,66.89c.91,1.63,4.17,36.4-12,53.89-17.06,18.42-31.91,22.64-31.91,22.64s25-12.33,21.23-44.91c0,0-25.46-.3-37.18,31.63,0,0-.24-19.78,10.6-35.12S525,70.69,548.13,66.89Z"/><path class="cf68dc4c-5b12-4c4a-859b-b891c0a38252" d="M622.58,142.22c.4,1.82-6.42,36.14-27,48.21-21.65,12.72-37.11,12.46-37.11,12.46S586,198.31,591.73,166c0,0-24.35-7.68-44.74,19.55,0,0,5.43-19,20.23-30.62S599.27,139.16,622.58,142.22Z"/><path class="cf68dc4c-5b12-4c4a-859b-b891c0a38252" d="M670,235.93c-.17,1.83-17.08,32.14-40.28,37.6-24.43,5.75-39,1.07-39,1.07s27.51,3.58,42.8-25.19c0,0-20.8-14.21-48.44,5.55,0,0,10.95-16.35,28.52-23S648.79,226.36,670,235.93Z"/><path class="cf68dc4c-5b12-4c4a-859b-b891c0a38252" d="M687.83,341.87c-.75,1.7-26.44,25.33-50.17,23-25-2.41-37.34-11.66-37.34-11.66s24.94,12.38,48.6-10.3c0,0-15.18-20.41-47.69-10.4,0,0,15.59-12.15,34.37-12.82S670.78,325.79,687.83,341.87Z"/><polygon class="ef08b2f7-edd4-488f-b594-c73e24c33840" points="189.53 251.6 189.53 419.39 296.29 463.49 296.29 439.55 212.15 405.66 212.15 284.02 318.31 329.38 318.31 448.42 318.25 448.39 318.25 472.56 340.93 481.93 340.93 313.2 189.53 251.6"/><polygon class="8aa92b5d-ed53-4faa-8ab7-8948405a6c2a" points="502.13 251.64 502.13 419.44 395.37 463.54 395.37 439.59 479.51 405.7 479.51 284.07 373.35 329.43 373.35 448.46 373.41 448.44 373.41 472.61 350.73 481.98 350.73 313.25 502.13 251.64"/><circle class="ef08b2f7-edd4-488f-b594-c73e24c33840" cx="277.43" cy="239.7" r="27.18"/><circle class="8aa92b5d-ed53-4faa-8ab7-8948405a6c2a" cx="412.77" cy="239.7" r="27.18"/></g><g id="537c3d12-0a6a-4d90-a9ea-1edcc520363a" data-name="Layer 4"><line class="1ce4672f-a56d-42b7-8cd3-b71c3c5c943c" x1="584.79" y1="456.93" x2="2401.56" y2="456.93"/><path class="6d8868d6-9a95-4e00-b5bf-5a2bf8096a4d" d="M487.83,520.89H461.47v19h22a6.12,6.12,0,0,1,4.57,1.55,5.67,5.67,0,0,1,1.51,4.13,5.53,5.53,0,0,1-1.53,4.11,6.2,6.2,0,0,1-4.55,1.52h-22v24.5q0,4.67-1.87,6.93a6.25,6.25,0,0,1-9.64,0q-1.87-2.28-1.87-6.9V518.51a13.93,13.93,0,0,1,.86-5.3,5.69,5.69,0,0,1,2.68-3,10.17,10.17,0,0,1,4.66-.94h31.54a6.36,6.36,0,0,1,4.75,1.6,5.75,5.75,0,0,1,1.55,4.19,5.81,5.81,0,0,1-1.55,4.24A6.36,6.36,0,0,1,487.83,520.89Z"/><path class="6d8868d6-9a95-4e00-b5bf-5a2bf8096a4d" d="M545.77,556.76a36.48,36.48,0,0,1-1.71,11.42,25.88,25.88,0,0,1-5,9,21.87,21.87,0,0,1-7.75,5.76,24.69,24.69,0,0,1-10.14,2,24,24,0,0,1-10-2,22.33,22.33,0,0,1-7.73-5.81,25.75,25.75,0,0,1-5-8.93,36.4,36.4,0,0,1-1.69-11.39,36.81,36.81,0,0,1,1.71-11.52,25.73,25.73,0,0,1,4.91-8.93,21.62,21.62,0,0,1,7.75-5.71,26.26,26.26,0,0,1,20.19,0,22,22,0,0,1,7.79,5.78,25.66,25.66,0,0,1,4.93,8.93A36.62,36.62,0,0,1,545.77,556.76Zm-12.35,0q0-8.47-3.31-13.19a10.34,10.34,0,0,0-8.9-4.72,10.16,10.16,0,0,0-6.35,2.11,13.25,13.25,0,0,0-4.24,6.21,31.56,31.56,0,0,0,0,19.08,13.52,13.52,0,0,0,4.19,6.21,10,10,0,0,0,6.42,2.16,10.33,10.33,0,0,0,8.9-4.74Q533.43,565.13,533.43,556.76Z"/><path class="6d8868d6-9a95-4e00-b5bf-5a2bf8096a4d" d="M595.06,566.81a18.58,18.58,0,0,1-2.48,9.82,15.5,15.5,0,0,1-7.32,6.19,29.51,29.51,0,0,1-11.78,2.11,25.91,25.91,0,0,1-11.35-2.28,16.83,16.83,0,0,1-7-5.71,12.42,12.42,0,0,1-2.25-6.87,5.68,5.68,0,0,1,1.44-3.91,4.67,4.67,0,0,1,3.65-1.62,4,4,0,0,1,3,1.07,11.67,11.67,0,0,1,2,3,14.63,14.63,0,0,0,4.53,5.53,12.44,12.44,0,0,0,7.19,1.83,9.53,9.53,0,0,0,6.06-1.85,5.33,5.33,0,0,0,2.37-4.24,6,6,0,0,0-2.46-5.33,28.27,28.27,0,0,0-8.09-3.2,61.78,61.78,0,0,1-10.34-3.73,17.26,17.26,0,0,1-6.38-5.15,12.76,12.76,0,0,1-2.39-7.86,15.11,15.11,0,0,1,2.21-7.86,15.67,15.67,0,0,1,6.51-5.91,22.53,22.53,0,0,1,10.39-2.21,30.5,30.5,0,0,1,8.58,1.12,20.21,20.21,0,0,1,6.35,3,14,14,0,0,1,3.88,4.16,8.86,8.86,0,0,1,1.33,4.46,5.5,5.5,0,0,1-1.42,3.91,5.24,5.24,0,0,1-4,1.52,4.6,4.6,0,0,1-3.22-1.22,23,23,0,0,1-3-3.65,11.66,11.66,0,0,0-3.29-3.25,9.41,9.41,0,0,0-5.14-1.22A9.21,9.21,0,0,0,567,539a4.76,4.76,0,0,0-2.21,4,4.5,4.5,0,0,0,1.62,3.58,12.87,12.87,0,0,0,4.37,2.31q2.75.91,7.57,2.23a37.64,37.64,0,0,1,9.35,3.75,16.18,16.18,0,0,1,5.5,5.15A12.44,12.44,0,0,1,595.06,566.81Z"/><path class="6d8868d6-9a95-4e00-b5bf-5a2bf8096a4d" d="M606.15,529.82h1.35V521.5q0-3.35.16-5.25a8.47,8.47,0,0,1,.88-3.27,5.94,5.94,0,0,1,2.07-2.31,5.39,5.39,0,0,1,3-.89,5.75,5.75,0,0,1,4.24,2,6.09,6.09,0,0,1,1.6,3.22,32.9,32.9,0,0,1,.34,5.4v9.44h4.51a5.35,5.35,0,0,1,4,1.4,4.89,4.89,0,0,1,1.37,3.58,4.11,4.11,0,0,1-2,3.91,11.49,11.49,0,0,1-5.61,1.12h-2.3v25.47a46.62,46.62,0,0,0,.2,5,5.42,5.42,0,0,0,1.08,2.84,3.46,3.46,0,0,0,2.86,1.09,13.66,13.66,0,0,0,2.93-.43,13.61,13.61,0,0,1,2.88-.43,3.53,3.53,0,0,1,2.68,1.34,4.83,4.83,0,0,1,1.19,3.32,5.57,5.57,0,0,1-3.24,5.12q-3.24,1.78-9.33,1.78-5.77,0-8.74-2.18a10.14,10.14,0,0,1-3.9-6,45.93,45.93,0,0,1-.92-10.3V539.82h-1.62a5.43,5.43,0,0,1-4.06-1.42,4.92,4.92,0,0,1-1.4-3.6,4.72,4.72,0,0,1,1.46-3.58A5.94,5.94,0,0,1,606.15,529.82Z"/><path class="6d8868d6-9a95-4e00-b5bf-5a2bf8096a4d" d="M672.47,560.16H648.41a20.3,20.3,0,0,0,1.69,8.32,12.62,12.62,0,0,0,4.37,5.43,10.58,10.58,0,0,0,6,1.83,13.17,13.17,0,0,0,4-.58,12.48,12.48,0,0,0,3.54-1.83,27.58,27.58,0,0,0,3.15-2.66q1.44-1.42,3.74-3.86a3.74,3.74,0,0,1,2.7-.91,4.15,4.15,0,0,1,3.06,1.17,4.45,4.45,0,0,1,1.17,3.3,9.81,9.81,0,0,1-1.31,4.39,16.85,16.85,0,0,1-3.94,4.82A21.68,21.68,0,0,1,670,583.4a25.6,25.6,0,0,1-9.17,1.52q-11.85,0-18.43-7.61t-6.58-20.65a38.42,38.42,0,0,1,1.62-11.39,26,26,0,0,1,4.73-9,20.56,20.56,0,0,1,7.66-5.76,24.77,24.77,0,0,1,10.09-2,21.86,21.86,0,0,1,12.37,3.42,21.53,21.53,0,0,1,7.73,8.85,25.62,25.62,0,0,1,2.57,11.06q0,5.23-2.66,6.77A15,15,0,0,1,672.47,560.16Zm-24.06-7.86h22.3q-.45-7.1-3.4-10.63a9.64,9.64,0,0,0-7.77-3.53,9.35,9.35,0,0,0-7.55,3.58Q649,545.3,648.41,552.3Z"/><path class="6d8868d6-9a95-4e00-b5bf-5a2bf8096a4d" d="M705.18,564.93V576.5q0,4.21-1.76,6.32a5.56,5.56,0,0,1-4.46,2.11,5.36,5.36,0,0,1-4.37-2.13q-1.71-2.13-1.71-6.29V537.94q0-9.33,6-9.33a4.8,4.8,0,0,1,4.42,2.18,13.2,13.2,0,0,1,1.49,6.44,24,24,0,0,1,4.53-6.44,8.68,8.68,0,0,1,6.2-2.18,14.49,14.49,0,0,1,7.52,2.18q3.65,2.18,3.65,5.78a5.86,5.86,0,0,1-1.55,4.19,4.58,4.58,0,0,1-3.36,1.65,14,14,0,0,1-3.27-.94,13.68,13.68,0,0,0-4.57-.94,6.21,6.21,0,0,0-4.42,1.6,10.47,10.47,0,0,0-2.66,4.74,36.81,36.81,0,0,0-1.31,7.48Q705.18,558.69,705.18,564.93Z"/><path class="6d8868d6-9a95-4e00-b5bf-5a2bf8096a4d" d="M739.61,522.16a6.07,6.07,0,0,1-4.39-1.78,7.51,7.51,0,0,1,0-9.87,5.91,5.91,0,0,1,4.35-1.9,6,6,0,0,1,4.24,1.73,6.54,6.54,0,0,1,1.85,5,6.75,6.75,0,0,1-1.8,5A5.85,5.85,0,0,1,739.61,522.16Zm6.08,14.31v40q0,4.16-1.76,6.29a5.54,5.54,0,0,1-4.46,2.13,5.3,5.3,0,0,1-4.39-2.18,10,10,0,0,1-1.69-6.24V536.87q0-4.11,1.69-6.19a5.39,5.39,0,0,1,4.39-2.08,5.59,5.59,0,0,1,4.46,2.08A8.69,8.69,0,0,1,745.69,536.47Z"/><path class="6d8868d6-9a95-4e00-b5bf-5a2bf8096a4d" d="M769.57,536.26v1.67a22.58,22.58,0,0,1,7.1-7.08,17.2,17.2,0,0,1,8.85-2.26,16.12,16.12,0,0,1,8.7,2.38,14.55,14.55,0,0,1,5.72,6.75,17.52,17.52,0,0,1,1.58,5.48,63.87,63.87,0,0,1,.36,7.51V576.5q0,4.16-1.69,6.29a5.35,5.35,0,0,1-4.39,2.13,5.41,5.41,0,0,1-4.46-2.18,9.91,9.91,0,0,1-1.71-6.24V553.41q0-6.85-1.69-10.48t-6.74-3.63a9.25,9.25,0,0,0-6,2.21,12.69,12.69,0,0,0-4,6.06q-.9,3.1-.9,11.57V576.5q0,4.21-1.73,6.32a5.54,5.54,0,0,1-4.48,2.11,5.32,5.32,0,0,1-4.37-2.18A9.91,9.91,0,0,1,758,576.5v-40q0-4,1.53-5.91a5,5,0,0,1,4.19-2,5.2,5.2,0,0,1,2.93.86,6,6,0,0,1,2.1,2.59A10.11,10.11,0,0,1,769.57,536.26Z"/><path class="6d8868d6-9a95-4e00-b5bf-5a2bf8096a4d" d="M859.37,538.75V579a47.18,47.18,0,0,1-1.31,11.87,19.69,19.69,0,0,1-4.19,8.22,17.21,17.21,0,0,1-7.55,4.82,36.75,36.75,0,0,1-11.6,1.57,30.32,30.32,0,0,1-11.35-2,19.35,19.35,0,0,1-7.71-5.17,10,10,0,0,1-2.7-6.52,5.73,5.73,0,0,1,1.53-4.13,4.93,4.93,0,0,1,3.69-1.6,5.85,5.85,0,0,1,4.73,2.69q1,1.37,2.05,2.77a12.58,12.58,0,0,0,2.34,2.38,8.66,8.66,0,0,0,3.09,1.47,16.1,16.1,0,0,0,4.15.48,15.16,15.16,0,0,0,7.41-1.5,8.15,8.15,0,0,0,3.69-4.19,18.62,18.62,0,0,0,1.24-5.76q.18-3.07.27-9.87a21.32,21.32,0,0,1-6.56,6.8,16.3,16.3,0,0,1-8.85,2.33A17.19,17.19,0,0,1,821,580.1a22.37,22.37,0,0,1-7.1-9.94,40.67,40.67,0,0,1-2.48-14.76,39.08,39.08,0,0,1,1.51-11.26,24.5,24.5,0,0,1,4.3-8.47,18.65,18.65,0,0,1,6.44-5.2,18.3,18.3,0,0,1,8-1.75,17.52,17.52,0,0,1,9.06,2.26,23.1,23.1,0,0,1,7.12,7.08v-1.88a8.75,8.75,0,0,1,1.58-5.58,5,5,0,0,1,4.06-2q3.56,0,4.73,2.61A19.06,19.06,0,0,1,859.37,538.75Zm-35.64,17.55q0,8.42,3.27,12.73a10.26,10.26,0,0,0,14.24,2.46,13.17,13.17,0,0,0,4.44-5.58,21.62,21.62,0,0,0,1.71-9.06q0-8.47-3.31-13.19a10.19,10.19,0,0,0-8.72-4.72,9.85,9.85,0,0,0-8.45,4.52Q823.73,548,823.73,556.31Z"/><path class="6d8868d6-9a95-4e00-b5bf-5a2bf8096a4d" d="M926,577.11a37.46,37.46,0,0,1-8.63,5.86,21.78,21.78,0,0,1-9.35,2,16.1,16.1,0,0,1-8.31-2.11,14.45,14.45,0,0,1-5.52-5.71,16.23,16.23,0,0,1-1.94-7.81,15,15,0,0,1,3.2-9.69,15.6,15.6,0,0,1,8.79-5.38q1.17-.3,5.81-1.37t8-2q3.31-.89,7.19-2.16-.23-5.48-2-8T916,538.14q-4.69,0-7.05,1.47A12.2,12.2,0,0,0,904.9,544q-1.69,2.94-2.39,3.88t-3,.94a4.91,4.91,0,0,1-3.58-1.5,5.16,5.16,0,0,1-1.51-3.83,12.66,12.66,0,0,1,2.3-7.1,16.64,16.64,0,0,1,7.16-5.68A29.05,29.05,0,0,1,916,528.5q8.11,0,12.75,2.16a12.55,12.55,0,0,1,6.56,6.82q1.91,4.67,1.91,12.38,0,4.87,0,8.27t-.07,7.56a31.07,31.07,0,0,0,1.15,8.14,28.47,28.47,0,0,1,1.15,5.45,5.34,5.34,0,0,1-1.78,3.88,5.61,5.61,0,0,1-4,1.75,5.21,5.21,0,0,1-3.74-2A29.58,29.58,0,0,1,926,577.11Zm-.81-20a56.59,56.59,0,0,1-7.86,2.36q-5.16,1.24-7.14,1.83a9.43,9.43,0,0,0-3.78,2.28,6.2,6.2,0,0,0-1.8,4.74,7.44,7.44,0,0,0,2.12,5.35,7.33,7.33,0,0,0,5.54,2.21A13.12,13.12,0,0,0,919,574a11.28,11.28,0,0,0,4.53-4.64q1.67-3.15,1.67-10.35Z"/><path class="6d8868d6-9a95-4e00-b5bf-5a2bf8096a4d" d="M993.82,567.77a13.12,13.12,0,0,1-1.37,5.53,18.67,18.67,0,0,1-4.19,5.61,21,21,0,0,1-7.1,4.29,27,27,0,0,1-9.64,1.62q-11.4,0-17.8-7.48t-6.4-20.07a36.56,36.56,0,0,1,2.93-15.07,22.77,22.77,0,0,1,8.47-10.12,25.88,25.88,0,0,1,22-2,22.23,22.23,0,0,1,6.76,4.06,18.9,18.9,0,0,1,4.24,5.3,11.47,11.47,0,0,1,1.46,5.25,5.88,5.88,0,0,1-1.64,4.21,5.31,5.31,0,0,1-4,1.72,3.72,3.72,0,0,1-2.55-.89,13.63,13.63,0,0,1-2.28-2.87,20.28,20.28,0,0,0-4.71-5.78,9.8,9.8,0,0,0-6.24-1.93A10.24,10.24,0,0,0,963,544q-3.34,4.79-3.33,13.12a28.3,28.3,0,0,0,.86,7.18,17.16,17.16,0,0,0,2.48,5.58,10.92,10.92,0,0,0,3.92,3.5,10.79,10.79,0,0,0,5,1.19,10.43,10.43,0,0,0,6.33-1.93,16.33,16.33,0,0,0,4.66-5.88,13.5,13.5,0,0,1,2.43-3.65,4.33,4.33,0,0,1,3.2-1.32,4.54,4.54,0,0,1,3.74,1.93A6.61,6.61,0,0,1,993.82,567.77Z"/><path class="6d8868d6-9a95-4e00-b5bf-5a2bf8096a4d" d="M1035.63,577.11A37.46,37.46,0,0,1,1027,583a21.78,21.78,0,0,1-9.35,2,16.1,16.1,0,0,1-8.31-2.11,14.45,14.45,0,0,1-5.52-5.71,16.23,16.23,0,0,1-1.94-7.81,15,15,0,0,1,3.2-9.69,15.6,15.6,0,0,1,8.79-5.38q1.17-.3,5.81-1.37t8-2q3.31-.89,7.19-2.16-.23-5.48-2-8t-7.19-2.56q-4.69,0-7.05,1.47a12.2,12.2,0,0,0-4.06,4.41q-1.69,2.94-2.39,3.88t-3,.94a4.91,4.91,0,0,1-3.58-1.5,5.16,5.16,0,0,1-1.51-3.83,12.66,12.66,0,0,1,2.3-7.1,16.64,16.64,0,0,1,7.16-5.68,29.05,29.05,0,0,1,12.12-2.23q8.11,0,12.75,2.16a12.55,12.55,0,0,1,6.56,6.82q1.91,4.67,1.91,12.38,0,4.87,0,8.27t-.07,7.56a31.07,31.07,0,0,0,1.15,8.14,28.47,28.47,0,0,1,1.15,5.45,5.34,5.34,0,0,1-1.78,3.88,5.61,5.61,0,0,1-4,1.75,5.21,5.21,0,0,1-3.74-2A29.58,29.58,0,0,1,1035.63,577.11Zm-.81-20a56.59,56.59,0,0,1-7.86,2.36q-5.16,1.24-7.14,1.83a9.43,9.43,0,0,0-3.78,2.28,6.2,6.2,0,0,0-1.8,4.74,7.44,7.44,0,0,0,2.12,5.35,7.33,7.33,0,0,0,5.54,2.21,13.12,13.12,0,0,0,6.74-1.8,11.28,11.28,0,0,0,4.53-4.64q1.67-3.15,1.67-10.35Z"/><path class="6d8868d6-9a95-4e00-b5bf-5a2bf8096a4d" d="M1093.08,577v-1.37a33.19,33.19,0,0,1-4.89,5.2,17.16,17.16,0,0,1-11.38,4.08,16.47,16.47,0,0,1-8.18-2.11,19.75,19.75,0,0,1-6.51-6,28.79,28.79,0,0,1-4.17-9.18,43.84,43.84,0,0,1-1.42-11.42q0-13,5.63-20.24a19.35,19.35,0,0,1,23.79-5.2,25.66,25.66,0,0,1,7.12,6.32V516.63q0-4.26,1.51-6.44a4.92,4.92,0,0,1,4.3-2.18,5.07,5.07,0,0,1,4.3,2,9.74,9.74,0,0,1,1.51,5.91V577q0,4-1.62,5.94a5.17,5.17,0,0,1-4.19,2,5.12,5.12,0,0,1-4.17-2.05A9.18,9.18,0,0,1,1093.08,577Zm-24.2-20.34a26.27,26.27,0,0,0,1.55,9.59,13.17,13.17,0,0,0,4.26,6,9.7,9.7,0,0,0,5.9,2,10,10,0,0,0,5.93-1.9,12.84,12.84,0,0,0,4.28-5.83,26.2,26.2,0,0,0,1.6-9.82,25.51,25.51,0,0,0-1.6-9.51,14.12,14.12,0,0,0-4.33-6.09,9.56,9.56,0,0,0-6-2.11,9.32,9.32,0,0,0-6,2.16,13.8,13.8,0,0,0-4.12,6.19A27.39,27.39,0,0,0,1068.88,556.66Z"/><path class="6d8868d6-9a95-4e00-b5bf-5a2bf8096a4d" d="M1151.38,560.16h-24.06a20.3,20.3,0,0,0,1.69,8.32,12.62,12.62,0,0,0,4.37,5.43,10.58,10.58,0,0,0,6,1.83,13.17,13.17,0,0,0,4-.58,12.48,12.48,0,0,0,3.54-1.83,27.58,27.58,0,0,0,3.15-2.66q1.44-1.42,3.74-3.86a3.74,3.74,0,0,1,2.7-.91,4.15,4.15,0,0,1,3.06,1.17,4.45,4.45,0,0,1,1.17,3.3,9.81,9.81,0,0,1-1.31,4.39,16.85,16.85,0,0,1-3.94,4.82,21.68,21.68,0,0,1-6.62,3.83,25.6,25.6,0,0,1-9.17,1.52q-11.85,0-18.43-7.61t-6.58-20.65a38.42,38.42,0,0,1,1.62-11.39,26,26,0,0,1,4.73-9,20.56,20.56,0,0,1,7.66-5.76,24.77,24.77,0,0,1,10.09-2,21.86,21.86,0,0,1,12.37,3.42,21.53,21.53,0,0,1,7.73,8.85,25.62,25.62,0,0,1,2.57,11.06q0,5.23-2.66,6.77A15,15,0,0,1,1151.38,560.16Zm-24.06-7.86h22.3q-.45-7.1-3.4-10.63a9.64,9.64,0,0,0-7.77-3.53,9.35,9.35,0,0,0-7.55,3.58Q1128,545.3,1127.32,552.3Z"/><path class="6d8868d6-9a95-4e00-b5bf-5a2bf8096a4d" d="M1212.8,557.78v18.42q0,4.36-1.76,6.54a5.67,5.67,0,0,1-4.64,2.18,5.51,5.51,0,0,1-4.53-2.18q-1.74-2.18-1.73-6.54V554.12a80,80,0,0,0-.32-8.12,9.42,9.42,0,0,0-1.71-4.74,5.17,5.17,0,0,0-4.42-1.85q-6,0-8,4.67t-1.92,13.39v18.72q0,4.31-1.73,6.52a5.53,5.53,0,0,1-4.57,2.21,5.61,5.61,0,0,1-4.57-2.21q-1.78-2.21-1.78-6.52V536.57a9.43,9.43,0,0,1,1.6-5.94,5.1,5.1,0,0,1,4.21-2,5.4,5.4,0,0,1,4.21,1.9,7.63,7.63,0,0,1,1.69,5.25v1.32a22.13,22.13,0,0,1,6.85-6.34,16.41,16.41,0,0,1,8.11-2,14.77,14.77,0,0,1,8,2.08,15.52,15.52,0,0,1,5.5,6.29,22.19,22.19,0,0,1,6.67-6.32,15.49,15.49,0,0,1,7.89-2.06,16.35,16.35,0,0,1,8.7,2.23,13.63,13.63,0,0,1,5.45,6.39q1.58,3.76,1.58,11.82v27q0,4.36-1.76,6.54a5.93,5.93,0,0,1-9.21,0q-1.78-2.21-1.78-6.52V552.91a60,60,0,0,0-.34-7.15,8.7,8.7,0,0,0-1.82-4.52,5.47,5.47,0,0,0-4.51-1.83,7.62,7.62,0,0,0-4.62,1.62,10.73,10.73,0,0,0-3.4,4.36Q1212.8,548.9,1212.8,557.78Z"/><path class="6d8868d6-9a95-4e00-b5bf-5a2bf8096a4d" d="M1259.75,522.16a6.07,6.07,0,0,1-4.39-1.78,7.51,7.51,0,0,1,0-9.87,5.91,5.91,0,0,1,4.35-1.9,6,6,0,0,1,4.24,1.73,6.54,6.54,0,0,1,1.85,5,6.75,6.75,0,0,1-1.8,5A5.85,5.85,0,0,1,1259.75,522.16Zm6.08,14.31v40q0,4.16-1.76,6.29a5.54,5.54,0,0,1-4.46,2.13,5.3,5.3,0,0,1-4.39-2.18,10,10,0,0,1-1.69-6.24V536.87q0-4.11,1.69-6.19a5.39,5.39,0,0,1,4.39-2.08,5.59,5.59,0,0,1,4.46,2.08A8.69,8.69,0,0,1,1265.83,536.47Z"/><path class="6d8868d6-9a95-4e00-b5bf-5a2bf8096a4d" d="M1322.65,567.77a13.12,13.12,0,0,1-1.37,5.53,18.67,18.67,0,0,1-4.19,5.61,21,21,0,0,1-7.1,4.29,27,27,0,0,1-9.64,1.62q-11.4,0-17.8-7.48t-6.4-20.07a36.56,36.56,0,0,1,2.93-15.07,22.77,22.77,0,0,1,8.47-10.12,25.88,25.88,0,0,1,22-2,22.23,22.23,0,0,1,6.76,4.06,18.9,18.9,0,0,1,4.24,5.3,11.47,11.47,0,0,1,1.46,5.25,5.88,5.88,0,0,1-1.64,4.21,5.31,5.31,0,0,1-4,1.72,3.72,3.72,0,0,1-2.55-.89,13.63,13.63,0,0,1-2.28-2.87,20.28,20.28,0,0,0-4.71-5.78,9.8,9.8,0,0,0-6.24-1.93,10.24,10.24,0,0,0-8.79,4.79q-3.34,4.79-3.33,13.12a28.3,28.3,0,0,0,.86,7.18,17.16,17.16,0,0,0,2.48,5.58,10.92,10.92,0,0,0,3.92,3.5,10.79,10.79,0,0,0,5,1.19,10.43,10.43,0,0,0,6.33-1.93,16.33,16.33,0,0,0,4.66-5.88,13.5,13.5,0,0,1,2.43-3.65,4.33,4.33,0,0,1,3.2-1.32,4.54,4.54,0,0,1,3.74,1.93A6.61,6.61,0,0,1,1322.65,567.77Z"/><path class="6d8868d6-9a95-4e00-b5bf-5a2bf8096a4d" d="M1390.77,560.16h-24.06a20.3,20.3,0,0,0,1.69,8.32,12.62,12.62,0,0,0,4.37,5.43,10.58,10.58,0,0,0,6,1.83,13.17,13.17,0,0,0,4-.58,12.48,12.48,0,0,0,3.54-1.83,27.58,27.58,0,0,0,3.15-2.66q1.44-1.42,3.74-3.86a3.74,3.74,0,0,1,2.7-.91,4.15,4.15,0,0,1,3.06,1.17,4.45,4.45,0,0,1,1.17,3.3,9.81,9.81,0,0,1-1.31,4.39,16.85,16.85,0,0,1-3.94,4.82,21.68,21.68,0,0,1-6.62,3.83,25.6,25.6,0,0,1-9.17,1.52q-11.85,0-18.43-7.61t-6.58-20.65a38.42,38.42,0,0,1,1.62-11.39,26,26,0,0,1,4.73-9,20.56,20.56,0,0,1,7.66-5.76,24.77,24.77,0,0,1,10.09-2,21.86,21.86,0,0,1,12.37,3.42,21.53,21.53,0,0,1,7.73,8.85,25.62,25.62,0,0,1,2.57,11.06q0,5.23-2.66,6.77A15,15,0,0,1,1390.77,560.16Zm-24.06-7.86H1389q-.45-7.1-3.4-10.63a9.64,9.64,0,0,0-7.77-3.53,9.35,9.35,0,0,0-7.55,3.58Q1367.34,545.3,1366.71,552.3Z"/><path class="6d8868d6-9a95-4e00-b5bf-5a2bf8096a4d" d="M1436.73,579.19l-8.92-14.76-9.15,14.76a25.44,25.44,0,0,1-3.36,4.41,4.84,4.84,0,0,1-3.49,1.32,5.43,5.43,0,0,1-4-1.65,5.2,5.2,0,0,1-1.64-3.78q0-2.18,2.52-6.24l11.13-18-9.87-15q-2.57-3.7-2.57-6.44a5.13,5.13,0,0,1,1.53-3.7,5.35,5.35,0,0,1,4-1.57,5,5,0,0,1,3.58,1.37,25,25,0,0,1,3.31,4.31l8,12.28,7.75-12.28a23.18,23.18,0,0,1,3.36-4.36,5,5,0,0,1,3.54-1.32,5.57,5.57,0,0,1,4,1.55,5,5,0,0,1,1.6,3.73,7.26,7.26,0,0,1-.65,3,23.45,23.45,0,0,1-2,3.42l-9.87,15,11.13,18q2.61,4.21,2.61,6.34a5,5,0,0,1-1.62,3.75,5.54,5.54,0,0,1-4,1.57,5,5,0,0,1-3.58-1.37A22.88,22.88,0,0,1,1436.73,579.19Z"/><path class="6d8868d6-9a95-4e00-b5bf-5a2bf8096a4d" d="M1499.94,567.77a13.12,13.12,0,0,1-1.37,5.53,18.67,18.67,0,0,1-4.19,5.61,21,21,0,0,1-7.1,4.29,27,27,0,0,1-9.64,1.62q-11.4,0-17.8-7.48t-6.4-20.07a36.56,36.56,0,0,1,2.93-15.07,22.77,22.77,0,0,1,8.47-10.12,25.88,25.88,0,0,1,22-2,22.23,22.23,0,0,1,6.76,4.06,18.9,18.9,0,0,1,4.24,5.3,11.47,11.47,0,0,1,1.46,5.25,5.88,5.88,0,0,1-1.64,4.21,5.31,5.31,0,0,1-4,1.72,3.72,3.72,0,0,1-2.55-.89,13.63,13.63,0,0,1-2.28-2.87,20.28,20.28,0,0,0-4.71-5.78,9.8,9.8,0,0,0-6.24-1.93,10.24,10.24,0,0,0-8.79,4.79q-3.34,4.79-3.33,13.12a28.3,28.3,0,0,0,.86,7.18,17.16,17.16,0,0,0,2.48,5.58,10.92,10.92,0,0,0,3.92,3.5,10.79,10.79,0,0,0,5,1.19,10.43,10.43,0,0,0,6.33-1.93,16.33,16.33,0,0,0,4.66-5.88,13.5,13.5,0,0,1,2.43-3.65,4.33,4.33,0,0,1,3.2-1.32,4.54,4.54,0,0,1,3.74,1.93A6.61,6.61,0,0,1,1499.94,567.77Z"/><path class="6d8868d6-9a95-4e00-b5bf-5a2bf8096a4d" d="M1545,560.16h-24.06a20.3,20.3,0,0,0,1.69,8.32,12.62,12.62,0,0,0,4.37,5.43,10.58,10.58,0,0,0,6,1.83,13.17,13.17,0,0,0,4-.58,12.48,12.48,0,0,0,3.54-1.83,27.58,27.58,0,0,0,3.15-2.66q1.44-1.42,3.74-3.86a3.74,3.74,0,0,1,2.7-.91,4.15,4.15,0,0,1,3.06,1.17,4.45,4.45,0,0,1,1.17,3.3,9.81,9.81,0,0,1-1.31,4.39,16.85,16.85,0,0,1-3.94,4.82,21.68,21.68,0,0,1-6.62,3.83,25.6,25.6,0,0,1-9.17,1.52q-11.85,0-18.43-7.61t-6.58-20.65a38.42,38.42,0,0,1,1.62-11.39,26,26,0,0,1,4.73-9,20.56,20.56,0,0,1,7.66-5.76,24.77,24.77,0,0,1,10.09-2,21.86,21.86,0,0,1,12.37,3.42,21.53,21.53,0,0,1,7.73,8.85,25.62,25.62,0,0,1,2.57,11.06q0,5.23-2.66,6.77A15,15,0,0,1,1545,560.16Zm-24.06-7.86h22.3q-.45-7.1-3.4-10.63a9.64,9.64,0,0,0-7.77-3.53,9.35,9.35,0,0,0-7.55,3.58Q1521.57,545.3,1520.94,552.3Z"/><path class="6d8868d6-9a95-4e00-b5bf-5a2bf8096a4d" d="M1565.5,576.5V516.43q0-4.16,1.64-6.29a5.31,5.31,0,0,1,4.44-2.13,5.53,5.53,0,0,1,4.51,2.11q1.71,2.11,1.71,6.32V576.5q0,4.21-1.73,6.32a5.54,5.54,0,0,1-4.48,2.11,5.3,5.3,0,0,1-4.39-2.18A10,10,0,0,1,1565.5,576.5Z"/><path class="6d8868d6-9a95-4e00-b5bf-5a2bf8096a4d" d="M1590.51,576.5V516.43q0-4.16,1.64-6.29a5.31,5.31,0,0,1,4.44-2.13,5.53,5.53,0,0,1,4.51,2.11q1.71,2.11,1.71,6.32V576.5q0,4.21-1.73,6.32a5.54,5.54,0,0,1-4.48,2.11,5.3,5.3,0,0,1-4.39-2.18A10,10,0,0,1,1590.51,576.5Z"/><path class="6d8868d6-9a95-4e00-b5bf-5a2bf8096a4d" d="M1649.85,560.16h-24.06a20.3,20.3,0,0,0,1.69,8.32,12.62,12.62,0,0,0,4.37,5.43,10.58,10.58,0,0,0,6,1.83,13.17,13.17,0,0,0,4-.58,12.48,12.48,0,0,0,3.54-1.83,27.58,27.58,0,0,0,3.15-2.66q1.44-1.42,3.74-3.86a3.74,3.74,0,0,1,2.7-.91,4.15,4.15,0,0,1,3.06,1.17,4.45,4.45,0,0,1,1.17,3.3,9.81,9.81,0,0,1-1.31,4.39,16.85,16.85,0,0,1-3.94,4.82,21.68,21.68,0,0,1-6.62,3.83,25.6,25.6,0,0,1-9.17,1.52q-11.85,0-18.43-7.61t-6.58-20.65a38.42,38.42,0,0,1,1.62-11.39,26,26,0,0,1,4.73-9,20.56,20.56,0,0,1,7.66-5.76,24.77,24.77,0,0,1,10.09-2,21.86,21.86,0,0,1,12.37,3.42,21.53,21.53,0,0,1,7.73,8.85,25.62,25.62,0,0,1,2.57,11.06q0,5.23-2.66,6.77A15,15,0,0,1,1649.85,560.16Zm-24.06-7.86h22.3q-.45-7.1-3.4-10.63a9.64,9.64,0,0,0-7.77-3.53,9.35,9.35,0,0,0-7.55,3.58Q1626.42,545.3,1625.79,552.3Z"/><path class="6d8868d6-9a95-4e00-b5bf-5a2bf8096a4d" d="M1681.53,536.26v1.67a22.58,22.58,0,0,1,7.1-7.08,17.2,17.2,0,0,1,8.85-2.26,16.12,16.12,0,0,1,8.7,2.38,14.55,14.55,0,0,1,5.72,6.75,17.52,17.52,0,0,1,1.58,5.48,63.87,63.87,0,0,1,.36,7.51V576.5q0,4.16-1.69,6.29a5.35,5.35,0,0,1-4.39,2.13,5.41,5.41,0,0,1-4.46-2.18,9.91,9.91,0,0,1-1.71-6.24V553.41q0-6.85-1.69-10.48t-6.74-3.63a9.25,9.25,0,0,0-6,2.21,12.69,12.69,0,0,0-4,6.06q-.9,3.1-.9,11.57V576.5q0,4.21-1.73,6.32a5.54,5.54,0,0,1-4.48,2.11,5.32,5.32,0,0,1-4.37-2.18,9.91,9.91,0,0,1-1.71-6.24v-40q0-4,1.53-5.91a5,5,0,0,1,4.19-2,5.2,5.2,0,0,1,2.93.86,6,6,0,0,1,2.1,2.59A10.11,10.11,0,0,1,1681.53,536.26Z"/><path class="6d8868d6-9a95-4e00-b5bf-5a2bf8096a4d" d="M1770.2,567.77a13.12,13.12,0,0,1-1.37,5.53,18.67,18.67,0,0,1-4.19,5.61,21,21,0,0,1-7.1,4.29,27,27,0,0,1-9.64,1.62q-11.4,0-17.8-7.48t-6.4-20.07a36.56,36.56,0,0,1,2.93-15.07,22.76,22.76,0,0,1,8.47-10.12,25.88,25.88,0,0,1,22-2,22.23,22.23,0,0,1,6.76,4.06,18.92,18.92,0,0,1,4.24,5.3,11.48,11.48,0,0,1,1.46,5.25,5.87,5.87,0,0,1-1.64,4.21,5.31,5.31,0,0,1-4,1.72,3.72,3.72,0,0,1-2.55-.89,13.63,13.63,0,0,1-2.28-2.87,20.27,20.27,0,0,0-4.71-5.78,9.8,9.8,0,0,0-6.24-1.93,10.24,10.24,0,0,0-8.79,4.79q-3.33,4.79-3.33,13.12a28.3,28.3,0,0,0,.86,7.18,17.18,17.18,0,0,0,2.48,5.58,10.93,10.93,0,0,0,3.92,3.5,10.79,10.79,0,0,0,5,1.19,10.42,10.42,0,0,0,6.33-1.93,16.33,16.33,0,0,0,4.66-5.88,13.5,13.5,0,0,1,2.43-3.65,4.33,4.33,0,0,1,3.2-1.32,4.55,4.55,0,0,1,3.74,1.93A6.61,6.61,0,0,1,1770.2,567.77Z"/><path class="6d8868d6-9a95-4e00-b5bf-5a2bf8096a4d" d="M1815.25,560.16h-24.06a20.3,20.3,0,0,0,1.69,8.32,12.62,12.62,0,0,0,4.37,5.43,10.57,10.57,0,0,0,6,1.83,13.18,13.18,0,0,0,4-.58,12.48,12.48,0,0,0,3.54-1.83,27.59,27.59,0,0,0,3.15-2.66q1.44-1.42,3.74-3.86a3.73,3.73,0,0,1,2.7-.91,4.15,4.15,0,0,1,3.06,1.17,4.45,4.45,0,0,1,1.17,3.3,9.81,9.81,0,0,1-1.31,4.39,16.86,16.86,0,0,1-3.94,4.82,21.68,21.68,0,0,1-6.62,3.83,25.6,25.6,0,0,1-9.17,1.52q-11.85,0-18.43-7.61t-6.58-20.65a38.43,38.43,0,0,1,1.62-11.39,26,26,0,0,1,4.73-9,20.55,20.55,0,0,1,7.66-5.76,24.77,24.77,0,0,1,10.09-2,21.86,21.86,0,0,1,12.37,3.42,21.53,21.53,0,0,1,7.73,8.85,25.61,25.61,0,0,1,2.57,11.06q0,5.23-2.66,6.77A15,15,0,0,1,1815.25,560.16Zm-24.06-7.86h22.3q-.45-7.1-3.4-10.63a9.64,9.64,0,0,0-7.77-3.53,9.35,9.35,0,0,0-7.55,3.58Q1791.82,545.3,1791.19,552.3Z"/><path class="6d8868d6-9a95-4e00-b5bf-5a2bf8096a4d" d="M1889.91,577.11a37.48,37.48,0,0,1-8.63,5.86,21.78,21.78,0,0,1-9.35,2,16.11,16.11,0,0,1-8.31-2.11,14.45,14.45,0,0,1-5.52-5.71,16.23,16.23,0,0,1-1.94-7.81,15,15,0,0,1,3.2-9.69,15.6,15.6,0,0,1,8.79-5.38q1.17-.3,5.81-1.37t8-2q3.31-.89,7.19-2.16-.23-5.48-2-8t-7.19-2.56q-4.69,0-7.05,1.47a12.2,12.2,0,0,0-4.06,4.41q-1.69,2.94-2.39,3.88t-3,.94a4.91,4.91,0,0,1-3.58-1.5,5.16,5.16,0,0,1-1.51-3.83,12.66,12.66,0,0,1,2.3-7.1,16.64,16.64,0,0,1,7.16-5.68A29,29,0,0,1,1880,528.5q8.11,0,12.75,2.16a12.55,12.55,0,0,1,6.56,6.82q1.91,4.67,1.92,12.38,0,4.87,0,8.27t-.07,7.56a31.09,31.09,0,0,0,1.15,8.14,28.5,28.5,0,0,1,1.15,5.45,5.34,5.34,0,0,1-1.78,3.88,5.61,5.61,0,0,1-4,1.75,5.21,5.21,0,0,1-3.74-2A29.63,29.63,0,0,1,1889.91,577.11Zm-.81-20a56.61,56.61,0,0,1-7.86,2.36q-5.16,1.24-7.14,1.83a9.43,9.43,0,0,0-3.78,2.28,6.2,6.2,0,0,0-1.8,4.74,7.44,7.44,0,0,0,2.12,5.35,7.33,7.33,0,0,0,5.54,2.21,13.13,13.13,0,0,0,6.74-1.8,11.27,11.27,0,0,0,4.53-4.64q1.67-3.15,1.67-10.35Z"/><path class="6d8868d6-9a95-4e00-b5bf-5a2bf8096a4d" d="M1924.83,536.26v1.67a22.58,22.58,0,0,1,7.1-7.08,17.19,17.19,0,0,1,8.85-2.26,16.12,16.12,0,0,1,8.7,2.38,14.55,14.55,0,0,1,5.72,6.75,17.52,17.52,0,0,1,1.58,5.48,63.87,63.87,0,0,1,.36,7.51V576.5q0,4.16-1.69,6.29a5.35,5.35,0,0,1-4.39,2.13,5.41,5.41,0,0,1-4.46-2.18,9.91,9.91,0,0,1-1.71-6.24V553.41q0-6.85-1.69-10.48t-6.74-3.63a9.25,9.25,0,0,0-6,2.21,12.69,12.69,0,0,0-4,6.06q-.9,3.1-.9,11.57V576.5q0,4.21-1.73,6.32a5.54,5.54,0,0,1-4.48,2.11,5.32,5.32,0,0,1-4.37-2.18,9.91,9.91,0,0,1-1.71-6.24v-40q0-4,1.53-5.91a5,5,0,0,1,4.19-2,5.2,5.2,0,0,1,2.93.86,6,6,0,0,1,2.09,2.59A10.1,10.1,0,0,1,1924.83,536.26Z"/><path class="6d8868d6-9a95-4e00-b5bf-5a2bf8096a4d" d="M2003.1,577v-1.37a33.19,33.19,0,0,1-4.89,5.2,17.16,17.16,0,0,1-11.38,4.08,16.47,16.47,0,0,1-8.18-2.11,19.74,19.74,0,0,1-6.51-6,28.78,28.78,0,0,1-4.17-9.18,43.82,43.82,0,0,1-1.42-11.42q0-13,5.63-20.24a19.35,19.35,0,0,1,23.79-5.2,25.66,25.66,0,0,1,7.12,6.32V516.63q0-4.26,1.51-6.44a4.92,4.92,0,0,1,4.3-2.18,5.07,5.07,0,0,1,4.3,2,9.74,9.74,0,0,1,1.51,5.91V577q0,4-1.62,5.94a5.17,5.17,0,0,1-4.19,2,5.12,5.12,0,0,1-4.17-2.05A9.18,9.18,0,0,1,2003.1,577Zm-24.2-20.34a26.25,26.25,0,0,0,1.55,9.59,13.17,13.17,0,0,0,4.26,6,9.7,9.7,0,0,0,5.9,2,10,10,0,0,0,5.92-1.9,12.84,12.84,0,0,0,4.28-5.83,26.19,26.19,0,0,0,1.6-9.82,25.5,25.5,0,0,0-1.6-9.51,14.13,14.13,0,0,0-4.33-6.09,9.56,9.56,0,0,0-6-2.11,9.32,9.32,0,0,0-6,2.16,13.8,13.8,0,0,0-4.12,6.19A27.37,27.37,0,0,0,1978.9,556.66Z"/><path class="6d8868d6-9a95-4e00-b5bf-5a2bf8096a4d" d="M2084.47,560.16h-24.06a20.3,20.3,0,0,0,1.69,8.32,12.62,12.62,0,0,0,4.37,5.43,10.57,10.57,0,0,0,6,1.83,13.18,13.18,0,0,0,4-.58,12.48,12.48,0,0,0,3.54-1.83,27.59,27.59,0,0,0,3.15-2.66q1.44-1.42,3.74-3.86a3.73,3.73,0,0,1,2.7-.91,4.15,4.15,0,0,1,3.06,1.17,4.45,4.45,0,0,1,1.17,3.3,9.81,9.81,0,0,1-1.31,4.39,16.86,16.86,0,0,1-3.94,4.82,21.68,21.68,0,0,1-6.62,3.83,25.6,25.6,0,0,1-9.17,1.52q-11.85,0-18.43-7.61t-6.58-20.65a38.43,38.43,0,0,1,1.62-11.39,26,26,0,0,1,4.73-9,20.55,20.55,0,0,1,7.66-5.76,24.77,24.77,0,0,1,10.09-2,21.86,21.86,0,0,1,12.37,3.42,21.53,21.53,0,0,1,7.73,8.85,25.61,25.61,0,0,1,2.57,11.06q0,5.23-2.66,6.77A15,15,0,0,1,2084.47,560.16Zm-24.06-7.86h22.3q-.45-7.1-3.4-10.63a9.64,9.64,0,0,0-7.77-3.53,9.35,9.35,0,0,0-7.55,3.58Q2061,545.3,2060.41,552.3Z"/><path class="6d8868d6-9a95-4e00-b5bf-5a2bf8096a4d" d="M2138.67,596.23V576.7a28,28,0,0,1-7.41,6.11,18,18,0,0,1-19-1.29,22.38,22.38,0,0,1-7.39-9.77,43.52,43.52,0,0,1,0-30.14,21.6,21.6,0,0,1,7.5-9.61,18.4,18.4,0,0,1,10.66-3.3A17.17,17.17,0,0,1,2132,531a19.32,19.32,0,0,1,6.71,7v-1.67a8.94,8.94,0,0,1,1.62-5.78,5.45,5.45,0,0,1,8.38,0q1.62,2,1.62,5.81v59.87q0,9.23-5.81,9.23-3.6,0-4.71-2.49A16.91,16.91,0,0,1,2138.67,596.23Zm-24.11-39.57a26,26,0,0,0,1.6,9.61,13.39,13.39,0,0,0,4.21,6,9.22,9.22,0,0,0,5.63,2,10.2,10.2,0,0,0,6-2,13.35,13.35,0,0,0,4.42-6,25.81,25.81,0,0,0,1.67-9.89,27,27,0,0,0-1-7.51,17,17,0,0,0-2.64-5.56,11.06,11.06,0,0,0-3.83-3.3,10.07,10.07,0,0,0-4.6-1.09q-5,0-8.25,4.62T2114.57,556.66Z"/><path class="6d8868d6-9a95-4e00-b5bf-5a2bf8096a4d" d="M2194.59,577.11v-1.78a29.49,29.49,0,0,1-4.64,5.28,16.55,16.55,0,0,1-5.32,3.17,19.35,19.35,0,0,1-6.58,1,15.48,15.48,0,0,1-8-2.08,14.29,14.29,0,0,1-5.47-5.73q-2.3-4.41-2.3-12.68V536.87q0-4.16,1.67-6.21a5.4,5.4,0,0,1,4.42-2.05,5.55,5.55,0,0,1,4.51,2.08q1.71,2.08,1.71,6.19V559a38.37,38.37,0,0,0,.72,8.09,10.07,10.07,0,0,0,2.59,5.13,6.89,6.89,0,0,0,5.07,1.85,9.54,9.54,0,0,0,5.86-2.08,11.92,11.92,0,0,0,4-5.43q1-2.94,1-12.89V536.87q0-4.11,1.71-6.19a5.5,5.5,0,0,1,4.46-2.08,5.4,5.4,0,0,1,4.42,2.05q1.67,2.05,1.67,6.21V577q0,4-1.6,5.94a5.06,5.06,0,0,1-4.12,2,5.12,5.12,0,0,1-4.17-2.05A9,9,0,0,1,2194.59,577.11Z"/><path class="6d8868d6-9a95-4e00-b5bf-5a2bf8096a4d" d="M2249.47,577.11a37.48,37.48,0,0,1-8.63,5.86,21.78,21.78,0,0,1-9.35,2,16.11,16.11,0,0,1-8.31-2.11,14.45,14.45,0,0,1-5.52-5.71,16.23,16.23,0,0,1-1.94-7.81,15,15,0,0,1,3.2-9.69,15.6,15.6,0,0,1,8.79-5.38q1.17-.3,5.81-1.37t8-2q3.31-.89,7.19-2.16-.23-5.48-2-8t-7.19-2.56q-4.69,0-7.05,1.47a12.2,12.2,0,0,0-4.06,4.41q-1.69,2.94-2.39,3.88t-3,.94a4.91,4.91,0,0,1-3.58-1.5,5.16,5.16,0,0,1-1.51-3.83,12.66,12.66,0,0,1,2.3-7.1,16.64,16.64,0,0,1,7.16-5.68,29,29,0,0,1,12.12-2.23q8.11,0,12.75,2.16a12.55,12.55,0,0,1,6.56,6.82q1.91,4.67,1.92,12.38,0,4.87,0,8.27t-.07,7.56a31.09,31.09,0,0,0,1.15,8.14,28.5,28.5,0,0,1,1.15,5.45,5.34,5.34,0,0,1-1.78,3.88,5.61,5.61,0,0,1-4,1.75,5.21,5.21,0,0,1-3.74-2A29.63,29.63,0,0,1,2249.47,577.11Zm-.81-20a56.61,56.61,0,0,1-7.86,2.36q-5.16,1.24-7.14,1.83a9.43,9.43,0,0,0-3.78,2.28,6.2,6.2,0,0,0-1.8,4.74,7.44,7.44,0,0,0,2.12,5.35,7.33,7.33,0,0,0,5.54,2.21,13.13,13.13,0,0,0,6.74-1.8,11.27,11.27,0,0,0,4.53-4.64q1.67-3.15,1.67-10.35Z"/><path class="6d8868d6-9a95-4e00-b5bf-5a2bf8096a4d" d="M2273.22,576.5V516.43q0-4.16,1.64-6.29a5.31,5.31,0,0,1,4.44-2.13,5.53,5.53,0,0,1,4.51,2.11q1.71,2.11,1.71,6.32V576.5q0,4.21-1.73,6.32a5.54,5.54,0,0,1-4.48,2.11,5.3,5.3,0,0,1-4.39-2.18A10,10,0,0,1,2273.22,576.5Z"/><path class="6d8868d6-9a95-4e00-b5bf-5a2bf8096a4d" d="M2304.44,522.16a6.07,6.07,0,0,1-4.39-1.78,7.51,7.51,0,0,1,0-9.87,5.91,5.91,0,0,1,4.35-1.9,6,6,0,0,1,4.24,1.73,6.54,6.54,0,0,1,1.85,5,6.75,6.75,0,0,1-1.8,5A5.85,5.85,0,0,1,2304.44,522.16Zm6.08,14.31v40q0,4.16-1.76,6.29a5.54,5.54,0,0,1-4.46,2.13,5.3,5.3,0,0,1-4.39-2.18,10,10,0,0,1-1.69-6.24V536.87q0-4.11,1.69-6.19a5.39,5.39,0,0,1,4.39-2.08,5.59,5.59,0,0,1,4.46,2.08A8.69,8.69,0,0,1,2310.52,536.47Z"/><path class="6d8868d6-9a95-4e00-b5bf-5a2bf8096a4d" d="M2323.9,529.82h1.35V521.5q0-3.35.16-5.25a8.48,8.48,0,0,1,.88-3.27,6,6,0,0,1,2.07-2.31,5.39,5.39,0,0,1,3-.89,5.75,5.75,0,0,1,4.24,2,6.1,6.1,0,0,1,1.6,3.22,33,33,0,0,1,.34,5.4v9.44h4.5a5.36,5.36,0,0,1,4,1.4,4.89,4.89,0,0,1,1.37,3.58,4.11,4.11,0,0,1-2,3.91,11.48,11.48,0,0,1-5.61,1.12h-2.3v25.47a46.64,46.64,0,0,0,.2,5,5.43,5.43,0,0,0,1.08,2.84,3.46,3.46,0,0,0,2.86,1.09,13.64,13.64,0,0,0,2.93-.43,13.61,13.61,0,0,1,2.88-.43,3.53,3.53,0,0,1,2.68,1.34,4.83,4.83,0,0,1,1.19,3.32,5.57,5.57,0,0,1-3.24,5.12q-3.24,1.78-9.33,1.78-5.77,0-8.74-2.18a10.13,10.13,0,0,1-3.9-6,45.89,45.89,0,0,1-.92-10.3V539.82h-1.62a5.44,5.44,0,0,1-4.06-1.42,4.93,4.93,0,0,1-1.4-3.6,4.72,4.72,0,0,1,1.46-3.58A5.94,5.94,0,0,1,2323.9,529.82Z"/><path class="6d8868d6-9a95-4e00-b5bf-5a2bf8096a4d" d="M2367.25,586.64l1.13-3.09-15.14-42.92a17.67,17.67,0,0,1-1.4-5.38,6.9,6.9,0,0,1,.81-3.3,6.44,6.44,0,0,1,2.23-2.43,5.37,5.37,0,0,1,3-.91,4.6,4.6,0,0,1,4,1.9,18.54,18.54,0,0,1,2.39,5.45l10.41,34.09,9.87-31.71a59.15,59.15,0,0,1,2.12-6,7,7,0,0,1,2-2.94,5.07,5.07,0,0,1,3-.76,4.84,4.84,0,0,1,2.68.84,5.58,5.58,0,0,1,2,2.26,6.71,6.71,0,0,1,.7,3q-.18,1-.59,2.74t-1,3.6l-16,47.29a58.69,58.69,0,0,1-4.06,9.79,14.1,14.1,0,0,1-5.25,5.45,17.47,17.47,0,0,1-8.81,1.9q-5.41,0-8.11-1.32a4.88,4.88,0,0,1-2.7-4.82,5,5,0,0,1,1.28-3.68,5.14,5.14,0,0,1,3.81-1.29,6.28,6.28,0,0,1,1.94.3,8.27,8.27,0,0,0,2,.3,6.62,6.62,0,0,0,3.33-.71,6.25,6.25,0,0,0,2.19-2.46A40,40,0,0,0,2367.25,586.64Z"/><path class="ef08b2f7-edd4-488f-b594-c73e24c33840" d="M877.38,365.07V348.83H891.9c12.78,0,21.42-3.46,21.42-9,0-1.73-.69-4.15-2.76-9.33l-18.66-46.3H800.34l-11.4,30.4a42.24,42.24,0,0,0-3.11,14.51q0,19.69,28,19.69h6.91v16.24H729.16V348.83H734c17.27,0,22.11-5.18,34.55-36.62L848,110.77h14.51l88.1,215.94c7.95,19.35,10,22.11,27.29,22.11h6.56v16.24ZM845.6,167.44l-38.35,98.12h77.39Z"/><path class="ef08b2f7-edd4-488f-b594-c73e24c33840" d="M1065.33,370.25c-42.84,0-72.21-33.86-72.21-82.92,0-51.48,32.13-88.45,77-88.45,30.75,0,53.9,18,53.9,41.12,0,13.82-9,23.49-21.08,23.49s-20.73-7.95-20.73-19.35c0-5.87,1.38-9.33,6.91-15.89,1.38-2.07,2.07-3.11,2.07-4.15,0-5.53-9-10.37-19.35-10.37-25.57,0-42.5,28-42.5,69.79,0,40.42,17.27,65.65,44.92,65.65,18,0,29.71-10,40.77-34.9l13.47,5.18C1113.7,356.08,1096.08,370.25,1065.33,370.25Z"/><path class="ef08b2f7-edd4-488f-b594-c73e24c33840" d="M1290.59,367.48c-16.24,0-24.88-6.91-30.4-24.53-14.86,17.62-36.28,27.3-60.12,27.3-30.4,0-50.1-15.89-50.1-40.42,0-33.86,28-50.79,108.49-64.61V251.74c0-30.4-14.17-38-37.31-38-16.58,0-30.75,6.22-30.75,13.47,0,1.73,7.6,12.44,7.6,18.66,0,10.37-7.95,17.62-18.66,17.62-12.09,0-20-8.29-20-21.42,0-24.88,28.68-43.19,67.37-43.19,39.73,0,64.26,10.71,64.26,54.94v69.45c0,17.27,3.46,23.84,13.13,23.84,2.07,0,10-3.8,14.86-3.8,1.73,0,3.46,1.73,3.46,4.15C1322.38,357.46,1306.14,367.48,1290.59,367.48Zm-32.13-87.41c-59.77,10-73.59,20.38-73.59,44.92,0,15.55,11.75,27,27.29,27,14.86,0,30.75-8.64,39.39-21.42,5.87-9,6.91-13.82,6.91-34.55Z"/><path class="ef08b2f7-edd4-488f-b594-c73e24c33840" d="M1458.16,367.48v-27.3c-11.06,20.73-25.91,30.06-47.68,30.06-40.08,0-68.76-34.9-68.76-84,0-49.75,29.71-87.41,68.76-87.41,20,0,34.9,7.95,47.68,25.57V146.36c0-14.86-2.42-17.28-14.86-17.28h-20.38V114.23l67.72-3.8V325c0,21.77,2.76,25.22,21.42,25.22h6.22v14.86Zm-6.91-123.69c-6.22-15.89-19.69-26.26-33.86-26.26s-26.95,10-32.82,25.22c-4.49,11.75-6.56,27.29-6.56,47.68,0,38.35,14.86,61.15,39,61.15,24.88,0,40.77-26.26,40.77-66.34C1457.81,268.67,1455.4,254.16,1451.25,243.79Z"/><path class="ef08b2f7-edd4-488f-b594-c73e24c33840" d="M1659.24,365.07V348.83h9.67c21.77,0,23.15-1,23.15-6.22,0-2.76-1.73-6.56-4.49-10.71L1636.09,259,1596,317c-3.46,5.18-5.53,10.71-5.53,15.2,0,10.36,8.64,16.58,22.46,16.58h8.64v16.24h-98.12V348.83h4.84c18,.34,28-8.64,41.81-27.64l56-77.74L1558,145c-7.95-11.4-12.09-13.13-29-13.13h-5.87V115.61h106.76v16.24h-13.13c-13.13,0-16.58,1-16.58,4.49,0,1.73,1.38,5.18,3.8,8.64l46,66.34,37.31-54.24c3.8-5.53,4.84-7.95,4.84-11.75,0-9.33-3.8-13.47-20.38-13.47h-8.29V115.61h95v16.24h-5.53c-18.31,0-28.33,6.56-47.33,32.48l-46,62.54,72.56,104c11.75,16.93,13.47,18,35.59,18h4.84v16.24Z"/><path class="cf68dc4c-5b12-4c4a-859b-b891c0a38252" d="M1932.16,276.27c-1.6-11.4-3.6-20-6.6-27.4-5-12-14.8-18.8-27-18.8-6.6,0-9.4,2.2-9.4,7.2v109c0,8.4,1.8,9.4,17.8,9.4h5.2v9.4h-68.6v-9.4h5.2c16.2,0,18-1,18-9.4v-109c0-5-2.8-7.2-9.4-7.2-13.6,0-23.2,7.6-28.4,22.2a127.34,127.34,0,0,0-5.4,24H1815l3-55.6h119.8l3,55.6Z"/><path class="cf68dc4c-5b12-4c4a-859b-b891c0a38252" d="M2023.36,298.47a10.61,10.61,0,0,1-11-11c0-3.8.8-5.8,3.6-9-8.4,1-15.2,7.2-20,18.4-5,11.4-7.8,26.6-7.8,41.6v10c0,8,2.2,9.4,15,9.4h3.8v7.2h-53.4v-7.2h2.8c13,0,13.2-1.4,13.2-9.4v-55.8c0-8.6-1.2-10-8.6-10h-8.2v-8.6l35.4-2.2v24.8c6.4-17.6,17.4-27.8,30-27.8,10.6,0,17.4,6.4,17.4,16C2035.56,293.07,2030.56,298.47,2023.36,298.47Z"/><path class="cf68dc4c-5b12-4c4a-859b-b891c0a38252" d="M2123.75,366.47v-16.6c-8.8,12.8-18,18.2-31.2,18.2-12,0-21.6-4.6-27-12.8-3-4.6-3.8-9.2-3.8-19.4v-43.2c0-8.6-1.2-10-8.6-10h-7.6v-8.6l35-2.2v61c0,11,.4,13,3,16.8,2.6,4,7.8,6.2,14,6.2a23.69,23.69,0,0,0,22-14c3-6.6,4.2-13.2,4.2-24.6v-24.6c0-8.6-1.2-10-8.6-10H2105v-8.6l37.6-2.2v70c0,12.8,1.6,14.6,12.6,14.6h5v8.6Z"/><path class="cf68dc4c-5b12-4c4a-859b-b891c0a38252" d="M2215.15,368.07a42.66,42.66,0,0,1-27.4-9.8l-7,8.2h-7v-37.8h8c4.8,20,16.8,30.8,33.6,30.8,11.8,0,20-6.6,20-16,0-8-5.6-12-21.4-15.8l-10.6-2.4c-12-2.8-16.6-4.8-21.2-9-4.4-4-7-10.6-7-18.4,0-17.4,11.6-29,29.2-29,10,0,17.2,2.4,24.4,8l5.8-7.2h7v33.6h-7c-3.2-9.2-5.4-13.2-9.8-17.6a26.58,26.58,0,0,0-19.4-8c-11,0-18.6,5.8-18.6,13.8a11.7,11.7,0,0,0,7,10.6c3.6,2,3.6,2,14.6,4.4l10,2.2c12.2,2.6,16.2,4.2,21,8.4,5.6,4.6,8.4,11.4,8.4,20.2C2247.75,355.87,2234.75,368.07,2215.15,368.07Z"/><path class="cf68dc4c-5b12-4c4a-859b-b891c0a38252" d="M2299.35,368.07c-11.8,0-19.4-4.6-22.8-13-2-4.6-2.4-9.4-2.4-23.6v-51h-16.4v-7.8c16.2-1.2,25-14.4,27-40.4h8.2v39.6h29.4v8.6H2293v54.6c0,15.8,2.6,20.8,11.8,20.8,9.8,0,15-9.2,15.6-27.2h8.4a42.06,42.06,0,0,1,.2,4.6C2328.95,352.27,2319.15,368.07,2299.35,368.07Z"/></g></g></svg>