<svg xmlns="http://www.w3.org/2000/svg" viewBox="0 0 1600.6 405.76"><defs><style>.\33 040d9d5-bd42-483e-9b95-e44c16d198fc{fill:#9b9b9b;stroke:#9b9b9b;stroke-miterlimit:10;stroke-width:8px;}.\30 769ccb1-a037-4b9d-b610-c64031d0d431{fill:#595959;}.\37 ce557dd-8a99-4962-a520-ea708fcc3001{fill:#124877;}.\38 4452822-d23b-49c7-895d-da51ffbc4fe2{fill:#b9af08;}</style></defs><title>logo-down</title><g id="5660f5d5-92e2-4c38-8ef5-edb433ac107b" data-name="Layer 2"><g id="6db6114a-9167-4f09-9699-2c95070a4949" data-name="Layer 4"><line class="3040d9d5-bd42-483e-9b95-e44c16d198fc" y1="294.02" x2="1596.16" y2="294.02"/><path class="0769ccb1-a037-4b9d-b610-c64031d0d431" d="M38.2,379.39H16.63V395h18a5,5,0,0,1,3.74,1.27,4.64,4.64,0,0,1,1.24,3.38A4.53,4.53,0,0,1,38.38,403a5.07,5.07,0,0,1-3.72,1.25h-18v20.05q0,3.82-1.53,5.67a4.87,4.87,0,0,1-3.93,1.85,4.89,4.89,0,0,1-4-1.87Q5.68,428,5.68,424.27V377.44a11.41,11.41,0,0,1,.7-4.34,4.65,4.65,0,0,1,2.19-2.45,8.33,8.33,0,0,1,3.82-.77H38.2a5.21,5.21,0,0,1,3.89,1.31,4.71,4.71,0,0,1,1.27,3.43,4.76,4.76,0,0,1-1.27,3.47A5.2,5.2,0,0,1,38.2,379.39Z" transform="translate(0 -42.84)"/><path class="0769ccb1-a037-4b9d-b610-c64031d0d431" d="M85.62,408.74a29.87,29.87,0,0,1-1.4,9.34,21.18,21.18,0,0,1-4.06,7.35,17.91,17.91,0,0,1-6.34,4.71,20.21,20.21,0,0,1-8.3,1.64,19.63,19.63,0,0,1-8.22-1.66A18.26,18.26,0,0,1,51,425.37a21.08,21.08,0,0,1-4.06-7.31,29.76,29.76,0,0,1-1.38-9.32,30.16,30.16,0,0,1,1.4-9.42A21.07,21.07,0,0,1,51,392a17.7,17.7,0,0,1,6.34-4.67,21.49,21.49,0,0,1,16.52,0,18,18,0,0,1,6.38,4.73,21,21,0,0,1,4,7.31A30,30,0,0,1,85.62,408.74Zm-10.1,0q0-6.93-2.71-10.79a8.47,8.47,0,0,0-7.28-3.86,8.31,8.31,0,0,0-5.2,1.72,10.84,10.84,0,0,0-3.47,5.09,25.82,25.82,0,0,0,0,15.61,11.06,11.06,0,0,0,3.43,5.09,8.22,8.22,0,0,0,5.25,1.76,8.45,8.45,0,0,0,7.28-3.88Q75.52,415.59,75.52,408.74Z" transform="translate(0 -42.84)"/><path class="0769ccb1-a037-4b9d-b610-c64031d0d431" d="M126,417a15.2,15.2,0,0,1-2,8,12.68,12.68,0,0,1-6,5.07,24.15,24.15,0,0,1-9.64,1.72A21.22,21.22,0,0,1,99,429.92a13.77,13.77,0,0,1-5.71-4.67,10.17,10.17,0,0,1-1.84-5.63,4.65,4.65,0,0,1,1.18-3.2,3.82,3.82,0,0,1,3-1.33A3.24,3.24,0,0,1,98,416a9.55,9.55,0,0,1,1.62,2.45,12,12,0,0,0,3.71,4.53,10.18,10.18,0,0,0,5.88,1.5,7.8,7.8,0,0,0,5-1.52,4.36,4.36,0,0,0,1.94-3.47,4.9,4.9,0,0,0-2-4.36,23.13,23.13,0,0,0-6.62-2.62,50.63,50.63,0,0,1-8.46-3.05,14.13,14.13,0,0,1-5.22-4.21,10.44,10.44,0,0,1-2-6.44,12.37,12.37,0,0,1,1.81-6.44A12.82,12.82,0,0,1,99,387.5a18.44,18.44,0,0,1,8.5-1.81,25,25,0,0,1,7,.91,16.53,16.53,0,0,1,5.2,2.45,11.43,11.43,0,0,1,3.17,3.4,7.24,7.24,0,0,1,1.09,3.65,4.5,4.5,0,0,1-1.16,3.2,4.29,4.29,0,0,1-3.3,1.25,3.76,3.76,0,0,1-2.64-1,18.74,18.74,0,0,1-2.49-3,9.53,9.53,0,0,0-2.69-2.66,7.7,7.7,0,0,0-4.2-1,7.53,7.53,0,0,0-4.54,1.31,3.9,3.9,0,0,0-1.81,3.26,3.69,3.69,0,0,0,1.33,2.93,10.52,10.52,0,0,0,3.58,1.89q2.25.75,6.19,1.83a30.83,30.83,0,0,1,7.65,3.07,13.23,13.23,0,0,1,4.5,4.21A10.17,10.17,0,0,1,126,417Z" transform="translate(0 -42.84)"/><path class="0769ccb1-a037-4b9d-b610-c64031d0d431" d="M135,386.69h1.11v-6.81q0-2.74.13-4.3a6.94,6.94,0,0,1,.72-2.68,4.87,4.87,0,0,1,1.7-1.89,4.41,4.41,0,0,1,2.47-.73,4.7,4.7,0,0,1,3.47,1.62,5,5,0,0,1,1.31,2.64,26.89,26.89,0,0,1,.28,4.42v7.72h3.69a4.38,4.38,0,0,1,3.26,1.14,4,4,0,0,1,1.13,2.93,3.37,3.37,0,0,1-1.6,3.2,9.41,9.41,0,0,1-4.59.91H146.2v20.84a38.12,38.12,0,0,0,.17,4.09,4.43,4.43,0,0,0,.88,2.33,2.83,2.83,0,0,0,2.34.89,11.18,11.18,0,0,0,2.4-.35,11.13,11.13,0,0,1,2.36-.35,2.89,2.89,0,0,1,2.19,1.1,4,4,0,0,1,1,2.72,4.56,4.56,0,0,1-2.66,4.19,16.18,16.18,0,0,1-7.63,1.45q-4.72,0-7.15-1.79a8.3,8.3,0,0,1-3.19-4.94,37.57,37.57,0,0,1-.76-8.43V394.87h-1.33a4.45,4.45,0,0,1-3.32-1.16,4,4,0,0,1-1.14-2.95,3.87,3.87,0,0,1,1.2-2.93A4.86,4.86,0,0,1,135,386.69Z" transform="translate(0 -42.84)"/><path class="0769ccb1-a037-4b9d-b610-c64031d0d431" d="M189.31,411.52H169.62a16.63,16.63,0,0,0,1.38,6.81,10.33,10.33,0,0,0,3.58,4.44,8.66,8.66,0,0,0,4.92,1.49,10.79,10.79,0,0,0,3.3-.48,10.21,10.21,0,0,0,2.89-1.5,22.36,22.36,0,0,0,2.58-2.18q1.18-1.16,3.06-3.16a3.06,3.06,0,0,1,2.21-.75,3.4,3.4,0,0,1,2.51,1,3.64,3.64,0,0,1,1,2.7,8,8,0,0,1-1.07,3.59,13.77,13.77,0,0,1-3.23,3.94,17.7,17.7,0,0,1-5.42,3.13,20.94,20.94,0,0,1-7.5,1.25q-9.7,0-15.08-6.23t-5.38-16.9a31.42,31.42,0,0,1,1.33-9.32,21.23,21.23,0,0,1,3.87-7.37,16.82,16.82,0,0,1,6.27-4.71,20.28,20.28,0,0,1,8.26-1.64,17.88,17.88,0,0,1,10.12,2.8,17.61,17.61,0,0,1,6.32,7.25,21,21,0,0,1,2.1,9.05q0,4.28-2.17,5.54A12.25,12.25,0,0,1,189.31,411.52Zm-19.69-6.44h18.25q-.37-5.81-2.78-8.7a7.89,7.89,0,0,0-6.36-2.89,7.65,7.65,0,0,0-6.18,2.93Q170.13,399.36,169.62,405.09Z" transform="translate(0 -42.84)"/><path class="0769ccb1-a037-4b9d-b610-c64031d0d431" d="M216.08,415.43v9.47a7.91,7.91,0,0,1-1.44,5.17,4.55,4.55,0,0,1-3.65,1.72,4.39,4.39,0,0,1-3.58-1.74,8.08,8.08,0,0,1-1.4-5.15V393.34q0-7.64,4.9-7.64a3.93,3.93,0,0,1,3.61,1.79,10.82,10.82,0,0,1,1.22,5.27,19.63,19.63,0,0,1,3.71-5.27,7.1,7.1,0,0,1,5.07-1.79,11.86,11.86,0,0,1,6.16,1.79,5.36,5.36,0,0,1,3,4.73,4.79,4.79,0,0,1-1.27,3.43,3.75,3.75,0,0,1-2.75,1.35,11.46,11.46,0,0,1-2.67-.77,11.21,11.21,0,0,0-3.74-.77,5.09,5.09,0,0,0-3.61,1.31,8.58,8.58,0,0,0-2.18,3.88,30.21,30.21,0,0,0-1.07,6.12Q216.08,410.32,216.08,415.43Z" transform="translate(0 -42.84)"/><path class="0769ccb1-a037-4b9d-b610-c64031d0d431" d="M244.25,380.42a5,5,0,0,1-3.6-1.45,6.15,6.15,0,0,1,0-8.08,4.84,4.84,0,0,1,3.56-1.56,4.94,4.94,0,0,1,3.47,1.41,5.35,5.35,0,0,1,1.51,4.11,5.53,5.53,0,0,1-1.47,4.09A4.79,4.79,0,0,1,244.25,380.42Zm5,11.71v32.76a7.93,7.93,0,0,1-1.44,5.15,4.53,4.53,0,0,1-3.65,1.74,4.34,4.34,0,0,1-3.59-1.79,8.19,8.19,0,0,1-1.38-5.11V392.47a7.9,7.9,0,0,1,1.38-5.07,4.41,4.41,0,0,1,3.59-1.7,4.57,4.57,0,0,1,3.65,1.7A7.12,7.12,0,0,1,249.23,392.13Z" transform="translate(0 -42.84)"/><path class="0769ccb1-a037-4b9d-b610-c64031d0d431" d="M268.77,392v1.37a18.46,18.46,0,0,1,5.81-5.79,14.06,14.06,0,0,1,7.25-1.85,13.19,13.19,0,0,1,7.12,2,11.9,11.9,0,0,1,4.68,5.52,14.33,14.33,0,0,1,1.29,4.48,52.33,52.33,0,0,1,.29,6.14v21.09a8.16,8.16,0,0,1-1.38,5.15,4.37,4.37,0,0,1-3.6,1.74,4.43,4.43,0,0,1-3.65-1.79,8.11,8.11,0,0,1-1.4-5.11V406q0-5.6-1.38-8.57t-5.51-3a7.57,7.57,0,0,0-4.9,1.81,10.37,10.37,0,0,0-3.25,5q-.74,2.53-.74,9.47v14.2a8,8,0,0,1-1.42,5.17,4.54,4.54,0,0,1-3.67,1.72,4.35,4.35,0,0,1-3.58-1.79,8.11,8.11,0,0,1-1.4-5.11V392.13a7.77,7.77,0,0,1,1.25-4.84,4.12,4.12,0,0,1,3.43-1.6,4.25,4.25,0,0,1,2.4.71,4.89,4.89,0,0,1,1.71,2.12A8.27,8.27,0,0,1,268.77,392Z" transform="translate(0 -42.84)"/><path class="0769ccb1-a037-4b9d-b610-c64031d0d431" d="M342.26,394v32.93a38.6,38.6,0,0,1-1.07,9.71,16.12,16.12,0,0,1-3.43,6.73,14.08,14.08,0,0,1-6.18,3.94,30.07,30.07,0,0,1-9.5,1.29A24.82,24.82,0,0,1,312.8,447a15.83,15.83,0,0,1-6.3-4.24,8.18,8.18,0,0,1-2.21-5.33,4.68,4.68,0,0,1,1.25-3.38,4,4,0,0,1,3-1.31,4.79,4.79,0,0,1,3.87,2.2q.81,1.12,1.68,2.26a10.33,10.33,0,0,0,1.92,2,7.1,7.1,0,0,0,2.53,1.2,13.18,13.18,0,0,0,3.39.39,12.42,12.42,0,0,0,6.07-1.22,6.68,6.68,0,0,0,3-3.43,15.24,15.24,0,0,0,1-4.71q.15-2.51.22-8.08a17.44,17.44,0,0,1-5.37,5.56,13.35,13.35,0,0,1-7.25,1.91,14.07,14.07,0,0,1-8.83-2.91A18.31,18.31,0,0,1,305,419.7a33.3,33.3,0,0,1-2-12.08,32,32,0,0,1,1.24-9.22,20,20,0,0,1,3.52-6.93,15.26,15.26,0,0,1,5.27-4.26,15,15,0,0,1,6.56-1.43,14.33,14.33,0,0,1,7.41,1.85,18.89,18.89,0,0,1,5.83,5.79v-1.54a7.16,7.16,0,0,1,1.29-4.57,4.05,4.05,0,0,1,3.32-1.62q2.91,0,3.87,2.14A15.59,15.59,0,0,1,342.26,394Zm-29.17,14.37q0,6.89,2.67,10.42a8.39,8.39,0,0,0,11.65,2,10.78,10.78,0,0,0,3.63-4.57,17.7,17.7,0,0,0,1.4-7.41q0-6.93-2.71-10.79a8.34,8.34,0,0,0-7.13-3.86,8.06,8.06,0,0,0-6.91,3.7Q313.09,401.56,313.09,408.37Z" transform="translate(0 -42.84)"/><path class="0769ccb1-a037-4b9d-b610-c64031d0d431" d="M396.76,425.39a30.68,30.68,0,0,1-7.06,4.8,17.81,17.81,0,0,1-7.65,1.6,13.18,13.18,0,0,1-6.8-1.72,11.82,11.82,0,0,1-4.52-4.67,13.28,13.28,0,0,1-1.59-6.39,12.32,12.32,0,0,1,2.62-7.93,12.76,12.76,0,0,1,7.19-4.4q1-.25,4.76-1.12t6.51-1.6q2.71-.73,5.88-1.76-.18-4.48-1.6-6.58t-5.88-2.1a11.09,11.09,0,0,0-5.77,1.2,10,10,0,0,0-3.32,3.61q-1.38,2.41-2,3.18a3,3,0,0,1-2.45.77,4,4,0,0,1-2.93-1.22,4.23,4.23,0,0,1-1.24-3.13,10.36,10.36,0,0,1,1.88-5.81,13.62,13.62,0,0,1,5.86-4.65,23.77,23.77,0,0,1,9.92-1.83q6.64,0,10.43,1.76a10.27,10.27,0,0,1,5.37,5.58A27.16,27.16,0,0,1,406,403.09q0,4,0,6.77T405.9,416a25.43,25.43,0,0,0,.94,6.66,23.3,23.3,0,0,1,.94,4.46,4.37,4.37,0,0,1-1.46,3.18,4.59,4.59,0,0,1-3.3,1.43,4.26,4.26,0,0,1-3.06-1.64A24.27,24.27,0,0,1,396.76,425.39Zm-.66-16.4a46.12,46.12,0,0,1-6.43,1.93q-4.22,1-5.84,1.5a7.72,7.72,0,0,0-3.1,1.87,5.08,5.08,0,0,0-1.47,3.88,6.09,6.09,0,0,0,1.73,4.38,6,6,0,0,0,4.54,1.81,10.74,10.74,0,0,0,5.51-1.47,9.22,9.22,0,0,0,3.71-3.8q1.36-2.57,1.36-8.47Z" transform="translate(0 -42.84)"/><path class="0769ccb1-a037-4b9d-b610-c64031d0d431" d="M452.29,417.75a10.75,10.75,0,0,1-1.12,4.53,15.29,15.29,0,0,1-3.43,4.59,17.2,17.2,0,0,1-5.81,3.51A22.12,22.12,0,0,1,434,431.7q-9.33,0-14.57-6.12t-5.24-16.42a29.91,29.91,0,0,1,2.4-12.33,18.62,18.62,0,0,1,6.93-8.28,21.17,21.17,0,0,1,18-1.64,18.19,18.19,0,0,1,5.53,3.32,15.46,15.46,0,0,1,3.47,4.34,9.39,9.39,0,0,1,1.2,4.3,4.8,4.8,0,0,1-1.35,3.45,4.34,4.34,0,0,1-3.26,1.41,3,3,0,0,1-2.08-.73,11.12,11.12,0,0,1-1.86-2.35,16.57,16.57,0,0,0-3.85-4.73,8,8,0,0,0-5.11-1.58,8.38,8.38,0,0,0-7.19,3.92q-2.73,3.92-2.73,10.73a23.16,23.16,0,0,0,.7,5.88,14,14,0,0,0,2,4.57,8.93,8.93,0,0,0,3.21,2.87,8.83,8.83,0,0,0,4.13,1,8.53,8.53,0,0,0,5.18-1.58,13.38,13.38,0,0,0,3.82-4.82,11,11,0,0,1,2-3,3.55,3.55,0,0,1,2.62-1.08,3.72,3.72,0,0,1,3.06,1.58A5.41,5.41,0,0,1,452.29,417.75Z" transform="translate(0 -42.84)"/><path class="0769ccb1-a037-4b9d-b610-c64031d0d431" d="M486.51,425.39a30.68,30.68,0,0,1-7.06,4.8,17.81,17.81,0,0,1-7.65,1.6,13.18,13.18,0,0,1-6.8-1.72,11.82,11.82,0,0,1-4.52-4.67,13.28,13.28,0,0,1-1.59-6.39,12.32,12.32,0,0,1,2.62-7.93,12.76,12.76,0,0,1,7.19-4.4q1-.25,4.76-1.12t6.51-1.6q2.71-.73,5.88-1.76-.18-4.48-1.6-6.58t-5.88-2.1a11.09,11.09,0,0,0-5.77,1.2,10,10,0,0,0-3.32,3.61q-1.38,2.41-2,3.18a3,3,0,0,1-2.45.77,4,4,0,0,1-2.93-1.22,4.23,4.23,0,0,1-1.24-3.13,10.36,10.36,0,0,1,1.88-5.81,13.62,13.62,0,0,1,5.86-4.65,23.77,23.77,0,0,1,9.92-1.83q6.64,0,10.43,1.76a10.27,10.27,0,0,1,5.37,5.58,27.16,27.16,0,0,1,1.57,10.13q0,4,0,6.77t-.06,6.19a25.43,25.43,0,0,0,.94,6.66,23.3,23.3,0,0,1,.94,4.46,4.37,4.37,0,0,1-1.46,3.18,4.59,4.59,0,0,1-3.3,1.43,4.26,4.26,0,0,1-3.06-1.64A24.27,24.27,0,0,1,486.51,425.39Zm-.66-16.4a46.12,46.12,0,0,1-6.43,1.93q-4.22,1-5.84,1.5a7.72,7.72,0,0,0-3.1,1.87,5.08,5.08,0,0,0-1.47,3.88,6.09,6.09,0,0,0,1.73,4.38,6,6,0,0,0,4.54,1.81,10.74,10.74,0,0,0,5.51-1.47,9.22,9.22,0,0,0,3.71-3.8q1.36-2.57,1.36-8.47Z" transform="translate(0 -42.84)"/><path class="0769ccb1-a037-4b9d-b610-c64031d0d431" d="M533.52,425.31v-1.12a27.1,27.1,0,0,1-4,4.26,14,14,0,0,1-9.31,3.34,13.48,13.48,0,0,1-6.69-1.72,16.15,16.15,0,0,1-5.33-4.92,23.54,23.54,0,0,1-3.41-7.51,35.86,35.86,0,0,1-1.16-9.34q0-10.63,4.61-16.57a15.84,15.84,0,0,1,19.47-4.26,21,21,0,0,1,5.83,5.17V375.9a9.27,9.27,0,0,1,1.24-5.27,4,4,0,0,1,3.52-1.79,4.15,4.15,0,0,1,3.52,1.64,8,8,0,0,1,1.24,4.84v50a7.54,7.54,0,0,1-1.33,4.86,4.23,4.23,0,0,1-3.43,1.62,4.19,4.19,0,0,1-3.41-1.68A7.51,7.51,0,0,1,533.52,425.31Zm-19.8-16.65a21.49,21.49,0,0,0,1.27,7.85,10.77,10.77,0,0,0,3.48,4.88,7.93,7.93,0,0,0,4.83,1.64,8.19,8.19,0,0,0,4.85-1.56,10.51,10.51,0,0,0,3.5-4.78,21.42,21.42,0,0,0,1.31-8,20.85,20.85,0,0,0-1.31-7.78,11.56,11.56,0,0,0-3.54-5,7.82,7.82,0,0,0-4.89-1.72,7.64,7.64,0,0,0-4.94,1.76,11.29,11.29,0,0,0-3.37,5.07A22.41,22.41,0,0,0,513.72,408.66Z" transform="translate(0 -42.84)"/><path class="0769ccb1-a037-4b9d-b610-c64031d0d431" d="M581.23,411.52H561.54a16.63,16.63,0,0,0,1.38,6.81,10.33,10.33,0,0,0,3.58,4.44,8.66,8.66,0,0,0,4.92,1.49,10.79,10.79,0,0,0,3.3-.48,10.21,10.21,0,0,0,2.89-1.5,22.36,22.36,0,0,0,2.58-2.18q1.18-1.16,3.06-3.16a3.06,3.06,0,0,1,2.21-.75,3.4,3.4,0,0,1,2.51,1,3.64,3.64,0,0,1,1,2.7,8,8,0,0,1-1.07,3.59,13.77,13.77,0,0,1-3.23,3.94,17.7,17.7,0,0,1-5.42,3.13,20.94,20.94,0,0,1-7.5,1.25q-9.7,0-15.08-6.23t-5.38-16.9a31.42,31.42,0,0,1,1.33-9.32,21.23,21.23,0,0,1,3.87-7.37,16.82,16.82,0,0,1,6.27-4.71,20.28,20.28,0,0,1,8.26-1.64,17.88,17.88,0,0,1,10.12,2.8,17.61,17.61,0,0,1,6.32,7.25,21,21,0,0,1,2.1,9.05q0,4.28-2.17,5.54A12.25,12.25,0,0,1,581.23,411.52Zm-19.69-6.44H579.8q-.37-5.81-2.78-8.7a7.89,7.89,0,0,0-6.36-2.89,7.65,7.65,0,0,0-6.18,2.93Q562.06,399.36,561.54,405.09Z" transform="translate(0 -42.84)"/><path class="0769ccb1-a037-4b9d-b610-c64031d0d431" d="M631.49,409.57v15.07a8.42,8.42,0,0,1-1.44,5.36,4.64,4.64,0,0,1-3.8,1.79,4.51,4.51,0,0,1-3.71-1.79,8.5,8.5,0,0,1-1.42-5.36V406.58a65.33,65.33,0,0,0-.26-6.64,7.71,7.71,0,0,0-1.4-3.88,4.23,4.23,0,0,0-3.61-1.52q-4.94,0-6.51,3.82t-1.57,11v15.32a8.51,8.51,0,0,1-1.42,5.33,4.53,4.53,0,0,1-3.74,1.81,4.59,4.59,0,0,1-3.74-1.81,8.36,8.36,0,0,1-1.46-5.33V392.22a7.72,7.72,0,0,1,1.31-4.86,4.18,4.18,0,0,1,3.45-1.66,4.42,4.42,0,0,1,3.45,1.56,6.25,6.25,0,0,1,1.38,4.3v1.08a18.12,18.12,0,0,1,5.6-5.19,13.42,13.42,0,0,1,6.64-1.66,12.08,12.08,0,0,1,6.53,1.7,12.72,12.72,0,0,1,4.5,5.15,18.17,18.17,0,0,1,5.46-5.17,12.67,12.67,0,0,1,6.45-1.68,13.38,13.38,0,0,1,7.12,1.83,11.14,11.14,0,0,1,4.46,5.23q1.29,3.07,1.29,9.67v22.13a8.42,8.42,0,0,1-1.44,5.36,4.85,4.85,0,0,1-7.54,0,8.35,8.35,0,0,1-1.46-5.33V405.59a49.08,49.08,0,0,0-.28-5.85,7.12,7.12,0,0,0-1.49-3.7,4.48,4.48,0,0,0-3.69-1.49,6.24,6.24,0,0,0-3.78,1.33,8.79,8.79,0,0,0-2.78,3.57Q631.49,402.3,631.49,409.57Z" transform="translate(0 -42.84)"/><path class="0769ccb1-a037-4b9d-b610-c64031d0d431" d="M669.92,380.42a5,5,0,0,1-3.6-1.45,6.15,6.15,0,0,1,0-8.08,4.84,4.84,0,0,1,3.56-1.56,4.94,4.94,0,0,1,3.47,1.41,5.35,5.35,0,0,1,1.51,4.11,5.53,5.53,0,0,1-1.47,4.09A4.79,4.79,0,0,1,669.92,380.42Zm5,11.71v32.76a7.93,7.93,0,0,1-1.44,5.15,4.53,4.53,0,0,1-3.65,1.74,4.34,4.34,0,0,1-3.59-1.79,8.19,8.19,0,0,1-1.38-5.11V392.47a7.9,7.9,0,0,1,1.38-5.07,4.41,4.41,0,0,1,3.59-1.7,4.57,4.57,0,0,1,3.65,1.7A7.12,7.12,0,0,1,674.89,392.13Z" transform="translate(0 -42.84)"/><path class="0769ccb1-a037-4b9d-b610-c64031d0d431" d="M721.39,417.75a10.75,10.75,0,0,1-1.12,4.53,15.29,15.29,0,0,1-3.43,4.59,17.2,17.2,0,0,1-5.81,3.51,22.12,22.12,0,0,1-7.89,1.33q-9.33,0-14.57-6.12t-5.24-16.42a29.91,29.91,0,0,1,2.4-12.33,18.62,18.62,0,0,1,6.93-8.28,21.17,21.17,0,0,1,18-1.64,18.19,18.19,0,0,1,5.53,3.32,15.46,15.46,0,0,1,3.47,4.34,9.39,9.39,0,0,1,1.2,4.3,4.8,4.8,0,0,1-1.35,3.45,4.34,4.34,0,0,1-3.26,1.41,3,3,0,0,1-2.08-.73,11.12,11.12,0,0,1-1.86-2.35,16.57,16.57,0,0,0-3.85-4.73,8,8,0,0,0-5.11-1.58,8.38,8.38,0,0,0-7.19,3.92q-2.73,3.92-2.73,10.73a23.16,23.16,0,0,0,.7,5.88,14,14,0,0,0,2,4.57,8.93,8.93,0,0,0,3.21,2.87,8.83,8.83,0,0,0,4.13,1,8.53,8.53,0,0,0,5.18-1.58,13.38,13.38,0,0,0,3.82-4.82,11,11,0,0,1,2-3,3.55,3.55,0,0,1,2.62-1.08,3.72,3.72,0,0,1,3.06,1.58A5.41,5.41,0,0,1,721.39,417.75Z" transform="translate(0 -42.84)"/><path class="0769ccb1-a037-4b9d-b610-c64031d0d431" d="M777.14,411.52H757.45a16.63,16.63,0,0,0,1.38,6.81,10.33,10.33,0,0,0,3.58,4.44,8.66,8.66,0,0,0,4.92,1.49,10.79,10.79,0,0,0,3.3-.48,10.21,10.21,0,0,0,2.89-1.5,22.36,22.36,0,0,0,2.58-2.18q1.18-1.16,3.06-3.16a3.06,3.06,0,0,1,2.21-.75,3.4,3.4,0,0,1,2.51,1,3.64,3.64,0,0,1,1,2.7,8,8,0,0,1-1.07,3.59,13.77,13.77,0,0,1-3.23,3.94,17.7,17.7,0,0,1-5.42,3.13,20.94,20.94,0,0,1-7.5,1.25q-9.7,0-15.08-6.23t-5.38-16.9a31.42,31.42,0,0,1,1.33-9.32,21.23,21.23,0,0,1,3.87-7.37,16.82,16.82,0,0,1,6.27-4.71,20.28,20.28,0,0,1,8.26-1.64,17.88,17.88,0,0,1,10.12,2.8,17.61,17.61,0,0,1,6.32,7.25,21,21,0,0,1,2.1,9.05q0,4.28-2.17,5.54A12.25,12.25,0,0,1,777.14,411.52Zm-19.69-6.44H775.7q-.37-5.81-2.78-8.7a7.89,7.89,0,0,0-6.36-2.89,7.65,7.65,0,0,0-6.18,2.93Q758,399.36,757.45,405.09Z" transform="translate(0 -42.84)"/><path class="0769ccb1-a037-4b9d-b610-c64031d0d431" d="M814.75,427.09,807.45,415,800,427.09a20.82,20.82,0,0,1-2.75,3.61,4,4,0,0,1-2.86,1.08,4.44,4.44,0,0,1-3.26-1.35,4.26,4.26,0,0,1-1.35-3.09q0-1.79,2.06-5.11l9.11-14.7-8.08-12.25a9.75,9.75,0,0,1-2.1-5.27,4.2,4.2,0,0,1,1.25-3,4.38,4.38,0,0,1,3.28-1.29,4.05,4.05,0,0,1,2.93,1.12,20.38,20.38,0,0,1,2.71,3.53l6.53,10,6.34-10a19,19,0,0,1,2.75-3.57,4.09,4.09,0,0,1,2.89-1.08,4.55,4.55,0,0,1,3.3,1.27A4.09,4.09,0,0,1,824,390a5.93,5.93,0,0,1-.54,2.47,19.13,19.13,0,0,1-1.64,2.8l-8.08,12.25,9.11,14.7q2.14,3.45,2.14,5.19a4.13,4.13,0,0,1-1.33,3.07,4.53,4.53,0,0,1-3.28,1.29,4.13,4.13,0,0,1-2.93-1.12A18.74,18.74,0,0,1,814.75,427.09Z" transform="translate(0 -42.84)"/><path class="0769ccb1-a037-4b9d-b610-c64031d0d431" d="M866.49,417.75a10.75,10.75,0,0,1-1.12,4.53,15.29,15.29,0,0,1-3.43,4.59,17.2,17.2,0,0,1-5.81,3.51,22.12,22.12,0,0,1-7.89,1.33q-9.33,0-14.57-6.12t-5.24-16.42a29.91,29.91,0,0,1,2.4-12.33,18.62,18.62,0,0,1,6.93-8.28,21.17,21.17,0,0,1,18-1.64,18.19,18.19,0,0,1,5.53,3.32,15.46,15.46,0,0,1,3.47,4.34,9.39,9.39,0,0,1,1.2,4.3,4.8,4.8,0,0,1-1.35,3.45,4.34,4.34,0,0,1-3.26,1.41,3,3,0,0,1-2.08-.73,11.12,11.12,0,0,1-1.86-2.35,16.57,16.57,0,0,0-3.85-4.73,8,8,0,0,0-5.11-1.58,8.38,8.38,0,0,0-7.19,3.92q-2.73,3.92-2.73,10.73a23.16,23.16,0,0,0,.7,5.88,14,14,0,0,0,2,4.57,8.93,8.93,0,0,0,3.21,2.87,8.83,8.83,0,0,0,4.13,1,8.53,8.53,0,0,0,5.18-1.58,13.38,13.38,0,0,0,3.82-4.82,11,11,0,0,1,2-3,3.55,3.55,0,0,1,2.62-1.08,3.72,3.72,0,0,1,3.06,1.58A5.41,5.41,0,0,1,866.49,417.75Z" transform="translate(0 -42.84)"/><path class="0769ccb1-a037-4b9d-b610-c64031d0d431" d="M903.36,411.52H883.67a16.63,16.63,0,0,0,1.38,6.81,10.33,10.33,0,0,0,3.58,4.44,8.66,8.66,0,0,0,4.92,1.49,10.79,10.79,0,0,0,3.3-.48,10.21,10.21,0,0,0,2.89-1.5,22.36,22.36,0,0,0,2.58-2.18q1.18-1.16,3.06-3.16a3.06,3.06,0,0,1,2.21-.75,3.4,3.4,0,0,1,2.51,1,3.64,3.64,0,0,1,1,2.7,8,8,0,0,1-1.07,3.59,13.77,13.77,0,0,1-3.23,3.94,17.7,17.7,0,0,1-5.42,3.13,20.94,20.94,0,0,1-7.5,1.25q-9.7,0-15.08-6.23t-5.38-16.9a31.42,31.42,0,0,1,1.33-9.32,21.23,21.23,0,0,1,3.87-7.37,16.82,16.82,0,0,1,6.27-4.71,20.28,20.28,0,0,1,8.26-1.64,17.88,17.88,0,0,1,10.12,2.8,17.61,17.61,0,0,1,6.32,7.25,21,21,0,0,1,2.1,9.05q0,4.28-2.17,5.54A12.25,12.25,0,0,1,903.36,411.52Zm-19.69-6.44h18.25q-.37-5.81-2.78-8.7a7.89,7.89,0,0,0-6.36-2.89,7.65,7.65,0,0,0-6.18,2.93Q884.19,399.36,883.67,405.09Z" transform="translate(0 -42.84)"/><path class="0769ccb1-a037-4b9d-b610-c64031d0d431" d="M920.14,424.89V375.73a8.32,8.32,0,0,1,1.35-5.15,4.35,4.35,0,0,1,3.63-1.74,4.52,4.52,0,0,1,3.69,1.72,8.07,8.07,0,0,1,1.4,5.17v49.16a8,8,0,0,1-1.42,5.17,4.54,4.54,0,0,1-3.67,1.72,4.34,4.34,0,0,1-3.59-1.79A8.19,8.19,0,0,1,920.14,424.89Z" transform="translate(0 -42.84)"/><path class="0769ccb1-a037-4b9d-b610-c64031d0d431" d="M940.6,424.89V375.73a8.32,8.32,0,0,1,1.35-5.15,4.35,4.35,0,0,1,3.63-1.74,4.52,4.52,0,0,1,3.69,1.72,8.07,8.07,0,0,1,1.4,5.17v49.16a8,8,0,0,1-1.42,5.17,4.54,4.54,0,0,1-3.67,1.72A4.34,4.34,0,0,1,942,430,8.19,8.19,0,0,1,940.6,424.89Z" transform="translate(0 -42.84)"/><path class="0769ccb1-a037-4b9d-b610-c64031d0d431" d="M989.16,411.52H969.47a16.63,16.63,0,0,0,1.38,6.81,10.33,10.33,0,0,0,3.58,4.44,8.66,8.66,0,0,0,4.92,1.49,10.79,10.79,0,0,0,3.3-.48,10.21,10.21,0,0,0,2.89-1.5,22.36,22.36,0,0,0,2.58-2.18q1.18-1.16,3.06-3.16a3.06,3.06,0,0,1,2.21-.75,3.4,3.4,0,0,1,2.51,1,3.64,3.64,0,0,1,1,2.7,8,8,0,0,1-1.07,3.59,13.77,13.77,0,0,1-3.23,3.94,17.7,17.7,0,0,1-5.42,3.13,20.94,20.94,0,0,1-7.5,1.25q-9.7,0-15.08-6.23t-5.38-16.9a31.42,31.42,0,0,1,1.33-9.32,21.23,21.23,0,0,1,3.87-7.37,16.82,16.82,0,0,1,6.27-4.71,20.28,20.28,0,0,1,8.26-1.64,17.88,17.88,0,0,1,10.12,2.8,17.61,17.61,0,0,1,6.32,7.25,21,21,0,0,1,2.1,9.05q0,4.28-2.17,5.54A12.25,12.25,0,0,1,989.16,411.52Zm-19.69-6.44h18.25q-.37-5.81-2.78-8.7a7.89,7.89,0,0,0-6.36-2.89,7.65,7.65,0,0,0-6.18,2.93Q970,399.36,969.47,405.09Z" transform="translate(0 -42.84)"/><path class="0769ccb1-a037-4b9d-b610-c64031d0d431" d="M1015.08,392v1.37a18.46,18.46,0,0,1,5.81-5.79,14.06,14.06,0,0,1,7.25-1.85,13.19,13.19,0,0,1,7.12,2,11.9,11.9,0,0,1,4.68,5.52,14.33,14.33,0,0,1,1.29,4.48,52.33,52.33,0,0,1,.29,6.14v21.09a8.16,8.16,0,0,1-1.38,5.15,4.37,4.37,0,0,1-3.6,1.74,4.43,4.43,0,0,1-3.65-1.79,8.11,8.11,0,0,1-1.4-5.11V406q0-5.6-1.38-8.57t-5.51-3a7.57,7.57,0,0,0-4.9,1.81,10.37,10.37,0,0,0-3.25,5q-.74,2.53-.74,9.47v14.2a8,8,0,0,1-1.42,5.17,4.54,4.54,0,0,1-3.67,1.72A4.35,4.35,0,0,1,1007,430a8.11,8.11,0,0,1-1.4-5.11V392.13a7.77,7.77,0,0,1,1.25-4.84,4.12,4.12,0,0,1,3.43-1.6,4.25,4.25,0,0,1,2.4.71,4.89,4.89,0,0,1,1.71,2.12A8.27,8.27,0,0,1,1015.08,392Z" transform="translate(0 -42.84)"/><path class="0769ccb1-a037-4b9d-b610-c64031d0d431" d="M1087.65,417.75a10.75,10.75,0,0,1-1.12,4.53,15.29,15.29,0,0,1-3.43,4.59,17.2,17.2,0,0,1-5.81,3.51,22.12,22.12,0,0,1-7.89,1.33q-9.33,0-14.57-6.12t-5.24-16.42a29.91,29.91,0,0,1,2.4-12.33,18.62,18.62,0,0,1,6.93-8.28,21.17,21.17,0,0,1,18-1.64,18.19,18.19,0,0,1,5.53,3.32,15.46,15.46,0,0,1,3.47,4.34,9.39,9.39,0,0,1,1.2,4.3,4.8,4.8,0,0,1-1.35,3.45,4.34,4.34,0,0,1-3.26,1.41,3,3,0,0,1-2.08-.73,11.12,11.12,0,0,1-1.86-2.35,16.57,16.57,0,0,0-3.85-4.73,8,8,0,0,0-5.11-1.58,8.38,8.38,0,0,0-7.19,3.92q-2.73,3.92-2.73,10.73a23.16,23.16,0,0,0,.7,5.88,14,14,0,0,0,2,4.57,8.93,8.93,0,0,0,3.21,2.87,8.83,8.83,0,0,0,4.13,1,8.53,8.53,0,0,0,5.18-1.58,13.38,13.38,0,0,0,3.82-4.82,11,11,0,0,1,2-3,3.55,3.55,0,0,1,2.62-1.08,3.72,3.72,0,0,1,3.06,1.58A5.41,5.41,0,0,1,1087.65,417.75Z" transform="translate(0 -42.84)"/><path class="0769ccb1-a037-4b9d-b610-c64031d0d431" d="M1124.53,411.52h-19.69a16.63,16.63,0,0,0,1.38,6.81,10.33,10.33,0,0,0,3.58,4.44,8.66,8.66,0,0,0,4.92,1.49,10.79,10.79,0,0,0,3.3-.48,10.21,10.21,0,0,0,2.89-1.5,22.36,22.36,0,0,0,2.58-2.18q1.18-1.16,3.06-3.16a3.06,3.06,0,0,1,2.21-.75,3.4,3.4,0,0,1,2.51,1,3.64,3.64,0,0,1,1,2.7,8,8,0,0,1-1.07,3.59,13.77,13.77,0,0,1-3.23,3.94,17.7,17.7,0,0,1-5.42,3.13,20.94,20.94,0,0,1-7.5,1.25q-9.7,0-15.08-6.23t-5.38-16.9a31.42,31.42,0,0,1,1.33-9.32,21.23,21.23,0,0,1,3.87-7.37,16.82,16.82,0,0,1,6.27-4.71,20.28,20.28,0,0,1,8.26-1.64,17.88,17.88,0,0,1,10.12,2.8,17.61,17.61,0,0,1,6.32,7.25,21,21,0,0,1,2.1,9.05q0,4.28-2.17,5.54A12.25,12.25,0,0,1,1124.53,411.52Zm-19.69-6.44h18.25q-.37-5.81-2.78-8.7a7.89,7.89,0,0,0-6.36-2.89,7.65,7.65,0,0,0-6.18,2.93Q1105.35,399.36,1104.83,405.09Z" transform="translate(0 -42.84)"/><path class="0769ccb1-a037-4b9d-b610-c64031d0d431" d="M1185.62,425.39a30.68,30.68,0,0,1-7.06,4.8,17.81,17.81,0,0,1-7.65,1.6,13.18,13.18,0,0,1-6.8-1.72,11.82,11.82,0,0,1-4.52-4.67A13.28,13.28,0,0,1,1158,419a12.32,12.32,0,0,1,2.62-7.93,12.76,12.76,0,0,1,7.19-4.4q1-.25,4.76-1.12t6.51-1.6q2.71-.73,5.88-1.76-.18-4.48-1.6-6.58t-5.88-2.1a11.09,11.09,0,0,0-5.77,1.2,10,10,0,0,0-3.32,3.61q-1.38,2.41-2,3.18a3,3,0,0,1-2.45.77A4,4,0,0,1,1161,401a4.23,4.23,0,0,1-1.24-3.13,10.36,10.36,0,0,1,1.88-5.81,13.62,13.62,0,0,1,5.86-4.65,23.77,23.77,0,0,1,9.92-1.83q6.64,0,10.43,1.76a10.27,10.27,0,0,1,5.37,5.58,27.16,27.16,0,0,1,1.57,10.13q0,4,0,6.77t-.06,6.19a25.43,25.43,0,0,0,.94,6.66,23.3,23.3,0,0,1,.94,4.46,4.37,4.37,0,0,1-1.46,3.18,4.59,4.59,0,0,1-3.3,1.43,4.26,4.26,0,0,1-3.06-1.64A24.27,24.27,0,0,1,1185.62,425.39ZM1185,409a46.12,46.12,0,0,1-6.43,1.93q-4.22,1-5.84,1.5a7.72,7.72,0,0,0-3.1,1.87,5.08,5.08,0,0,0-1.47,3.88,6.09,6.09,0,0,0,1.73,4.38,6,6,0,0,0,4.54,1.81,10.74,10.74,0,0,0,5.51-1.47,9.22,9.22,0,0,0,3.71-3.8q1.36-2.57,1.36-8.47Z" transform="translate(0 -42.84)"/><path class="0769ccb1-a037-4b9d-b610-c64031d0d431" d="M1214.2,392v1.37a18.46,18.46,0,0,1,5.81-5.79,14.06,14.06,0,0,1,7.25-1.85,13.19,13.19,0,0,1,7.12,2,11.9,11.9,0,0,1,4.68,5.52,14.33,14.33,0,0,1,1.29,4.48,52.33,52.33,0,0,1,.29,6.14v21.09a8.16,8.16,0,0,1-1.38,5.15,4.37,4.37,0,0,1-3.6,1.74A4.43,4.43,0,0,1,1232,430a8.11,8.11,0,0,1-1.4-5.11V406q0-5.6-1.38-8.57t-5.51-3a7.57,7.57,0,0,0-4.9,1.81,10.37,10.37,0,0,0-3.25,5q-.74,2.53-.74,9.47v14.2a8,8,0,0,1-1.42,5.17,4.54,4.54,0,0,1-3.67,1.72,4.35,4.35,0,0,1-3.58-1.79,8.11,8.11,0,0,1-1.4-5.11V392.13a7.77,7.77,0,0,1,1.25-4.84,4.12,4.12,0,0,1,3.43-1.6,4.25,4.25,0,0,1,2.4.71,4.89,4.89,0,0,1,1.71,2.12A8.27,8.27,0,0,1,1214.2,392Z" transform="translate(0 -42.84)"/><path class="0769ccb1-a037-4b9d-b610-c64031d0d431" d="M1278.25,425.31v-1.12a27.1,27.1,0,0,1-4,4.26,14,14,0,0,1-9.31,3.34,13.48,13.48,0,0,1-6.69-1.72,16.15,16.15,0,0,1-5.33-4.92,23.54,23.54,0,0,1-3.41-7.51,35.86,35.86,0,0,1-1.16-9.34q0-10.63,4.61-16.57a15.84,15.84,0,0,1,19.47-4.26,21,21,0,0,1,5.83,5.17V375.9a9.27,9.27,0,0,1,1.24-5.27,4,4,0,0,1,3.52-1.79,4.15,4.15,0,0,1,3.52,1.64,8,8,0,0,1,1.24,4.84v50a7.54,7.54,0,0,1-1.33,4.86,4.23,4.23,0,0,1-3.43,1.62,4.19,4.19,0,0,1-3.41-1.68A7.51,7.51,0,0,1,1278.25,425.31Zm-19.8-16.65a21.49,21.49,0,0,0,1.27,7.85,10.77,10.77,0,0,0,3.48,4.88A7.93,7.93,0,0,0,1268,423a8.19,8.19,0,0,0,4.85-1.56,10.51,10.51,0,0,0,3.5-4.78,21.42,21.42,0,0,0,1.31-8,20.85,20.85,0,0,0-1.31-7.78,11.56,11.56,0,0,0-3.54-5,7.82,7.82,0,0,0-4.89-1.72,7.64,7.64,0,0,0-4.94,1.76,11.29,11.29,0,0,0-3.37,5.07A22.41,22.41,0,0,0,1258.45,408.66Z" transform="translate(0 -42.84)"/><path class="0769ccb1-a037-4b9d-b610-c64031d0d431" d="M1344.84,411.52h-19.69a16.63,16.63,0,0,0,1.38,6.81,10.33,10.33,0,0,0,3.58,4.44,8.66,8.66,0,0,0,4.92,1.49,10.79,10.79,0,0,0,3.3-.48,10.21,10.21,0,0,0,2.89-1.5,22.36,22.36,0,0,0,2.58-2.18q1.18-1.16,3.06-3.16a3.06,3.06,0,0,1,2.21-.75,3.4,3.4,0,0,1,2.51,1,3.64,3.64,0,0,1,1,2.7,8,8,0,0,1-1.07,3.59,13.77,13.77,0,0,1-3.23,3.94,17.7,17.7,0,0,1-5.42,3.13,20.94,20.94,0,0,1-7.5,1.25q-9.7,0-15.08-6.23t-5.38-16.9a31.42,31.42,0,0,1,1.33-9.32,21.23,21.23,0,0,1,3.87-7.37,16.82,16.82,0,0,1,6.27-4.71,20.28,20.28,0,0,1,8.26-1.64,17.88,17.88,0,0,1,10.12,2.8,17.61,17.61,0,0,1,6.32,7.25,21,21,0,0,1,2.1,9.05q0,4.28-2.17,5.54A12.25,12.25,0,0,1,1344.84,411.52Zm-19.69-6.44h18.25q-.37-5.81-2.78-8.7a7.89,7.89,0,0,0-6.36-2.89,7.65,7.65,0,0,0-6.18,2.93Q1325.67,399.36,1325.15,405.09Z" transform="translate(0 -42.84)"/><path class="0769ccb1-a037-4b9d-b610-c64031d0d431" d="M1389.2,441v-16a22.91,22.91,0,0,1-6.07,5,14.72,14.72,0,0,1-15.52-1.06,18.31,18.31,0,0,1-6-8,35.62,35.62,0,0,1,0-24.66,17.67,17.67,0,0,1,6.14-7.87,15.06,15.06,0,0,1,8.72-2.7,14.05,14.05,0,0,1,7.26,1.89,15.81,15.81,0,0,1,5.49,5.75v-1.37a7.31,7.31,0,0,1,1.33-4.73,4.46,4.46,0,0,1,6.86,0,7.29,7.29,0,0,1,1.33,4.75v49q0,7.56-4.76,7.56-3,0-3.85-2A13.86,13.86,0,0,1,1389.2,441Zm-19.73-32.39a21.31,21.31,0,0,0,1.31,7.87,11,11,0,0,0,3.45,4.9,7.54,7.54,0,0,0,4.61,1.6,8.34,8.34,0,0,0,4.94-1.6,10.93,10.93,0,0,0,3.61-4.88,21.13,21.13,0,0,0,1.36-8.1,22.11,22.11,0,0,0-.79-6.15,13.88,13.88,0,0,0-2.16-4.55,9.05,9.05,0,0,0-3.13-2.7,8.24,8.24,0,0,0-3.76-.89,8,8,0,0,0-6.75,3.78Q1369.47,401.73,1369.47,408.66Z" transform="translate(0 -42.84)"/><path class="0769ccb1-a037-4b9d-b610-c64031d0d431" d="M1435,425.39v-1.45a24.08,24.08,0,0,1-3.8,4.32,13.53,13.53,0,0,1-4.35,2.59,15.81,15.81,0,0,1-5.38.85,12.67,12.67,0,0,1-6.54-1.7,11.69,11.69,0,0,1-4.48-4.69q-1.88-3.61-1.88-10.38V392.47a8,8,0,0,1,1.36-5.09,4.42,4.42,0,0,1,3.61-1.68,4.54,4.54,0,0,1,3.69,1.7,7.83,7.83,0,0,1,1.4,5.07v18.14a31.38,31.38,0,0,0,.59,6.62,8.22,8.22,0,0,0,2.12,4.19,5.63,5.63,0,0,0,4.15,1.52,7.8,7.8,0,0,0,4.79-1.7,9.76,9.76,0,0,0,3.28-4.44q.85-2.41.85-10.55V392.47a7.83,7.83,0,0,1,1.4-5.07,4.51,4.51,0,0,1,3.65-1.7,4.42,4.42,0,0,1,3.61,1.68,8,8,0,0,1,1.36,5.09v32.84a7.62,7.62,0,0,1-1.31,4.86,4.31,4.31,0,0,1-6.78-.06A7.36,7.36,0,0,1,1435,425.39Z" transform="translate(0 -42.84)"/><path class="0769ccb1-a037-4b9d-b610-c64031d0d431" d="M1479.87,425.39a30.68,30.68,0,0,1-7.06,4.8,17.81,17.81,0,0,1-7.65,1.6,13.18,13.18,0,0,1-6.8-1.72,11.82,11.82,0,0,1-4.52-4.67,13.28,13.28,0,0,1-1.59-6.39,12.32,12.32,0,0,1,2.62-7.93,12.76,12.76,0,0,1,7.19-4.4q1-.25,4.76-1.12t6.51-1.6q2.71-.73,5.88-1.76-.18-4.48-1.6-6.58t-5.88-2.1a11.09,11.09,0,0,0-5.77,1.2,10,10,0,0,0-3.32,3.61q-1.38,2.41-2,3.18a3,3,0,0,1-2.45.77,4,4,0,0,1-2.93-1.22,4.23,4.23,0,0,1-1.24-3.13,10.36,10.36,0,0,1,1.88-5.81,13.62,13.62,0,0,1,5.86-4.65,23.77,23.77,0,0,1,9.92-1.83q6.64,0,10.43,1.76a10.27,10.27,0,0,1,5.37,5.58,27.16,27.16,0,0,1,1.57,10.13q0,4,0,6.77T1489,416a25.43,25.43,0,0,0,.94,6.66,23.3,23.3,0,0,1,.94,4.46,4.37,4.37,0,0,1-1.46,3.18,4.59,4.59,0,0,1-3.3,1.43,4.26,4.26,0,0,1-3.06-1.64A24.27,24.27,0,0,1,1479.87,425.39Zm-.66-16.4a46.12,46.12,0,0,1-6.43,1.93q-4.22,1-5.84,1.5a7.72,7.72,0,0,0-3.1,1.87,5.08,5.08,0,0,0-1.47,3.88,6.09,6.09,0,0,0,1.73,4.38,6,6,0,0,0,4.54,1.81,10.74,10.74,0,0,0,5.51-1.47,9.22,9.22,0,0,0,3.71-3.8q1.36-2.57,1.36-8.47Z" transform="translate(0 -42.84)"/><path class="0769ccb1-a037-4b9d-b610-c64031d0d431" d="M1499.31,424.89V375.73a8.32,8.32,0,0,1,1.35-5.15,4.35,4.35,0,0,1,3.63-1.74,4.52,4.52,0,0,1,3.69,1.72,8.07,8.07,0,0,1,1.4,5.17v49.16a8,8,0,0,1-1.42,5.17,4.54,4.54,0,0,1-3.67,1.72,4.34,4.34,0,0,1-3.59-1.79A8.19,8.19,0,0,1,1499.31,424.89Z" transform="translate(0 -42.84)"/><path class="0769ccb1-a037-4b9d-b610-c64031d0d431" d="M1524.86,380.42a5,5,0,0,1-3.6-1.45,6.15,6.15,0,0,1,0-8.08,4.84,4.84,0,0,1,3.56-1.56,4.94,4.94,0,0,1,3.47,1.41,5.35,5.35,0,0,1,1.51,4.11,5.53,5.53,0,0,1-1.47,4.09A4.79,4.79,0,0,1,1524.86,380.42Zm5,11.71v32.76a7.93,7.93,0,0,1-1.44,5.15,4.53,4.53,0,0,1-3.65,1.74,4.34,4.34,0,0,1-3.59-1.79,8.19,8.19,0,0,1-1.38-5.11V392.47a7.9,7.9,0,0,1,1.38-5.07,4.41,4.41,0,0,1,3.59-1.7,4.57,4.57,0,0,1,3.65,1.7A7.12,7.12,0,0,1,1529.84,392.13Z" transform="translate(0 -42.84)"/><path class="0769ccb1-a037-4b9d-b610-c64031d0d431" d="M1540.79,386.69h1.11v-6.81q0-2.74.13-4.3a6.94,6.94,0,0,1,.72-2.68,4.87,4.87,0,0,1,1.7-1.89,4.41,4.41,0,0,1,2.47-.73,4.7,4.7,0,0,1,3.47,1.62,5,5,0,0,1,1.31,2.64A26.89,26.89,0,0,1,1552,379v7.72h3.69a4.38,4.38,0,0,1,3.26,1.14,4,4,0,0,1,1.13,2.93,3.37,3.37,0,0,1-1.6,3.2,9.41,9.41,0,0,1-4.59.91H1552v20.84a38.12,38.12,0,0,0,.17,4.09,4.43,4.43,0,0,0,.88,2.33,2.83,2.83,0,0,0,2.34.89,11.18,11.18,0,0,0,2.4-.35,11.13,11.13,0,0,1,2.36-.35,2.89,2.89,0,0,1,2.19,1.1,4,4,0,0,1,1,2.72,4.56,4.56,0,0,1-2.66,4.19,16.18,16.18,0,0,1-7.63,1.45q-4.72,0-7.15-1.79a8.3,8.3,0,0,1-3.19-4.94,37.57,37.57,0,0,1-.76-8.43V394.87h-1.33a4.45,4.45,0,0,1-3.32-1.16,4,4,0,0,1-1.14-2.95,3.87,3.87,0,0,1,1.2-2.93A4.86,4.86,0,0,1,1540.79,386.69Z" transform="translate(0 -42.84)"/><path class="0769ccb1-a037-4b9d-b610-c64031d0d431" d="M1576.26,433.2l.92-2.53-12.39-35.13a14.44,14.44,0,0,1-1.14-4.4,5.65,5.65,0,0,1,.66-2.7,5.28,5.28,0,0,1,1.83-2,4.4,4.4,0,0,1,2.42-.75,3.76,3.76,0,0,1,3.28,1.56,15.17,15.17,0,0,1,2,4.46l8.52,27.9,8.08-26a48.29,48.29,0,0,1,1.73-4.94,5.77,5.77,0,0,1,1.64-2.41,4.15,4.15,0,0,1,2.45-.62,4,4,0,0,1,2.19.68,4.57,4.57,0,0,1,1.62,1.85,5.49,5.49,0,0,1,.57,2.45q-.15.79-.48,2.24t-.81,2.95l-13.13,38.7a48.05,48.05,0,0,1-3.32,8,11.55,11.55,0,0,1-4.3,4.46,14.3,14.3,0,0,1-7.21,1.56,15.76,15.76,0,0,1-6.64-1.08,4,4,0,0,1-2.21-3.94,4.09,4.09,0,0,1,1.05-3,4.21,4.21,0,0,1,3.12-1.06,5.15,5.15,0,0,1,1.58.25,6.75,6.75,0,0,0,1.66.25,5.43,5.43,0,0,0,2.73-.58,5.12,5.12,0,0,0,1.79-2A32.75,32.75,0,0,0,1576.26,433.2Z" transform="translate(0 -42.84)"/><path class="7ce557dd-8a99-4962-a520-ea708fcc3001" d="M148.22,297.47V281.23h14.51c12.78,0,21.42-3.46,21.42-9,0-1.73-.69-4.15-2.76-9.33l-18.66-46.3H71.17L59.77,247a42.24,42.24,0,0,0-3.11,14.51q0,19.69,28,19.69h6.91v16.24H0V281.23H4.84c17.28,0,22.11-5.18,34.55-36.62L118.85,43.18h14.51l88.1,215.94c7.95,19.35,10,22.11,27.29,22.11h6.56v16.24ZM116.43,99.84,78.08,198h77.39Z" transform="translate(0 -42.84)"/><path class="7ce557dd-8a99-4962-a520-ea708fcc3001" d="M336.17,302.66c-42.84,0-72.21-33.86-72.21-82.92,0-51.48,32.13-88.45,77-88.45,30.75,0,53.9,18,53.9,41.12,0,13.82-9,23.49-21.08,23.49s-20.73-7.95-20.73-19.35c0-5.87,1.38-9.33,6.91-15.89,1.38-2.07,2.07-3.11,2.07-4.15,0-5.53-9-10.37-19.35-10.37-25.57,0-42.5,28-42.5,69.79,0,40.42,17.27,65.65,44.92,65.65,18,0,29.71-10,40.77-34.9l13.47,5.18C384.54,288.49,366.92,302.66,336.17,302.66Z" transform="translate(0 -42.84)"/><path class="7ce557dd-8a99-4962-a520-ea708fcc3001" d="M561.43,299.89c-16.24,0-24.88-6.91-30.4-24.53-14.86,17.62-36.28,27.29-60.12,27.29-30.4,0-50.1-15.89-50.1-40.42,0-33.86,28-50.79,108.49-64.61V184.15c0-30.4-14.17-38-37.32-38-16.58,0-30.75,6.22-30.75,13.47,0,1.73,7.6,12.44,7.6,18.66,0,10.37-7.95,17.62-18.66,17.62-12.09,0-20-8.29-20-21.42,0-24.88,28.68-43.19,67.37-43.19,39.73,0,64.26,10.71,64.26,54.94v69.45c0,17.28,3.46,23.84,13.13,23.84,2.07,0,10-3.8,14.86-3.8,1.73,0,3.46,1.73,3.46,4.15C593.21,289.87,577,299.89,561.43,299.89ZM529.3,212.48c-59.77,10-73.59,20.38-73.59,44.92,0,15.55,11.75,27,27.29,27,14.86,0,30.75-8.64,39.39-21.42,5.87-9,6.91-13.82,6.91-34.55Z" transform="translate(0 -42.84)"/><path class="7ce557dd-8a99-4962-a520-ea708fcc3001" d="M729,299.89V272.6c-11.06,20.73-25.91,30.06-47.68,30.06-40.08,0-68.76-34.9-68.76-84,0-49.75,29.71-87.41,68.76-87.41,20,0,34.9,7.95,47.68,25.57V78.77c0-14.86-2.42-17.28-14.86-17.28H693.75V46.64l67.72-3.8V257.39c0,21.77,2.76,25.22,21.42,25.22h6.22v14.86ZM722.09,176.2c-6.22-15.89-19.69-26.26-33.86-26.26s-27,10-32.82,25.22c-4.49,11.75-6.56,27.29-6.56,47.68,0,38.35,14.86,61.15,39,61.15,24.88,0,40.77-26.26,40.77-66.34C728.65,201.08,726.23,186.57,722.09,176.2Z" transform="translate(0 -42.84)"/><path class="7ce557dd-8a99-4962-a520-ea708fcc3001" d="M930.07,297.47V281.23h9.67c21.77,0,23.15-1,23.15-6.22,0-2.76-1.73-6.56-4.49-10.71l-51.48-72.9-40.08,58c-3.46,5.18-5.53,10.71-5.53,15.2,0,10.37,8.64,16.58,22.46,16.58h8.64v16.24H794.29V281.23h4.84c18,.34,28-8.64,41.81-27.64l56-77.74L828.84,77.39c-7.95-11.4-12.09-13.13-29-13.13h-5.87V48H900.71V64.26H887.58c-13.13,0-16.58,1-16.58,4.49,0,1.73,1.38,5.18,3.8,8.64l46,66.34,37.31-54.24c3.8-5.53,4.84-7.95,4.84-11.75,0-9.33-3.8-13.47-20.38-13.47h-8.29V48h95V64.26h-5.53c-18.31,0-28.33,6.56-47.33,32.48l-46,62.54,72.56,104c11.75,16.93,13.47,18,35.59,18h4.84v16.24Z" transform="translate(0 -42.84)"/><path class="84452822-d23b-49c7-895d-da51ffbc4fe2" d="M1201.11,208.67c-1.6-11.4-3.6-20-6.6-27.4-5-12-14.8-18.8-27-18.8-6.6,0-9.4,2.2-9.4,7.2v109c0,8.4,1.8,9.4,17.8,9.4h5.2v9.4h-68.6v-9.4h5.2c16.2,0,18-1,18-9.4v-109c0-5-2.8-7.2-9.4-7.2-13.6,0-23.2,7.6-28.4,22.2a127.34,127.34,0,0,0-5.4,24h-8.6l3-55.6h119.8l3,55.6Z" transform="translate(0 -42.84)"/><path class="84452822-d23b-49c7-895d-da51ffbc4fe2" d="M1292.3,230.87a10.61,10.61,0,0,1-11-11c0-3.8.8-5.8,3.6-9-8.4,1-15.2,7.2-20,18.4-5,11.4-7.8,26.6-7.8,41.6v10c0,8,2.2,9.4,15,9.4h3.8v7.2h-53.4v-7.2h2.8c13,0,13.2-1.4,13.2-9.4v-55.8c0-8.6-1.2-10-8.6-10h-8.2v-8.6l35.4-2.2v24.8c6.4-17.6,17.4-27.8,30-27.8,10.6,0,17.4,6.4,17.4,16C1304.5,225.47,1299.5,230.87,1292.3,230.87Z" transform="translate(0 -42.84)"/><path class="84452822-d23b-49c7-895d-da51ffbc4fe2" d="M1392.7,298.87v-16.6c-8.8,12.8-18,18.2-31.2,18.2-12,0-21.6-4.6-27-12.8-3-4.6-3.8-9.2-3.8-19.4v-43.2c0-8.6-1.2-10-8.6-10h-7.6v-8.6l35-2.2v61c0,11,.4,13,3,16.8,2.6,4,7.8,6.2,14,6.2a23.69,23.69,0,0,0,22-14c3-6.6,4.2-13.2,4.2-24.6v-24.6c0-8.6-1.2-10-8.6-10h-10.2v-8.6l37.6-2.2v70c0,12.8,1.6,14.6,12.6,14.6h5v8.6Z" transform="translate(0 -42.84)"/><path class="84452822-d23b-49c7-895d-da51ffbc4fe2" d="M1484.1,300.47a42.66,42.66,0,0,1-27.4-9.8l-7,8.2h-7v-37.8h8c4.8,20,16.8,30.8,33.6,30.8,11.8,0,20-6.6,20-16,0-8-5.6-12-21.4-15.8l-10.6-2.4c-12-2.8-16.6-4.8-21.2-9-4.4-4-7-10.6-7-18.4,0-17.4,11.6-29,29.2-29,10,0,17.2,2.4,24.4,8l5.8-7.2h7v33.6h-7c-3.2-9.2-5.4-13.2-9.8-17.6a26.58,26.58,0,0,0-19.4-8c-11,0-18.6,5.8-18.6,13.8a11.7,11.7,0,0,0,7,10.6c3.6,2,3.6,2,14.6,4.4l10,2.2c12.2,2.6,16.2,4.2,21,8.4,5.6,4.6,8.4,11.4,8.4,20.2C1516.7,288.27,1503.7,300.47,1484.1,300.47Z" transform="translate(0 -42.84)"/><path class="84452822-d23b-49c7-895d-da51ffbc4fe2" d="M1568.3,300.47c-11.8,0-19.4-4.6-22.8-13-2-4.6-2.4-9.4-2.4-23.6v-51h-16.4v-7.8c16.2-1.2,25-14.4,27-40.4h8.2v39.6h29.4v8.6h-29.4v54.6c0,15.8,2.6,20.8,11.8,20.8,9.8,0,15-9.2,15.6-27.2h8.4a42.07,42.07,0,0,1,.2,4.6C1597.9,284.67,1588.1,300.47,1568.3,300.47Z" transform="translate(0 -42.84)"/></g></g></svg>