<svg xmlns="http://www.w3.org/2000/svg" viewBox="0 0 2826.62 656.17"><defs><style>.d7f1cc07-520b-43b8-bb7e-ed9a3397966d{fill:#b9af08;}.\32 1980c5d-d762-4b04-9732-991733dc7813{fill:#124877;}.f91c9eb0-c6d0-471b-bb5d-852d40d9996f{fill:#ea940c;}.\34 439782e-1a9e-42da-8e5f-b4e4eb1370b1{fill:#9b9b9b;stroke:#9b9b9b;stroke-miterlimit:10;stroke-width:8px;}.eb62b7ed-1b20-4022-a757-afd05395eb30{fill:#595959;}</style></defs><title>logo</title><g id="31c4bbc2-10be-4cd9-9391-4c5dce2bf16d" data-name="Layer 2"><g id="9052c9b8-dd7f-474f-a46a-420a0331b7b5" data-name="Layer 3"><path class="d7f1cc07-520b-43b8-bb7e-ed9a3397966d" d="M0,518.08s40.94-33.76,79.78-32.54,56.77,22.39,56.77,22.39S99.05,485.54,60.36,520c0,0,21.66,34.46,72.91,21.34,0,0-25.25,18.19-54.38,17.49S25,545.72,0,518.08Z"/><path class="d7f1cc07-520b-43b8-bb7e-ed9a3397966d" d="M29,358.16s48.69-18.84,85.45-6.22,47.88,37.32,47.88,37.32-29.47-31.62-76.21-11.48c0,0,10.91,38,63.59,41.13,0,0-29.28,9.21-56.91-.05S45,390.87,29,358.16Z"/><path class="d7f1cc07-520b-43b8-bb7e-ed9a3397966d" d="M105.16,214.27s51.44-1.81,82.49,21.56S222,285.52,222,285.52,203.38,247,153.4,250.6c0,0-.72,38.51,48.11,58.23,0,0-30.32-.87-53.73-18.23S110.77,249.54,105.16,214.27Z"/><path class="d7f1cc07-520b-43b8-bb7e-ed9a3397966d" d="M223.51,97s50.34,12.91,73.12,44.4,17.81,57.94,17.81,57.94-6.05-42.67-55.55-53.39c0,0-12.68,37.1,28.44,70.12,0,0-29.07-9.48-46.32-33S218,132.71,223.51,97Z"/><path class="d7f1cc07-520b-43b8-bb7e-ed9a3397966d" d="M375.9,27.74S419,56.71,430,94s-2.56,60.56-2.56,60.56,8.54-42.24-34.53-68.88c0,0-24.34,30.74,3.39,75.59,0,0-24.24-18.65-32.65-46.55S358.73,59.59,375.9,27.74Z"/><path class="d7f1cc07-520b-43b8-bb7e-ed9a3397966d" d="M536.11,0c2.62,1.17,38.78,41.23,35.1,78C567.33,116.77,553,135.84,553,135.84s19.2-38.58-15.52-75.47c0,0-31.49,23.38-16.31,73.89,0,0-18.59-24.29-19.48-53.42S511.26,26.32,536.11,0Z"/><path class="d7f1cc07-520b-43b8-bb7e-ed9a3397966d" d="M698.69,29.58c2.18,1.93,25,51.34,10.11,85.19-15.71,35.66-35.5,49.34-35.5,49.34s30.57-30.71,8.16-76.66c0,0-37.84,12.41-38.64,65.2,0,0-10.6-28.92-2.5-56.91S666.41,46.86,698.69,29.58Z"/><path class="d7f1cc07-520b-43b8-bb7e-ed9a3397966d" d="M850.33,103.76c1.4,2.53,6.47,56.48-18.66,83.6-26.47,28.58-49.5,35.12-49.5,35.12s38.74-19.13,32.94-69.68c0,0-39.5-.47-57.68,49.07,0,0-.37-30.68,16.45-54.48S814.42,109.67,850.33,103.76Z"/><path class="d7f1cc07-520b-43b8-bb7e-ed9a3397966d" d="M965.82,220.63c.62,2.83-10,56.06-41.85,74.79-33.59,19.73-57.57,19.32-57.57,19.32s42.66-7.1,51.56-57.29c0,0-37.78-11.92-69.41,30.33,0,0,8.43-29.55,31.39-47.5S929.66,215.88,965.82,220.63Z"/><path class="d7f1cc07-520b-43b8-bb7e-ed9a3397966d" d="M1039.38,366c-.27,2.84-26.5,49.87-62.49,58.34C939,433.26,916.34,426,916.34,426s42.68,5.56,66.39-39.08c0,0-32.26-22-75.15,8.62,0,0,17-25.37,44.25-35.66S1006.48,351.15,1039.38,366Z"/><path class="d7f1cc07-520b-43b8-bb7e-ed9a3397966d" d="M1067,530.35c-1.16,2.64-41,39.29-77.83,35.74C950.44,562.35,931.29,548,931.29,548s38.69,19.21,75.39-16c0,0-23.55-31.66-74-16.14,0,0,24.19-18.85,53.31-19.88S1040.6,505.4,1067,530.35Z"/><polygon class="21980c5d-d762-4b04-9732-991733dc7813" points="294.02 298.78 294.02 559.09 459.64 627.5 459.64 590.35 329.11 537.78 329.11 349.08 493.8 419.45 493.8 604.11 493.7 604.07 493.7 641.57 528.89 656.11 528.89 394.35 294.02 298.78"/><polygon class="f91c9eb0-c6d0-471b-bb5d-852d40d9996f" points="778.96 298.85 778.96 559.16 613.35 627.57 613.35 590.42 743.87 537.85 743.87 349.15 579.19 419.52 579.19 604.18 579.28 604.14 579.28 641.64 544.1 656.17 544.1 394.42 778.96 298.85"/><circle class="21980c5d-d762-4b04-9732-991733dc7813" cx="430.39" cy="280.32" r="42.17"/><circle class="f91c9eb0-c6d0-471b-bb5d-852d40d9996f" cx="640.34" cy="280.32" r="42.17"/></g><g id="0a9ca7e1-334f-499f-9f30-87f4ec0d6b84" data-name="Layer 4"><path class="21980c5d-d762-4b04-9732-991733dc7813" d="M1321.87,351.09V336.76c0-.27-.2-1.66,0-1.87s1.25,0,1.48,0h8.7c6.91,0,14.3.24,20.68-2.81,2.47-1.18,5-3.17,5-6.15A13.09,13.09,0,0,0,1357,322c-.58-1.84-1.28-3.64-2-5.42q-1.65-4.12-3.32-8.23l-6.69-16.6-6.3-15.62-1.86-4.62c-.13-.32-.25-1-.55-1.11a6.24,6.24,0,0,0-2,0h-87.91c-.27,0-1.19-.16-1.43,0s-.19.5-.24.62l-.77,2-2.67,7.13-6.22,16.58c-2.08,5.55-4.26,11.14-4.56,17.13-.34,6.67,2,13,7.82,16.66,6.31,3.94,14.21,4.34,21.43,4.34h4.47c.15,0,1-.11,1.07,0s0,.29,0,.36c.22,2.39,0,4.91,0,7.31v7.85c0,.75.09.69-.61.69h-90.22c-.71,0-.58,0-.58-.76V338a18.67,18.67,0,0,1,0-2.8c0-.11,0-.25,0-.31s1.27,0,1.48,0h3.4a44.17,44.17,0,0,0,8.12-.62,20.06,20.06,0,0,0,11.89-7.05c4.74-5.66,7.73-12.8,10.59-19.53,1.45-3.42,2.83-6.87,4.2-10.33l1.82-4.62,3.13-7.95,4.28-10.84,5.22-13.22,5.93-15,6.5-16.47,6.82-17.28,7-17.76,7-17.66,6.7-17,6.3-16,5.65-14.33,4.86-12.32,3.84-9.74,2.62-6.65.8-2a4.43,4.43,0,0,1,.43-1.08c.3-.36.95-.17,1.44-.17h12.22c.18,0,.74-.1.89,0s.2.5.25.62l1.6,3.92,2.89,7.09,4,9.9,5,12.26,5.77,14.13,6.41,15.71,6.85,16.8,7.09,17.38,7.22,17.7,7.11,17.43,6.9,16.9,6.47,15.87,5.85,14.35,5.11,12.53,4.15,10.18,3.06,7.5,1.77,4.34c1.13,2.77,2.27,5.55,3.5,8.28,2.26,5,4.93,10.65,10.28,13s11.51,1.77,17.12,1.77h2.15c.16,0,1-.12,1.12,0s0,1.28,0,1.5v12.7c0,.32.22,1.72,0,2s-.79,0-1,0h-106ZM1290.14,153.8l-38.28,98h77.26Z"/><path class="21980c5d-d762-4b04-9732-991733dc7813" d="M1509.49,356.26a70.9,70.9,0,0,1-32.51-7.59,67.38,67.38,0,0,1-23.91-20.95,84.6,84.6,0,0,1-13.49-32,113.54,113.54,0,0,1-1-39.3,95.63,95.63,0,0,1,11.63-34.09,76.41,76.41,0,0,1,22.3-24.43A71.67,71.67,0,0,1,1503.07,186c12.68-1.84,26.08-.68,37.95,4.32,10.35,4.36,19.76,11.93,24.31,22.42,4.41,10.18,4.14,23.81-4.51,31.74s-23.71,6.82-30.74-2.54a20.36,20.36,0,0,1-3.26-16.23,21,21,0,0,1,3.88-7.92c1.17-1.6,2.51-3.07,3.57-4.75a4.88,4.88,0,0,0,1.05-3.3c-.31-2.48-2.29-4.41-4.28-5.73a24.47,24.47,0,0,0-9.32-3.48,32.88,32.88,0,0,0-15.84,1.11c-9.24,3-16.32,10.21-21.13,18.46-6.29,10.78-9.23,23.33-10.45,35.65-1.38,13.86-.95,28.27,2.6,41.79,2.69,10.28,7.43,20.41,15.35,27.7a38.44,38.44,0,0,0,26.21,10,36.44,36.44,0,0,0,14.43-2.75,35.88,35.88,0,0,0,12-8.76,71,71,0,0,0,10.48-15.51q1.31-2.51,2.51-5.09l.62-1.35c.14-.31.31-1,.56-1.24s0-.07.3,0a7.4,7.4,0,0,1,1.68.65l2.67,1,8.85,3.41c-4.78,11.79-10.6,23.61-19.26,33.07a52.11,52.11,0,0,1-25.49,15.51A73.37,73.37,0,0,1,1509.49,356.26Z"/><path class="21980c5d-d762-4b04-9732-991733dc7813" d="M1734.37,353.5c-16.21,0-24.83-6.9-30.35-24.49a76.08,76.08,0,0,1-21.2,17.48,77.94,77.94,0,0,1-26.07,8.82,79.86,79.86,0,0,1-27.53-.44,50.4,50.4,0,0,1-20.74-8.93,36.3,36.3,0,0,1-12.06-16.07,46.17,46.17,0,0,1,.63-31.14,39.38,39.38,0,0,1,6.67-10.93,53.59,53.59,0,0,1,10.81-9.43,94.08,94.08,0,0,1,15.37-8.22,180.54,180.54,0,0,1,20.32-7.22c8.46-2.51,17-4.59,25.67-6.45q7.5-1.62,15-3,4-.76,8.08-1.47l2-.36c.23,0,1.14-.07,1.27-.24s0-.54,0-.66c0-4.58,0-9.15,0-13.73-.07-7.49-.92-15.36-4.39-22.12A24.71,24.71,0,0,0,1686,203.54c-5.79-2.61-12.28-3.34-18.57-3.5-9-.22-18.94.84-26.88,5.47-2.47,1.44-5.15,3.5-6,6.39a3.6,3.6,0,0,0,.13,2.67c.55,1.25,1.25,2.44,1.9,3.64a55.12,55.12,0,0,1,4.7,10.21,15.88,15.88,0,0,1-.73,10.69c-3.15,7.52-11.17,11-19,10.52a18.75,18.75,0,0,1-16.65-11.9c-2.54-6.57-2-14.29.49-20.79a39,39,0,0,1,11.88-15.78,64.74,64.74,0,0,1,20.54-11,99.76,99.76,0,0,1,27.14-4.87,144,144,0,0,1,24.17.88,73.3,73.3,0,0,1,18.84,4.59,38.73,38.73,0,0,1,23.25,24.68,74.05,74.05,0,0,1,3.45,22.42c0,2.33,0,4.67,0,7v60.85c0,3.28,0,6.57.18,9.85.36,5.57,1.17,13.21,6.68,16.21a11.11,11.11,0,0,0,7.13,1.23c3.64-.82,7.05-2.48,10.72-3.27,1.73-.37,3.83-.86,5.28.45s1.57,3.5,1.16,5.37c-.78,3.59-3.3,6.59-6,8.92C1752.95,350.37,1743.37,353.5,1734.37,353.5Zm-32.08-87.26c-11,1.85-22.09,3.91-32.92,6.76a110.61,110.61,0,0,0-21.69,7.69,38,38,0,0,0-12.6,9.51,27.23,27.23,0,0,0-5.53,12.24c-1.26,6.65-1.13,13.9,1.68,20.14a26.5,26.5,0,0,0,20.8,15.13c10.38,1.38,21.3-2.28,29.9-8a46.67,46.67,0,0,0,17.22-19.88c3.13-7.23,3-15.53,3.12-23.26.06-6.15,0-12.3,0-18.46Z"/><path class="21980c5d-d762-4b04-9732-991733dc7813" d="M1901.65,353.5V326.25c-5.63,10.56-13.5,20.18-24.52,25.35-10.37,4.87-22.58,5.63-33.78,3.79a62,62,0,0,1-28.5-12.66,72.85,72.85,0,0,1-20-25.71,99.69,99.69,0,0,1-9.09-35.67,116,116,0,0,1,3.83-39.89,89.78,89.78,0,0,1,15.88-31.69A66.64,66.64,0,0,1,1830.64,190a60.74,60.74,0,0,1,33-4.19,51.69,51.69,0,0,1,17,5.5,57.14,57.14,0,0,1,14.63,11.48,82.26,82.26,0,0,1,6.45,7.87v-66c0-4.19,0-8.38,0-12.57a44.82,44.82,0,0,0-.66-8.75,9.93,9.93,0,0,0-2.34-5c-2.91-3-8-2.8-11.86-2.81h-19.22c-.17,0-.95.12-1.08,0s0-.64,0-.79V102.25c0-.28-.17-1.26,0-1.5s.59-.1.81-.11l18.53-1,28.45-1.6,18.87-1.06.94-.05V310.12a83.94,83.94,0,0,0,.78,14.42c.5,2.88,1.41,5.89,3.58,8s5.19,2.87,8.09,3.28a80.22,80.22,0,0,0,11.12.47h2.75c.2,0,1.13-.14,1.27,0s0,.69,0,.81V349.6c0,.27.14,1.34-.05,1.49s-.92,0-1.12,0l-15.41.62-23.16.93-17.6.71ZM1894.76,230c-4.42-11.3-13.34-21.4-25.23-24.94-11.2-3.34-23,.38-31.24,8.39-8.68,8.42-12.39,20.15-14.39,31.78a159.81,159.81,0,0,0-2,20.13,177.65,177.65,0,0,0,.18,21.85c.89,11.11,3.22,22.52,8.83,32.28,4.27,7.43,10.66,13.64,18.89,16.42a33.3,33.3,0,0,0,24.92-1.48c8.16-4,14.07-11.35,18-19.36,5.24-10.61,7.5-22.55,8.29-34.28.94-14.15.11-28.84-3.56-42.58A72.25,72.25,0,0,0,1894.76,230Z"/><path class="21980c5d-d762-4b04-9732-991733dc7813" d="M2102.39,351.09V335.76c0-.6-.21-.88.41-.89,1.36,0,2.72,0,4.08,0,3.37,0,6.75,0,10.12,0a90.63,90.63,0,0,0,12.37-.64c1.65-.25,3.78-.57,4.92-1.94.92-1.1.95-2.82.84-4.18-.28-3.66-2.51-7.3-4.55-10.24-1.43-2.06-2.89-4.09-4.33-6.14l-9.18-13-11.59-16.42-11.69-16.56-9.44-13.37-4.84-6.86-.22-.31-6.83,9.89-14.69,21.28-13.79,20c-3.31,4.8-7,9.5-8.9,15.06-1.89,5.41-1.94,11.57,1.76,16.25,3.57,4.52,9.45,6.42,15,7a118.53,118.53,0,0,0,12.48.22c.42,0,.39-.08.5.19a5.28,5.28,0,0,1,0,1.59V349c0,.33.21,1.91,0,2.13s-.76,0-.91,0h-96.39c-.08,0-.56.07-.63,0s0-.76,0-.89V335.8c0-.13-.1-.83,0-.93s.47,0,.57,0H1969c2.26,0,4.52.06,6.78-.09a35.29,35.29,0,0,0,15.56-4.68,55.3,55.3,0,0,0,13.42-11.78c4.09-4.71,7.73-9.76,11.37-14.82l11.29-15.68L2043,266.24l15.14-21,9.8-13.61,1-1.45c.06-.09.34-.36.34-.47s-.26-.38-.32-.47l-.88-1.27-8.19-11.85-13.35-19.32L2031,174.31,2016.25,153l-10.87-15.73c-1.61-2.33-3.19-4.68-4.84-7-2.69-3.75-5.72-7.52-10-9.54-4.67-2.22-10.14-2.34-15.2-2.42-2.14,0-4.29,0-6.43,0h-1.51c-.13,0-.76.09-.86,0s-.06-.46-.06-.65V103.26c0-.18-.13-1,0-1.18s.39,0,.5,0h105.29c.12,0,.68-.08.78,0,.25.23,0,2,0,2.31v12.34c0,.3.16,1.17,0,1.44s-.17.12-.46.12h-11.39c-2.24,0-4.49,0-6.73.08a33.4,33.4,0,0,0-7.72.87,4.48,4.48,0,0,0-3.07,2.05c-.85,1.81.21,4.13,1,5.77a40.34,40.34,0,0,0,3.6,5.89l10.07,14.53,15.27,22,13.73,19.82,5.74,8.28,5.18-7.52,11.69-17L2122.41,155l7.5-10.91a37,37,0,0,0,4.39-7.47,16.55,16.55,0,0,0,.08-10.64c-2.6-7.75-13.2-7.67-19.83-7.67h-7.13c-.14,0-.81.09-.9,0s0-.62,0-.72V103.12c0-.18-.11-.84,0-1s1.2-.07,1.5-.07h90a15.54,15.54,0,0,1,3.07,0c.27.06.17-.06.28.12s0,.9,0,1.13v14.35c0,.09.07.54,0,.61s-1.32,0-1.53,0h-2.75c-7.46,0-14.74.89-21.38,4.53-8.89,4.88-15.7,13.07-21.85,20.93-2.87,3.66-5.6,7.43-8.35,11.18l-10.3,14-13.4,18.23-12.17,16.56-6.62,9c-.29.39-.31.33-.06.71.5.75,1,1.48,1.55,2.23l6.83,9.79,10.49,15,12.59,18,13.13,18.81,12.1,17.34,9.54,13.67,5.34,7.66c2.95,4.22,5.78,8.64,9.4,12.33a19,19,0,0,0,7.48,4.87,38.73,38.73,0,0,0,11,1.53c4.16.15,8.32.11,12.49.11.31,0,.51-.08.63.12s0,.9,0,1.13v14.35c0,.81-.1.61-.86.61H2102.39Z"/><path class="d7f1cc07-520b-43b8-bb7e-ed9a3397966d" d="M2398.66,251.2c-1.29-9.21-3-18.46-6.22-27.22-2.76-7.49-7.3-14.29-14.27-18.44a29.69,29.69,0,0,0-10.68-3.8,32.72,32.72,0,0,0-6.08-.36,14.47,14.47,0,0,0-5.25,1,6.1,6.1,0,0,0-3,2.58,8.63,8.63,0,0,0-.91,4.19c0,.28,0,.56,0,.84V325.06a35.55,35.55,0,0,0,.23,5.58,5.91,5.91,0,0,0,2.35,4.19c1.88,1.27,4.38,1.52,6.57,1.71,3.49.31,7,.29,10.51.29h4.55c.11,0,.44-.06.53,0s.06.15.06.32v8.91c0,.17.1.71,0,.85s-.1,0-.24.05c-2.21.11-4.45,0-6.66,0h-66.83c-.09,0-.21,0-.26,0s0-.66,0-.78v-8.94c0-.11,0-.33,0-.38s1,0,1.16,0h3.85c3.5,0,7,0,10.5-.27,2.24-.18,4.79-.41,6.74-1.64a5.73,5.73,0,0,0,2.47-4.06,32.23,32.23,0,0,0,.27-5.69V210.05c0-.31,0-.61,0-.92,0-2.74-.92-5.31-3.49-6.59a12.93,12.93,0,0,0-5-1.13,33.48,33.48,0,0,0-5.9.2,29.5,29.5,0,0,0-10.1,3c-6.64,3.44-11.35,9.48-14.43,16.17a71.9,71.9,0,0,0-4,11.67c-1.21,4.56-2.15,9.19-2.91,13.85q-.31,1.91-.59,3.82c0,.18-.05,1-.19,1a.84.84,0,0,1-.26,0h-9l.35-6.43.82-15.15,1-17.93.8-14.83.23-4.29c0-.2-.07-1.19.09-1.33s.88,0,1.05,0H2403.7c.15,0,.86-.11,1,0s0,.24,0,.3l.06,1.13.6,11.09.93,17.19.93,17.28.61,11.35.09,1.62h-9.28Z"/><path class="d7f1cc07-520b-43b8-bb7e-ed9a3397966d" d="M2497,275.14a11.79,11.79,0,0,1-9.63-4.64,13.54,13.54,0,0,1-1.86-11,14.54,14.54,0,0,1,3.51-6c-9.67,1.15-16.3,8.89-20.35,17.18-5.29,10.81-7.88,23-9,34.88-.73,7.64-.61,15.3-.61,23,0,2.33-.06,5,1.21,7.08,1.46,2.37,4.5,2.93,7.05,3.22a102.23,102.23,0,0,0,11.47.32c.39,0,.54-.13.54.26v6.47c0,.15.11.92,0,1s-.12,0-.15,0a5,5,0,0,1-1.16,0h-55.61c-.09,0-.6.07-.67,0s0-.7,0-.82v-6.59c0-.42,0-.35.43-.35h2.3c2.15,0,4.3,0,6.44-.17a16.81,16.81,0,0,0,4.73-.85,4.61,4.61,0,0,0,2.36-1.81,7.2,7.2,0,0,0,.87-3.17c.28-3.05.11-6.22.11-9.28V271.49q0-1.29,0-2.59a35.94,35.94,0,0,0-.28-5.33,6.7,6.7,0,0,0-1.51-3.71c-1.88-2-5.33-1.76-7.8-1.76h-8.26c-.3,0-.22,0-.27-.19a8.71,8.71,0,0,1,0-1.57v-6.85c0-.11-.07-.58,0-.66s.86-.05,1-.06l15.87-1,18.18-1.13,3.11-.19V273.2a59.35,59.35,0,0,1,11.18-19.58,30.92,30.92,0,0,1,15-9.63c5.84-1.49,12.67-1,17.79,2.39s7.5,9.52,7.06,15.6a15.35,15.35,0,0,1-3.28,8.76,12.28,12.28,0,0,1-7.49,4.22A14.55,14.55,0,0,1,2497,275.14Z"/><path class="d7f1cc07-520b-43b8-bb7e-ed9a3397966d" d="M2605.3,348.48v-17.9a53.61,53.61,0,0,1-11.74,12.8,33.57,33.57,0,0,1-13.61,6.07,44.39,44.39,0,0,1-17.22-.09,33.08,33.08,0,0,1-14.83-6.9,25.19,25.19,0,0,1-7.87-11.2c-1.64-5-1.61-10.55-1.61-15.78q0-1.85,0-3.69V271.73c0-1.56,0-3.13,0-4.69a15.5,15.5,0,0,0-.9-5.86,4.6,4.6,0,0,0-3-2.56,18.84,18.84,0,0,0-5.4-.52h-7c-.16,0-1,.12-1.14,0s0-.93,0-1.09v-7.65c0-.59-.06-.54.49-.58l6.51-.41,10.91-.69,11.29-.71,7.49-.47,1.07-.07v65.26c0,1.67,0,3.34,0,5a39.13,39.13,0,0,0,.73,8.43,15.61,15.61,0,0,0,2.38,5.07,14.94,14.94,0,0,0,8.39,5.9,26.11,26.11,0,0,0,21.54-3.47c5.84-4,9.34-10.18,11.28-16.86s2.24-13.67,2.24-20.56q0-5.34,0-10.68V270.91c0-1.17,0-2.33,0-3.5,0-2.31,0-5.26-1.47-7.2-1.29-1.69-3.63-2-5.6-2.06-1.8-.1-3.62-.05-5.43-.05h-6.94c-.15,0-.6.08-.74,0s0,0-.08-.17a5.29,5.29,0,0,1,0-1v-7a4.2,4.2,0,0,1,0-1c.06-.21,0-.15.25-.17s.74,0,1.11-.06l10.93-.64,15.22-.89,11.33-.66,1.71-.1v75.07a64.24,64.24,0,0,0,.31,7.72c.32,2.64,1,5.53,3.49,7a10.63,10.63,0,0,0,3.94,1.2,43,43,0,0,0,5.85.29h4.09c.19,0,1.16-.14,1.3,0s0,.83,0,1v7.17c0,.19.12,1,0,1.12s-.66,0-.8.05l-2.46.09-8.34.32-10.6.41-9.9.38-6.28.24Z"/><path class="d7f1cc07-520b-43b8-bb7e-ed9a3397966d" d="M2703.88,350.21a46.13,46.13,0,0,1-23-6,50.1,50.1,0,0,1-5.19-3.42c-.27-.21-1.2-1.13-1.46-1s-.33.39-.42.49l-4.11,4.81-2,2.4-.66.77c-.07.08-.17.27-.27.32a1.38,1.38,0,0,1-.45,0H2660c-.13,0-.65.08-.75,0s0-.23,0-.33V309c0-.29-.14-1.2.1-1.31a2.63,2.63,0,0,1,.84,0h5a14.9,14.9,0,0,1,2.49,0s.14,0,.18,0,.22.88.27,1.06q.35,1.36.75,2.71a56.69,56.69,0,0,0,3.88,9.75,37.87,37.87,0,0,0,11.51,13.7,33.12,33.12,0,0,0,16,5.81c6.46.62,13.45-.26,18.8-4.21a16,16,0,0,0,6.5-14.47,11.51,11.51,0,0,0-2-5.52,15.29,15.29,0,0,0-5-4.3,41.92,41.92,0,0,0-8.44-3.53c-2.73-.87-5.5-1.61-8.29-2.24-3.59-.81-7.19-1.62-10.78-2.44s-7.15-1.72-10.64-2.87a38,38,0,0,1-7.41-3.23,27,27,0,0,1-5.76-4.51,23,23,0,0,1-5.14-8.94,35.34,35.34,0,0,1,.11-20.93,28.34,28.34,0,0,1,9.73-14.1,32,32,0,0,1,16.95-6.13,43.15,43.15,0,0,1,21.71,3.61,39.44,39.44,0,0,1,4.71,2.66q1.18.77,2.31,1.62c.14.1.67.63.82.61s.08-.11.11-.13a4,4,0,0,0,.55-.68l.88-1.1,2.22-2.76,1.92-2.38c.21-.26.39-.64.7-.71a4.36,4.36,0,0,1,1,0h5.06c.21,0,1.27-.14,1.41,0s0,.51,0,.61v34.38a7.31,7.31,0,0,1,0,1c0,.25,0,.2-.27.2h-6.2a3.56,3.56,0,0,1-1,0s-.1,0-.12,0-.22-.63-.27-.77l-.33-.93c-.66-1.84-1.36-3.68-2.13-5.48a38.52,38.52,0,0,0-4.4-7.88,33.88,33.88,0,0,0-6.88-6.87,29.44,29.44,0,0,0-21.17-5.48c-6,.71-12.44,3.47-15.16,9.21a12.63,12.63,0,0,0-.78,8.66,12.83,12.83,0,0,0,6.45,7.91,39.21,39.21,0,0,0,4.26,2.11,44.75,44.75,0,0,0,5.9,1.59c4.62,1,9.26,2,13.89,3.06a139.49,139.49,0,0,1,15.71,3.92,30.32,30.32,0,0,1,12.55,8.16c4.91,5.39,6.66,12.69,6.6,19.82a34.58,34.58,0,0,1-4.62,17.5,30.18,30.18,0,0,1-12.53,11.45A40.56,40.56,0,0,1,2703.88,350.21Z"/><path class="d7f1cc07-520b-43b8-bb7e-ed9a3397966d" d="M2794.7,350.21c-6.69,0-13.74-1.4-18.92-5.91a23.31,23.31,0,0,1-7.13-12.63,46.08,46.08,0,0,1-.86-7c-.22-3.62-.25-7.24-.27-10.87,0-2.32,0-4.65,0-7v-50.5c0-.1.06-.47,0-.55s-.33,0-.45,0h-16.49a2.29,2.29,0,0,1-.61,0c-.09,0-.1,0-.14,0s0-.61,0-.73v-6.6a3.39,3.39,0,0,1,0-.91s0-.11,0-.14.81-.07,1-.09a30,30,0,0,0,3.78-.63,25.3,25.3,0,0,0,6.74-2.62,27.71,27.71,0,0,0,10.21-10.69,57.61,57.61,0,0,0,6-18.17c.34-1.87.61-3.75.84-5.64q.19-1.52.33-3,.07-.76.14-1.52c0-.21,0-1.07.11-1.18s.51,0,.61,0h7.81c.3,0,.34-.08.41.13a3.11,3.11,0,0,1,0,.87v40.83a2.51,2.51,0,0,0,0,.8c.11.23,1,.09,1.31.09h29.73c.1,0,.59-.07.66,0s0,.28,0,.33v7.9c0,.18.1.95,0,1s-.67,0-.8,0h-29.8a3.19,3.19,0,0,0-1,0c-.16.07,0,0-.1.11a2.25,2.25,0,0,0,0,.67v55.7c0,3,0,6,.19,9.06a34,34,0,0,0,1.42,8.57,10.72,10.72,0,0,0,3.15,5,10.27,10.27,0,0,0,5.35,2.09,16.44,16.44,0,0,0,6.85-.46c4.69-1.45,7.66-5.54,9.41-9.93a42.5,42.5,0,0,0,2.38-9.39c.29-1.94.49-3.89.63-5.84q.11-1.6.17-3.2c0-.45,0-.38.39-.38h7.89c.15,0,.61-.08.74,0s.09.32.11.51q.07.82.11,1.65c0,.85.05,1.7.05,2.55a48.73,48.73,0,0,1-3.57,19.17,29.2,29.2,0,0,1-28.36,18.61Z"/><line class="4439782e-1a9e-42da-8e5f-b4e4eb1370b1" x1="1160.06" y1="430.11" x2="2826.62" y2="430.11"/><path class="eb62b7ed-1b20-4022-a757-afd05395eb30" d="M1199.91,487.57h-22.32v16.11h18.66a5.19,5.19,0,0,1,3.87,1.31,4.8,4.8,0,0,1,1.28,3.5,4.69,4.69,0,0,1-1.3,3.48,5.25,5.25,0,0,1-3.85,1.29h-18.66V534q0,4-1.58,5.87a5.3,5.3,0,0,1-8.17,0q-1.58-1.93-1.58-5.84V485.55a11.8,11.8,0,0,1,.73-4.49,4.82,4.82,0,0,1,2.27-2.54,8.62,8.62,0,0,1,3.95-.79h26.71a5.39,5.39,0,0,1,4,1.35,4.87,4.87,0,0,1,1.32,3.54,4.92,4.92,0,0,1-1.32,3.59A5.39,5.39,0,0,1,1199.91,487.57Z"/><path class="eb62b7ed-1b20-4022-a757-afd05395eb30" d="M1249,517.95a30.9,30.9,0,0,1-1.45,9.67,21.9,21.9,0,0,1-4.2,7.61,18.52,18.52,0,0,1-6.56,4.88,20.92,20.92,0,0,1-8.59,1.7,20.33,20.33,0,0,1-8.51-1.72,18.91,18.91,0,0,1-6.54-4.92,21.81,21.81,0,0,1-4.2-7.56,30.81,30.81,0,0,1-1.43-9.65,31.19,31.19,0,0,1,1.45-9.75,21.8,21.8,0,0,1,4.16-7.56,18.31,18.31,0,0,1,6.56-4.83,22.24,22.24,0,0,1,17.1,0,18.68,18.68,0,0,1,6.6,4.9,21.73,21.73,0,0,1,4.18,7.56A31,31,0,0,1,1249,517.95Zm-10.46,0q0-7.17-2.8-11.17a8.76,8.76,0,0,0-7.54-4,8.6,8.6,0,0,0-5.38,1.78,11.23,11.23,0,0,0-3.59,5.26,26.73,26.73,0,0,0,0,16.16,11.46,11.46,0,0,0,3.55,5.26,8.5,8.5,0,0,0,5.44,1.83,8.75,8.75,0,0,0,7.54-4Q1238.52,525,1238.52,517.95Z"/><path class="eb62b7ed-1b20-4022-a757-afd05395eb30" d="M1290.73,526.46a15.74,15.74,0,0,1-2.1,8.31,13.12,13.12,0,0,1-6.2,5.24,25,25,0,0,1-10,1.78,22,22,0,0,1-9.62-1.93,14.25,14.25,0,0,1-5.92-4.83,10.51,10.51,0,0,1-1.91-5.82,4.81,4.81,0,0,1,1.22-3.31,4,4,0,0,1,3.09-1.37,3.36,3.36,0,0,1,2.52.9,9.89,9.89,0,0,1,1.68,2.54,12.38,12.38,0,0,0,3.83,4.68,10.53,10.53,0,0,0,6.09,1.55,8.08,8.08,0,0,0,5.13-1.57,4.51,4.51,0,0,0,2-3.59,5.07,5.07,0,0,0-2.08-4.51,23.94,23.94,0,0,0-6.85-2.71,52.26,52.26,0,0,1-8.76-3.16,14.61,14.61,0,0,1-5.4-4.36,10.81,10.81,0,0,1-2-6.66,12.8,12.8,0,0,1,1.87-6.66,13.27,13.27,0,0,1,5.51-5,19.08,19.08,0,0,1,8.8-1.87,25.85,25.85,0,0,1,7.27.95,17.13,17.13,0,0,1,5.38,2.54,11.84,11.84,0,0,1,3.28,3.52,7.5,7.5,0,0,1,1.13,3.78,4.66,4.66,0,0,1-1.2,3.31,4.44,4.44,0,0,1-3.42,1.29,3.89,3.89,0,0,1-2.73-1,19.46,19.46,0,0,1-2.58-3.09,9.86,9.86,0,0,0-2.79-2.75,8,8,0,0,0-4.35-1,7.8,7.8,0,0,0-4.69,1.35,4,4,0,0,0-1.87,3.37,3.81,3.81,0,0,0,1.37,3,10.89,10.89,0,0,0,3.7,2q2.33.77,6.41,1.89a31.89,31.89,0,0,1,7.92,3.18,13.7,13.7,0,0,1,4.66,4.36A10.54,10.54,0,0,1,1290.73,526.46Z"/><path class="eb62b7ed-1b20-4022-a757-afd05395eb30" d="M1300.11,495.13h1.14v-7q0-2.84.13-4.45a7.17,7.17,0,0,1,.74-2.77,5,5,0,0,1,1.76-2,4.56,4.56,0,0,1,2.56-.75,4.87,4.87,0,0,1,3.59,1.68,5.16,5.16,0,0,1,1.35,2.73,27.89,27.89,0,0,1,.29,4.58v8h3.82a4.54,4.54,0,0,1,3.38,1.18,4.14,4.14,0,0,1,1.16,3,3.48,3.48,0,0,1-1.66,3.31,9.72,9.72,0,0,1-4.75.95h-1.95v21.57a39.44,39.44,0,0,0,.17,4.23,4.59,4.59,0,0,0,.92,2.41,2.93,2.93,0,0,0,2.42.92,11.55,11.55,0,0,0,2.48-.37,11.53,11.53,0,0,1,2.44-.37,3,3,0,0,1,2.27,1.14,4.09,4.09,0,0,1,1,2.81,4.72,4.72,0,0,1-2.75,4.34q-2.75,1.5-7.9,1.5-4.89,0-7.4-1.85a8.59,8.59,0,0,1-3.3-5.11,38.89,38.89,0,0,1-.78-8.72V503.6h-1.37a4.6,4.6,0,0,1-3.43-1.2,4.17,4.17,0,0,1-1.18-3.05,4,4,0,0,1,1.24-3A5,5,0,0,1,1300.11,495.13Z"/><path class="eb62b7ed-1b20-4022-a757-afd05395eb30" d="M1356.29,520.83h-20.38a17.19,17.19,0,0,0,1.43,7,10.69,10.69,0,0,0,3.7,4.6,9,9,0,0,0,5.09,1.55,11.15,11.15,0,0,0,3.42-.49,10.57,10.57,0,0,0,3-1.55,23.2,23.2,0,0,0,2.67-2.26q1.22-1.2,3.17-3.27a3.16,3.16,0,0,1,2.29-.77,3.52,3.52,0,0,1,2.59,1,3.77,3.77,0,0,1,1,2.79,8.31,8.31,0,0,1-1.11,3.72,14.27,14.27,0,0,1-3.34,4.08,18.35,18.35,0,0,1-5.61,3.24,21.69,21.69,0,0,1-7.77,1.29q-10,0-15.61-6.45t-5.57-17.49a32.53,32.53,0,0,1,1.37-9.65,22,22,0,0,1,4-7.63,17.41,17.41,0,0,1,6.49-4.88,21,21,0,0,1,8.55-1.7,18.51,18.51,0,0,1,10.48,2.9,18.24,18.24,0,0,1,6.54,7.5,21.7,21.7,0,0,1,2.17,9.37q0,4.43-2.25,5.74A12.68,12.68,0,0,1,1356.29,520.83Zm-20.38-6.66h18.89q-.38-6-2.88-9a8.17,8.17,0,0,0-6.58-3,7.92,7.92,0,0,0-6.39,3Q1336.44,508.24,1335.91,514.17Z"/><path class="eb62b7ed-1b20-4022-a757-afd05395eb30" d="M1384,524.87v9.8a8.19,8.19,0,0,1-1.49,5.35,4.71,4.71,0,0,1-3.78,1.78,4.54,4.54,0,0,1-3.7-1.8,8.36,8.36,0,0,1-1.45-5.33V502q0-7.91,5.08-7.91a4.06,4.06,0,0,1,3.74,1.85,11.19,11.19,0,0,1,1.26,5.46,20.3,20.3,0,0,1,3.83-5.46,7.35,7.35,0,0,1,5.25-1.85,12.27,12.27,0,0,1,6.37,1.85,5.55,5.55,0,0,1,3.09,4.9,5,5,0,0,1-1.32,3.54,3.88,3.88,0,0,1-2.84,1.4,11.88,11.88,0,0,1-2.77-.79,11.6,11.6,0,0,0-3.87-.79,5.26,5.26,0,0,0-3.74,1.35,8.87,8.87,0,0,0-2.25,4,31.16,31.16,0,0,0-1.11,6.34Q1384,519.58,1384,524.87Z"/><path class="eb62b7ed-1b20-4022-a757-afd05395eb30" d="M1413.14,488.64a5.14,5.14,0,0,1-3.72-1.5,6.36,6.36,0,0,1,0-8.36,5,5,0,0,1,3.68-1.61,5.11,5.11,0,0,1,3.59,1.46,5.54,5.54,0,0,1,1.56,4.25,5.72,5.72,0,0,1-1.53,4.23A5,5,0,0,1,1413.14,488.64Zm5.15,12.12v33.9a8.21,8.21,0,0,1-1.49,5.33,4.69,4.69,0,0,1-3.78,1.8,4.49,4.49,0,0,1-3.72-1.85,8.48,8.48,0,0,1-1.43-5.29V501.1a8.18,8.18,0,0,1,1.43-5.24,4.57,4.57,0,0,1,3.72-1.76,4.73,4.73,0,0,1,3.78,1.76A7.36,7.36,0,0,1,1418.3,500.76Z"/><path class="eb62b7ed-1b20-4022-a757-afd05395eb30" d="M1438.52,500.59V502a19.12,19.12,0,0,1,6-6,14.56,14.56,0,0,1,7.5-1.91,13.65,13.65,0,0,1,7.36,2,12.32,12.32,0,0,1,4.85,5.71,14.85,14.85,0,0,1,1.34,4.64,54.17,54.17,0,0,1,.31,6.36v21.83a8.44,8.44,0,0,1-1.43,5.33,4.53,4.53,0,0,1-3.72,1.8,4.58,4.58,0,0,1-3.78-1.85,8.4,8.4,0,0,1-1.45-5.29V515.11q0-5.8-1.43-8.87t-5.71-3.07a7.83,7.83,0,0,0-5.08,1.87,10.74,10.74,0,0,0-3.36,5.13q-.76,2.62-.76,9.8v14.7a8.27,8.27,0,0,1-1.47,5.35,4.69,4.69,0,0,1-3.8,1.78,4.51,4.51,0,0,1-3.7-1.85,8.39,8.39,0,0,1-1.45-5.29v-33.9a8,8,0,0,1,1.3-5,4.27,4.27,0,0,1,3.55-1.65,4.41,4.41,0,0,1,2.48.73,5.06,5.06,0,0,1,1.77,2.19A8.56,8.56,0,0,1,1438.52,500.59Z"/><path class="eb62b7ed-1b20-4022-a757-afd05395eb30" d="M1514.57,502.69v34.07a40,40,0,0,1-1.11,10.05,16.69,16.69,0,0,1-3.55,7,14.58,14.58,0,0,1-6.39,4.08,31.11,31.11,0,0,1-9.83,1.33,25.69,25.69,0,0,1-9.62-1.7,16.38,16.38,0,0,1-6.53-4.38,8.47,8.47,0,0,1-2.29-5.52,4.85,4.85,0,0,1,1.3-3.5,4.18,4.18,0,0,1,3.13-1.35,5,5,0,0,1,4,2.28q.84,1.16,1.74,2.34a10.69,10.69,0,0,0,2,2,7.34,7.34,0,0,0,2.61,1.25,13.67,13.67,0,0,0,3.51.41,12.83,12.83,0,0,0,6.28-1.27,6.91,6.91,0,0,0,3.13-3.54,15.78,15.78,0,0,0,1-4.88q.15-2.6.23-8.36a18.06,18.06,0,0,1-5.55,5.76,13.81,13.81,0,0,1-7.5,2,14.56,14.56,0,0,1-9.14-3,18.94,18.94,0,0,1-6-8.42,34.44,34.44,0,0,1-2.1-12.5,33.09,33.09,0,0,1,1.28-9.54,20.74,20.74,0,0,1,3.64-7.18,15.8,15.8,0,0,1,5.46-4.4,15.5,15.5,0,0,1,6.79-1.48,14.83,14.83,0,0,1,7.67,1.91,19.57,19.57,0,0,1,6,6V500.5a7.41,7.41,0,0,1,1.34-4.73,4.2,4.2,0,0,1,3.43-1.68q3,0,4,2.21A16.14,16.14,0,0,1,1514.57,502.69Zm-30.18,14.87q0,7.13,2.77,10.79a8.69,8.69,0,0,0,12.06,2.08,11.15,11.15,0,0,0,3.76-4.73,18.31,18.31,0,0,0,1.45-7.67q0-7.17-2.81-11.17a8.63,8.63,0,0,0-7.38-4,8.35,8.35,0,0,0-7.16,3.82Q1484.39,510.52,1484.39,517.56Z"/><path class="eb62b7ed-1b20-4022-a757-afd05395eb30" d="M1571,535.18a31.75,31.75,0,0,1-7.31,5,18.44,18.44,0,0,1-7.92,1.65,13.64,13.64,0,0,1-7-1.78,12.24,12.24,0,0,1-4.67-4.83,13.74,13.74,0,0,1-1.64-6.62,12.75,12.75,0,0,1,2.71-8.21,13.21,13.21,0,0,1,7.44-4.55q1-.26,4.92-1.16t6.74-1.65q2.81-.75,6.09-1.83-.19-4.64-1.66-6.81t-6.09-2.17a11.48,11.48,0,0,0-6,1.25,10.33,10.33,0,0,0-3.43,3.74q-1.43,2.49-2,3.29a3.08,3.08,0,0,1-2.54.79,4.16,4.16,0,0,1-3-1.27,4.37,4.37,0,0,1-1.28-3.24,10.72,10.72,0,0,1,1.95-6,14.1,14.1,0,0,1,6.07-4.81,24.61,24.61,0,0,1,10.27-1.89q6.87,0,10.8,1.83a10.63,10.63,0,0,1,5.55,5.78,28.11,28.11,0,0,1,1.62,10.48q0,4.13,0,7t-.06,6.4a26.32,26.32,0,0,0,1,6.9,24.16,24.16,0,0,1,1,4.62,4.53,4.53,0,0,1-1.51,3.29,4.75,4.75,0,0,1-3.42,1.48,4.41,4.41,0,0,1-3.17-1.7A25.06,25.06,0,0,1,1571,535.18Zm-.69-17a47.73,47.73,0,0,1-6.66,2q-4.37,1.05-6,1.55a8,8,0,0,0-3.21,1.93,5.26,5.26,0,0,0-1.53,4,6.31,6.31,0,0,0,1.79,4.53,6.21,6.21,0,0,0,4.69,1.87,11.11,11.11,0,0,0,5.71-1.53,9.55,9.55,0,0,0,3.83-3.93q1.41-2.66,1.41-8.77Z"/><path class="eb62b7ed-1b20-4022-a757-afd05395eb30" d="M1628.44,527.27a11.12,11.12,0,0,1-1.16,4.68,15.8,15.8,0,0,1-3.55,4.75,17.8,17.8,0,0,1-6,3.63,22.9,22.9,0,0,1-8.17,1.38q-9.65,0-15.07-6.34t-5.42-17a31,31,0,0,1,2.48-12.76,19.27,19.27,0,0,1,7.17-8.57,21.91,21.91,0,0,1,18.64-1.7,18.82,18.82,0,0,1,5.72,3.44,16,16,0,0,1,3.59,4.49,9.71,9.71,0,0,1,1.24,4.45,5,5,0,0,1-1.39,3.57,4.49,4.49,0,0,1-3.38,1.46A3.15,3.15,0,0,1,1621,512a11.53,11.53,0,0,1-1.93-2.43,17.16,17.16,0,0,0-4-4.9,8.3,8.3,0,0,0-5.29-1.63,8.67,8.67,0,0,0-7.44,4.06q-2.82,4.06-2.82,11.11a24,24,0,0,0,.73,6.08,14.54,14.54,0,0,0,2.1,4.73,9.25,9.25,0,0,0,3.32,3,9.13,9.13,0,0,0,4.27,1,8.83,8.83,0,0,0,5.36-1.63,13.84,13.84,0,0,0,3.95-5,11.42,11.42,0,0,1,2.06-3.09,3.67,3.67,0,0,1,2.71-1.12,3.85,3.85,0,0,1,3.17,1.63A5.6,5.6,0,0,1,1628.44,527.27Z"/><path class="eb62b7ed-1b20-4022-a757-afd05395eb30" d="M1663.86,535.18a31.75,31.75,0,0,1-7.31,5,18.44,18.44,0,0,1-7.92,1.65,13.64,13.64,0,0,1-7-1.78,12.24,12.24,0,0,1-4.67-4.83,13.74,13.74,0,0,1-1.64-6.62,12.75,12.75,0,0,1,2.71-8.21,13.21,13.21,0,0,1,7.44-4.55q1-.26,4.92-1.16t6.74-1.65q2.81-.75,6.09-1.83-.19-4.64-1.66-6.81t-6.09-2.17a11.48,11.48,0,0,0-6,1.25,10.33,10.33,0,0,0-3.43,3.74q-1.43,2.49-2,3.29a3.08,3.08,0,0,1-2.54.79,4.16,4.16,0,0,1-3-1.27,4.37,4.37,0,0,1-1.28-3.24,10.72,10.72,0,0,1,1.95-6,14.1,14.1,0,0,1,6.07-4.81,24.61,24.61,0,0,1,10.27-1.89q6.87,0,10.8,1.83a10.63,10.63,0,0,1,5.55,5.78,28.11,28.11,0,0,1,1.62,10.48q0,4.13,0,7t-.06,6.4a26.32,26.32,0,0,0,1,6.9,24.16,24.16,0,0,1,1,4.62,4.53,4.53,0,0,1-1.51,3.29,4.75,4.75,0,0,1-3.42,1.48,4.41,4.41,0,0,1-3.17-1.7A25.06,25.06,0,0,1,1663.86,535.18Zm-.69-17a47.73,47.73,0,0,1-6.66,2q-4.37,1.05-6,1.55a8,8,0,0,0-3.21,1.93,5.26,5.26,0,0,0-1.53,4,6.31,6.31,0,0,0,1.79,4.53,6.21,6.21,0,0,0,4.69,1.87,11.11,11.11,0,0,0,5.71-1.53,9.55,9.55,0,0,0,3.83-3.93q1.41-2.66,1.41-8.77Z"/><path class="eb62b7ed-1b20-4022-a757-afd05395eb30" d="M1712.51,535.09v-1.16a28.09,28.09,0,0,1-4.14,4.4,14.54,14.54,0,0,1-9.64,3.46,14,14,0,0,1-6.93-1.78,16.72,16.72,0,0,1-5.51-5.09,24.38,24.38,0,0,1-3.53-7.78,37.09,37.09,0,0,1-1.2-9.67q0-11,4.77-17.14a16.39,16.39,0,0,1,20.15-4.4,21.76,21.76,0,0,1,6,5.35V484a9.6,9.6,0,0,1,1.28-5.46,4.17,4.17,0,0,1,3.64-1.85,4.29,4.29,0,0,1,3.64,1.7,8.25,8.25,0,0,1,1.28,5v51.73a7.8,7.8,0,0,1-1.37,5,4.38,4.38,0,0,1-3.55,1.68,4.33,4.33,0,0,1-3.53-1.74A7.77,7.77,0,0,1,1712.51,535.09ZM1692,517.86a22.24,22.24,0,0,0,1.32,8.12,11.15,11.15,0,0,0,3.61,5,8.21,8.21,0,0,0,5,1.7,8.48,8.48,0,0,0,5-1.61,10.87,10.87,0,0,0,3.63-4.94,22.18,22.18,0,0,0,1.35-8.31,21.6,21.6,0,0,0-1.35-8.06,12,12,0,0,0-3.66-5.16,8.09,8.09,0,0,0-5.06-1.78,7.9,7.9,0,0,0-5.11,1.83,11.69,11.69,0,0,0-3.49,5.24A23.19,23.19,0,0,0,1692,517.86Z"/><path class="eb62b7ed-1b20-4022-a757-afd05395eb30" d="M1761.89,520.83h-20.38a17.19,17.19,0,0,0,1.43,7,10.69,10.69,0,0,0,3.7,4.6,9,9,0,0,0,5.09,1.55,11.14,11.14,0,0,0,3.41-.49,10.56,10.56,0,0,0,3-1.55,23.2,23.2,0,0,0,2.67-2.26q1.22-1.2,3.17-3.27a3.17,3.17,0,0,1,2.29-.77,3.52,3.52,0,0,1,2.59,1,3.77,3.77,0,0,1,1,2.79,8.32,8.32,0,0,1-1.11,3.72,14.27,14.27,0,0,1-3.34,4.08,18.35,18.35,0,0,1-5.61,3.24,21.69,21.69,0,0,1-7.77,1.29q-10,0-15.61-6.45t-5.57-17.49a32.53,32.53,0,0,1,1.37-9.65,22,22,0,0,1,4-7.63,17.41,17.41,0,0,1,6.49-4.88,21,21,0,0,1,8.55-1.7,18.51,18.51,0,0,1,10.48,2.9,18.22,18.22,0,0,1,6.54,7.5,21.69,21.69,0,0,1,2.18,9.37q0,4.43-2.25,5.74A12.68,12.68,0,0,1,1761.89,520.83Zm-20.38-6.66h18.89q-.38-6-2.88-9a8.17,8.17,0,0,0-6.58-3,7.92,7.92,0,0,0-6.39,3Q1742,508.24,1741.51,514.17Z"/><path class="eb62b7ed-1b20-4022-a757-afd05395eb30" d="M1813.9,518.81v15.6a8.71,8.71,0,0,1-1.49,5.54,4.8,4.8,0,0,1-3.93,1.85,4.67,4.67,0,0,1-3.83-1.85,8.79,8.79,0,0,1-1.47-5.54V515.71a67.59,67.59,0,0,0-.27-6.88,8,8,0,0,0-1.45-4,4.38,4.38,0,0,0-3.74-1.57q-5.12,0-6.74,4t-1.62,11.34v15.86a8.82,8.82,0,0,1-1.47,5.52,4.69,4.69,0,0,1-3.87,1.87,4.75,4.75,0,0,1-3.87-1.87,8.65,8.65,0,0,1-1.51-5.52V500.85a8,8,0,0,1,1.35-5,4.32,4.32,0,0,1,3.57-1.72,4.58,4.58,0,0,1,3.57,1.61,6.46,6.46,0,0,1,1.43,4.45v1.12a18.75,18.75,0,0,1,5.8-5.37,13.9,13.9,0,0,1,6.87-1.72,12.51,12.51,0,0,1,6.75,1.76,13.16,13.16,0,0,1,4.66,5.33,18.81,18.81,0,0,1,5.65-5.35,13.11,13.11,0,0,1,6.68-1.74,13.85,13.85,0,0,1,7.37,1.89,11.53,11.53,0,0,1,4.62,5.41q1.33,3.18,1.33,10v22.9a8.72,8.72,0,0,1-1.49,5.54,5,5,0,0,1-7.8,0,8.65,8.65,0,0,1-1.51-5.52V514.68a50.94,50.94,0,0,0-.29-6.06,7.38,7.38,0,0,0-1.55-3.82,4.63,4.63,0,0,0-3.82-1.55,6.46,6.46,0,0,0-3.91,1.38,9.09,9.09,0,0,0-2.88,3.7Q1813.9,511.29,1813.9,518.81Z"/><path class="eb62b7ed-1b20-4022-a757-afd05395eb30" d="M1853.67,488.64a5.14,5.14,0,0,1-3.72-1.5,6.36,6.36,0,0,1,0-8.36,5,5,0,0,1,3.68-1.61,5.11,5.11,0,0,1,3.59,1.46,5.54,5.54,0,0,1,1.56,4.25,5.72,5.72,0,0,1-1.53,4.23A5,5,0,0,1,1853.67,488.64Zm5.15,12.12v33.9a8.21,8.21,0,0,1-1.49,5.33,4.68,4.68,0,0,1-3.78,1.8,4.49,4.49,0,0,1-3.72-1.85,8.48,8.48,0,0,1-1.43-5.29V501.1a8.18,8.18,0,0,1,1.43-5.24,4.57,4.57,0,0,1,3.72-1.76,4.73,4.73,0,0,1,3.78,1.76A7.36,7.36,0,0,1,1858.82,500.76Z"/><path class="eb62b7ed-1b20-4022-a757-afd05395eb30" d="M1906.94,527.27a11.1,11.1,0,0,1-1.16,4.68,15.8,15.8,0,0,1-3.55,4.75,17.8,17.8,0,0,1-6,3.63,22.91,22.91,0,0,1-8.17,1.38q-9.65,0-15.07-6.34t-5.42-17a31,31,0,0,1,2.48-12.76,19.28,19.28,0,0,1,7.17-8.57,21.91,21.91,0,0,1,18.64-1.7,18.82,18.82,0,0,1,5.72,3.44,16,16,0,0,1,3.59,4.49,9.72,9.72,0,0,1,1.24,4.45,5,5,0,0,1-1.39,3.57,4.49,4.49,0,0,1-3.38,1.46,3.15,3.15,0,0,1-2.16-.75,11.53,11.53,0,0,1-1.93-2.43,17.15,17.15,0,0,0-4-4.9,8.3,8.3,0,0,0-5.29-1.63,8.67,8.67,0,0,0-7.44,4.06q-2.82,4.06-2.82,11.11a24,24,0,0,0,.72,6.08,14.52,14.52,0,0,0,2.1,4.73,9.24,9.24,0,0,0,3.32,3,9.13,9.13,0,0,0,4.27,1,8.83,8.83,0,0,0,5.36-1.63,13.84,13.84,0,0,0,4-5,11.44,11.44,0,0,1,2.06-3.09,3.67,3.67,0,0,1,2.71-1.12,3.85,3.85,0,0,1,3.17,1.63A5.61,5.61,0,0,1,1906.94,527.27Z"/><path class="eb62b7ed-1b20-4022-a757-afd05395eb30" d="M1964.63,520.83h-20.38a17.21,17.21,0,0,0,1.43,7,10.69,10.69,0,0,0,3.7,4.6,9,9,0,0,0,5.09,1.55,11.16,11.16,0,0,0,3.42-.49,10.57,10.57,0,0,0,3-1.55,23.19,23.19,0,0,0,2.67-2.26q1.22-1.2,3.17-3.27a3.16,3.16,0,0,1,2.29-.77,3.52,3.52,0,0,1,2.59,1,3.77,3.77,0,0,1,1,2.79,8.3,8.3,0,0,1-1.11,3.72,14.27,14.27,0,0,1-3.34,4.08,18.36,18.36,0,0,1-5.61,3.24,21.69,21.69,0,0,1-7.77,1.29q-10,0-15.61-6.45t-5.57-17.49a32.53,32.53,0,0,1,1.37-9.65,22,22,0,0,1,4-7.63,17.41,17.41,0,0,1,6.49-4.88A21,21,0,0,1,1954,494a18.51,18.51,0,0,1,10.48,2.9,18.24,18.24,0,0,1,6.54,7.5,21.69,21.69,0,0,1,2.18,9.37q0,4.43-2.25,5.74A12.68,12.68,0,0,1,1964.63,520.83Zm-20.38-6.66h18.89q-.38-6-2.88-9a8.16,8.16,0,0,0-6.58-3,7.92,7.92,0,0,0-6.39,3Q1944.79,508.24,1944.26,514.17Z"/><path class="eb62b7ed-1b20-4022-a757-afd05395eb30" d="M2003.56,536.94l-7.56-12.5-7.75,12.5a21.51,21.51,0,0,1-2.84,3.74,4.1,4.1,0,0,1-3,1.12,4.6,4.6,0,0,1-3.38-1.4,4.41,4.41,0,0,1-1.39-3.2q0-1.85,2.14-5.29l9.43-15.21L1980.89,504a10.09,10.09,0,0,1-2.18-5.46,4.35,4.35,0,0,1,1.3-3.14,4.53,4.53,0,0,1,3.4-1.33,4.19,4.19,0,0,1,3,1.16,21.11,21.11,0,0,1,2.8,3.65l6.75,10.4,6.56-10.4a19.57,19.57,0,0,1,2.84-3.7,4.23,4.23,0,0,1,3-1.12,4.72,4.72,0,0,1,3.42,1.31,4.24,4.24,0,0,1,1.35,3.16,6.14,6.14,0,0,1-.55,2.56,19.8,19.8,0,0,1-1.7,2.9l-8.36,12.68,9.42,15.21q2.21,3.57,2.21,5.37a4.27,4.27,0,0,1-1.37,3.18,4.69,4.69,0,0,1-3.4,1.33,4.27,4.27,0,0,1-3-1.16A19.37,19.37,0,0,1,2003.56,536.94Z"/><path class="eb62b7ed-1b20-4022-a757-afd05395eb30" d="M2057.1,527.27a11.1,11.1,0,0,1-1.16,4.68,15.8,15.8,0,0,1-3.55,4.75,17.8,17.8,0,0,1-6,3.63,22.91,22.91,0,0,1-8.17,1.38q-9.65,0-15.07-6.34t-5.42-17a31,31,0,0,1,2.48-12.76,19.28,19.28,0,0,1,7.17-8.57,21.91,21.91,0,0,1,18.64-1.7,18.82,18.82,0,0,1,5.72,3.44,16,16,0,0,1,3.59,4.49,9.72,9.72,0,0,1,1.24,4.45,5,5,0,0,1-1.39,3.57,4.49,4.49,0,0,1-3.38,1.46,3.15,3.15,0,0,1-2.16-.75,11.53,11.53,0,0,1-1.93-2.43,17.15,17.15,0,0,0-4-4.9,8.3,8.3,0,0,0-5.29-1.63,8.67,8.67,0,0,0-7.44,4.06q-2.82,4.06-2.82,11.11a24,24,0,0,0,.72,6.08A14.52,14.52,0,0,0,2031,529a9.24,9.24,0,0,0,3.32,3,9.13,9.13,0,0,0,4.27,1,8.83,8.83,0,0,0,5.36-1.63,13.84,13.84,0,0,0,4-5,11.44,11.44,0,0,1,2.06-3.09,3.67,3.67,0,0,1,2.71-1.12,3.85,3.85,0,0,1,3.17,1.63A5.61,5.61,0,0,1,2057.1,527.27Z"/><path class="eb62b7ed-1b20-4022-a757-afd05395eb30" d="M2095.26,520.83h-20.38a17.21,17.21,0,0,0,1.43,7,10.69,10.69,0,0,0,3.7,4.6,9,9,0,0,0,5.09,1.55,11.16,11.16,0,0,0,3.42-.49,10.57,10.57,0,0,0,3-1.55,23.19,23.19,0,0,0,2.67-2.26q1.22-1.2,3.17-3.27a3.16,3.16,0,0,1,2.29-.77,3.52,3.52,0,0,1,2.59,1,3.77,3.77,0,0,1,1,2.79,8.3,8.3,0,0,1-1.11,3.72,14.27,14.27,0,0,1-3.34,4.08,18.36,18.36,0,0,1-5.61,3.24,21.69,21.69,0,0,1-7.77,1.29q-10,0-15.61-6.45t-5.57-17.49a32.53,32.53,0,0,1,1.37-9.65,22,22,0,0,1,4-7.63,17.41,17.41,0,0,1,6.49-4.88,21,21,0,0,1,8.55-1.7,18.51,18.51,0,0,1,10.48,2.9,18.24,18.24,0,0,1,6.54,7.5,21.69,21.69,0,0,1,2.18,9.37q0,4.43-2.25,5.74A12.68,12.68,0,0,1,2095.26,520.83Zm-20.38-6.66h18.89q-.38-6-2.88-9a8.16,8.16,0,0,0-6.58-3,7.92,7.92,0,0,0-6.39,3Q2075.41,508.24,2074.88,514.17Z"/><path class="eb62b7ed-1b20-4022-a757-afd05395eb30" d="M2112.62,534.66V483.79a8.62,8.62,0,0,1,1.39-5.33,4.5,4.5,0,0,1,3.76-1.8,4.68,4.68,0,0,1,3.82,1.78,8.36,8.36,0,0,1,1.45,5.35v50.88a8.27,8.27,0,0,1-1.47,5.35,4.69,4.69,0,0,1-3.8,1.78,4.49,4.49,0,0,1-3.72-1.85A8.48,8.48,0,0,1,2112.62,534.66Z"/><path class="eb62b7ed-1b20-4022-a757-afd05395eb30" d="M2133.8,534.66V483.79a8.62,8.62,0,0,1,1.39-5.33,4.5,4.5,0,0,1,3.76-1.8,4.68,4.68,0,0,1,3.82,1.78,8.36,8.36,0,0,1,1.45,5.35v50.88a8.27,8.27,0,0,1-1.47,5.35,4.69,4.69,0,0,1-3.8,1.78,4.49,4.49,0,0,1-3.72-1.85A8.48,8.48,0,0,1,2133.8,534.66Z"/><path class="eb62b7ed-1b20-4022-a757-afd05395eb30" d="M2184.06,520.83h-20.38a17.21,17.21,0,0,0,1.43,7,10.69,10.69,0,0,0,3.7,4.6,9,9,0,0,0,5.09,1.55,11.16,11.16,0,0,0,3.42-.49,10.57,10.57,0,0,0,3-1.55,23.19,23.19,0,0,0,2.67-2.26q1.22-1.2,3.17-3.27a3.16,3.16,0,0,1,2.29-.77,3.52,3.52,0,0,1,2.59,1,3.77,3.77,0,0,1,1,2.79,8.3,8.3,0,0,1-1.11,3.72,14.27,14.27,0,0,1-3.34,4.08,18.36,18.36,0,0,1-5.61,3.24,21.69,21.69,0,0,1-7.77,1.29q-10,0-15.61-6.45T2153,517.86a32.53,32.53,0,0,1,1.37-9.65,22,22,0,0,1,4-7.63,17.41,17.41,0,0,1,6.49-4.88,21,21,0,0,1,8.55-1.7,18.51,18.51,0,0,1,10.48,2.9,18.24,18.24,0,0,1,6.54,7.5,21.69,21.69,0,0,1,2.18,9.37q0,4.43-2.25,5.74A12.68,12.68,0,0,1,2184.06,520.83Zm-20.38-6.66h18.89q-.38-6-2.88-9a8.16,8.16,0,0,0-6.58-3,7.92,7.92,0,0,0-6.39,3Q2164.21,508.24,2163.68,514.17Z"/><path class="eb62b7ed-1b20-4022-a757-afd05395eb30" d="M2210.88,500.59V502a19.12,19.12,0,0,1,6-6,14.56,14.56,0,0,1,7.5-1.91,13.65,13.65,0,0,1,7.37,2,12.32,12.32,0,0,1,4.85,5.71,14.82,14.82,0,0,1,1.33,4.64,53.94,53.94,0,0,1,.31,6.36v21.83a8.45,8.45,0,0,1-1.43,5.33,4.53,4.53,0,0,1-3.72,1.8,4.58,4.58,0,0,1-3.78-1.85,8.4,8.4,0,0,1-1.45-5.29V515.11q0-5.8-1.43-8.87t-5.71-3.07a7.83,7.83,0,0,0-5.08,1.87,10.74,10.74,0,0,0-3.36,5.13q-.76,2.62-.76,9.8v14.7a8.27,8.27,0,0,1-1.47,5.35,4.69,4.69,0,0,1-3.8,1.78,4.51,4.51,0,0,1-3.7-1.85,8.4,8.4,0,0,1-1.45-5.29v-33.9a8,8,0,0,1,1.3-5,4.26,4.26,0,0,1,3.55-1.65,4.41,4.41,0,0,1,2.48.73,5.06,5.06,0,0,1,1.77,2.19A8.57,8.57,0,0,1,2210.88,500.59Z"/><path class="eb62b7ed-1b20-4022-a757-afd05395eb30" d="M2286,527.27a11.1,11.1,0,0,1-1.16,4.68,15.8,15.8,0,0,1-3.55,4.75,17.8,17.8,0,0,1-6,3.63,22.91,22.91,0,0,1-8.17,1.38q-9.65,0-15.07-6.34t-5.42-17a31,31,0,0,1,2.48-12.76,19.28,19.28,0,0,1,7.17-8.57,21.91,21.91,0,0,1,18.64-1.7,18.82,18.82,0,0,1,5.72,3.44,16,16,0,0,1,3.59,4.49,9.72,9.72,0,0,1,1.24,4.45,5,5,0,0,1-1.39,3.57,4.49,4.49,0,0,1-3.38,1.46,3.15,3.15,0,0,1-2.16-.75,11.53,11.53,0,0,1-1.93-2.43,17.15,17.15,0,0,0-4-4.9,8.3,8.3,0,0,0-5.29-1.63,8.67,8.67,0,0,0-7.44,4.06q-2.82,4.06-2.82,11.11a24,24,0,0,0,.72,6.08,14.52,14.52,0,0,0,2.1,4.73,9.24,9.24,0,0,0,3.32,3,9.13,9.13,0,0,0,4.27,1,8.83,8.83,0,0,0,5.36-1.63,13.84,13.84,0,0,0,4-5,11.44,11.44,0,0,1,2.06-3.09,3.67,3.67,0,0,1,2.71-1.12,3.85,3.85,0,0,1,3.17,1.63A5.61,5.61,0,0,1,2286,527.27Z"/><path class="eb62b7ed-1b20-4022-a757-afd05395eb30" d="M2324.14,520.83h-20.38a17.21,17.21,0,0,0,1.43,7,10.69,10.69,0,0,0,3.7,4.6A9,9,0,0,0,2314,534a11.16,11.16,0,0,0,3.42-.49,10.57,10.57,0,0,0,3-1.55,23.19,23.19,0,0,0,2.67-2.26q1.22-1.2,3.17-3.27a3.16,3.16,0,0,1,2.29-.77,3.52,3.52,0,0,1,2.59,1,3.77,3.77,0,0,1,1,2.79,8.3,8.3,0,0,1-1.11,3.72,14.27,14.27,0,0,1-3.34,4.08,18.36,18.36,0,0,1-5.61,3.24,21.69,21.69,0,0,1-7.77,1.29q-10,0-15.61-6.45t-5.57-17.49a32.53,32.53,0,0,1,1.37-9.65,22,22,0,0,1,4-7.63,17.41,17.41,0,0,1,6.49-4.88,21,21,0,0,1,8.55-1.7,18.51,18.51,0,0,1,10.48,2.9,18.24,18.24,0,0,1,6.54,7.5,21.69,21.69,0,0,1,2.18,9.37q0,4.43-2.25,5.74A12.68,12.68,0,0,1,2324.14,520.83Zm-20.38-6.66h18.89q-.38-6-2.88-9a8.16,8.16,0,0,0-6.58-3,7.92,7.92,0,0,0-6.39,3Q2304.3,508.24,2303.76,514.17Z"/><path class="eb62b7ed-1b20-4022-a757-afd05395eb30" d="M2387.37,535.18a31.76,31.76,0,0,1-7.31,5,18.44,18.44,0,0,1-7.92,1.65,13.64,13.64,0,0,1-7-1.78,12.24,12.24,0,0,1-4.67-4.83,13.75,13.75,0,0,1-1.64-6.62,12.75,12.75,0,0,1,2.71-8.21,13.21,13.21,0,0,1,7.44-4.55q1-.26,4.92-1.16t6.74-1.65q2.81-.75,6.09-1.83-.19-4.64-1.66-6.81t-6.09-2.17a11.48,11.48,0,0,0-6,1.25,10.32,10.32,0,0,0-3.43,3.74q-1.43,2.49-2,3.29a3.07,3.07,0,0,1-2.54.79,4.16,4.16,0,0,1-3-1.27,4.37,4.37,0,0,1-1.28-3.24,10.72,10.72,0,0,1,1.95-6,14.09,14.09,0,0,1,6.07-4.81,24.61,24.61,0,0,1,10.26-1.89q6.87,0,10.8,1.83a10.63,10.63,0,0,1,5.55,5.78,28.11,28.11,0,0,1,1.62,10.48q0,4.13,0,7t-.06,6.4a26.33,26.33,0,0,0,1,6.9,24.09,24.09,0,0,1,1,4.62,4.53,4.53,0,0,1-1.51,3.29,4.75,4.75,0,0,1-3.42,1.48,4.41,4.41,0,0,1-3.17-1.7A25,25,0,0,1,2387.37,535.18Zm-.69-17a47.69,47.69,0,0,1-6.66,2q-4.37,1.05-6,1.55a8,8,0,0,0-3.21,1.93,5.26,5.26,0,0,0-1.53,4,6.3,6.3,0,0,0,1.79,4.53,6.21,6.21,0,0,0,4.69,1.87,11.11,11.11,0,0,0,5.71-1.53,9.55,9.55,0,0,0,3.83-3.93q1.41-2.66,1.41-8.77Z"/><path class="eb62b7ed-1b20-4022-a757-afd05395eb30" d="M2416.95,500.59V502a19.12,19.12,0,0,1,6-6,14.56,14.56,0,0,1,7.5-1.91,13.65,13.65,0,0,1,7.37,2,12.32,12.32,0,0,1,4.85,5.71,14.82,14.82,0,0,1,1.33,4.64,53.94,53.94,0,0,1,.31,6.36v21.83a8.45,8.45,0,0,1-1.43,5.33,4.53,4.53,0,0,1-3.72,1.8,4.58,4.58,0,0,1-3.78-1.85,8.4,8.4,0,0,1-1.45-5.29V515.11q0-5.8-1.43-8.87t-5.71-3.07a7.83,7.83,0,0,0-5.08,1.87,10.74,10.74,0,0,0-3.36,5.13q-.76,2.62-.76,9.8v14.7a8.27,8.27,0,0,1-1.47,5.35,4.69,4.69,0,0,1-3.8,1.78,4.51,4.51,0,0,1-3.7-1.85,8.4,8.4,0,0,1-1.45-5.29v-33.9a8,8,0,0,1,1.3-5,4.26,4.26,0,0,1,3.55-1.65,4.41,4.41,0,0,1,2.48.73,5.06,5.06,0,0,1,1.77,2.19A8.57,8.57,0,0,1,2416.95,500.59Z"/><path class="eb62b7ed-1b20-4022-a757-afd05395eb30" d="M2483.23,535.09v-1.16a28.09,28.09,0,0,1-4.14,4.4,14.54,14.54,0,0,1-9.64,3.46,14,14,0,0,1-6.93-1.78,16.73,16.73,0,0,1-5.51-5.09,24.38,24.38,0,0,1-3.53-7.78,37.09,37.09,0,0,1-1.2-9.67q0-11,4.77-17.14a15.13,15.13,0,0,1,12.55-6.14,15.28,15.28,0,0,1,7.59,1.74,21.76,21.76,0,0,1,6,5.35V484a9.59,9.59,0,0,1,1.28-5.46,4.17,4.17,0,0,1,3.64-1.85,4.29,4.29,0,0,1,3.64,1.7,8.24,8.24,0,0,1,1.28,5v51.73a7.8,7.8,0,0,1-1.37,5,4.38,4.38,0,0,1-3.55,1.68,4.33,4.33,0,0,1-3.53-1.74A7.77,7.77,0,0,1,2483.23,535.09Zm-20.49-17.23a22.24,22.24,0,0,0,1.32,8.12,11.15,11.15,0,0,0,3.61,5,8.21,8.21,0,0,0,5,1.7,8.48,8.48,0,0,0,5-1.61,10.87,10.87,0,0,0,3.63-4.94,22.18,22.18,0,0,0,1.35-8.31,21.59,21.59,0,0,0-1.35-8.06,12,12,0,0,0-3.66-5.16,8.09,8.09,0,0,0-5.06-1.78,7.9,7.9,0,0,0-5.11,1.83,11.68,11.68,0,0,0-3.49,5.24A23.18,23.18,0,0,0,2462.74,517.86Z"/><path class="eb62b7ed-1b20-4022-a757-afd05395eb30" d="M2552.15,520.83h-20.38a17.21,17.21,0,0,0,1.43,7,10.69,10.69,0,0,0,3.7,4.6A9,9,0,0,0,2542,534a11.16,11.16,0,0,0,3.42-.49,10.57,10.57,0,0,0,3-1.55,23.19,23.19,0,0,0,2.67-2.26q1.22-1.2,3.17-3.27a3.16,3.16,0,0,1,2.29-.77,3.52,3.52,0,0,1,2.59,1,3.77,3.77,0,0,1,1,2.79,8.3,8.3,0,0,1-1.11,3.72,14.27,14.27,0,0,1-3.34,4.08,18.36,18.36,0,0,1-5.61,3.24,21.69,21.69,0,0,1-7.77,1.29q-10,0-15.61-6.45t-5.57-17.49a32.53,32.53,0,0,1,1.37-9.65,22,22,0,0,1,4-7.63,17.41,17.41,0,0,1,6.49-4.88,21,21,0,0,1,8.55-1.7,18.51,18.51,0,0,1,10.48,2.9,18.24,18.24,0,0,1,6.54,7.5,21.69,21.69,0,0,1,2.18,9.37q0,4.43-2.25,5.74A12.68,12.68,0,0,1,2552.15,520.83Zm-20.38-6.66h18.89q-.38-6-2.88-9a8.16,8.16,0,0,0-6.58-3,7.92,7.92,0,0,0-6.39,3Q2532.3,508.24,2531.77,514.17Z"/><path class="eb62b7ed-1b20-4022-a757-afd05395eb30" d="M2598.05,551.38V534.84a23.75,23.75,0,0,1-6.28,5.18,15.24,15.24,0,0,1-16.07-1.1,19,19,0,0,1-6.26-8.27,36.85,36.85,0,0,1,0-25.52,18.28,18.28,0,0,1,6.35-8.14,15.58,15.58,0,0,1,9-2.79,14.54,14.54,0,0,1,7.52,2,16.36,16.36,0,0,1,5.69,6v-1.42a7.57,7.57,0,0,1,1.37-4.9,4.61,4.61,0,0,1,7.1,0,7.55,7.55,0,0,1,1.37,4.92v50.7q0,7.82-4.92,7.82-3.05,0-4-2.11A14.33,14.33,0,0,1,2598.05,551.38Zm-20.42-33.52A22.06,22.06,0,0,0,2579,526a11.34,11.34,0,0,0,3.57,5.07,7.81,7.81,0,0,0,4.77,1.65,8.63,8.63,0,0,0,5.11-1.65,11.31,11.31,0,0,0,3.74-5,21.88,21.88,0,0,0,1.41-8.38,22.87,22.87,0,0,0-.82-6.36,14.38,14.38,0,0,0-2.23-4.71,9.37,9.37,0,0,0-3.24-2.79,8.53,8.53,0,0,0-3.89-.92,8.31,8.31,0,0,0-7,3.91Q2577.64,510.69,2577.64,517.86Z"/><path class="eb62b7ed-1b20-4022-a757-afd05395eb30" d="M2645.41,535.18v-1.5a25,25,0,0,1-3.93,4.47,14,14,0,0,1-4.5,2.69,16.38,16.38,0,0,1-5.57.88,13.11,13.11,0,0,1-6.77-1.76,12.09,12.09,0,0,1-4.64-4.86q-1.95-3.74-1.95-10.74V501.1a8.24,8.24,0,0,1,1.41-5.26,4.57,4.57,0,0,1,3.74-1.74,4.7,4.7,0,0,1,3.82,1.76,8.1,8.1,0,0,1,1.45,5.24v18.78a32.48,32.48,0,0,0,.61,6.85,8.51,8.51,0,0,0,2.19,4.34,5.83,5.83,0,0,0,4.29,1.57,8.08,8.08,0,0,0,5-1.76,10.1,10.1,0,0,0,3.4-4.6q.88-2.49.88-10.91V501.1a8.1,8.1,0,0,1,1.45-5.24,4.66,4.66,0,0,1,3.78-1.76,4.58,4.58,0,0,1,3.74,1.74,8.24,8.24,0,0,1,1.41,5.26v34a7.89,7.89,0,0,1-1.35,5,4.29,4.29,0,0,1-3.49,1.68,4.33,4.33,0,0,1-3.53-1.74A7.62,7.62,0,0,1,2645.41,535.18Z"/><path class="eb62b7ed-1b20-4022-a757-afd05395eb30" d="M2691.89,535.18a31.76,31.76,0,0,1-7.31,5,18.44,18.44,0,0,1-7.92,1.65,13.64,13.64,0,0,1-7-1.78,12.24,12.24,0,0,1-4.67-4.83,13.75,13.75,0,0,1-1.64-6.62,12.75,12.75,0,0,1,2.71-8.21,13.21,13.21,0,0,1,7.44-4.55q1-.26,4.92-1.16t6.74-1.65q2.81-.75,6.09-1.83-.19-4.64-1.66-6.81t-6.09-2.17a11.48,11.48,0,0,0-6,1.25,10.32,10.32,0,0,0-3.43,3.74q-1.43,2.49-2,3.29a3.07,3.07,0,0,1-2.54.79,4.16,4.16,0,0,1-3-1.27,4.37,4.37,0,0,1-1.28-3.24,10.72,10.72,0,0,1,1.95-6,14.09,14.09,0,0,1,6.07-4.81,24.61,24.61,0,0,1,10.26-1.89q6.87,0,10.8,1.83a10.63,10.63,0,0,1,5.55,5.78,28.11,28.11,0,0,1,1.62,10.48q0,4.13,0,7t-.06,6.4a26.33,26.33,0,0,0,1,6.9,24.09,24.09,0,0,1,1,4.62,4.53,4.53,0,0,1-1.51,3.29,4.75,4.75,0,0,1-3.42,1.48,4.41,4.41,0,0,1-3.17-1.7A25,25,0,0,1,2691.89,535.18Zm-.69-17a47.69,47.69,0,0,1-6.66,2q-4.37,1.05-6,1.55a8,8,0,0,0-3.21,1.93,5.26,5.26,0,0,0-1.53,4,6.3,6.3,0,0,0,1.79,4.53,6.21,6.21,0,0,0,4.69,1.87,11.11,11.11,0,0,0,5.71-1.53,9.55,9.55,0,0,0,3.83-3.93q1.41-2.66,1.41-8.77Z"/><path class="eb62b7ed-1b20-4022-a757-afd05395eb30" d="M2712,534.66V483.79a8.62,8.62,0,0,1,1.39-5.33,4.5,4.5,0,0,1,3.76-1.8,4.68,4.68,0,0,1,3.82,1.78,8.36,8.36,0,0,1,1.45,5.35v50.88a8.27,8.27,0,0,1-1.47,5.35,4.69,4.69,0,0,1-3.8,1.78,4.49,4.49,0,0,1-3.72-1.85A8.48,8.48,0,0,1,2712,534.66Z"/><path class="eb62b7ed-1b20-4022-a757-afd05395eb30" d="M2738.45,488.64a5.14,5.14,0,0,1-3.72-1.5,6.36,6.36,0,0,1,0-8.36,5,5,0,0,1,3.68-1.61,5.11,5.11,0,0,1,3.59,1.46,5.54,5.54,0,0,1,1.56,4.25,5.72,5.72,0,0,1-1.53,4.23A5,5,0,0,1,2738.45,488.64Zm5.15,12.12v33.9a8.21,8.21,0,0,1-1.49,5.33,4.68,4.68,0,0,1-3.78,1.8,4.49,4.49,0,0,1-3.72-1.85,8.48,8.48,0,0,1-1.43-5.29V501.1a8.18,8.18,0,0,1,1.43-5.24,4.57,4.57,0,0,1,3.72-1.76,4.73,4.73,0,0,1,3.78,1.76A7.36,7.36,0,0,1,2743.6,500.76Z"/><path class="eb62b7ed-1b20-4022-a757-afd05395eb30" d="M2754.93,495.13h1.14v-7q0-2.84.13-4.45a7.17,7.17,0,0,1,.74-2.77,5,5,0,0,1,1.75-2,4.56,4.56,0,0,1,2.56-.75,4.87,4.87,0,0,1,3.59,1.68,5.16,5.16,0,0,1,1.35,2.73,27.89,27.89,0,0,1,.29,4.58v8h3.82a4.54,4.54,0,0,1,3.38,1.18,4.14,4.14,0,0,1,1.16,3,3.48,3.48,0,0,1-1.66,3.31,9.72,9.72,0,0,1-4.75.95h-1.95v21.57a39.16,39.16,0,0,0,.17,4.23,4.59,4.59,0,0,0,.92,2.41,2.93,2.93,0,0,0,2.42.92,11.56,11.56,0,0,0,2.48-.37,11.53,11.53,0,0,1,2.44-.37,3,3,0,0,1,2.27,1.14,4.09,4.09,0,0,1,1,2.81,4.72,4.72,0,0,1-2.75,4.34q-2.75,1.5-7.9,1.5-4.89,0-7.4-1.85a8.59,8.59,0,0,1-3.3-5.11,38.89,38.89,0,0,1-.78-8.72V503.6h-1.37a4.6,4.6,0,0,1-3.43-1.2,4.17,4.17,0,0,1-1.18-3.05,4,4,0,0,1,1.24-3A5,5,0,0,1,2754.93,495.13Z"/><path class="eb62b7ed-1b20-4022-a757-afd05395eb30" d="M2791.64,543.26l1-2.62-12.82-36.35a14.94,14.94,0,0,1-1.18-4.55,5.85,5.85,0,0,1,.69-2.79,5.46,5.46,0,0,1,1.89-2.06,4.55,4.55,0,0,1,2.5-.77,3.9,3.9,0,0,1,3.4,1.61,15.73,15.73,0,0,1,2,4.62l8.81,28.88,8.36-26.86a49.71,49.71,0,0,1,1.79-5.11,6,6,0,0,1,1.7-2.49,4.3,4.3,0,0,1,2.54-.64,4.1,4.1,0,0,1,2.27.71,4.73,4.73,0,0,1,1.68,1.91,5.67,5.67,0,0,1,.59,2.54q-.15.82-.5,2.32t-.84,3.05l-13.58,40a49.71,49.71,0,0,1-3.43,8.29,11.94,11.94,0,0,1-4.45,4.62,14.8,14.8,0,0,1-7.46,1.61,16.31,16.31,0,0,1-6.87-1.12,4.13,4.13,0,0,1-2.29-4.08,4.23,4.23,0,0,1,1.09-3.12,4.36,4.36,0,0,1,3.22-1.1,5.32,5.32,0,0,1,1.64.26,7,7,0,0,0,1.72.26,5.61,5.61,0,0,0,2.82-.6,5.29,5.29,0,0,0,1.85-2.08A34.07,34.07,0,0,0,2791.64,543.26Z"/></g></g></svg>