<svg xmlns="http://www.w3.org/2000/svg" viewBox="0 0 1116.53 691.47"><defs><style>.\37 87c20f0-f774-4bd6-861f-255b627c2529{fill:#b9af08;}.\39 251bb19-5aab-4979-b59a-d8b79292d5bc{fill:#124877;}.\31 65ad3b4-b2dc-4c0b-a212-4216e0c22614{fill:#ea940c;}</style></defs><title>logo-up</title><g id="67eba088-9395-4c49-8215-775d37477963" data-name="Layer 2"><g id="661087b1-05c2-41ad-ac4a-2ff135b967c5" data-name="Layer 4"><path class="787c20f0-f774-4bd6-861f-255b627c2529" d="M0,542.1s42.83-35.33,83.48-34,59.41,23.43,59.41,23.43-39.24-23.43-79.73,12.63c0,0,22.67,36.06,76.29,22.33,0,0-26.42,19-56.9,18.31S26.11,571,0,542.1Z"/><path class="787c20f0-f774-4bd6-861f-255b627c2529" d="M30.37,374.76s50.94-19.71,89.41-6.51,50.1,39,50.1,39-30.83-33.08-79.75-12c0,0,11.42,39.76,66.54,43,0,0-30.64,9.63-59.55-.06S47.1,409,30.37,374.76Z"/><path class="787c20f0-f774-4bd6-861f-255b627c2529" d="M110,224.21s53.83-1.9,86.32,22.56,36,52,36,52-19.51-40.35-71.82-36.54c0,0-.76,40.3,50.34,60.93,0,0-31.73-.91-56.22-19.07S115.9,261.11,110,224.21Z"/><path class="787c20f0-f774-4bd6-861f-255b627c2529" d="M233.88,101.45S286.55,115,310.39,147.9,329,208.53,329,208.53s-6.33-44.65-58.13-55.87c0,0-13.27,38.82,29.76,73.37,0,0-30.42-9.92-48.47-34.5S228.08,138.86,233.88,101.45Z"/><path class="787c20f0-f774-4bd6-861f-255b627c2529" d="M393.34,29s45.14,30.32,56.6,69.34-2.68,63.37-2.68,63.37,8.94-44.2-36.13-72.07c0,0-25.47,32.16,3.55,79.09,0,0-25.36-19.51-34.16-48.71S375.37,62.35,393.34,29Z"/><path class="787c20f0-f774-4bd6-861f-255b627c2529" d="M561,0c2.74,1.23,40.57,43.14,36.72,81.63-4.06,40.55-19,60.51-19,60.51s20.09-40.37-16.23-79c0,0-32.95,24.47-17.07,77.31,0,0-19.45-25.41-20.39-55.89S535,27.54,561,0Z"/><path class="787c20f0-f774-4bd6-861f-255b627c2529" d="M731.09,31c2.28,2,26.19,53.72,10.58,89.14-16.44,37.31-37.14,51.63-37.14,51.63s32-32.13,8.53-80.21c0,0-39.59,13-40.43,68.22,0,0-11.09-30.26-2.62-59.55S697.31,49,731.09,31Z"/><path class="787c20f0-f774-4bd6-861f-255b627c2529" d="M889.76,108.57c1.47,2.64,6.77,59.09-19.53,87.48-27.7,29.9-51.8,36.75-51.8,36.75s40.54-20,34.47-72.91c0,0-41.34-.49-60.35,51.34,0,0-.39-32.11,17.21-57S852.18,114.75,889.76,108.57Z"/><path class="787c20f0-f774-4bd6-861f-255b627c2529" d="M1010.61,230.86c.65,3-10.42,58.66-43.79,78.26-35.15,20.65-60.24,20.22-60.24,20.22s44.64-7.43,54-59.94c0,0-39.53-12.47-72.63,31.74,0,0,8.82-30.92,32.84-49.7S972.77,225.89,1010.61,230.86Z"/><path class="787c20f0-f774-4bd6-861f-255b627c2529" d="M1087.58,383c-.28,3-27.73,52.18-65.39,61-39.66,9.34-63.36,1.73-63.36,1.73s44.66,5.82,69.47-40.9c0,0-33.76-23.07-78.63,9,0,0,17.77-26.55,46.3-37.32S1053.16,367.44,1087.58,383Z"/><path class="787c20f0-f774-4bd6-861f-255b627c2529" d="M1116.53,554.95c-1.21,2.77-42.92,41.11-81.44,37.39-40.57-3.92-60.61-18.92-60.61-18.92s40.48,20.1,78.89-16.71c0,0-24.64-33.13-77.41-16.89,0,0,25.31-19.73,55.79-20.81S1088.85,528.84,1116.53,554.95Z"/><polygon class="9251bb19-5aab-4979-b59a-d8b79292d5bc" points="306.04 317.5 306.04 589.88 479.33 661.47 479.33 622.6 342.75 567.59 342.75 370.14 515.07 443.77 515.07 637 514.97 636.96 514.97 676.19 551.79 691.4 551.79 417.51 306.04 317.5"/><polygon class="165ad3b4-b2dc-4c0b-a212-4216e0c22614" points="813.46 317.58 813.46 589.96 640.16 661.54 640.16 622.67 776.74 567.66 776.74 370.21 604.42 443.84 604.42 637.07 604.52 637.03 604.52 676.26 567.7 691.47 567.7 417.58 813.46 317.58"/><circle class="9251bb19-5aab-4979-b59a-d8b79292d5bc" cx="448.72" cy="298.19" r="44.13"/><circle class="165ad3b4-b2dc-4c0b-a212-4216e0c22614" cx="668.41" cy="298.19" r="44.13"/></g></g></svg>