<svg xmlns="http://www.w3.org/2000/svg" viewBox="0 0 2312.88 640.21"><defs><style>.\39 2ad86fe-313f-4b40-a4ec-84fd2cbf8d23{fill:none;}.c4286051-18b1-4824-8b2b-73f287b246c8{fill:#b9af08;}.da1e55ea-4a43-41f9-9c44-6778e23b8b94{fill:#124877;}.\30 1748ec7-ce45-47c9-8130-90116f0df504{fill:#ea940c;}.c178c95c-7d61-481b-8fc5-7e9b0310cc0c{fill:#9b9b9b;stroke:#9b9b9b;stroke-miterlimit:10;stroke-width:8px;}.\31 056d2bf-7daf-4d08-9bcc-bbdf7b00d2ea{fill:#595959;}</style></defs><title>logo2</title><g id="f9b2bb64-edf5-4f4e-8b46-798cbc823da6" data-name="Layer 2"><g id="8dad9d8b-2784-410b-9e36-046ebaaef250" data-name="Layer 5"><rect class="92ad86fe-313f-4b40-a4ec-84fd2cbf8d23" width="2312.88" height="640.21"/></g><g id="8af7bd4f-0ee1-4a61-9b0d-d5b1a9764803" data-name="Layer 4"><path class="c4286051-18b1-4824-8b2b-73f287b246c8" d="M0,430.34s24-19.83,46.86-19.11,33.35,13.15,33.35,13.15-22-13.15-44.76,7.09c0,0,12.72,20.24,42.83,12.54,0,0-14.83,10.69-31.94,10.28S14.66,446.57,0,430.34Z"/><path class="c4286051-18b1-4824-8b2b-73f287b246c8" d="M17,336.4s28.6-11.06,50.19-3.65,28.12,21.92,28.12,21.92-17.31-18.57-44.77-6.74c0,0,6.41,22.32,37.35,24.16,0,0-17.2,5.41-33.43,0S26.44,355.61,17,336.4Z"/><path class="c4286051-18b1-4824-8b2b-73f287b246c8" d="M61.77,251.88s30.22-1.06,48.45,12.66,20.19,29.19,20.19,29.19-11-22.65-40.31-20.51c0,0-.42,22.62,28.26,34.2,0,0-17.81-.51-31.56-10.71S65.06,272.6,61.77,251.88Z"/><path class="c4286051-18b1-4824-8b2b-73f287b246c8" d="M131.29,183s29.57,7.58,42.95,26.08,10.46,34,10.46,34-3.55-25.06-32.63-31.36c0,0-7.45,21.79,16.71,41.19,0,0-17.08-5.57-27.21-19.37S128,204,131.29,183Z"/><path class="c4286051-18b1-4824-8b2b-73f287b246c8" d="M220.8,142.31s25.34,17,31.77,38.92-1.5,35.57-1.5,35.57,5-24.81-20.28-40.46c0,0-14.3,18.05,2,44.4,0,0-14.24-11-19.18-27.34S210.72,161,220.8,142.31Z"/><path class="c4286051-18b1-4824-8b2b-73f287b246c8" d="M314.9,126c1.54.69,22.78,24.22,20.62,45.82-2.28,22.76-10.67,34-10.67,34s11.28-22.66-9.11-44.33c0,0-18.5,13.74-9.58,43.4,0,0-10.92-14.27-11.44-31.38S300.31,141.48,314.9,126Z"/><path class="c4286051-18b1-4824-8b2b-73f287b246c8" d="M410.4,143.4c1.28,1.14,14.7,30.16,5.94,50-9.23,20.95-20.85,29-20.85,29s18-18,4.79-45c0,0-22.23,7.29-22.69,38.3,0,0-6.23-17-1.47-33.43S391.44,153.55,410.4,143.4Z"/><path class="c4286051-18b1-4824-8b2b-73f287b246c8" d="M499.47,187c.82,1.48,3.8,33.17-11,49.11-15.55,16.79-29.08,20.63-29.08,20.63s22.76-11.24,19.35-40.93c0,0-23.2-.28-33.88,28.82,0,0-.22-18,9.66-32S478.38,190.44,499.47,187Z"/><path class="c4286051-18b1-4824-8b2b-73f287b246c8" d="M567.31,255.62c.37,1.66-5.85,32.93-24.58,43.93C523,311.14,508.91,310.9,508.91,310.9s25.06-4.17,30.29-33.65c0,0-22.19-7-40.77,17.82,0,0,5-17.36,18.44-27.9S546.07,252.83,567.31,255.62Z"/><path class="c4286051-18b1-4824-8b2b-73f287b246c8" d="M610.52,341c-.16,1.67-15.57,29.29-36.7,34.27-22.26,5.24-35.57,1-35.57,1s25.07,3.26,39-23c0,0-19-13-44.14,5.06,0,0,10-14.9,26-20.95S591.2,332.29,610.52,341Z"/><path class="c4286051-18b1-4824-8b2b-73f287b246c8" d="M626.77,437.55c-.68,1.55-24.1,23.08-45.72,21-22.77-2.2-34-10.62-34-10.62s22.72,11.28,44.28-9.38c0,0-13.83-18.6-43.45-9.48,0,0,14.21-11.07,31.32-11.68S611.23,422.89,626.77,437.55Z"/><polygon class="da1e55ea-4a43-41f9-9c44-6778e23b8b94" points="171.8 304.26 171.8 457.16 269.07 497.34 269.07 475.52 192.41 444.64 192.41 333.8 289.14 375.14 289.14 483.61 289.08 483.58 289.08 505.61 309.75 514.14 309.75 360.39 171.8 304.26"/><polygon class="01748ec7-ce45-47c9-8130-90116f0df504" points="456.64 304.3 456.64 457.2 359.36 497.38 359.36 475.56 436.03 444.68 436.03 333.84 339.3 375.18 339.3 483.65 339.35 483.62 339.35 505.65 318.69 514.19 318.69 360.44 456.64 304.3"/><circle class="da1e55ea-4a43-41f9-9c44-6778e23b8b94" cx="251.89" cy="293.41" r="24.77"/><circle class="01748ec7-ce45-47c9-8130-90116f0df504" cx="375.22" cy="293.41" r="24.77"/><line class="c178c95c-7d61-481b-8fc5-7e9b0310cc0c" x1="699.86" y1="432.62" x2="2296.02" y2="432.62"/><path class="1056d2bf-7daf-4d08-9bcc-bbdf7b00d2ea" d="M738.06,475.15H716.49v15.57h18a5,5,0,0,1,3.74,1.27,4.64,4.64,0,0,1,1.24,3.38,4.53,4.53,0,0,1-1.25,3.36,5.07,5.07,0,0,1-3.72,1.25h-18V520q0,3.82-1.53,5.67a5.12,5.12,0,0,1-7.89,0q-1.53-1.87-1.53-5.65V473.2a11.41,11.41,0,0,1,.7-4.34,4.65,4.65,0,0,1,2.19-2.45,8.33,8.33,0,0,1,3.82-.77h25.81a5.21,5.21,0,0,1,3.89,1.31,4.71,4.71,0,0,1,1.27,3.43,4.76,4.76,0,0,1-1.27,3.47A5.2,5.2,0,0,1,738.06,475.15Z"/><path class="1056d2bf-7daf-4d08-9bcc-bbdf7b00d2ea" d="M785.48,504.5a29.87,29.87,0,0,1-1.4,9.34A21.18,21.18,0,0,1,780,521.2a17.91,17.91,0,0,1-6.34,4.71,20.21,20.21,0,0,1-8.3,1.64,19.63,19.63,0,0,1-8.22-1.66,18.26,18.26,0,0,1-6.32-4.75,21.08,21.08,0,0,1-4.06-7.31,29.76,29.76,0,0,1-1.38-9.32,30.16,30.16,0,0,1,1.4-9.42,21.07,21.07,0,0,1,4-7.31,17.7,17.7,0,0,1,6.34-4.67,21.49,21.49,0,0,1,16.52,0,18,18,0,0,1,6.38,4.73,21,21,0,0,1,4,7.31A30,30,0,0,1,785.48,504.5Zm-10.1,0q0-6.93-2.71-10.79a8.47,8.47,0,0,0-7.28-3.86,8.31,8.31,0,0,0-5.2,1.72,10.84,10.84,0,0,0-3.47,5.09,25.82,25.82,0,0,0,0,15.61,11.06,11.06,0,0,0,3.43,5.09,8.22,8.22,0,0,0,5.25,1.76,8.45,8.45,0,0,0,7.28-3.88Q775.38,511.36,775.38,504.5Z"/><path class="1056d2bf-7daf-4d08-9bcc-bbdf7b00d2ea" d="M825.82,512.73a15.2,15.2,0,0,1-2,8,12.68,12.68,0,0,1-6,5.07,24.15,24.15,0,0,1-9.64,1.72,21.22,21.22,0,0,1-9.29-1.87,13.77,13.77,0,0,1-5.71-4.67,10.17,10.17,0,0,1-1.84-5.63,4.65,4.65,0,0,1,1.18-3.2,3.82,3.82,0,0,1,3-1.33,3.24,3.24,0,0,1,2.43.87,9.55,9.55,0,0,1,1.62,2.45,12,12,0,0,0,3.71,4.53,10.18,10.18,0,0,0,5.88,1.5,7.8,7.8,0,0,0,5-1.52,4.36,4.36,0,0,0,1.94-3.47,4.9,4.9,0,0,0-2-4.36,23.13,23.13,0,0,0-6.62-2.62,50.63,50.63,0,0,1-8.46-3.05A14.13,14.13,0,0,1,793.7,501a10.44,10.44,0,0,1-2-6.44,12.37,12.37,0,0,1,1.81-6.44,12.82,12.82,0,0,1,5.33-4.84,18.44,18.44,0,0,1,8.5-1.81,25,25,0,0,1,7,.91,16.53,16.53,0,0,1,5.2,2.45,11.43,11.43,0,0,1,3.17,3.4,7.24,7.24,0,0,1,1.09,3.65,4.5,4.5,0,0,1-1.16,3.2,4.29,4.29,0,0,1-3.3,1.25,3.76,3.76,0,0,1-2.64-1,18.74,18.74,0,0,1-2.49-3,9.53,9.53,0,0,0-2.69-2.66,7.7,7.7,0,0,0-4.2-1,7.53,7.53,0,0,0-4.54,1.31,3.9,3.9,0,0,0-1.81,3.26,3.69,3.69,0,0,0,1.33,2.93,10.52,10.52,0,0,0,3.58,1.89q2.25.75,6.19,1.83a30.83,30.83,0,0,1,7.65,3.07,13.23,13.23,0,0,1,4.5,4.21A10.17,10.17,0,0,1,825.82,512.73Z"/><path class="1056d2bf-7daf-4d08-9bcc-bbdf7b00d2ea" d="M834.89,482.46H836v-6.81q0-2.74.13-4.3a6.94,6.94,0,0,1,.72-2.68,4.87,4.87,0,0,1,1.7-1.89,4.41,4.41,0,0,1,2.47-.73,4.7,4.7,0,0,1,3.47,1.62,5,5,0,0,1,1.31,2.64,26.89,26.89,0,0,1,.28,4.42v7.72h3.69A4.38,4.38,0,0,1,853,483.6a4,4,0,0,1,1.13,2.93,3.37,3.37,0,0,1-1.6,3.2,9.41,9.41,0,0,1-4.59.91h-1.88v20.84a38.12,38.12,0,0,0,.17,4.09,4.43,4.43,0,0,0,.88,2.33,2.83,2.83,0,0,0,2.34.89,11.18,11.18,0,0,0,2.4-.35,11.13,11.13,0,0,1,2.36-.35,2.89,2.89,0,0,1,2.19,1.1,4,4,0,0,1,1,2.72,4.56,4.56,0,0,1-2.66,4.19,16.18,16.18,0,0,1-7.63,1.45q-4.72,0-7.15-1.79a8.3,8.3,0,0,1-3.19-4.94,37.57,37.57,0,0,1-.76-8.43V490.64h-1.33a4.45,4.45,0,0,1-3.32-1.16,4,4,0,0,1-1.14-2.95,3.87,3.87,0,0,1,1.2-2.93A4.86,4.86,0,0,1,834.89,482.46Z"/><path class="1056d2bf-7daf-4d08-9bcc-bbdf7b00d2ea" d="M889.17,507.29H869.48a16.63,16.63,0,0,0,1.38,6.81,10.33,10.33,0,0,0,3.58,4.44,8.66,8.66,0,0,0,4.92,1.49,10.79,10.79,0,0,0,3.3-.48,10.21,10.21,0,0,0,2.89-1.5,22.36,22.36,0,0,0,2.58-2.18q1.18-1.16,3.06-3.16a3.06,3.06,0,0,1,2.21-.75,3.4,3.4,0,0,1,2.51,1,3.64,3.64,0,0,1,1,2.7,8,8,0,0,1-1.07,3.59,13.77,13.77,0,0,1-3.23,3.94,17.7,17.7,0,0,1-5.42,3.13,20.94,20.94,0,0,1-7.5,1.25q-9.7,0-15.08-6.23t-5.38-16.9a31.42,31.42,0,0,1,1.33-9.32,21.23,21.23,0,0,1,3.87-7.37,16.82,16.82,0,0,1,6.27-4.71,20.28,20.28,0,0,1,8.26-1.64,17.88,17.88,0,0,1,10.12,2.8,17.61,17.61,0,0,1,6.32,7.25,21,21,0,0,1,2.1,9.05q0,4.28-2.17,5.54A12.25,12.25,0,0,1,889.17,507.29Zm-19.69-6.44h18.25q-.37-5.81-2.78-8.7a7.89,7.89,0,0,0-6.36-2.89,7.65,7.65,0,0,0-6.18,2.93Q870,495.12,869.48,500.85Z"/><path class="1056d2bf-7daf-4d08-9bcc-bbdf7b00d2ea" d="M915.94,511.19v9.47a7.91,7.91,0,0,1-1.44,5.17,4.55,4.55,0,0,1-3.65,1.72,4.39,4.39,0,0,1-3.58-1.74,8.08,8.08,0,0,1-1.4-5.15V489.1q0-7.64,4.9-7.64a3.93,3.93,0,0,1,3.61,1.79,10.82,10.82,0,0,1,1.22,5.27,19.63,19.63,0,0,1,3.71-5.27,7.1,7.1,0,0,1,5.07-1.79,11.86,11.86,0,0,1,6.16,1.79,5.36,5.36,0,0,1,3,4.73,4.79,4.79,0,0,1-1.27,3.43,3.75,3.75,0,0,1-2.75,1.35,11.46,11.46,0,0,1-2.67-.77,11.21,11.21,0,0,0-3.74-.77,5.09,5.09,0,0,0-3.61,1.31,8.58,8.58,0,0,0-2.18,3.88,30.21,30.21,0,0,0-1.07,6.12Q915.94,506.08,915.94,511.19Z"/><path class="1056d2bf-7daf-4d08-9bcc-bbdf7b00d2ea" d="M944.11,476.19a5,5,0,0,1-3.6-1.45,6.15,6.15,0,0,1,0-8.08,4.84,4.84,0,0,1,3.56-1.56,4.94,4.94,0,0,1,3.47,1.41,5.35,5.35,0,0,1,1.51,4.11,5.53,5.53,0,0,1-1.47,4.09A4.79,4.79,0,0,1,944.11,476.19Zm5,11.71v32.76a7.93,7.93,0,0,1-1.44,5.15,4.53,4.53,0,0,1-3.65,1.74,4.34,4.34,0,0,1-3.59-1.79,8.19,8.19,0,0,1-1.38-5.11V488.23a7.9,7.9,0,0,1,1.38-5.07,4.41,4.41,0,0,1,3.59-1.7,4.57,4.57,0,0,1,3.65,1.7A7.12,7.12,0,0,1,949.09,487.9Z"/><path class="1056d2bf-7daf-4d08-9bcc-bbdf7b00d2ea" d="M968.63,487.73v1.37a18.46,18.46,0,0,1,5.81-5.79,14.06,14.06,0,0,1,7.25-1.85,13.19,13.19,0,0,1,7.12,2,11.9,11.9,0,0,1,4.68,5.52,14.33,14.33,0,0,1,1.29,4.48,52.33,52.33,0,0,1,.29,6.14v21.09a8.16,8.16,0,0,1-1.38,5.15,4.37,4.37,0,0,1-3.6,1.74,4.43,4.43,0,0,1-3.65-1.79,8.11,8.11,0,0,1-1.4-5.11V501.76q0-5.6-1.38-8.57t-5.51-3a7.57,7.57,0,0,0-4.9,1.81,10.37,10.37,0,0,0-3.25,5q-.74,2.53-.74,9.47v14.2a8,8,0,0,1-1.42,5.17,4.54,4.54,0,0,1-3.67,1.72,4.35,4.35,0,0,1-3.58-1.79,8.11,8.11,0,0,1-1.4-5.11V487.9a7.77,7.77,0,0,1,1.25-4.84,4.12,4.12,0,0,1,3.43-1.6,4.25,4.25,0,0,1,2.4.71,4.89,4.89,0,0,1,1.71,2.12A8.27,8.27,0,0,1,968.63,487.73Z"/><path class="1056d2bf-7daf-4d08-9bcc-bbdf7b00d2ea" d="M1042.12,489.76v32.93a38.6,38.6,0,0,1-1.07,9.71,16.12,16.12,0,0,1-3.43,6.73,14.08,14.08,0,0,1-6.18,3.94,30.07,30.07,0,0,1-9.5,1.29,24.82,24.82,0,0,1-9.29-1.64,15.83,15.83,0,0,1-6.3-4.24,8.18,8.18,0,0,1-2.21-5.33,4.68,4.68,0,0,1,1.25-3.38,4,4,0,0,1,3-1.31,4.79,4.79,0,0,1,3.87,2.2q.81,1.12,1.68,2.26a10.33,10.33,0,0,0,1.92,2,7.1,7.1,0,0,0,2.53,1.2,13.18,13.18,0,0,0,3.39.39,12.42,12.42,0,0,0,6.07-1.22,6.68,6.68,0,0,0,3-3.43,15.24,15.24,0,0,0,1-4.71q.15-2.51.22-8.08a17.44,17.44,0,0,1-5.37,5.56,13.35,13.35,0,0,1-7.25,1.91,14.07,14.07,0,0,1-8.83-2.91,18.31,18.31,0,0,1-5.81-8.14,33.3,33.3,0,0,1-2-12.08,32,32,0,0,1,1.24-9.22,20,20,0,0,1,3.52-6.93,15.26,15.26,0,0,1,5.27-4.26,15,15,0,0,1,6.56-1.43,14.33,14.33,0,0,1,7.41,1.85,18.89,18.89,0,0,1,5.83,5.79v-1.54a7.16,7.16,0,0,1,1.29-4.57,4.05,4.05,0,0,1,3.32-1.62q2.91,0,3.87,2.14A15.59,15.59,0,0,1,1042.12,489.76ZM1013,504.13q0,6.89,2.67,10.42a8.39,8.39,0,0,0,11.65,2,10.78,10.78,0,0,0,3.63-4.57,17.7,17.7,0,0,0,1.4-7.41q0-6.93-2.71-10.79a8.34,8.34,0,0,0-7.13-3.86,8.06,8.06,0,0,0-6.91,3.7Q1013,497.32,1013,504.13Z"/><path class="1056d2bf-7daf-4d08-9bcc-bbdf7b00d2ea" d="M1096.62,521.15a30.68,30.68,0,0,1-7.06,4.8,17.81,17.81,0,0,1-7.65,1.6,13.18,13.18,0,0,1-6.8-1.72,11.82,11.82,0,0,1-4.52-4.67,13.28,13.28,0,0,1-1.59-6.39,12.32,12.32,0,0,1,2.62-7.93,12.76,12.76,0,0,1,7.19-4.4q1-.25,4.76-1.12t6.51-1.6q2.71-.73,5.88-1.76-.18-4.48-1.6-6.58t-5.88-2.1a11.09,11.09,0,0,0-5.77,1.2,10,10,0,0,0-3.32,3.61q-1.38,2.41-2,3.18a3,3,0,0,1-2.45.77,4,4,0,0,1-2.93-1.22,4.23,4.23,0,0,1-1.24-3.13,10.36,10.36,0,0,1,1.88-5.81,13.62,13.62,0,0,1,5.86-4.65,23.77,23.77,0,0,1,9.92-1.83q6.64,0,10.43,1.76a10.27,10.27,0,0,1,5.37,5.58,27.16,27.16,0,0,1,1.57,10.13q0,4,0,6.77t-.06,6.19a25.43,25.43,0,0,0,.94,6.66,23.3,23.3,0,0,1,.94,4.46,4.37,4.37,0,0,1-1.46,3.18,4.59,4.59,0,0,1-3.3,1.43,4.26,4.26,0,0,1-3.06-1.64A24.27,24.27,0,0,1,1096.62,521.15Zm-.66-16.4a46.12,46.12,0,0,1-6.43,1.93q-4.22,1-5.84,1.5a7.72,7.72,0,0,0-3.1,1.87,5.08,5.08,0,0,0-1.47,3.88,6.09,6.09,0,0,0,1.73,4.38,6,6,0,0,0,4.54,1.81,10.74,10.74,0,0,0,5.51-1.47,9.22,9.22,0,0,0,3.71-3.8q1.36-2.57,1.36-8.47Z"/><path class="1056d2bf-7daf-4d08-9bcc-bbdf7b00d2ea" d="M1152.15,513.51A10.75,10.75,0,0,1,1151,518a15.29,15.29,0,0,1-3.43,4.59,17.2,17.2,0,0,1-5.81,3.51,22.12,22.12,0,0,1-7.89,1.33q-9.33,0-14.57-6.12t-5.24-16.42a29.91,29.91,0,0,1,2.4-12.33,18.62,18.62,0,0,1,6.93-8.28,21.17,21.17,0,0,1,18-1.64A18.19,18.19,0,0,1,1147,486a15.46,15.46,0,0,1,3.47,4.34,9.39,9.39,0,0,1,1.2,4.3,4.8,4.8,0,0,1-1.35,3.45,4.34,4.34,0,0,1-3.26,1.41,3,3,0,0,1-2.08-.73,11.12,11.12,0,0,1-1.86-2.35,16.57,16.57,0,0,0-3.85-4.73,8,8,0,0,0-5.11-1.58,8.38,8.38,0,0,0-7.19,3.92q-2.73,3.92-2.73,10.73a23.16,23.16,0,0,0,.7,5.88,14,14,0,0,0,2,4.57,8.93,8.93,0,0,0,3.21,2.87,8.83,8.83,0,0,0,4.13,1,8.53,8.53,0,0,0,5.18-1.58,13.38,13.38,0,0,0,3.82-4.82,11,11,0,0,1,2-3,3.55,3.55,0,0,1,2.62-1.08,3.72,3.72,0,0,1,3.06,1.58A5.41,5.41,0,0,1,1152.15,513.51Z"/><path class="1056d2bf-7daf-4d08-9bcc-bbdf7b00d2ea" d="M1186.37,521.15a30.68,30.68,0,0,1-7.06,4.8,17.81,17.81,0,0,1-7.65,1.6,13.18,13.18,0,0,1-6.8-1.72,11.82,11.82,0,0,1-4.52-4.67,13.28,13.28,0,0,1-1.59-6.39,12.32,12.32,0,0,1,2.62-7.93,12.76,12.76,0,0,1,7.19-4.4q1-.25,4.76-1.12t6.51-1.6q2.71-.73,5.88-1.76-.18-4.48-1.6-6.58t-5.88-2.1a11.09,11.09,0,0,0-5.77,1.2,10,10,0,0,0-3.32,3.61q-1.38,2.41-2,3.18a3,3,0,0,1-2.45.77,4,4,0,0,1-2.93-1.22,4.23,4.23,0,0,1-1.24-3.13,10.36,10.36,0,0,1,1.88-5.81,13.62,13.62,0,0,1,5.86-4.65,23.77,23.77,0,0,1,9.92-1.83q6.64,0,10.43,1.76a10.27,10.27,0,0,1,5.37,5.58,27.16,27.16,0,0,1,1.57,10.13q0,4,0,6.77t-.06,6.19a25.43,25.43,0,0,0,.94,6.66,23.3,23.3,0,0,1,.94,4.46,4.37,4.37,0,0,1-1.46,3.18,4.59,4.59,0,0,1-3.3,1.43,4.26,4.26,0,0,1-3.06-1.64A24.27,24.27,0,0,1,1186.37,521.15Zm-.66-16.4a46.12,46.12,0,0,1-6.43,1.93q-4.22,1-5.84,1.5a7.72,7.72,0,0,0-3.1,1.87,5.08,5.08,0,0,0-1.47,3.88,6.09,6.09,0,0,0,1.73,4.38,6,6,0,0,0,4.54,1.81,10.74,10.74,0,0,0,5.51-1.47,9.22,9.22,0,0,0,3.71-3.8q1.36-2.57,1.36-8.47Z"/><path class="1056d2bf-7daf-4d08-9bcc-bbdf7b00d2ea" d="M1233.38,521.07v-1.12a27.1,27.1,0,0,1-4,4.26,14,14,0,0,1-9.31,3.34,13.48,13.48,0,0,1-6.69-1.72,16.15,16.15,0,0,1-5.33-4.92,23.54,23.54,0,0,1-3.41-7.51,35.86,35.86,0,0,1-1.16-9.34q0-10.63,4.61-16.57a15.84,15.84,0,0,1,19.47-4.26,21,21,0,0,1,5.83,5.17V471.66a9.27,9.27,0,0,1,1.24-5.27,4,4,0,0,1,3.52-1.79,4.15,4.15,0,0,1,3.52,1.64,8,8,0,0,1,1.24,4.84v50a7.54,7.54,0,0,1-1.33,4.86,4.23,4.23,0,0,1-3.43,1.62,4.19,4.19,0,0,1-3.41-1.68A7.51,7.51,0,0,1,1233.38,521.07Zm-19.8-16.65a21.49,21.49,0,0,0,1.27,7.85,10.77,10.77,0,0,0,3.48,4.88,7.93,7.93,0,0,0,4.83,1.64,8.19,8.19,0,0,0,4.85-1.56,10.51,10.51,0,0,0,3.5-4.78,21.42,21.42,0,0,0,1.31-8,20.85,20.85,0,0,0-1.31-7.78,11.56,11.56,0,0,0-3.54-5,7.82,7.82,0,0,0-4.89-1.72,7.64,7.64,0,0,0-4.94,1.76,11.29,11.29,0,0,0-3.37,5.07A22.41,22.41,0,0,0,1213.58,504.42Z"/><path class="1056d2bf-7daf-4d08-9bcc-bbdf7b00d2ea" d="M1281.1,507.29h-19.69a16.63,16.63,0,0,0,1.38,6.81,10.33,10.33,0,0,0,3.58,4.44,8.66,8.66,0,0,0,4.92,1.49,10.79,10.79,0,0,0,3.3-.48,10.21,10.21,0,0,0,2.89-1.5,22.36,22.36,0,0,0,2.58-2.18q1.18-1.16,3.06-3.16a3.06,3.06,0,0,1,2.21-.75,3.4,3.4,0,0,1,2.51,1,3.64,3.64,0,0,1,1,2.7,8,8,0,0,1-1.07,3.59,13.77,13.77,0,0,1-3.23,3.94,17.7,17.7,0,0,1-5.42,3.13,20.94,20.94,0,0,1-7.5,1.25q-9.7,0-15.08-6.23t-5.38-16.9a31.42,31.42,0,0,1,1.33-9.32,21.23,21.23,0,0,1,3.87-7.37,16.82,16.82,0,0,1,6.27-4.71,20.28,20.28,0,0,1,8.26-1.64,17.88,17.88,0,0,1,10.12,2.8,17.61,17.61,0,0,1,6.32,7.25,21,21,0,0,1,2.1,9.05q0,4.28-2.17,5.54A12.25,12.25,0,0,1,1281.1,507.29Zm-19.69-6.44h18.25q-.37-5.81-2.78-8.7a7.89,7.89,0,0,0-6.36-2.89,7.65,7.65,0,0,0-6.18,2.93Q1261.92,495.12,1261.41,500.85Z"/><path class="1056d2bf-7daf-4d08-9bcc-bbdf7b00d2ea" d="M1331.35,505.33v15.07a8.42,8.42,0,0,1-1.44,5.36,4.64,4.64,0,0,1-3.8,1.79,4.51,4.51,0,0,1-3.71-1.79,8.5,8.5,0,0,1-1.42-5.36V502.35a65.33,65.33,0,0,0-.26-6.64,7.71,7.71,0,0,0-1.4-3.88,4.23,4.23,0,0,0-3.61-1.52q-4.94,0-6.51,3.82t-1.57,11v15.32a8.51,8.51,0,0,1-1.42,5.33,4.53,4.53,0,0,1-3.74,1.81,4.59,4.59,0,0,1-3.74-1.81,8.36,8.36,0,0,1-1.46-5.33V488a7.72,7.72,0,0,1,1.31-4.86,4.18,4.18,0,0,1,3.45-1.66,4.42,4.42,0,0,1,3.45,1.56,6.25,6.25,0,0,1,1.38,4.3v1.08a18.12,18.12,0,0,1,5.6-5.19,13.42,13.42,0,0,1,6.64-1.66,12.08,12.08,0,0,1,6.53,1.7,12.72,12.72,0,0,1,4.5,5.15,18.17,18.17,0,0,1,5.46-5.17,12.67,12.67,0,0,1,6.45-1.68,13.38,13.38,0,0,1,7.12,1.83,11.14,11.14,0,0,1,4.46,5.23q1.29,3.07,1.29,9.67v22.13a8.42,8.42,0,0,1-1.44,5.36,4.85,4.85,0,0,1-7.54,0,8.35,8.35,0,0,1-1.46-5.33V501.35a49.08,49.08,0,0,0-.28-5.85,7.12,7.12,0,0,0-1.49-3.7,4.48,4.48,0,0,0-3.69-1.49,6.24,6.24,0,0,0-3.78,1.33,8.79,8.79,0,0,0-2.78,3.57Q1331.35,498.07,1331.35,505.33Z"/><path class="1056d2bf-7daf-4d08-9bcc-bbdf7b00d2ea" d="M1369.78,476.19a5,5,0,0,1-3.6-1.45,6.15,6.15,0,0,1,0-8.08,4.84,4.84,0,0,1,3.56-1.56,4.94,4.94,0,0,1,3.47,1.41,5.35,5.35,0,0,1,1.51,4.11,5.53,5.53,0,0,1-1.47,4.09A4.79,4.79,0,0,1,1369.78,476.19Zm5,11.71v32.76a7.93,7.93,0,0,1-1.44,5.15,4.53,4.53,0,0,1-3.65,1.74,4.34,4.34,0,0,1-3.59-1.79,8.19,8.19,0,0,1-1.38-5.11V488.23a7.9,7.9,0,0,1,1.38-5.07,4.41,4.41,0,0,1,3.59-1.7,4.57,4.57,0,0,1,3.65,1.7A7.12,7.12,0,0,1,1374.75,487.9Z"/><path class="1056d2bf-7daf-4d08-9bcc-bbdf7b00d2ea" d="M1421.25,513.51a10.75,10.75,0,0,1-1.12,4.53,15.29,15.29,0,0,1-3.43,4.59,17.2,17.2,0,0,1-5.81,3.51,22.12,22.12,0,0,1-7.89,1.33q-9.33,0-14.57-6.12t-5.24-16.42a29.91,29.91,0,0,1,2.4-12.33,18.62,18.62,0,0,1,6.93-8.28,21.17,21.17,0,0,1,18-1.64,18.19,18.19,0,0,1,5.53,3.32,15.46,15.46,0,0,1,3.47,4.34,9.39,9.39,0,0,1,1.2,4.3,4.8,4.8,0,0,1-1.35,3.45,4.34,4.34,0,0,1-3.26,1.41,3,3,0,0,1-2.08-.73,11.12,11.12,0,0,1-1.86-2.35,16.57,16.57,0,0,0-3.85-4.73,8,8,0,0,0-5.11-1.58A8.38,8.38,0,0,0,1396,494q-2.73,3.92-2.73,10.73a23.16,23.16,0,0,0,.7,5.88,14,14,0,0,0,2,4.57,8.93,8.93,0,0,0,3.21,2.87,8.83,8.83,0,0,0,4.13,1,8.53,8.53,0,0,0,5.18-1.58,13.38,13.38,0,0,0,3.82-4.82,11,11,0,0,1,2-3,3.55,3.55,0,0,1,2.62-1.08,3.72,3.72,0,0,1,3.06,1.58A5.41,5.41,0,0,1,1421.25,513.51Z"/><path class="1056d2bf-7daf-4d08-9bcc-bbdf7b00d2ea" d="M1477,507.29h-19.69a16.63,16.63,0,0,0,1.38,6.81,10.33,10.33,0,0,0,3.58,4.44,8.66,8.66,0,0,0,4.92,1.49,10.79,10.79,0,0,0,3.3-.48,10.21,10.21,0,0,0,2.89-1.5,22.36,22.36,0,0,0,2.58-2.18q1.18-1.16,3.06-3.16a3.06,3.06,0,0,1,2.21-.75,3.4,3.4,0,0,1,2.51,1,3.64,3.64,0,0,1,1,2.7,8,8,0,0,1-1.07,3.59,13.77,13.77,0,0,1-3.23,3.94,17.7,17.7,0,0,1-5.42,3.13,20.94,20.94,0,0,1-7.5,1.25q-9.7,0-15.08-6.23t-5.38-16.9a31.42,31.42,0,0,1,1.33-9.32,21.23,21.23,0,0,1,3.87-7.37,16.82,16.82,0,0,1,6.27-4.71,20.28,20.28,0,0,1,8.26-1.64,17.88,17.88,0,0,1,10.12,2.8,17.61,17.61,0,0,1,6.32,7.25,21,21,0,0,1,2.1,9.05q0,4.28-2.17,5.54A12.25,12.25,0,0,1,1477,507.29Zm-19.69-6.44h18.25q-.37-5.81-2.78-8.7a7.89,7.89,0,0,0-6.36-2.89,7.65,7.65,0,0,0-6.18,2.93Q1457.83,495.12,1457.31,500.85Z"/><path class="1056d2bf-7daf-4d08-9bcc-bbdf7b00d2ea" d="M1514.61,522.86l-7.3-12.08-7.49,12.08a20.82,20.82,0,0,1-2.75,3.61,4,4,0,0,1-2.86,1.08,4.44,4.44,0,0,1-3.26-1.35,4.26,4.26,0,0,1-1.35-3.09q0-1.79,2.06-5.11l9.11-14.7-8.08-12.25a9.75,9.75,0,0,1-2.1-5.27,4.2,4.2,0,0,1,1.25-3,4.38,4.38,0,0,1,3.28-1.29,4.05,4.05,0,0,1,2.93,1.12,20.38,20.38,0,0,1,2.71,3.53l6.53,10,6.34-10a19,19,0,0,1,2.75-3.57,4.09,4.09,0,0,1,2.89-1.08,4.55,4.55,0,0,1,3.3,1.27,4.09,4.09,0,0,1,1.31,3.05,5.93,5.93,0,0,1-.54,2.47,19.13,19.13,0,0,1-1.64,2.8l-8.08,12.25,9.11,14.7q2.14,3.45,2.14,5.19a4.13,4.13,0,0,1-1.33,3.07,4.53,4.53,0,0,1-3.28,1.29,4.13,4.13,0,0,1-2.93-1.12A18.74,18.74,0,0,1,1514.61,522.86Z"/><path class="1056d2bf-7daf-4d08-9bcc-bbdf7b00d2ea" d="M1566.35,513.51a10.75,10.75,0,0,1-1.12,4.53,15.29,15.29,0,0,1-3.43,4.59,17.2,17.2,0,0,1-5.81,3.51,22.12,22.12,0,0,1-7.89,1.33q-9.33,0-14.57-6.12t-5.24-16.42a29.91,29.91,0,0,1,2.4-12.33,18.62,18.62,0,0,1,6.93-8.28,21.17,21.17,0,0,1,18-1.64,18.19,18.19,0,0,1,5.53,3.32,15.46,15.46,0,0,1,3.47,4.34,9.39,9.39,0,0,1,1.2,4.3,4.8,4.8,0,0,1-1.35,3.45,4.34,4.34,0,0,1-3.26,1.41,3,3,0,0,1-2.08-.73,11.12,11.12,0,0,1-1.86-2.35,16.57,16.57,0,0,0-3.85-4.73,8,8,0,0,0-5.11-1.58,8.38,8.38,0,0,0-7.19,3.92q-2.73,3.92-2.73,10.73a23.16,23.16,0,0,0,.7,5.88,14,14,0,0,0,2,4.57,8.93,8.93,0,0,0,3.21,2.87,8.83,8.83,0,0,0,4.13,1,8.53,8.53,0,0,0,5.18-1.58,13.38,13.38,0,0,0,3.82-4.82,11,11,0,0,1,2-3,3.55,3.55,0,0,1,2.62-1.08,3.72,3.72,0,0,1,3.06,1.58A5.41,5.41,0,0,1,1566.35,513.51Z"/><path class="1056d2bf-7daf-4d08-9bcc-bbdf7b00d2ea" d="M1603.22,507.29h-19.69a16.63,16.63,0,0,0,1.38,6.81,10.33,10.33,0,0,0,3.58,4.44,8.66,8.66,0,0,0,4.92,1.49,10.79,10.79,0,0,0,3.3-.48,10.21,10.21,0,0,0,2.89-1.5,22.36,22.36,0,0,0,2.58-2.18q1.18-1.16,3.06-3.16a3.06,3.06,0,0,1,2.21-.75,3.4,3.4,0,0,1,2.51,1,3.64,3.64,0,0,1,1,2.7,8,8,0,0,1-1.07,3.59,13.77,13.77,0,0,1-3.23,3.94,17.7,17.7,0,0,1-5.42,3.13,20.94,20.94,0,0,1-7.5,1.25q-9.7,0-15.08-6.23t-5.38-16.9a31.42,31.42,0,0,1,1.33-9.32,21.23,21.23,0,0,1,3.87-7.37,16.82,16.82,0,0,1,6.27-4.71,20.28,20.28,0,0,1,8.26-1.64,17.88,17.88,0,0,1,10.12,2.8,17.61,17.61,0,0,1,6.32,7.25,21,21,0,0,1,2.1,9.05q0,4.28-2.17,5.54A12.25,12.25,0,0,1,1603.22,507.29Zm-19.69-6.44h18.25q-.37-5.81-2.78-8.7a7.89,7.89,0,0,0-6.36-2.89,7.65,7.65,0,0,0-6.18,2.93Q1584,495.12,1583.53,500.85Z"/><path class="1056d2bf-7daf-4d08-9bcc-bbdf7b00d2ea" d="M1620,520.65V471.5a8.32,8.32,0,0,1,1.35-5.15,4.35,4.35,0,0,1,3.63-1.74,4.52,4.52,0,0,1,3.69,1.72,8.07,8.07,0,0,1,1.4,5.17v49.16a8,8,0,0,1-1.42,5.17,4.54,4.54,0,0,1-3.67,1.72,4.34,4.34,0,0,1-3.59-1.79A8.19,8.19,0,0,1,1620,520.65Z"/><path class="1056d2bf-7daf-4d08-9bcc-bbdf7b00d2ea" d="M1640.46,520.65V471.5a8.32,8.32,0,0,1,1.35-5.15,4.35,4.35,0,0,1,3.63-1.74,4.52,4.52,0,0,1,3.69,1.72,8.07,8.07,0,0,1,1.4,5.17v49.16a8,8,0,0,1-1.42,5.17,4.54,4.54,0,0,1-3.67,1.72,4.34,4.34,0,0,1-3.59-1.79A8.19,8.19,0,0,1,1640.46,520.65Z"/><path class="1056d2bf-7daf-4d08-9bcc-bbdf7b00d2ea" d="M1689,507.29h-19.69a16.63,16.63,0,0,0,1.38,6.81,10.33,10.33,0,0,0,3.58,4.44,8.66,8.66,0,0,0,4.92,1.49,10.79,10.79,0,0,0,3.3-.48,10.21,10.21,0,0,0,2.89-1.5,22.36,22.36,0,0,0,2.58-2.18q1.18-1.16,3.06-3.16a3.06,3.06,0,0,1,2.21-.75,3.4,3.4,0,0,1,2.51,1,3.64,3.64,0,0,1,1,2.7,8,8,0,0,1-1.07,3.59,13.77,13.77,0,0,1-3.23,3.94,17.7,17.7,0,0,1-5.42,3.13,20.94,20.94,0,0,1-7.5,1.25q-9.7,0-15.08-6.23t-5.38-16.9a31.42,31.42,0,0,1,1.33-9.32,21.23,21.23,0,0,1,3.87-7.37,16.82,16.82,0,0,1,6.27-4.71,20.28,20.28,0,0,1,8.26-1.64,17.88,17.88,0,0,1,10.12,2.8,17.61,17.61,0,0,1,6.32,7.25,21,21,0,0,1,2.1,9.05q0,4.28-2.17,5.54A12.25,12.25,0,0,1,1689,507.29Zm-19.69-6.44h18.25q-.37-5.81-2.78-8.7a7.89,7.89,0,0,0-6.36-2.89,7.65,7.65,0,0,0-6.18,2.93Q1669.85,495.12,1669.33,500.85Z"/><path class="1056d2bf-7daf-4d08-9bcc-bbdf7b00d2ea" d="M1714.95,487.73v1.37a18.46,18.46,0,0,1,5.81-5.79,14.06,14.06,0,0,1,7.25-1.85,13.19,13.19,0,0,1,7.12,2,11.9,11.9,0,0,1,4.68,5.52,14.33,14.33,0,0,1,1.29,4.48,52.33,52.33,0,0,1,.29,6.14v21.09a8.16,8.16,0,0,1-1.38,5.15,4.37,4.37,0,0,1-3.6,1.74,4.43,4.43,0,0,1-3.65-1.79,8.11,8.11,0,0,1-1.4-5.11V501.76q0-5.6-1.38-8.57t-5.51-3a7.57,7.57,0,0,0-4.9,1.81,10.37,10.37,0,0,0-3.25,5q-.74,2.53-.74,9.47v14.2a8,8,0,0,1-1.42,5.17,4.54,4.54,0,0,1-3.67,1.72,4.35,4.35,0,0,1-3.58-1.79,8.11,8.11,0,0,1-1.4-5.11V487.9a7.77,7.77,0,0,1,1.25-4.84,4.12,4.12,0,0,1,3.43-1.6,4.25,4.25,0,0,1,2.4.71,4.89,4.89,0,0,1,1.71,2.12A8.27,8.27,0,0,1,1714.95,487.73Z"/><path class="1056d2bf-7daf-4d08-9bcc-bbdf7b00d2ea" d="M1787.51,513.51a10.75,10.75,0,0,1-1.12,4.53,15.29,15.29,0,0,1-3.43,4.59,17.2,17.2,0,0,1-5.81,3.51,22.12,22.12,0,0,1-7.89,1.33q-9.33,0-14.57-6.12t-5.24-16.42a29.91,29.91,0,0,1,2.4-12.33,18.62,18.62,0,0,1,6.93-8.28,21.17,21.17,0,0,1,18-1.64,18.19,18.19,0,0,1,5.53,3.32,15.46,15.46,0,0,1,3.47,4.34,9.39,9.39,0,0,1,1.2,4.3,4.8,4.8,0,0,1-1.35,3.45,4.34,4.34,0,0,1-3.26,1.41,3,3,0,0,1-2.08-.73,11.12,11.12,0,0,1-1.86-2.35,16.57,16.57,0,0,0-3.85-4.73,8,8,0,0,0-5.11-1.58,8.38,8.38,0,0,0-7.19,3.92q-2.73,3.92-2.73,10.73a23.16,23.16,0,0,0,.7,5.88,14,14,0,0,0,2,4.57,8.93,8.93,0,0,0,3.21,2.87,8.83,8.83,0,0,0,4.13,1,8.53,8.53,0,0,0,5.18-1.58,13.38,13.38,0,0,0,3.82-4.82,11,11,0,0,1,2-3,3.55,3.55,0,0,1,2.62-1.08,3.72,3.72,0,0,1,3.06,1.58A5.41,5.41,0,0,1,1787.51,513.51Z"/><path class="1056d2bf-7daf-4d08-9bcc-bbdf7b00d2ea" d="M1824.39,507.29H1804.7a16.63,16.63,0,0,0,1.38,6.81,10.33,10.33,0,0,0,3.58,4.44,8.66,8.66,0,0,0,4.92,1.49,10.79,10.79,0,0,0,3.3-.48,10.21,10.21,0,0,0,2.89-1.5,22.36,22.36,0,0,0,2.58-2.18q1.18-1.16,3.06-3.16a3.06,3.06,0,0,1,2.21-.75,3.4,3.4,0,0,1,2.51,1,3.64,3.64,0,0,1,1,2.7,8,8,0,0,1-1.07,3.59,13.77,13.77,0,0,1-3.23,3.94,17.7,17.7,0,0,1-5.42,3.13,20.94,20.94,0,0,1-7.5,1.25q-9.7,0-15.08-6.23t-5.38-16.9a31.42,31.42,0,0,1,1.33-9.32,21.23,21.23,0,0,1,3.87-7.37,16.82,16.82,0,0,1,6.27-4.71,20.28,20.28,0,0,1,8.26-1.64,17.88,17.88,0,0,1,10.12,2.8,17.61,17.61,0,0,1,6.32,7.25,21,21,0,0,1,2.1,9.05q0,4.28-2.17,5.54A12.25,12.25,0,0,1,1824.39,507.29Zm-19.69-6.44h18.25q-.37-5.81-2.78-8.7a7.89,7.89,0,0,0-6.36-2.89,7.65,7.65,0,0,0-6.18,2.93Q1805.21,495.12,1804.7,500.85Z"/><path class="1056d2bf-7daf-4d08-9bcc-bbdf7b00d2ea" d="M1885.49,521.15a30.68,30.68,0,0,1-7.06,4.8,17.81,17.81,0,0,1-7.65,1.6,13.18,13.18,0,0,1-6.8-1.72,11.82,11.82,0,0,1-4.52-4.67,13.28,13.28,0,0,1-1.59-6.39,12.32,12.32,0,0,1,2.62-7.93,12.76,12.76,0,0,1,7.19-4.4q1-.25,4.76-1.12t6.51-1.6q2.71-.73,5.88-1.76-.18-4.48-1.6-6.58t-5.88-2.1a11.09,11.09,0,0,0-5.77,1.2,10,10,0,0,0-3.32,3.61q-1.38,2.41-2,3.18a3,3,0,0,1-2.45.77,4,4,0,0,1-2.93-1.22,4.23,4.23,0,0,1-1.24-3.13,10.36,10.36,0,0,1,1.88-5.81,13.62,13.62,0,0,1,5.86-4.65,23.77,23.77,0,0,1,9.92-1.83q6.64,0,10.43,1.76a10.27,10.27,0,0,1,5.37,5.58,27.16,27.16,0,0,1,1.57,10.13q0,4,0,6.77t-.06,6.19a25.43,25.43,0,0,0,.94,6.66,23.3,23.3,0,0,1,.94,4.46,4.37,4.37,0,0,1-1.46,3.18,4.59,4.59,0,0,1-3.3,1.43,4.26,4.26,0,0,1-3.06-1.64A24.27,24.27,0,0,1,1885.49,521.15Zm-.66-16.4a46.12,46.12,0,0,1-6.43,1.93q-4.22,1-5.84,1.5a7.72,7.72,0,0,0-3.1,1.87,5.08,5.08,0,0,0-1.47,3.88,6.09,6.09,0,0,0,1.73,4.38,6,6,0,0,0,4.54,1.81,10.74,10.74,0,0,0,5.51-1.47,9.22,9.22,0,0,0,3.71-3.8q1.36-2.57,1.36-8.47Z"/><path class="1056d2bf-7daf-4d08-9bcc-bbdf7b00d2ea" d="M1914.06,487.73v1.37a18.46,18.46,0,0,1,5.81-5.79,14.06,14.06,0,0,1,7.25-1.85,13.19,13.19,0,0,1,7.12,2,11.9,11.9,0,0,1,4.68,5.52,14.33,14.33,0,0,1,1.29,4.48,52.33,52.33,0,0,1,.29,6.14v21.09a8.16,8.16,0,0,1-1.38,5.15,4.37,4.37,0,0,1-3.6,1.74,4.43,4.43,0,0,1-3.65-1.79,8.11,8.11,0,0,1-1.4-5.11V501.76q0-5.6-1.38-8.57t-5.51-3a7.57,7.57,0,0,0-4.9,1.81,10.37,10.37,0,0,0-3.25,5q-.74,2.53-.74,9.47v14.2a8,8,0,0,1-1.42,5.17,4.54,4.54,0,0,1-3.67,1.72,4.35,4.35,0,0,1-3.58-1.79,8.11,8.11,0,0,1-1.4-5.11V487.9a7.77,7.77,0,0,1,1.25-4.84,4.12,4.12,0,0,1,3.43-1.6,4.25,4.25,0,0,1,2.4.71,4.89,4.89,0,0,1,1.71,2.12A8.27,8.27,0,0,1,1914.06,487.73Z"/><path class="1056d2bf-7daf-4d08-9bcc-bbdf7b00d2ea" d="M1978.11,521.07v-1.12a27.1,27.1,0,0,1-4,4.26,14,14,0,0,1-9.31,3.34,13.48,13.48,0,0,1-6.69-1.72,16.15,16.15,0,0,1-5.33-4.92,23.54,23.54,0,0,1-3.41-7.51,35.86,35.86,0,0,1-1.16-9.34q0-10.63,4.61-16.57a15.84,15.84,0,0,1,19.47-4.26,21,21,0,0,1,5.83,5.17V471.66a9.27,9.27,0,0,1,1.24-5.27,4,4,0,0,1,3.52-1.79,4.15,4.15,0,0,1,3.52,1.64,8,8,0,0,1,1.24,4.84v50a7.54,7.54,0,0,1-1.33,4.86,4.23,4.23,0,0,1-3.43,1.62,4.19,4.19,0,0,1-3.41-1.68A7.51,7.51,0,0,1,1978.11,521.07Zm-19.8-16.65a21.49,21.49,0,0,0,1.27,7.85,10.77,10.77,0,0,0,3.48,4.88,7.93,7.93,0,0,0,4.83,1.64,8.19,8.19,0,0,0,4.85-1.56,10.51,10.51,0,0,0,3.5-4.78,21.42,21.42,0,0,0,1.31-8,20.85,20.85,0,0,0-1.31-7.78,11.56,11.56,0,0,0-3.54-5,7.82,7.82,0,0,0-4.89-1.72,7.64,7.64,0,0,0-4.94,1.76,11.29,11.29,0,0,0-3.37,5.07A22.41,22.41,0,0,0,1958.31,504.42Z"/><path class="1056d2bf-7daf-4d08-9bcc-bbdf7b00d2ea" d="M2044.71,507.29H2025a16.63,16.63,0,0,0,1.38,6.81,10.33,10.33,0,0,0,3.58,4.44,8.66,8.66,0,0,0,4.92,1.49,10.79,10.79,0,0,0,3.3-.48,10.21,10.21,0,0,0,2.89-1.5,22.36,22.36,0,0,0,2.58-2.18q1.18-1.16,3.06-3.16a3.06,3.06,0,0,1,2.21-.75,3.4,3.4,0,0,1,2.51,1,3.64,3.64,0,0,1,1,2.7,8,8,0,0,1-1.07,3.59,13.77,13.77,0,0,1-3.23,3.94,17.7,17.7,0,0,1-5.42,3.13,20.94,20.94,0,0,1-7.5,1.25q-9.7,0-15.08-6.23t-5.38-16.9a31.42,31.42,0,0,1,1.33-9.32,21.23,21.23,0,0,1,3.87-7.37,16.82,16.82,0,0,1,6.27-4.71,20.28,20.28,0,0,1,8.26-1.64,17.88,17.88,0,0,1,10.12,2.8,17.61,17.61,0,0,1,6.32,7.25,21,21,0,0,1,2.1,9.05q0,4.28-2.17,5.54A12.25,12.25,0,0,1,2044.71,507.29ZM2025,500.85h18.25q-.37-5.81-2.78-8.7a7.89,7.89,0,0,0-6.36-2.89,7.65,7.65,0,0,0-6.18,2.93Q2025.53,495.12,2025,500.85Z"/><path class="1056d2bf-7daf-4d08-9bcc-bbdf7b00d2ea" d="M2089.06,536.81v-16a22.91,22.91,0,0,1-6.07,5,14.72,14.72,0,0,1-15.52-1.06,18.31,18.31,0,0,1-6-8,35.62,35.62,0,0,1,0-24.66,17.67,17.67,0,0,1,6.14-7.87,15.06,15.06,0,0,1,8.72-2.7,14.05,14.05,0,0,1,7.26,1.89,15.81,15.81,0,0,1,5.49,5.75v-1.37a7.31,7.31,0,0,1,1.33-4.73,4.46,4.46,0,0,1,6.86,0,7.29,7.29,0,0,1,1.33,4.75v49q0,7.56-4.76,7.56-3,0-3.85-2A13.86,13.86,0,0,1,2089.06,536.81Zm-19.73-32.39a21.31,21.31,0,0,0,1.31,7.87,11,11,0,0,0,3.45,4.9,7.54,7.54,0,0,0,4.61,1.6,8.34,8.34,0,0,0,4.94-1.6,10.93,10.93,0,0,0,3.61-4.88,21.13,21.13,0,0,0,1.36-8.1,22.11,22.11,0,0,0-.79-6.15,13.88,13.88,0,0,0-2.16-4.55,9.05,9.05,0,0,0-3.13-2.7,8.24,8.24,0,0,0-3.76-.89,8,8,0,0,0-6.75,3.78Q2069.34,497.49,2069.34,504.42Z"/><path class="1056d2bf-7daf-4d08-9bcc-bbdf7b00d2ea" d="M2134.82,521.15V519.7A24.08,24.08,0,0,1,2131,524a13.53,13.53,0,0,1-4.35,2.59,15.81,15.81,0,0,1-5.38.85,12.67,12.67,0,0,1-6.54-1.7,11.69,11.69,0,0,1-4.48-4.69q-1.88-3.61-1.88-10.38V488.23a8,8,0,0,1,1.36-5.09,4.42,4.42,0,0,1,3.61-1.68,4.54,4.54,0,0,1,3.69,1.7,7.83,7.83,0,0,1,1.4,5.07v18.14A31.38,31.38,0,0,0,2119,513a8.22,8.22,0,0,0,2.12,4.19,5.63,5.63,0,0,0,4.15,1.52,7.8,7.8,0,0,0,4.79-1.7,9.76,9.76,0,0,0,3.28-4.44q.85-2.41.85-10.55V488.23a7.83,7.83,0,0,1,1.4-5.07,4.51,4.51,0,0,1,3.65-1.7,4.42,4.42,0,0,1,3.61,1.68,8,8,0,0,1,1.36,5.09v32.84a7.62,7.62,0,0,1-1.31,4.86,4.31,4.31,0,0,1-6.78-.06A7.36,7.36,0,0,1,2134.82,521.15Z"/><path class="1056d2bf-7daf-4d08-9bcc-bbdf7b00d2ea" d="M2179.73,521.15a30.68,30.68,0,0,1-7.06,4.8,17.81,17.81,0,0,1-7.65,1.6,13.18,13.18,0,0,1-6.8-1.72,11.82,11.82,0,0,1-4.52-4.67,13.28,13.28,0,0,1-1.59-6.39,12.32,12.32,0,0,1,2.62-7.93,12.76,12.76,0,0,1,7.19-4.4q1-.25,4.76-1.12t6.51-1.6q2.71-.73,5.88-1.76-.18-4.48-1.6-6.58t-5.88-2.1a11.09,11.09,0,0,0-5.77,1.2,10,10,0,0,0-3.32,3.61q-1.38,2.41-2,3.18a3,3,0,0,1-2.45.77,4,4,0,0,1-2.93-1.22,4.23,4.23,0,0,1-1.24-3.13,10.36,10.36,0,0,1,1.88-5.81,13.62,13.62,0,0,1,5.86-4.65,23.77,23.77,0,0,1,9.92-1.83q6.64,0,10.43,1.76a10.27,10.27,0,0,1,5.37,5.58,27.16,27.16,0,0,1,1.57,10.13q0,4,0,6.77t-.06,6.19a25.43,25.43,0,0,0,.94,6.66,23.3,23.3,0,0,1,.94,4.46,4.37,4.37,0,0,1-1.46,3.18,4.59,4.59,0,0,1-3.3,1.43,4.26,4.26,0,0,1-3.06-1.64A24.27,24.27,0,0,1,2179.73,521.15Zm-.66-16.4a46.12,46.12,0,0,1-6.43,1.93q-4.22,1-5.84,1.5a7.72,7.72,0,0,0-3.1,1.87,5.08,5.08,0,0,0-1.47,3.88,6.09,6.09,0,0,0,1.73,4.38,6,6,0,0,0,4.54,1.81,10.74,10.74,0,0,0,5.51-1.47,9.22,9.22,0,0,0,3.71-3.8q1.36-2.57,1.36-8.47Z"/><path class="1056d2bf-7daf-4d08-9bcc-bbdf7b00d2ea" d="M2199.17,520.65V471.5a8.32,8.32,0,0,1,1.35-5.15,4.35,4.35,0,0,1,3.63-1.74,4.52,4.52,0,0,1,3.69,1.72,8.07,8.07,0,0,1,1.4,5.17v49.16a8,8,0,0,1-1.42,5.17,4.54,4.54,0,0,1-3.67,1.72,4.34,4.34,0,0,1-3.59-1.79A8.19,8.19,0,0,1,2199.17,520.65Z"/><path class="1056d2bf-7daf-4d08-9bcc-bbdf7b00d2ea" d="M2224.72,476.19a5,5,0,0,1-3.6-1.45,6.15,6.15,0,0,1,0-8.08,4.84,4.84,0,0,1,3.56-1.56,4.94,4.94,0,0,1,3.47,1.41,5.35,5.35,0,0,1,1.51,4.11,5.53,5.53,0,0,1-1.47,4.09A4.79,4.79,0,0,1,2224.72,476.19Zm5,11.71v32.76a7.93,7.93,0,0,1-1.44,5.15,4.53,4.53,0,0,1-3.65,1.74,4.34,4.34,0,0,1-3.59-1.79,8.19,8.19,0,0,1-1.38-5.11V488.23a7.9,7.9,0,0,1,1.38-5.07,4.41,4.41,0,0,1,3.59-1.7,4.57,4.57,0,0,1,3.65,1.7A7.12,7.12,0,0,1,2229.7,487.9Z"/><path class="1056d2bf-7daf-4d08-9bcc-bbdf7b00d2ea" d="M2240.65,482.46h1.11v-6.81q0-2.74.13-4.3a6.94,6.94,0,0,1,.72-2.68,4.87,4.87,0,0,1,1.7-1.89,4.41,4.41,0,0,1,2.47-.73,4.7,4.7,0,0,1,3.47,1.62,5,5,0,0,1,1.31,2.64,26.89,26.89,0,0,1,.28,4.42v7.72h3.69a4.38,4.38,0,0,1,3.26,1.14,4,4,0,0,1,1.13,2.93,3.37,3.37,0,0,1-1.6,3.2,9.41,9.41,0,0,1-4.59.91h-1.88v20.84a38.12,38.12,0,0,0,.17,4.09,4.43,4.43,0,0,0,.88,2.33,2.83,2.83,0,0,0,2.34.89,11.18,11.18,0,0,0,2.4-.35,11.13,11.13,0,0,1,2.36-.35,2.89,2.89,0,0,1,2.19,1.1,4,4,0,0,1,1,2.72,4.56,4.56,0,0,1-2.66,4.19,16.18,16.18,0,0,1-7.63,1.45q-4.72,0-7.15-1.79a8.3,8.3,0,0,1-3.19-4.94,37.57,37.57,0,0,1-.76-8.43V490.64h-1.33a4.45,4.45,0,0,1-3.32-1.16,4,4,0,0,1-1.14-2.95,3.87,3.87,0,0,1,1.2-2.93A4.86,4.86,0,0,1,2240.65,482.46Z"/><path class="1056d2bf-7daf-4d08-9bcc-bbdf7b00d2ea" d="M2276.12,529l.92-2.53-12.39-35.13a14.44,14.44,0,0,1-1.14-4.4,5.65,5.65,0,0,1,.66-2.7,5.28,5.28,0,0,1,1.83-2,4.4,4.4,0,0,1,2.42-.75,3.76,3.76,0,0,1,3.28,1.56,15.17,15.17,0,0,1,2,4.46l8.52,27.9,8.08-26a48.29,48.29,0,0,1,1.73-4.94,5.77,5.77,0,0,1,1.64-2.41,4.15,4.15,0,0,1,2.45-.62,4,4,0,0,1,2.19.68,4.57,4.57,0,0,1,1.62,1.85,5.49,5.49,0,0,1,.57,2.45q-.15.79-.48,2.24t-.81,2.95L2286,530.33a48.05,48.05,0,0,1-3.32,8,11.55,11.55,0,0,1-4.3,4.46,14.3,14.3,0,0,1-7.21,1.56,15.76,15.76,0,0,1-6.64-1.08,4,4,0,0,1-2.21-3.94,4.09,4.09,0,0,1,1.05-3,4.21,4.21,0,0,1,3.12-1.06,5.15,5.15,0,0,1,1.58.25,6.75,6.75,0,0,0,1.66.25,5.43,5.43,0,0,0,2.73-.58,5.12,5.12,0,0,0,1.79-2A32.75,32.75,0,0,0,2276.12,529Z"/><path class="da1e55ea-4a43-41f9-9c44-6778e23b8b94" d="M848.08,393.24V377h14.51c12.78,0,21.42-3.46,21.42-9,0-1.73-.69-4.15-2.76-9.33l-18.66-46.3H771l-11.4,30.4a42.24,42.24,0,0,0-3.11,14.51q0,19.69,28,19.69h6.91v16.24H699.86V377h4.84c17.27,0,22.11-5.18,34.55-36.62l79.47-201.43h14.51l88.1,215.94c7.95,19.35,10,22.11,27.29,22.11h6.56v16.24ZM816.3,195.61l-38.35,98.12h77.39Z"/><path class="da1e55ea-4a43-41f9-9c44-6778e23b8b94" d="M1036,398.42c-42.84,0-72.21-33.86-72.21-82.92,0-51.48,32.13-88.45,77-88.45,30.75,0,53.9,18,53.9,41.12,0,13.82-9,23.49-21.08,23.49S1053,283.71,1053,272.31c0-5.87,1.38-9.33,6.91-15.89,1.38-2.07,2.07-3.11,2.07-4.15,0-5.53-9-10.37-19.35-10.37-25.57,0-42.5,28-42.5,69.79,0,40.42,17.28,65.65,44.92,65.65,18,0,29.71-10,40.77-34.9l13.47,5.18C1084.4,384.25,1066.78,398.42,1036,398.42Z"/><path class="da1e55ea-4a43-41f9-9c44-6778e23b8b94" d="M1261.29,395.65c-16.24,0-24.88-6.91-30.4-24.53-14.86,17.62-36.28,27.29-60.12,27.29-30.4,0-50.1-15.89-50.1-40.42,0-33.86,28-50.79,108.49-64.61V279.91c0-30.4-14.17-38-37.31-38-16.58,0-30.75,6.22-30.75,13.47,0,1.73,7.6,12.44,7.6,18.66,0,10.37-7.95,17.62-18.66,17.62-12.09,0-20-8.29-20-21.42,0-24.88,28.68-43.19,67.37-43.19,39.73,0,64.26,10.71,64.26,54.94v69.45c0,17.27,3.46,23.84,13.13,23.84,2.07,0,10-3.8,14.86-3.8,1.73,0,3.46,1.73,3.46,4.15C1293.08,385.63,1276.84,395.65,1261.29,395.65Zm-32.13-87.41c-59.77,10-73.59,20.38-73.59,44.92,0,15.55,11.75,26.95,27.29,26.95,14.86,0,30.75-8.64,39.39-21.42,5.87-9,6.91-13.82,6.91-34.55Z"/><path class="da1e55ea-4a43-41f9-9c44-6778e23b8b94" d="M1428.86,395.65V368.36c-11.06,20.73-25.91,30.06-47.68,30.06-40.08,0-68.75-34.9-68.75-84,0-49.75,29.71-87.41,68.75-87.41,20,0,34.9,7.95,47.68,25.57V174.53c0-14.86-2.42-17.28-14.86-17.28h-20.38V142.4l67.72-3.8V353.16c0,21.77,2.76,25.22,21.42,25.22H1489v14.86ZM1421.95,272c-6.22-15.89-19.69-26.26-33.86-26.26s-26.95,10-32.82,25.22c-4.49,11.75-6.56,27.29-6.56,47.68,0,38.35,14.86,61.15,39,61.15,24.88,0,40.77-26.26,40.77-66.34C1428.51,296.84,1426.09,282.33,1421.95,272Z"/><path class="da1e55ea-4a43-41f9-9c44-6778e23b8b94" d="M1629.93,393.24V377h9.67c21.77,0,23.15-1,23.15-6.22,0-2.76-1.73-6.56-4.49-10.71l-51.48-72.9-40.08,58c-3.46,5.18-5.53,10.71-5.53,15.2,0,10.36,8.64,16.58,22.46,16.58h8.64v16.24h-98.12V377H1499c18,.34,28-8.64,41.81-27.64l56-77.74-68.06-98.47c-7.95-11.4-12.09-13.13-29-13.13h-5.87V143.78h106.76V160h-13.13c-13.13,0-16.58,1-16.58,4.49,0,1.73,1.38,5.18,3.8,8.64l46,66.34,37.31-54.24c3.8-5.53,4.84-7.95,4.84-11.75,0-9.33-3.8-13.47-20.38-13.47h-8.29V143.78h95V160h-5.53c-18.31,0-28.33,6.56-47.33,32.48l-46,62.54,72.56,104c11.75,16.93,13.47,18,35.59,18h4.84v16.24Z"/><path class="c4286051-18b1-4824-8b2b-73f287b246c8" d="M1901,304.44c-1.6-11.4-3.6-20-6.6-27.4-5-12-14.8-18.8-27-18.8-6.6,0-9.4,2.2-9.4,7.2v109c0,8.4,1.8,9.4,17.8,9.4h5.2v9.4h-68.6v-9.4h5.2c16.2,0,18-1,18-9.4v-109c0-5-2.8-7.2-9.4-7.2-13.6,0-23.2,7.6-28.4,22.2a127.42,127.42,0,0,0-5.4,24h-8.6l3-55.6h119.8l3,55.6Z"/><path class="c4286051-18b1-4824-8b2b-73f287b246c8" d="M1992.17,326.64a10.61,10.61,0,0,1-11-11c0-3.8.8-5.8,3.6-9-8.4,1-15.2,7.2-20,18.4-5,11.4-7.8,26.6-7.8,41.6v10c0,8,2.2,9.4,15,9.4h3.8v7.2h-53.4V386h2.8c13,0,13.2-1.4,13.2-9.4v-55.8c0-8.6-1.2-10-8.6-10h-8.2v-8.6L1957,300v24.8c6.4-17.6,17.4-27.8,30-27.8,10.6,0,17.4,6.4,17.4,16C2004.36,321.24,1999.36,326.64,1992.17,326.64Z"/><path class="c4286051-18b1-4824-8b2b-73f287b246c8" d="M2092.56,394.64V378c-8.8,12.8-18,18.2-31.2,18.2-12,0-21.6-4.6-27-12.8-3-4.6-3.8-9.2-3.8-19.4v-43.2c0-8.6-1.2-10-8.6-10h-7.6v-8.6l35-2.2v61c0,11,.4,13,3,16.8,2.6,4,7.8,6.2,14,6.2a23.69,23.69,0,0,0,22-14c3-6.6,4.2-13.2,4.2-24.6v-24.6c0-8.6-1.2-10-8.6-10h-10.2v-8.6l37.6-2.2v70c0,12.8,1.6,14.6,12.6,14.6h5v8.6Z"/><path class="c4286051-18b1-4824-8b2b-73f287b246c8" d="M2184,396.24a42.66,42.66,0,0,1-27.4-9.8l-7,8.2h-7v-37.8h8c4.8,20,16.8,30.8,33.6,30.8,11.8,0,20-6.6,20-16,0-8-5.6-12-21.4-15.8l-10.6-2.4c-12-2.8-16.6-4.8-21.2-9-4.4-4-7-10.6-7-18.4,0-17.4,11.6-29,29.2-29,10,0,17.2,2.4,24.4,8l5.8-7.2h7v33.6h-7c-3.2-9.2-5.4-13.2-9.8-17.6a26.58,26.58,0,0,0-19.4-8c-11,0-18.6,5.8-18.6,13.8a11.7,11.7,0,0,0,7,10.6c3.6,2,3.6,2,14.6,4.4l10,2.2c12.2,2.6,16.2,4.2,21,8.4,5.6,4.6,8.4,11.4,8.4,20.2C2216.56,384,2203.56,396.24,2184,396.24Z"/><path class="c4286051-18b1-4824-8b2b-73f287b246c8" d="M2268.16,396.24c-11.8,0-19.4-4.6-22.8-13-2-4.6-2.4-9.4-2.4-23.6v-51h-16.4v-7.8c16.2-1.2,25-14.4,27-40.4h8.2V300h29.4v8.6h-29.4v54.6c0,15.8,2.6,20.8,11.8,20.8,9.8,0,15-9.2,15.6-27.2h8.4a41.85,41.85,0,0,1,.2,4.6C2297.76,380.44,2288,396.24,2268.16,396.24Z"/></g></g></svg>