<?xml version="1.0" encoding="utf-8"?>
<!-- Generator: Adobe Illustrator 21.0.2, SVG Export Plug-In . SVG Version: 6.00 Build 0)  -->
<svg version="1.1"
	 id="svg4339" inkscape:version="0.91 r13725" sodipodi:docname="slide - 5 image.svg" xmlns:cc="http://creativecommons.org/ns#" xmlns:dc="http://purl.org/dc/elements/1.1/" xmlns:inkscape="http://www.inkscape.org/namespaces/inkscape" xmlns:rdf="http://www.w3.org/1999/02/22-rdf-syntax-ns#" xmlns:sodipodi="http://sodipodi.sourceforge.net/DTD/sodipodi-0.dtd" xmlns:svg="http://www.w3.org/2000/svg"
	 xmlns="http://www.w3.org/2000/svg" xmlns:xlink="http://www.w3.org/1999/xlink" x="0px" y="0px" viewBox="0 0 1600 900"
	 style="enable-background:new 0 0 1600 900;" xml:space="preserve">
<style type="text/css">
	.st0{fill:#B1DBB1;}
	.st1{fill:#75292F;stroke:#000000;}
	.st2{fill:#FABFDC;fill-opacity:0.7843;stroke:#000000;}
	.st3{fill:#101010;stroke:#000000;}
	.st4{fill:#677C8F;stroke:#000000;}
	.st5{fill:#3E76AB;stroke:#000000;}
	.st6{opacity:0.936;fill:#D84F22;enable-background:new    ;}
	.st7{fill:#93E6FA;fill-opacity:0.7843;stroke:#000000;}
	.st8{fill:none;stroke:#000000;}
	.st9{fill:#FDFDFD;stroke:#000000;}
	.st10{fill:#FFFFFD;fill-opacity:0.7843;stroke:#000000;}
	.st11{fill:#FEFCFE;stroke:#000000;}
	.st12{fill:#E883CC;fill-opacity:0.7843;stroke:#000000;}
	.st13{fill:#FAC0DC;fill-opacity:0.7843;stroke:#000000;}
	.st14{fill:#101F14;stroke:#000000;}
	.st15{fill:#FDFDFE;stroke:#000000;}
	.st16{fill:#FAF8F7;fill-opacity:0.7843;stroke:#000000;}
	.st17{fill:#FAFAF8;fill-opacity:0.7843;stroke:#000000;stroke-width:1.1479;}
	.st18{fill:#FA93F8;fill-opacity:0.7843;stroke:#000000;}
	.st19{fill:#FAFAF8;fill-opacity:0.7843;stroke:#000000;}
	.st20{fill:#070707;stroke:#000000;}
	
		.st21{opacity:0.51;fill:none;stroke:#3665B6;stroke-width:4.25;stroke-linecap:round;stroke-linejoin:round;enable-background:new    ;}
	.st22{opacity:0.965;fill:#112D2D;enable-background:new    ;}
	.st23{opacity:0.965;fill:#F4FBFC;enable-background:new    ;}
	
		.st24{opacity:0.51;fill:#FDFDFD;stroke:#3665B6;stroke-width:3.5234;stroke-linecap:round;stroke-linejoin:round;enable-background:new    ;}
	.st25{opacity:0.965;fill:#2D1111;enable-background:new    ;}
	
		.st26{opacity:0.51;fill:#F4FCF6;stroke:#73B636;stroke-width:4.25;stroke-linecap:round;stroke-linejoin:round;enable-background:new    ;}
	.st27{fill:#2D777F;stroke:#000000;}
	.st28{fill:#070707;stroke:#000000;stroke-width:0.9601;}
	.st29{fill:#2D777F;stroke:#000000;stroke-width:1.263;}
	.st30{opacity:0.965;fill:#2D777F;enable-background:new    ;}
	.st31{opacity:0.965;fill:#F9FBFC;enable-background:new    ;}
	.st32{fill:#393232;stroke:#F8F8F8;stroke-width:0.8542;stroke-linecap:round;stroke-linejoin:round;}
	.st33{fill:#FCF9F9;}
	.st34{font-family:Roboto, quicksand, Arial,'Arial-BoldMT';}
	.st35{font-size:25px;}
	.st36{font-size:44.9679px;}
	.st37{font-size:29.9786px;}
</style>
<sodipodi:namedview  bordercolor="#666666" borderopacity="1.0" id="base" inkscape:current-layer="layer1" inkscape:cx="-184.65999" inkscape:cy="520" inkscape:document-units="px" inkscape:pageopacity="0.0" inkscape:pageshadow="2" inkscape:window-height="744" inkscape:window-maximized="1" inkscape:window-width="1317" inkscape:window-x="49" inkscape:window-y="24" inkscape:zoom="0.35" pagecolor="#ffffff" showgrid="false" units="px">
	</sodipodi:namedview>
<g id="layer1" transform="translate(0,-152.36216)" inkscape:groupmode="layer" inkscape:label="Layer 1">
	<rect id="rect5907" x="-17.1" y="134.1" class="st0" width="1634.3" height="940"/>
	<path id="path4205" inkscape:connector-curvature="0" class="st1" d="M1111,605.5c0,8.7,0.6,9.3,0.6,9.3s0.6,0.6,9.3,4.4
		s14.3,8.7,19.3,8.7s21.8,0.6,29.9,1.2c8.1,0.6,24.3-1.9,26.8-3.1s14.3-3.7,19.3-6.2c5-2.5,5-11.8,2.5-11.8s-1.2,0-9.3,2.5
		c-8.1,2.5-16.8,5.6-21.8,5.6s-14.9,2.5-19.9,2.5s-17.4-2.5-21.2-2.5c-3.7,0-14.3-4.4-19.3-5.6S1111,605.5,1111,605.5L1111,605.5z"
		/>
	<path id="path4179" inkscape:connector-curvature="0" class="st2" d="M1107.9,741.2c0,13.7,1.9,11.2-1.2,19.3s-0.6,11.2-6.2,25.5
		c-5.6,14.3-8.1,18.1-9.3,29.9c-1.2,11.8-1.2,23-3.7,34.2s-11.8,23-13.1,27.4c-1.2,4.4-1.9,16.2-0.6,17.4c1.2,1.2,10,5,16.2,5.6
		c6.2,0.6,15.6-1.2,19.3-5.6c3.7-4.4,5.6-11.8,5.6-15.6s-0.6-5.6,0-12.5s-2.5-5,0-13.1c2.5-8.1,7.5-17.4,10-23.7
		c2.5-6.2,1.2-3.7,5.6-16.8c4.4-13.1,3.7-23.7,6.8-27.4c3.1-3.7,5.6-5.6,10.6-18.7s8.7-17.4,5-17.4c-3.7,0-10.6,0-19.3-2.5
		C1124.7,744.9,1107.9,741.2,1107.9,741.2L1107.9,741.2z"/>
	<path id="path4181" inkscape:connector-curvature="0" class="st2" d="M1169.5,751.2c0,8.7,1.2,12.5,2.5,19.9
		c1.2,7.5-2.5,3.7-4.4,12.5s-3.7,16.8-2.5,23c1.2,6.2-1.9,10.6,0.6,18.7c2.5,8.1,1.2,9.3,3.7,17.4c2.5,8.1,6.8,14.3,5.6,19.9
		c-1.2,5.6,0,0.6-1.2,12.5c-1.2,11.8-1.2,11.8-1.2,11.8s0-3.7,0,0s-5.6,2.5,0,3.7s16.8,1.9,25.5,2.5c8.7,0.6,24.9-0.6,28-1.2
		s9.3-3.1,9.3-7.5s3.1-6.2,0-7.5s-6.2-1.9-11.2-1.9s-9.3-2.5-14.3-4.4s-10-5-10.6-9.3c-0.6-4.4,3.7-28.6,3.1-34.2
		c-0.6-5.6,0.6-16.2,0.6-29.3s0-7.5,0-13.1s3.7-11.2,5-17.4c1.2-6.2,7.5-20.5,3.7-19.3c-3.7,1.2,21.2-1.9-3.7,1.2
		S1196.3,752.4,1169.5,751.2L1169.5,751.2z"/>
	<path id="path4183" inkscape:connector-curvature="0" class="st2" d="M1375.6,740.6c3.1,17.4,7.5,23,9.3,34.9
		c1.9,11.8,4.4,10.6,4.4,18.7c0,8.1,0,26.8,0,41.1s3.7,30.5,1.9,36.7s-5,8.1-8.1,9.3c-3.1,1.2-10.6,6.2-15.6,6.2s-10,0-12.5,5
		c-2.5,5-1.9,11.2,2.5,12.5s33.6-0.6,37.4,0c3.7,0.6,26.8,0.6,26.8-2.5c0-3.1,1.9-12.5,0-16.2s-3.7-9.3-3.7-16.2s8.1-48.6,8.1-54.8
		s-5.6-26.1-5.6-31.7s11.2-34.9,5.6-34.2c-5.6,0.6-19.3-1.2-30.5-3.1S1375.6,740.6,1375.6,740.6L1375.6,740.6z"/>
	<path id="path4185" inkscape:connector-curvature="0" class="st2" d="M1436,751.2c5.6,21.2,5,27.4,10,33s11.2,10.6,11.2,13.7
		s-3.1,3.7,0,13.7c3.1,10,6.2,16.8,10,25.5c3.7,8.7,8.7,16.8,8.7,24.9s0.6,11.2,0.6,16.2s1.2,8.7,1.2,14.9c0,6.2,0.6,11.8,3.1,17.4
		c2.5,5.6,23,3.1,27.4,3.1s9.3-1.2,9.3-5.6s1.2-8.7,0-13.1c-1.2-4.4-2.5-17.4-6.8-22.4s-4.4-2.5-6.2-11.2
		c-1.9-8.7,1.2-15.6-1.9-30.5s-5-22.4-11.2-41.7s-8.1-21.8-8.1-29.9c0-8.1,5.6-19.9,0-16.2c-5.6,3.7-5,5-24.9,6.8
		S1436,751.2,1436,751.2L1436,751.2z"/>
	<path id="path4187" inkscape:connector-curvature="0" class="st3" d="M1421,880.6c3.7,5,5.6,17.4,5,23.7c-0.6,6.2,1.2,9.3-0.6,10.6
		c-1.9,1.2-10.6-0.6-15.6-0.6s-6.8-2.5-11.8-1.2s-10.6,2.5-15.6,3.7s-18.1-1.2-23-1.2s-13.1-3.1-14.9-8.7s0-8.7,3.1-13.7
		c3.1-5,8.1-8.1,13.1-9.3c5-1.2,13.1-0.6,15.6-3.1c2.5-2.5,6.8-6.8,8.7-2.5c1.9,4.4,0.6,8.1,4.4,11.2s10,3.7,14.9,3.1
		c5-0.6,6.8,1.2,10.6-2.5C1418.5,886.2,1421,880.6,1421,880.6L1421,880.6z"/>
	<path id="path4189" inkscape:connector-curvature="0" class="st3" d="M1474.6,874.4c-1.2,13.1-1.2,18.1-1.2,28.6
		c0,10.6,1.9,14.3,3.7,17.4s8.1,5.6,16.2,5.6s14.3,0,19.9-1.9s14.9-6.8,14.9-11.2s1.2-7.5,0-13.1c-1.2-5.6-6.2-9.3-10-17.4
		c-3.7-8.1-6.2-14.3-7.5-12.5c-1.2,1.9-1.9,7.5-4.4,6.2s-11.2-1.9-14.3-1.2c-3.1,0.6-12.5,13.1-14.3,8.1
		C1475.8,878.2,1474.6,874.4,1474.6,874.4L1474.6,874.4z"/>
	<path id="path4191" inkscape:connector-curvature="0" class="st3" d="M1169.5,870.7c-4.4,13.1-4.4,14.9-4.4,21.2
		s-3.1,10.6,0.6,11.2c3.7,0.6,5.6,4.4,11.8,1.9c6.2-2.5,16.2-3.1,19.3-1.9c3.1,1.2,14.9,3.1,19.3,3.1s8.1,0,18.7-1.9
		s13.7-6.8,13.7-11.8c0-5-1.2-8.7-6.2-13.1s-10.6-5-18.1-7.5s-16.8-8.1-17.4-5.6c-0.6,2.5,1.9,5-0.6,8.1c-2.5,3.1-3.1,6.2-6.8,6.8
		c-3.7,0.6-11.2-1.9-14.3-1.9c-3.1,0-10.6-3.7-10.6-3.7L1169.5,870.7z"/>
	<path id="path4193" inkscape:connector-curvature="0" class="st3" d="M1114.7,862.6c2.5,3.7,3.7,3.7,3.7,11.2s0,16.8,0,21.2
		s1.2,12.5-1.9,14.9s-12.5,4.4-15.6,5.6s-9.3-1.9-13.7-1.2c-4.4,0.6-12.5-1.2-15.6-3.7c-3.1-2.5-6.2-6.8-7.5-11.2
		c-1.2-4.4-1.9-4.4,1.2-11.8c3.1-7.5,6.2-13.1,10-18.7c3.7-5.6,7.5-13.7,7.5-12.5s-3.7,10,1.2,7.5s6.2-1.9,10-2.5
		c3.7-0.6,11.2,3.1,14.9,6.2c3.7,3.1,6.8,6.2,6.8,7.5S1114.7,862.6,1114.7,862.6L1114.7,862.6z"/>
	<path id="path4195" inkscape:connector-curvature="0" class="st4" d="M1111,614.2c-6.2,17.4-10,25.5-10.6,34.9s-0.6,14.3-3.1,28
		c-2.5,13.7-1.2,19.9-2.5,26.8c-1.2,6.8-3.7,21.2-3.7,24.3s0.6,5,6.8,8.7s20.5,7.5,26.1,8.7s18.1,3.7,24.3,3.1
		c6.2-0.6,10.6,8.1,12.5,1.2c1.9-6.8,11.2-26.8,12.5-31.1c1.2-4.4,1.9-24.3,1.9-16.2c0,8.1-1.9,18.1-4.4,28s-2.5,11.8-2.5,15.6
		s3.1,5,5.6,3.7s7.5,0.6,11.2,0c3.7-0.6,11.8-0.6,14.9-0.6s14.9,0,20.5-3.1c5.6-3.1,11.8-3.7,11.8-6.8s-0.6-31.7-0.6-37.4
		s-3.1-32.4-3.1-39.2s-1.9-17.4-4.4-28.6c-2.5-11.2-2.5-19.9-5-18.1s-6.8,5-12.5,6.8c-5.6,1.9-4.4,1.2-12.5,1.9
		c-8.1,0.6-14.3,3.1-21.8,3.7c-7.5,0.6-13.1-0.6-19.3,0c-6.2,0.6-14.9-1.2-20.5-3.1c-5.6-1.9-13.1-6.8-16.2-7.5
		C1113.5,617.3,1111,614.2,1111,614.2L1111,614.2z"/>
	<path id="path4197" inkscape:connector-curvature="0" class="st5" d="M1134.7,614.2c0,14.9-4.4,14.9,0,14.9s8.1,3.7,6.8,0
		c-1.2-3.7,1.2-13.7-1.2-13.7S1134.7,614.2,1134.7,614.2z"/>
	<path id="path4201" inkscape:connector-curvature="0" class="st5" d="M1208.1,611.1c0,13.1-1.2,11.8,1.2,12.5
		c2.5,0.6,6.2,1.9,6.2-1.9c0-3.7,0-13.1,0-13.1L1208.1,611.1z"/>
	<rect id="rect4203" x="1170.8" y="618.6" class="st6" width="22.4" height="13.1"/>
	<path id="path3347" inkscape:connector-curvature="0" class="st4" d="M1373.1,575.3c-12.3,31.7-8.8,23.8-16.7,56.3
		c-7.9,32.6-9.7,49.3-14.1,71.3s-7.9,22-2.6,22c5.3,0,29.9,16.7,43.1,20.2c13.2,3.5,31.7,8.8,47.5,7c15.8-1.8,22,0.9,44-6.2
		c22-7,22.9-6.2,33.5-15.8c10.6-9.7,9.7-13.2,7-20.2c-2.6-7-6.2-22-11.4-42.3c-5.3-20.2-9.7-38.7-14.1-42.3
		c-4.4-3.5-9.7-1.8-21.1-11.4s-17.6-20.2-22-19.4s-2.6-1.8-15.8-1.8c-13.2,0-17.6,2.6-30.8-3.5
		C1386.3,583.2,1373.1,575.3,1373.1,575.3L1373.1,575.3z"/>
	<path id="path3349" inkscape:connector-curvature="0" class="st7" d="M1086.1,594.7c-0.9,15.8,1.8,25.5,2.6,30.8
		s10.6,18.5,13.2,11.4c2.6-7,8.8-18.5,8.8-22.9s0-9.7,0-9.7s-7.9,9.7-6.2-0.9c1.8-10.6-0.9-8.8,1.8-10.6s10.6-2.6,16.7-8.8
		c6.2-6.2,8.8-3.5,15-13.2s16.7-24.7,15-24.7c-1.8,0-7-3.5-9.7,2.6c-2.6,6.2-3.5,7-9.7,15c-6.2,7.9-11.4,16.7-15.8,18.5
		c-4.4,1.8-6.2,0.9-12.3,5.3S1086.1,594.7,1086.1,594.7L1086.1,594.7z"/>
	<path id="path3351" inkscape:connector-curvature="0" class="st7" d="M1132.8,512.8c14.1-7,18.5-5.3,18.5-9.7s5.3-1.8-0.9-9.7
		c-6.2-7.9-7-8.8-11.4-16.7c-4.4-7.9-9.7-28.2-15-25.5c-5.3,2.6-4.4,5.3-12.3,6.2c-7.9,0.9-12.3-1.8-15.8,7.9s-4.4,26.4,0.9,22
		c5.3-4.4,11.4-7.9,11.4-13.2c0-5.3-7-8.8,0-5.3c7,3.5,7.9,7,13.2,15S1132.8,512.8,1132.8,512.8L1132.8,512.8z"/>
	<path id="path3353" inkscape:connector-curvature="0" class="st8" d="M1133.6,514.5"/>
	<path id="path3355" inkscape:connector-curvature="0" class="st7" d="M1190,446.8c0,11.4,1.8,8.8,1.8,16.7c0,7.9,5.3,8.8,2.6,16.7
		c-2.6,7.9-1.8,11.4,0.9,14.1s16.7,2.6,16.7-1.8s-0.9-20.2-3.5-28.2c-2.6-7.9-6.2-5.3-7-9.7c-0.9-4.4-0.9-4.4-0.9-4.4L1190,446.8z"
		/>
	<path id="path3357" inkscape:connector-curvature="0" class="st7" d="M1208.5,536.6c4.4,3.5,8.8,30.8,8.8,22.9s0-25.5,0-25.5
		L1208.5,536.6z"/>
	<path id="path3359" inkscape:connector-curvature="0" class="st2" d="M1421.5,449.4c-6.2,22-7,23.8-3.5,28.2
		c3.5,4.4,6.2,7,10.6,8.8s4.4,0.9,13.2,0c8.8-0.9,16.7-7,15-13.2s-4.4-17.6-4.4-17.6s4.4-2.6,0-2.6S1445.3,456.4,1421.5,449.4
		L1421.5,449.4z"/>
	<path id="path3363" inkscape:connector-curvature="0" class="st9" d="M1138.9,440.6c-7,11.4-11.4,9.7-7,19.4s5.3,17.6,11.4,26.4
		c6.2,8.8,15,15,15.8,7.9c0.9-7,7-19.4,7-19.4s3.5-5.3,9.7-1.8c6.2,3.5,15,24.7,15.8,19.4c0.9-5.3,4.4-10.6,3.5-15.8
		c-0.9-5.3-5.3-16.7-5.3-21.1s4.4-2.6,0-6.2c-4.4-3.5-11.4-10.6-11.4-8.8c0,1.8,0,16.7,0,16.7s-4.4,5.3-7,8.8
		c-2.6,3.5-2.6,4.4-7.9,3.5c-5.3-0.9-10.6-7.9-14.1-10.6C1146,456.4,1138.9,440.6,1138.9,440.6L1138.9,440.6z"/>
	<path id="path3365" inkscape:connector-curvature="0" sodipodi:nodetypes="csssssssscssssscc" class="st10" d="M1417.1,462.6
		c-5.3,5.3-8.8,4.4-12.3,13.2c-3.5,8.8,1.7,19.4,1.8,22.9c0.1,4,10.9,16.3,8.8,4.4c-0.6-3.5,7.9-7,11.4-10.6
		c3.5-3.5,6.2-2.6,6.2,0.9s0.9,12.3,4.4,15c3.5,2.6-1.7,6,4.5,4.2c6.2-1.8,7-6.8,12.3-13c5.3-6.2,11.4-23.8,11.4-23.8
		s-9.7-15-9.7-11.4c0,3.5,1.8,8.8,0,13.2s-4.4,7.9-9.7,8.8c-5.3,0.9-9.7,2.6-14.1,0.9s-13.2-2.6-13.2-6.2c0-3.5-3.5-5.3-3.5-5.3
		L1417.1,462.6z"/>
	<path id="path3367" inkscape:connector-curvature="0" sodipodi:nodetypes="csssssssssssc" class="st11" d="M1499,494.3
		c14.1,25.5,25.5,44.9,26.4,47.5c0.9,2.6-10.8,10.6-13.9,14.5c-3.5,4.5-13.9,5.7-19.4,6.2c-5.2,0.4-6-0.5-11.7-3.1
		c-5.5-2.5-7.7-0.6-8.8-3.5c-2.2-5.8-2.6-30.8-2.6-26.4s4.4,29.9,0,28.2s-4.4,1.8-4.4-1.8c0-3.5-1.8,3.5,0-12.3
		c1.8-15.8-0.9-23.8,6.2-36.1c7-12.3,7.9-17.6,12.3-18.5S1499,494.3,1499,494.3L1499,494.3z"/>
	<path id="path3369" inkscape:connector-curvature="0" class="st11" d="M1388.1,475.8c-12.3,10.6-15.8,17.6-23.8,25.5
		c-7.9,7.9-15.8,9.7-13.2,11.4c2.6,1.8,2.6,11.4,7,17.6s9.7,19.4,11.4,9.7s0-21.1,3.5-33.5c3.5-12.3,8.8-12.3,11.4-22
		c2.6-9.7,5.3-12.3,5.3-12.3"/>
	<path id="path3371" inkscape:connector-curvature="0" class="st10" d="M1402.2,481.1c-4.4,19.4-7,28.2-4.4,36.1
		c2.6,7.9,11.4,11.4,15.8,11.4c4.4,0,17.6,7.9,17.6,2.6s8.8,1.8,9.7-2.6c0.9-4.4,7.9-15,7.9-18.5s0.9-5.3-2.6-1.8
		c-3.5,3.5-3.5,7-7,2.6s-5.3-27.3-7.9-23.8c-2.6,3.5-9.7,6.2-13.2,11.4s-2.6,14.1-6.2,8.8C1408.3,502.2,1402.2,481.1,1402.2,481.1
		L1402.2,481.1z"/>
	<path id="path3373" inkscape:connector-curvature="0" class="st9" d="M1109,471.4c-16.7,21.1-31.7,36.1-30.8,37.9
		c0.9,1.8,8.8,10.6,16.7,15.8c7.9,5.3,15.8,15,21.1,12.3c5.3-2.6,0.9,0.9,7.9-11.4c7-12.3,6.2-0.9,5.3-14.1
		c-0.9-13.2-1.8-13.2-5.3-20.2C1120.4,484.6,1109,471.4,1109,471.4L1109,471.4z"/>
	<path id="path3375" inkscape:connector-curvature="0" class="st9" d="M1209.4,465.2c0,0,15,9.7,20.2,21.1
		c5.3,11.4,18.5,20.2,12.3,22.9c-6.2,2.6-13.2,19.4-17.6,13.2c-4.4-6.2-5.3-1.8-5.3-7.9c0-6.2,1.8-1.8,1.8-7.9s4.4-4.4-2.6-10.6
		s-8.8,6.2-7.9-12.3C1211.1,465.2,1209.4,465.2,1209.4,465.2L1209.4,465.2z"/>
	<path id="path3377" inkscape:connector-curvature="0" sodipodi:nodetypes="csssssssssssc" class="st12" d="M1457.6,462.6
		c33.5,11.4,40.5,12.3,42.3,20.2c1.8,7.9,9.7,24.7,2.6,18.5c-7-6.2-14.1-16.1-20.2-11.7c-6.2,4.4-7.9,9.9-12.3,16.9
		c-4.4,7-7.9,15-10.6,23.8s-2.6,17.6-6.2,17.6s-10.6-3.5-10.6-7.9s-6.2-9.7-2.6-13.2c3.5-3.5,6.2-9.7,7-15
		c0.9-5.3,6.2-9.7,10.6-18.5c4.4-8.8,7.9-12.9,7.9-15.4C1465.7,471.4,1464.3,477.7,1457.6,462.6L1457.6,462.6z"/>
	<path id="path3379" inkscape:connector-curvature="0" sodipodi:nodetypes="csssssssssc" class="st12" d="M1439.1,578.8
		c3.5,14.1,8.2,8.2,17.6,22.9c12.3,19.1,25.5,21.4,29.9,19.4c5.6-2.6,2.6,15,8.8,22c6.2,7,7,11.4,11.4,6.2s4.4-9.7,4.4-20.2
		s3.5-17.6-0.9-17.6s-13.2,0-17.6-1.8c-4.4-1.8-13.2-5.3-19.4-10.6c-6.2-5.3-14.1-17.6-20.2-17.6S1439.1,578.8,1439.1,578.8z"/>
	<path id="path3381" inkscape:connector-curvature="0" class="st12" d="M1398.6,460c-1.8,6.2-7,11.4-9.7,16.7
		c-2.6,5.3-4.4,9.7-7.9,16.7c-3.5,7-7,13.2-7,19.4s-6.2,14.1-6.2,22s2.6,14.1,2.6,20.2c0,6.2,4.4,14.1,5.3,7c0.9-7,4.4-27.3,6.2-37
		s4.4-15.8,8.8-23.8c4.4-7.9,7-17.6,14.1-28.2c7-10.6,15-12.3,13.2-12.3C1416.2,460.8,1398.6,460,1398.6,460L1398.6,460z"/>
	<path id="path3383" inkscape:connector-curvature="0" class="st4" d="M1374,563c-2.6,13.2-5.3,7.9,3.5,15s20.2,14.1,26.4,14.1
		s16.7,1.8,24.7,2.6c7.9,0.9,23.8,3.5,20.2,0.9s-5.3-15.8-10.6-15.8c-5.3,0-8.8,2.6-11.4-3.5c-2.6-6.2-6.2-9.7-2.6-22.9
		s14.1-22,6.2-22.9c-7.9-0.9-19.4-2.6-25.5-7c-6.2-4.4-6.2-5.3-6.2-13.2s6.2-34.3,2.6-30.8c-3.5,3.5-10.6,18.5-10.6,23.8
		s-2.6,0-6.2,16.7C1381,536.6,1374,563,1374,563L1374,563z"/>
	<path id="path3403" inkscape:connector-curvature="0" sodipodi:nodetypes="cssssssscsssssssssssccsssssssssc" class="st2" d="
		M1281.3,471.6c14.1,18.5,16.1,31.5,18.7,32.4c2.6,0.9,5.3-2.6,6.2,1.8s6.2,28.2,10.6,41.4s10.6,24.7,16.7,27.3
		c6.2,2.6,22,3.5,26.4,0.9c4.4-2.6,11.4-7,11.4-13.2c0-6.2-0.9-15.8-4.4-19.4s-14.1-20.2-14.1-20.2s-1.8,9.7-4.4,5.3
		c-2.6-4.4-23.8-32.6-21.1-35.2c2.6-2.6,2.6-4.4,2.6-9.7V474c0-3.5,6.2-16.7,2.6-17.6c-3.5-0.9,0-2.6-3.5-0.9
		c-3.5,1.8-4.4,4.4-8.8,12.3c-4.4,7.9-4.9,21.3-4.4,13.2c0.4-7.9,5.3-8.8,5.3-13.2c-0.1-6.9-2.6-2.6-7-10.6
		c-4.4-7.9-4.1-11.1-7-13.2c-2.9-2.1-4.3,2.4-4.4,2.6l2.6,14.1c0,0,3.5,6.2,0.9,1.8c-2.6-4.4-5.3-10.6-9.7-13.2
		c-4.8-2.9-0.2-2.4-4.4-3.5c-5.5-1.5-3.9,3.7,3.5,14.1c3.7,5.1,11.4,15,8.8,11.4s-8.8-11.9-13.2-15c-11.1-7.9-6.3-0.2-0.9,7.9
		c5.3,7.9,11.4,19.4,6.2,14.1c-5.3-5.3-12-9.4-13.2-9.7C1280.2,468.1,1281.3,471.6,1281.3,471.6L1281.3,471.6z"/>
	<path id="path3407" inkscape:connector-curvature="0" class="st2" d="M1429.7,578.7c-4.4-7.5-10-13.7-6.8-13.1
		c3.1,0.6,12.5,11.8,8.1,6.8c-4.4-5-9.3-5.6-9.3-8.7s0-10,3.1-5.6s7.5,11.2,6.8,8.7s-9.3-7.5-9.3-11.8s1.2-10.6,3.1-7.5
		c1.9,3.1-2.5-1.2,1.9,3.1s6.2,7.5,4.4,5c-1.9-2.5-5.6-13.1-5.6-13.1s5,1.2,5-5.6s-2.5-6.8,0-6.8c2.5,0,7.5-3.1,8.1,1.2
		s1.2,8.1,4.4,11.8c3.1,3.7,11.8,5,11.8,5s2.5-13.7,3.7-10c1.2,3.7-0.6,11.8,2.5,16.8c3.1,5,7.5,0,14.3,2.5s14.3,8.7,23,5
		c8.7-3.7,18.1-10,18.1-10s-0.6-3.7,1.2,1.9s4.4,8.7,4.4,16.8s0,11.8,0,18.1c0,6.2-1.2,10-1.9,14.3c-0.6,4.4-0.6,2.5-5.6,5.6
		c-5,3.1-6.8,0-11.2,0c-4.4,0-6.2,2.5-13.1-1.2s-12.5-3.7-16.2-8.1c-3.7-4.4-6.2-3.1-10.6-9.3c-4.4-6.2-9.3-9.3-11.8-9.3
		S1450.9,579.3,1429.7,578.7L1429.7,578.7z"/>
	<path id="path3409" inkscape:connector-curvature="0" sodipodi:nodetypes="cssssssssssssssssssssscssssssssscc" class="st2" d="
		M1196.9,494.7c-6.2,10-5,14.9-2.5,14.9s15.6-5.6,11.8-3.7c-3.7,1.9-13.1,1.9-13.1,5s-1.2,10,1.9,10s14.9-8.1,13.1-5.6
		s-14.3,3.1-14.3,6.8s0,6.2,3.1,5.6c3.1-0.6,9.3-1.2,12.5-1.9c3.1-0.6,10.6-3.1,3.1-0.6c-7.5,2.5-15.6,1.2-15.6,4.4s1.2,5.6,5.6,5.6
		s-1.9,1.9,4.4,0s12.5-8.1,12.5-3.7s1.2,6.2,0,14.9c-1.2,8.7-1.9,16.2,0,23c1.9,6.8,2.5,5,11.2,8.7c8.7,3.7,7.5,0.6,13.1,0.6
		s6.8,2.5,10-4.4c3.1-6.8,3.7-16.2,3.1-20.5c-0.6-4.4-1.9-14.3-4.4-19.9c-2.5-5.6-11.8-26.1-13.1-21.8c-1.2,4.4-7.5,8.1-7.5,8.1
		s-4.4,0.6-3.7,0.6c0.6,0,6.8,10.6,8.7,13.1c1.9,2.5,17.4,24.9,14.3,21.8s-14.9-22.4-18.1-27.4c-3.1-5-0.6-5-3.1-5
		c-2.5,0-5.6-4.3-8.7-5.6c-3-1.3-1.9,0-0.9-6.8c1-6.9,1.9-4.8,1.6-7.5c-0.3-2.5-1.2-8.7-4.4-8.7h-11.2L1196.9,494.7z"/>
	<path id="path3411" inkscape:connector-curvature="0" sodipodi:nodetypes="cssssssscssssssc" class="st2" d="M1150.2,543.2
		c6.2,3.1,9.3,7.5,9.3,4.4s4.4-3.1,2.5-6.8s-9.3-9.3-5.6-7.5c3.7,1.9,7.5,11.2,7.5,8.1s3.1-9.3,0.6-10c-2.5-0.6-10-10.6-7.5-7.5
		c2.5,3.1,6.8,8.7,6.8,6.2v-6.8c0,0-12.5-10-8.1-7.5c4.4,2.5,10,9.3,10,6.2s2.5-2.5,0-6.2c-2.5-3.7-12.5-13.1-14.9-10.6
		c-2.5,2.5-11.2,6.2-14.3,6.2s-3.7-1.2-5,3.7c-1.2,5-5.6,5.6-5.6,10c-5.6,12.5-8.1,10.6-15.6,14.9c-7.5,4.4-16.8,13.7-16.8,11.2
		s16.8-12.5,16.8-12.5s1.2,1.2-1.2-1.9s-11.8-10.6-16.8-14.3c-5-3.7-6.2-8.7-8.1-6.2s-5.6,12.5-8.1,21.8s-6.2,17.4-6.2,25.5
		s0.6,21.8,0.6,24.9s3.7,5.6,9.3,5.6c5.6,0,13.1-0.6,18.1-3.1c5-2.5,10.6-4.4,15.6-7.5s8.1-3.7,13.1-10.6s7.5-13.1,12.5-19.3
		c5-6.2,6.2-10,8.7-10.6S1150.2,543.2,1150.2,543.2L1150.2,543.2z"/>
	<path id="path3361" inkscape:connector-curvature="0" class="st2" d="M1142.4,435.3c0,9.7,0.9,16.7,5.3,21.1
		c4.4,4.4,7,13.2,14.1,13.2s6.2,0.9,11.4-4.4c5.3-5.3,5.3-6.2,5.3-12.3c0-6.2,3.5-15.8,0-15.8s-1.8-0.9-12.3,0
		C1155.6,438,1142.4,435.3,1142.4,435.3z"/>
	<path id="path3413" inkscape:connector-curvature="0" sodipodi:nodetypes="csssscsssssssssscssc" class="st2" d="M1091.7,366.4
		c3.7-62.3,14.9-68.5,51-82.2c36.1-13.7,59.8-5,74.7-5s36.1,19.9,32.4,21.2c-3.7,1.2-8.7-5-8.7,0s1.2,19.9,1.2,19.9s-10,6.2,0,1.2
		s16.2-8.7,16.2-3.7s-1.2,14.9-5,23.7c-3.7,8.7-14,7.8-12.8,15.3c1.2,7.5,5.3,10.9,2.8,24.6s-19.9,32.4-28.6,42.3
		c-8.7,10-16.2,14.9-24.9,14.9c-8.7,0-28.6,3.7-37.4-1.2s-29.9-3.7-38.6-14.9s-17.4-36.1-21.2-29.9c-3.7,6.2-14.9,6.2-14.9,6.2
		s-8.7-5-11.2-14.9c-2.5-10-5-14.9,1.2-18.7C1074.3,361.5,1091.7,366.4,1091.7,366.4z"/>
	<path id="path3415" inkscape:connector-curvature="0" class="st13" d="M1358.1,317.9c-3.7,21.2-6.2,12.5-11.2,21.2
		c-5,8.7-6.2,28.6-2.5,32.4c3.7,3.7,11.2-1.2,11.2,7.5c0,8.7-6.2,11.2,0,24.9c6.2,13.7,7.5,21.2,17.4,31.1
		c10,10,23.7,21.2,31.1,21.2s21.2-5,29.9-5c8.7,0,21.2,1.2,29.9-2.5c8.7-3.7,16.2-5,24.9-13.7c8.7-8.7,8.7-27.4,14.9-22.4
		c6.2,5,13.7,8.7,19.9,2.5c6.2-6.2,11.2-14.9,7.5-26.1s-8.7-12.5-13.7-12.5s-17.4,17.4-17.4,8.7c0-8.7,0,0,0-17.4
		s13.7-12.5-11.2-37.4c-24.9-24.9-41.1-24.9-57.3-27.4s-42.3-7.5-53.5-2.5c-11.2,5-21.2,22.4-21.2,22.4"/>
	<path id="path3417" inkscape:connector-curvature="0" class="st14" d="M1079.9,362.7c-10.6-21.2-16.2-29.9-18.1-44.2
		c-1.9-14.3-1.2-12.5,3.7-31.1c5-18.7,14.9-31.7,23.7-39.2c8.7-7.5,23.7-14.3,28-14.3s14.3,5,10,0.6c-4.4-4.4-18.7-6.2-16.2-8.1
		c2.5-1.9,18.1,7.5,19.3,3.7c1.2-3.7,5.6-19.9,5.6-12.5c0,7.5-4.4,19.3,1.2,14.3c5.6-5,11.8-6.8,18.7-8.7c6.8-1.9,18.1-1.9,26.1-2.5
		c8.1-0.6,21.8,1.9,26.8,4.4s12.5,9.3,16.8,13.1c4.4,3.7,17.4,18.1,18.7,25.5c1.2,7.5,4.4,17.4,5,28s-4.4,23-4.4,15.6
		s2.5-10.6-3.7-11.2c-6.2-0.6-26.8-13.7-23.7-10.6c3.1,3.1,19.9,10.6,11.8,10.6c-8.1,0-17.4-0.6-23-1.2c-5.6-0.6-10.6-8.1-14.9-8.1
		s-10-3.1-4.4,0c5.6,3.1,3.7,8.7,8.7,12.5s10,1.9,5,3.7c-5,1.9-6.2-1.9-13.1-5.6s-10.6-8.7-13.7-8.7s-6.2-5-3.1,0s7.5,13.7,10,16.2
		s2.5,2.5,2.5,2.5s7.5,0,0,0s-11.8-2.5-16.2-9.3c-4.4-6.8-5.6-17.4-10-13.1c-4.4,4.4-10,10-14.9,16.8c-5,6.8-2.5,10.6-5,6.8
		s0.6-10.6-2.5-8.1c-3.1,2.5-11.8,4.4-14.9,10s-3.1,9.3-3.1,5.6s1.2-6.8,0-3.7c-1.2,3.1-6.2,18.7-7.5,13.1
		c-1.2-5.6,3.7-13.1-1.2-4.4c-5,8.7-8.7,30.5-10,27.4c-1.2-3.1-3.7-24.9-4.4-19.9c-0.6,5-2.5,23-2.5,31.1c0,8.1,2.5,8.7,0,8.1
		C1088.6,367.1,1079.9,362.7,1079.9,362.7L1079.9,362.7z"/>
	<path id="path4219" inkscape:connector-curvature="0" class="st8" d="M1125.3,340.3c6.2-15.6,16.2-11.8,16.2-11.8"/>
	<path id="path4221" inkscape:connector-curvature="0" class="st8" d="M1220.6,311.7c11.8,1.9,13.1,7.5,13.1,7.5"/>
	<path id="path4223" inkscape:connector-curvature="0" class="st9" d="M1129.1,367.1c21.2-29.9,36.7-10,36.7-6.8
		c0,3.1-1.2,6.2-2.5,9.3c-1.2,3.1-7.5,7.5-12.5,7.5c-5,0-8.1-0.6-10.6-2.5S1129.1,367.1,1129.1,367.1L1129.1,367.1z"/>
	<path id="path4225" inkscape:connector-curvature="0" class="st15" d="M1206.2,351.5c10-36.7,28-13.1,28-10s-1.2,8.1-4.4,10.6
		c-3.1,2.5-1.9,5.6-6.8,5.6S1206.2,351.5,1206.2,351.5z"/>
	<path id="path4227" inkscape:connector-curvature="0" class="st16" d="M1362.5,352.7c27.4-18.7,33.6,15.6,30.5,17.4
		c-3.1,1.9-5,6.2-9.3,7.5c-4.4,1.2-16.2-1.9-17.4-5.6c-1.2-3.7-5-10-5-12.5S1362.5,352.7,1362.5,352.7L1362.5,352.7z"/>
	<path id="path4229" inkscape:connector-curvature="0" class="st9" d="M1430.4,381.4c18.7-31.1,34.2-4.4,36.7-1.2s3.7-0.6,2.5,3.1
		c-1.2,3.7-7.5,11.8-10.6,12.5c-3.1,0.6-8.7,3.1-13.1,1.2c-4.4-1.9-6.8-0.6-11.2-6.8C1430.4,383.9,1430.4,381.4,1430.4,381.4
		L1430.4,381.4z"/>
	<path id="path4231" inkscape:connector-curvature="0" sodipodi:nodetypes="cc" class="st8" d="M1404.8,369.5
		c0,21.3-7,17.5-6.8,17.4"/>
	<path id="path4233" inkscape:connector-curvature="0" class="st8" d="M1394.9,390.1c-4.4,8.7-3.1,10.6-0.6,11.8
		c2.5,1.2,1.2,6.8,5,5c3.7-1.9,9.3,1.9,11.2-1.2c1.9-3.1,0.6-5.6,0.6-5.6"/>
	<path id="path4235" inkscape:connector-curvature="0" class="st8" d="M1184.1,376.1c-1.9,4.4-2.8,6.8-1.6,7.8
		c1.2,0.9,3.4,2.2,5,0.6s2.2-2.8,4.7-3.1s5.3,2.5,6.5,0.9c1.2-1.6,0.9-3.4,2.5-3.4c1.6,0,0.9,1.9,1.6,0s2.2-3.1,0-5
		c-2.2-1.9-1.9-1.2-1.9-1.2"/>
	<path id="path4237" inkscape:connector-curvature="0" class="st8" d="M1168.9,399.4c-2.2,9.3-1.2,10.6-1.2,10.6"/>
	<path id="path4239" inkscape:connector-curvature="0" class="st8" d="M1215.3,386c3.1,5,3.1,5,3.1,5"/>
	<path id="path4241" inkscape:connector-curvature="0" class="st8" d="M1169.2,403.5c7.2,7.5,10.3,12.8,14.3,13.7
		c4,0.9,8.1,0.9,11.2,1.2c3.1,0.3,5.9-0.9,7.5-1.9c1.6-0.9,4-2.2,5.9-4.7c1.9-2.5,6.2-8.7,6.2-10.6c0-1.9,1.2-7.2,1.2-8.4
		s3.4-7.5,0.9-4.4s-5.6,5.6-8.4,7.8c-2.8,2.2-5.6,5-7.2,5.3c-1.6,0.3-2.8,1.9-6.8,2.2s-5.3,1.6-8.7,1.6s-7.5-0.9-8.7-0.9
		C1175.4,404.4,1169.2,403.5,1169.2,403.5L1169.2,403.5z"/>
	<path id="path4243" inkscape:connector-curvature="0" sodipodi:nodetypes="ccssssssssc" class="st17" d="M1177.5,404.7
		c2.9,5.8,2.1,6.2,3.3,6.5c1.2,0.3,4.6,0.6,8.7-0.3c4.1-0.9,8.3-0.6,10-1.5c1.7-0.9,2.1,0,5-2.2s3.3-3.4,4.6-4.9
		c1.2-1.5,3.3-2.5,2.5-4c-0.8-1.5,3-4.6,0.1-4.3c-2.9,0.3-6.7,5.6-9.6,6.8s-7,2.5-11.2,3.1C1186.6,404.4,1177.5,404.7,1177.5,404.7
		L1177.5,404.7z"/>
	<path id="path4245" inkscape:connector-curvature="0" class="st8" d="M1077.7,378.9c0.9-4.4,1.2-5.6,2.2-6.2c0.9-0.6,3.7,0.6,5,0.9
		c1.2,0.3,2.5,1.6,4,4.4c1.6,2.8,1.6,2.8,1.6,2.8"/>
	<path id="path4247" inkscape:connector-curvature="0" class="st8" d="M1239.9,333.8c4.4-4,7.8-6.5,8.4-4.7c0.6,1.9,0.6,5,0.6,5"/>
	<path id="path4249" inkscape:connector-curvature="0" class="st8" d="M1381.2,402.5c-3.7,5.6-4,6.5-4,6.5"/>
	<path id="path4251" inkscape:connector-curvature="0" class="st8" d="M1431,414.7c2.2,8.4,2.2,7.5,2.2,7.5"/>
	<path id="path4253" inkscape:connector-curvature="0" sodipodi:nodetypes="cssssssc" class="st18" d="M1379.9,405.3
		c21.2,29.9,52.9,11.5,52,13.7s-5.3,2.5-10.9,8.4c-5.6,5.9-7.2,8.4-10.6,9c-3.4,0.6-11.5,0.3-14-0.6s-5.9-3.4-7.5-7.2
		c-1.6-3.7-2.8-10.9-4-13.7C1383.7,412.2,1379.9,405.3,1379.9,405.3z"/>
	<path id="path4255" inkscape:connector-curvature="0" class="st19" d="M1389.6,416.2c0,5.3-1.9,4.4,0.9,5.9c2.8,1.6,3.1,3.7,6.2,4
		c3.1,0.3,5.9,1.9,8.4,1.6s6.5-1.6,7.8-1.6c1.2,0,3.4,1.6,3.4-0.9c0-2.5,2.2-3.1,0-2.5s-5.6-0.3-8.7-0.6c-3.1-0.3-5.6-0.6-8.7-1.9
		C1395.8,419,1389.6,416.2,1389.6,416.2L1389.6,416.2z"/>
	<path id="path4257" inkscape:connector-curvature="0" class="st8" d="M1351.3,355.5c0-4.4,2.8-5,3.7-4.4c0.9,0.6,4,3.1,4.4,5.6
		s-0.9,11.2-0.9,11.2"/>
	<path id="path4259" inkscape:connector-curvature="0" class="st8" d="M1507.5,398.5c5-6.2,3.4-5.6,5-6.2s3.1-0.9,5,0.3
		c1.9,1.2,1.6,5.3,1.6,5.3"/>
	<path id="path4261" inkscape:connector-curvature="0" class="st8" d="M1363.7,336.6c21.8-11.2,29.9,5.9,29.9,5.9"/>
	<path id="path4263" inkscape:connector-curvature="0" class="st8" d="M1435,350.6c31.4-10,37.4,16.8,37.4,16.8"/>
	<path id="path4265" inkscape:connector-curvature="0" class="st20" d="M1358.1,316.5c12.8,5.3,9.2,10.6,12.8,5.3
		c3.5-5.3,10.6-22.4,11-16.7s-4.8,17.2-3.5,17.2s27.7,10.1,29.9,5.7c2.2-4.4,8.8-14.1,10.6-11.4s6.2,0.9,6.2,7s-8.4,10.6-0.4,9.7
		c7.9-0.9,4.4,1.3,10.1,3.5c5.7,2.2,22.4,9.2,24.2,7s-1.3-13.6,1.8-13.6s0.4,9.2,3.1,11.9c2.6,2.6,12.8,7,18.9,10.1
		c6.2,3.1,6.6,2.2,11.9,5.7c5.3,3.5,8.4,2.6,8.4,7.9c0,5.3-5.3,26.4-0.4,21.1c4.8-5.3,11-12.3,15-12.3c4,0,6.2,7,8.4,3.5
		c2.2-3.5,7.9-20.2,7.9-26.9s-2.6-20.7-2.6-23.8c0-3.1-5.7-29.9-8.4-37c-2.6-7-12.3-18-19.8-26c-7.5-7.9-20.7-9.7-26-12.3
		c-5.3-2.6-17.2-2.2-20.7-2.2c-3.5,0-4,6.2-6.6,3.1c-2.6-3.1-6.6-6.6-11.4-8.8s-17.6,0-22.9-0.4s-17.6,4.4-21.6,4.4
		c-4,0-11,6.6-13.6,10.6c-2.6,4-14.1,18.9-16.3,21.1c-2.2,2.2-7.9,14.1-9.2,20.2c-1.3,6.2-3.5,16.3-2.6,21.6s0.9,18.9,1.8,16.3
		C1354.6,335.4,1358.1,316.5,1358.1,316.5L1358.1,316.5z"/>
	<ellipse id="path4271" class="st21" cx="1150.5" cy="366" rx="9.6" ry="9.8"/>
	<ellipse id="path4275" class="st22" cx="1150.8" cy="365.7" rx="7.2" ry="7.5"/>
	<ellipse id="path4275-3" class="st23" cx="1153.8" cy="360.1" rx="1.9" ry="2"/>
	<ellipse id="path4271-7" class="st24" cx="1218.1" cy="344.4" rx="7.8" ry="8.3"/>
	<ellipse id="path4275-5" class="st25" cx="1218.3" cy="344.2" rx="5.8" ry="6.3"/>
	<ellipse id="path4275-3-3" class="st23" cx="1222.7" cy="343.4" rx="1.5" ry="1.7"/>
	<ellipse id="path4271-9" class="st26" cx="1450.9" cy="380.6" rx="9.6" ry="9.8"/>
	<ellipse id="path4275-1" class="st25" cx="1451.2" cy="380.3" rx="7.2" ry="7.5"/>
	<ellipse id="path4275-3-27" class="st23" cx="1444.2" cy="380.7" rx="1.9" ry="2"/>
	<ellipse id="path4271-9-9" class="st26" cx="1378.5" cy="362.5" rx="9.6" ry="9.8"/>
	<ellipse id="path4275-1-3" class="st25" cx="1378.8" cy="362.2" rx="7.2" ry="7.5"/>
	<ellipse id="path4275-3-27-6" class="st23" cx="1373.8" cy="358.6" rx="1.9" ry="2"/>
	<path id="path4390" inkscape:connector-curvature="0" class="st9" d="M1217.3,563c-0.9,37-0.9,30.8-0.9,37s8.8,1.8,0,6.2
		c-8.8,4.4-32.6,12.3-39.6,11.4c-7-0.9-37,2.6-39.6-1.8s-26.4-12.3-26.4-12.3s-7,14.1-7,6.2s-2.6-13.2,3.5-16.7s16.7-4.4,23.8-13.2
		c7-8.8,15-15.8,18.5-24.7c3.5-8.8-1.8-11.4,3.5-8.8c5.3,2.6,11.4,2.6,12.3-4.4s0.9,6.2,0.9-10.6c0-16.7,2.6-12.3,0-17.6
		c-2.6-5.3-10.6-9.7-12.3-10.6c-1.8-0.9-1.8,5.3-1.8-0.9c0-6.2-2.6-7,0-5.3s7.9,5.3,7.9,1.8s-1.8-15.8,4.4-22
		c6.2-6.2,3.5-8.8,7.9-6.2s12.3,10.6,15.8,17.6s-4.4,3.5,3.5,7c7.9,3.5,7.9,3.5,7.9,3.5s-8.8-0.9-9.7,1.8c-0.9,2.6,2.6,5.3,2.6,12.3
		c0,7,2.6,7.9,1.8,11.4c-0.9,3.5-4.4-2.6,0.9,5.3c5.3,7.9,8.8,1.8,11.4,5.3C1209.4,538.3,1217.3,563,1217.3,563L1217.3,563z"/>
	<path id="path4392" inkscape:connector-curvature="0" class="st27" d="M1370.9,269.4c-1.8-12.3-1.8-15.4,2.2-19.8
		c4-4.4,13.6-4.4,17.2-4c3.5,0.4,4.8-0.4,3.5,0.4s-6.2,4.4-9.2,6.2c-3.1,1.8-6.6,8.8-6.6,10.1
		C1377.9,263.6,1370.9,269.4,1370.9,269.4z"/>
	<path id="path4394" inkscape:connector-curvature="0" sodipodi:nodetypes="cssssssssssssc" class="st20" d="M1386.3,244.3
		c-1.6-8.2-5.9-14.6-12.8-16.7c-4.3-1.3-31.1,5.6-31.7,6.2c-3.8,3.8-11.2,14.4-11.9,21.1c-1.3,12.7,5.9,40.7,3.5,57.2
		c-2.4,17-8.4,54.4-5.8,44.7c2.6-9.7,8.9-14.7,11.9-30.2c0.7-3.5,11,17.2,11.4,7.5s-2.2-16.3,0.4-27.3c2.6-11,4.4-15,9.2-23.8
		c4.8-8.8,13.2-8.4,11.4-13.2c-1.8-4.8-5.3-11.9-3.5-16.7c1.8-4.8,3.5-5.7,9.7-7.9C1384.5,242.9,1386.3,244.3,1386.3,244.3
		L1386.3,244.3z"/>
	<path id="path4398" inkscape:connector-curvature="0" sodipodi:nodetypes="cssssssssssssssc" class="st28" d="M1529.9,287.2
		c15.6-8,14.3-11.5,29.3-8c14.9,3.4,26.2,12.6,29.9,20.1c3.7,7.5,1.9-1.1,3.7,7.5c1.9,8.6,1.2,1.7,1.9,8.6
		c0.6,6.9-0.6,21.8-1.2,28.1c-0.6,6.3-5,21.8-11.2,38.4c-6.2,16.6-8.1,37.3-10,20.1c-1.7-15.9,2.2,4.3-4.5-6.8
		c-2.5-4.1,0.3-4.7-0.7-3.8c-1.9,1.7-1.5,3.3-1.5,3.3c-4,11.2-9.2,14.5-5.1-1.3c4.7-18,1.6-41.6,0.6-57.9
		c-0.7-12.6-4.4-22.4-18.1-24.1s-13.7,3.4-13.7-1.7C1529.3,304.4,1529.9,287.2,1529.9,287.2L1529.9,287.2z"/>
	<path id="path4396" inkscape:connector-curvature="0" class="st29" d="M1519.7,289.4c5,14.8,4,6.8,5,14.8s-3,8,2,8s5,4.3,5,0
		s-2-15.4-2-19.1c0-3.7,5-3.7,0-3.7S1519.7,289.4,1519.7,289.4L1519.7,289.4z"/>
	<ellipse id="path4400" class="st30" cx="1177.2" cy="500.7" rx="3.5" ry="3.7"/>
	<ellipse id="path4400-0" class="st31" cx="1177.1" cy="500.6" rx="1.3" ry="1.3"/>
	<ellipse id="path4400-6" class="st30" cx="1177" cy="529.1" rx="3.5" ry="3.7"/>
	<ellipse id="path4400-0-2" class="st31" cx="1176.9" cy="529.1" rx="1.3" ry="1.3"/>
	<ellipse id="path4400-6-6" class="st30" cx="1177.5" cy="558.2" rx="3.5" ry="3.7"/>
	<ellipse id="path4400-0-2-1" class="st31" cx="1177.3" cy="558.2" rx="1.3" ry="1.3"/>
	<ellipse id="path4400-6-8" class="st30" cx="1174.7" cy="590.5" rx="3.5" ry="3.7"/>
	<ellipse id="path4400-0-2-7" class="st31" cx="1174.5" cy="590.5" rx="1.3" ry="1.3"/>
	<path id="path4476" inkscape:connector-curvature="0" class="st10" d="M1469.7,507.1c-5.5,12.5-5.3,8.4-7.9,17.4
		c-2.6,9-5.1,11-4,12.1c1.1,1.1,2-2.6,2,3.7c0,6.4-1.8,9.2,0.9,12.8s2.6,4.6,3.3,3.5s-0.2,0.7-0.2-2c0-2.6,0.7-12.1,0.7-15.8
		c0-3.7-0.4-9.2,0.4-15s2.4-9.7,3.5-12.1S1469.7,507.1,1469.7,507.1L1469.7,507.1z"/>
	<rect id="rect5617-6" x="991.1" y="951" class="st32" width="576.8" height="61.5"/>
	<text transform="matrix(1 0 0 1 1029.7107 991.0873)" class="st33 st34 st35">PERSONALIZED LEARNING &amp; ANALYTICS</text>
	<text transform="matrix(1.0014 0 0 1 74.0293 719.1775)" class="st34 st36">FOUNDATION PROGRAMME</text>
	<text transform="matrix(1.0014 0 0 1 65.0293 754.1892)" class="st34 st37"> For class 8 to 10, Government School Students</text>
</g>
</svg>
