<?xml version="1.0" encoding="utf-8"?>
<!-- Generator: Adobe Illustrator 21.0.2, SVG Export Plug-In . SVG Version: 6.00 Build 0)  -->
<svg version="1.1"
	 id="svg6153" inkscape:version="0.91 r13725" sodipodi:docname="slide - 3 image.svg" xmlns:cc="http://creativecommons.org/ns#" xmlns:dc="http://purl.org/dc/elements/1.1/" xmlns:inkscape="http://www.inkscape.org/namespaces/inkscape" xmlns:rdf="http://www.w3.org/1999/02/22-rdf-syntax-ns#" xmlns:sodipodi="http://sodipodi.sourceforge.net/DTD/sodipodi-0.dtd" xmlns:svg="http://www.w3.org/2000/svg"
	 xmlns="http://www.w3.org/2000/svg" xmlns:xlink="http://www.w3.org/1999/xlink" x="0px" y="0px" viewBox="0 0 1600 900"
	 style="enable-background:new 0 0 1600 900;" xml:space="preserve">
<style type="text/css">
	.st0{fill:#B1DBB1;}
	.st1{fill:#FDFCFA;}
	.st2{opacity:0.77;fill:#FFF293;enable-background:new    ;}
	.st3{opacity:0.77;fill:#F4F30E;enable-background:new    ;}
	.st4{fill:#326B84;stroke:#000000;}
	.st5{fill:#FBFBFD;stroke:#000000;}
	.st6{fill:#32846E;stroke:#000000;}
	.st7{fill:#328479;stroke:#000000;}
	.st8{fill:none;stroke:#FAF7F7;}
	.st9{fill:none;stroke:#F7F7FA;}
	.st10{fill:#131314;stroke:#000000;}
	.st11{fill:none;stroke:#000000;}
	.st12{fill:#FBF9FE;stroke:#000000;stroke-linecap:round;stroke-linejoin:round;}
	.st13{fill:#FBF9FE;stroke:#000000;stroke-width:1.0455;stroke-linecap:round;stroke-linejoin:round;}
	.st14{fill:#FBF9FE;stroke:#000000;stroke-width:1.0887;stroke-linecap:round;stroke-linejoin:round;}
	.st15{fill:none;stroke:#5E9CE3;stroke-width:3.7;}
	.st16{fill:none;stroke:#2F53BF;stroke-width:3.8;}
	.st17{fill:#2B82C9;}
	.st18{font-family:Roboto, quicksand, Arial,'ArialMT';}
	.st19{font-size:58.1741px;}
	.st20{fill:#393232;stroke:#F8F8F8;stroke-width:0.8473;stroke-linecap:round;stroke-linejoin:round;}
	.st21{fill:#F8FAFD;}
	.st22{font-family:Roboto, quicksand, Arial,'Arial-BoldMT';}
	.st23{font-size:21.6277px;}
	.st24{fill:#393232;stroke:#F8F8F8;stroke-width:0.8461;stroke-linecap:round;stroke-linejoin:round;}
	.st25{fill:#FCFCFC;}
	.st26{font-size:44.9679px;}
	.st27{font-size:29.9786px;}
</style>
<sodipodi:namedview  bordercolor="#666666" borderopacity="1.0" id="base" inkscape:current-layer="layer1" inkscape:cx="49.749675" inkscape:cy="299.95857" inkscape:document-units="px" inkscape:pageopacity="0.0" inkscape:pageshadow="2" inkscape:window-height="744" inkscape:window-maximized="1" inkscape:window-width="1317" inkscape:window-x="49" inkscape:window-y="24" inkscape:zoom="0.24748737" pagecolor="#ffffff" showgrid="false" units="px">
	</sodipodi:namedview>
<path id="rect6860" class="st0" d="M4.1-5.1h1603.9c2.3,0,4.1,1.9,4.1,4.1v913c0,2.3-1.9,4.1-4.1,4.1H4.1c-2.3,0-4.1-1.9-4.1-4.1V-1
	C0-3.2,1.9-5.1,4.1-5.1z"/>
<path id="path6840" inkscape:connector-curvature="0" sodipodi:nodetypes="sssssssss" class="st1" d="M1387.9,187.1
	c0.8,60.1-58.4,133.8-83.4,135.9c0,0-7.6,11.2-11.4,11.3c-5.8,0.2-45.5,2.9-64.1,1.4c-10.5-0.8-28.9-0.1-33.2-1.6
	c-14.6-5-6.1-8.5-11.3-11c-55.8-26.7-87.3-76.2-87.3-136c0-82.1,65.1-148.6,145.4-148.6C1323.1,38.6,1386.7,105.6,1387.9,187.1
	L1387.9,187.1z"/>
<ellipse id="path6843" class="st2" cx="1240.5" cy="188.8" rx="117.9" ry="120.1"/>
<ellipse id="path6843-7" class="st3" cx="1238.3" cy="204.1" rx="87.8" ry="87.1"/>
<path id="path6782" inkscape:connector-curvature="0" sodipodi:nodetypes="ccccc" class="st4" d="M1185.9,529.4l14.1,109.1
	c0,0,57.8,5.3,96,0c0.6-0.3,14.1-109.1,14.1-109.1C1268.7,534.3,1227.3,535.2,1185.9,529.4z"/>
<path id="path6784" inkscape:connector-curvature="0" sodipodi:nodetypes="ccccc" class="st4" d="M1169.4,506.7
	c0,6.4,2.3,19,2.3,32.6c52.9,5.7,98,6.3,148.2,0.3c0,0,4.8-28.2,4.8-32.9C1324.7,502,1169.4,500.2,1169.4,506.7z"/>
<path id="path6788" inkscape:connector-curvature="0" sodipodi:nodetypes="cccccc" class="st5" d="M1183.9,508.3
	c41.1-4.4,82.5-4,124.2-0.3v1.3c-41.9,2.8-83.8,2.6-125.7,0v-1.5L1183.9,508.3z"/>
<path id="path6790" inkscape:connector-curvature="0" class="st4" d="M1240,410.1v98h10.6v-97.5H1240V410.1z"/>
<path id="path6792" inkscape:connector-curvature="0" class="st6" d="M1121.4,402.1c16.4,16.4,8.6,8.9,16.4,16.4
	c7.9,7.5,22.9,20,26.8,23.6c3.9,3.6,21.8,15.7,26.4,17.1c4.6,1.4,18.9,2.1,24.6,2.9s8.9,0.4,13.9-2.5c5-2.9,11.1-2.1,10.7-10.7
	c-0.4-8.6,1.1,2.9-0.4-8.6c-1.4-11.4,1.4-4.3-1.4-11.4c-2.9-7.1-0.7-2.5-2.9-7.1c-2.1-4.6-8.6-7.5-18.2-12.5s-13.2-5-26.1-6.4
	c-12.9-1.4-23.2-1.4-30.7-1.4s-22.9,0.4-26.4,0.4S1121.4,402.1,1121.4,402.1L1121.4,402.1z"/>
<path id="path6794" inkscape:connector-curvature="0" class="st7" d="M1250.4,429.3c11.8-12.9,7.1-8.2,11.8-12.9
	c4.6-4.6,12.5-10.4,19.6-11.8c7.1-1.4,13.2-3.2,26.1-3.9c12.9-0.7,31.1-0.4,37.9-0.7c6.8-0.4,22.9-0.4,21.8,1.4s-5,6.1-9.3,10.4
	s-13.2,11.8-15.4,14.6c-2.1,2.9-8.9,8.6-13.2,13.2c-4.3,4.6-13.9,12.9-16.4,12.9s-15,8.9-19.3,8.9s-14.6,1.8-19.6,1.8
	s-9.6,0.4-13.6-2.1s-9.3-5-9.3-7.9C1251.4,450.4,1250.4,429.3,1250.4,429.3z"/>
<path id="path6796" inkscape:connector-curvature="0" class="st8" d="M1250.7,442.5c51.8-37.1,82.5-30.7,82.5-30.7"/>
<path id="path6798" inkscape:connector-curvature="0" class="st9" d="M1238.6,442.9c-50.7-41.4-78.6-31.1-78.6-31.1"/>
<path id="path6800" inkscape:connector-curvature="0" sodipodi:nodetypes="csssscsc" class="st10" d="M1195,335
	c3.9,13.9,6.8,25.4,8.2,30c1.4,4.6,4.3,9.3,6.8,16.4s5,17.1,7.1,17.1c2.1,0,56.4,0.7,56.4,0.4c0-0.4,5.7-23.6,6.8-27.1
	c1.1-3.6,15.4-37.1,10.7-37.5C1286.4,333.9,1192.9,334,1195,335L1195,335z"/>
<path id="path6802" inkscape:connector-curvature="0" class="st11" d="M1217.5,399.3c54.3,0.4,56.1-2.1,54.3,0.4
	c-1.8,2.5-2.9,4.6-8.9,7.1c-6.1,2.5-7.1,2.5-13.2,2.5c-6.1,0-10,0.7-14.6,0s-9.3-2.9-11.4-4.3
	C1221.4,403.6,1217.5,399.3,1217.5,399.3L1217.5,399.3z"/>
<path id="rect6804" class="st12" d="M1206.6,382.5h77.9c2.3,0,4.1,1.8,4.1,4.1v0c0,2.3-1.8,4.1-4.1,4.1h-77.9
	c-2.3,0-4.1-1.8-4.1-4.1v0C1202.5,384.3,1204.3,382.5,1206.6,382.5z"/>
<path id="rect6804-5" class="st13" d="M1200.9,365.2h86.4c2.3,0,4.1,1.8,4.1,4.1v0c0,2.3-1.8,4.1-4.1,4.1h-86.4
	c-2.3,0-4.1-1.8-4.1-4.1v0C1196.8,367,1198.6,365.2,1200.9,365.2z"/>
<path id="rect6804-4" class="st14" d="M1195.4,348.6h95c2.2,0,4.1,1.8,4.1,4.1l0,0c0,2.2-1.8,4.1-4.1,4.1h-95
	c-2.2,0-4.1-1.8-4.1-4.1l0,0C1191.3,350.4,1193.1,348.6,1195.4,348.6z"/>
<path id="path6833" inkscape:connector-curvature="0" class="st15" d="M1287.9,315.1l46.5-114.1l-25.3-13.1l-5.1,10.1l-7.1,8.1l0,0"
	/>
<path id="path6831" inkscape:connector-curvature="0" class="st16" d="M1199.1,317.1L1150.6,208l30.3-16.2"/>
<text transform="matrix(1.0497 0 0 1 1184.5479 206.5273)" class="st17 st18 st19">idea</text>
<g>
	<rect id="rect5617" x="999.8" y="676.3" class="st20" width="511" height="61.5"/>
	<text transform="matrix(1.0014 0 0 1 1142.8265 715.0791)" class="st21 st22 st23">STUDENT PROJECTS</text>
</g>
<g>
	<rect id="rect5617-6" x="976.9" y="741.4" class="st24" width="556.8" height="61.5"/>
	<text transform="matrix(1.0014 0 0 1 1003.865 778.4956)" class="st25 st22 st23">R &amp; D OPPORTUNITIES AND COLLABORATIONS</text>
</g>
<text transform="matrix(1.0014 0 0 1 66.459 476.6875)" class="st22 st26">ACADEMIC EXCELLENCE PROGRAMME</text>
<text transform="matrix(1.0014 0 0 1 56.459 517.6997)" class="st22 st27"> ONLINE PLATFORM FOR COLLEGE STUDENTS AND TEACHERS</text>
<line class="st16" x1="1190.7" y1="206.5" x2="1179.3" y2="191.9"/>
</svg>
