<?xml version="1.0" encoding="utf-8"?>
<!-- Generator: Adobe Illustrator 21.0.2, SVG Export Plug-In . SVG Version: 6.00 Build 0)  -->
<svg version="1.1"
	 id="svg2" inkscape:version="0.91 r13725" sodipodi:docname="slide - 4 image.svg" xmlns:cc="http://creativecommons.org/ns#" xmlns:dc="http://purl.org/dc/elements/1.1/" xmlns:inkscape="http://www.inkscape.org/namespaces/inkscape" xmlns:rdf="http://www.w3.org/1999/02/22-rdf-syntax-ns#" xmlns:sodipodi="http://sodipodi.sourceforge.net/DTD/sodipodi-0.dtd" xmlns:svg="http://www.w3.org/2000/svg"
	 xmlns="http://www.w3.org/2000/svg" xmlns:xlink="http://www.w3.org/1999/xlink" x="0px" y="0px" viewBox="0 0 1600 900"
	 style="enable-background:new 0 0 1600 900;" xml:space="preserve">
<style type="text/css">
	.st0{fill:#B1DBB1;}
	.st1{fill:#A48888;}
	.st2{fill:#146124;}
	.st3{fill:#B7BCBB;}
	.st4{fill:#7D7662;stroke:url(#path4227_1_);stroke-width:1.0735;}
	.st5{fill:#7B7664;stroke:url(#path4229_1_);stroke-width:1.0935;}
	.st6{fill:#561B1B;}
	.st7{fill:#CAC8B6;stroke:#000000;stroke-width:1.0735;}
	.st8{fill:#32506F;}
	.st9{fill:#3285D8;}
	.st10{fill:#8A8E8E;}
	.st11{fill:#4068C2;}
	.st12{fill:#F0F7F9;stroke:#000000;stroke-width:1.0735;}
	.st13{fill:#EBF6F9;stroke:#000000;stroke-width:1.0735;}
	.st14{fill:#F8FCFD;stroke:#000000;stroke-width:1.0735;}
	.st15{fill:none;stroke:#F5F5FA;stroke-width:1.8249;}
	.st16{fill:#8E8E8E;}
	.st17{fill:#3B2D2D;stroke:#F5F5FA;stroke-width:1.8249;}
	.st18{fill:#3B2D2D;}
	.st19{fill:#4059C2;}
	.st20{fill:#BDC3C2;}
	.st21{fill:#D6C5C7;}
	.st22{fill:#C4C3B9;stroke:url(#path4332_1_);stroke-width:0.7848;}
	.st23{fill:#D3D1C7;stroke:url(#path4334_1_);stroke-width:0.8122;}
	.st24{fill:#6F777F;}
	.st25{fill:none;stroke:#FBF8FB;stroke-width:2.1469;}
	.st26{fill:#F3F3F3;stroke:#000000;stroke-width:1.5308;}
	.st27{fill:#CEBDBD;}
	.st28{fill:none;stroke:#FDF2F2;stroke-width:1.6102;}
	.st29{fill:#FAECEC;stroke:#000000;stroke-width:1.0735;}
	.st30{fill:#393232;stroke:#F8F8F8;stroke-width:0.837;stroke-linecap:round;stroke-linejoin:round;}
	.st31{fill:#F8FAFD;}
	.st32{font-family:Roboto, quicksand, Arial,'Arial-BoldMT';}
	.st33{font-size:21.6277px;}
	.st34{fill:#393232;stroke:#F8F8F8;stroke-width:0.8361;stroke-linecap:round;stroke-linejoin:round;}
	.st35{fill:#FCFCFC;}
	.st36{font-size:44.9679px;}
	.st37{font-size:29.9786px;}
	.st38{fill:#393232;stroke:#F8F8F8;stroke-width:0.8378;stroke-linecap:round;stroke-linejoin:round;}
</style>
<sodipodi:namedview  bordercolor="#666666" borderopacity="1.0" id="base" inkscape:current-layer="layer1" inkscape:cx="358.62686" inkscape:cy="364.34375" inkscape:document-units="px" inkscape:pageopacity="0.0" inkscape:pageshadow="2" inkscape:window-height="744" inkscape:window-maximized="1" inkscape:window-width="1317" inkscape:window-x="49" inkscape:window-y="24" inkscape:zoom="0.35355339" pagecolor="#ffffff" showborder="true" showgrid="false" units="px">
	</sodipodi:namedview>
<rect id="rect5895" x="-15" y="-1.4" class="st0" width="1634.8" height="922.1"/>
<path id="path4219" inkscape:connector-curvature="0" sodipodi:nodetypes="cccccccccc" class="st1" d="M878.3,257L749,293.3
	l215.8,254.4l526.8-248.2l0,0l-160.3-74.5l0,21.3l57.9,26.6l0,0L948.1,463.5"/>
<path id="path4225" inkscape:connector-curvature="0" class="st2" d="M809.6,308.6L949.8,464l440.9-192.1l-243.5-101.1L809.6,308.6z
	"/>
<path id="path4247" inkscape:connector-curvature="0" sodipodi:nodetypes="ccccc" class="st3" d="M1215.1,247.2l116.2-38.1v70
	l-117.4,44.3L1215.1,247.2z"/>
<linearGradient id="path4227_1_" gradientUnits="userSpaceOnUse" x1="934.7708" y1="663.6672" x2="980.0529" y2="663.6672" gradientTransform="matrix(1.0155 0 0 -1.1347 -81.671 877.4562)">
	<stop  offset="0" style="stop-color:#9BD1B4"/>
	<stop  offset="1" style="stop-color:#9BD1B4;stop-opacity:0"/>
</linearGradient>
<path id="path4227" inkscape:connector-curvature="0" sodipodi:nodetypes="ccccc" class="st4" d="M875.7,213.5L868.2,39
	c9,5.6,18,4,26.9-3.8l22.3,144.5L875.7,213.5z"/>
<radialGradient id="path4229_1_" cx="1011.0529" cy="1002.3195" r="20.4026" gradientTransform="matrix(1.0149 0 0 -4.2919 -80.971 4413.1875)" gradientUnits="userSpaceOnUse">
	<stop  offset="0" style="stop-color:#000000"/>
	<stop  offset="1" style="stop-color:#000000;stop-opacity:0"/>
</radialGradient>
<path id="path4229" inkscape:connector-curvature="0" sodipodi:nodetypes="cccccc" class="st5" d="M925,25l-3,157l38.9,16.1l7.4-5.3
	L951.9,26.4C942.9,37.5,933.9,34.7,925,25L925,25z"/>
<path id="path4231" inkscape:connector-curvature="0" sodipodi:nodetypes="ccccccccccccccccc" class="st6" d="M871.2,216.2
	l43.6-40.7l46,22.1l35.7-40.8l35.7,19.5l33.3-36.3l39.7,17.7l32.5-34.6l98.4,41.7l-34.9,40.8l-37.3-21.3l-37.3,44.3l-41.3-23
	l-37.3,47l-50.8-23.9l-43.6,50.5L871.2,216.2z"/>
<path id="path4235" inkscape:connector-curvature="0" sodipodi:nodetypes="ccccccccccccccccccccc" class="st7" d="M870.4,216.3
	l-1.7,5.9l86.4,65.2l44.3-50.1l48.8,24.4l38.7-45.8l41,21.3l38.1-43.9l35.9,20.7l34.8-40.1l29.8,19l1.1-9.6l-32-20.1l-32.5,40.7
	l-39.3-20.1l-37,45.1l-41-23.8l-36.5,46.4l-52.7-23.2c-14.4,16.5-37.4,42.7-43.2,49.5L870.4,216.3z"/>
<path id="path4237" inkscape:connector-curvature="0" class="st8" d="M874.4,227.7l6.3,106.4l74.6,62.9l-2.4-111.7L874.4,227.7z"/>
<path id="path4239" inkscape:connector-curvature="0" sodipodi:nodetypes="cccccccccccccc" class="st9" d="M952.1,285.3l3.2,114.4
	l236.4-87.8l4-77.1l72.2-20.4l-1.6-20.4l-29.4-19.5l-34.1,40.8l-37.3-22.2l-37.3,45.2l-40.5-24.8l-40.5,48.8L999.6,238L952.1,285.3z
	"/>
<path id="path4241" inkscape:connector-curvature="0" sodipodi:nodetypes="ccccc" class="st10" d="M1194.1,234.8l21.4,13.3
	l-1.6,75.8l-21.8-12.9L1194.1,234.8z"/>
<path id="path4243" inkscape:connector-curvature="0" sodipodi:nodetypes="ccccc" class="st11" d="M1215.5,262.7l115-40.3l-0.4,16.8
	l-115.4,39.9L1215.5,262.7z"/>
<path id="path4249" inkscape:connector-curvature="0" class="st12" d="M986.5,328.8l0.6,50.1l32-11.3l-0.6-47.6L986.5,328.8z"/>
<path id="path4266" inkscape:connector-curvature="0" class="st13" d="M989.8,332.8l0.8,41.2l25-8.9v-39.9L989.8,332.8L989.8,332.8z
	"/>
<path id="path4249-6" inkscape:connector-curvature="0" class="st12" d="M1070.4,297.8l0.6,50.1l32-11.3l-0.6-47.6L1070.4,297.8z"/>
<path id="path4266-7" inkscape:connector-curvature="0" class="st14" d="M1073.7,301.8l0.8,41.2l25-8.9v-39.9L1073.7,301.8
	L1073.7,301.8z"/>
<path id="path4290" inkscape:connector-curvature="0" class="st15" d="M972.2,284.3l0.8,16.9l52.5-16.3l-0.8-16.9L972.2,284.3z"/>
<path id="path4292" inkscape:connector-curvature="0" class="st16" d="M1059.3,257.9l0.6,15.7l52.2-16.4l-0.4-15.5L1059.3,257.9
	L1059.3,257.9z"/>
<path id="path4290-5" inkscape:connector-curvature="0" class="st17" d="M1058.9,256.4l0.8,16.9l52.5-16.3l-0.8-16.9L1058.9,256.4z"
	/>
<path id="path4292-3" inkscape:connector-curvature="0" class="st18" d="M973.1,284.9l0.6,15.7l49.4-16.4l-0.4-15.5L973.1,284.9
	L973.1,284.9z"/>
<path id="path4245" inkscape:connector-curvature="0" sodipodi:nodetypes="ccccc" class="st19" d="M1215.1,293.8l116.2-41.2v15.1
	l-117,44.3L1215.1,293.8z"/>
<path id="path4288" inkscape:connector-curvature="0" sodipodi:nodetypes="cccccccc" class="st20" d="M1194.3,234.6l74.3-19.2
	l-1.7-21.9l1.7-9.4l2.2-1.3l58.3,25.7l-115,38.9L1194.3,234.6z"/>
<path id="path4330" inkscape:connector-curvature="0" sodipodi:nodetypes="ccccc" class="st21" d="M980.7,390.6l24.2,49.5
	l142.5-60.8l-29.4-39.6L980.7,390.6z"/>
<linearGradient id="path4332_1_" gradientUnits="userSpaceOnUse" x1="936.8376" y1="340.7115" x2="965.5505" y2="340.7115" gradientTransform="matrix(1.0279 0 0 -0.5992 -96.6026 242.881)">
	<stop  offset="0" style="stop-color:#000000"/>
	<stop  offset="1" style="stop-color:#000000;stop-opacity:0"/>
</linearGradient>
<path id="path4332" inkscape:connector-curvature="0" class="st22" d="M867.4,40.5c19.9-8.6,29-3,27.8-2.3c-1.1,0.7,0,2.3-9.1,3.3
	C877.1,42.4,867.4,40.5,867.4,40.5L867.4,40.5z"/>
<linearGradient id="path4334_1_" gradientUnits="userSpaceOnUse" x1="992.9025" y1="402.2134" x2="1021.4554" y2="402.2134" gradientTransform="matrix(1.0254 0 0 -0.6433 -94.1548 287.7376)">
	<stop  offset="0" style="stop-color:#000000"/>
	<stop  offset="1" style="stop-color:#000000;stop-opacity:0"/>
</linearGradient>
<path id="path4334" inkscape:connector-curvature="0" class="st23" d="M924.7,27.6c17.6-6.8,30,1.4,27.8,1.4c-2.3,0-2.8,4.6-6.8,3.9
	c-4-0.7-10.2,0.7-14.2-1.1C927.5,30.1,924.7,27.6,924.7,27.6L924.7,27.6z"/>
<path id="path5824" inkscape:connector-curvature="0" class="st24" d="M998.9,236.7l-1.7,8.8l47.1,21.3l3.4-5l-51-26.3l0,0"/>
<path id="path5824-6" inkscape:connector-curvature="0" class="st24" d="M1086.8,213l-1.9,7.7l40.2,21.6l3.2-4.2l-43.5-26.2l0,0"/>
<path id="path5824-2" inkscape:connector-curvature="0" class="st24" d="M1164.9,193.3l-1.3,7.5l37.2,18.2l2.7-4.3l-40.4-22.5l0,0"
	/>
<path id="path5824-9" inkscape:connector-curvature="0" class="st24" d="M1236.6,174.2l-1.4,5.7l28.8,16.3l2.3-3.1l-31.1-19.8l0,0"
	/>
<path id="path5866" inkscape:connector-curvature="0" class="st25" d="M1194.7,234.5l19.7,13.6l-0.7,75.8l0,0"/>
<path id="path5868" inkscape:connector-curvature="0" class="st25" d="M1214.1,247.7l115.2-38.9l0,0"/>
<path id="path5870" inkscape:connector-curvature="0" class="st25" d="M1195.8,234.5l72.9-20.1l0,0"/>
<path id="path5872-1" inkscape:connector-curvature="0" class="st26" d="M897.4,294.5l1.4,47.1l24.5,17.9v-48.7L897.4,294.5z"/>
<path id="path5889" inkscape:connector-curvature="0" class="st27" d="M889.9,341.6l-32.6,20.7l32.6,35.4l34.1-25.9L889.9,341.6z"/>
<path id="path5891" inkscape:connector-curvature="0" class="st28" d="M894.1,255.5l-2.8,14.1l37.2,28.8l4.3-14.7L894.1,255.5z"/>
<path id="path5893" inkscape:connector-curvature="0" class="st18" d="M894.2,256.7l-2,11.9l35.5,28.9l4.1-12.5L894.2,256.7z"/>
<path id="path5872" inkscape:connector-curvature="0" class="st29" d="M901.5,305.4l1,32.9l17.3,12.5v-34L901.5,305.4z"/>
<rect id="rect5617" x="961.2" y="690" class="st30" width="530.4" height="61.5"/>
<text transform="matrix(1.0014 0 0 1 982.1896 728.7603)" class="st31 st32 st33">STUDENT PROJECTS IN INDUSTRY </text>
<rect id="rect5617-6" x="961.2" y="758.1" class="st34" width="530.4" height="61.5"/>
<text transform="matrix(1.0014 0 0 1 982.1896 798.1768)" class="st35 st32 st33">CONSULTANCY PROJECTS</text>
<text transform="matrix(1.0014 0 0 1 40.6191 554.3955)" class="st32 st36">ACADEMIC EXCELLENCE PROGRAMME</text>
<text transform="matrix(1.0014 0 0 1 31.6191 595.4072)" class="st32 st37"> ONLINE PLATFORM FOR COLLEGE STUDENTS AND TEACHERS</text>
<rect id="rect5617-2" x="961.2" y="621.2" class="st38" width="530.4" height="61.5"/>
<text transform="matrix(1.0014 0 0 1 982.1896 661.9844)" class="st31 st32 st33">INDUSTRY RELEVANT SKILL TRAINING</text>
</svg>
