<?xml version="1.0" encoding="utf-8"?>
<!-- Generator: Adobe Illustrator 21.0.2, SVG Export Plug-In . SVG Version: 6.00 Build 0)  -->
<svg version="1.1"
	 id="svg4721" inkscape:version="0.91 r13725" sodipodi:docname="slide - 2 image.svg" xmlns:cc="http://creativecommons.org/ns#" xmlns:dc="http://purl.org/dc/elements/1.1/" xmlns:inkscape="http://www.inkscape.org/namespaces/inkscape" xmlns:rdf="http://www.w3.org/1999/02/22-rdf-syntax-ns#" xmlns:sodipodi="http://sodipodi.sourceforge.net/DTD/sodipodi-0.dtd" xmlns:svg="http://www.w3.org/2000/svg"
	 xmlns="http://www.w3.org/2000/svg" xmlns:xlink="http://www.w3.org/1999/xlink" x="0px" y="0px" viewBox="0 0 1600 900"
	 style="enable-background:new 0 0 1600 900;" xml:space="preserve">
<style type="text/css">
	.st0{fill:#B1DBB1;stroke:#F8F8F8;stroke-width:0.8468;stroke-linecap:round;stroke-linejoin:round;}
	.st1{fill:#BA9C73;stroke:#000000;stroke-width:0.8378;}
	.st2{fill:#4C9790;stroke:#000000;stroke-width:0.8378;}
	.st3{fill:#4C9754;stroke:#000000;stroke-width:0.8378;}
	.st4{fill:#E8EBEB;stroke:#FFF6F6;stroke-width:0.8378;}
	.st5{fill:none;stroke:#FFFBFB;stroke-width:0.8378;}
	.st6{fill:none;stroke:#FFFDFD;stroke-width:0.8378;}
	.st7{fill:none;stroke:#F8F8F8;stroke-width:0.8378;}
	.st8{fill:#394F59;stroke:#000000;stroke-width:0.8378;}
	.st9{fill:#FFE5ED;stroke:#000000;stroke-width:0.8378;}
	.st10{fill:#1A101D;stroke:#000000;stroke-width:0.8378;}
	.st11{fill:#050E12;stroke:#000000;stroke-width:0.8378;}
	.st12{fill:#EC6F6F;stroke:#000000;stroke-width:0.8378;}
	.st13{fill:#FFE59D;stroke:#000000;stroke-width:0.8378;}
	.st14{fill:#FF9A9D;stroke:#000000;stroke-width:0.8378;}
	.st15{fill:#796552;stroke:#000000;stroke-width:0.8378;}
	.st16{fill:#6E9C73;stroke:#000000;stroke-width:0.8378;}
	.st17{fill:none;stroke:#000000;stroke-width:0.8378;}
	.st18{fill:#191A04;stroke:#000000;stroke-width:0.7452;}
	.st19{fill:#0A161C;stroke:#000000;stroke-width:0.8378;}
	.st20{fill:#403317;stroke:#000000;stroke-width:0.8378;}
	.st21{fill:#1A160D;stroke:#000000;stroke-width:0.8378;}
	.st22{fill:#48629D;stroke:#000000;stroke-width:0.8378;}
	.st23{fill:#FF849D;stroke:#000000;stroke-width:0.8378;}
	.st24{fill:#29B2BF;stroke:#000000;stroke-width:0.8378;}
	.st25{fill:#9BFBFC;stroke:#000000;stroke-width:0.8378;}
	.st26{fill:#FDFFFF;stroke:#000000;stroke-width:0.8378;}
	.st27{fill:#29BFBF;stroke:#000000;stroke-width:0.8378;}
	.st28{fill:#F9FCFC;stroke:#000000;stroke-width:0.8378;}
	.st29{fill:#733431;stroke:#000000;stroke-width:0.8378;}
	.st30{fill:#48619D;stroke:#000000;stroke-width:0.8378;}
	.st31{fill:#48759D;stroke:#000000;stroke-width:0.8378;}
	.st32{fill:#393232;stroke:#F8F8F8;stroke-width:0.8378;stroke-linecap:round;stroke-linejoin:round;}
	.st33{fill:#F8FAFD;}
	.st34{font-family:Roboto, quicksand, Arial, 'Arial-BoldMT';}
	.st35{font-size:21.6277px;}
	.st36{fill:#FCFCFC;}
	.st37{font-family:Roboto, quicksand, Arial,'ArialMT';}
	.st38{font-size:2.7907px;}
	.st39{font-size:44.9679px;}
	.st40{font-size:29.9786px;}
	.st41{fill:#4B3832;stroke:#000000;}
	.st42{fill:none;stroke:#2EA0E0;stroke-width:4;}
	.st43{fill:#080000;stroke:#000000;stroke-width:1.4055;}
	.st44{fill:none;stroke:#000000;stroke-width:1.145;}
	.st45{fill:none;stroke:#000000;stroke-width:1.14;}
	.st46{fill:none;stroke:#000000;stroke-width:0.75;}
</style>
<sodipodi:namedview  bordercolor="#666666" borderopacity="1.0" id="base" inkscape:current-layer="layer1" inkscape:cx="306.3676" inkscape:cy="467.29386" inkscape:document-units="px" inkscape:pageopacity="0.0" inkscape:pageshadow="2" inkscape:window-height="744" inkscape:window-maximized="1" inkscape:window-width="1317" inkscape:window-x="49" inkscape:window-y="24" inkscape:zoom="0.3535534" pagecolor="#ffffff" showborder="true" showgrid="false" units="px">
	</sodipodi:namedview>
<rect id="rect5580" x="-1.1" y="-0.8" class="st0" width="1616.7" height="907.8"/>
<path id="path5541" inkscape:connector-curvature="0" sodipodi:nodetypes="csssccc" class="st1" d="M1212,452.3
	c-0.7,17.6-2.9,22.5-0.7,20.4s4.4-2.1,11.7-1.4c7.3,0.7,14.6,3.5,14.6,0.7s-1.5-2.8-1.5-2.8l-10.2-6.3L1212,452.3z"/>
<path id="path5340" inkscape:connector-curvature="0" class="st2" d="M1107.6,113.6v235.9h347.6V114.6h-350.7"/>
<path id="path5334" inkscape:connector-curvature="0" class="st3" d="M1120,125.6h324.9v216h-326v-216L1120,125.6z"/>
<path id="path5342" inkscape:connector-curvature="0" class="st4" d="M1259.2,158.4h137.2"/>
<path id="path5344" inkscape:connector-curvature="0" class="st5" d="M1259.2,171.4h105.2"/>
<path id="path5346" inkscape:connector-curvature="0" class="st6" d="M1256.1,192.3h71.2"/>
<path id="path5348" inkscape:connector-curvature="0" class="st7" d="M1259.2,210.2h47.5"/>
<path id="path5352" inkscape:connector-curvature="0" sodipodi:nodetypes="csssscsscssssscsssssssssssssssssssssc" class="st8" d="
	M1136.8,336.9c0-23.9,1.5-40.8,1.5-67.6s2.2-33.8,3.6-42.9s16.8-3.5,26.3-4.2s12.4-2.5,16.8,8.1c4.3,10.5,4.9,17.4,8,23.9
	c1.1,2.3,3.8,5.4,3.8,5.4c5.4,9.4,6.2,6.4,10.2,1.5c4-5,7.9-11.7,9.3-13.9c2.6-4,9.1-21.1,9.1-24.6s-0.4-3.9,3.3-3.2
	c3.6,0.7,29.9,2.8,33.6,6.3c3.6,3.5,5.1,9.2,5.1,17.6c0,8.4,3.6,37.3-2.2,36.6c-5.8-0.7-21.9-4.2-21.9-4.2s-7.3,3.5-11.7,3.5
	s-8,4.2-12.4,9.9c-4.4,5.6-5.8,12.7-5.8,17.6c0,4.9,0.7,18.3,1.5,23.9s0,12.7,8,19c8,6.3,11.7,9.2,11.7,14.8s2.9,5.6,0,5.6
	s-5.1,0.7-15.3,2.8c-10.2,2.1-13.9,9.9-14.6,4.2c-0.7-5.6,2.9-8.4-0.7-8.4s-2.9,6.3-3.6,0c-0.7-6.3,0-15.5,0-19s0.7-7.7-2.2-13.4
	c-2.9-5.6-8-5.6-8-11.3s0,8.1,0,3.1s-5.4-5.9-9.1-10.1c-3.6-4.2-8.4-4.7-13.5-4.7s-10.9,2.1-13.9,4.9s-5.8-1.8-6.5,2.4
	c-0.7,4.2-3.7,0.2-3.7,5.1c0,4.9,6.6,1.4,4.4,1.4C1145.6,327,1136.8,336.9,1136.8,336.9z"/>
<path id="path5356" inkscape:connector-curvature="0" class="st9" d="M1179.3,167.9c0-6-2.1-3.5,0-8c2.1-4.5,4.1-4,6.7-6.5
	c2.6-2.5,6.7-2.5,12.4-2.5s16.5-1,19.6,2c3.1,3,7.7,5,7.7,9c0,4-0.5,10.5,1.5,10.5s5.2,0.5,5.2,4c0,3.5-0.5,10-3.1,11.9
	c-2.6,2-2.6,2.5-2.6,5.5c0,3-1,6.5-4.1,10s-4.1,4-5.7,7c-1.5,3,1-2-1.5,3s-3.1,9-4.6,12.9c-1.5,4-2.6,7-4.6,4.5
	c-2.1-2.5-10.8-9.5-10.8-9.5s-3.1-5-4.6-7c-1.5-2-2.6-0.5-1.5-3.5c1-3,1-1-0.5-3.5c-1.5-2.5-7.2-3.5-7.2-8s4.1-7.5,0-10
	s-6.2-2-6.7-10.9c-0.5-9-0.5-9-0.5-9L1179.3,167.9z"/>
<path id="path5358" inkscape:connector-curvature="0" class="st10" d="M1178.2,166.4c-3.6-16.4-5.7-15.9-2.6-20.9
	c3.1-5,7.2-10.9,11.3-10.9s13.9,3.5,18.6,3.5s19.6,0.5,21.1,3c1.5,2.5,7.2,9,6.2,12.9c-1,4-3.6,21.4-5.2,18.4c-1.5-3,0-5-1.5-9
	c-1.5-4-4.1-9-9.8-11.4c-5.7-2.5-12.9,0-17.5-0.5c-4.6-0.5-10.3-1-12.9,1.5s-6.2,2.5-6.2,5C1179.8,160.4,1178.2,166.4,1178.2,166.4z
	"/>
<path id="path5360" inkscape:connector-curvature="0" class="st11" d="M1192.7,198.3c0.5-5,0.5-5,4.6-7.5c4.1-2.5,2.1-2.5,6.2-1.5
	c4.1,1,10.8,8,8.8,8c-2.1,0-4.6-1.5-7.7-1.5c-3.1,0-6.2,1-8.8,1S1192.7,198.3,1192.7,198.3z"/>
<path id="path5364" inkscape:connector-curvature="0" class="st12" d="M1202.2,229.4c-5.5,10.9-5.9,9.3-5.2,10.9
	c0.7,1.6,5.2,1.9,3.8,4.5c-1.4,2.7-5.9,11.7-4.8,13.8c1,2.1,5.2,9,6.9,6.7c1.7-2.4,8-5.1,6.9-7.2c-1-2.1-4.8-13-3.5-14.9
	c1.4-1.9,4.2-1.1,2.8-3.5C1207.7,237.4,1202.2,229.4,1202.2,229.4L1202.2,229.4z"/>
<path id="path5366" inkscape:connector-curvature="0" sodipodi:nodetypes="csssssssscsc" class="st13" d="M1035.4,339.7
	c2.2,39.4,2.9,53.5,2.9,71.8c0,18.3-5.1,21.1,0,18.3s8-3.5,13.9-3.5s73.7,0.7,73.7-3.5s0.7-34.5,0.7-49.3s5.1-34.5,0-33.8
	s-21.9-9.2-24.8-5.6s-5.8,3.9-11.7,4.2l-12.4-2.8h-19.7c-7.9,0-21.6,4.5-21.6,4.5"/>
<path id="path5372" inkscape:connector-curvature="0" class="st14" d="M1066.8,325.7c-6.2,10.5-10.3,10.9-6.2,10.5
	c4.1-0.5,12.4,0.5,14.4,0.5c2.1,0,12.9,0,17,0c4.1,0,12.9,0.5,11.3-1.5s-3.1-8-6.2-8C1094.2,327.2,1066.8,325.7,1066.8,325.7
	L1066.8,325.7z"/>
<path id="path5374" inkscape:connector-curvature="0" class="st9" d="M1058.1,302.3c1.5,9,9.8,23.4,12.4,23.4s21.7,3,23.7,1.5
	c2.1-1.5-3.1-0.5,1.5-6.5c4.6-6,6.7-14.4,8.8-16.9c2.1-2.5,5.7-29.4,3.6-25.4c-2.1,4-6.7,20.4-9.3,23.4c-2.6,3-12.4,16.4-15.5,16.9
	c-3.1,0.5-4.6-1-10.3-8c-5.7-7-13.9-20.9-16-25.9c-2.1-5-0.5-7.5-2.1-5c-1.5,2.5-1.5,2.5-1.5,5.5s-1.5,5,0.5,10.5
	C1056,301.3,1058.1,302.3,1058.1,302.3L1058.1,302.3z"/>
<path id="path5376" inkscape:connector-curvature="0" class="st11" d="M1108.1,277.9c0.5-12.4,4.1-18.9,4.1-22.9
	c0-4-2.1-9-18.6-12.9c-16.5-4-20.6-3.5-29.4-1.5c-8.8,2-13.9,9.5-14.4,14.9c-0.5,5.5,5.2,18.9,5.2,21.9s3.6,12.4,7.2,17.9
	c3.6,5.5,5.2,10.5,10.3,14.9c5.2,4.5,6.2,10.5,8.3,9c2.1-1.5,4.1-1,7.2-4.5c3.1-3.5,10.8-12.4,13.4-17.4c2.6-5,5.7-21.4,5.7-21.4
	l0,0L1108.1,277.9z"/>
<path id="path5380" inkscape:connector-curvature="0" sodipodi:nodetypes="csssssssssssssscc" class="st15" d="M1007.5,418.3
	c2.1,21.9,3.1,14.6,2.1,21.9c-1,7.3-2.1,33.4-1,43.9c1,10.4,0,12.5,0,20.9c0,8.4,0.8,62.5,0.8,62.5c-10.4,0.8,120.5,1.7,119-2
	c-6.6-16.8-20.8-21.9-12.5-35.4c8.3-13.6,16.5-10.4,13.4-17.8c-3.1-7.3,1-4.2-3.1-11.5c-4.1-7.3,5.2-7.3-4.1-7.3
	c-9.3,0-18.6,8.2-29.9,0c-10.1-7.3-20.6-5.2-20.6-11.5s-13.4,13.6-23.7,3.1c-10.3-10.4-18.6-23-15.5-30.3c3.1-7.3,33.4-31,20-28.9
	C1038.9,428,1007.5,418.3,1007.5,418.3L1007.5,418.3z"/>
<path id="path5382" inkscape:connector-curvature="0" sodipodi:nodetypes="csssssssssc" class="st15" d="M1193,498.9
	c-1.3,11.9,11.9,14.5,21.3,14.5c9.4,0,0.3,3.2,4.4,16.2c4,12.9,3.1,26-3.6,31c-6.7,5-16.7,10-7.3,9c9.4-1,139.9,3.5,129.1-3.5
	s27.9-26.8,30.6-33.8c2.7-7-52.4-4.5-45.6-10.5c6.7-6,17.4-2,13.4-9c-4-7,2.7-13.9-4-13.9H1193z"/>
<path id="path5384" inkscape:connector-curvature="0" sodipodi:nodetypes="cssssssc" class="st15" d="M1410.8,498.9c0,8-6.2,9,0,10
	s11.7,0.1,14.8,21c3.1,20.9,1.7,27.8-3.4,32.7s-12.8,7.9-5.2,5c9.5-3.6,101.3-0.1,97.6-2.6c-6.5-4.3,2.8-62.2-2.7-66.1
	C1504.5,493.5,1410.8,498.9,1410.8,498.9L1410.8,498.9z"/>
<path id="path5386" inkscape:connector-curvature="0" sodipodi:nodetypes="cssssssc" class="st1" d="M1209.7,501.8
	c1-7-3.1-13.9,1-12.7s42.3,5.8,46.4,1.2c4.1-4.7,6.2-18.6,11.3-16.3s8.8-6.8,8.8,4.8c0,11.6,1.5,14.4,11.8,13.2
	c10.3-1.2,42.3,5.3,20.6,6.4C1288.1,499.5,1209.7,501.8,1209.7,501.8L1209.7,501.8z"/>
<path id="path5388" inkscape:connector-curvature="0" sodipodi:nodetypes="cssssc" class="st1" d="M1422.2,496.9c26.8-4,30.9-2,32-5
	c1-3-13.4-10-2.1-10c11.3,0,60.2-4.8,59.7-0.9c-0.7,5.3,4.1,21.2-2.9,18.8C1501.1,497.2,1422.2,496.9,1422.2,496.9L1422.2,496.9z"/>
<path id="path5390" inkscape:connector-curvature="0" sodipodi:nodetypes="cssssssc" class="st15" d="M1488.2,417.3
	c-3.1,9-17.5,4-8.3,12.9s14.4,19.9,9.3,27.9c-5.2,8-24.8,21.9-14.4,21.9c10.3,0,36.1-1,36.1-2s-0.5-35.8,0-41.8
	c0.4-4.5,0.6-12.6,1-20.9C1512.2,410.8,1488.2,417.3,1488.2,417.3L1488.2,417.3z"/>
<path id="path5392" inkscape:connector-curvature="0" class="st1" d="M1130.3,510.8c-15.5,15.9-19.6,26.9-15.5,35.8
	s4.1,17.9,11.3,19.9c7.2,2,74.3,1,82.5,2s12.4,1,21.7-6s9.3-14.9,9.3-26.9s-8.3-19.9-12.4-23.9c-4.1-4-9.3-6-33-5
	S1130.3,510.8,1130.3,510.8L1130.3,510.8z"/>
<path id="path5394" inkscape:connector-curvature="0" class="st1" d="M1327.3,507.1c-19.6,15.3-19.6,15.3-19.6,28.6
	c0,13.3,2.1,20.5,11.3,27.6c9.3,7.2-19.6,5.1,13.4,5.1c33,0,75.3,4.1,81.5-1c6.2-5.1,16.5-10.2,16.5-21.5c0-11.3-4.1-21.5-6.2-27.6
	c-2.1-6.1-15.5-13.3-22.7-13.3C1394.3,505.1,1327.3,507.1,1327.3,507.1L1327.3,507.1z"/>
<path id="path5396" inkscape:connector-curvature="0" class="st16" d="M1145.6,566.4c12.4,1.4,13.9,4.9,12.4,1.4
	c-1.5-3.5,0-31.7-3.6-31s-10.9-2.1-10.9,0.7S1145.6,566.4,1145.6,566.4L1145.6,566.4z"/>
<path id="path5398" inkscape:connector-curvature="0" class="st16" d="M1202.4,538.9c0,0-1.1,28.9,1.1,29.6c2.2,0.7,10.2,3.5,10.2,0
	s5.9-27.5,0-29.6c-5.9-2.1-4.3-2.8-7-2.1S1202.4,538.9,1202.4,538.9z"/>
<path id="path5396-9" inkscape:connector-curvature="0" class="st16" d="M1336.5,568c12.4,1.4,13.9,4.9,12.4,1.4
	c-1.5-3.5,0-31.7-3.6-31c-3.6,0.7-10.9-2.1-10.9,0.7S1336.5,568,1336.5,568L1336.5,568z"/>
<path id="path5396-8" inkscape:connector-curvature="0" class="st16" d="M1394.1,568c12.4,1.4,13.9,4.9,12.4,1.4
	c-1.5-3.5,0-31.7-3.6-31c-3.6,0.7-10.9-2.1-10.9,0.7S1394.1,568,1394.1,568L1394.1,568z"/>
<path id="path5396-85" inkscape:connector-curvature="0" class="st16" d="M1219,479.3c12.4,1.4,13.9,4.9,12.4,1.4
	c-1.5-3.5,0-31.7-3.6-31c-3.6,0.7-10.9-2.1-10.9,0.7C1216.8,453.3,1219,479.3,1219,479.3z"/>
<path id="path5396-2" inkscape:connector-curvature="0" class="st16" d="M1279.6,478.6c12.4,1.4,13.9,4.9,12.4,1.4
	c-1.5-3.5,0-31.7-3.6-31c-3.6,0.7-10.9-2.1-10.9,0.7S1279.6,478.6,1279.6,478.6L1279.6,478.6z"/>
<path id="path5396-22" inkscape:connector-curvature="0" class="st16" d="M1451,479.3c12.4,1.4,13.9,4.9,12.4,1.4
	c-1.5-3.5,0-31.7-3.6-31c-3.6,0.7-10.9-2.1-10.9,0.7C1448.8,453.3,1451,479.3,1451,479.3z"/>
<path id="path5445" inkscape:connector-curvature="0" class="st17" d="M1212,424.2c73.7,0,65.6,0,73.7,0s10.9,1.4,8,6.3
	c-2.9,4.9-15.3,44.3-19.7,46.5s-6.6,9.2-9.5,2.1s-25.5-33.1-30.6-38.7C1228.7,434.7,1212,424.2,1212,424.2L1212,424.2z"/>
<path id="path5447" inkscape:connector-curvature="0" sodipodi:nodetypes="csssssssssc" class="st1" d="M1432.2,422.8
	c41.6,1.4,37.2-1.4,41.6,1.4s12.4,8.4,13.9,15.5c1.5,7,6.6,11.3,2.9,16.2c-3.6,4.9-9.5,8.4-13.1,14.8s4.4,9.2-3.6,9.2
	c-8,0-6.6,3.5-9.5-2.8c-2.9-6.3-0.7-27.5-5.1-27.5s-10.9-4.9-10.9-1.4s1.5,32.4,0.7,26.7S1432.2,422.8,1432.2,422.8z"/>
<path id="path5451" inkscape:connector-curvature="0" sodipodi:nodetypes="cssssssssssssc" class="st18" d="M1135.1,354.3
	c5.3-13.3,4.8-5,1.9-10c-2.9-5,4.2-12.2,5.7-16.1c1.5-3.9,6.6-10.3,16.1-13.1s20,0.2,25.6,5.3c0,0,10.9,10.4,13.8,14.1
	c2.6,3.4-3.9,7.2-0.2,8c4.3,0.9,1.8,4.6,1.8,12.4c0,7.8,1.5,18.4-0.7,22.8c-2.2,4.4-5.1,16.7-11,18.9c-5.8,2.2-13.1,7.2-20.5,7.2
	s-10.2,0.6-16.1-4.4c-5.8-5-8.6-13.9-15.3-21.1C1127.8,369.3,1134.3,354.3,1135.1,354.3L1135.1,354.3z"/>
<path id="path5453" inkscape:connector-curvature="0" class="st19" d="M1233.1,360.8c-10.9-12.7-19.7-24.6-19-34.5s-4.4-19.7,0.7-31
	c5.1-11.3,5.8-12.7,16-17.6c10.2-4.9,24.1,1.4,33.6,2.1c9.5,0.7,20.4,21.1,21.2,27.5c0.7,6.3-0.7,32.4-5.1,35.9s-11.7,16.9-19,16.9
	S1233.1,360.8,1233.1,360.8L1233.1,360.8z"/>
<path id="path5455" inkscape:connector-curvature="0" class="st17" d="M1233.8,362.2"/>
<path id="path5457" inkscape:connector-curvature="0" class="st20" d="M1359.7,388.3c-24.1-12.7-16.8,2.8-24.1-12.7s-8-27.5-8-38.7
	c0-11.3,5.8-17.6,13.1-23.2s0,0,7.3-5.6c7.3-5.6,7.3-12,7.3-5.6s-6.6,7.7,0,6.3c6.6-1.4,14.6-2.1,15.3,1.4s11.7,4.2,16.8,7
	c5.1,2.8,15.3,19.7,13.1,28.9s-10.2,28.2-13.9,32.4c-3.6,4.2-24.8,14.1-24.8,14.1"/>
<path id="path5459" inkscape:connector-curvature="0" class="st21" d="M1426.4,315.1c4.4-20.4,13.1-21.8,5.1-41.5
	c-8-19.7-15.3-23.9-16-19c-0.7,4.9,10.9,14.1-0.7,4.9c-11.7-9.2-15.3-19.7-11.7-9.2c3.6,10.6,13.1,17.6,3.6,10.6
	c-9.5-7-8-16.9-9.5-7c-1.5,9.9,8,18.3-1.5,9.9c-9.5-8.4-9.5-15.5-9.5-8.4c0,7-4.4,7-4.4,14.8s-2.9,19,0.7,29.6
	c3.6,10.6,5.8,20.4,12.4,26c6.6,5.6,13.1,10.6,18.2,5.6C1418.4,326.3,1426.4,315.1,1426.4,315.1L1426.4,315.1z"/>
<path id="path5461" inkscape:connector-curvature="0" class="st22" d="M1211.2,377.7c1.5,47.9-4.4,48.6,1.5,47.9
	c5.8-0.7,75.1,2.8,74.4-2.1c-0.7-4.9,2.9-45.8-0.7-47.2c-3.6-1.4-16.8-6.3-20.4-6.3c-3.6,0-25.5,0-29.9,0.7
	S1217.8,368.6,1211.2,377.7L1211.2,377.7z"/>
<path id="path5467" inkscape:connector-curvature="0" class="st22" d="M1285.3,417.2c12.8,0,13.8-1.4,12.8,0s3.2-3.5-1.1,1.4
	s2.1,4.9-4.3,4.9c-6.4,0-6.4,4.2-6.4,0S1285.3,417.2,1285.3,417.2z"/>
<path id="path5469" inkscape:connector-curvature="0" class="st9" d="M1150.7,398.8c4.4,10.6,8,1.4,4.4,10.6
	c-3.6,9.2-10.9,12.7-2.9,12c8-0.7,31.4,0,31.4-1.4s-2.2-9.9-2.2-14.1s11.7-14.8,7.3-11.3s-10.2,6.3-16.8,7.7
	C1165.3,403.8,1170.4,409.4,1150.7,398.8L1150.7,398.8z"/>
<path id="path5471" inkscape:connector-curvature="0" sodipodi:nodetypes="cssssssssssc" class="st23" d="M1120.8,426.3
	c2.2,62.6-0.2,56.8,2.2,62.6c3,7.3,3.3,21.6,6.6,21.1c14.1-2.1,90.3-2.2,80.2-2.8c-1.8-0.1-1.5-0.5,0.4-1.8c0,0,1.1-30.5,1.1-35.5
	c0-6.3,5.1-43.6,1.5-43.6c-3.6,0-9.7-3.9-21.5-4.2c-7.2-0.2-4-2.8-7.7-2.1s-21.2-2.1-29.2,0c-8,2.1-17.5,2.8-26.3,3.5
	C1119.3,424.2,1120.8,426.3,1120.8,426.3L1120.8,426.3z"/>
<path id="path5473" inkscape:connector-curvature="0" sodipodi:nodetypes="csssssssssc" class="st23" d="M1121.5,455.9
	c-10.9,8.4-22.6,16.2-19,16.9c3.6,0.7,21.2-5.6,20.4,0c-0.7,5.6,4.4,17.6-0.7,17.6c-5.1,0-24.8,4.2-31.4,1.4s-20.4-7-19-9.9
	c1.5-2.8,5.6-9.4,6.6-13.4c2.1-9.3,6.3-10.5,13.9-16.2c8.1-6.1,21.9-19.7,24.8-21.8c2.9-2.1,4.4-10.6,4.4-3.5L1121.5,455.9z"/>
<path id="path5475" inkscape:connector-curvature="0" class="st23" d="M1210.5,490.3c5.8,0.7,21.2,2.8,31.4,2.1s16-0.7,17.5-4.9
	c1.5-4.2,11.7-6.3,7.3-10.6s-7.3-5.6-8.8-9.2s-11.7-15.5-24.8-26c-13.1-10.6-22.6-23.9-21.2-16.9s-0.7,25.3,0,26.7
	c0.7,1.4,27.7,18.3,23.3,20.4c-4.4,2.1-25.5-2.8-25.5,2.1S1210.5,490.3,1210.5,490.3L1210.5,490.3z"/>
<path id="path5477" inkscape:connector-curvature="0" class="st24" d="M1344.7,403.8c-27.7,3.5-41.6,4.9-43.8,8.4
	c-2.2,3.5-2.2,1.4-10.9,26.7s-12.4,28.2-12.4,38.7c0,10.6-4.4,7.7,0,12c4.4,4.2,25.5,2.1,32.1,5.6c6.6,3.5,1.5,20.4,6.6,17.6
	s26.3-5.6,37.9-6.3s32.8-0.7,43-0.7c10.2,0,14.6,7,14.6,0.7s-4.4-9.2,0-9.2s44.5,2.1,42.3-3.5c-2.2-5.6,3.6-9.9-2.9-20.4
	c-6.6-10.6-12.4-47.9-21.9-56.3c-9.5-8.4-10.2-12.7-18.2-12.7c-8,0-19-2.1-25.5,0c-6.6,2.1-16,3.5-22.6,2.1
	C1356.4,405.2,1344.7,403.8,1344.7,403.8L1344.7,403.8z"/>
<path id="path5479" inkscape:connector-curvature="0" class="st1" d="M1314.1,450.2c-11.7,14.8-13.9,16.2-11.7,21.1
	s13.9,13.4,13.1,8.4C1314.8,474.9,1314.1,450.2,1314.1,450.2z"/>
<path id="path5481" inkscape:connector-curvature="0" class="st1" d="M1410.4,450.9c0,26-5.8,26,0,26c5.8,0,16.8,1.4,11.7-3.5
	S1410.4,450.9,1410.4,450.9z"/>
<path id="path5487" inkscape:connector-curvature="0" class="st25" d="M1347.6,397.4c-2.9,6.3-10.2,4.9-2.9,6.3
	c7.3,1.4,15.3,2.1,25.5,2.1c10.2,0,28.4,2.8,19-2.1c-9.5-4.9-5.8-3.5-11.7-3.5S1347.6,397.4,1347.6,397.4L1347.6,397.4z"/>
<path id="path5491" inkscape:connector-curvature="0" sodipodi:nodetypes="ccssssssscc" class="st9" d="M1433,283.4
	c0,8.1,2.2,15.5-0.7,19.5c-2.9,4.1-2.2,4.9-6.6,17.1c-4.4,12.2-6.6,7.3-4.4,12.2c2.2,4.9,7.3,11.6,0,14c-7.3,2.4-24.8,2.3-24.8-3.4
	c0-5.7-7.3-26.1,2.2-21.2c9.5,4.9,10.2,13,13.9,8.1s14.6-22,16.8-29.3C1431.5,293.2,1433,283.4,1433,283.4L1433,283.4z"/>
<path id="path5493" inkscape:connector-curvature="0" class="st17" d="M1380.5,294c-2.9,5.6,1.5,18.3,1.5,18.3s2.2,5.6,2.2,0
	C1384.1,306.6,1380.5,294,1380.5,294z"/>
<path id="path5495" inkscape:connector-curvature="0" class="st9" d="M1234.6,360.8c0,8.4-2.9,8.4,0,8.4s29.2,3.5,29.2,0
	s5.1-11.3,0-9.9S1234.6,360.8,1234.6,360.8L1234.6,360.8z"/>
<path id="path5497" inkscape:connector-curvature="0" class="st8" d="M1280.5,291.1c16.8-2.8,17.5-6.3,16.8-2.8
	c-0.7,3.5,5.8,19.7,1.5,19.7c-4.4,0-11.7,11.3-11.7,4.2S1280.5,291.1,1280.5,291.1L1280.5,291.1z"/>
<path id="path5499" inkscape:connector-curvature="0" class="st9" d="M1297.7,287.6c5.8-10.6,1.8-7.4,5.8-10.6s8-1.8,12.8-1.8
	c4.7,0,4.7-2.5,4.7,0c0,2.5-0.4,4.9-3.3,5.3s-8.8,1.1-2.9,0.4c5.8-0.7,8,0.4,6.2,1.4c-1.8,1.1-9.8,2.8-6.6,2.5
	c3.3-0.4,9.1-1.4,6.6,0.4c-2.6,1.8-9.5,3.2-7.7,3.2c1.8,0,4.7-1.1,6.6-0.4c1.8,0.7,4,2.8,0,3.2c-4,0.4-4,0.4-4,0.4s-4,0-1.1,0
	s9.5-2.1,8-0.4c-1.5,1.8,2.2-2.1-6.9,3.9c-9.1,6-2.6,4.2-9.1,6c-6.6,1.8-6.6,5.6-6.6,1.8S1297.7,287.6,1297.7,287.6L1297.7,287.6z"
	/>
<path id="path5503" inkscape:connector-curvature="0" sodipodi:nodetypes="csscsssc" class="st26" d="M1184.9,229.6
	c2.6,7,3.1,15.9,6.2,21.4c3.1,5.5,6.4,10.9,6.4,9.2s-1.3-3.2-0.3-5.7c1-2.5,3.4-7.5,3.4-9c0-1.5-2.1-3-2.8-1.5
	c-0.8,1.5,0,4.2-1.3,1.5C1195.3,242.8,1184.9,229.6,1184.9,229.6z"/>
<path id="path5505" inkscape:connector-curvature="0" sodipodi:nodetypes="cssssscssc" class="st26" d="M1205.1,245
	c1,4.5,1.5,10.5,2.3,12.2c0.8,1.7,1,4.5,2.3,1.5c1.3-3,8.8-12.7,10.1-17.4c1.3-4.7,5.9-15.2,4.6-15.2c-1.3,0,1.5-1-3.4,4
	s-6.7,8.7-8.3,10.7c-3.9,3.2,0.1,7-2.1,5.2c-2.2-1.8-2.3-3.8-3.1-2.5C1206.9,244.8,1205.1,245,1205.1,245L1205.1,245z"/>
<path class="st27" d="M1488.4,402.4c-3.6-8.4-19.7-43.6-24.1-53.5s0,0-39.4-4.9c0,0-22.6-0.7-26.3-2.1c-3.6-1.4-1.5,6.3-3.6,13.4
	s-5.8,17.6-14.6,26c-8.8,8.4,0,0,0,3.5s-3.6,6.3-3.6,12.7s2.2,2.1,10.9,5.6c8.8,3.5,24.8-2.1,30.6,2.8c5.8,4.9,7.3,10.6,12.4,16.2
	s22.6,0.7,35,2.1c12.4,1.4,9.5,4.2,18.2-2.8C1492.8,414.3,1492.1,410.8,1488.4,402.4z M1452.6,413.8c-5.8,0,0,0,0-26
	c0,0,6.6,17.6,11.7,22.5C1469.4,415.2,1458.4,413.8,1452.6,413.8z"/>
<path id="path5354" inkscape:connector-curvature="0" sodipodi:nodetypes="cssssssssssc" class="st28" d="M1187.9,213
	c-4.4,6.3-10.9,1.4-6.6,9.2s10.2,16.2,13.1,19c2.9,2.8,1.5,6.3,2.9,2.8c1.5-3.5,6.6-16.9,6.6-14.1s2.2,5.6,2.9,9.2
	c0.7,3.5,5.2,8.4,3.6,6c-0.5-0.8,1.4-3.7,4.4-8.3c2.8-4.3,10.2-10.4,9.4-13.9c-0.7-3.5-5.1-14.8-8-10.6c-2.9,4.2-8,23.9-11.7,19
	C1201,226.4,1187.9,213,1187.9,213L1187.9,213z"/>
<path id="path5501" inkscape:connector-curvature="0" class="st29" d="M1349.1,177.1c-49.6,142.5-51.8,141.5-49.6,142.5
	c2.2,1.1,1.8,10.9,4.7,1.4C1307.2,311.6,1349.1,177.1,1349.1,177.1L1349.1,177.1z"/>
<path id="path5537" inkscape:connector-curvature="0" sodipodi:nodetypes="cssssssc" class="st1" d="M1217.1,425.6
	c16.2,17.8,28.3,21.9,37.2,36.1c6.6,10.6,9.2,16.7,15.3,16.7c5.8,0,5.2-3.4,8-9c3.2-6.3-3.6-21.5,0-21.5c5.1,0,8,7.6,9.5,0
	c1.5-7.6,13.1-24.3,8.8-24.3C1291.5,423.5,1217.1,425.6,1217.1,425.6L1217.1,425.6z"/>
<path id="path5539" inkscape:connector-curvature="0" sodipodi:nodetypes="cssssssc" class="st1" d="M1123,499.9
	c-115.5,0-116.6,7-115.5,0c1-7,0-17.9,1-16.9c1,1,64-6,64-1s6.2,8,13.4,9c7.2,1,17.4,0.9,23.6,0.9c6.2,0,15.6-2.9,15.6,1.1
	S1123,499.9,1123,499.9L1123,499.9z"/>
<path id="path5543" inkscape:connector-curvature="0" sodipodi:nodetypes="ccsc" class="st1" d="M1120.9,457.2
	c-13.3,6.7-20.6,14.1-20.5,14.2c0,0,21.8,4.3,21.8-1.6S1120.9,457.2,1120.9,457.2L1120.9,457.2z"/>
<path class="st13" d="M1038.3,407.4c-1.6-0.3-4.4-0.4-7.3-0.9c-5.4-0.7-10.1-2.5-10.1-5.5c0-2.8,8.3-9.9,13.2-15.6
	c0.8-1,1.6-2.1,2.3-3.1c0.6-1,1-1.9,1-2.6c0-4.8-2.1-39.7-2.1-39.7v0c-13.4,8.7-6.2,1-17.5,22.3c-11.3,21.3-15.5,31-16.5,39.7
	c-1,8.7,0,14.5,10.3,17.5s27.9,11.6,27.9,7.8C1039.5,423.8,1042.8,410.3,1038.3,407.4z"/>
<path class="st13" d="M1153.6,403.8c-3.6-4.9-16.8-28.2-18.2-32.4c-1.5-4.2-2.9-10.6-1.5-16.9s7.3-10.6,1.5-12
	c-5.8-1.4-5.8-4.9-5.8-1.4s-2.2,14.8-2.2,19.7s-0.7,14.8-0.7,14.8s7.3,10.8,11,16.7c0.5,0.8,0.9,1.5,1.3,2.1c0,0,0,0.1,0.1,0.1
	c0,0,0,0,0,0c1.5,2.6,1.8,3.8,1.7,5.3c0,0.2,0,0.5-0.1,0.7c0,0.2-0.1,0.4-0.1,0.6c-0.2,1-1.1,1.6-2.5,2.1c-0.2,0.1-0.5,0.2-0.8,0.2
	c-0.1,0-0.2,0-0.3,0.1c0,0-0.1,0-0.1,0c0,0,0,0,0,0c-1,0.2-2.2,0.4-3.3,0.5c-2.1,0.3-3.8,0.4-5.1,0.6c-0.7,0.1-1.4,0.3-2,0.4
	c0,0,0,0,0,0c-1.1,0.4-1.9,0.9-1.9,1.6c0,3.5-2.2,16.2,1.5,16.9c3.6,0.7,23.3,1.4,25.5-2.8C1153.6,416.4,1157.3,408.7,1153.6,403.8z
	"/>
<path class="st30" d="M1209.8,418.5C1209.8,418.5,1209.8,418.5,1209.8,418.5c0,1-3.5-2.3-11.4-2.8c-3.2-0.1-6.2,0-7.6,0.4
	c0.4-0.2,1-0.5,1.7-0.9c-1-0.2,0-0.3-1.3,0.1c-1.9,0.6,6.8-3.8,15.6-9.3c2.6-2.1,4.6-4.1,5.2-5.9c2.2-6.3,0,0,0.7-21.1h0
	c0,0-0.7-1.4-7.3,0.7c-6.6,2.1-18.2,19-22.6,23.2s1.5,9.2,1.5,14.8s19.7,5.6,25.5,8.4S1209.8,421.4,1209.8,418.5
	C1209.8,418.5,1209.8,418.5,1209.8,418.5z"/>
<path class="st31" d="M1319.9,405.9c-1.5-2.1-19.7-20.4-23.3-23.9c-3.6-3.5-9.5-7-9.5-3.5s-1.5,23.2-1.5,23.2
	c0.9,0.6,1.8,1.2,2.5,1.8c0,0,0-0.1,0-0.1v0c0,0,0.1,0.1,0.3,0.3c11.9,9.1,7.7,13.1,12.5,8.5C1306.1,407.3,1321.4,408,1319.9,405.9z
	"/>
<path id="path5449" inkscape:connector-curvature="0" sodipodi:nodetypes="csssssssc" class="st1" d="M1059.1,424.2
	c-19.6,13.1-23.2,18-26.2,27s-3.5,11.2,5.5,22.1c8.5,10.3,14.8,9.2,19.9,8.3c4.6-0.8,10.8,5.8,7.4-5.5c-2.2-7.1,3.1,21.4,13-9.9
	c1.2-3.8,7.5-8.3,12.1-12.2c10.7-9.3,35.4-29,31-29S1059.1,424.2,1059.1,424.2L1059.1,424.2z"/>
<rect id="rect5617" x="1006.1" y="602.2" class="st32" width="499.6" height="61.5"/>
<g id="flowRoot5623" transform="matrix(0.27946627,0,0,0.27906761,-1.0810955,748.23228)">
</g>
<text transform="matrix(1.0014 0 0 1 1019.1481 643.9482)" class="st33 st34 st35">BEST HANDWRITTEN NOTES CHAPTERWISE</text>
<rect id="rect5617-6" x="1006.1" y="665.3" class="st32" width="499.6" height="61.5"/>
<text transform="matrix(1.0014 0 0 1 1019.1481 703.3647)" class="st36 st34 st35">HIGHER ORDER MCQ&apos;s AND EVALUATION</text>
<text transform="matrix(1.0014 0 0 1 640.7646 509.0972)" class="st37 st38">---</text>
<text transform="matrix(1.0014 0 0 1 59.7456 505.5532)" class="st34 st39">ACADEMIC EXCELLENCE PROGRAMME</text>
<text transform="matrix(1.0014 0 0 1 49.7456 542.2568)" class="st34 st40"> ONLINE PLATFORM FOR COLLEGE STUDENTS</text>
<path id="path5489" inkscape:connector-curvature="0" sodipodi:nodetypes="csssc" class="st27" d="M1339.6,377.7
	c7.1,8.1,11.5,2.3,12.8,13.6c1,8.5-4,13.1-12.1,13.9c-8,0.7-13.9,3.9-13.9-2.5S1339.6,377.7,1339.6,377.7L1339.6,377.7z"/>
<path id="path5483" inkscape:connector-curvature="0" sodipodi:nodetypes="cssssssc" class="st9" d="M1344.9,382.7
	c8.1,9.2,7.3,4.6,8,9.2c1.6,10.2-9.5,9.9-2.2,8.4s28.4,2.1,28.4-1.4s-2.4-3.6,0-9.9c2.9-7.4-1.4-5.9-4.3-4.1c-3,2-8.1,4.8-16.9,2.6
	C1349.3,385.5,1344.9,382.7,1344.9,382.7L1344.9,382.7z"/>
<path id="path4520" inkscape:connector-curvature="0" sodipodi:nodetypes="cssscscssssccsscc" class="st41" d="M1320.3,510.1
	c-10.3,11.3-6.4,4.9-10.3,11.3c-3.9,6.4-6.4,6.4-6.4,10.6c0,4.2-3.2,4.6-1.1,9.5s3.9,7.4,4.9,11s3.2,8.5,4.6,9.9
	c1.4,1.4,2.7,1.8,2.7,1.8s0.4-0.9,1.1,1.1c0,0.1,7.7,5.2,7,3.8c-2.1-4.6-10.2-11.2-12.3-17.9s-2.7-8.3-3.4-11.8
	c-0.7-3.5-1.8-0.6-0.7-3s4.8-10.6,6.2-12.3s2.1-3.5,4.9-6.4s3.5-4.2,4.9-5.7C1324.2,510.4,1328.1,510.4,1320.3,510.1L1320.3,510.1z"
	/>
<path id="path4520-3" inkscape:connector-curvature="0" sodipodi:nodetypes="cssscscssssccsscc" class="st41" d="M1128.3,510.8
	c-10.3,11.3-6.4,4.9-10.3,11.3c-3.9,6.4-6.4,6.4-6.4,10.6c0,4.2-3.2,4.6-1.1,9.5s3.9,7.4,4.9,11s3.2,8.5,4.6,9.9
	c1.4,1.4,2.7,1.8,2.7,1.8s0.4-0.9,1.1,1.1c0,0.1,2.7,2.7,2,1.3c-2.1-4.6-5.2-8.7-7.3-15.4s-2.7-8.3-3.4-11.8c-0.7-3.5-1.8-0.6-0.7-3
	s4.8-10.6,6.2-12.3s2.1-3.5,4.9-6.4s3.5-4.2,4.9-5.7C1132.2,511.2,1136.1,511.2,1128.3,510.8L1128.3,510.8z"/>
<path id="path4520-6" inkscape:connector-curvature="0" sodipodi:nodetypes="cssscscssssccsscc" class="st41" d="M1047.8,426.3
	c-10.3,11.3-6.4,4.9-10.3,11.3c-3.9,6.4-6.4,6.4-6.4,10.6c0,4.2-3.2,4.6-1.1,9.5s3.9,7.4,4.9,11s3.2,8.5,4.6,9.9
	c1.4,1.4,2.7,1.8,2.7,1.8s0.4-0.9,1.1,1.1c0,0.1,3.7,1.7,3,0.3c-2.1-4.6-6.2-7.7-8.3-14.4s-2.7-8.3-3.4-11.8c-0.7-3.5-1.8-0.6-0.7-3
	s4.8-10.6,6.2-12.3s2.1-3.5,4.9-6.4s10.5-7.7,11.9-9.2C1058.7,423.2,1055.6,426.7,1047.8,426.3L1047.8,426.3z"/>
<path id="path5396-3" inkscape:connector-curvature="0" sodipodi:nodetypes="csssc" class="st16" d="M1060.6,481.5
	c12.4,1.4,12.8,0.3,11.3-3.2c-1.5-3.5,1.1-27.1-2.6-26.4c-3.6,0.7-10.9-2.1-10.9,0.7S1060.6,481.5,1060.6,481.5L1060.6,481.5z"/>
<path id="path7131" inkscape:connector-curvature="0" class="st42" d="M1159.7,349.2c12.7-11.3,14.1,0,14.1,0"/>
<path id="path7675" inkscape:connector-curvature="0" sodipodi:nodetypes="cscssssc" class="st43" d="M1162.6,346.9
	c-11.3,93.5-17.9,106.1-11.3,93.5c6.6-12.6-1.5-19.5,4.1,0.5c5.6,20,0.3,30.4,8.1,6.9c6.7-20-2.6-16.3,6,0.2
	c10.1,19.6,12.8,33.3,6.2-8.7c-6.6-42-0.9,18.9-3.8-37.8C1169.2,344.8,1175.8,343.7,1162.6,346.9L1162.6,346.9z"/>
<path id="path7677" inkscape:connector-curvature="0" class="st44" d="M1159,253c-1,61-1,61-1,61"/>
<path id="path7677-6" inkscape:connector-curvature="0" class="st45" d="M1246.8,250.9c-0.6,26.1-0.6,26.1-0.6,26.1"/>
<path class="st46" d="M1186.2,168c0.4-0.3,2.9-5.5,6.5-3.4c1,0.5,2,1.6,3.2,3.4"/>
<path class="st46" d="M1207.2,168c0.4-0.3,2.9-5.5,6.5-3.4c1,0.5,2,1.6,3.2,3.4"/>
</svg>
