<?xml version="1.0" encoding="utf-8"?>
<!-- Generator: Adobe Illustrator 21.0.2, SVG Export Plug-In . SVG Version: 6.00 Build 0)  -->
<svg version="1.1"
	 id="svg2" inkscape:version="0.91 r13725" sodipodi:docname="slide-1image.svg" xmlns:cc="http://creativecommons.org/ns#" xmlns:dc="http://purl.org/dc/elements/1.1/" xmlns:inkscape="http://www.inkscape.org/namespaces/inkscape" xmlns:rdf="http://www.w3.org/1999/02/22-rdf-syntax-ns#" xmlns:sodipodi="http://sodipodi.sourceforge.net/DTD/sodipodi-0.dtd" xmlns:svg="http://www.w3.org/2000/svg"
	 xmlns="http://www.w3.org/2000/svg" xmlns:xlink="http://www.w3.org/1999/xlink" x="0px" y="0px" viewBox="0 0 1600 900"
	 style="enable-background:new 0 0 1600 900;" xml:space="preserve">
<style type="text/css">
	.st0{fill:#B1DBB1;}
	.st1{fill:#F4B5AE;stroke:#000000;stroke-width:1.0245;}
	.st2{fill:none;stroke:#000000;stroke-width:1.0711;}
	.st3{fill:#F2D9AF;stroke:#000000;stroke-width:0.8681;}
	.st4{fill:#9E0930;stroke:#F8F8F8;stroke-width:0.6904;stroke-linecap:round;stroke-linejoin:round;}
	.st5{fill:#F8FAFD;}
	.st6{font-family:Roboto, quicksand, Arial;}
	.st7{font-size:21.6277px;}
	.st8{fill:#9E0930;stroke:#F8F8F8;stroke-width:0.6397;stroke-linecap:round;stroke-linejoin:round;}
	.st9{fill:#FCFCFC;}
	.st10{font-size:39.9715px;}
	.st11{fill:#9E0930;stroke:#F8F8F8;stroke-width:0.6635;stroke-linecap:round;stroke-linejoin:round;}
	.st12{fill:#9E0930;stroke:#F8F8F8;stroke-width:0.6064;stroke-linecap:round;stroke-linejoin:round;}
	.st13{fill:#4786CF;stroke:#F8F8F8;stroke-width:1.0682;stroke-linecap:round;stroke-linejoin:round;}
	.st14{fill:#02060D;}
	.st15{font-size:29.9786px;}
	.st16{font-size:24.9822px;}
	.st17{fill:#209F44;stroke:#F8F8F8;stroke-width:1.0665;stroke-linecap:round;stroke-linejoin:round;}
	.st18{fill:#030A14;}
	.st19{fill:#9E0930;stroke:#F8F8F8;stroke-width:0.6497;stroke-linecap:round;stroke-linejoin:round;}
	.st20{fill:#1F1632;stroke:#000000;stroke-width:0.8681;}
	.st21{fill:none;stroke:#000000;stroke-width:0.8681;}
	.st22{fill:#E3DBF5;stroke:#000000;stroke-width:0.8681;}
	.st23{fill:#DE5172;stroke:#000000;stroke-width:0.8681;}
	.st24{fill:#E3DBF5;stroke:#000000;stroke-width:0.7493;}
	.st25{fill:#2D2935;stroke:#000000;stroke-width:0.8681;}
	.st26{fill:#7F6967;stroke:#000000;stroke-width:0.8556;}
	.st27{opacity:0.953;fill:#B1A4A3;enable-background:new    ;}
	.st28{fill:none;stroke:#000000;stroke-width:0.7749;}
	.st29{fill:none;stroke:#000000;stroke-width:0.8087;}
	.st30{font-family: Roboto, quicksand, Arial;}
	.st31{font-size:22.6046px;}
	.st32{fill:#F0BAB4;stroke:#000000;stroke-width:0.903;}
	.st33{fill:#FDC2CA;stroke:#000000;stroke-width:0.8071;}
	.st34{fill:none;stroke:#000000;stroke-width:0.8071;}
	.st35{fill:#E3DBF5;stroke:#000000;stroke-width:0.8071;}
	.st36{fill:#8C514E;stroke:#000000;stroke-width:0.8071;}
	.st37{fill:#110A0B;stroke:#000000;stroke-width:0.8524;}
	.st38{font-size:20px;}
	.st39{fill:#9E0930;stroke:#F8F8F8;stroke-width:0.6576;stroke-linecap:round;stroke-linejoin:round;}
	.st40{fill:#9E0930;stroke:#F8F8F8;stroke-width:0.6359;stroke-linecap:round;stroke-linejoin:round;}
	.st41{font-size:35px;}
	.st42{font-size:27.5px;}
	.st43{fill:#F5F5DD;stroke:#000000;stroke-width:0.9169;}
	.st44{fill:none;stroke:#000000;stroke-width:1.0245;}
	.st45{fill:#1F030A;}
	.st46{fill:#0C0E0F;}
	.st47{fill:#090204;stroke:#000000;stroke-width:1.0245;}
	.st48{fill:#213E5B;stroke:#000000;stroke-width:1.1516;}
	.st49{fill:#3E3E3E;stroke:#000000;stroke-width:0.8295;}
	.st50{fill:none;stroke:#000000;stroke-width:0.8295;}
	.st51{fill:#9CA6D4;}
	.st52{fill:none;stroke:#000000;stroke-width:0.8928;}
	.st53{fill:none;stroke:#000000;stroke-width:0.8105;}
	.st54{fill:#F2D9AF;stroke:#000000;stroke-width:0.9809;}
	.st55{fill:none;stroke:#000000;}
	.st56{fill:none;stroke:#000000;stroke-width:1.5179;}
	.st57{fill:none;stroke:#000000;stroke-width:1.7544;}
	.st58{fill:#F5F5DD;}
	.st59{fill:#9E0930;stroke:#F8F8F8;stroke-width:0.6077;stroke-linecap:round;stroke-linejoin:round;}
	.st60{fill:#9E0930;stroke:#F8F8F8;stroke-width:0.6602;stroke-linecap:round;stroke-linejoin:round;}
	.st61{fill:#9E0930;stroke:#F8F8F8;stroke-width:0.6079;stroke-linecap:round;stroke-linejoin:round;}
	.st62{fill:#534444;}
	.st63{fill:#391D1D;}
	.st64{fill:#502C2C;}
</style>
<sodipodi:namedview  bordercolor="#666666" borderopacity="1.0" id="base" inkscape:current-layer="layer1" inkscape:cx="590.5552" inkscape:cy="516.91222" inkscape:document-units="px" inkscape:pageopacity="0.0" inkscape:pageshadow="2" inkscape:window-height="744" inkscape:window-maximized="1" inkscape:window-width="1317" inkscape:window-x="49" inkscape:window-y="24" inkscape:zoom="0.5" pagecolor="#ffffff" showgrid="false" units="px">
	</sodipodi:namedview>
<rect id="rect4257" x="-11.3" y="-10.8" class="st0" width="1640.5" height="922.1"/>
<path id="path6284" inkscape:connector-curvature="0" sodipodi:nodetypes="ccsscc" class="st1" d="M1304.1,415.6
	c-11.1,12.3-8.9,7.3-11.1,12.3c-2.2,5.1-0.7-5.9-2.2,5.1c-1.9,13.3,19.8,0.1,23.6-3.6c3.7-3.6,5.2-8,2.2-9.4
	C1313.7,418.5,1304.1,415.6,1304.1,415.6L1304.1,415.6z"/>
<path id="path6732" inkscape:connector-curvature="0" class="st2" d="M724.4,331.4c4.6-7.5,2.3-8.2,4.6-7.5
	c2.3,0.8,8.4-2.2,11.5,0.8s7.6,4.5,3.1,5.2C739,330.6,724.4,331.4,724.4,331.4L724.4,331.4z"/>
<path id="path4211" inkscape:connector-curvature="0" class="st3" d="M728.2,184.9c-9.9-7.6-13.3-9.4-13.3-15.7s0.9-14.3,3.4-13.4
	c2.6,0.9,4.3,0.4,6.4,3.6c2.1,3.1,4.3,6.3,4.3-1.3s6.4-43.5,13.7-43.5s81.5,15.2,85.8,25.5c4.3,10.3-4.3,39.4-1.7,37.2
	c2.6-2.2,11.2-14.3,12.9-12.1s3,7.2,0.9,11.7c-2.1,4.5-8.1,13.4-10.3,13.4s-6.4-4.9-6.4-1.8s-3,9-7.3,17c-4.3,8.1-8.6,13-15.4,18.8
	c-6.9,5.8-22.3,11.2-25.3,11.2c-3,0-11.6,0.4-15.9-2.7c-4.3-3.1-13.7-13.9-16.7-17.5c-3-3.6-8.6-11.2-10.7-16.1
	C730.3,194.3,728.2,184.9,728.2,184.9L728.2,184.9z"/>
<rect id="rect5617" x="54.5" y="544.2" class="st4" width="443.2" height="47.5"/>
<text transform="matrix(1.0014 0 0 1 68.5326 573.041)" class="st5 st6 st7">DISCONNECTED FROM INDUSTRIES</text>
<rect id="rect5617-6" x="54.5" y="595.2" class="st8" width="443.2" height="41"/>
<text transform="matrix(1.0014 0 0 1 68.5326 620.457)" class="st9 st6 st7">LOWER ORDER  LEARNING</text>
<text transform="matrix(1.0014 0 0 1 51.6011 63.792)" class="st6 st10">Frustrated With The Present EDUCATION SYSTEM???... </text>
<rect id="rect5617-2" x="54.5" y="497.4" class="st11" width="443.2" height="43.7"/>
<text transform="matrix(1.0014 0 0 1 68.5326 526.2852)" class="st5 st6 st7">POOR TECHHNICAL AND SOFT SKILLS</text>
<rect id="rect5617-6-5" x="1126.9" y="526.8" class="st12" width="441.2" height="49.7"/>
<text transform="matrix(1.0014 0 0 1 1142.8833 559.0679)" class="st9 st6 st7">MEAGER OPPORTUNITIES</text>
<rect id="rect5617-2-9" x="939.4" y="715.6" class="st13" width="628.7" height="79.5"/>
<text transform="matrix(1.0014 0 0 1 961.351 748.436)" class="st14 st6 st15">ACADEMIC EXCELLENCE PROGRAMME </text>
<text transform="matrix(1.0014 0 0 1 960.351 774.9092)" class="st14 st6 st16">(For College Students and Teachers)</text>
<rect id="rect5617-2-9-7" x="939.4" y="799.8" class="st17" width="626.7" height="79.5"/>
<text transform="matrix(1.0014 0 0 1 961.351 830.1548)" class="st18 st6 st15">FOUNDATION PROGRAMME </text>
<text transform="matrix(1.0014 0 0 1 959.351 856.1895)" class="st18 st6 st16">(For Class 8 to 10, Govt School Students)</text>
<rect id="rect5617-2-3" x="54.5" y="451.9" class="st19" width="443.2" height="41.7"/>
<text transform="matrix(1.0014 0 0 1 68.5326 480.7964)" class="st5 st6 st7">UNEMPLOYABILITY </text>
<path id="path4201" inkscape:connector-curvature="0" class="st20" d="M740.6,119.1c-10.9,26-10.9,26.6-10.9,29.2s0,16.5,0,16.5
	s-12.1-17.1-12.1-22.8s-3-27.9,0.6-31.1s14.6,1.3,12.7-5.7c-1.8-7-5.5-12.7,3.6-15.2s48.5-6.3,54.6-5.1c6.1,1.3,34,20.3,38.8,24.1
	s14.6,19,15.2,27.9c0.6,8.9-0.6,24.7-5.5,29.8c-4.9,5.1-10.3,12.7-10.3,10.1s6.1-26,1.2-29.2s-27.9-11.4-33.4-11.4
	c-5.5,0-17-5.1-29.1-8.9S740.6,119.1,740.6,119.1L740.6,119.1z"/>
<path id="path4203" inkscape:connector-curvature="0" class="st21" d="M774,171.1c-6.1,19-10.3,18.4-6.1,19c4.2,0.6,7.3,1.9,7.3,1.9
	"/>
<path id="path4205" inkscape:connector-curvature="0" class="st21" d="M760.6,207.2c19.4-10.8,22.4,3.2,22.4,3.2"/>
<path id="path4207" inkscape:connector-curvature="0" class="st21" d="M785.5,152.7c12.1,9.5,23.1,0.6,23.1,0.6"/>
<path id="path4209" inkscape:connector-curvature="0" class="st21" d="M750.3,152.7c16.4,13.3,21.8-3.2,21.8-3.2"/>
<path id="path4213" inkscape:connector-curvature="0" class="st3" d="M756.9,231c0,5.4-1.3,3.6,0.4,4.9s15,14.3,18,13
	c3-1.3,24.4-15.7,24.4-17.5c0-1.8,2.6-7.6,0-5.4c-2.6,2.2-13.7,6.7-18,8.1s-11.2,1.3-14.2,1.3S756.9,231,756.9,231z"/>
<path id="path4215" inkscape:connector-curvature="0" sodipodi:nodetypes="ccscc" class="st22" d="M774.9,248.1l18.9,25.7
	c0,0-0.3,18.5,1.8-0.3c2.1-18.8,6.7-42.8,3.7-41.1C796.4,234.2,774.9,248.1,774.9,248.1L774.9,248.1z"/>
<path id="path4217" inkscape:connector-curvature="0" sodipodi:nodetypes="cscc" class="st22" d="M753.8,234.2
	c19.3,16.1,23.6,11.7,20.2,16.1c-3.4,4.5-17.3,24-17.7,21.3C755.9,268.9,753.8,234.2,753.8,234.2z"/>
<path id="path4219" inkscape:connector-curvature="0" sodipodi:nodetypes="cccccsssscsc" class="st23" d="M774.9,249.4
	c-7.7,12.1-8.6,12.1-8.6,12.1c0.4,0.6-0.2-0.7,0,0c3.4,5.4,2.1,8.5,2.1,8.5l0.4,31.8c0,0-9.8,57.1-7.4,66c2.4,8.9,10.7,65,18,47.2
	c7.3-17.7,4.1-20.6,7.7-30.7s3.9-12.2,2.7-17.3s-11.6-99.6-11.6-99.6s9.6-4.4,6-8.9C780.6,254.1,774.9,249.4,774.9,249.4
	L774.9,249.4z"/>
<path id="path4221" inkscape:connector-curvature="0" sodipodi:nodetypes="csssssssssssssssscsc" class="st22" d="M799.8,233
	c42,7.2,33-4.2,44.2,6.5c11.2,10.8,24.9,64.5,24.9,71.7c0,7.2,6.9,14.3,6,29.6c-0.9,15.2-6,25.1-12.9,22.4
	c-6.9-2.7-80.6-10.8-84.9-13.4c-4.3-2.7-27.2,0-16.1-5.4s29-9,36.7-9c7.7,0,17.2,1.8,21.4-2.7c4.3-4.5,9.4-13.4,13.7-12.5
	c4.3,0.9,8.6,5.4,10.3,0s1.7-4.5-6.9-9.9c-8.6-5.4-3.4-4.5-8.6-5.4c-5.1-0.9-17.2-6.3-23.2,0.9c-6,7.2-0.9,9.9-11.2,9.9
	c-10.3,0-11.2,7.1-10.3,0c0.9-7.2-5.2-46-4-47.7c3.4-5,6.1-5.8,6.1-5.8c4.6,4.4,11.1,18.4,10.8,10.5
	C795.6,264.6,799.8,233,799.8,233L799.8,233z"/>
<path id="path4223" inkscape:connector-curvature="0" sodipodi:nodetypes="csscscsssssssscsccc" class="st22" d="M755.2,234.5
	c-18.2,4.4,0.6,1.9-18.2,4.4c-18.8,2.5-29.1,12.7-32.8,17.1c-3.6,4.4-8.5,21.6-9.7,29.8c-1.2,8.2-0.6,29.2-3,45.6
	c-2.4,16.5-1.8,20.3,0,25.4c1.8,5.1-1.2,7,5.5,7.6c6.7,0.6,55.2-13.9,63.7-17.1c8.5-3.2,28.5,0,26.7-9.5c-1.8-9.5,3.6-25.4-4.9-23.5
	c-8.5,1.9-63.7,20.3-63.1,11.4s7.9-39.3,5.5-31.7c-2.4,7.6-9.1,32.3-4.9,32.3s11.1,3.1,17,0.6c6.1-2.6,29.1-7,30.3-8.2
	c1-6.9,5.2-47.9,4.9-50.9c-0.5-4.5-6.1-7.9-7.3-4.7c0,0-6.4,10.3-8.2,9C754.9,270.9,755.2,234.5,755.2,234.5L755.2,234.5z"/>
<path id="path4225" inkscape:connector-curvature="0" sodipodi:nodetypes="cssssscsssc" class="st3" d="M785.5,317.5
	c13.3-1.9,13.3-0.8,13.3-4.6s5.7-9.5,13-10.8c7.3-1.3,17.9,3.3,21.6,5.9s13.3,12,10.9,12c-2.4,0,2.4,4.4-5.5,2.5
	c-7.9-1.9-5.5-5.7-7.9-1.9c-2.4,3.8-4.9,12.7-10.9,12.7c-6.1,0-10.9,4.4-18.2,3.8c-7.3-0.6-1.1-2.6-7.1-1.3
	C787.2,335.5,789,353.5,785.5,317.5L785.5,317.5z"/>
<path id="path4227" inkscape:connector-curvature="0" sodipodi:nodetypes="cssssccscssc" class="st24" d="M713.5,360.9
	c-1.7,58.1-3.4,58.7-1.7,58.1s126.2,6,126.2,2s11.2-62.1,0-62.7c-11.2-0.7-50.7-8-50.7-5.3s3.1,16.9,3.1,16.9l-15.2,46.3
	c0,0-1.3-1.1-2.9-7.7c-1.4-5.6-10.7-39.9-10.7-39.9s4.2-16.4,3-19.1c-2.6-6.1-14.2,0-21.9,3.5C735.6,356.1,713.5,360.9,713.5,360.9z
	"/>
<path id="path4229" inkscape:connector-curvature="0" class="st21" d="M842.7,315.7c-5.6-26.4-7.3-32.3-5.6-26.4
	C838.8,295.1,842.7,315.7,842.7,315.7z"/>
<path id="path4249" inkscape:connector-curvature="0" class="st25" d="M713.3,427.8l6.7,145.8l48.5-1.3v-7.6l4.2-69.1l3.6,76.1h11.5
	l42.5-1.3l6.1-141.3l0,0"/>
<path id="path4251" inkscape:connector-curvature="0" sodipodi:nodetypes="cssscssssc" class="st26" d="M711.5,418.3
	c29.4,2.5,21.5,1,30.3,1.6c8.8,0.6,32.7,0.3,38.6,0.3c5.9,0,24-0.3,35.2,0.4c11.2,0.6,22.5-4.2,21.9-1c-0.6,3.2,0.8,7.4-2.4,10.2
	c-4.1,3.7-46.5,2.6-50,1.9c-3.5-0.7-30.6,1.2-44.2-0.1c-13.5-1.3-30-0.5-30-3.7C710.9,424.6,711.5,418.3,711.5,418.3L711.5,418.3z"
	/>
<path id="path4253" inkscape:connector-curvature="0" class="st21" d="M729.7,415.8c0,16.5-3,17.1,0,16.5c3-0.6,2.4,4.4,3-0.6
	c0.6-5.1,0.6-15.2,0.6-15.2L729.7,415.8z"/>
<path id="path4253-3" inkscape:connector-curvature="0" class="st21" d="M809.2,416c0,16.5-3,17.1,0,16.5c3-0.6,2.4,4.4,3-0.6
	c0.6-5.1,0.6-15.2,0.6-15.2L809.2,416z"/>
<rect id="rect4270" x="765.5" y="419.6" class="st27" width="18.2" height="13.9"/>
<path id="path4183-6" inkscape:connector-curvature="0" class="st28" d="M790.3,165c6.8,19.9,16,5.4,16,5.4"/>
<path id="path4185-7" inkscape:connector-curvature="0" class="st29" d="M765.1,162.8c-9.6,17.6-15.9-2.3-15.9-2.3"/>
<text transform="matrix(0.2033 -0.8991 0.9772 0.2125 651.5809 297.7894)" class="st30 st31">Teacher / Professor</text>
<path id="path4175" inkscape:connector-curvature="0" sodipodi:nodetypes="cssssssssscscssssssc" class="st32" d="M184.5,242
	c-7-9.6-8.6-5.1-11.5-15.2c-2.9-10.1-4.9-20.8-1.6-21.3s12.4,3.2,12.3,2c-1.3-15.5,1.7,10.3,0.8-1.5c-3.3-42.2-5.3-30.4-4.5-42
	c0.8-11.6,73.6-38.5,87.1-33.9s37.4,43,35.3,51.6c-2.1,8.6-11.9,33.9-10.3,33.9s1.2-7.6,5.3-7.1c4.1,0.5,10.3,2.5,9.5,6.6
	c-0.8,4-0.8,13.2-5.8,17.7c-4.9,4.6-9.5,6.1-11.5,9.6c-2.1,3.5-6.6,19.2-12.7,26.8c-6.2,7.6-9,13.2-15.2,17.2
	c-6.2,4-15.2,11.1-18.9,11.1c-3.7,0-17.3-3.5-21.8-4.6c-4.5-1-18.5-13.7-23.8-21.3c-5.3-7.6-12.3-20.2-12.3-24.8
	C184.9,242.5,184.5,242,184.5,242L184.5,242z"/>
<path id="path4197" inkscape:connector-curvature="0" sodipodi:nodetypes="cscscccsssssc" class="st33" d="M214.9,290.3
	c-0.3,5.7-0.3,7.8,0,7.5c0.3-0.3,8.4,14.3,9.6,14.9c1.2,0.6,4.9,3.4,6.4,4c1.5,0.6-2-6-0.3,0.3c-0.2,10.1-0.3,13.4-0.3,13.4
	s5.2,35.7,7,8c3.4-5.8-0.6-16.2,2.6-22.3c3.3-6.3,12.5-12.9,12.5-16s2.9-8,0.3-6.6c-2.6,1.4-4.7,3.1-8.4,3.7
	c-3.8,0.6-10.8-0.9-13.4-1.1C228.2,295.8,214.9,290.3,214.9,290.3L214.9,290.3z"/>
<path id="path4181" inkscape:connector-curvature="0" class="st34" d="M223.1,266.2c16-4.8,18.9,4.4,18.9,4.4"/>
<path id="path4183" inkscape:connector-curvature="0" class="st34" d="M247.4,226.3c8.2,17.8,19.3,4.8,19.3,4.8"/>
<path id="path4185" inkscape:connector-curvature="0" class="st34" d="M223.1,226.3c-10.7,15.8-17.7-2-17.7-2"/>
<path id="path4187" inkscape:connector-curvature="0" class="st34" d="M205.1,208.6c22.6,3.6,21-5.3,21-5.3"/>
<path id="path4189" inkscape:connector-curvature="0" class="st34" d="M250.3,201.3c8.6,17.8,21,13.3,21,13.3"/>
<path id="path4191" inkscape:connector-curvature="0" sodipodi:nodetypes="csscsc" class="st35" d="M214.1,297.7
	c14,21,16.9,18.2,16.4,19.8c-0.4,1.6-9.2,18.7-10,19.9c-0.8,1.2-11-38.1-11-38.1s-4.1,2.4,0,0C213.7,296.9,214.1,297.7,214.1,297.7
	L214.1,297.7z"/>
<path id="path4195" inkscape:connector-curvature="0" sodipodi:nodetypes="csscc" class="st35" d="M252.3,300.1
	c-11.5,17-14.8,15.4-12.7,18.6c2.1,3.2,7.2,20.6,8.9,17.8s12.1-35.2,10.9-36C258.1,299.7,252.3,300.1,252.3,300.1L252.3,300.1z"/>
<path id="path4199" inkscape:connector-curvature="0" sodipodi:nodetypes="cssssssssssscscsssssssssscssssc" class="st36" d="
	M166.6,370.9c-3.5,18.3-2.3,5.7-3.5,18.3c-1.2,12.6,2.9,36.1-1.2,34.3c-4.1-1.8-30.8,2.6-32.6,1.1c-7.6-6.4,2.3-52.6,5.8-64
	s19.2-41.1,24.4-44.6c5.2-3.4,11-4.6,26.2-9.1c15.1-4.6,21.5-10.9,23.8-5.7s9.9,42.3,11.6,36c1.7-6.3,8.5-25.8,9.9-21.1
	c1.8,6-0.1,11.7,0.6,16.9c2.8,20.7,4.3,13.2,5.3,6.2c0.7-4.8,0.9-7.2,0.9-7.2c0,0-0.1-1.4,0.1-2.8l0.6-6.3c0,0-0.4-10.9,0.7-8.1
	c3.1,7.5,9.4,23.8,9.4,22.1s13-36,10.7-36.5c-2.3-0.6,17.7,0.7,21.8,0.7s27.3,9.7,32,14.9s16.3,18.9,16.3,24.6
	c0,5.7,8.1,51.4,8.1,57.1s2.3,26.8-2.3,26.3c-4.7-0.6-27.3,1.5-28.5,0c-7.8-10-0.6-31.4-0.6-39.4s-4.7-20.6-2.9-15.4
	c1.7,5.1-0.6,26.3,1.2,38.9c1.7,12.6,5.6,19.8,1.7,18.3c-4.1-1.6-140.7-2.4-142.5-2.3c-6,0.6-2.3-26.9-1.7-36
	C162.5,378.9,166.6,370.9,166.6,370.9L166.6,370.9z"/>
<path id="path4173" inkscape:connector-curvature="0" sodipodi:nodetypes="cssssssssssssssssssscsssssc" class="st37" d="
	M184.1,208.2c0.4-26.2-4.9-21.6,0.4-26.2s3.3-4.1,11.9-8.6s7-7.2,8.6-4.5c1.6,2.7-4.1,6.3,1.6,2.7s5.8-6.3,5.8-3.6
	s-6.6,13.1-0.4,7.7c6.2-5.4,14.4-14.9,14.4-11.3s-7.8,17.6-2.9,10.8c4.9-6.8,14.4-10.8,19.7-13.1c5.3-2.3,22.2-1.8,15.6,0
	c-6.6,1.8-20.1,7.2-8.6,5.9c11.5-1.4,21.4-4.5,28-1.4c6.6,3.2,17.3,5.9,17.3,16.2c0,10.4-6.1,36.4-1.6,32c4-3.9-3.5-6.5,7.8-5
	c8.8,1.2,6.6-39.7,5.8-49.6c-0.8-9.9,2.5-20.7-7.8-35.2S283,113,264.7,104.9c-24.5-10.8,2.5,0.3-18.5,0.5
	c-10.7,0.1-18.9-5.6-27.4-3.8c-7.3,1.6-14.6,6-19.8,9.7c-5.7,4-9.9,8.8-12,13c-3.1,6.2-7.4,23.9-9.5,29.3
	c-2.1,5.4-2.5,17.1-2.1,28.9s-0.8,25.2,1.6,25.2h8.6"/>
<text transform="matrix(0.2457 -0.9694 0.9694 0.2457 111.123 277.6021)" class="st30 st38">College Student</text>
<rect id="rect5617-6-1" x="573.4" y="554.8" class="st39" width="437.2" height="43.3"/>
<text transform="matrix(1.0014 0 0 1 584.4038 583.9943)" class="st9 st6 st7">DISCONNNECTED FROM INDUSTRIES</text>
<rect id="rect5617-6-1-0" x="573.4" y="603" class="st40" width="437.2" height="40.5"/>
<text transform="matrix(1.0014 0 0 1 584.4038 630.2531)" class="st9 st6 st7">LOW OPPORTUNITIES FOR RESEARCH</text>
<text transform="matrix(0.1523 -0.9883 0.9883 0.1523 1210.1348 408.3738)" class="st30 st38">GOVT High School Student</text>
<text transform="matrix(1 0 0 1 228.7411 788.8834)" class="st6 st41"> JOIN US IN DEVELOPING</text>
<text transform="matrix(1 0 0 1 238.7411 822.6957)" class="st6 st42">freely available collaborative online programmes</text>
<path id="path6272" inkscape:connector-curvature="0" class="st1" d="M1282.5,194.3c-5.7-2.6-4.2,2.1-5.7-2.6
	c-1.6-4.6-3.1-1.5-1.6-4.6c1.6-3.1-0.5-1.5,1.6-3.1s4.2,6.2,6.3,1.5c2.1-4.6-4.2,5.1,2.1-4.6s10.4-24.6,18.3-23.6
	c7.8,1,36.6-0.5,36.6,4.1s7.8,28.7,9.4,27.2c1.6-1.5,2.6-7.7,4.2-3.6s2.6,7.7,0.5,7.7c-2.1,0-6.3,1-7.3,3.1c-1,2.1-3.1,5.1-5.2,8.7
	c-2.1,3.6-4.7,7.7-10.4,9.2s-1.6,1-9.4,2.1c-7.8,1-15.1,4.6-18.8,0.5c-3.7-4.1-10.4-7.7-13.6-11.3
	C1286.2,201.5,1282.5,194.3,1282.5,194.3L1282.5,194.3z"/>
<path id="path6274" inkscape:connector-curvature="0" sodipodi:nodetypes="csscsc" class="st1" d="M1308.5,217.4
	c0.1,4.7,2.3,5.4,3,7.6c1.7,5.4,3.3,41.8,9,6.1c1-6.3,4.7-7.9,4.8-9.3c0.5-1,1.7-6-0.9-6C1321.7,215.8,1308.5,217.4,1308.5,217.4
	L1308.5,217.4z"/>
<path id="path6280" inkscape:connector-curvature="0" sodipodi:nodetypes="cssscsssssssscsscccssssssscc" class="st43" d="
	M1326.4,221.3c16.5,4.4,10.7,1.8,15.9,6.7c5.2,4.9,15.7,21.7,15.7,27.5c0,5.7,8.4,2.1-1.6,14.4s-8.4,9.8-9.9,12.3
	c1.7,2.5,1.1,21.8,0.6,11.1c-0.4-10.7-0.1-39.4-1.2-32.1c-1,7.4,4.7,46.4,0.5,46.4c-4.2,0-24,4.9-26.7,0.8c-2.6-4.1,1-8.2-2.6-4.1
	c-3.7,4.1,2.6,5.3-4.2,5.3c-6.8,0-23,0-23-0.8c0-0.8,2.1-52.5,2.1-48.8s-0.1,22.8-2.2,19.9s-14.6-12.5-14.6-16.6
	c0-4.1-0.5-20.1,5.8-28.3c6.3-8.2,5.2-6.6,6.3-8.2s20.9-4.9,20.9-4.9c0,0.6,0-1,0,0c1.7,0.6,4.9,6,6.8,9.4c1.1,2,1.7,5.2,2.8,7.2
	c0.7,1.2-1.1,3.5,2.3-4.9c0,0-0.1-0.1,0.1-0.4c0.1-0.3,0-0.5,0.1-1c0.1-0.5,0.1-2.1,0.5-2.7c0.5-1,0.2-1.7,0.4-2.1
	c1.1-1.5,4.3-4.8,3.9-5.1L1326.4,221.3z"/>
<path id="path6286" inkscape:connector-curvature="0" sodipodi:nodetypes="cscsc" class="st1" d="M1315.7,429.2
	c0-13.8,0.2-13.8,3.9-13.8c3.7,0,17.7,18.1,17.7,18.1s0.7,6.5-4.4,4.4S1315.7,429.2,1315.7,429.2L1315.7,429.2z"/>
<path id="path6288" inkscape:connector-curvature="0" class="st44" d="M1297.2,180.4c12-0.5,12-0.5,12-0.5"/>
<path id="path6290" inkscape:connector-curvature="0" class="st44" d="M1322.8,178.9c9.4,2.1,9.4,2.1,9.4,2.1"/>
<path id="path6292" inkscape:connector-curvature="0" class="st44" d="M1313.4,189.7c5.2,5.1,8.9,3.1,5.2,5.1
	c-3.7,2.1-3.7,2.1-3.7,2.1"/>
<path id="path6296" inkscape:connector-curvature="0" class="st44" d="M1308.7,207.1c14.6-8.2,13.1,0.5,13.1,0.5"/>
<ellipse id="path6298" class="st45" cx="1305" cy="188.9" rx="4.2" ry="3.3"/>
<ellipse id="path6300" class="st46" cx="1328" cy="189.2" rx="3.1" ry="3.1"/>
<path id="path6268" inkscape:connector-curvature="0" class="st47" d="M1286.7,151.2c-6.8,9.7-3.7,3.1-6.8,9.7s-4.7,14.9-0.5,19.5
	c4.2,4.6,0.5,8.2,3.7,5.1s8.4-14.4,10.4-15.4c2.1-1,6.3-5.1,6.3-1.5s-4.2,6.7,0,3.6s8.9-10.3,8.9-7.2s-3.7,13.3,1,9.2
	s10.4-14.9,10.4-10.3s-7.3,8.2-2.1,8.2c5.2,0,15.1-9.7,17.2-8.2s14.1,27.7,14.1,22c0-5.6,2.1-13.3,0-18.5c-2.1-5.1-5.7-3.6-5.7-8.7
	s-11.5-16.9-17.8-17.9s-14.6,1.5-21.9,4.1C1296.6,147.6,1290.9,146.1,1286.7,151.2L1286.7,151.2z"/>
<path id="path6282" inkscape:connector-curvature="0" sodipodi:nodetypes="csssssssssc" class="st48" d="M1291.2,310.4
	c8.4,85.5,5.6,65.9,8.4,85.5c2.8,19.6-5.6,23.2,2.8,23.2c8.4,0,16.8,5.1,16.8,2.9c0-2.2,1-88.7,1-85.8s7.4,14.7,7.4,21.9
	s-7.5,8.1-7.5,18.2s-0.9,40.6,0.9,37.7c1.9-2.9,25.2-44.9,25.2-57.2s4.7-46.4,0-46.4c-4.7,0-57,1-57,1"/>
<path id="path6304" inkscape:connector-curvature="0" class="st49" d="M1289.7,306.9c57.5-1.3,57-3.8,57.5-1.3s3.3,6.7-1.1,6.7
	s-56.7,5.1-56.7,1.6c0-3.5-0.8-7-0.8-7"/>
<path id="path6308" inkscape:connector-curvature="0" class="st50" d="M1299.4,305c0,12.1-1.1,12.1,0,12.1c1.1,0,2.8,0.6,3,0.3
	c0.3-0.3,0.6-12.4-0.6-12.4C1300.8,305,1299.4,305,1299.4,305z"/>
<path id="path6308-6" inkscape:connector-curvature="0" class="st50" d="M1335.5,303.9c0,12.1-1.1,12.1,0,12.1s2.8,0.6,3,0.3
	c0.3-0.3,0.6-12.4-0.6-12.4C1336.9,303.9,1335.5,303.9,1335.5,303.9L1335.5,303.9z"/>
<rect id="rect6325" x="1313.7" y="304.4" class="st51" width="11.3" height="12.1"/>
<path id="path6336" inkscape:connector-curvature="0" class="st52" d="M1308.7,222.3c-0.3,14.6-5.1,16.8-0.3,14.6
	c4.8-2.2,3.2-1.3,4.8-2.2s3.5,1.6,1.6-1C1312.8,231.2,1308.7,222.3,1308.7,222.3z"/>
<path id="path6340" inkscape:connector-curvature="0" sodipodi:nodetypes="cscccc" class="st50" d="M1321,234
	c3.7,2.5,2.9,1.8,3.8,2.5c0.9,0.7,0.5,0.6,0.9,0.7c0.4,0.1,0.9,1,1.1,0.2s-0.6-15-0.6-15C1322.4,225,1321,233.9,1321,234z"/>
<path id="path4203-0" inkscape:connector-curvature="0" class="st53" d="M233.2,236c-5.6,17.9-9.5,17.3-5.6,17.9
	c3.9,0.6,6.7,1.8,6.7,1.8"/>
<path id="path6740" inkscape:connector-curvature="0" class="st54" d="M737.2,326.7c-16.2-7.1-14.2-14.2-16.2-7.1
	c-2,7.1-2,11.4,0.7,10C724.4,328.1,737.2,326.7,737.2,326.7L737.2,326.7z"/>
<path id="path6943" inkscape:connector-curvature="0" class="st55" d="M1296.5,290c4-4.5,4-4.5,4-4.5"/>
<path id="path6945" inkscape:connector-curvature="0" class="st56" d="M1297.7,293.8c6-4,6-4,6-4"/>
<path id="path6947" inkscape:connector-curvature="0" class="st57" d="M1297.8,286.2c9.1,12.1,9.1,13,9.1,13"/>
<path id="path6955" inkscape:connector-curvature="0" class="st58" d="M1328.3,286.6c1.7,0.5-0.4-0.3,0.3,0.9c0.2,0.3,0.8,0,0.9,0.2
	c0.1,0.3-0.3,0.6-0.3,0.9c-0.2,0.9-0.1,0.8,0.4,1.4c0.4,1.6,0.2-0.2-0.8,2c-0.1,0.2,0.2,0.4,0.1,0.6c-0.3,0.5-1.4,0.7-1.1,1.2
	c0.7,1.1,2.6-1.6,1.1,0.3c2.2-1.1,0,0.4,0.1,0.3c0.4-0.2,1.5-0.9,1.1-0.8c-1.9,0.9-4,2.3-1.8,1c0.3-0.2,0.5-0.3,0.8-0.5
	c-0.7,0-0.1,0.1,0.2-0.4c0-0.1-0.2-0.1-0.2-0.1c0.2-0.2,0.5-0.2,0.7-0.4c0.2-0.1-0.5,0-0.7,0c0.4-0.2,0.9-0.3,1.3-0.6
	c0.2-0.2-1,0.4-0.8,0.2c1.1-0.6,2.2-1.2,3.3-1.8c-0.1,0.1-0.3,0.2-0.2,0.2c0.2,0,0.6-0.4,0.5-0.3c-0.8,0.4-1.5,0.8-2.3,1.3
	c-0.4,0,1.1-0.4,0.8-0.4c-0.2,0-0.4,0.1-0.6,0.2c-0.1,0-0.3,0.1-0.3,0.1c0.3-0.2,0.6-0.3,0.9-0.4c1.1-0.1,2-1.1,2.9-1.5
	c0.1,0-0.5,0.2-0.2,0.6c-0.6,0.8,1.4-0.3,0.4,0.5c-0.1,0.1-0.3,0.2-0.5,0.3c0.2-0.1,0.5-0.2,0.7-0.3l-2.9,1.5l0,0
	c0,0,0.1-0.1,0.1-0.1c0.2-0.2,0.5-0.3,0.6-0.5c0,0,0-0.1-0.1-0.1c-0.3,0-0.8,0.5-0.7,0.2c0.1-0.3,1.8-1,0.2-0.3
	c-0.3,0-0.9,0.7-0.7,0.5c3.5-2.5-1.6,0.8,2-1.5c0.9-0.3-0.2,0.1-0.2,0.1c-0.1,0.1,0.5-0.2,0.4-0.1c-0.3,0.2-0.7,0.2-0.9,0.4
	c-0.4,0.2-0.8,0.4-1.2,0.7c-1.9,1.1,0.9-0.6,1.7-0.8c0,0,0,0.1,0,0.1c-0.5,0.3-1.1,0.5-1.6,0.8c-0.5,0.3,0.6-0.1,0.3,0.1
	c-0.1,0.2-0.4,0.2-0.5,0.4c0,0.1,0.2,0.1,0.3,0.1c-0.2,0.1-0.4,0.3-0.6,0.4c-1.4,1.1-2,1.5-4.1,2.6c-0.1,0.1,0.2-0.2,0.2-0.3
	c0-0.1-0.2-0.1-0.3-0.1c0-0.1-0.1-0.2-0.1-0.3c-0.2,0-0.6,0.1-0.6-0.1c-0.1-0.2,0.3-0.4,0.4-0.7c0-0.2-0.2-0.3-0.2-0.5
	c0-0.3,0.2-0.5,0.1-0.8c-0.1-0.5-0.7-0.8-0.4-1.4c1.4-2.8,0,0.3,0.7-2c0.1-0.3,0.4-0.6,0.4-1c0-0.2-0.5-0.3-0.4-0.5
	c0.5-1.5,1.5-0.7,0.5-1.3L1328.3,286.6L1328.3,286.6z"/>
<path id="path6957" inkscape:connector-curvature="0" class="st58" d="M1333.9,284.6c1,0.4,0.7,1.2,1.1,2c0.2,0.4,0.9,0.5,0.9,0.9
	c-0.6,6.2-2-0.6-0.7,4.1c1.6,3.9,0-1,0.1,3.8c0,1,1.2,1.4,1.3,2.4c0.3,2.6-1,0.4,0.1,2c1,0.3,0.8,0,0.8,0.7c0,0.8,0.1,0.3-0.8,1.1
	l-2.1,1.1l0,0c-0.1,0-0.5,0.1-0.4-0.1c0.5-0.9,3.2-1.8,0.4-1.8c1.2-2.8,0.3,0.2,0.1-2.2c0-0.5,0.4-1,0.3-1.6
	c-0.2-0.9-2.5-3.2-2.4-4.2c0-0.2,0.7-3.5,0.3-3.9c-0.5-0.5-2,0.2-2-0.4c0-1,1.4-1.4,2-2.1c-0.4-0.1-0.8,0-1.1-0.3
	c-0.2-0.2,0.1-0.5,0.2-0.7L1333.9,284.6L1333.9,284.6z"/>
<g id="use6959" transform="translate(1.0130036,-3.0773231)">
	<path id="path6957_1_" inkscape:connector-curvature="0" class="st58" d="M1334.9,281.5c1,0.4,0.7,1.2,1.1,2
		c0.2,0.4,0.9,0.5,0.9,0.9c-0.6,6.2-2-0.6-0.7,4.1c1.6,3.9,0-1,0.1,3.8c0,1,1.2,1.4,1.3,2.4c0.3,2.6-1,0.4,0.1,2
		c1,0.3,0.8,0,0.8,0.7c0,0.8,0.1,0.3-0.8,1.1l-2.1,1.1l0,0c-0.1,0-0.5,0.1-0.4-0.1c0.5-0.9,3.2-1.8,0.4-1.8c1.2-2.8,0.3,0.2,0.1-2.2
		c0-0.5,0.4-1,0.3-1.6c-0.2-0.9-2.5-3.2-2.4-4.2c0-0.2,0.7-3.5,0.3-3.9c-0.5-0.5-2,0.2-2-0.4c0-1,1.4-1.4,2-2.1
		c-0.4-0.1-0.8,0-1.1-0.3c-0.2-0.2,0.1-0.5,0.2-0.7L1334.9,281.5L1334.9,281.5z"/>
</g>
<g id="use6961" transform="translate(2.0615907,0.86017266)">
	<path id="path6957_2_" inkscape:connector-curvature="0" class="st58" d="M1336,285.4c1,0.4,0.7,1.2,1.1,2c0.2,0.4,0.9,0.5,0.9,0.9
		c-0.6,6.2-2-0.6-0.7,4.1c1.6,3.9,0-1,0.1,3.8c0,1,1.2,1.4,1.3,2.4c0.3,2.6-1,0.4,0.1,2c1,0.3,0.8,0,0.8,0.7c0,0.8,0.1,0.3-0.8,1.1
		l-2.1,1.1l0,0c-0.1,0-0.5,0.1-0.4-0.1c0.5-0.9,3.2-1.8,0.4-1.8c1.2-2.8,0.3,0.2,0.1-2.2c0-0.5,0.4-1,0.3-1.6
		c-0.2-0.9-2.5-3.2-2.4-4.2c0-0.2,0.7-3.5,0.3-3.9c-0.5-0.5-2,0.2-2-0.4c0-1,1.4-1.4,2-2.1c-0.4-0.1-0.8,0-1.1-0.3
		c-0.2-0.2,0.1-0.5,0.2-0.7L1336,285.4L1336,285.4z"/>
</g>
<path id="path6945-9" inkscape:connector-curvature="0" class="st56" d="M1301.6,296.7c6-4,6-4,6-4"/>
<rect id="rect5617-6-5-5" x="1126.9" y="474" class="st59" width="441.2" height="49.7"/>
<text transform="matrix(1.0014 0 0 1 1142.8833 505.2212)" class="st9 st6 st7">UNDERPRIVILEGED</text>
<rect id="rect5617-6-1-1" x="573.4" y="647.5" class="st60" width="437.2" height="43.6"/>
<text transform="matrix(1.0014 0 0 1 584.4038 674.6691)" class="st9 st6 st7">LOW ACADEMIC PERFORMANCE</text>
<rect id="rect5617-2-3-8" x="54.5" y="639.9" class="st39" width="443.2" height="43.5"/>
<text transform="matrix(1.0014 0 0 1 68.5326 668.7109)" class="st5 st6 st7">LOW MOTIVATON</text>
<rect id="rect5617-2-3-8-1" x="1126.9" y="579.4" class="st61" width="441.2" height="49.7"/>
<text transform="matrix(1.0014 0 0 1 1142.8833 611.5161)" class="st5 st6 st7">LOW MOTIVATON</text>
<path id="path7232" inkscape:connector-curvature="0" class="st62" d="M1336.7,268.5c-0.4,0.5-1,0.8-1.1,1.4
	c-0.1,0.2,0.4,0.3,0.6,0.2c0.9-0.3,1.7-0.9,2.6-1.3c0.5-0.2,1-0.3,1.5-0.5c0,0.2-0.2,0.7,0,0.6c1.1-0.4,2-1.2,3-1.7
	c-3.2,3.3,0.7-0.9,1.3-0.2c0.6,0.7-1.7,1.1-2,1.9c-0.2,0.5,1-0.5,1.5-0.6c0.2,0,0,0.3-0.1,0.4c-0.4,0.5-1,0.8-1.5,1.2
	c1.3-0.4,2.4-1.4,3.7-1.9c0.6-0.2-1,0.6-1.5,1c-1.7,1.3,0.1,0.4-1.6,1.6c2.3-0.8-1.6,1.1-0.9,1c1.1-0.3,3.8-2.4,3.2-1.4
	c-0.6,1-7.3,3.5-1.1,1.1c-3.1,2.2-1.3,0.7-0.2,0.7c0.2,0-0.3,0.3-0.4,0.4c0.5-0.2,0.9-0.4,1.4-0.5c0.1,0-0.2,0.2-0.3,0.3
	c-0.4,0.3-0.8,0.5-1.3,0.7c-1.6,1.4,9.7-5-1.3,1.3l-1.7,0.9l0,0c-4.4,1.7,1.1-0.3,0.9-0.8c-0.4-0.8-1.7,0.8-2.6,1.2
	c-0.3,0.1,0.5-0.3,0.7-0.4c-0.1,0-0.5,0.1-0.4,0c0.4-0.3,1.9-0.8,1.4-0.9c-3.6-0.2-1.9,2.2-1.1-0.2c3.1-2.1,1.2-0.7-0.2-0.4
	c-0.2,0,0.6-0.3,0.4-0.5c-0.4-0.3-2.5,1.1,0-0.5c-0.4,0-0.4,0,0.1-0.4c0.1-0.1,0.5-0.3,0.4-0.3c-0.2,0-0.4,0.2-0.6,0.3
	c-0.1,0,0.1-0.1,0.1-0.2c-0.1,0-0.3,0.1-0.4,0.1c-0.2,0.1-0.7,0.4-0.6,0.2c0.2-0.4,0.7-0.5,0.9-0.9c0.2-0.4-0.8,0.2-1.2,0.2
	c-0.2,0-0.1-0.5-0.4-0.4c-0.9,0.1-1.9,0.4-2.8,0.4c-0.3,0-0.9,0.2-0.8-0.1c0.9-2.1,6.9-5-3.3,1.1L1336.7,268.5L1336.7,268.5z"/>
<path id="path7236" inkscape:connector-curvature="0" class="st63" d="M1304,383.4c1.8-2.4-0.9-0.5-1.8-1.6
	c-0.2-0.2,0.3-0.6,0.1-0.8c-1.1-1.1-4.5,2.2,1.5-2c4.4-3.4,1.3-0.5,0.1-1.1c-0.8-0.4,2.2-1.2,1.6-2.5c-2.7,0.5,2.8-1.4,0.5-1
	c-0.3,0.1-1,0.5-0.8,0.3c2-1.8,1.8,0-0.6,0.1c-0.6,0,1-0.5,1.5-0.9c0.1-0.1,0.4-0.3,0.2-0.3c-0.5,0.1-1.1,0.3-1.6,0.5
	c-0.2-0.4,2.6-1.4,3.1-1.6l4.7-1.8l0,0c-0.9,0.4-1.8,0.7-2.4,1c-3.6,1.8,0.2-0.1,1.3-0.4c0.4-0.1-0.6,0.4-0.9,0.7c0,0,0.1,0,0.1,0
	c-1,0.5-2.1,1.1-3.1,1.6c-0.6,0.4,1.2-0.5,1.9-0.7c0.6-0.2,1.4-1.1,1.7-0.6c0.3,0.5-1,0.6-1.5,0.9c-0.3,0.2-1.3,0.7-1,0.6
	c2.4-0.6,3.7-1.8,0.7-0.2c-0.2,0.1,0.4-0.1,0.6-0.2c-0.2,0.2-1.1,0.7-1.2,1.1c0,0.2,0.5,0.1,0.5,0.3c-0.1,0.4-1.2,0.7-0.8,0.9
	c1,0.8,6-3.2-1.2,1.7c1.1,0.7,2.7,0.3,2.4,0.7c-1.7,2.2-5,2.7-0.6,2.8L1304,383.4L1304,383.4z"/>
<path id="path7238" inkscape:connector-curvature="0" class="st64" d="M1340.2,347.5c-2.4,4-0.3-0.5,0,2c0.1,0.5-0.8,0.9-0.5,1.3
	c0.2,0.4,1.5-0.2,1.4,0.2c-0.4,1.9-3.5,1.7-0.6,1.7l-5,2.5l0,0c-0.1-0.1-0.2-0.3-0.4-0.4c-0.5-0.2-1.9-0.2-1.4-1
	c0.5-0.7,3.6-3,4.1-4.1c0.1-0.3-0.3-0.5-0.5-0.7L1340.2,347.5L1340.2,347.5z"/>
</svg>
